<svg width="7" height="102" viewBox="0 0 7 102" fill="none" xmlns="http://www.w3.org/2000/svg">
<path d="M3.5 0.333333C2.02724 0.333333 0.833333 1.52724 0.833333 3C0.833333 4.47276 2.02724 5.66667 3.5 5.66667C4.97276 5.66667 6.16667 4.47276 6.16667 3C6.16667 1.52724 4.97276 0.333333 3.5 0.333333ZM3.5 96.3333C2.02724 96.3333 0.833329 97.5272 0.833329 99C0.833329 100.473 2.02724 101.667 3.5 101.667C4.97276 101.667 6.16666 100.473 6.16666 99C6.16666 97.5272 4.97276 96.3333 3.5 96.3333ZM3 3L3 5L4 5L4 3L3 3ZM3 9L3 13L4 13L4 9L3 9ZM3 17L3 21L4 21L4 17L3 17ZM3 25L3 29L4 29L4 25L3 25ZM3 33L3 37L4 37L4 33L3 33ZM3 41L3 45L4 45L4 41L3 41ZM3 49L3 53L4 53L4 49L3 49ZM3 57L3 61L4 61L4 57L3 57ZM3 65L3 69L4 69L4 65L3 65ZM3 73L3 77L4 77L4 73L3 73ZM3 81L3 85L4 85L4 81L3 81ZM3 89L3 93L4 93L4 89L3 89ZM3 97L3 99L4 99L4 97L3 97Z" fill="#3C5B99"/>
</svg>
