<svg width="79" height="108" viewBox="0 0 79 108" fill="none" xmlns="http://www.w3.org/2000/svg">
<path d="M64.7953 43.4448C63.6526 45.4429 62.1566 47.1782 60.3928 48.5515C58.629 49.9248 56.632 50.9092 54.5159 51.4485C52.3997 51.9878 50.206 52.0714 48.0599 51.6946C45.9139 51.3177 43.8576 50.4878 42.0086 49.2521C43.1513 47.2541 44.6473 45.5188 46.4111 44.1455C48.1749 42.7722 50.172 41.7878 52.2881 41.2485C54.4042 40.7092 56.5979 40.6255 58.744 41.0024C60.89 41.3793 62.9463 42.2092 64.7953 43.4448Z" fill="#3A4A6C"/>
<path d="M50.8422 67.8472C49.6994 69.8452 48.2034 71.5805 46.4396 72.9538C44.6759 74.3271 42.6789 75.3115 40.5627 75.8508C38.4466 76.3901 36.2529 76.4737 34.1068 76.0969C31.9608 75.72 29.9045 74.8901 28.0555 73.6545C29.1982 71.6564 30.6942 69.9211 32.458 68.5478C34.2218 67.1745 36.2188 66.1901 38.335 65.6508C40.4511 65.1115 42.6448 65.0279 44.7908 65.4048C46.9369 65.7816 48.9932 66.6116 50.8422 67.8472Z" fill="#3A4A6C"/>
<path d="M50.5898 0.238283C49.446 2.2356 48.6777 4.45681 48.3288 6.775C47.9799 9.09319 48.0573 11.4629 48.5566 13.7488C49.0558 16.0346 49.9672 18.1919 51.2385 20.0971C52.5098 22.0024 54.1162 23.6184 55.9659 24.8528C57.1098 22.8555 57.8781 20.6343 58.227 18.3161C58.5759 15.9979 58.4985 13.6282 57.9992 11.3423C57.4999 9.05645 56.5886 6.89921 55.3173 4.99394C54.0459 3.08867 52.4395 1.47268 50.5898 0.238283Z" fill="#3A4A6C"/>
<path d="M78.7562 19.0386C77.6142 21.0382 76.1184 22.775 74.3545 24.1497C72.5906 25.5244 70.5932 26.51 68.4764 27.0502C66.3596 27.5904 64.165 27.6746 62.0181 27.2979C59.8712 26.9213 57.814 26.0912 55.9643 24.8551C57.1063 22.8555 58.6021 21.1187 60.366 19.744C62.1299 18.3693 64.1274 17.3837 66.2441 16.8435C68.3609 16.3033 70.5555 16.2191 72.7024 16.5957C74.8494 16.9724 76.9065 17.8025 78.7562 19.0386Z" fill="#3A4A6C"/>
<path d="M36.625 24.6484C34.318 28.6822 33.5889 33.5406 34.5981 38.155C35.6073 42.7694 38.2721 46.7618 42.0063 49.2538C44.3133 45.2201 45.0424 40.3616 44.0332 35.7472C43.024 31.1328 40.3592 27.1405 36.625 24.6484Z" fill="#3A4A6C"/>
<path d="M22.6719 49.0469C20.3649 53.0806 19.6358 57.939 20.645 62.5534C21.6542 67.1678 24.319 71.1602 28.0532 73.6522C30.3602 69.6185 31.0893 64.76 30.0801 60.1456C29.0709 55.5312 26.4061 51.5389 22.6719 49.0469Z" fill="#3A4A6C"/>
<path d="M8.71484 73.4492C6.40787 77.4829 5.67875 82.3414 6.68795 86.9558C7.69714 91.5702 10.362 95.5625 14.0961 98.0546C15.2384 96.0573 16.0054 93.8365 16.3532 91.519C16.7009 89.2016 16.6227 86.8328 16.123 84.548C15.6233 82.2632 14.7119 80.107 13.4408 78.2027C12.1697 76.2984 10.5638 74.6831 8.71484 73.4492Z" fill="#3A4A6C"/>
<path d="M36.8851 92.2417C35.7424 94.2398 34.2464 95.975 32.4826 97.3483C30.7188 98.7216 28.7218 99.7061 26.6057 100.245C24.4896 100.785 22.2958 100.868 20.1498 100.491C18.0037 100.115 15.9474 99.2846 14.0984 98.049C15.2412 96.051 16.7372 94.3157 18.501 92.9424C20.2647 91.5691 22.2618 90.5847 24.3779 90.0454C26.494 89.5061 28.6878 89.4224 30.8338 89.7993C32.9799 90.1761 35.0361 91.0061 36.8851 92.2417Z" fill="#3A4A6C"/>
</svg>
