<svg width="547" height="171" viewBox="0 0 547 171" fill="none" xmlns="http://www.w3.org/2000/svg">
<path d="M330.87 78.9C329.93 78.43 329.33 78.47 329.06 79C326.38 86.37 323 93.46 318.92 100.29C314.83 107.12 309.98 113.35 304.36 118.97C302.88 120.44 301.11 121.78 299.04 122.99C296.96 124.2 294.79 124.46 292.51 123.79C290.77 123.26 289.53 121.98 288.79 119.97C288.05 117.96 287.42 116.22 286.88 114.75C285.54 110.87 284.3 106.99 283.16 103.1C282.02 99.22 281.05 95.27 280.25 91.25C284.94 90.18 289.22 88.34 293.11 85.73C296.99 83.12 300.27 79.87 302.95 75.99C303.62 74.92 304.42 73.31 305.36 71.17C306.3 69.03 306.9 66.92 307.17 64.84C307.44 62.77 307.17 60.96 306.37 59.42C305.57 57.88 303.82 57.24 301.15 57.51C299 57.78 297 58.82 295.12 60.62C293.24 62.43 291.57 64.07 290.1 65.54C286.21 69.16 282.67 73.11 279.45 77.39C275.83 81.81 272.62 86.43 269.81 91.25C269.81 90.85 269.88 90.52 270.01 90.25C270.54 87.71 271.11 85.2 271.72 82.72C272.32 80.24 273.02 77.8 273.83 75.39C283.34 68.56 291.71 60.59 298.94 51.49C303.23 46 307.11 40.11 310.59 33.81C312.33 30.73 313.97 27.38 315.51 23.77C317.05 20.15 317.95 16.54 318.22 12.92C318.35 9.84002 317.32 7.16002 315.11 4.89002C312.9 2.61002 310.12 1.81001 306.77 2.48001C303.69 3.02001 300.88 4.59002 298.33 7.20002C295.78 9.81002 293.64 12.32 291.9 14.73C289.89 17.81 288.05 20.96 286.38 24.17C284.7 27.38 283 30.6 281.26 33.81C279.38 37.43 277.61 41.08 275.94 44.76C274.26 48.44 272.69 52.16 271.22 55.91C268.08 63.77 265.26 72.01 262.76 80.64C260 85.61 257.17 90.48 254.25 95.18C250.97 100.47 247.32 105.59 243.3 110.55C243.03 110.95 242.6 111.49 241.99 112.16C241.39 112.83 240.75 113.5 240.08 114.17C239.41 114.84 238.71 115.41 237.97 115.88C237.23 116.35 236.53 116.58 235.86 116.58C233.58 116.58 232.71 115.51 233.25 113.37C233.52 112.57 233.78 111.8 234.05 111.06C234.32 110.33 234.58 109.55 234.85 108.75C235.65 105.67 236.42 102.66 237.16 99.71C237.89 96.77 238.8 93.82 239.87 90.87C240.94 87.93 242.14 85.11 243.49 82.43C244.83 79.75 246.03 77.01 247.11 74.19C247.78 71.91 248.35 69.47 248.82 66.86C249.29 64.25 248.72 62.01 247.11 60.13C245.1 57.72 243.02 56.55 240.88 56.61C238.74 56.68 236.66 57.41 234.65 58.82C232.64 60.23 230.8 61.97 229.12 64.04C227.44 66.12 226.01 67.89 224.8 69.36C222.79 72.04 220.85 74.82 218.97 77.7C217.09 80.58 215.22 83.42 213.35 86.24C212.41 87.58 211.54 88.92 210.74 90.26C209.94 91.6 209.06 92.94 208.13 94.28C207.86 94.68 207.46 95.32 206.93 96.19C206.39 97.06 205.79 97.97 205.12 98.9C205.39 96.62 205.69 94.45 206.02 92.37C206.35 90.3 206.99 88.12 207.93 85.84C209.14 82.76 210.57 79.85 212.25 77.1C213.92 74.36 215.63 71.51 217.37 68.56C217.64 68.03 217.57 67.46 217.17 66.85C216.77 66.25 216.2 65.75 215.46 65.34C214.72 64.94 213.95 64.67 213.15 64.54C212.35 64.41 211.74 64.54 211.34 64.94C208.39 66.95 205.92 69.53 203.91 72.67C201.9 75.82 200.36 79.13 199.29 82.61C198.57 84.61 197.97 86.66 197.46 88.73C197.26 89.2 197.08 89.68 196.88 90.14C195.27 93.82 193.4 97.41 191.26 100.89C189.38 104.51 187.24 107.79 184.83 110.73C184.16 111.53 183.36 112.44 182.42 113.44C181.48 114.44 180.41 115.35 179.21 116.15C178.01 116.95 176.77 117.52 175.49 117.86C174.22 118.2 172.98 118.03 171.77 117.36C170.3 116.42 169.33 114.88 168.86 112.74C168.39 110.6 168.02 108.79 167.76 107.32C167.49 105.45 167.39 103.64 167.46 101.9C167.53 100.16 167.69 98.35 167.96 96.48C168.36 92.6 169.37 88.71 170.97 84.83C171.64 83.22 172.41 81.69 173.28 80.21C174.15 78.74 174.72 77.13 174.99 75.39C175.12 74.86 174.86 74.39 174.19 73.98C173.52 73.58 172.99 73.51 172.58 73.78L170.77 74.99C172.24 72.31 173.01 69.53 173.08 66.65C173.15 63.77 171.84 61.26 169.16 59.12C167.15 57.51 165.11 56.61 163.03 56.41C160.95 56.21 158.94 56.48 157 57.21C155.06 57.95 153.21 59.05 151.48 60.52C149.74 61.99 148.2 63.53 146.86 65.14C143.78 69.03 141.1 73.55 138.83 78.7C138.11 80.33 137.52 81.94 137.03 83.55C131.84 95.72 125.49 107.19 117.94 117.97C117 119.45 116 121.02 114.93 122.69C113.86 124.37 112.59 125.6 111.11 126.41C110.44 126.81 110.04 127.01 109.9 127.01H108.09C106.88 126.88 106.28 126.78 106.28 126.71C106.28 126.64 106.15 126.21 105.88 125.4C105.48 124.6 105.24 123.69 105.18 122.69C105.11 121.69 105.01 120.78 104.88 119.98C104.61 116.36 104.71 112.75 105.18 109.13C105.65 105.51 106.42 101.97 107.49 98.48C108.56 94.86 109.63 91.32 110.7 87.83C111.77 84.35 112.84 80.87 113.91 77.39C114.58 74.71 115.38 71.83 116.32 68.75C117.26 65.67 117.05 62.79 115.72 60.11C114.38 57.43 112.51 56.19 110.09 56.39C107.68 56.59 105.23 57.49 102.76 59.1C100.28 60.71 97.9 62.55 95.63 64.62C93.35 66.7 91.68 68.34 90.61 69.54C88.33 71.95 86.22 74.53 84.28 77.27C82.34 80.02 80.43 82.79 78.56 85.61C78.16 86.28 77.76 86.88 77.35 87.42C76.95 87.96 76.61 88.56 76.35 89.23C76.62 87.09 76.92 84.98 77.25 82.9C77.58 80.83 77.95 78.72 78.36 76.57C88.67 69.61 97.57 61.37 105.07 51.86C109.89 45.97 113.97 39.88 117.32 33.58C118.93 30.5 120.6 27.12 122.34 23.44C124.08 19.76 125.02 16.18 125.15 12.69C125.42 9.75001 124.61 7.10001 122.74 4.76001C120.86 2.42001 118.52 0.909994 115.71 0.239994C113.83 -0.160006 112.09 -0.0599881 110.49 0.540012C108.88 1.14001 107.41 2.05 106.07 3.25C104.73 4.46 103.49 5.79999 102.35 7.26999C101.21 8.74999 100.17 10.08 99.24 11.29C94.42 17.72 90.07 24.38 86.18 31.28C84.51 34.25 82.97 37.3 81.52 40.4C81 40.33 80.47 40.29 79.95 40.21C76.47 39.68 73.09 38.87 69.81 37.8C66.53 36.73 63.28 35.59 60.07 34.39C60.74 32.92 61.38 31.38 61.98 29.77C62.58 28.16 62.82 26.56 62.68 24.95C62.68 24.28 62.31 23.78 61.58 23.44C60.84 23.11 60.21 23.07 59.67 23.34C58.19 24.14 56.86 25.32 55.65 26.85C54.45 28.39 53.37 30.03 52.44 31.77C51.9 31.5 51.37 31.3 50.83 31.17C50.29 31.04 49.76 30.84 49.22 30.57C44.93 29.1 40.58 27.83 36.16 26.75C31.74 25.68 27.32 25.14 22.9 25.14C19.02 25.01 14.9 25.44 10.55 26.45C6.20002 27.45 2.69 29.43 0 32.38V32.58L0.200012 32.78C2.48001 31.71 4.68999 30.77 6.82999 29.97C8.96999 29.17 11.25 28.56 13.66 28.16C16.34 27.76 18.98 27.59 21.59 27.66C24.2 27.73 26.85 27.96 29.52 28.36C33.27 29.03 36.88 29.94 40.37 31.07C43.85 32.21 47.33 33.51 50.81 34.99C50.54 35.66 50.14 36.53 49.61 37.6C48.14 40.41 46.76 43.22 45.49 46.04C44.22 48.85 43.05 51.66 41.98 54.48C39.7 60.1 37.63 65.76 35.75 71.45C33.87 77.14 32.2 83 30.73 89.03C30.2 91.44 29.59 94.09 28.92 96.96C28.25 99.84 27.78 102.75 27.51 105.7C27.24 108.65 27.31 111.53 27.71 114.34C28.11 117.15 29.18 119.63 30.92 121.77C32.53 123.78 34.2 124.92 35.94 125.18C37.68 125.45 39.42 125.15 41.16 124.28C42.9 123.41 44.54 122.21 46.08 120.66C47.62 119.12 48.92 117.55 50 115.94C51.87 113.26 53.65 110.49 55.32 107.6C56.99 104.72 58.7 101.81 60.44 98.86C62.31 95.78 64.32 92.63 66.47 89.42C67.05 88.54 67.62 87.66 68.16 86.77C67.39 93.03 67.08 99.27 67.27 105.49C67.27 106.03 67.61 106.63 68.27 107.3C68.94 107.97 69.71 108.51 70.58 108.91C71.45 109.31 72.25 109.55 72.99 109.61C73.72 109.68 74.23 109.31 74.5 108.5C76.78 102.34 79.19 96.38 81.73 90.62C84.27 84.86 87.69 79.44 91.97 74.35C94.11 71.67 96.42 69.2 98.9 66.92C101.38 64.64 104.09 62.7 107.04 61.09C107.98 60.56 109.02 60.15 110.15 59.88C111.29 59.61 111.92 60.22 112.06 61.69C112.06 62.49 111.82 63.33 111.36 64.2C110.89 65.07 110.52 65.84 110.25 66.51C109.58 68.12 108.95 69.76 108.34 71.43C107.74 73.11 107.1 74.74 106.43 76.35C103.62 82.78 101.11 89.48 98.9 96.44C96.69 103.4 96.05 110.5 96.99 117.73C97.26 120.41 98.03 123.05 99.3 125.66C100.57 128.27 102.62 130.05 105.43 130.98C108.11 131.78 110.48 131.38 112.56 129.78C114.63 128.17 116.41 126.43 117.88 124.56C122.83 117.87 127.15 110.73 130.84 103.17C132.45 99.85 133.96 96.49 135.38 93.11C135.38 93.35 135.36 93.59 135.36 93.83C135.36 95.57 135.76 97.51 136.56 99.66C137.36 101.8 138.47 103.68 139.87 105.28C141.28 106.89 142.91 108.03 144.79 108.7C146.66 109.37 148.67 109.17 150.82 108.1C152.96 107.03 154.74 105.36 156.14 103.08C157.55 100.8 158.78 98.66 159.86 96.65C160.13 95.98 160.46 95.41 160.86 94.94C161.26 94.47 161.59 93.9 161.87 93.23C161.47 94.84 161.27 96.38 161.27 97.85C161.14 99.73 161.14 101.77 161.27 103.98C161.4 106.19 161.77 108.37 162.37 110.51C162.97 112.65 163.84 114.6 164.98 116.34C166.12 118.08 167.69 119.42 169.7 120.36C171.84 121.43 173.92 121.8 175.93 121.47C177.94 121.14 179.78 120.4 181.45 119.26C183.12 118.12 184.66 116.68 186.07 114.94C187.48 113.2 188.71 111.53 189.79 109.92C192.2 106.34 194.34 102.66 196.24 98.88C196.35 100.42 196.61 101.96 197.02 103.49C197.29 104.29 197.86 105 198.73 105.6C199.6 106.2 200.44 106.57 201.24 106.71C203.92 106.98 206.03 106.18 207.57 104.3C209.11 102.43 210.55 100.48 211.89 98.47C213.63 95.79 215.3 93.18 216.91 90.64C218.52 88.1 220.26 85.55 222.13 83.01C224 80.2 225.95 77.49 227.96 74.87C229.97 72.26 232.18 69.75 234.59 67.34C235.52 66.4 236.53 65.4 237.6 64.33C238.67 63.26 239.81 62.46 241.02 61.92L241.42 61.72V61.92C241.42 62.59 241.35 63.12 241.22 63.53C241.09 64.47 240.85 65.37 240.52 66.24C240.18 67.11 239.88 67.95 239.62 68.75C236.94 74.78 234.26 80.7 231.59 86.53C228.91 92.36 227.37 98.62 226.97 105.31C226.84 107.59 227.04 109.83 227.57 112.04C228.1 114.25 229.44 116.03 231.59 117.36C233.33 118.43 235.04 118.73 236.71 118.26C238.38 117.79 239.96 116.89 241.43 115.55C243.97 113.27 246.28 110.76 248.36 108.02C250.44 105.28 252.41 102.56 254.29 99.88C256.42 97.06 258.44 94.12 260.37 91.1C259.57 96.56 259.41 101.96 259.92 107.32C259.92 107.99 260.26 108.66 260.92 109.33C261.59 110 262.36 110.54 263.23 110.94C264.1 111.34 264.9 111.48 265.64 111.34C266.37 111.21 266.88 110.74 267.15 109.93C267.68 107.65 268.28 105.38 268.96 103.1C269.63 100.82 270.37 98.55 271.17 96.27C271.44 95.6 271.77 94.9 272.18 94.16C272.58 93.43 272.98 92.72 273.39 92.05C273.92 95.67 274.8 99.92 276 104.81C277.21 109.7 278.84 114.15 280.92 118.17C283 122.19 285.57 125.2 288.65 127.21C291.73 129.22 295.55 129.22 300.1 127.21C303.98 125.34 307.4 122.49 310.34 118.67C313.28 114.85 315.9 111.21 318.17 107.72C321.11 103.44 323.69 99.05 325.9 94.56C328.11 90.07 330.08 85.42 331.83 80.6C332.1 79.93 331.76 79.36 330.83 78.89L330.87 78.9ZM275.23 71.07C275.36 70.6 275.5 70.17 275.63 69.76C277.9 63.2 280.52 56.8 283.46 50.58C286.4 44.35 289.42 38.23 292.5 32.2C293.84 29.52 295.21 26.85 296.62 24.17C298.03 21.49 299.67 18.95 301.54 16.54C302.47 15.47 303.45 14.4 304.45 13.33C305.45 12.26 306.56 11.32 307.76 10.52C308.03 10.25 308.69 9.81999 309.77 9.20999C310.84 8.60999 311.24 8.11002 310.98 7.70002C311.65 8.24002 312.08 9.21002 312.28 10.61C312.48 12.02 312.58 13.06 312.58 13.72C312.85 17.2 312.21 20.62 310.67 23.96C309.13 27.31 307.62 30.46 306.15 33.4C303.34 38.76 300.19 43.91 296.71 48.87C293.63 53.29 290.25 57.44 286.57 61.32C282.88 65.21 278.97 68.89 274.82 72.37C274.95 71.97 275.09 71.54 275.22 71.06L275.23 71.07ZM102.39 20.35C104.33 17.54 106.37 14.79 108.52 12.11C109.59 10.77 110.73 9.37002 111.93 7.89002C113.14 6.42002 114.54 5.48002 116.15 5.08002C117.36 4.81002 118.29 5.01 118.96 5.68C119.63 6.35 120.09 7.22001 120.37 8.29001C120.64 9.36001 120.8 10.47 120.87 11.6C120.94 12.74 120.9 13.71 120.77 14.51C120.23 17.86 119.19 21.17 117.66 24.45C116.12 27.73 114.61 30.91 113.14 33.99C110.46 39.35 107.11 44.77 103.1 50.26C96.14 59.5 88.03 67.53 78.79 74.36C79.06 73.02 79.36 71.72 79.69 70.44C80.02 69.17 80.39 67.86 80.79 66.52C82.66 59.96 84.94 53.56 87.62 47.34C87.79 46.96 87.97 46.58 88.13 46.2C89.11 46.18 90.08 46.14 91.03 46.04C92.64 45.91 94.44 45.51 96.45 44.83C98.46 44.16 100.33 43.22 102.08 42.02C103.82 40.81 105.26 39.41 106.4 37.8C107.54 36.19 108.11 34.39 108.11 32.38C108.11 32.11 107.97 31.88 107.71 31.68C107.44 31.48 107.17 31.51 106.91 31.78C106.11 32.45 105.4 33.22 104.8 34.09C104.2 34.96 103.49 35.73 102.69 36.4C100.55 37.88 98.4 39.01 96.26 39.81C94.39 40.37 92.51 40.71 90.61 40.84C92.53 36.88 94.6 32.98 96.86 29.16C98.6 26.08 100.44 23.13 102.38 20.32L102.39 20.35ZM69.53 78.49C67.34 81.35 65.37 84.33 63.62 87.44C61.81 90.65 59.97 93.8 58.1 96.88C56.36 99.56 54.68 102.24 53.08 104.91C51.47 107.59 49.73 110.27 47.86 112.94C47.32 113.74 46.42 114.88 45.15 116.35C43.88 117.83 42.57 119.1 41.23 120.17C39.89 121.24 38.62 121.85 37.41 121.98C36.2 122.12 35.33 121.25 34.8 119.37C33.86 115.89 33.67 112.34 34.2 108.72C34.73 105.1 35.54 101.56 36.61 98.07C38.35 91.78 40.19 85.55 42.13 79.39C44.07 73.23 46.25 67.14 48.66 61.11C49.73 58.03 50.9 55.05 52.17 52.17C53.44 49.29 54.75 46.38 56.09 43.43C56.49 42.49 56.86 41.62 57.19 40.82C57.52 40.02 57.89 39.15 58.3 38.21C59.1 38.48 59.64 38.68 59.91 38.81C62.32 39.75 64.8 40.72 67.34 41.72C69.88 42.72 72.49 43.6 75.17 44.33C76.58 44.72 77.98 45.05 79.39 45.32C78.32 47.86 77.3 50.44 76.38 53.07C73.48 61.25 71.2 69.72 69.53 78.47V78.49ZM160.64 91.35C158.56 95.44 156.12 98.95 153.31 101.9C152.51 102.7 151.43 103.54 150.1 104.41C148.76 105.28 147.49 105.38 146.28 104.71C145.61 104.18 145.08 103.2 144.67 101.8C144.27 100.39 144 99.36 143.87 98.69C143.6 96.41 143.77 94.17 144.37 91.96C144.97 89.75 145.68 87.58 146.48 85.43C147.95 81.81 149.59 78.2 151.4 74.58C153.21 70.96 155.65 67.82 158.73 65.14C159.53 64.47 160.44 63.83 161.44 63.23C162.44 62.63 163.41 62.23 164.35 62.02C165.29 61.82 166.16 61.95 166.96 62.42C167.76 62.89 168.37 63.86 168.77 65.33C169.44 67.74 169.34 70.05 168.47 72.26C167.6 74.47 166.76 76.71 165.96 78.99C165.96 79.26 166.09 79.39 166.36 79.39C164.62 83.28 162.71 87.26 160.63 91.34L160.64 91.35ZM277.74 85.22C277.81 85.09 277.91 84.95 278.04 84.82C280.72 80.94 283.56 77.29 286.58 73.87C289.59 70.46 292.84 67.21 296.32 64.13C296.99 63.46 297.69 62.82 298.43 62.22C299.16 61.62 299.94 61.12 300.74 60.71C301.81 60.04 302.51 59.98 302.85 60.51C303.18 61.05 303.22 61.78 302.95 62.72C302.55 63.66 302.01 64.6 301.34 65.53C300.27 67.41 299.23 69.18 298.23 70.85C297.22 72.53 295.99 74.1 294.51 75.57C289.69 80.66 283.99 84.01 277.43 85.61C277.56 85.48 277.66 85.34 277.73 85.21L277.74 85.22ZM544.87 78.09C543.73 77.49 543.03 77.52 542.76 78.19C539.27 87.43 534.86 96 529.5 103.9C528.02 105.91 526.59 107.89 525.18 109.83C523.77 111.77 522.27 113.68 520.66 115.55C520.12 116.22 519.32 117.06 518.25 118.06C517.18 119.06 516.07 119.87 514.94 120.47C513.8 121.07 512.69 121.31 511.63 121.17C510.56 121.04 509.82 120.24 509.42 118.76C508.75 116.35 508.45 113.84 508.52 111.23C508.59 108.62 508.92 106.04 509.52 103.5C510.12 100.96 510.86 98.45 511.73 95.97C512.6 93.49 513.44 91.12 514.24 88.84C515.85 84.15 517.62 79.43 519.56 74.68C521.5 69.93 522.94 65.14 523.88 60.32C523.88 59.92 523.71 59.55 523.38 59.22C523.04 58.89 522.64 58.59 522.17 58.32C521.7 58.05 521.2 57.92 520.66 57.92C520.12 57.92 519.79 58.12 519.65 58.52C516.84 62.41 514.49 66.69 512.62 71.38C511.68 72.85 510.78 74.23 509.91 75.5C509.04 76.77 508.2 78.08 507.4 79.42C505.12 82.9 502.75 86.42 500.27 89.97C497.79 93.52 495.01 96.77 491.93 99.71C491.66 99.98 491.39 100.21 491.13 100.41C490.86 100.61 490.59 100.85 490.33 101.11C489.66 101.38 489.29 101.55 489.23 101.61C489.16 101.68 489 101.31 488.73 100.51C488.46 99.71 488.39 98.77 488.53 97.7C488.66 96.63 488.8 95.63 488.93 94.69C489.2 92.68 489.46 90.67 489.73 88.66C490 86.65 490.46 84.71 491.14 82.83C492.35 78.95 493.88 75.3 495.76 71.88C497.63 68.47 499.51 65.02 501.38 61.54C501.65 61.01 501.58 60.44 501.18 59.83C500.78 59.23 500.21 58.73 499.47 58.32C498.73 57.92 498 57.62 497.26 57.42C496.52 57.22 495.95 57.32 495.55 57.72C492.06 61.07 489.35 65.12 487.41 69.87C486.05 73.2 484.92 76.51 483.98 79.81C481.28 82.94 477.99 85.63 474.05 87.85C469.76 90.26 465.28 91.6 460.59 91.87C461.93 88.93 463.13 85.71 464.21 82.23C465.14 79.15 465.85 75.87 466.32 72.39C466.79 68.91 466.29 65.63 464.81 62.55C463.34 59.61 460.93 57.53 457.58 56.32C454.23 55.11 451.02 55.32 447.94 56.92C444.59 58.66 442.25 61.27 440.91 64.75C439.57 68.23 439.17 71.92 439.7 75.8C438.83 76.43 438 77.17 437.21 78C436.88 77.99 436.63 78.12 436.48 78.41C433.13 84.03 429.18 89.09 424.63 93.58C420.08 98.07 415.19 102.19 409.97 105.93C411.31 101.38 412.61 96.86 413.89 92.37C415.16 87.89 416.53 83.37 418.01 78.81C419.35 75.06 420.75 71.38 422.23 67.76C423.7 64.14 424.91 60.4 425.85 56.51C426.12 55.84 425.78 55.3 424.85 54.9C423.91 54.5 423.24 54.43 422.84 54.7C420.43 56.71 418.52 59.15 417.12 62.03C415.71 64.91 414.47 67.82 413.4 70.77C412.73 72.38 412.13 74.02 411.59 75.69C411.05 77.37 410.45 79 409.78 80.61C409.38 81.28 409.04 81.95 408.78 82.62C407.71 84.36 406.57 86.1 405.37 87.84C404.16 89.58 402.96 91.32 401.75 93.06C400.41 94.94 399.07 96.88 397.73 98.89C396.39 100.9 394.98 102.78 393.51 104.51C392.97 105.05 392.34 105.58 391.6 106.12C390.86 106.66 390.02 106.39 389.09 105.32C388.82 104.92 388.69 104.28 388.69 103.41V101.5C388.69 100.29 388.82 99.12 389.09 97.98C389.36 96.84 389.69 95.67 390.09 94.47C390.62 92.33 391.23 90.22 391.9 88.14C392.57 86.07 393.24 83.96 393.91 81.81C394.58 79.8 395.32 77.79 396.12 75.78C396.92 73.77 397.86 71.83 398.93 69.95C400 67.94 401.24 65.9 402.65 63.82C404.06 61.75 405.03 59.64 405.56 57.49C405.83 56.42 405.26 55.42 403.85 54.48C402.44 53.55 401.27 53.41 400.34 54.08C398.06 55.56 396.19 57.66 394.72 60.41C393.24 63.16 391.97 65.67 390.9 67.94C389.69 70.35 388.59 72.86 387.59 75.47C386.59 78.08 385.75 80.73 385.08 83.4C384.41 86.21 383.94 89.06 383.67 91.94C383.4 94.82 383.6 97.66 384.27 100.48C384.54 101.96 385.07 103.49 385.88 105.1C386.69 106.71 387.89 107.71 389.5 108.11C390.44 108.38 391.31 108.38 392.11 108.11C392.91 107.84 393.65 107.41 394.32 106.8C394.99 106.2 395.59 105.49 396.13 104.69C396.66 103.89 397.2 103.15 397.74 102.48C399.35 100.34 400.92 98.2 402.46 96.05C404 93.91 405.51 91.7 406.98 89.42C406.85 90.09 406.71 90.66 406.58 91.13C406.45 91.6 406.24 92.17 405.98 92.84C405.04 95.92 404.14 99.07 403.27 102.28C402.4 105.49 401.49 108.71 400.56 111.92C397.88 113.53 395.17 115.03 392.42 116.44C389.67 117.85 386.96 119.29 384.28 120.76C379.73 123.04 375.24 125.41 370.82 127.89C366.4 130.37 362.52 133.55 359.17 137.43C357.7 139.04 356.39 140.91 355.25 143.05C354.12 145.19 353.31 147.37 352.84 149.58C352.37 151.79 352.27 154.03 352.54 156.31C352.81 158.59 353.61 160.73 354.95 162.74C356.29 164.75 357.96 166.36 359.97 167.56C361.98 168.77 364.12 169.53 366.4 169.87C368.68 170.2 371.02 170.2 373.43 169.87C375.84 169.53 378.05 168.9 380.06 167.96C383.14 166.49 385.68 164.55 387.69 162.13C389.7 159.72 391.44 157.04 392.91 154.09C396.53 147.26 399.5 140.16 401.85 132.8C404.19 125.44 406.43 118.07 408.58 110.7C414.87 106.68 420.7 102.16 426.05 97.14C427.55 95.73 428.97 94.26 430.31 92.73C430.27 93 430.2 93.26 430.17 93.53C429.7 97.08 430.04 100.43 431.18 103.57C432.32 106.72 434.56 108.96 437.91 110.3C439.52 110.97 441.06 111.24 442.53 111.1C444 110.97 445.41 110.57 446.75 109.89C448.09 109.22 449.29 108.32 450.37 107.18C451.44 106.04 452.51 104.87 453.58 103.66C454.65 102.19 455.66 100.72 456.59 99.24C457.53 97.77 458.4 96.23 459.2 94.62C464.55 94.89 469.81 93.62 474.97 90.8C477.83 89.24 480.36 87.46 482.59 85.48C482.29 86.96 481.99 88.56 481.7 90.29C481.3 92.64 481.2 94.88 481.4 97.02C481.6 99.16 482.27 101.11 483.41 102.85C484.55 104.59 486.46 105.73 489.14 106.27C491.15 106.81 492.76 106.51 493.96 105.37C495.16 104.23 496.3 102.93 497.37 101.45C498.58 99.84 499.78 98.24 500.99 96.63C502.2 95.02 503.33 93.42 504.4 91.81C504.27 92.21 504.13 92.61 504 93.02C503.87 93.42 503.73 93.82 503.6 94.23C502.93 96.51 502.26 99.05 501.59 101.86C500.92 104.67 500.59 107.42 500.59 110.1C500.59 112.78 501.09 115.32 502.1 117.73C503.1 120.14 504.81 122.15 507.22 123.76C509.63 125.37 511.87 126.04 513.95 125.77C516.02 125.5 518 124.7 519.88 123.36C521.75 122.02 523.5 120.35 525.1 118.34C526.71 116.33 528.11 114.46 529.32 112.72C536.55 102.41 542.24 91.5 546.4 79.98C546.53 79.31 546.03 78.67 544.89 78.07L544.87 78.09ZM396.03 128.11C394.89 132.06 393.59 135.98 392.11 139.86C391.04 142.67 389.93 145.48 388.8 148.3C387.66 151.11 386.22 153.79 384.48 156.34C383.41 157.95 382.07 159.52 380.46 161.06C378.85 162.6 377.08 163.87 375.14 164.88C373.2 165.88 371.16 166.55 369.01 166.89C366.87 167.22 364.79 166.99 362.78 166.19C359.7 165.12 357.66 163.38 356.65 160.97C355.65 158.56 355.31 155.98 355.65 153.24C355.99 150.49 356.82 147.78 358.16 145.1C359.5 142.42 360.97 140.21 362.58 138.47C365.93 134.85 369.74 131.84 374.03 129.43C378.32 127.02 382.6 124.74 386.88 122.6C389.02 121.53 391.13 120.49 393.21 119.49C395.29 118.49 397.39 117.38 399.54 116.18C398.34 120.2 397.16 124.18 396.03 128.13V128.11ZM452.98 94.46C451.77 96.6 450.23 98.98 448.36 101.59C446.48 104.2 444.34 105.91 441.93 106.71C440.59 107.11 439.62 106.84 439.02 105.91C438.42 104.97 438.01 103.77 437.81 102.29C437.61 100.82 437.54 99.31 437.61 97.77C437.68 96.23 437.78 95.13 437.91 94.46C438.31 92.59 438.88 90.78 439.62 89.04C440.35 87.3 441.13 85.56 441.93 83.82C443.14 86.1 444.74 88.17 446.75 90.05C447.82 90.85 448.89 91.56 449.96 92.16C451.03 92.76 452.17 93.27 453.37 93.67C453.1 93.94 452.97 94.21 452.97 94.47L452.98 94.46ZM460.01 71.76C459.74 74.44 459.34 76.92 458.81 79.19C457.74 83.48 456.33 87.49 454.59 91.24C451.11 90.44 448.63 88.8 447.16 86.32C445.68 83.84 445.01 81.07 445.15 77.98C445.28 77.85 445.28 77.58 445.15 77.18C445.28 73.97 446.22 70.82 447.96 67.74C448.63 66.67 449.37 65.6 450.17 64.53C450.97 63.46 451.91 62.59 452.98 61.92C453.65 61.52 454.45 61.15 455.39 60.82C456.32 60.49 457.13 60.52 457.8 60.92C458.33 61.19 458.7 61.69 458.91 62.43C459.11 63.17 459.28 63.8 459.41 64.34C460.08 66.62 460.28 69.1 460.01 71.77V71.76Z" fill="url(#paint0_linear_8799_6076)"/>
<defs>
<linearGradient id="paint0_linear_8799_6076" x1="18.2591" y1="-4.18664e-06" x2="177.479" y2="333.828" gradientUnits="userSpaceOnUse">
<stop stop-color="#007CBC"/>
<stop offset="1" stop-color="#B41E85"/>
</linearGradient>
</defs>
</svg>
