<svg width="38" height="46" viewBox="0 0 38 46" fill="none" xmlns="http://www.w3.org/2000/svg">
<path d="M31.8557 24.4812C31.8039 18.8639 36.5731 16.131 36.7912 16.0038C34.0902 12.1642 29.9037 11.6396 28.4325 11.5978C24.9164 11.237 21.5057 13.6492 19.7145 13.6492C17.8876 13.6492 15.1294 11.6327 12.1567 11.6919C8.33128 11.7494 4.75256 13.9089 2.78981 17.2622C-1.26083 24.0995 1.76017 34.1472 5.64098 39.6739C7.58229 42.3806 9.85071 45.4027 12.8199 45.2964C15.7247 45.1796 16.8097 43.4908 20.3152 43.4908C23.7884 43.4908 24.8073 45.2964 27.8355 45.2284C30.953 45.1796 32.9157 42.5096 34.7891 39.7785C37.0325 36.6761 37.9335 33.6209 37.9692 33.464C37.8959 33.4396 31.9147 31.2139 31.8557 24.4812Z" fill="#121212"/>
<path d="M26.1355 7.96215C27.6978 6.05718 28.7668 3.46552 28.4701 0.83551C26.2088 0.933112 23.3808 2.36053 21.7524 4.22367C20.3116 5.86547 19.0245 8.55648 19.357 11.0871C21.8972 11.2719 24.5052 9.83749 26.1355 7.96215Z" fill="#121212"/>
</svg>
