<svg width="98" height="20" viewBox="0 0 98 20" fill="none" xmlns="http://www.w3.org/2000/svg">
<path d="M2 8.75C1.30964 8.75 0.75 9.30964 0.75 10C0.75 10.6904 1.30964 11.25 2 11.25V8.75ZM96.8839 10.8839C97.372 10.3957 97.372 9.60427 96.8839 9.11612L88.9289 1.16117C88.4408 0.67301 87.6493 0.67301 87.1612 1.16117C86.673 1.64932 86.673 2.44078 87.1612 2.92893L94.2322 10L87.1612 17.0711C86.673 17.5592 86.673 18.3507 87.1612 18.8388C87.6493 19.327 88.4408 19.327 88.9289 18.8388L96.8839 10.8839ZM2 11.25H96V8.75H2V11.25Z" fill="#B41E85"/>
</svg>
