<svg width="86" height="74" fill="none" xmlns="http://www.w3.org/2000/svg"><g clip-path="url(#a)"><path d="m42.215 4.443 1.32 2.71 2.953.434-2.136 2.108.503 2.977-2.64-1.405-2.642 1.405.506-2.977-2.139-2.108 2.953-.435 1.322-2.709z" fill="url(#b)"/><path d="m42.141 55.368-.145-40.692s7.62-.57 10.37-14.451c0 0 .605 16.542.558 17.873-.047 1.33-10.783 37.268-10.783 37.268v.002z" fill="url(#c)"/><path d="M41.168 18.994s-4.787-1.041-8.094-14.888c0 0 .453 17.044.481 18.418.029 1.372 8.15 33.08 8.15 33.08l-.537-36.612v.002z" fill="url(#d)"/><path d="M44.855 12.896a.234.234 0 0 1-.105-.024l-2.537-1.35-2.538 1.35a.223.223 0 0 1-.323-.237l.485-2.861-2.053-2.025a.226.226 0 0 1 .123-.385l2.836-.418 1.27-2.6a.223.223 0 0 1 .4 0l1.269 2.6 2.836.418a.226.226 0 0 1 .123.385l-2.052 2.025.485 2.86a.227.227 0 0 1-.088.22.22.22 0 0 1-.131.045v-.002zM38.42 7.744l1.813 1.79a.226.226 0 0 1 .063.2l-.427 2.525 2.24-1.193a.215.215 0 0 1 .207 0l2.24 1.193-.427-2.526a.231.231 0 0 1 .064-.2l1.813-1.79-2.505-.367a.224.224 0 0 1-.168-.123l-1.12-2.297-1.12 2.297a.224.224 0 0 1-.169.123l-2.504.368z" fill="url(#e)"/><path d="M42.142 55.593c-.01 0-.02 0-.033-.002a.225.225 0 0 1-.19-.223l-.146-40.692c0-.118.09-.216.207-.226.074-.007 7.49-.745 10.167-14.27a.228.228 0 0 1 .237-.182c.113.01.2.102.205.217.024.675.605 16.565.558 17.89C53.1 19.45 42.795 53.962 42.355 55.43a.224.224 0 0 1-.213.16v.002zm.078-40.717.139 38.981C46.155 41.129 52.664 19.082 52.7 18.09c.037-1.05-.342-11.817-.495-16.108-2.75 11.216-8.767 12.705-9.984 12.894h-.002z" fill="url(#f)"/><path d="M41.706 55.83c-.1 0-.19-.069-.215-.168-.332-1.296-8.13-31.749-8.16-33.131-.028-1.356-.476-18.246-.48-18.416a.225.225 0 0 1 .194-.231.22.22 0 0 1 .246.17c1.686 7.055 3.755 10.684 5.196 12.487 1.55 1.942 2.717 2.23 2.73 2.233.1.023.173.112.173.218l.539 36.611a.226.226 0 0 1-.193.227h-.03zM33.347 6.092c.12 4.542.407 15.351.428 16.426.02 1.008 4.788 19.898 7.678 31.204l-.51-34.562c-.863-.31-4.657-2.257-7.598-13.068h.002z" fill="url(#g)"/><path d="m49.232 57.68-7.56 1.792-7.07-1.792 2.423-3.865h9.688l2.52 3.865z" fill="url(#h)"/><path d="M41.673 59.697a.217.217 0 0 1-.053-.006l-7.069-1.792a.224.224 0 0 1-.153-.136.224.224 0 0 1 .018-.203l2.421-3.865a.226.226 0 0 1 .188-.106h9.688c.076 0 .145.037.186.102l2.52 3.865a.227.227 0 0 1-.136.345l-7.56 1.792a.213.213 0 0 1-.05.006v-.002zm-6.715-2.16 6.717 1.703 7.195-1.705-2.276-3.493H37.15l-2.19 3.495h-.002z" fill="url(#i)"/><path d="M31.13 71.168c.93-.78 1.988-1.357 3.07-1.81.404-.169.817-.323 1.239-.458-1.107-.597-1.916-1.49-2.746-2.461-.31-.279-2.612-3.115-2.587-3.117 1.432-.324 2.683-.584 4.154-.322.92.16 1.703.534 2.497 1.04.653.413 1.31.914 2.058 1.434.514.355 1.05.709 1.635.896.584.187 1.23.191 1.752-.14.066-.04.135-.089.21-.066.064.019.116.085.154.154.727 1.262-.034 3.757-.736 4.522-1.879 2.14-3.762 3.104-6.473 2.852-2.378-.253-3.888-.336-6.11.092-.21.041.601-1.277.662-1.362.377-.46.772-.88 1.218-1.251l.002-.003z" fill="url(#j)"/><path d="M20.144 66.579c.995-.406 2.055-.593 3.104-.666.391-.027.786-.035 1.185-.029-.825-.854-1.328-1.883-1.833-2.992-.203-.336-1.593-3.55-1.572-3.546 1.345.162 2.509.322 3.74 1.006.772.424 1.37.992 1.943 1.674.47.559.925 1.195 1.449 1.873.36.463.738.931 1.197 1.266.456.335 1.009.53 1.53.395.066-.017.138-.038.197.004.051.035.078.108.094.179.321 1.305-.909 3.253-1.686 3.717-2.106 1.318-3.944 1.62-6.238.599-2.005-.925-3.309-1.453-5.357-1.747-.194-.027.819-.943.892-1 .436-.29.878-.54 1.355-.733z" fill="url(#k)"/><path d="M11.445 59.1c.972-.046 1.958.122 2.908.39.354.1.708.217 1.062.348-.545-1.019-.768-2.096-.978-3.25-.107-.361-.655-3.69-.64-3.684 1.165.582 2.178 1.104 3.132 2.11.598.628 1.007 1.323 1.367 2.113.297.646.559 1.355.874 2.12.215.524.446 1.056.777 1.495.33.439.774.78 1.265.823.062.007.13.009.172.065.037.046.045.118.043.187-.014 1.25-1.543 2.588-2.333 2.76-2.155.519-3.845.225-5.652-1.396-1.574-1.447-2.617-2.33-4.371-3.243-.166-.086.931-.585 1.009-.612a6.47 6.47 0 0 1 1.363-.226h.002z" fill="url(#l)"/><path d="M5.338 49.537c.866.28 1.699.759 2.483 1.314.29.208.58.428.867.663-.268-1.102-.235-2.152-.178-3.27-.016-.362.199-3.584.21-3.576.905.927 1.693 1.742 2.332 2.975.4.77.62 1.534.775 2.368.13.682.213 1.41.332 2.2.082.542.174 1.095.374 1.596.2.501.522.95.952 1.148.053.025.113.05.14.112a.303.303 0 0 1 0 .181c-.285 1.114-1.937 1.821-2.678 1.724-2.03-.227-3.464-1.032-4.717-3.084-1.08-1.82-1.813-2.964-3.151-4.376-.127-.133.941-.222 1.015-.222.42.037.83.112 1.246.245l-.002.002z" fill="url(#m)"/><path d="M2.13 38.689c.671.555 1.277 1.283 1.83 2.064.204.291.407.595.601.909.008-1.108.268-2.07.563-3.094.063-.339.968-3.28.98-3.272.557 1.183 1.052 2.218 1.336 3.582.18.852.207 1.638.164 2.46-.035.673-.115 1.372-.178 2.139-.043.526-.08 1.064-.01 1.592.07.526.258 1.046.595 1.368.043.04.09.083.1.15a.276.276 0 0 1-.038.164c-.485.921-2.092 1.017-2.718.68-1.73-.883-2.806-2.098-3.432-4.41-.528-2.043-.896-3.355-1.7-5.124-.078-.167.847.112.908.139.348.179.68.387 1 .653H2.13z" fill="url(#n)"/><path d="M2.124 27.346c.393.763.694 1.667.95 2.603.094.347.184.704.265 1.07.285-1.05.743-1.881 1.25-2.756.136-.298 1.658-2.826 1.67-2.82.123 1.34.258 2.512.15 3.92-.065.879-.233 1.637-.465 2.403-.19.628-.421 1.262-.654 1.964-.16.48-.316.977-.377 1.495-.061.518-.02 1.069.192 1.487.027.051.058.108.052.174a.25.25 0 0 1-.07.14c-.62.694-2.01.232-2.46-.296-1.256-1.42-1.868-2.923-1.8-5.326.085-2.119.132-3.497-.019-5.47-.014-.187.649.397.692.445.229.291.44.603.628.969l-.004-.002z" fill="url(#o)"/><path d="M5.63 16.294c.03.885-.048 1.879-.159 2.885-.04.374-.088.757-.139 1.144.559-.936 1.191-1.601 1.88-2.302.2-.243 2.266-2.268 2.28-2.264-.395 1.387-.693 2.603-1.232 3.965-.333.85-.7 1.542-1.115 2.216-.34.553-.71 1.096-1.099 1.699-.266.413-.532.844-.726 1.326-.195.482-.315 1.029-.254 1.505a.378.378 0 0 1-.006.185.218.218 0 0 1-.094.11c-.69.453-1.69-.468-1.903-1.13-.608-1.801-.651-3.46.176-5.787.759-2.043 1.275-3.386 1.895-5.388.059-.19.347.607.366.667.07.364.117.742.13 1.166v.003z" fill="url(#p)"/><path d="M12.956 6.306c-.42.904-.954 1.89-1.492 2.873-.2.366-.405.738-.614 1.114.83-.773 1.61-1.257 2.458-1.765.253-.183 2.793-1.659 2.811-1.657-1 1.312-1.796 2.476-2.805 3.707a18.957 18.957 0 0 1-1.783 1.917c-.483.455-.982.888-1.512 1.372-.364.333-.73.678-1.062 1.1-.33.42-.622.927-.747 1.424-.016.063-.03.131-.072.183a.206.206 0 0 1-.112.08c-.692.224-1.136-1.024-1.048-1.754.213-1.993.843-3.657 2.5-5.735 1.493-1.818 2.53-3.021 4.042-4.86.144-.174-.055.714-.071.78a13.24 13.24 0 0 1-.493 1.219v.002z" fill="url(#q)"/><path d="M29.242 74a.231.231 0 0 1-.2-.11c-.195-.31.69-1.584.697-1.598.426-.52.833-.94 1.255-1.291.861-.722 1.885-1.325 3.127-1.844.264-.11.534-.214.804-.31-.927-.599-1.66-1.408-2.384-2.258-.207-.195-.976-1.125-1.422-1.667-.84-1.023-1.244-1.581-1.212-1.674l.04-.114.116-.027c1.314-.297 2.672-.603 4.238-.325.851.15 1.645.479 2.574 1.07.426.27.852.575 1.302.897.245.177.5.358.763.54.491.342 1.02.691 1.578.868.346.11 1.009.24 1.574-.115.085-.056.218-.139.384-.091.11.033.203.116.28.256.79 1.374-.047 3.991-.765 4.777-2.013 2.293-4.005 3.166-6.65 2.921-2.542-.272-3.942-.318-6.05.088-.016.004-.032.004-.049.004V74zm-.03-.432h-.003.002zm3.073-.303c.995 0 1.97.09 3.098.21 2.526.233 4.349-.572 6.291-2.782.659-.72 1.388-3.093.712-4.268a.252.252 0 0 0-.022-.037c-.013.006-.025.014-.035.02-.534.34-1.22.395-1.938.167-.614-.196-1.173-.564-1.69-.926-.266-.185-.522-.368-.77-.544a28.24 28.24 0 0 0-1.283-.886c-.878-.56-1.625-.871-2.419-1.008-1.355-.241-2.568-.015-3.739.245.557.699 2.11 2.599 2.35 2.817l.018.02c.835.98 1.613 1.837 2.685 2.413l.448.24-.485.159a15.15 15.15 0 0 0-1.221.453c-1.204.501-2.19 1.083-3.017 1.777-.399.335-.788.737-1.189 1.225-.07.1-.38.62-.544.95a15.573 15.573 0 0 1 2.752-.245h-.002z" fill="url(#r)"/><path d="M25.856 70.884c-.874 0-1.754-.21-2.687-.625-1.901-.878-3.205-1.43-5.3-1.73a.238.238 0 0 1-.2-.177c-.089-.337.982-1.202.992-1.21a7.871 7.871 0 0 1 1.404-.763c.92-.374 1.958-.597 3.17-.68.237-.016.476-.025.716-.029-.651-.788-1.089-1.684-1.54-2.673-.132-.233-.6-1.29-.871-1.907-.51-1.164-.74-1.785-.688-1.863l.074-.11.131.015c1.232.147 2.505.301 3.819 1.03.714.394 1.33.926 2.001 1.724.311.37.614.772.933 1.196.168.222.34.451.52.684.344.445.716.904 1.154 1.224.266.196.798.504 1.35.36.087-.023.234-.06.371.035.088.063.148.162.182.308.352 1.428-.984 3.476-1.786 3.956-1.322.828-2.527 1.237-3.745 1.237v-.002zm-7.62-2.74c1.978.318 3.322.894 5.109 1.718 2.116.941 3.866.773 6.035-.587.724-.432 1.889-2.274 1.592-3.48-.002-.013-.006-.02-.008-.03a.037.037 0 0 0-.015.005c-.544.14-1.152-.013-1.717-.428-.48-.354-.875-.84-1.24-1.308-.182-.235-.356-.466-.524-.688-.317-.42-.616-.817-.92-1.179-.635-.757-1.216-1.258-1.881-1.624-1.115-.62-2.223-.802-3.299-.937.348.819 1.259 2.912 1.416 3.172l.013.023c.51 1.117.994 2.106 1.79 2.932l.364.378-.521-.008a14.63 14.63 0 0 0-1.169.029c-1.166.079-2.159.29-3.039.648a7.454 7.454 0 0 0-1.316.716c-.08.064-.454.411-.673.65l.002-.002zm-.31-.048h.002-.002z" fill="url(#s)"/><path d="M17.323 65.023c-1.486 0-2.753-.54-4.024-1.682-1.495-1.376-2.531-2.279-4.326-3.212a.244.244 0 0 1-.133-.235c.023-.337 1.159-.771 1.17-.776a6.626 6.626 0 0 1 1.425-.239c.903-.041 1.877.088 2.976.4.194.054.389.114.58.178-.388-.887-.578-1.81-.762-2.82-.068-.246-.258-1.346-.367-1.986-.206-1.213-.275-1.85-.207-1.909l.109-.097.131.064c1.072.534 2.181 1.087 3.192 2.156.553.58.987 1.25 1.408 2.17.199.437.383.896.577 1.383.097.241.197.49.301.744.207.503.434 1.027.75 1.447.33.443.726.705 1.11.738.082.006.223.019.322.146a.497.497 0 0 1 .09.326c-.017 1.401-1.656 2.784-2.503 2.969a7.752 7.752 0 0 1-1.817.235h-.002zm-7.887-5.14c1.682.911 2.748 1.845 4.152 3.136 1.66 1.488 3.242 1.88 5.458 1.345.708-.154 2.155-1.433 2.167-2.553v-.03h-.01c-.514-.045-1.017-.367-1.425-.908-.345-.46-.587-1.014-.804-1.542-.106-.256-.204-.506-.303-.749-.192-.482-.372-.938-.569-1.362-.399-.875-.808-1.509-1.328-2.052-.804-.848-1.616-1.328-2.703-1.881.143.888.493 2.97.57 3.241l.007.023c.21 1.16.43 2.202.956 3.185l.27.505-.534-.2a13.667 13.667 0 0 0-1.046-.342c-1.056-.298-1.983-.424-2.84-.383a6.128 6.128 0 0 0-1.318.218c-.078.032-.459.21-.702.348l.002.002z" fill="url(#t)"/><path d="M11.087 57.198a1.47 1.47 0 0 1-.17-.01c-2.201-.246-3.66-1.2-4.87-3.184-1.035-1.742-1.762-2.904-3.125-4.338a.246.246 0 0 1-.051-.268c.129-.3 1.205-.323 1.224-.323.487.044.91.127 1.307.256.799.26 1.631.698 2.54 1.343.14.1.28.202.417.308-.143-.907-.116-1.79-.067-2.747-.01-.197.055-1.29.094-1.923.074-1.175.147-1.785.221-1.83l.143-.084.117.12c.876.896 1.705 1.742 2.368 3.027.37.709.616 1.46.796 2.428.088.464.153.944.225 1.452l.108.756c.082.543.17 1.07.362 1.55.205.508.504.874.842 1.03.071.033.19.088.25.225a.49.49 0 0 1 .007.322c-.3 1.185-1.88 1.894-2.742 1.894l.004-.004zM3.44 49.585c1.263 1.368 1.979 2.515 2.975 4.193 1.148 1.881 2.468 2.744 4.556 2.98.652.084 2.195-.583 2.445-1.562a.093.093 0 0 0 .006-.03l-.018-.008c-.446-.203-.825-.652-1.068-1.266-.21-.522-.307-1.1-.39-1.646-.038-.26-.073-.514-.108-.761-.07-.503-.135-.977-.22-1.43-.173-.926-.406-1.637-.756-2.306-.552-1.069-1.234-1.832-1.964-2.587-.064.895-.184 2.81-.172 3.075-.058 1.148-.084 2.169.172 3.23l.153.627-.497-.408c-.28-.23-.569-.45-.856-.654-.873-.62-1.667-1.04-2.424-1.285a5.463 5.463 0 0 0-1.2-.235 6.703 6.703 0 0 0-.634.075v-.002z" fill="url(#u)"/><path d="M6.257 47.828c-.399 0-.765-.077-1.004-.204-1.901-.97-2.929-2.289-3.54-4.545-.514-1.985-.883-3.318-1.689-5.091a.243.243 0 0 1 .043-.277c.221-.233 1.136.119 1.144.123.405.208.745.43 1.054.686.614.507 1.224 1.198 1.868 2.106.084.119.166.237.248.36.082-.85.293-1.636.538-2.48.033-.185.334-1.185.508-1.764.324-1.068.523-1.618.595-1.648l.188-.08.12.252c.556 1.181 1.037 2.202 1.321 3.568.166.786.217 1.561.17 2.516-.023.453-.066.914-.113 1.4l-.067.745c-.045.526-.078 1.04-.01 1.545.071.54.26.981.53 1.239a.466.466 0 0 1 .163.274.474.474 0 0 1-.063.302c-.368.7-1.246.973-2.002.973h-.002zm-5.711-9.73c.733 1.663 1.093 2.973 1.582 4.87.575 2.12 1.537 3.357 3.321 4.27.546.293 2.014.203 2.433-.589a.136.136 0 0 0 .013-.025l-.025-.025c-.346-.33-.581-.863-.665-1.5-.074-.548-.037-1.111.008-1.641.02-.256.045-.505.068-.749.045-.482.088-.94.11-1.382.047-.913-.002-1.655-.16-2.404-.239-1.151-.63-2.058-1.088-3.041-.264.846-.761 2.484-.806 2.725-.303 1.05-.55 1.988-.561 3.054l-.006.74-.391-.625a18.27 18.27 0 0 0-.596-.898c-.62-.88-1.207-1.54-1.79-2.023-.285-.235-.6-.44-.962-.628a5.76 5.76 0 0 0-.485-.131v.002z" fill="url(#v)"/><path d="M4.186 37.595h-.022c-.626-.008-1.359-.318-1.705-.721C1.08 35.312.542 33.726.605 31.398c.088-2.192.131-3.522-.018-5.447a.248.248 0 0 1 .14-.25c.287-.129.918.522.924.528.268.34.48.668.663 1.017.354.688.66 1.528.966 2.646l.09.337c.276-.738.636-1.386 1.035-2.075.002-.008 1.607-2.854 1.787-2.914l.258-.088.057.62c.113 1.185.217 2.306.117 3.609a10.86 10.86 0 0 1-.475 2.45c-.125.41-.264.82-.414 1.253-.08.233-.161.47-.243.715-.16.482-.31.954-.366 1.451-.064.536-.004 1.02.17 1.362a.51.51 0 0 1 .073.295.454.454 0 0 1-.127.266c-.245.277-.612.422-1.054.422h-.002zm-3.145-11.32c.119 1.763.076 3.07-.008 5.137-.06 2.202.446 3.703 1.747 5.173.234.272.827.567 1.386.574.225.004.544-.044.755-.279l.018-.023c-.004.008-.018-.02-.026-.037-.217-.424-.293-.998-.22-1.62.064-.538.226-1.056.388-1.538.081-.248.163-.487.245-.72.148-.428.287-.833.41-1.239.257-.85.399-1.576.456-2.355.09-1.165.012-2.148-.088-3.243-.457.754-1.234 2.064-1.32 2.251-.52.9-.964 1.711-1.238 2.724l-.225.831-.193-.84c-.081-.362-.172-.72-.264-1.062-.296-1.087-.591-1.9-.93-2.56a5.792 5.792 0 0 0-.606-.933 5.143 5.143 0 0 0-.285-.237l-.002-.004z" fill="url(#w)"/><path d="M4.556 27.102a1.24 1.24 0 0 1-.41-.075c-.61-.218-1.135-.846-1.29-1.326-.667-1.975-.616-3.693.178-5.928l.252-.677c.634-1.703 1.092-2.934 1.64-4.703.042-.135.152-.185.234-.18.289.003.503.712.544.854.082.424.125.817.14 1.22.032.981-.068 2.075-.16 2.917-.008.08-.018.164-.029.245.43-.578.899-1.068 1.404-1.582.109-.135.806-.827 1.212-1.229.765-.755 1.192-1.119 1.28-1.091l.205.06-.06.208c-.079.279-.155.549-.228.817-.295 1.065-.575 2.07-1.011 3.168a13.71 13.71 0 0 1-1.132 2.252c-.215.35-.438.688-.675 1.048-.14.212-.283.428-.428.655-.256.397-.52.823-.708 1.289-.205.505-.29 1-.24 1.395.01.075.023.18-.018.289a.445.445 0 0 1-.18.216.935.935 0 0 1-.524.156l.004.002zm.65-12.154c-.496 1.56-.932 2.73-1.517 4.3l-.252.675c-.757 2.13-.808 3.763-.174 5.638.12.377.56.888 1.023 1.055.217.076.405.066.559-.036.014-.016.008-.054.006-.079-.06-.476.037-1.05.268-1.622.203-.5.479-.948.747-1.361.145-.227.29-.445.43-.66.235-.357.456-.694.667-1.037a13.2 13.2 0 0 0 1.097-2.183c.428-1.077.704-2.072.996-3.124.007-.02.01-.038.017-.056-.628.613-1.572 1.553-1.693 1.7-.708.72-1.326 1.376-1.862 2.277l-.534.896.137-1.038c.051-.386.098-.767.14-1.14.09-.826.19-1.901.157-2.854a7.387 7.387 0 0 0-.127-1.133 3.114 3.114 0 0 0-.084-.218h-.002z" fill="url(#x)"/><path d="M7.86 16.898a.755.755 0 0 1-.49-.19c-.45-.377-.677-1.252-.605-1.832.231-2.173.97-3.867 2.546-5.847.757-.92 1.408-1.698 2.036-2.45.62-.739 1.258-1.504 2.005-2.412.098-.119.221-.117.3-.077.1.052.239.124.003 1.05-.155.445-.32.85-.505 1.257-.408.882-.921 1.83-1.5 2.888-.019.035-.04.069-.058.104a18.516 18.516 0 0 1 1.603-1.048c.01-.008 2.76-1.688 2.934-1.688l.4.03-.246.32c-.369.484-.712.952-1.046 1.403-.58.786-1.126 1.53-1.764 2.307a18.91 18.91 0 0 1-1.803 1.938c-.294.279-.59.543-.902.823l-.612.551c-.348.318-.716.663-1.038 1.073-.35.445-.601.923-.708 1.343-.02.079-.045.175-.106.26a.439.439 0 0 1-.221.158.73.73 0 0 1-.227.037l.004.002zm5.396-11.933c-.57.69-1.082 1.301-1.582 1.896-.628.75-1.279 1.526-2.032 2.445-1.518 1.904-2.228 3.534-2.451 5.62-.054.448.133 1.178.454 1.446.137.115.245.098.315.075.018-.018.029-.066.039-.1.123-.488.403-1.022.79-1.515.342-.435.724-.794 1.084-1.125l.616-.555c.311-.278.604-.54.895-.815a18.775 18.775 0 0 0 1.764-1.896c.632-.771 1.174-1.51 1.75-2.291l.417-.566c-.757.441-1.74 1.02-1.885 1.123-.9.543-1.641 1.008-2.437 1.749L10 11.38l.661-1.191.614-1.113c.575-1.05 1.083-1.991 1.486-2.86.182-.393.34-.786.485-1.2a.415.415 0 0 1 .012-.05l-.002-.002z" fill="url(#y)"/><path d="M54.87 71.168c-.93-.78-1.989-1.357-3.071-1.81a15.432 15.432 0 0 0-1.238-.458c1.107-.597 1.915-1.49 2.746-2.461.309-.279 2.611-3.115 2.587-3.117-1.433-.324-2.683-.584-4.155-.322-.92.16-1.702.534-2.496 1.04-.653.413-1.31.914-2.059 1.434-.514.355-1.05.709-1.635.896-.583.187-1.23.191-1.752-.14-.065-.04-.135-.089-.21-.066-.064.019-.115.085-.154.154-.726 1.262.035 3.757.737 4.522 1.878 2.14 3.761 3.104 6.473 2.852 2.377-.253 3.888-.336 6.11.092.209.041-.602-1.277-.663-1.362a9.196 9.196 0 0 0-1.218-1.251l-.002-.003z" fill="url(#z)"/><path d="M65.855 66.579c-.994-.406-2.054-.593-3.104-.666-.391-.027-.786-.035-1.185-.029.825-.854 1.328-1.883 1.834-2.992.202-.336 1.592-3.55 1.571-3.546-1.344.162-2.509.322-3.74 1.006-.772.424-1.37.992-1.943 1.674-.47.559-.925 1.195-1.449 1.873-.36.463-.738.931-1.197 1.266-.456.335-1.009.53-1.53.395-.066-.017-.138-.038-.197.004-.051.035-.078.108-.094.179-.321 1.305.909 3.253 1.686 3.717 2.106 1.318 3.944 1.62 6.238.599 2.005-.925 3.309-1.453 5.357-1.747.194-.027-.819-.943-.892-1a7.528 7.528 0 0 0-1.355-.733z" fill="url(#A)"/><path d="M74.555 59.1c-.972-.046-1.959.122-2.908.39-.354.1-.708.217-1.062.348.544-1.019.767-2.096.978-3.25.106-.361.655-3.69.64-3.684-1.166.582-2.179 1.104-3.133 2.11-.597.628-1.006 1.323-1.366 2.113-.297.646-.56 1.355-.874 2.12-.215.524-.446 1.056-.778 1.495-.33.439-.773.78-1.265.823-.061.007-.129.009-.172.065-.036.046-.044.118-.042.187.014 1.25 1.543 2.588 2.333 2.76 2.154.519 3.845.225 5.652-1.396 1.573-1.447 2.617-2.33 4.37-3.243.166-.086-.93-.585-1.008-.612a6.469 6.469 0 0 0-1.363-.226h-.002z" fill="url(#B)"/><path d="M80.661 49.537c-.865.28-1.698.759-2.482 1.314-.29.208-.581.428-.868.663.268-1.102.236-2.152.178-3.27.017-.362-.198-3.584-.21-3.576-.907.927-1.693 1.742-2.331 2.975-.401.77-.62 1.534-.776 2.368-.129.682-.213 1.41-.331 2.2-.082.542-.174 1.095-.375 1.596-.2.501-.522.95-.951 1.148-.054.025-.113.05-.14.112a.303.303 0 0 0 0 .181c.285 1.114 1.936 1.821 2.677 1.724 2.03-.227 3.465-1.032 4.717-3.084 1.08-1.82 1.813-2.964 3.151-4.376.127-.133-.94-.222-1.015-.222-.42.037-.83.112-1.246.245l.002.002z" fill="url(#C)"/><path d="M83.87 38.689c-.671.555-1.277 1.283-1.83 2.064-.204.291-.407.595-.6.909-.01-1.108-.269-2.07-.564-3.094-.063-.339-.968-3.28-.98-3.272-.557 1.183-1.052 2.218-1.336 3.582-.18.852-.207 1.638-.164 2.46.035.673.115 1.372.178 2.139.043.526.08 1.064.01 1.592-.07.526-.258 1.046-.595 1.368-.043.04-.09.083-.1.15a.276.276 0 0 0 .038.164c.485.921 2.092 1.017 2.718.68 1.73-.883 2.806-2.098 3.432-4.41.528-2.043.896-3.355 1.7-5.124.078-.167-.847.112-.908.139-.348.179-.68.387-1 .653h.001z" fill="url(#D)"/><path d="M83.876 27.346c-.393.763-.694 1.667-.95 2.603-.094.347-.184.704-.266 1.07-.284-1.05-.743-1.881-1.25-2.756-.135-.298-1.658-2.826-1.67-2.82-.123 1.34-.258 2.512-.15 3.92.066.879.234 1.637.465 2.403.19.628.422 1.262.655 1.964.16.48.315.977.376 1.495.062.518.02 1.069-.192 1.487-.027.051-.057.108-.051.174a.24.24 0 0 0 .072.14c.62.694 2.01.232 2.46-.296 1.256-1.42 1.868-2.923 1.8-5.326-.086-2.119-.133-3.497.019-5.47.014-.187-.65.397-.692.445-.23.291-.44.603-.628.969l.002-.002z" fill="url(#E)"/><path d="M80.369 16.294c-.029.885.049 1.879.16 2.885.04.374.087.757.138 1.144-.558-.936-1.19-1.601-1.88-2.302-.199-.243-2.266-2.268-2.28-2.264.395 1.387.694 2.603 1.232 3.965.334.85.7 1.542 1.115 2.216.34.553.71 1.096 1.1 1.699.265.413.531.844.726 1.326.194.482.315 1.029.253 1.505a.378.378 0 0 0 .006.185.219.219 0 0 0 .095.11c.69.453 1.69-.468 1.903-1.13.608-1.801.65-3.46-.176-5.787-.76-2.043-1.275-3.386-1.895-5.388-.06-.19-.348.607-.366.667-.07.364-.117.742-.131 1.166v.003z" fill="url(#F)"/><path d="M73.047 6.306c.42.904.953 1.89 1.491 2.873.2.366.406.738.614 1.114-.83-.773-1.61-1.257-2.457-1.765-.254-.183-2.794-1.659-2.812-1.657 1 1.312 1.797 2.476 2.806 3.707.626.77 1.193 1.364 1.782 1.917.483.455.982.888 1.512 1.372.364.333.73.678 1.062 1.1.33.42.622.927.747 1.424.017.063.03.131.072.183a.206.206 0 0 0 .112.08c.692.224 1.136-1.024 1.048-1.754-.213-1.993-.843-3.657-2.5-5.735-1.492-1.818-2.53-3.021-4.042-4.86-.144-.174.055.714.071.78.136.387.293.786.494 1.219v.002z" fill="url(#G)"/><path d="M56.757 74c-.017 0-.033 0-.05-.003-2.105-.406-3.507-.358-6.044-.088-2.648.248-4.64-.628-6.655-2.925-.717-.782-1.553-3.401-.762-4.775.076-.138.168-.22.28-.254.165-.048.298.037.377.087.573.362 1.236.231 1.58.12.559-.178 1.087-.525 1.578-.868.266-.185.52-.366.765-.543.45-.322.876-.628 1.3-.896.929-.59 1.723-.92 2.574-1.068 1.566-.279 2.924.027 4.238.324l.117.027.039.114c.032.093-.371.651-1.212 1.674-.446.543-1.215 1.47-1.422 1.667-.724.849-1.455 1.66-2.384 2.258.27.096.54.2.804.31 1.244.52 2.266 1.123 3.127 1.844.42.353.829.773 1.244 1.28.019.023.9 1.302.706 1.61a.237.237 0 0 1-.2.11V74zm.03-.432h.003-.002zm-13.148-7.18-.022.035c-.677 1.177.051 3.55.708 4.268 1.944 2.214 3.767 3.019 6.295 2.784 2.105-.225 3.681-.345 5.846.033-.166-.33-.477-.854-.552-.96a9.01 9.01 0 0 0-1.181-1.213c-.827-.694-1.815-1.274-3.016-1.777-.4-.166-.81-.318-1.222-.453l-.485-.158.448-.242c1.072-.577 1.85-1.434 2.685-2.411l.018-.02c.24-.22 1.793-2.12 2.35-2.818-1.171-.26-2.387-.486-3.74-.245-.795.139-1.54.449-2.418 1.008-.416.264-.835.566-1.281.884-.248.178-.504.361-.772.546-.517.36-1.076.728-1.69.926-.718.228-1.404.172-1.93-.163l-.043-.027.002.002z" fill="url(#H)"/><path d="M60.144 70.885c-1.218 0-2.425-.41-3.749-1.24-.798-.476-2.134-2.523-1.783-3.956.033-.141.093-.243.183-.303.137-.096.284-.059.362-.038.56.146 1.093-.162 1.359-.358.436-.32.808-.78 1.154-1.224.18-.233.354-.462.52-.684.319-.424.622-.825.933-1.196.671-.798 1.29-1.33 2.001-1.723 1.314-.73 2.587-.883 3.819-1.031l.13-.017.074.11c.052.078-.177.699-.687 1.863-.27.618-.739 1.674-.872 1.907-.452.99-.888 1.887-1.539 2.673.24.004.479.015.716.03 1.212.083 2.25.303 3.17.68a7.88 7.88 0 0 1 1.392.754c.022.016 1.095.88 1.005 1.22a.235.235 0 0 1-.203.177c-2.096.3-3.399.852-5.296 1.73-.935.415-1.815.626-2.689.626zm-5.108-5.119-.006.027c-.297 1.21.868 3.05 1.588 3.48 2.173 1.362 3.923 1.53 6.041.587 1.782-.824 3.129-1.398 5.106-1.716a9.166 9.166 0 0 0-.686-.659 7.4 7.4 0 0 0-1.303-.704c-.88-.358-1.873-.57-3.04-.65-.386-.026-.779-.037-1.168-.028l-.522.008.365-.378c.796-.826 1.283-1.815 1.79-2.932l.013-.023c.155-.26 1.068-2.353 1.416-3.172-1.077.135-2.184.318-3.3.938-.666.367-1.245.869-1.88 1.623-.305.362-.603.759-.92 1.179-.168.225-.342.453-.525.688-.362.468-.757.956-1.24 1.308-.564.416-1.172.567-1.708.428-.009 0-.015-.004-.023-.006l.002.002zm13.036 2.333h-.002.002z" fill="url(#I)"/><path d="M68.677 65.022a7.785 7.785 0 0 1-1.82-.235c-.844-.183-2.483-1.566-2.5-2.969a.495.495 0 0 1 .09-.324c.099-.127.24-.138.316-.146.39-.033.785-.295 1.117-.738.315-.42.542-.944.749-1.447.104-.255.205-.505.3-.746.195-.487.377-.946.578-1.38.42-.922.855-1.591 1.408-2.171 1.01-1.067 2.12-1.62 3.192-2.156l.131-.065.109.098c.067.061-.003.697-.21 1.909-.108.64-.298 1.74-.365 1.985-.184 1.01-.375 1.934-.764 2.821.193-.064.387-.122.582-.178 1.1-.31 2.075-.44 2.975-.4.446.021.907.098 1.41.233.026.009 1.162.443 1.185.78a.244.244 0 0 1-.135.235c-1.793.933-2.83 1.836-4.322 3.21-1.271 1.14-2.538 1.682-4.026 1.682v.002zm-3.888-3.24v.028c.013 1.122 1.46 2.399 2.163 2.553 2.22.534 3.803.143 5.464-1.347 1.402-1.29 2.468-2.223 4.15-3.133a7.817 7.817 0 0 0-.718-.354 6.082 6.082 0 0 0-1.301-.214c-.858-.042-1.785.085-2.84.383-.35.1-.703.214-1.047.343l-.534.2.27-.506c.526-.981.743-2.023.956-3.185l.006-.023c.08-.272.43-2.355.571-3.241-1.086.553-1.899 1.031-2.703 1.881-.52.545-.93 1.177-1.328 2.052-.195.426-.377.88-.567 1.362-.096.243-.197.495-.303.75-.217.529-.458 1.082-.804 1.543-.407.54-.91.863-1.416.909h-.019z" fill="url(#J)"/><path d="M74.91 57.198c-.859 0-2.436-.709-2.74-1.896a.498.498 0 0 1 .009-.32.43.43 0 0 1 .243-.222c.346-.158.645-.524.848-1.034.192-.478.28-1.004.362-1.549.039-.258.073-.511.108-.756.072-.508.137-.988.225-1.452.18-.968.426-1.717.796-2.428.666-1.283 1.492-2.13 2.368-3.027l.117-.12.143.085c.075.044.149.654.221 1.83.039.631.104 1.725.094 1.943.05.94.076 1.82-.067 2.726.139-.106.278-.208.417-.308.91-.644 1.742-1.085 2.542-1.343.397-.129.82-.212 1.29-.256.03-.006 1.112.019 1.241.32a.243.243 0 0 1-.051.269c-1.363 1.434-2.09 2.596-3.12 4.337-1.212 1.987-2.671 2.94-4.877 3.187-.052.006-.109.01-.168.01v.004zm-2.33-2.033.006.027c.25.981 1.787 1.648 2.441 1.565 2.094-.234 3.414-1.097 4.562-2.98.966-1.627 1.709-2.822 2.973-4.192a6.579 6.579 0 0 0-.653-.075c-.421.04-.814.116-1.18.235-.757.245-1.552.665-2.425 1.285-.289.203-.577.424-.856.655l-.497.407.154-.628c.257-1.06.23-2.079.171-3.206.013-.282-.108-2.201-.171-3.097-.731.754-1.413 1.517-1.965 2.584-.35.671-.583 1.382-.755 2.306-.086.453-.152.929-.221 1.43-.035.247-.07.5-.109.76-.082.548-.18 1.126-.388 1.647-.246.614-.623 1.063-1.063 1.264l-.024.013z" fill="url(#K)"/><path d="M79.744 47.828c-.755 0-1.633-.272-2.004-.975a.463.463 0 0 1-.06-.299c.02-.137.107-.22.159-.27.274-.262.462-.703.534-1.243.067-.506.032-1.02-.01-1.545a154.92 154.92 0 0 0-.068-.747c-.045-.486-.088-.945-.112-1.399-.05-.952.004-1.727.17-2.515.284-1.364.763-2.385 1.32-3.566l.118-.253.188.079c.073.03.27.58.594 1.648.176.578.474 1.578.513 1.784.242.825.453 1.61.532 2.46.082-.123.164-.244.248-.36.643-.91 1.254-1.599 1.868-2.106a5.717 5.717 0 0 1 1.04-.678c.025-.01.937-.364 1.16-.13.07.074.086.18.041.276-.806 1.773-1.174 3.104-1.688 5.089-.612 2.258-1.64 3.574-3.544 4.549-.24.127-.604.204-1.001.204l.002-.003zm-1.637-1.203.01.023c.42.794 1.887.883 2.43.592 1.788-.915 2.75-2.152 3.325-4.274.489-1.894.849-3.204 1.581-4.865-.194.044-.431.11-.503.14a5.359 5.359 0 0 0-.944.619c-.583.482-1.168 1.145-1.79 2.023-.2.284-.401.588-.596.898l-.39.626-.007-.74c-.008-1.067-.255-2.007-.554-3.034-.05-.258-.549-1.9-.813-2.746-.458.983-.849 1.892-1.088 3.041-.158.749-.207 1.489-.16 2.404.023.444.066.9.11 1.38.023.243.046.493.068.75.045.53.082 1.092.008 1.64-.084.64-.319 1.171-.66 1.498-.01.01-.023.02-.031.029l.004-.004z" fill="url(#L)"/><path d="M81.813 37.595c-.442 0-.806-.145-1.053-.422a.452.452 0 0 1-.125-.264c-.013-.127.039-.227.071-.291.176-.345.238-.83.172-1.366-.06-.497-.207-.97-.366-1.453a68.428 68.428 0 0 0-.244-.715c-.149-.433-.29-.842-.413-1.254a10.968 10.968 0 0 1-.475-2.451c-.1-1.304.004-2.422.117-3.607l.057-.62.258.088c.178.06 1.782 2.906 1.795 2.933.39.676.749 1.32 1.025 2.056l.088-.337c.305-1.118.612-1.958.966-2.646.18-.35.393-.678.65-1.004.02-.021.647-.67.934-.54.094.04.15.14.141.249-.15 1.927-.106 3.258-.018 5.442.063 2.331-.475 3.92-1.856 5.483-.344.401-1.077.71-1.701.72h-.023zm-.749-.73.013.015c.213.237.528.285.755.28.559-.006 1.154-.3 1.383-.571 1.304-1.474 1.81-2.973 1.75-5.179-.084-2.062-.125-3.368-.006-5.133-.125.098-.256.21-.299.252a5.786 5.786 0 0 0-.593.919c-.34.659-.637 1.471-.932 2.559-.092.343-.182.7-.264 1.062l-.192.84-.225-.831c-.274-1.013-.718-1.824-1.228-2.705-.092-.202-.872-1.516-1.33-2.27-.102 1.097-.178 2.078-.088 3.243.057.78.198 1.505.456 2.355.123.404.262.809.41 1.24.08.232.161.471.243.719.16.484.323 1 .387 1.538.073.622-.002 1.196-.215 1.613a.298.298 0 0 0-.025.054z" fill="url(#M)"/><path d="M81.442 27.103a.941.941 0 0 1-.526-.156.434.434 0 0 1-.178-.216c-.04-.108-.026-.215-.018-.283.051-.403-.035-.898-.24-1.401-.188-.466-.454-.892-.708-1.29a45.588 45.588 0 0 0-.43-.656c-.235-.36-.46-.699-.673-1.046a13.544 13.544 0 0 1-1.131-2.252c-.434-1.097-.715-2.104-1.01-3.168a78.32 78.32 0 0 0-.228-.817l-.06-.208.205-.06c.089-.027.516.337 1.28 1.091.406.4 1.104 1.094 1.225 1.244.497.503.962.99 1.391 1.567l-.028-.245c-.093-.844-.193-1.938-.16-2.917.014-.403.057-.796.135-1.202.045-.16.26-.869.548-.873a.243.243 0 0 1 .234.183c.546 1.765 1.005 2.994 1.639 4.697l.254.681c.796 2.237.847 3.955.178 5.932-.154.478-.678 1.106-1.288 1.324-.14.05-.278.075-.409.075l-.002-.004zm-4.516-10.645.016.057c.293 1.051.57 2.047.995 3.124.299.763.636 1.437 1.097 2.183.21.343.431.68.665 1.036.14.214.284.432.431.66.267.414.545.861.747 1.362.232.572.328 1.146.269 1.616a.494.494 0 0 0-.007.083c.164.104.352.116.57.04.462-.167.902-.678 1.022-1.053.635-1.879.584-3.513-.173-5.644l-.252-.678c-.584-1.567-1.02-2.736-1.513-4.293a3.46 3.46 0 0 0-.088.237 7.635 7.635 0 0 0-.122 1.114c-.031.953.067 2.025.157 2.855.041.372.088.753.14 1.14l.136 1.037-.534-.896c-.536-.9-1.156-1.558-1.85-2.262-.128-.158-1.078-1.1-1.706-1.716v-.002z" fill="url(#N)"/><path d="M78.14 16.899a.733.733 0 0 1-.23-.038.426.426 0 0 1-.219-.155c-.061-.086-.086-.181-.104-.25-.109-.43-.36-.906-.71-1.351-.322-.41-.688-.755-1.038-1.073-.207-.19-.41-.37-.608-.549-.313-.28-.61-.547-.906-.825a19.149 19.149 0 0 1-1.803-1.938 54.113 54.113 0 0 1-1.766-2.312 93.402 93.402 0 0 0-1.044-1.401l-.243-.32.399-.03c.174 0 2.924 1.68 2.949 1.697.567.339 1.078.655 1.588 1.038a2.674 2.674 0 0 0-.058-.104c-.579-1.059-1.09-2.007-1.5-2.888a13.834 13.834 0 0 1-.501-1.24c-.242-.943-.102-1.016-.002-1.068.076-.04.2-.043.299.077.745.907 1.385 1.67 2.001 2.408.63.752 1.283 1.53 2.038 2.45 1.578 1.98 2.317 3.674 2.548 5.851.07.578-.157 1.453-.608 1.83a.755.755 0 0 1-.489.19h.006zm-7.454-9.316.416.563c.577.782 1.12 1.522 1.751 2.293a18.557 18.557 0 0 0 1.765 1.896c.292.277.587.541.898.82l.612.55c.362.331.743.69 1.084 1.125.387.493.667 1.027.786 1.505.01.044.023.092.035.109.076.024.184.041.32-.073.32-.268.507-.998.454-1.445-.224-2.09-.934-3.717-2.454-5.626a279.173 279.173 0 0 0-2.034-2.445 326.014 326.014 0 0 1-1.576-1.892l.016.067c.14.393.297.786.48 1.18.402.87.91 1.812 1.485 2.861.2.366.405.738.614 1.113l.66 1.19-.992-.922c-.796-.742-1.537-1.208-2.423-1.738-.153-.11-1.14-.692-1.899-1.133l.002.002z" fill="url(#O)"/></g><defs><linearGradient id="v" x1="1.829" y1="44.699" x2="8.895" y2="37.744" gradientUnits="userSpaceOnUse"><stop stop-color="#A57D24"/><stop offset=".21" stop-color="#D8BD62"/><stop offset=".33" stop-color="#F1DD80"/><stop offset=".52" stop-color="#FBF2A8"/><stop offset=".73" stop-color="#F1DD80"/><stop offset="1" stop-color="#A57D24"/></linearGradient><linearGradient id="b" x1="37.94" y1="8.558" x2="46.488" y2="8.558" gradientUnits="userSpaceOnUse"><stop stop-color="#A57D24"/><stop offset=".21" stop-color="#D8BD62"/><stop offset=".33" stop-color="#F1DD80"/><stop offset=".52" stop-color="#FBF2A8"/><stop offset=".73" stop-color="#F1DD80"/><stop offset="1" stop-color="#A57D24"/></linearGradient><linearGradient id="d" x1="33.074" y1="29.855" x2="41.706" y2="29.855" gradientUnits="userSpaceOnUse"><stop stop-color="#A57D24"/><stop offset=".21" stop-color="#D8BD62"/><stop offset=".33" stop-color="#F1DD80"/><stop offset=".52" stop-color="#FBF2A8"/><stop offset=".73" stop-color="#F1DD80"/><stop offset="1" stop-color="#A57D24"/></linearGradient><linearGradient id="e" x1="39.075" y1="6.113" x2="45.451" y2="12.386" gradientUnits="userSpaceOnUse"><stop stop-color="#A57D24"/><stop offset=".21" stop-color="#D8BD62"/><stop offset=".33" stop-color="#F1DD80"/><stop offset=".52" stop-color="#FBF2A8"/><stop offset=".73" stop-color="#F1DD80"/><stop offset="1" stop-color="#A57D24"/></linearGradient><linearGradient id="f" x1="36.084" y1="16.45" x2="58.778" y2="38.787" gradientUnits="userSpaceOnUse"><stop stop-color="#A57D24"/><stop offset=".21" stop-color="#D8BD62"/><stop offset=".33" stop-color="#F1DD80"/><stop offset=".52" stop-color="#FBF2A8"/><stop offset=".73" stop-color="#F1DD80"/><stop offset="1" stop-color="#A57D24"/></linearGradient><linearGradient id="g" x1="22.402" y1="14.628" x2="52.851" y2="44.6" gradientUnits="userSpaceOnUse"><stop stop-color="#A57D24"/><stop offset=".21" stop-color="#D8BD62"/><stop offset=".33" stop-color="#F1DD80"/><stop offset=".52" stop-color="#FBF2A8"/><stop offset=".73" stop-color="#F1DD80"/><stop offset="1" stop-color="#A57D24"/></linearGradient><linearGradient id="h" x1="34.602" y1="56.643" x2="49.232" y2="56.643" gradientUnits="userSpaceOnUse"><stop stop-color="#A57D24"/><stop offset=".21" stop-color="#D8BD62"/><stop offset=".33" stop-color="#F1DD80"/><stop offset=".52" stop-color="#FBF2A8"/><stop offset=".73" stop-color="#F1DD80"/><stop offset="1" stop-color="#A57D24"/></linearGradient><linearGradient id="i" x1="37.733" y1="52.776" x2="46.186" y2="61.096" gradientUnits="userSpaceOnUse"><stop stop-color="#A57D24"/><stop offset=".21" stop-color="#D8BD62"/><stop offset=".33" stop-color="#F1DD80"/><stop offset=".52" stop-color="#FBF2A8"/><stop offset=".73" stop-color="#F1DD80"/><stop offset="1" stop-color="#A57D24"/></linearGradient><linearGradient id="j" x1="29.216" y1="68.337" x2="42.863" y2="68.337" gradientUnits="userSpaceOnUse"><stop stop-color="#A57D24"/><stop offset=".21" stop-color="#D8BD62"/><stop offset=".33" stop-color="#F1DD80"/><stop offset=".52" stop-color="#FBF2A8"/><stop offset=".73" stop-color="#F1DD80"/><stop offset="1" stop-color="#A57D24"/></linearGradient><linearGradient id="k" x1="17.875" y1="65.007" x2="31.231" y2="65.007" gradientUnits="userSpaceOnUse"><stop stop-color="#A57D24"/><stop offset=".21" stop-color="#D8BD62"/><stop offset=".33" stop-color="#F1DD80"/><stop offset=".52" stop-color="#FBF2A8"/><stop offset=".73" stop-color="#F1DD80"/><stop offset="1" stop-color="#A57D24"/></linearGradient><linearGradient id="l" x1="9.055" y1="58.856" x2="21.427" y2="58.856" gradientUnits="userSpaceOnUse"><stop stop-color="#A57D24"/><stop offset=".21" stop-color="#D8BD62"/><stop offset=".33" stop-color="#F1DD80"/><stop offset=".52" stop-color="#FBF2A8"/><stop offset=".73" stop-color="#F1DD80"/><stop offset="1" stop-color="#A57D24"/></linearGradient><linearGradient id="m" x1="3.067" y1="50.824" x2="13.636" y2="50.824" gradientUnits="userSpaceOnUse"><stop stop-color="#A57D24"/><stop offset=".21" stop-color="#D8BD62"/><stop offset=".33" stop-color="#F1DD80"/><stop offset=".52" stop-color="#FBF2A8"/><stop offset=".73" stop-color="#F1DD80"/><stop offset="1" stop-color="#A57D24"/></linearGradient><linearGradient id="n" x1=".214" y1="41.454" x2="8.114" y2="41.454" gradientUnits="userSpaceOnUse"><stop stop-color="#A57D24"/><stop offset=".21" stop-color="#D8BD62"/><stop offset=".33" stop-color="#F1DD80"/><stop offset=".52" stop-color="#FBF2A8"/><stop offset=".73" stop-color="#F1DD80"/><stop offset="1" stop-color="#A57D24"/></linearGradient><linearGradient id="o" x1=".802" y1="31.41" x2="6.448" y2="31.41" gradientUnits="userSpaceOnUse"><stop stop-color="#A57D24"/><stop offset=".21" stop-color="#D8BD62"/><stop offset=".33" stop-color="#F1DD80"/><stop offset=".52" stop-color="#FBF2A8"/><stop offset=".73" stop-color="#F1DD80"/><stop offset="1" stop-color="#A57D24"/></linearGradient><linearGradient id="p" x1="2.61" y1="20.657" x2="9.492" y2="20.657" gradientUnits="userSpaceOnUse"><stop stop-color="#A57D24"/><stop offset=".21" stop-color="#D8BD62"/><stop offset=".33" stop-color="#F1DD80"/><stop offset=".52" stop-color="#FBF2A8"/><stop offset=".73" stop-color="#F1DD80"/><stop offset="1" stop-color="#A57D24"/></linearGradient><linearGradient id="q" x1="6.966" y1="10.483" x2="16.117" y2="10.483" gradientUnits="userSpaceOnUse"><stop stop-color="#A57D24"/><stop offset=".21" stop-color="#D8BD62"/><stop offset=".33" stop-color="#F1DD80"/><stop offset=".52" stop-color="#FBF2A8"/><stop offset=".73" stop-color="#F1DD80"/><stop offset="1" stop-color="#A57D24"/></linearGradient><linearGradient id="r" x1="29.146" y1="74.007" x2="39.976" y2="63.347" gradientUnits="userSpaceOnUse"><stop stop-color="#A57D24"/><stop offset=".21" stop-color="#D8BD62"/><stop offset=".33" stop-color="#F1DD80"/><stop offset=".52" stop-color="#FBF2A8"/><stop offset=".73" stop-color="#F1DD80"/><stop offset="1" stop-color="#A57D24"/></linearGradient><linearGradient id="s" x1="19.508" y1="70.269" x2="27.896" y2="62.013" gradientUnits="userSpaceOnUse"><stop stop-color="#A57D24"/><stop offset=".21" stop-color="#D8BD62"/><stop offset=".33" stop-color="#F1DD80"/><stop offset=".52" stop-color="#FBF2A8"/><stop offset=".73" stop-color="#F1DD80"/><stop offset="1" stop-color="#A57D24"/></linearGradient><linearGradient id="t" x1="12.143" y1="63.366" x2="18.905" y2="56.712" gradientUnits="userSpaceOnUse"><stop stop-color="#A57D24"/><stop offset=".21" stop-color="#D8BD62"/><stop offset=".33" stop-color="#F1DD80"/><stop offset=".52" stop-color="#FBF2A8"/><stop offset=".73" stop-color="#F1DD80"/><stop offset="1" stop-color="#A57D24"/></linearGradient><linearGradient id="u" x1="6.307" y1="54.597" x2="12.651" y2="48.354" gradientUnits="userSpaceOnUse"><stop stop-color="#A57D24"/><stop offset=".21" stop-color="#D8BD62"/><stop offset=".33" stop-color="#F1DD80"/><stop offset=".52" stop-color="#FBF2A8"/><stop offset=".73" stop-color="#F1DD80"/><stop offset="1" stop-color="#A57D24"/></linearGradient><linearGradient id="c" x1="41.996" y1="27.796" x2="52.926" y2="27.796" gradientUnits="userSpaceOnUse"><stop stop-color="#A57D24"/><stop offset=".21" stop-color="#D8BD62"/><stop offset=".33" stop-color="#F1DD80"/><stop offset=".52" stop-color="#FBF2A8"/><stop offset=".73" stop-color="#F1DD80"/><stop offset="1" stop-color="#A57D24"/></linearGradient><linearGradient id="w" x1=".04" y1="34.419" x2="7.927" y2="26.655" gradientUnits="userSpaceOnUse"><stop stop-color="#A57D24"/><stop offset=".21" stop-color="#D8BD62"/><stop offset=".33" stop-color="#F1DD80"/><stop offset=".52" stop-color="#FBF2A8"/><stop offset=".73" stop-color="#F1DD80"/><stop offset="1" stop-color="#A57D24"/></linearGradient><linearGradient id="x" x1="1.309" y1="24.41" x2="10.002" y2="15.855" gradientUnits="userSpaceOnUse"><stop stop-color="#A57D24"/><stop offset=".21" stop-color="#D8BD62"/><stop offset=".33" stop-color="#F1DD80"/><stop offset=".52" stop-color="#FBF2A8"/><stop offset=".73" stop-color="#F1DD80"/><stop offset="1" stop-color="#A57D24"/></linearGradient><linearGradient id="y" x1="6.012" y1="15.333" x2="15.68" y2="5.818" gradientUnits="userSpaceOnUse"><stop stop-color="#A57D24"/><stop offset=".21" stop-color="#D8BD62"/><stop offset=".33" stop-color="#F1DD80"/><stop offset=".52" stop-color="#FBF2A8"/><stop offset=".73" stop-color="#F1DD80"/><stop offset="1" stop-color="#A57D24"/></linearGradient><linearGradient id="z" x1="43.136" y1="68.337" x2="56.784" y2="68.337" gradientUnits="userSpaceOnUse"><stop stop-color="#A57D24"/><stop offset=".21" stop-color="#D8BD62"/><stop offset=".33" stop-color="#F1DD80"/><stop offset=".52" stop-color="#FBF2A8"/><stop offset=".73" stop-color="#F1DD80"/><stop offset="1" stop-color="#A57D24"/></linearGradient><linearGradient id="A" x1="54.768" y1="65.007" x2="68.127" y2="65.007" gradientUnits="userSpaceOnUse"><stop stop-color="#A57D24"/><stop offset=".21" stop-color="#D8BD62"/><stop offset=".33" stop-color="#F1DD80"/><stop offset=".52" stop-color="#FBF2A8"/><stop offset=".73" stop-color="#F1DD80"/><stop offset="1" stop-color="#A57D24"/></linearGradient><linearGradient id="B" x1="64.573" y1="58.856" x2="76.945" y2="58.856" gradientUnits="userSpaceOnUse"><stop stop-color="#A57D24"/><stop offset=".21" stop-color="#D8BD62"/><stop offset=".33" stop-color="#F1DD80"/><stop offset=".52" stop-color="#FBF2A8"/><stop offset=".73" stop-color="#F1DD80"/><stop offset="1" stop-color="#A57D24"/></linearGradient><linearGradient id="C" x1="72.363" y1="50.824" x2="82.933" y2="50.824" gradientUnits="userSpaceOnUse"><stop stop-color="#A57D24"/><stop offset=".21" stop-color="#D8BD62"/><stop offset=".33" stop-color="#F1DD80"/><stop offset=".52" stop-color="#FBF2A8"/><stop offset=".73" stop-color="#F1DD80"/><stop offset="1" stop-color="#A57D24"/></linearGradient><linearGradient id="D" x1="77.886" y1="41.454" x2="85.786" y2="41.454" gradientUnits="userSpaceOnUse"><stop stop-color="#A57D24"/><stop offset=".21" stop-color="#D8BD62"/><stop offset=".33" stop-color="#F1DD80"/><stop offset=".52" stop-color="#FBF2A8"/><stop offset=".73" stop-color="#F1DD80"/><stop offset="1" stop-color="#A57D24"/></linearGradient><linearGradient id="E" x1="79.554" y1="31.41" x2="85.198" y2="31.41" gradientUnits="userSpaceOnUse"><stop stop-color="#A57D24"/><stop offset=".21" stop-color="#D8BD62"/><stop offset=".33" stop-color="#F1DD80"/><stop offset=".52" stop-color="#FBF2A8"/><stop offset=".73" stop-color="#F1DD80"/><stop offset="1" stop-color="#A57D24"/></linearGradient><linearGradient id="F" x1="76.507" y1="20.657" x2="83.389" y2="20.657" gradientUnits="userSpaceOnUse"><stop stop-color="#A57D24"/><stop offset=".21" stop-color="#D8BD62"/><stop offset=".33" stop-color="#F1DD80"/><stop offset=".52" stop-color="#FBF2A8"/><stop offset=".73" stop-color="#F1DD80"/><stop offset="1" stop-color="#A57D24"/></linearGradient><linearGradient id="G" x1="69.883" y1="10.483" x2="79.034" y2="10.483" gradientUnits="userSpaceOnUse"><stop stop-color="#A57D24"/><stop offset=".21" stop-color="#D8BD62"/><stop offset=".33" stop-color="#F1DD80"/><stop offset=".52" stop-color="#FBF2A8"/><stop offset=".73" stop-color="#F1DD80"/><stop offset="1" stop-color="#A57D24"/></linearGradient><linearGradient id="H" x1="46.57" y1="73.622" x2="56.629" y2="63.721" gradientUnits="userSpaceOnUse"><stop stop-color="#A57D24"/><stop offset=".21" stop-color="#D8BD62"/><stop offset=".33" stop-color="#F1DD80"/><stop offset=".52" stop-color="#FBF2A8"/><stop offset=".73" stop-color="#F1DD80"/><stop offset="1" stop-color="#A57D24"/></linearGradient><linearGradient id="I" x1="57.582" y1="70.932" x2="67.296" y2="61.371" gradientUnits="userSpaceOnUse"><stop stop-color="#A57D24"/><stop offset=".21" stop-color="#D8BD62"/><stop offset=".33" stop-color="#F1DD80"/><stop offset=".52" stop-color="#FBF2A8"/><stop offset=".73" stop-color="#F1DD80"/><stop offset="1" stop-color="#A57D24"/></linearGradient><linearGradient id="J" x1="66.056" y1="64.531" x2="75.144" y2="55.585" gradientUnits="userSpaceOnUse"><stop stop-color="#A57D24"/><stop offset=".21" stop-color="#D8BD62"/><stop offset=".33" stop-color="#F1DD80"/><stop offset=".52" stop-color="#FBF2A8"/><stop offset=".73" stop-color="#F1DD80"/><stop offset="1" stop-color="#A57D24"/></linearGradient><linearGradient id="K" x1="72.283" y1="55.78" x2="80.993" y2="47.209" gradientUnits="userSpaceOnUse"><stop stop-color="#A57D24"/><stop offset=".21" stop-color="#D8BD62"/><stop offset=".33" stop-color="#F1DD80"/><stop offset=".52" stop-color="#FBF2A8"/><stop offset=".73" stop-color="#F1DD80"/><stop offset="1" stop-color="#A57D24"/></linearGradient><linearGradient id="L" x1="76.371" y1="45.556" x2="85.15" y2="36.915" gradientUnits="userSpaceOnUse"><stop stop-color="#A57D24"/><stop offset=".21" stop-color="#D8BD62"/><stop offset=".33" stop-color="#F1DD80"/><stop offset=".52" stop-color="#FBF2A8"/><stop offset=".73" stop-color="#F1DD80"/><stop offset="1" stop-color="#A57D24"/></linearGradient><linearGradient id="M" x1="78.12" y1="34.493" x2="86.16" y2="26.581" gradientUnits="userSpaceOnUse"><stop stop-color="#A57D24"/><stop offset=".21" stop-color="#D8BD62"/><stop offset=".33" stop-color="#F1DD80"/><stop offset=".52" stop-color="#FBF2A8"/><stop offset=".73" stop-color="#F1DD80"/><stop offset="1" stop-color="#A57D24"/></linearGradient><linearGradient id="N" x1="77.267" y1="23.257" x2="83.653" y2="16.973" gradientUnits="userSpaceOnUse"><stop stop-color="#A57D24"/><stop offset=".21" stop-color="#D8BD62"/><stop offset=".33" stop-color="#F1DD80"/><stop offset=".52" stop-color="#FBF2A8"/><stop offset=".73" stop-color="#F1DD80"/><stop offset="1" stop-color="#A57D24"/></linearGradient><linearGradient id="O" x1="73.402" y1="12.354" x2="77.112" y2="8.704" gradientUnits="userSpaceOnUse"><stop stop-color="#A57D24"/><stop offset=".21" stop-color="#D8BD62"/><stop offset=".33" stop-color="#F1DD80"/><stop offset=".52" stop-color="#FBF2A8"/><stop offset=".73" stop-color="#F1DD80"/><stop offset="1" stop-color="#A57D24"/></linearGradient><clipPath id="a"><path fill="#fff" d="M0 0h86v74H0z"/></clipPath></defs></svg>