<svg width="60" height="60" viewBox="0 0 60 60" fill="none" xmlns="http://www.w3.org/2000/svg">
<g clip-path="url(#clip0_8021_968)">
<path d="M54.2906 20.6891L53.3156 21.6547C52.9125 22.0578 52.2656 22.0578 51.8625 21.6547L39.9469 9.73906C39.5437 9.33594 39.5437 8.68906 39.9469 8.28594L40.9219 7.32031L54.2906 20.6891Z" fill="#E8AA60"/>
<path d="M59.7 15.2727L54.2906 20.6914L40.9219 7.32266L46.3312 1.90391C46.725 1.50078 47.3812 1.50078 47.775 1.90391L59.7 13.8195C60.1031 14.2227 60.1031 14.8695 59.7 15.2727Z" fill="#EFBA73"/>
<path d="M51.4133 21.2164L16.5289 56.1102C13.482 59.157 8.54141 59.157 5.49453 56.1102C3.96641 54.582 3.20703 52.5852 3.20703 50.5977C3.20703 48.807 3.83516 46.9977 5.07266 45.5352L16.0789 34.5008L40.3977 10.1914L51.4133 21.2164Z" fill="#7CA2C1"/>
<path d="M56.8969 13.9961C56.7094 13.8086 56.4187 13.8086 56.2312 13.9961L53.7281 16.4992C53.5406 16.6867 53.5406 16.9773 53.7281 17.1648C53.8219 17.2586 53.9437 17.3055 54.0562 17.3055C54.1687 17.3055 54.3 17.2586 54.3844 17.1648L56.8875 14.6617C57.075 14.4742 57.075 14.1836 56.8969 13.9961ZM54.5719 11.6711C54.3844 11.4836 54.0937 11.4836 53.9062 11.6711L51.4031 14.1742C51.2156 14.3617 51.2156 14.6523 51.4031 14.8398C51.4969 14.9336 51.6187 14.9805 51.7312 14.9805C51.8531 14.9805 51.975 14.9336 52.0594 14.8398L54.5625 12.3367C54.75 12.1586 54.75 11.8586 54.5719 11.6711ZM52.2469 9.35547C52.0594 9.16797 51.7687 9.16797 51.5812 9.35547L49.0781 11.8586C48.8906 12.0461 48.8906 12.3367 49.0781 12.5242C49.1719 12.618 49.2937 12.6648 49.4062 12.6648C49.5281 12.6648 49.65 12.618 49.7344 12.5242L52.2375 10.0211C52.4344 9.83359 52.4344 9.53359 52.2469 9.35547ZM49.9312 7.03047C49.7437 6.84297 49.4531 6.84297 49.2656 7.03047L46.7625 9.53359C46.575 9.72109 46.575 10.0117 46.7625 10.1992C46.8562 10.293 46.9781 10.3398 47.0906 10.3398C47.2125 10.3398 47.3344 10.293 47.4188 10.1992L49.9219 7.69609C50.1094 7.50859 50.1094 7.21797 49.9312 7.03047ZM47.6062 4.71484C47.4187 4.52734 47.1281 4.52734 46.9406 4.71484L44.4375 7.21797C44.25 7.40547 44.25 7.69609 44.4375 7.88359C44.5312 7.97734 44.6531 8.02422 44.7656 8.02422C44.8781 8.02422 45.0094 7.97734 45.0937 7.88359L47.5969 5.38047C47.7937 5.19297 47.7937 4.89297 47.6062 4.71484Z" fill="#E8AA60"/>
<path d="M44.7664 27.8539L16.5289 56.1008C13.482 59.157 8.55078 59.157 5.50391 56.1008C3.97578 54.582 3.20703 52.5758 3.20703 50.5883C3.20703 48.7977 3.83516 46.9883 5.08203 45.5258L16.0789 34.5008L30.0852 20.5039C34.4914 24.1133 37.0602 24.5539 39.5164 25.2195C41.157 25.6508 42.7414 26.1945 44.7664 27.8539Z" fill="#DA4866"/>
<path d="M31.7702 28.0106L18.5586 41.2227L24.989 47.6528L38.2006 34.4407L31.7702 28.0106Z" fill="#E9E8E8"/>
<path d="M32.1 32.4922C31.9125 32.3047 31.6219 32.3047 31.4344 32.4922C31.2469 32.6797 31.2469 32.9703 31.4344 33.1578L35.4563 37.1797L36.1219 36.5141L32.1 32.4922ZM28.4906 35.4359C28.3031 35.6234 28.3031 35.9141 28.4906 36.1016L32.5125 40.1234L33.1781 39.4578L29.1563 35.4359C28.9781 35.2578 28.6781 35.2578 28.4906 35.4359ZM25.5469 38.3797C25.3594 38.5672 25.3594 38.8578 25.5469 39.0453L29.5688 43.0672L30.2344 42.4016L26.2125 38.3797C26.025 38.2016 25.7344 38.2016 25.5469 38.3797Z" fill="#C7C7C7"/>
<path d="M16.7531 37.8266C16.7531 42.4578 13.0031 46.2078 8.37188 46.2078C3.75 46.1984 0 42.4484 0 37.8266C0 33.1953 3.75 29.4453 8.38125 29.4453C13.0031 29.4453 16.7531 33.1953 16.7531 37.8266Z" fill="#8FCBBB"/>
<path d="M6.81484 41.2789C6.59922 41.2789 6.40234 41.1945 6.25234 41.0445L4.05859 38.8508C3.90859 38.7008 3.82422 38.5039 3.82422 38.2883C3.82422 38.0727 3.90859 37.8758 4.05859 37.7258C4.20859 37.5758 4.40547 37.4914 4.62109 37.4914C4.83672 37.4914 5.03359 37.5758 5.18359 37.7258L6.81484 39.357L11.5586 34.6133C11.7086 34.4633 11.9055 34.3789 12.1211 34.3789C12.3367 34.3789 12.5336 34.4633 12.6836 34.6133C12.8336 34.7633 12.918 34.9602 12.918 35.1758C12.918 35.3914 12.8336 35.5883 12.6836 35.7383L7.37734 41.0445C7.23672 41.1945 7.03047 41.2789 6.81484 41.2789Z" fill="#E9E8E8"/>
</g>
<defs>
<clipPath id="clip0_8021_968">
<rect width="60" height="60" fill="white"/>
</clipPath>
</defs>
</svg>
