<svg width="36" height="36" viewBox="0 0 36 36" fill="none" xmlns="http://www.w3.org/2000/svg">
<path d="M14.625 31.5C14.9588 31.5 15.285 31.401 15.5625 31.2156C15.84 31.0302 16.0563 30.7666 16.184 30.4583C16.3118 30.1499 16.3452 29.8106 16.2801 29.4833C16.215 29.1559 16.0542 28.8553 15.8182 28.6193C15.5822 28.3833 15.2816 28.2225 14.9542 28.1574C14.6269 28.0923 14.2876 28.1257 13.9792 28.2535C13.6709 28.3812 13.4073 28.5975 13.2219 28.875C13.0365 29.1525 12.9375 29.4787 12.9375 29.8125C12.9375 30.2601 13.1153 30.6893 13.4318 31.0057C13.7482 31.3222 14.1774 31.5 14.625 31.5ZM14.625 29.25C14.7363 29.25 14.845 29.283 14.9375 29.3448C15.03 29.4066 15.1021 29.4945 15.1447 29.5972C15.1873 29.7 15.1984 29.8131 15.1767 29.9222C15.155 30.0314 15.1014 30.1316 15.0227 30.2102C14.9441 30.2889 14.8439 30.3425 14.7347 30.3642C14.6256 30.3859 14.5125 30.3748 14.4097 30.3322C14.307 30.2896 14.2191 30.2175 14.1573 30.125C14.0955 30.0325 14.0625 29.9238 14.0625 29.8125C14.0625 29.6633 14.1218 29.5202 14.2273 29.4148C14.3327 29.3093 14.4758 29.25 14.625 29.25Z" fill="url(#paint0_linear_5504_1330)"/>
<path d="M29.8125 10.125H28.584C28.4694 9.79619 28.2554 9.51118 27.9716 9.3095C27.6877 9.10782 27.3482 8.99947 27 8.99947C26.6518 8.99947 26.3123 9.10782 26.0284 9.3095C25.7446 9.51118 25.5306 9.79619 25.416 10.125H25.3125V3.9375C25.3116 3.04267 24.9557 2.18474 24.323 1.552C23.6903 0.91926 22.8323 0.563393 21.9375 0.5625H7.3125C6.41767 0.563393 5.55974 0.91926 4.927 1.552C4.29426 2.18474 3.93839 3.04267 3.9375 3.9375V32.0625C3.93839 32.9573 4.29426 33.8153 4.927 34.448C5.55974 35.0807 6.41767 35.4366 7.3125 35.4375H21.9375C22.8323 35.4366 23.6903 35.0807 24.323 34.448C24.9557 33.8153 25.3116 32.9573 25.3125 32.0625V27H29.8125C30.4092 27 30.9815 26.7629 31.4035 26.341C31.8254 25.919 32.0625 25.3467 32.0625 24.75V12.375C32.0625 11.7783 31.8254 11.206 31.4035 10.784C30.9815 10.3621 30.4092 10.125 29.8125 10.125ZM30.9375 12.375V14.625H11.8125V12.375C11.8125 12.0766 11.931 11.7905 12.142 11.5795C12.353 11.3685 12.6391 11.25 12.9375 11.25H14.0625V11.8125C14.0625 12.2601 14.2403 12.6893 14.5568 13.0057C14.8732 13.3222 15.3024 13.5 15.75 13.5C16.1976 13.5 16.6268 13.3222 16.9432 13.0057C17.2597 12.6893 17.4375 12.2601 17.4375 11.8125V11.25H19.6875V11.8125C19.6875 12.2601 19.8653 12.6893 20.1818 13.0057C20.4982 13.3222 20.9274 13.5 21.375 13.5C21.8226 13.5 22.2518 13.3222 22.5682 13.0057C22.8847 12.6893 23.0625 12.2601 23.0625 11.8125V11.25H25.3125V11.8125C25.3125 12.2601 25.4903 12.6893 25.8068 13.0057C26.1232 13.3222 26.5524 13.5 27 13.5C27.4476 13.5 27.8768 13.3222 28.1932 13.0057C28.5097 12.6893 28.6875 12.2601 28.6875 11.8125V11.25H29.8125C30.1109 11.25 30.397 11.3685 30.608 11.5795C30.819 11.7905 30.9375 12.0766 30.9375 12.375ZM15.1875 11.8125V10.6875C15.1875 10.5383 15.2468 10.3952 15.3523 10.2898C15.4577 10.1843 15.6008 10.125 15.75 10.125C15.8992 10.125 16.0423 10.1843 16.1477 10.2898C16.2532 10.3952 16.3125 10.5383 16.3125 10.6875V11.8125C16.3125 11.9617 16.2532 12.1048 16.1477 12.2102C16.0423 12.3157 15.8992 12.375 15.75 12.375C15.6008 12.375 15.4577 12.3157 15.3523 12.2102C15.2468 12.1048 15.1875 11.9617 15.1875 11.8125ZM20.8125 11.8125V10.6875C20.8125 10.5383 20.8718 10.3952 20.9773 10.2898C21.0827 10.1843 21.2258 10.125 21.375 10.125C21.5242 10.125 21.6673 10.1843 21.7727 10.2898C21.8782 10.3952 21.9375 10.5383 21.9375 10.6875V11.8125C21.9375 11.9617 21.8782 12.1048 21.7727 12.2102C21.6673 12.3157 21.5242 12.375 21.375 12.375C21.2258 12.375 21.0827 12.3157 20.9773 12.2102C20.8718 12.1048 20.8125 11.9617 20.8125 11.8125ZM26.4375 10.6875C26.4375 10.5383 26.4968 10.3952 26.6023 10.2898C26.7077 10.1843 26.8508 10.125 27 10.125C27.1492 10.125 27.2923 10.1843 27.3977 10.2898C27.5032 10.3952 27.5625 10.5383 27.5625 10.6875V11.8125C27.5625 11.9617 27.5032 12.1048 27.3977 12.2102C27.2923 12.3157 27.1492 12.375 27 12.375C26.8508 12.375 26.7077 12.3157 26.6023 12.2102C26.4968 12.1048 26.4375 11.9617 26.4375 11.8125V10.6875ZM24.1875 32.0625C24.1875 32.6592 23.9504 33.2315 23.5285 33.6535C23.1065 34.0754 22.5342 34.3125 21.9375 34.3125H7.3125C6.71576 34.3125 6.14347 34.0754 5.72151 33.6535C5.29955 33.2315 5.0625 32.6592 5.0625 32.0625V3.9375C5.0625 3.34076 5.29955 2.76847 5.72151 2.34651C6.14347 1.92455 6.71576 1.6875 7.3125 1.6875H21.9375C22.5342 1.6875 23.1065 1.92455 23.5285 2.34651C23.9504 2.76847 24.1875 3.34076 24.1875 3.9375V10.125H22.959C22.8444 9.79619 22.6304 9.51118 22.3466 9.3095C22.0627 9.10782 21.7232 8.99947 21.375 8.99947C21.0268 8.99947 20.6873 9.10782 20.4034 9.3095C20.1196 9.51118 19.9056 9.79619 19.791 10.125H17.334C17.2194 9.79619 17.0054 9.51118 16.7216 9.3095C16.4377 9.10782 16.0982 8.99947 15.75 8.99947C15.4018 8.99947 15.0623 9.10782 14.7784 9.3095C14.4946 9.51118 14.2806 9.79619 14.166 10.125H12.9375C12.3408 10.125 11.7685 10.3621 11.3465 10.784C10.9246 11.206 10.6875 11.7783 10.6875 12.375V24.75C10.6875 25.3467 10.9246 25.919 11.3465 26.341C11.7685 26.7629 12.3408 27 12.9375 27H21.9375V31.5C21.9375 31.6492 21.8782 31.7923 21.7727 31.8977C21.6673 32.0032 21.5242 32.0625 21.375 32.0625H7.875C7.72582 32.0625 7.58274 32.0032 7.47725 31.8977C7.37176 31.7923 7.3125 31.6492 7.3125 31.5V3.9375H9.95625L11.502 4.968C11.5941 5.02914 11.702 5.06199 11.8125 5.0625H17.4375C17.5486 5.06232 17.6572 5.02946 17.7497 4.968L19.2937 3.9375H21.9375V8.4375H23.0625V3.9375C23.0625 3.63913 22.944 3.35298 22.733 3.142C22.522 2.93103 22.2359 2.8125 21.9375 2.8125H19.125C19.0139 2.81268 18.9053 2.84554 18.8128 2.907L17.2688 3.9375H11.9812L10.4372 2.907C10.3447 2.84554 10.2361 2.81268 10.125 2.8125H7.3125C7.01413 2.8125 6.72798 2.93103 6.517 3.142C6.30603 3.35298 6.1875 3.63913 6.1875 3.9375V31.5C6.1875 31.9476 6.36529 32.3768 6.68176 32.6932C6.99822 33.0097 7.42745 33.1875 7.875 33.1875H21.375C21.8226 33.1875 22.2518 33.0097 22.5682 32.6932C22.8847 32.3768 23.0625 31.9476 23.0625 31.5V27H24.1875V32.0625ZM29.8125 25.875H12.9375C12.6391 25.875 12.353 25.7565 12.142 25.5455C11.931 25.3345 11.8125 25.0484 11.8125 24.75V15.75H30.9375V24.75C30.9375 25.0484 30.819 25.3345 30.608 25.5455C30.397 25.7565 30.1109 25.875 29.8125 25.875Z" fill="url(#paint1_linear_5504_1330)"/>
<path d="M15.75 16.875H13.5C13.3508 16.875 13.2077 16.9343 13.1023 17.0398C12.9968 17.1452 12.9375 17.2883 12.9375 17.4375V19.6875C12.9375 19.8367 12.9968 19.9798 13.1023 20.0852C13.2077 20.1907 13.3508 20.25 13.5 20.25H15.75C15.8992 20.25 16.0423 20.1907 16.1477 20.0852C16.2532 19.9798 16.3125 19.8367 16.3125 19.6875V17.4375C16.3125 17.2883 16.2532 17.1452 16.1477 17.0398C16.0423 16.9343 15.8992 16.875 15.75 16.875ZM15.1875 19.125H14.0625V18H15.1875V19.125ZM20.25 16.875H18C17.8508 16.875 17.7077 16.9343 17.6023 17.0398C17.4968 17.1452 17.4375 17.2883 17.4375 17.4375V19.6875C17.4375 19.8367 17.4968 19.9798 17.6023 20.0852C17.7077 20.1907 17.8508 20.25 18 20.25H20.25C20.3992 20.25 20.5423 20.1907 20.6477 20.0852C20.7532 19.9798 20.8125 19.8367 20.8125 19.6875V17.4375C20.8125 17.2883 20.7532 17.1452 20.6477 17.0398C20.5423 16.9343 20.3992 16.875 20.25 16.875ZM19.6875 19.125H18.5625V18H19.6875V19.125ZM24.75 16.875H22.5C22.3508 16.875 22.2077 16.9343 22.1023 17.0398C21.9968 17.1452 21.9375 17.2883 21.9375 17.4375V19.6875C21.9375 19.8367 21.9968 19.9798 22.1023 20.0852C22.2077 20.1907 22.3508 20.25 22.5 20.25H24.75C24.8992 20.25 25.0423 20.1907 25.1477 20.0852C25.2532 19.9798 25.3125 19.8367 25.3125 19.6875V17.4375C25.3125 17.2883 25.2532 17.1452 25.1477 17.0398C25.0423 16.9343 24.8992 16.875 24.75 16.875ZM24.1875 19.125H23.0625V18H24.1875V19.125ZM15.75 21.375H13.5C13.3508 21.375 13.2077 21.4343 13.1023 21.5398C12.9968 21.6452 12.9375 21.7883 12.9375 21.9375V24.1875C12.9375 24.3367 12.9968 24.4798 13.1023 24.5852C13.2077 24.6907 13.3508 24.75 13.5 24.75H15.75C15.8992 24.75 16.0423 24.6907 16.1477 24.5852C16.2532 24.4798 16.3125 24.3367 16.3125 24.1875V21.9375C16.3125 21.7883 16.2532 21.6452 16.1477 21.5398C16.0423 21.4343 15.8992 21.375 15.75 21.375ZM15.1875 23.625H14.0625V22.5H15.1875V23.625ZM20.25 21.375H18C17.8508 21.375 17.7077 21.4343 17.6023 21.5398C17.4968 21.6452 17.4375 21.7883 17.4375 21.9375V24.1875C17.4375 24.3367 17.4968 24.4798 17.6023 24.5852C17.7077 24.6907 17.8508 24.75 18 24.75H20.25C20.3992 24.75 20.5423 24.6907 20.6477 24.5852C20.7532 24.4798 20.8125 24.3367 20.8125 24.1875V21.9375C20.8125 21.7883 20.7532 21.6452 20.6477 21.5398C20.5423 21.4343 20.3992 21.375 20.25 21.375ZM19.6875 23.625H18.5625V22.5H19.6875V23.625ZM24.75 21.375H22.5C22.3508 21.375 22.2077 21.4343 22.1023 21.5398C21.9968 21.6452 21.9375 21.7883 21.9375 21.9375V24.1875C21.9375 24.3367 21.9968 24.4798 22.1023 24.5852C22.2077 24.6907 22.3508 24.75 22.5 24.75H24.75C24.8992 24.75 25.0423 24.6907 25.1477 24.5852C25.2532 24.4798 25.3125 24.3367 25.3125 24.1875V21.9375C25.3125 21.7883 25.2532 21.6452 25.1477 21.5398C25.0423 21.4343 24.8992 21.375 24.75 21.375ZM24.1875 23.625H23.0625V22.5H24.1875V23.625ZM29.25 16.875H27C26.8508 16.875 26.7077 16.9343 26.6023 17.0398C26.4968 17.1452 26.4375 17.2883 26.4375 17.4375V19.6875C26.4375 19.8367 26.4968 19.9798 26.6023 20.0852C26.7077 20.1907 26.8508 20.25 27 20.25H29.25C29.3992 20.25 29.5423 20.1907 29.6477 20.0852C29.7532 19.9798 29.8125 19.8367 29.8125 19.6875V17.4375C29.8125 17.2883 29.7532 17.1452 29.6477 17.0398C29.5423 16.9343 29.3992 16.875 29.25 16.875ZM28.6875 19.125H27.5625V18H28.6875V19.125ZM29.25 21.375H27C26.8508 21.375 26.7077 21.4343 26.6023 21.5398C26.4968 21.6452 26.4375 21.7883 26.4375 21.9375V24.1875C26.4375 24.3367 26.4968 24.4798 26.6023 24.5852C26.7077 24.6907 26.8508 24.75 27 24.75H29.25C29.3992 24.75 29.5423 24.6907 29.6477 24.5852C29.7532 24.4798 29.8125 24.3367 29.8125 24.1875V21.9375C29.8125 21.7883 29.7532 21.6452 29.6477 21.5398C29.5423 21.4343 29.3992 21.375 29.25 21.375ZM28.6875 23.625H27.5625V22.5H28.6875V23.625Z" fill="url(#paint2_linear_5504_1330)"/>
<defs>
<linearGradient id="paint0_linear_5504_1330" x1="13.0503" y1="28.125" x2="16.7713" y2="30.5539" gradientUnits="userSpaceOnUse">
<stop stop-color="#007CBC"/>
<stop offset="1" stop-color="#B41E85"/>
</linearGradient>
<linearGradient id="paint1_linear_5504_1330" x1="4.87732" y1="0.562499" x2="39.5032" y2="18.79" gradientUnits="userSpaceOnUse">
<stop stop-color="#007CBC"/>
<stop offset="1" stop-color="#B41E85"/>
</linearGradient>
<linearGradient id="paint2_linear_5504_1330" x1="13.5014" y1="16.875" x2="22.4757" y2="29.4279" gradientUnits="userSpaceOnUse">
<stop stop-color="#007CBC"/>
<stop offset="1" stop-color="#B41E85"/>
</linearGradient>
</defs>
</svg>
