<svg width="40" height="40" viewBox="0 0 40 40" fill="none" xmlns="http://www.w3.org/2000/svg">
<path d="M31.0255 25.2818C23.9628 21.4788 26.9897 23.9624 26.9897 23.9624C26.9897 23.9624 23.9628 22.1773 22.1001 23.6519C20.2374 25.2042 20.4703 32.9654 20.4703 32.9654C21.9449 37.3892 26.9897 38.631 34.2076 38.0877C35.1389 38.0101 35.915 37.234 36.0703 36.3027C36.3807 33.5863 36.2255 28.0758 31.0255 25.2818Z" fill="#74CDFC"/>
<path d="M30.2481 30.3226L22.875 36.2987L22.9526 26.9852L24.8153 23.1823C25.669 23.3375 26.4452 23.6479 26.9108 23.9584C24.5825 21.9405 29.5496 24.3464 31.1795 25.433C31.4899 25.5882 31.8004 25.8211 32.0332 25.9763L32.1884 26.1315L30.2481 30.3226Z" fill="#EAEAEC"/>
<path d="M30.8682 25.7432L26.6771 26.0536C26.3667 25.1223 26.3667 23.182 26.2891 21.1641H30.8682V25.7432Z" fill="#DD9A76"/>
<path d="M26.4395 23.4164L25.3529 23.1836L24.9648 26.2105C24.9648 26.4433 25.1977 26.6761 25.4305 26.5209L26.7499 25.9776C26.3619 24.8911 26.4395 23.4164 26.4395 23.4164Z" fill="white"/>
<path d="M25.5085 26.5184V27.8378L22.9473 34.202V36.2975L24.3443 35.6766L26.207 28.2259L27.3711 27.3721L26.6726 26.0527L25.5085 26.5184Z" fill="#5A6268"/>
<path d="M30.8668 24.1895C30.8668 24.1895 29.237 25.9745 26.6758 26.0521L26.9862 28.0701C26.9862 28.3029 27.2967 28.4581 27.4519 28.3029L31.6429 25.5865L30.8668 24.1895Z" fill="white"/>
<path d="M31.8004 29.8593L30.2481 30.325L30.481 31.4892C27.9198 34.0504 22.875 36.2235 22.875 36.2235C29.7049 30.4026 31.0243 26.0563 31.1795 25.3578C31.1795 25.2802 31.3347 25.125 31.3347 25.125L32.266 26.0563L31.8004 29.8593Z" fill="#1EA9EE"/>
<path d="M25.3545 23.4178C25.3545 23.4178 23.647 25.7461 22.9485 36.3013L22.25 27.9969L22.9485 26.9879V25.5133C23.0261 25.4357 24.9664 23.0297 24.8888 23.1849C24.9664 23.1849 24.9664 23.1849 25.044 23.1849C25.044 23.2625 25.4321 23.4954 25.3545 23.4178Z" fill="#1EA9EE"/>
<path d="M29.4655 22.5647C29.4655 22.5647 32.1043 22.0991 33.1132 19.0722C34.0446 15.9677 32.8028 12.5528 28.767 12.2424C24.7311 11.9319 23.567 16.2782 23.7998 18.1409C24.0326 19.9259 29.4655 22.5647 29.4655 22.5647Z" fill="#4F565C"/>
<path d="M30.7066 18.6814C31.2498 24.2694 24.7304 26.6754 23.7215 20.3112C22.5573 13.2485 30.2409 13.4814 30.7066 18.6814Z" fill="#F3AC7E"/>
<path d="M27.9953 23.8807C28.0729 23.8031 31.0998 23.0269 32.1863 20.3105C32.4192 19.7672 31.643 19.224 30.7893 20.0001C29.3147 21.3971 27.9177 23.9583 27.9953 23.8807Z" fill="#F3AC7E"/>
<path d="M31.0224 11.4634C29.9359 10.9978 27.9956 11.153 26.2881 11.8515C22.0971 13.4814 23.4165 18.0605 23.6493 17.75C24.2702 16.9739 26.1329 15.6545 26.2881 16.6635C26.3657 17.8276 27.9956 18.9142 29.2374 19.0694C29.8583 19.9232 29.9359 20.6217 29.8583 21.553C29.9359 21.4754 30.712 21.1649 30.9448 20.156C31.1777 18.8366 31.5657 16.5082 31.5657 16.5082C31.5657 16.5082 31.2553 16.0426 30.8672 15.5769L32.109 15.1888L32.5747 20.0784C32.5747 20.0784 32.5747 20.8545 33.3508 18.5261C34.1269 15.9649 33.6612 12.4724 31.0224 11.4634Z" fill="#4F565C"/>
<path d="M17.1244 23.6509C15.2617 22.0986 12.2349 23.9613 12.2349 23.9613C12.2349 23.9613 15.2617 21.4777 8.19906 25.2807C2.99906 28.0748 2.84384 33.5852 3.15428 36.3016C3.30951 37.3106 4.08563 38.0091 5.01697 38.0867C12.2349 38.7076 17.2797 37.3882 18.7543 32.9643C18.7543 32.9643 19.0647 25.2031 17.1244 23.6509Z" fill="#E8C8F0"/>
<path d="M8.97545 30.3239L16.3486 36.3L16.271 26.9866L14.4083 23.1836C13.5546 23.3388 12.7784 23.6493 12.3128 23.9597C12.5456 23.8045 15.0292 21.709 8.27695 25.2791C8.19933 25.3567 8.12172 25.3567 8.04411 25.4343C7.73366 25.5896 7.42322 25.8224 7.19038 25.9776L7.03516 26.1328L8.97545 30.3239Z" fill="#EAEAEC"/>
<path d="M8.35938 25.7432L12.5504 26.0536C12.8609 25.1223 12.8609 23.182 12.9385 21.1641H8.35938V25.7432Z" fill="#DD9A76"/>
<path d="M12.7792 23.4164L13.8658 23.1836L14.2538 26.2105C14.2538 26.4433 14.021 26.6761 13.7882 26.5209L12.4688 25.9776C12.8568 24.8911 12.7792 23.4164 12.7792 23.4164Z" fill="white"/>
<path d="M13.7142 26.5184V27.8378L16.2754 34.202V36.2975L14.8784 35.6766L13.0157 28.2259L11.8516 27.3721L12.5501 26.0527L13.7142 26.5184Z" fill="#FF5766"/>
<path d="M8.35815 24.1895C8.35815 24.1895 9.988 25.9745 12.5492 26.0521L12.2387 28.0701C12.2387 28.3029 11.9283 28.4581 11.7731 28.3029L7.58203 25.5865L8.35815 24.1895Z" fill="white"/>
<path d="M7.43052 29.8593L8.98275 30.325L8.74992 31.4892C11.3111 34.0504 16.3559 36.2235 16.3559 36.2235C9.52604 30.4026 8.20664 26.0563 8.05141 25.3578C8.05141 25.2802 7.89619 25.125 7.89619 25.125L6.96484 26.0563L7.43052 29.8593Z" fill="#EFADFF"/>
<path d="M13.8677 23.4178C13.8677 23.4178 15.5751 25.7461 16.2737 36.3013L16.9722 27.9969L16.2737 26.9879V25.5133C16.196 25.4357 14.2557 23.0297 14.3334 23.1849C14.2557 23.1849 14.2557 23.1849 14.1781 23.1849C14.1781 23.2625 13.7901 23.4954 13.8677 23.4178Z" fill="#EFADFF"/>
<path d="M9.75894 22.5647C9.75894 22.5647 7.12013 22.0991 6.11118 19.0722C5.10222 16.0453 6.42162 12.5528 10.4574 12.2424C14.4933 11.9319 15.6574 16.2782 15.4246 18.1409C15.1918 20.0036 9.75894 22.5647 9.75894 22.5647Z" fill="#4F565C"/>
<path d="M8.51004 18.683C8.2772 20.9337 9.44138 23.2621 11.2265 23.883C15.8056 25.5904 17.7459 15.3457 12.4682 14.8024C10.6832 14.6472 8.74287 16.4322 8.51004 18.683Z" fill="#F3AC7E"/>
<path d="M11.2347 23.8825C11.1571 23.8049 8.1302 23.0288 7.04364 20.3124C6.8108 19.7691 7.35408 19.4587 7.89737 19.6915C9.13916 20.1572 11.2347 23.8049 11.2347 23.8825Z" fill="#F3AC7E"/>
<path d="M10.1475 15.7302C10.1475 15.7302 11.3893 17.5929 10.2251 18.9123C9.44896 19.8436 9.29373 20.6197 9.37135 21.6287C9.29373 21.5511 8.51761 21.2406 8.28478 20.1541C8.05194 18.8347 7.74149 16.5839 7.74149 16.5063C7.74149 16.4287 9.60418 14.3332 9.60418 14.3332L12.1654 13.9451L10.1475 15.7302ZM7.43105 13.3242C7.43105 13.3242 4.63702 13.9451 5.72358 17.36C6.4997 19.6884 6.65493 20.2317 6.65493 20.2317L7.43105 13.3242Z" fill="#4F565C"/>
<path d="M8.20281 11.4659C9.28938 10.9226 11.4625 10.6122 12.9371 11.854C17.5162 15.5794 12.3162 18.2182 9.91027 15.8898L10.6864 14.7256L7.34908 13.4062C7.34908 13.4062 7.11624 12.0092 8.20281 11.4659Z" fill="#4F565C"/>
<path d="M28.5389 10.2947L27.918 10.6828C28.0732 10.6052 28.0732 10.5276 28.0732 10.3723C28.0732 10.2947 28.1508 10.2171 28.1508 10.0619L28.7717 9.67383C28.8493 9.98428 28.7717 10.2171 28.5389 10.2947Z" fill="#EFADFF"/>
<path d="M22.3281 5.64197L22.949 5.25391V5.71958L22.3281 6.10764V5.64197Z" fill="#C5434F"/>
<path d="M22.3281 4.4779L22.949 4.08984V4.55552L22.3281 4.94358V4.4779Z" fill="#C5434F"/>
<path d="M22.3281 3.23623L22.949 2.92578V3.39145L22.3281 3.7019V3.23623Z" fill="#C5434F"/>
<path d="M26.5234 10.1425L27.1443 9.83203V11.0738L26.5234 11.4619V10.1425Z" fill="#EFADFF"/>
<path d="M21.2422 1.44881L21.8631 1.06075C22.0183 0.983133 22.2511 0.983133 22.5616 1.13836L21.9407 1.44881C21.6302 1.29358 21.3974 1.29358 21.2422 1.44881Z" fill="#EFADFF"/>
<path d="M22.3281 6.1029L22.949 5.71484L27.5281 8.35365L26.9072 8.74171L22.3281 6.1029Z" fill="#DC4B58"/>
<path d="M26.9121 8.28064L27.533 7.89258V8.35825L26.9121 8.74631V8.28064Z" fill="#B5B5B6"/>
<path d="M22.3281 5.64197L22.949 5.25391L27.5281 7.89271L26.9072 8.28077L22.3281 5.64197Z" fill="#CACACB"/>
<path d="M22.3281 4.93884L22.949 4.55078L27.5281 7.18959L26.9072 7.57765L22.3281 4.93884Z" fill="#DC4B58"/>
<path d="M22.3281 4.4779L22.949 4.08984L27.5281 6.72865L26.9072 7.11671L22.3281 4.4779Z" fill="#CACACB"/>
<path d="M26.9072 7.11732V7.58299L22.3281 4.94419V4.47852L26.9072 7.11732Z" fill="#F1F1F3"/>
<path d="M26.9121 7.11658L27.533 6.72852V7.19419L26.9121 7.58225V7.11658Z" fill="#B5B5B6"/>
<path d="M22.3281 3.69717L22.949 3.38672L27.5281 6.02553L26.9072 6.33597L22.3281 3.69717Z" fill="#DC4B58"/>
<path d="M26.9121 5.87295L27.533 5.5625V6.02817L26.9121 6.33862V5.87295Z" fill="#B5B5B6"/>
<path d="M22.3281 3.23623L22.949 2.92578L27.5281 5.56459L26.9072 5.87504L22.3281 3.23623Z" fill="#CACACB"/>
<path d="M27.2978 4.54854C27.8411 4.85899 28.2291 5.63511 28.2291 6.25601V10.059C28.2291 11.456 26.5993 10.2142 26.5217 10.1366V11.3784L25.3575 9.51571L21.9425 7.4978C21.3993 7.18735 20.9336 6.41123 20.9336 5.86795V2.06496C20.9336 1.44406 21.3993 1.21123 21.9425 1.52168L27.2978 4.54854ZM26.9097 8.73959V8.27392L22.3306 5.63511V6.10078L26.9097 8.73959ZM26.9097 6.33362V5.86795L22.3306 3.22914V3.69481L26.9097 6.33362ZM26.9097 7.57541V7.10974L22.3306 4.47093V4.9366L26.9097 7.57541Z" fill="#EFADFF"/>
<path d="M26.9072 8.28138V8.74706L22.3281 6.10825V5.64258L26.9072 8.28138Z" fill="#F1F1F3"/>
<path d="M26.9072 5.87318V6.33885L22.3281 3.70005V3.23438L26.9072 5.87318Z" fill="#F1F1F3"/>
<path d="M28.2266 6.26111L28.8475 5.87305V9.67603L28.2266 10.0641V6.26111Z" fill="#EFADFF"/>
<path d="M21.9414 1.44717L22.5623 1.13672L27.9175 4.2412L27.2966 4.55164L21.9414 1.44717Z" fill="#EFADFF"/>
<path d="M27.3008 4.55017L27.9217 4.16211C28.465 4.47256 28.853 5.24868 28.853 5.79196L28.2321 6.18002C28.2321 5.63674 27.8441 4.86062 27.3008 4.55017Z" fill="#EFADFF"/>
<path d="M10.9156 10.2947L11.5365 10.6828C11.3813 10.6052 11.3813 10.5276 11.3813 10.3723C11.3813 10.2947 11.3036 10.2171 11.3036 10.0619L10.6828 9.67383C10.6051 9.98428 10.7604 10.2171 10.9156 10.2947Z" fill="#1EA9EE"/>
<path d="M17.201 5.64197L16.5801 5.25391V5.71958L17.201 6.10764V5.64197Z" fill="#C5434F"/>
<path d="M17.201 4.4779L16.5801 4.08984V4.55552L17.201 4.94358V4.4779Z" fill="#C5434F"/>
<path d="M17.201 3.23623L16.5801 2.92578V3.39145L17.201 3.7019V3.23623Z" fill="#C5434F"/>
<path d="M13.0174 10.1425L12.3965 9.83203V11.0738L13.0174 11.4619V10.1425Z" fill="#006A9E"/>
<path d="M18.2882 1.44881L17.6673 1.06075C17.4344 0.983133 17.2016 0.983133 16.9688 1.13836L17.5896 1.52642C17.8225 1.29358 18.0553 1.29358 18.2882 1.44881Z" fill="#1EA9EE"/>
<path d="M17.2078 6.1029L16.5869 5.71484L12.0078 8.35365L12.6287 8.74171L17.2078 6.1029Z" fill="#DC4B58"/>
<path d="M12.6287 8.28064L12.0078 7.89258V8.35825L12.6287 8.74631V8.28064Z" fill="#B5B5B6"/>
<path d="M17.2078 5.64197L16.5869 5.25391L12.0078 7.89271L12.6287 8.28077L17.2078 5.64197Z" fill="#CACACB"/>
<path d="M17.2078 4.93884L16.5869 4.55078L12.0078 7.18959L12.6287 7.57765L17.2078 4.93884Z" fill="#DC4B58"/>
<path d="M17.2078 4.4779L16.5869 4.08984L12.0078 6.72865L12.6287 7.11671L17.2078 4.4779Z" fill="#CACACB"/>
<path d="M12.627 7.11732V7.58299L17.2061 4.94419V4.47852L12.627 7.11732Z" fill="#F1F1F3"/>
<path d="M12.6287 7.11658L12.0078 6.72852V7.19419L12.6287 7.58225V7.11658Z" fill="#B5B5B6"/>
<path d="M17.2078 3.69717L16.5869 3.38672L12.0078 6.02553L12.6287 6.33597L17.2078 3.69717Z" fill="#DC4B58"/>
<path d="M12.6287 5.87295L12.0078 5.5625V6.02817L12.6287 6.33862V5.87295Z" fill="#B5B5B6"/>
<path d="M17.2078 3.23623L16.5869 2.92578L12.0078 5.56459L12.6287 5.87504L17.2078 3.23623Z" fill="#CACACB"/>
<path d="M17.5913 1.44941C18.1345 1.13896 18.6002 1.3718 18.6002 1.99269V5.79568C18.6002 6.41657 18.1345 7.19269 17.6689 7.50314L14.0987 9.52105L13.0122 11.4614V10.2196C12.8569 10.2972 11.3047 11.539 11.3047 10.1419V6.33896C11.3047 5.71807 11.7704 4.94195 12.236 4.70911L17.5913 1.44941ZM12.6241 8.74493L17.2032 6.10613V5.64046L12.6241 8.27926V8.74493ZM12.6241 6.33896L17.2032 3.70016V3.23449L12.6241 5.87329V6.33896ZM12.6241 7.58075L17.2032 4.94195V4.47628L12.6241 7.11508V7.58075Z" fill="#1EA9EE"/>
<path d="M12.627 8.28138V8.74706L17.2061 6.10825V5.64258L12.627 8.28138Z" fill="#F1F1F3"/>
<path d="M12.627 5.87318V6.33885L17.2061 3.70005V3.23438L12.627 5.87318Z" fill="#F1F1F3"/>
<path d="M11.2283 6.26111L10.6074 5.87305V9.67603L11.2283 10.0641V6.26111Z" fill="#1EA9EE"/>
<path d="M17.5972 1.44717L16.9763 1.13672L11.6211 4.2412L12.242 4.55164L17.5972 1.44717Z" fill="#1EA9EE"/>
<path d="M12.2397 4.55017L11.6188 4.16211C11.0756 4.47256 10.6875 5.24868 10.6875 5.79196L11.3084 6.18002C11.2308 5.63674 11.6965 4.86062 12.2397 4.55017Z" fill="#1EA9EE"/>
</svg>
