<svg width="24" height="24" viewBox="0 0 24 24" fill="none" xmlns="http://www.w3.org/2000/svg">
<g clip-path="url(#clip0_5504_1948)">
<path d="M21.4998 4H19.3332V5.33333H21.3332V20H2.66651V5.33333H4.66651V4H2.49985C2.344 4.0026 2.1902 4.03588 2.04722 4.09794C1.90425 4.15999 1.77489 4.24961 1.66655 4.36166C1.55821 4.47371 1.47301 4.60601 1.41581 4.751C1.35861 4.89599 1.33053 5.05083 1.33318 5.20667V20.1267C1.33053 20.2825 1.35861 20.4373 1.41581 20.5823C1.47301 20.7273 1.55821 20.8596 1.66655 20.9717C1.77489 21.0837 1.90425 21.1733 2.04722 21.2354C2.1902 21.2974 2.344 21.3307 2.49985 21.3333H21.4998C21.6557 21.3307 21.8095 21.2974 21.9525 21.2354C22.0954 21.1733 22.2248 21.0837 22.3331 20.9717C22.4415 20.8596 22.5267 20.7273 22.5839 20.5823C22.6411 20.4373 22.6692 20.2825 22.6665 20.1267V5.20667C22.6692 5.05083 22.6411 4.89599 22.5839 4.751C22.5267 4.60601 22.4415 4.47371 22.3331 4.36166C22.2248 4.24961 22.0954 4.15999 21.9525 4.09794C21.8095 4.03588 21.6557 4.0026 21.4998 4Z" fill="#979797"/>
<path d="M5.3335 9.33331H6.66683V10.6666H5.3335V9.33331Z" fill="#979797"/>
<path d="M9.3335 9.33331H10.6668V10.6666H9.3335V9.33331Z" fill="#979797"/>
<path d="M13.3335 9.33331H14.6668V10.6666H13.3335V9.33331Z" fill="#979797"/>
<path d="M17.3335 9.33331H18.6668V10.6666H17.3335V9.33331Z" fill="#979797"/>
<path d="M5.3335 12.6667H6.66683V14H5.3335V12.6667Z" fill="#979797"/>
<path d="M9.3335 12.6667H10.6668V14H9.3335V12.6667Z" fill="#979797"/>
<path d="M13.3335 12.6667H14.6668V14H13.3335V12.6667Z" fill="#979797"/>
<path d="M17.3335 12.6667H18.6668V14H17.3335V12.6667Z" fill="#979797"/>
<path d="M5.3335 16H6.66683V17.3333H5.3335V16Z" fill="#979797"/>
<path d="M9.3335 16H10.6668V17.3333H9.3335V16Z" fill="#979797"/>
<path d="M13.3335 16H14.6668V17.3333H13.3335V16Z" fill="#979797"/>
<path d="M17.3335 16H18.6668V17.3333H17.3335V16Z" fill="#979797"/>
<path d="M6.66667 6.66665C6.84348 6.66665 7.01305 6.59641 7.13807 6.47138C7.2631 6.34636 7.33333 6.17679 7.33333 5.99998V1.99998C7.33333 1.82317 7.2631 1.6536 7.13807 1.52858C7.01305 1.40355 6.84348 1.33331 6.66667 1.33331C6.48986 1.33331 6.32029 1.40355 6.19526 1.52858C6.07024 1.6536 6 1.82317 6 1.99998V5.99998C6 6.17679 6.07024 6.34636 6.19526 6.47138C6.32029 6.59641 6.48986 6.66665 6.66667 6.66665Z" fill="#979797"/>
<path d="M17.3332 6.66665C17.51 6.66665 17.6796 6.59641 17.8046 6.47138C17.9296 6.34636 17.9998 6.17679 17.9998 5.99998V1.99998C17.9998 1.82317 17.9296 1.6536 17.8046 1.52858C17.6796 1.40355 17.51 1.33331 17.3332 1.33331C17.1564 1.33331 16.9868 1.40355 16.8618 1.52858C16.7367 1.6536 16.6665 1.82317 16.6665 1.99998V5.99998C16.6665 6.17679 16.7367 6.34636 16.8618 6.47138C16.9868 6.59641 17.1564 6.66665 17.3332 6.66665Z" fill="#979797"/>
<path d="M8.6665 4H15.3332V5.33333H8.6665V4Z" fill="#979797"/>
</g>
<defs>
<clipPath id="clip0_5504_1948">
<rect width="24" height="24" fill="white"/>
</clipPath>
</defs>
</svg>
