<svg width="19" height="19" viewBox="0 0 19 19" fill="none" xmlns="http://www.w3.org/2000/svg">
<path d="M5.35295 16.4453C6.16978 16.4453 6.83195 15.7831 6.83195 14.9663C6.83195 14.1495 6.16978 13.4873 5.35295 13.4873C4.53613 13.4873 3.87396 14.1495 3.87396 14.9663C3.87396 15.7831 4.53613 16.4453 5.35295 16.4453Z" stroke="white" stroke-width="1.2" stroke-linecap="round" stroke-linejoin="round"/>
<path d="M13.4874 16.4453C14.3042 16.4453 14.9664 15.7831 14.9664 14.9663C14.9664 14.1495 14.3042 13.4873 13.4874 13.4873C12.6706 13.4873 12.0084 14.1495 12.0084 14.9663C12.0084 15.7831 12.6706 16.4453 13.4874 16.4453Z" stroke="white" stroke-width="1.2" stroke-linecap="round" stroke-linejoin="round"/>
<path d="M13.4874 13.4872H5.35295V3.13428H3.87396" stroke="white" stroke-width="1.2" stroke-linecap="round" stroke-linejoin="round"/>
<path d="M5.35291 4.61328L15.7058 5.35278L14.9664 10.5292H5.35291" stroke="white" stroke-width="1.2" stroke-linecap="round" stroke-linejoin="round"/>
</svg>
