<svg width="39" height="29" fill="none" xmlns="http://www.w3.org/2000/svg"><g clip-path="url(#a)"><path d="M33.253 6.948h3.945c.349 0 .683.14.93.389s.385.586.385.938v13.137c0 .352-.138.69-.385.938a1.31 1.31 0 0 1-.93.389h-3.945V6.949z" fill="#F2F2F2"/><path d="M33.691 6.948h-.438v15.79h.438V6.949z" fill="#DEDEDE"/><path d="M23.302 4.957h8.636c.349 0 .683.14.93.389.246.248.385.586.385.938v16.454H21.987V6.284c0-.352.139-.69.385-.938a1.31 1.31 0 0 1 .93-.389z" fill="#F2F2F2"/><path d="M31.463 4.957h-7.69c.31 1.88 1.916 3.317 3.845 3.317 1.929 0 3.535-1.437 3.845-3.317z" fill="#BEBEBE"/><path d="M21.987 22.737h-3.945c-.349 0-.683-.14-.93-.388a1.333 1.333 0 0 1-.385-.939V8.274c0-.352.139-.69.385-.939a1.31 1.31 0 0 1 .93-.388h3.945v15.79zM27.62 7.833c1.911 0 3.46-1.584 3.46-3.539 0-1.954-1.549-3.538-3.46-3.538s-3.46 1.584-3.46 3.538c0 1.955 1.549 3.539 3.46 3.539z" fill="#F2F2F2"/><path d="M29.284 3.631h-1.009V2.614a.444.444 0 0 0-.128-.313.436.436 0 0 0-.31-.13h-.438a.436.436 0 0 0-.31.13.444.444 0 0 0-.129.313v1.017h-1.008a.436.436 0 0 0-.31.13.444.444 0 0 0-.128.313v.442a.436.436 0 0 0 .438.442h1.008v1.018c0 .117.046.23.129.312.082.083.193.13.31.13h.438a.436.436 0 0 0 .31-.13.444.444 0 0 0 .128-.312V4.958h1.009a.444.444 0 0 0 .438-.442v-.442a.444.444 0 0 0-.439-.443z" fill="#F66"/><path d="M26.457 17.962h2.324c.174 0 .341.07.465.194a.667.667 0 0 1 .192.47v4.113H25.8v-4.114c0-.176.069-.344.192-.469a.654.654 0 0 1 .465-.194z" fill="#676E87"/><path d="M28.78 17.962h-.878c.175 0 .342.07.465.194a.667.667 0 0 1 .193.47v4.113h.877v-4.114a.667.667 0 0 0-.193-.469.655.655 0 0 0-.465-.194z" fill="#595F74"/><path d="M31.016 10.264h-2.477a.264.264 0 0 0-.263.265v1.327c0 .146.118.265.263.265h2.477a.264.264 0 0 0 .263-.265v-1.327a.264.264 0 0 0-.263-.265z" fill="#007CBC"/><path d="M31.015 10.264h-.876c.07 0 .136.028.186.077.049.05.077.118.077.188v1.327c0 .07-.028.138-.077.188a.262.262 0 0 1-.186.077h.876c.07 0 .137-.028.186-.077a.266.266 0 0 0 .077-.188v-1.327a.266.266 0 0 0-.263-.265zM33.253 10.264h3.025c.07 0 .136.028.186.077.049.05.077.118.077.188v1.327c0 .07-.028.138-.077.188a.262.262 0 0 1-.186.077h-3.025v-1.857z" fill="#007CBC"/><path d="M36.274 10.264h-.877c.07 0 .137.028.186.077.05.05.077.118.077.188v1.327c0 .07-.027.138-.077.188a.262.262 0 0 1-.186.077h.877c.07 0 .137-.028.186-.077a.267.267 0 0 0 .077-.188v-1.327a.266.266 0 0 0-.263-.265zM33.691 10.264h-.438v1.857h.438v-1.857zM33.253 14.113h3.025a.267.267 0 0 1 .263.265v1.328a.266.266 0 0 1-.263.265h-3.025v-1.858z" fill="#007CBC"/><path d="M36.274 14.113h-.877a.267.267 0 0 1 .263.265v1.328a.266.266 0 0 1-.263.265h.877a.266.266 0 0 0 .263-.265v-1.327a.267.267 0 0 0-.077-.188.262.262 0 0 0-.186-.078zM33.691 14.113h-.438v1.858h.438v-1.858zM18.96 10.264h3.025v1.857H18.96a.266.266 0 0 1-.263-.265v-1.327a.266.266 0 0 1 .263-.265zm0 3.848h3.025v1.857H18.96a.266.266 0 0 1-.263-.265v-1.327a.266.266 0 0 1 .263-.265zM26.697 10.264H24.22a.264.264 0 0 0-.263.265v1.327c0 .146.118.265.263.265h2.477a.264.264 0 0 0 .263-.265v-1.327a.264.264 0 0 0-.263-.265z" fill="#007CBC"/><path d="M26.699 10.264h-.877c.07 0 .137.028.186.077.05.05.077.118.077.188v1.327c0 .07-.027.138-.077.188a.262.262 0 0 1-.186.077h.877c.07 0 .137-.028.186-.077a.267.267 0 0 0 .077-.188v-1.327a.266.266 0 0 0-.263-.265zM31.016 14.113h-2.477a.264.264 0 0 0-.263.266v1.327c0 .146.118.265.263.265h2.477a.264.264 0 0 0 .263-.265v-1.327a.264.264 0 0 0-.263-.266zM26.696 14.113h-2.477a.264.264 0 0 0-.263.266v1.327c0 .146.118.265.263.265h2.477a.264.264 0 0 0 .263-.265v-1.327a.264.264 0 0 0-.263-.266z" fill="#007CBC"/><path d="M26.7 14.113h-.877a.266.266 0 0 1 .263.265v1.328a.266.266 0 0 1-.263.265h.876a.266.266 0 0 0 .263-.265v-1.327a.266.266 0 0 0-.263-.266z" fill="#007CBC"/><path d="M21.986 6.948h-.438v15.79h.438V6.948z" fill="#DEDEDE"/><path d="M21.986 10.264h-.438v1.857h.438v-1.857zM21.986 14.113h-.438v1.858h.438v-1.858zM31.015 14.113h-.876a.266.266 0 0 1 .263.265v1.328c0 .07-.028.137-.077.187a.262.262 0 0 1-.186.078h.877a.267.267 0 0 0 .263-.265v-1.327a.266.266 0 0 0-.264-.266z" fill="#007CBC"/></g><g clip-path="url(#b)"><path d="m20.199 28.102.021-5.766c0-.534-.172-1.054-.49-1.48a2.435 2.435 0 0 0-1.276-.883l-4.97-1.433a1.217 1.217 0 0 1-.617-.445 1.236 1.236 0 0 1-.237-.727v-1.35H9.383v1.35c0 .262-.082.517-.236.727-.153.211-.37.367-.617.445l-4.97 1.433a2.435 2.435 0 0 0-1.275.883 2.472 2.472 0 0 0-.492 1.48l-.021 5.766h18.427z" fill="#EEE"/><path d="M8.751 19.392c1.464.499 3.051.48 4.503-.052l.681-.668-.456-.132a1.217 1.217 0 0 1-.617-.445 1.236 1.236 0 0 1-.236-.727v-1.35H9.38v1.35c0 .262-.083.517-.236.727-.154.211-.37.367-.617.445l-.385.111.61.741z" fill="#FFCD85"/><path d="M18.25 25.13a1.08 1.08 0 0 0 1.075-1.085c0-.6-.481-1.086-1.075-1.086a1.08 1.08 0 0 0-1.076 1.085c0 .6.482 1.086 1.076 1.086z" fill="#BEBEBE"/><path d="M17.133 19.591c.26.433.628 1.186.75 1.826.092.493.096.998.012 1.492a.31.31 0 0 0 .137.312.303.303 0 0 0 .462-.208 4.82 4.82 0 0 0-.014-1.71c-.095-.507-.309-1.038-.524-1.475l-.823-.237z" fill="#BEBEBE"/><path d="M17.842 25.13a1.08 1.08 0 0 0 1.076-1.086c0-.599-.482-1.085-1.076-1.085a1.08 1.08 0 0 0-1.075 1.085c0 .6.481 1.086 1.075 1.086z" fill="#676E87"/><path d="M17.472 21.418c.093.492.097.997.012 1.49a.31.31 0 0 0 .137.313.303.303 0 0 0 .463-.208 4.82 4.82 0 0 0-.014-1.71c-.106-.56-.356-1.152-.593-1.611l-.844-.244c.258.392.703 1.252.839 1.97z" fill="#676E87"/><path d="M3.376 25.996a.309.309 0 0 0 .237.244.3.3 0 0 0 .119 0l.528-.1a.303.303 0 0 0 .242-.239.31.31 0 0 0-.126-.316.303.303 0 0 0-.228-.049l-.23.044-.24-1.288a.907.907 0 0 1 .14-.675.892.892 0 0 1 1.24-.236c.196.135.33.343.375.578l.24 1.288-.23.043a.305.305 0 0 0-.242.359c.015.08.06.15.128.197a.302.302 0 0 0 .227.048l.53-.1a.305.305 0 0 0 .242-.36l-.297-1.59a1.52 1.52 0 0 0-.52-.886 1.496 1.496 0 0 0-.961-.348 4.869 4.869 0 0 1 .105-1.183c.122-.57.555-1.524.818-2.005l-.82.237c-.227.475-.493 1.172-.593 1.638a5.49 5.49 0 0 0-.115 1.444 1.51 1.51 0 0 0-.719.68 1.53 1.53 0 0 0-.147.985l.297 1.59z" fill="#BEBEBE"/><path d="M2.972 25.994a.31.31 0 0 0 .237.244.3.3 0 0 0 .118.001l.53-.1a.31.31 0 0 0 .115-.555.303.303 0 0 0-.229-.05l-.23.045-.24-1.288a.908.908 0 0 1 .14-.675.887.887 0 0 1 1.241-.236c.196.135.33.342.374.577l.24 1.288-.229.044a.31.31 0 0 0-.115.555.302.302 0 0 0 .228.048l.529-.1a.303.303 0 0 0 .241-.24.31.31 0 0 0 .002-.119l-.297-1.59a1.52 1.52 0 0 0-.52-.887 1.496 1.496 0 0 0-.962-.347 4.87 4.87 0 0 1 .105-1.184c.123-.57.502-1.392.766-1.872l-.803.231c-.226.475-.458 1.045-.558 1.511a5.49 5.49 0 0 0-.114 1.444 1.51 1.51 0 0 0-.72.681 1.53 1.53 0 0 0-.146.984l.297 1.59z" fill="#676E87"/><path d="m16.092 22.055-1.182-.319a.201.201 0 0 1-.131-.11.206.206 0 0 1-.002-.172l1.01-2.25-2.031-.586-1.23 9.482h1.773l1.933-5.782a.207.207 0 0 0-.066-.226.203.203 0 0 0-.074-.037z" fill="#BEBEBE"/><path d="m13.894 28.1 1.934-5.782a.207.207 0 0 0-.066-.227.203.203 0 0 0-.074-.037l-1.183-.318a.2.2 0 0 1-.13-.11.206.206 0 0 1-.002-.173l1.254-2.795a.206.206 0 0 0-.157-.288l-2.049-.289-1.3 10.019h1.773z" fill="#CECECE"/><path d="m6.187 19.216 1.004 2.239a.206.206 0 0 1-.132.282l-1.183.319a.202.202 0 0 0-.15.18.207.207 0 0 0 .01.083l1.95 5.782h1.756l-1.189-9.48-2.066.595z" fill="#BEBEBE"/><path d="m8.091 28.1-1.95-5.781a.206.206 0 0 1 .14-.264l1.182-.318a.202.202 0 0 0 .131-.11.207.207 0 0 0 .002-.172l-1.254-2.796a.206.206 0 0 1 .157-.287l2.091-.29 1.256 10.019H8.091z" fill="#CECECE"/><path d="M14.527 11.831H7.462l-.29-2.894a1.369 1.369 0 0 1 .336-1.048 1.346 1.346 0 0 1 .996-.451h4.98a1.334 1.334 0 0 1 .996.45 1.36 1.36 0 0 1 .337 1.049l-.29 2.894z" fill="#676E87"/><path d="M13.487 7.438h-.812a1.335 1.335 0 0 1 .996.45 1.36 1.36 0 0 1 .337 1.048l-.29 2.895h.81l.291-2.895a1.368 1.368 0 0 0-.336-1.048 1.345 1.345 0 0 0-.996-.45z" fill="#595F74"/><path d="M14.611 14.457h-.49l.406-2.625h.084c.344 0 .674.138.917.383.243.246.38.578.38.925v.009a1.32 1.32 0 0 1-.38.925 1.295 1.295 0 0 1-.917.383z" fill="#FFCD85"/><path d="M7.38 14.457h.49l-.406-2.625H7.38a1.29 1.29 0 0 0-.916.383c-.243.246-.38.578-.38.925v.009c0 .347.137.68.38.925s.573.383.916.383zm4.708 3.72.541-.325.082-.05a1.234 1.234 0 0 1-.08-.435v-1.35H9.384v1.35c0 .152-.028.303-.083.445.02.014.042.027.063.04l.542.324a2.122 2.122 0 0 0 2.182 0z" fill="#FFC166"/><path d="M13.522 10.48c.267 0 .524.109.712.3.188.191.294.45.293.72v2.567c0 .68-.174 1.35-.507 1.942a3.907 3.907 0 0 1-1.393 1.435l-.542.324a2.122 2.122 0 0 1-2.181 0l-.542-.324a3.908 3.908 0 0 1-1.393-1.435 3.952 3.952 0 0 1-.507-1.942V11.5c0-.27.104-.529.293-.72.188-.191.444-.3.712-.3h5.055z" fill="#FFCD85"/><path d="M13.524 10.48h-.811c.267 0 .523.109.712.3.188.191.293.45.292.72v2.567c.001.68-.174 1.35-.507 1.942a3.908 3.908 0 0 1-1.393 1.435l-.541.324a2.127 2.127 0 0 1-.685.262 2.12 2.12 0 0 0 1.497-.262l.541-.324a3.907 3.907 0 0 0 1.393-1.435 3.952 3.952 0 0 0 .507-1.942V11.5c.001-.27-.104-.529-.293-.72a1.004 1.004 0 0 0-.712-.3z" fill="#FFC166"/></g><defs><clipPath id="a"><path fill="#fff" transform="translate(16.395 .424)" d="M0 0h22.444v22.646H0z"/></clipPath><clipPath id="b"><path fill="#fff" transform="translate(.604 7.133)" d="M0 0h20.781v20.969H0z"/></clipPath></defs></svg>