<svg width="37" height="37" viewBox="0 0 37 37" fill="none" xmlns="http://www.w3.org/2000/svg">
<path d="M14.5651 28.6593C17.3818 28.6593 19.6653 24.1124 19.6653 18.5035C19.6653 12.8946 17.3818 8.34766 14.5651 8.34766C11.7483 8.34766 9.46484 12.8946 9.46484 18.5035C9.46484 24.1124 11.7483 28.6593 14.5651 28.6593Z" fill="#7C8191"/>
<path d="M14.5642 28.9113C11.6112 28.9113 9.20898 24.2421 9.20898 18.5015C9.20898 12.7609 11.6112 8.0918 14.5642 8.0918C17.5172 8.0918 19.9194 12.7609 19.9194 18.5015C19.9194 24.2421 17.5172 28.9113 14.5642 28.9113ZM14.5642 8.59959C11.8917 8.59959 9.71901 13.0428 9.71901 18.5015C9.71901 23.9603 11.8917 28.4035 14.5642 28.4035C17.2367 28.4035 19.4094 23.9603 19.4094 18.5015C19.4094 13.0428 17.2367 8.59959 14.5642 8.59959Z" fill="#4F565C"/>
<path d="M18.3886 18.4977C18.3886 19.5819 18.2738 20.6102 18.0698 21.5445C17.9933 21.8974 17.9015 22.2376 17.7995 22.5601C17.1212 24.6953 15.9252 26.1146 14.5634 26.1146C13.2017 26.1146 12.0057 24.6953 11.3274 22.5601C11.2254 22.2376 11.1335 21.8974 11.057 21.5445C10.853 20.6102 10.7383 19.5819 10.7383 18.4977C10.7383 14.2907 12.452 10.8809 14.5634 10.8809C16.6749 10.8809 18.3886 14.2907 18.3886 18.4977Z" fill="#FAFFF5"/>
<path d="M14.5626 26.3705C13.1269 26.3705 11.8263 24.9766 11.0842 22.6382C10.9746 22.2954 10.8828 21.9451 10.8088 21.5998C10.5921 20.6146 10.4824 19.5711 10.4824 18.4997C10.4824 14.087 12.2751 10.6289 14.5626 10.6289C16.85 10.6289 18.6428 14.087 18.6428 18.4997C18.6428 19.5711 18.5331 20.6146 18.3189 21.5998C18.2449 21.9451 18.1506 22.2954 18.0435 22.6382C17.2989 24.9766 15.9983 26.3705 14.5626 26.3705ZM14.5626 11.1367C12.6271 11.1367 10.9924 14.5084 10.9924 18.4997C10.9924 19.5356 11.097 20.541 11.3061 21.4931C11.3775 21.8257 11.4668 22.1583 11.5713 22.4859C12.2318 24.5678 13.3793 25.8627 14.5626 25.8627C15.7458 25.8627 16.8934 24.5678 17.5564 22.4859C17.661 22.1583 17.7477 21.8257 17.8216 21.4931C18.0282 20.541 18.1327 19.5356 18.1327 18.4997C18.1327 14.5084 16.4981 11.1367 14.5626 11.1367Z" fill="#231F20"/>
<path d="M34.7108 21.543V22.5586H11.3289C11.2269 22.2361 11.1351 21.8959 11.0586 21.543H34.7108Z" fill="#F2F2F3"/>
<path d="M34.7096 22.8144H11.3277C11.2155 22.8144 11.1186 22.7433 11.0854 22.6367C10.9758 22.2939 10.884 21.9435 10.81 21.5982C10.7947 21.5221 10.8126 21.4459 10.861 21.385C10.9095 21.324 10.9834 21.291 11.0599 21.291H34.7096C34.8499 21.291 34.9646 21.4053 34.9646 21.5449V22.5605C34.9646 22.7001 34.8499 22.8144 34.7096 22.8144ZM11.5164 22.3066H34.4546V21.7988H11.3787C11.4195 21.9689 11.4654 22.139 11.5164 22.3066Z" fill="#231F20"/>
<path d="M32.9197 22.5645H21.6992V27.6424H32.9197V22.5645Z" fill="#4F565C"/>
<path d="M9.68855 23.5781H5.83789V28.656H14.5644C12.4809 28.656 10.6627 26.6122 9.68855 23.5781Z" fill="#4F565C"/>
<path d="M14.5655 28.9099H5.839C5.69874 28.9099 5.58398 28.7957 5.58398 28.656V23.5781C5.58398 23.4385 5.69874 23.3242 5.839 23.3242H9.68966C9.80186 23.3242 9.89877 23.3953 9.93192 23.5019C10.9035 26.5233 12.6784 28.4021 14.5655 28.4021C14.7057 28.4021 14.8205 28.5164 14.8205 28.656C14.8205 28.7957 14.7057 28.9099 14.5655 28.9099ZM6.09401 28.4021H12.7472C11.4033 27.6328 10.2405 26.0231 9.5035 23.832H6.09401V28.4021Z" fill="#231F20"/>
<path d="M25.2745 27.6406H23.2344V28.6562H25.2745V27.6406Z" fill="#4F565C"/>
<path d="M25.2756 28.9101H23.2355C23.0952 28.9101 22.9805 28.7958 22.9805 28.6562V27.6406C22.9805 27.501 23.0952 27.3867 23.2355 27.3867H25.2756C25.4158 27.3867 25.5306 27.501 25.5306 27.6406V28.6562C25.5306 28.7958 25.4158 28.9101 25.2756 28.9101ZM23.4905 28.4023H25.0206V27.8945H23.4905V28.4023Z" fill="#231F20"/>
<path d="M31.3916 27.6406H29.3516V28.6562H31.3916V27.6406Z" fill="#4F565C"/>
<path d="M31.3928 28.9101H29.3527C29.2124 28.9101 29.0977 28.7958 29.0977 28.6562V27.6406C29.0977 27.501 29.2124 27.3867 29.3527 27.3867H31.3928C31.533 27.3867 31.6478 27.501 31.6478 27.6406V28.6562C31.6478 28.7958 31.533 28.9101 31.3928 28.9101ZM29.6077 28.4023H31.1377V27.8945H29.6077V28.4023Z" fill="#231F20"/>
<path d="M4.10649 18.5016C4.10649 17.3946 4.19574 16.3282 4.3615 15.3304C4.79502 12.7051 5.74876 10.5546 6.98301 9.36133H6.43984C4.50176 9.36133 2.85949 11.8698 2.28572 15.3482C2.14291 16.2038 2.06641 17.1179 2.06641 18.0674C2.06641 19.017 2.14291 19.931 2.28572 20.7867C2.53053 22.2719 2.97169 23.582 3.54802 24.5951H5.12908C4.79757 23.7192 4.53746 22.7366 4.3615 21.6728C4.19574 20.6749 4.10649 19.6086 4.10649 18.5016Z" fill="#F2F2F3"/>
<path d="M5.13019 24.849H3.54912C3.45732 24.849 3.37317 24.8007 3.32726 24.7195C2.72799 23.6684 2.27917 22.3202 2.03436 20.8247C1.88645 19.9386 1.8125 19.0119 1.8125 18.0674C1.8125 17.1229 1.88645 16.1937 2.03436 15.3076C2.64638 11.5981 4.41616 9.10742 6.43839 9.10742H6.98157C7.08612 9.10742 7.17792 9.1709 7.21873 9.26484C7.25698 9.36132 7.23403 9.47049 7.16007 9.54158C5.96152 10.7019 5.03328 12.8245 4.61252 15.3685C4.44676 16.3765 4.36261 17.4301 4.36261 18.5016C4.36261 19.573 4.44676 20.6267 4.61507 21.6321C4.78592 22.6629 5.03839 23.6303 5.3699 24.5062C5.4005 24.5849 5.38775 24.6713 5.34185 24.7398C5.29085 24.8084 5.21434 24.849 5.13019 24.849ZM3.69958 24.3412H4.76552C4.48246 23.5262 4.26315 22.6452 4.11015 21.7134C3.93929 20.6825 3.85259 19.6009 3.85259 18.5016C3.85259 17.4022 3.93929 16.3206 4.11015 15.2898C4.49776 12.9286 5.32145 10.9025 6.40014 9.61521C4.67882 9.65076 3.09265 12.0145 2.53673 15.3888C2.39392 16.2495 2.32252 17.1483 2.32252 18.0674C2.32252 18.984 2.39392 19.8853 2.53673 20.7435C2.76369 22.1196 3.16406 23.3611 3.69958 24.3412Z" fill="#231F20"/>
<path d="M5.83432 24.5977H3.54688V28.66H5.83432V24.5977Z" fill="#4F565C"/>
<path d="M5.83543 28.9139H3.54798C3.40772 28.9139 3.29297 28.7996 3.29297 28.66V24.5976C3.29297 24.458 3.40772 24.3438 3.54798 24.3438H5.83543C5.97568 24.3438 6.09044 24.458 6.09044 24.5976V28.66C6.09044 28.7996 5.97568 28.9139 5.83543 28.9139ZM3.80299 28.4061H5.58041V24.8515H3.80299V28.4061Z" fill="#231F20"/>
<path d="M9.20959 8.34766C6.94764 8.34766 5.03251 11.2751 4.36439 15.3323C4.19863 16.3301 4.10938 17.3965 4.10938 18.5035C4.10938 19.6105 4.19863 20.6769 4.36439 21.6747C4.65 23.4113 5.16512 24.9398 5.83835 26.1204H11.1936C10.1327 24.2593 9.4646 21.5376 9.4646 18.5035C9.4646 14.8499 10.4336 11.6483 11.8872 9.85834C12.665 8.90115 13.583 8.34766 14.5648 8.34766H9.20959Z" fill="#F2F2F3"/>
<path d="M32.9268 22.5645H30.8867V27.6424H32.9268V22.5645Z" fill="#6D717F"/>
<path d="M32.9208 27.8943H21.7003C21.5601 27.8943 21.4453 27.7801 21.4453 27.6404V22.5625C21.4453 22.4228 21.5601 22.3086 21.7003 22.3086H32.9208C33.061 22.3086 33.1758 22.4228 33.1758 22.5625V27.6404C33.1758 27.7801 33.061 27.8943 32.9208 27.8943ZM21.9553 27.3865H32.6658V22.8164H21.9553V27.3865Z" fill="#231F20"/>
<path d="M23.5721 26.3688C23.4318 26.3688 23.3171 26.2546 23.3171 26.1149V24.1269C23.3171 23.9873 23.4318 23.873 23.5721 23.873C23.7123 23.873 23.8271 23.9873 23.8271 24.1269V26.1149C23.8271 26.2546 23.7149 26.3688 23.5721 26.3688ZM4.66559 27.8719C4.57124 27.8719 4.49219 27.7957 4.49219 27.6993V26.3511C4.49219 26.2571 4.56869 26.1784 4.66559 26.1784C4.75995 26.1784 4.839 26.2546 4.839 26.3511V27.6993C4.839 27.7932 4.7625 27.8719 4.66559 27.8719Z" fill="white"/>
<path d="M12.9635 8.34766C11.9817 8.34766 11.0637 8.90115 10.2859 9.85834C8.83232 11.6483 7.86328 14.8499 7.86328 18.5035C7.86328 21.5376 8.53141 24.2593 9.59225 26.1204H11.1937C10.1329 24.2593 9.46475 21.5376 9.46475 18.5035C9.46475 14.8499 10.4338 11.6483 11.8873 9.85834C12.6651 8.90115 13.5832 8.34766 14.565 8.34766H12.9635Z" fill="#D4D4D5"/>
<path d="M11.1888 26.3723H5.83359C5.74179 26.3723 5.65763 26.3241 5.61173 26.2428C4.913 25.0191 4.39533 23.4525 4.10717 21.7133C3.93631 20.6825 3.84961 19.6009 3.84961 18.5015C3.84961 17.4022 3.93631 16.3206 4.10717 15.2898C4.8161 10.9837 6.86639 8.0918 9.20483 8.0918H14.5601C14.7003 8.0918 14.8151 8.20605 14.8151 8.34569C14.8151 8.48534 14.7003 8.59959 14.5601 8.59959C13.6905 8.59959 12.8336 9.08961 12.0814 10.0163C10.5997 11.8393 9.71485 15.013 9.71485 18.5015C9.71485 21.3731 10.332 24.1025 11.4107 25.994C11.4566 26.0727 11.454 26.1692 11.4081 26.2479C11.3622 26.3266 11.2806 26.3723 11.1888 26.3723ZM5.98405 25.8645H10.7629C9.76841 23.9248 9.20483 21.2715 9.20483 18.5015C9.20483 14.8988 10.1305 11.6083 11.6835 9.69642C12.061 9.23179 12.4664 8.86364 12.8897 8.59959H9.20483C7.1571 8.59959 5.26747 11.3848 4.61209 15.371C4.44378 16.3764 4.35963 17.4301 4.35963 18.5015C4.35963 19.573 4.44378 20.6266 4.61209 21.6321C4.8773 23.2519 5.35162 24.7118 5.98405 25.8645Z" fill="#231F20"/>
<path d="M15.5084 10.2732C15.46 10.2732 15.409 10.2605 15.3656 10.23C14.3277 9.53691 13.4199 10.1945 13.3816 10.2224C13.2694 10.3062 13.1088 10.2834 13.0246 10.1716C12.9405 10.0599 12.9609 9.90252 13.0731 9.81619C13.4938 9.49882 14.5725 9.08751 15.6487 9.80858C15.766 9.88728 15.7966 10.0447 15.7175 10.1615C15.6716 10.2326 15.59 10.2732 15.5084 10.2732ZM6.10873 19.2154C5.98633 19.2154 5.87668 19.1266 5.85627 18.9996C5.1652 14.6224 6.72076 12.6598 6.78961 12.5786C6.87887 12.4694 7.03952 12.4542 7.14918 12.543C7.25883 12.6319 7.27413 12.7919 7.18743 12.8985C7.16448 12.9264 5.71347 14.7976 6.36375 18.9209C6.3867 19.0605 6.28979 19.19 6.15209 19.2103C6.13679 19.2154 6.12149 19.2154 6.10873 19.2154Z" fill="white"/>
</svg>
