<svg width="62" height="69" viewBox="0 0 62 69" fill="none" xmlns="http://www.w3.org/2000/svg">
<path d="M46.5346 17.543H44.2272V25.2346H46.5346C47.8422 25.2346 48.919 24.3885 48.919 23.2347V19.4659C48.919 18.389 47.8422 17.543 46.5346 17.543ZM12.4609 19.4659V23.2347C12.4609 24.3116 13.5378 25.2346 14.8453 25.2346H17.1528V17.543H14.8453C13.5378 17.543 12.4609 18.389 12.4609 19.4659Z" fill="#434A4F"/>
<path d="M61.3788 68.9985H0V51.9232C0 48.0005 2.84588 44.4623 7.07626 43.1548L24.7669 37.7706C28.6896 36.54 32.8431 36.54 36.6889 37.7706L54.3795 43.1548C58.6099 44.4623 61.4557 48.0005 61.4557 51.9232V68.9985H61.3788Z" fill="#F1F1F1"/>
<path d="M44.9954 55.3867H34.7656V57.6173H44.9954V55.3867Z" fill="#B31F86"/>
<path d="M37.1472 27.0039H24.1484V45.0791H37.1472V27.0039Z" fill="#EDBF9A"/>
<path d="M45.4576 18.0805C45.4576 28.0796 38.8428 38.2325 30.6897 38.2325C22.5366 38.2325 15.9219 28.0027 15.9219 18.0805C15.9219 8.15838 22.5366 2.08203 30.6897 2.08203C38.8428 2.08203 45.4576 8.08147 45.4576 18.0805Z" fill="#FFD9B6"/>
<path d="M37.2258 39.0804L30.6879 44.926L24.1501 39.0804L23.2271 38.2344L16.3047 40.3111L26.6114 49.6179L30.6879 45.0799L34.7645 49.6179L45.0712 40.3111L38.1488 38.2344L37.2258 39.0804Z" fill="#B31F86"/>
<path d="M36.6102 31.541C35.5334 31.541 35.3026 31.541 33.9951 31.4641H32.6875V30.4642H33.9951C39.9176 30.618 41.9174 30.6949 43.7634 29.1566C45.6863 27.6183 45.3017 23.6187 45.3017 23.5418L46.3016 23.4648C46.3016 23.6187 46.7631 28.0029 44.3787 29.9258C42.6866 31.3103 40.456 31.541 36.6102 31.541Z" fill="#434A4F"/>
<path d="M35.1486 32.6965H31.6105C31.0721 32.6965 30.6875 32.235 30.6875 31.7735V30.466C30.6875 29.9275 31.149 29.543 31.6105 29.543H35.1486C35.687 29.543 36.0716 30.0045 36.0716 30.466V31.7735C36.1485 32.235 35.687 32.6965 35.1486 32.6965Z" fill="#B31F86"/>
<path d="M45.4562 8.62098C45.4562 4.08295 43.1488 3.8522 43.1488 3.8522L39.5337 3.39071C38.8415 3.31379 38.3031 2.77538 38.2262 2.08314C37.7647 -0.224339 36.0725 0.00640972 36.0725 0.00640972C36.0725 0.00640972 24.0736 0.00640946 20.3048 1.46781C15.9206 3.15996 14.8438 6.23659 14.8438 8.6979C14.8438 13.7743 16.1513 22.9273 16.9205 25.0041C17.0743 25.4655 17.8435 25.3886 17.8435 24.8502V18.0047C17.8435 17.5432 18.228 17.2356 18.6126 17.2356H35.3034C35.7649 17.2356 36.0725 16.851 36.0725 16.4664V14.8512C36.0725 14.3897 36.4571 14.082 36.8417 14.082C37.2263 14.082 37.6108 14.4666 37.6108 14.8512V16.4664C37.6108 16.9279 37.9954 17.2356 38.38 17.2356H42.6873C43.1488 17.2356 43.4564 17.6201 43.4564 18.0047V24.5426C43.4564 25.081 44.2256 25.1579 44.3794 24.6964C44.9948 22.5427 45.3024 20.3122 45.3024 18.0816C45.4562 17.3125 45.4562 11.2361 45.4562 8.62098Z" fill="#434A4F"/>
</svg>
