<svg width="38" height="37" viewBox="0 0 38 37" fill="none" xmlns="http://www.w3.org/2000/svg">
<g clip-path="url(#clip0_8969_1141)">
<path d="M19.0028 28.1534L32.5953 14.5608C35.6632 11.493 35.6632 6.51908 32.5953 3.45126C29.5275 0.383435 24.5536 0.383435 21.4858 3.45126L19.0028 5.93423L16.5198 3.45126C13.452 0.383435 8.47807 0.383435 5.41024 3.45126C2.34242 6.51908 2.34242 11.493 5.41024 14.5608L19.0028 28.1534Z" fill="#E8C8F0"/>
<path d="M9.59853 19.6032C8.83122 18.8358 7.58728 18.8358 6.81996 19.6032C6.05265 20.3705 6.05265 21.6144 6.81996 22.3817L5.32381 20.8856V13.0886C5.32381 12.0405 4.502 11.1545 3.45426 11.1257C2.3672 11.0959 1.47656 11.9682 1.47656 13.0486V22.738C1.47657 23.1159 1.62669 23.4783 1.89392 23.7455L8.81483 30.6664V36.2033H15.9394V27.1245C15.9394 26.7502 15.8657 26.3796 15.7224 26.0339C15.5792 25.6881 15.3693 25.374 15.1047 25.1094L9.59853 19.6032Z" fill="#FFC9A2"/>
<path d="M6.81731 22.3808L11.5907 27.1542L12.3032 26.4418L6.31652 20.4551C6.12922 21.1177 6.29579 21.8593 6.81731 22.3808Z" fill="#FCB98B"/>
<path d="M28.4033 19.5953C29.1706 18.828 30.4146 18.828 31.1819 19.5953C31.9492 20.3627 31.9492 21.6066 31.1819 22.3739L32.6781 20.8778V13.0808C32.6781 12.0327 33.4999 11.1466 34.5476 11.1179C35.6347 11.0881 36.5253 11.9604 36.5253 13.0408V22.7301C36.5253 23.108 36.3752 23.4705 36.1079 23.7377L29.187 30.6586V36.1955H22.0625V27.1166C22.0625 26.7424 22.1362 26.3718 22.2794 26.0261C22.4226 25.6803 22.6326 25.3662 22.8972 25.1015L28.4033 19.5953Z" fill="#FFC9A2"/>
<path d="M31.1812 22.3808L26.4078 27.1542L25.6953 26.4418L31.682 20.4551C31.8693 21.1177 31.7027 21.8593 31.1812 22.3808Z" fill="#FCB98B"/>
<path d="M13.5907 6.25586C11.311 6.25586 9.46289 8.10389 9.46289 10.3837V11.7863H9.86365V14.5515C9.86365 16.6099 11.5323 18.2785 13.5906 18.2785C15.649 18.2785 17.3176 16.6099 17.3176 14.5515V11.7863H17.7184V10.3836C17.7184 8.10396 15.8704 6.25586 13.5907 6.25586Z" fill="#FFD3B3"/>
<path d="M17.7216 14.35C18.4298 14.35 19.004 13.7758 19.004 13.0676C19.004 12.3593 18.4298 11.7852 17.7216 11.7852H17.3208V14.35H17.7216ZM9.46601 14.35C8.75776 14.35 8.18359 13.7758 8.18359 13.0676C8.18359 12.3593 8.75776 11.7852 9.46601 11.7852H9.86677V14.35H9.46601Z" fill="#FCB98B"/>
<path d="M16.302 7.26758C16.8105 9.10991 15.5828 10.5048 15.5828 10.5048C15.5828 10.5048 15.652 11.2266 16.4076 11.4537L16.768 13.0602H17.3146V11.7783H17.7152V10.3762C17.7152 9.13613 17.168 8.02392 16.302 7.26758ZM10.876 7.26758C10.3676 9.10991 11.5953 10.5048 11.5953 10.5048C11.5953 10.5048 11.526 11.2266 10.7705 11.4537L10.41 13.0602H9.8635V11.7783H9.46289V10.3762C9.46289 9.13613 10.0101 8.02392 10.876 7.26758Z" fill="#EDEFF1"/>
<path d="M24.4066 11.2546C26.2276 11.2546 27.7038 9.7784 27.7038 7.95739C27.7038 6.13638 26.2276 4.66016 24.4066 4.66016C22.5856 4.66016 21.1094 6.13638 21.1094 7.95739C21.1094 9.7784 22.5856 11.2546 24.4066 11.2546Z" fill="#D3D3D3"/>
<path d="M24.4146 18.2744C22.3562 18.2744 20.6875 16.6058 20.6875 14.5474V10.7188H28.1415V14.5474C28.1415 16.6058 26.4729 18.2744 24.4146 18.2744Z" fill="#FFD3B3"/>
<path d="M28.538 14.35C29.2462 14.35 29.8204 13.7758 29.8204 13.0676C29.8204 12.3593 29.2462 11.7852 28.538 11.7852H28.1372V14.35H28.538ZM20.2824 14.35C19.5742 14.35 19 13.7758 19 13.0676C19 12.3593 19.5742 11.7852 20.2824 11.7852H20.6832V14.35H20.2824Z" fill="#FCB98B"/>
<path d="M24.4129 10.7229C24.4129 10.7229 25.3426 13.0687 28.1399 13.0687V11.7863H28.5406V10.3836C28.5406 8.10389 26.6926 6.25586 24.4129 6.25586C22.1332 6.25586 20.2852 8.10389 20.2852 10.3836V11.7863H20.6859V13.0687C23.4831 13.0687 24.4129 10.7229 24.4129 10.7229Z" fill="#EDEFF1"/>
</g>
<defs>
<clipPath id="clip0_8969_1141">
<rect width="36.4776" height="36.4776" fill="white" transform="translate(0.761719 0.433594)"/>
</clipPath>
</defs>
</svg>
