<svg width="363" height="446" viewBox="0 0 363 446" fill="none" xmlns="http://www.w3.org/2000/svg">
<g opacity="0.2">
<path d="M296.846 180.609C293.875 180.609 291.084 181.374 288.651 182.722C266.715 228.745 275.107 253.119 313.827 255.845V197.613C313.827 188.226 306.225 180.609 296.846 180.609ZM351.514 251.969C349.772 251.367 347.977 251.079 346.2 251.079C341.623 251.079 337.162 253.003 333.967 256.501C330.566 260.224 327.577 264.108 325.001 268.164L195.291 295.562C195.291 295.562 191.674 332.753 198.881 352.4C202.929 363.433 209.966 372.281 215.369 377.919C220.126 382.892 222.809 389.492 222.809 396.38V445.979H306.952V401.379C306.952 391.803 312.131 383.036 320.415 378.252C326.993 374.458 334.533 368.649 339.496 360.259C349.997 342.527 344.854 318.564 348.642 301.812C350.347 294.276 355.427 284.331 360.336 275.897C365.578 266.905 361.35 255.359 351.514 251.969ZM167.307 295.562L37.5971 268.164C35.0212 264.108 32.0325 260.224 28.6309 256.501C24.1882 251.637 17.3132 249.82 11.0844 251.969C4.14654 254.361 0 260.808 0 267.561C0 270.376 0.718016 273.253 2.26175 275.897C7.17118 284.331 12.2511 294.276 13.9564 301.812C17.744 318.564 12.6012 342.527 23.1022 360.259C28.0654 368.649 35.6046 374.458 42.1834 378.252C50.4675 383.036 55.6462 391.803 55.6462 401.379V445.979H139.789V396.38C139.789 389.492 142.472 382.892 147.229 377.919C152.632 372.281 159.669 363.433 163.717 352.4C170.924 332.753 167.307 295.562 167.307 295.562ZM65.7523 180.609C56.3732 180.609 48.7712 188.226 48.7712 197.613V255.845C81.9409 257.141 94.359 236.938 73.9467 182.722C71.5144 181.374 68.7231 180.609 65.7523 180.609Z" fill="#FEC4B9"/>
<path d="M240.928 7.6971C224.126 5.70089 211.911 15.4032 211.911 15.4032C211.911 15.4032 203.465 0 181.315 0C159.164 0 150.718 15.4032 150.718 15.4032C150.718 15.4032 138.503 5.70089 121.701 7.6971C104.9 9.69331 97.8633 24.7458 97.8633 24.7458C128.37 32.9105 144.831 48.5295 147.254 71.6118H215.376C217.799 48.5295 234.259 32.9105 264.766 24.7458C264.766 24.7458 257.73 9.69331 240.928 7.6971Z" fill="#F1C27D"/>
<path d="M215.384 71.6096C215.384 71.6006 215.384 71.6006 215.384 71.5916C215.079 67.2125 212.001 45.3711 181.323 45.3711C150.646 45.3711 147.568 67.2125 147.262 71.5916C147.262 71.6006 147.262 71.6006 147.262 71.6096C147.227 72.0951 147.227 72.3559 147.227 72.3559H215.42C215.42 72.3559 215.42 72.0951 215.384 71.6096Z" fill="#604533"/>
<path d="M215.375 72.3843C209.649 67.0431 199.444 62.2773 181.278 62.2773C163.113 62.2773 152.908 67.0431 147.182 72.3843C139.84 79.2451 139.84 87.0591 139.84 87.0591H222.717C222.717 87.0591 222.717 79.2451 215.375 72.3843Z" fill="#543927"/>
<path d="M313.831 255.846C309.433 251.665 304.793 247.133 301.078 241.189C295.36 232.044 293.52 208.207 288.656 182.724C284.554 161.224 278.298 138.537 265.751 122.523C251.328 104.107 237.318 93.218 222.742 87.0315C209.62 81.4655 196.05 79.7031 181.303 79.7031C166.557 79.7031 152.987 81.4655 139.865 87.0315C125.289 93.218 111.279 104.107 96.8558 122.523C84.3085 138.537 78.0528 161.224 73.9511 182.724C69.0866 208.207 67.2466 232.044 61.5294 241.189C57.8137 247.133 53.1735 251.665 48.7757 255.846C44.4496 259.964 40.3569 263.732 37.6016 268.165C43.1482 276.878 46.8191 286.338 48.7757 296.472C48.7757 296.472 61.9244 295.402 70.5675 302.038C77.8105 302.478 86.1664 302.604 95.698 302.604C128.781 302.604 148.041 297.524 167.311 295.564C171.915 295.096 176.511 294.808 181.303 294.808C186.096 294.808 190.692 295.096 195.296 295.564C214.566 297.524 233.826 302.604 266.909 302.604C276.441 302.604 284.796 302.478 292.039 302.038C300.683 295.402 313.831 296.472 313.831 296.472C315.788 286.338 319.459 276.878 325.005 268.165C322.25 263.732 318.157 259.964 313.831 255.846Z" fill="#F1C27D"/>
<path d="M313.831 255.84C309.433 251.658 304.793 247.126 301.078 241.183C295.36 232.038 293.52 208.2 288.656 182.717C284.554 161.217 278.298 138.531 265.751 122.516C256.866 111.168 248.142 102.689 239.337 96.3945C276.755 158.322 284.662 283.742 207.879 273.599C131.751 263.555 77.3348 287.554 76.4103 287.968C70.5405 281.844 63.6386 280.001 63.6386 280.001C59.3305 266.576 45.0241 259.436 45.0241 259.436L45.0151 259.427C42.143 262.251 39.5402 265.038 37.6016 268.158C43.1482 276.872 46.8191 286.331 48.7757 296.465C48.7757 296.465 61.9244 295.395 70.5675 302.031C74.6422 302.283 79.058 302.427 83.8508 302.508C87.5755 302.58 91.5246 302.598 95.698 302.598C128.781 302.598 148.041 297.517 167.311 295.557C171.915 295.089 176.511 294.802 181.303 294.802C186.096 294.802 190.692 295.089 195.296 295.557C214.566 297.517 233.826 302.598 266.909 302.598C270.346 302.598 273.622 302.58 276.755 302.544C282.319 302.463 287.408 302.31 292.039 302.031C300.683 295.395 313.831 296.465 313.831 296.465C315.788 286.331 319.459 276.872 325.005 268.158C322.25 263.725 318.157 259.958 313.831 255.84Z" fill="#E2B67A"/>
<path d="M187.909 236.156C188.095 236.063 188.048 235.46 187.77 234.346C187.584 233.139 186.888 231.19 185.681 228.498C182.989 222.372 180.483 217.313 178.162 213.321C175.842 209.237 173.01 206.22 169.669 204.271C166.42 202.228 161.871 201.207 156.023 201.207H151.707V192.853C152.821 193.503 154.631 194.152 157.137 194.802C159.736 195.359 162.66 195.638 165.909 195.638C173.799 195.638 179.833 194.338 184.01 191.739C188.28 189.14 190.415 184.452 190.415 177.676V169.322C190.415 166.63 190.044 164.495 189.301 162.917C188.559 161.246 187.352 160.039 185.681 159.296C184.103 158.554 182.014 158.182 179.415 158.182H192.643C194.5 159.668 196.078 161.849 197.377 164.727C198.677 167.604 199.327 171.921 199.327 177.676C199.327 182.596 198.027 186.773 195.428 190.207C192.922 193.549 189.719 196.102 185.82 197.866C181.922 199.629 177.93 200.557 173.846 200.65C173.939 200.65 173.939 200.743 173.846 200.929C173.753 201.114 173.753 201.207 173.846 201.207C177.28 202.414 180.112 204.224 182.339 206.638C184.66 209.051 186.749 211.929 188.605 215.27C190.554 218.612 192.643 222.325 194.871 226.41C196.82 229.844 198.537 232.35 200.023 233.928C201.601 235.414 202.715 236.156 203.364 236.156H187.909ZM148.783 180.461C149.433 179.718 150.036 178.697 150.593 177.397C151.243 176.005 151.568 174.705 151.568 173.499H201.137C205.407 173.499 208.516 173.359 210.466 173.081C212.415 172.71 213.482 172.385 213.668 172.106C213.39 173.035 213.065 174.195 212.693 175.587C212.415 176.98 212.276 178.14 212.276 179.068H165.491C160.386 179.068 156.487 179.254 153.795 179.625C151.103 179.904 149.433 180.182 148.783 180.461ZM150.175 159.575C150.454 158.832 150.732 157.811 151.011 156.512C151.382 155.119 151.568 153.82 151.568 152.613H201.137C205.407 152.613 208.656 152.474 210.883 152.195C213.204 151.824 214.596 151.499 215.061 151.22C214.411 152.149 213.761 153.309 213.111 154.701C212.554 156.094 212.276 157.254 212.276 158.182H165.491C160.386 158.182 156.627 158.368 154.213 158.739C151.8 159.018 150.454 159.296 150.175 159.575Z" fill="black"/>
</g>
</svg>
