<svg width="63" height="51" viewBox="0 0 63 51" fill="none" xmlns="http://www.w3.org/2000/svg">
<path d="M48.0614 0H7.48162C3.36901 0 0 3.38985 0 7.49416V31.4511C0 35.3274 3.38418 38.7021 7.48162 38.7021H48.3042C52.4169 38.7021 55.7859 35.3122 55.7859 31.2079V7.49416C55.5431 3.38985 52.1589 0 48.0614 0Z" fill="#EBF0F3"/>
<path d="M25.3581 19.3501H8.45234C7.7239 19.3501 7.23828 18.8637 7.23828 18.1341C7.23828 17.4044 7.7239 16.918 8.45234 16.918H25.3581C26.0865 16.918 26.5721 17.4044 26.5721 18.1341C26.5569 18.8789 26.0713 19.3501 25.3581 19.3501ZM18.1041 31.4502H8.45234C7.7239 31.4502 7.23828 30.9638 7.23828 30.2342C7.23828 29.5045 7.7239 29.0181 8.45234 29.0181H18.1193C18.8477 29.0181 19.3333 29.5045 19.3333 30.2342C19.3333 30.9638 18.8325 31.4502 18.1041 31.4502ZM47.0897 19.3501H39.8509C39.1224 19.3501 38.6368 18.8637 38.6368 18.1341C38.6368 17.4044 39.1224 16.918 39.8509 16.918H47.0897C47.8181 16.918 48.3037 17.4044 48.3037 18.1341C48.3037 18.8789 47.8181 19.3501 47.0897 19.3501Z" fill="#D8D9DA"/>
<path d="M0 9.19531H55.7859V12.3419H0V9.19531Z" fill="#434A4F"/>
<path d="M49.3357 50.8758C56.6274 50.8758 62.5385 44.9547 62.5385 37.6508C62.5385 30.3468 56.6274 24.4258 49.3357 24.4258C42.0439 24.4258 36.1328 30.3468 36.1328 37.6508C36.1328 44.9547 42.0439 50.8758 49.3357 50.8758Z" fill="#B31F86"/>
<path d="M46.9072 43.579C46.6341 43.579 46.3609 43.4726 46.1485 43.275L41.8386 38.9579C41.4288 38.5475 41.4288 37.8634 41.8386 37.453C42.2483 37.0425 42.9312 37.0425 43.341 37.453L46.9072 41.0252L54.6468 33.2727C55.0566 32.8622 55.7395 32.8622 56.1492 33.2727C56.559 33.6831 56.559 34.3671 56.1492 34.7776L47.6509 43.2902C47.4536 43.4878 47.1804 43.579 46.9072 43.579Z" fill="#F1F1F3"/>
</svg>
