<svg width="38" height="36" fill="none" xmlns="http://www.w3.org/2000/svg"><g clip-path="url(#a)" stroke="#fff"><path d="M21.077 7.622c.188-.349.253-.695.253-1.028v-.001a5.383 5.383 0 0 0-.094-.853l-.004-.021a7.88 7.88 0 0 1-.112-.91v-.007m-.043 2.82-.44-.237.44.236v.001zm0 0a.654.654 0 0 1-.267.267c-.394.21-.802.305-1.2.339m0 0a2.964 2.964 0 0 1-.569-.075h.001a2.914 2.914 0 0 1-1.026-.46l.008-.057-.008.057a2.985 2.985 0 0 1-.096-.072l.104.015c.412.054.821.106 1.222.106.458 0 .909-.07 1.328-.294a.154.154 0 0 0 .063-.063c.143-.265.193-.527.193-.79a5.042 5.042 0 0 0-.09-.791 8.365 8.365 0 0 1-.12-1.002m-1.01 3.426a2.93 2.93 0 0 0 2.849-3.926c-.191.031-.386.07-.57.118-.317.083-.548.182-.676.28a.354.354 0 0 0-.093.094v.008m-1.51 3.426c-.122.01-.244.014-.364.014-.075 0-.15-.001-.224-.004a11.982 11.982 0 0 1-1.063-.106m2.66-3.33.377.004h.123v-.004m-.5 0c.002-.198.098-.352.289-.498m-.289.498h.5v-.006.006m-.211-.498-2.949 3.828m2.949-3.828c.417-.322 1.243-.475 1.857-.55.351.693.47 1.508.28 2.324l-2.137-1.774zm-2.95 3.828c-.08-.01-.16-.023-.237-.036m9.406 12.177.206.087c1.11.468 2.95 1.556 3.768 3.816.098.271.192.528.283.774l.123.33.353-.004c1.131-.015 2.614.224 3.854 1.313a5.788 5.788 0 0 0-5.02-.626 5.793 5.793 0 0 0-1.823 1.012l-3.093-9.02c.16-.1.305-.221.43-.36l.846 2.466.073.212zM24.227 15.53c-2.503-.006-4.208-1.11-5.367-2.246l-.001-.002a9.246 9.246 0 0 1-1.264-1.565m6.632 3.812-6.21-4.082m6.21 4.082c.146 0 .296-.003.45-.011l-.45.011zm-6.632-3.812.421-.27m-.42.27.42-.27m-.42.27a7.703 7.703 0 0 1-.3-.507v-.002a3.752 3.752 0 0 1-.07-.137m.79.376a7.207 7.207 0 0 1-.34-.593m-.45.217.002.006.448-.223m-.45.217-.002-.003.452-.214m-.45.217-.005-.009m.455-.208a1.031 1.031 0 0 1-.006-.012l-.005-.01a1.219 1.219 0 1 0-2.22 1.01m1.776-.78.003.006-.005-.009.001.001.001.002zm0 0-.005-.008-.006-.015a.719.719 0 0 0-1.31.592m0 0-.004-.007-.45.217m.453-.21.002.003-.456.207m.454-.21.001.003c.066.138.654 1.384 1.946 2.67h.001c1.312 1.313 3.436 2.663 6.363 2.664H24.228c.172 0 .346-.005.523-.014m-9.305-5.113.006.012c.074.157.692 1.462 2.043 2.805 1.379 1.38 3.623 2.81 6.716 2.81h.017c.181 0 .364-.006.548-.015m-.025-.5.025.5m-.025-.5.025.5m-.025-.5a.719.719 0 1 0-.073-1.435l.098 1.935M8.53 27.16l.16.474a4.04 4.04 0 0 0 2.595 7.653L8.529 27.16zm0 0 .16.474m-.16-.474.16.474m-.875 4.562a2.294 2.294 0 0 1 4.345-1.473l-4.345 1.473zm0 0a2.294 2.294 0 0 0 2.91 1.436m-2.91-1.436 2.91 1.436m.028-12.012v-9.49a.313.313 0 0 0-.314-.313H.813l9.939 9.803zm0 0c0 .173-.14.313-.314.313H.813A.313.313 0 0 1 .5 21.62v-9.49c0-.173.14-.313.313-.313l9.939 9.803zm-2.063 6.014a4.04 4.04 0 0 1 5.124 2.529m-5.124-2.53 5.124 2.53m0 0a4.04 4.04 0 0 1-2.529 5.123l2.529-5.123zm-3.09 3.469a2.293 2.293 0 0 0 1.436-2.909l-1.436 2.909zM30.2 15.498h.003l.005.002a.194.194 0 0 1 .05.04c.057.06.128.174.195.356.134.363.21.881.21 1.425 0 .545-.076 1.063-.21 1.425a1.066 1.066 0 0 1-.195.356.19.19 0 0 1-.05.041l-.007.002a1.824 1.824 0 0 1 0-3.647z"/><path d="M26.762 31.161H17.29l-.138-.278c-.878-1.77-1.176-3.569-1.275-4.73l-.034-.402.386-.118a.108.108 0 0 0 .078-.102v-1.677a.11.11 0 0 0-.11-.11H3.777a.11.11 0 0 0-.109.11v1.677c0 .06.05.11.11.11H4.588l-.281.688a33.021 33.021 0 0 0-1.074 3.02c-.274.929-.484 1.852-.55 2.64H4.209a5.763 5.763 0 0 1 .576-3.098 5.768 5.768 0 0 1 3.34-2.927 5.8 5.8 0 0 1 7.358 3.632l11.28 1.565zm0 0c-.014.276-.008.553.018.829H15.764a5.76 5.76 0 0 0-.281-2.394l11.28 1.565zM18.064 7.335c.412.054.81.104 1.183.103.412 0 .793-.06 1.143-.237m-2.326.134.066-.496m-.066.496.066-.496m-.066.496-2.274-3.82m2.34 3.324c.416.054.781.1 1.116.1.29 0 .536-.034.754-.113m-1.87.013c-.83-.11-1.313-.34-1.628-.657l-.355.352.355-.352c-.32-.321-.546-.813-.688-1.61a3.437 3.437 0 0 1-.024-1.058M20 6.826a.78.78 0 0 1-.058.153l.448.222M20 6.826c.057-.02.112-.044.165-.071l.225.446M20 6.826a.921.921 0 0 0 .026-.231v-.002c.001-.166-.03-.36-.08-.66a9.435 9.435 0 0 1-.127-1.048M20.39 7.2c.101-.204.136-.392.136-.605a4.446 4.446 0 0 0-.082-.718c-.049-.29-.104-.626-.126-1.025m-.5.032.001.005.499-.037m-.5.032V4.88l.5-.028m-.5.032-.002-.073v-.007c-.002-.518.289-.905.61-1.144m-.108 1.192a.82.82 0 0 1-.002-.05c-.001-.313.173-.566.41-.741.238-.18.545-.302.868-.395.354-.1.73-.163 1.054-.204a3.436 3.436 0 0 0-.108-.49m-2.114.688v.001l.3.4-.298-.402-.002.001zm0 0c.31-.232.684-.375 1.03-.474h.002c.367-.105.752-.171 1.082-.215m0 0A3.456 3.456 0 0 0 19.67.53a3.462 3.462 0 0 0-3.881 2.985m6.751-.542c.19-.025.363-.043.504-.056a3.958 3.958 0 0 0-.324-.813l-6.93 1.411m20.595 26.647a4.04 4.04 0 0 1-7.652 2.595l-.474.16.473-.16a4.04 4.04 0 1 1 7.653-2.595zm-5.998 2.034a2.294 2.294 0 1 0 4.344-1.473 2.294 2.294 0 0 0-4.345 1.473z"/></g><defs><clipPath id="a"><path fill="#fff" d="M0 0h37.486v36H0z"/></clipPath></defs></svg>