<svg width="38" height="36" fill="none" xmlns="http://www.w3.org/2000/svg"><g clip-path="url(#a)"><path d="M21.077 7.623c.188-.349.253-.695.253-1.028v-.001a5.383 5.383 0 0 0-.094-.853l-.004-.022a7.88 7.88 0 0 1-.112-.91v-.007m-.043 2.821-.44-.237.44.236v.001zm0 0a.654.654 0 0 1-.267.266c-.394.211-.802.306-1.2.34m0 0a2.97 2.97 0 0 1-.569-.075h.001a2.915 2.915 0 0 1-1.026-.46l.008-.057-.008.057a3.015 3.015 0 0 1-.096-.072l.104.015c.412.054.821.106 1.222.106.458 0 .909-.07 1.328-.295a.154.154 0 0 0 .063-.062c.143-.265.193-.527.193-.79a5.042 5.042 0 0 0-.09-.792 8.365 8.365 0 0 1-.12-1m-1.01 3.425a2.93 2.93 0 0 0 2.849-3.926c-.191.031-.386.07-.57.118-.317.083-.548.181-.676.28a.354.354 0 0 0-.093.094v.007M19.61 8.23c-.122.01-.244.014-.364.014-.075 0-.15-.002-.224-.005a11.986 11.986 0 0 1-1.063-.106m2.66-3.329.377.003.123.001v-.005m-.5.001c.002-.198.098-.352.289-.498m-.289.498h.5v-.006.005m-.211-.497-2.949 3.827m2.949-3.827c.417-.322 1.243-.475 1.857-.55.351.693.47 1.508.28 2.324l-2.137-1.774zm-2.95 3.827c-.08-.01-.16-.022-.237-.035m9.406 12.177.206.087c1.11.468 2.95 1.556 3.768 3.816.098.271.192.528.283.773l.123.331.353-.005c1.131-.015 2.614.225 3.854 1.313a5.788 5.788 0 0 0-5.02-.625 5.793 5.793 0 0 0-1.823 1.012l-3.093-9.02c.16-.1.305-.221.43-.36l.846 2.466.073.212z" stroke="url(#b)"/><path d="M24.227 15.528c-2.503-.005-4.208-1.109-5.367-2.246l-.001-.001a9.25 9.25 0 0 1-1.264-1.566m6.632 3.813-6.21-4.082m6.21 4.082c.146 0 .296-.004.45-.011l-.45.011zm-6.632-3.813.421-.269m-.42.27.42-.27m-.42.27a7.73 7.73 0 0 1-.3-.507v-.002a3.836 3.836 0 0 1-.07-.137m.79.376a7.207 7.207 0 0 1-.34-.594m-.45.218.002.006.448-.224m-.45.218-.002-.003.452-.215m-.45.218-.005-.009m.455-.209-.006-.011-.005-.01a1.219 1.219 0 1 0-2.22 1.009m1.776-.779.003.006-.005-.01.001.002.001.002zm0 0-.005-.009-.006-.014a.719.719 0 0 0-1.31.592m0 0-.004-.007-.45.217m.453-.21.002.003-.456.207m.454-.21.001.002c.066.139.654 1.385 1.946 2.67l.001.002c1.312 1.312 3.436 2.662 6.363 2.662H24.228c.172 0 .346-.005.523-.013m-9.305-5.113.006.012c.074.157.692 1.461 2.043 2.805 1.379 1.38 3.623 2.81 6.716 2.81h.017c.181 0 .364-.006.548-.015m-.025-.5.025.5m-.025-.5.025.5m-.025-.5a.72.72 0 0 0-.073-1.436l.098 1.936M8.53 27.159l.16.473a4.04 4.04 0 0 0 2.595 7.653l-2.755-8.126zm0 0 .16.473m-.16-.473.16.473m-.875 4.563a2.294 2.294 0 0 1 4.345-1.473l-4.345 1.473zm0 0a2.294 2.294 0 0 0 2.91 1.436m-2.91-1.436 2.91 1.436m.028-12.013v-9.49a.313.313 0 0 0-.314-.313H.813l9.939 9.803zm0 0c0 .174-.14.314-.314.314H.813a.313.313 0 0 1-.313-.313v-9.49c0-.173.14-.313.313-.313l9.939 9.802zm-2.063 6.014a4.04 4.04 0 0 1 5.124 2.53m-5.124-2.53 5.124 2.53m0 0a4.04 4.04 0 0 1-2.529 5.123l2.529-5.124zm-3.09 3.469a2.293 2.293 0 0 0 1.436-2.909l-1.436 2.909zM30.2 15.496h.003l.005.002a.192.192 0 0 1 .05.042c.057.06.128.173.195.355.134.363.21.881.21 1.425s-.076 1.062-.21 1.425a1.066 1.066 0 0 1-.195.356.192.192 0 0 1-.05.041l-.007.002a1.824 1.824 0 0 1 0-3.648z" stroke="url(#c)"/><path d="M26.76 31.161h-9.473l-.138-.278c-.878-1.77-1.176-3.569-1.275-4.73l-.034-.402.386-.118a.108.108 0 0 0 .078-.102v-1.677a.11.11 0 0 0-.11-.11H3.775a.11.11 0 0 0-.109.11v1.677c0 .06.05.11.11.11H4.586l-.281.688a33.018 33.018 0 0 0-1.074 3.02c-.274.929-.483 1.852-.55 2.64H4.207a5.763 5.763 0 0 1 .576-3.098 5.768 5.768 0 0 1 3.34-2.927 5.8 5.8 0 0 1 7.358 3.632l11.28 1.565zm0 0c-.014.276-.008.553.018.829H15.763a5.763 5.763 0 0 0-.282-2.394l11.28 1.565zM18.064 7.335c.411.054.809.104 1.182.103.412 0 .793-.06 1.143-.237m-2.325.134.065-.496m-.065.496.065-.496m-.065.496-2.275-3.82m2.34 3.324c.416.054.781.1 1.116.1h.001c.29 0 .535-.034.753-.113m-1.87.013c-.83-.11-1.313-.34-1.628-.657l-.355.352.355-.352c-.32-.321-.546-.813-.688-1.61a3.437 3.437 0 0 1-.024-1.058m4.21 3.312a.774.774 0 0 1-.058.153l.448.222m-.39-.375c.057-.02.112-.044.165-.071l.225.446m-.39-.375a.916.916 0 0 0 .026-.231v-.002c.001-.166-.03-.36-.08-.66a9.41 9.41 0 0 1-.127-1.048m.571 2.316c.101-.204.136-.392.136-.605.002-.21-.037-.445-.082-.718a9.096 9.096 0 0 1-.126-1.025m-.5.032.001.005.499-.037m-.5.032V4.88l.5-.028m-.5.032-.002-.073v-.007c-.002-.518.289-.905.61-1.144m-.108 1.192a.91.91 0 0 1-.002-.05c-.001-.313.173-.566.41-.741.238-.18.545-.302.869-.395.353-.1.73-.163 1.053-.204a3.422 3.422 0 0 0-.108-.49m-2.114.688v.001l.3.4-.298-.402-.002.001zm0 0c.31-.232.684-.375 1.03-.474h.002c.367-.105.752-.171 1.082-.215m0 0A3.456 3.456 0 0 0 19.668.53a3.463 3.463 0 0 0-3.881 2.985m6.751-.542c.19-.025.363-.043.504-.056a3.952 3.952 0 0 0-.324-.813l-6.93 1.411m20.595 26.647a4.04 4.04 0 1 1-7.653 2.595l-.473.16.473-.16a4.04 4.04 0 1 1 7.653-2.595zm-5.999 2.034a2.294 2.294 0 1 0 4.345-1.473 2.294 2.294 0 0 0-4.345 1.473z" stroke="url(#d)"/></g><defs><linearGradient id="b" x1="13.225" y1="3.755" x2="41.7" y2="21.444" gradientUnits="userSpaceOnUse"><stop stop-color="#007CBC"/><stop offset="1" stop-color="#B41E85"/></linearGradient><linearGradient id="c" x1="1.041" y1="10.116" x2="31.331" y2="33.919" gradientUnits="userSpaceOnUse"><stop stop-color="#007CBC"/><stop offset="1" stop-color="#B41E85"/></linearGradient><linearGradient id="d" x1="3.326" y1="0" x2="42.528" y2="24.836" gradientUnits="userSpaceOnUse"><stop stop-color="#007CBC"/><stop offset="1" stop-color="#B41E85"/></linearGradient><clipPath id="a"><path fill="#fff" d="M0 0h37.486v36H0z"/></clipPath></defs></svg>