<svg width="64" height="64" viewBox="0 0 64 64" fill="none" xmlns="http://www.w3.org/2000/svg">
<path d="M43.8016 20.7C43.2016 20.7 42.6016 21 42.3016 21.5C41.7016 21.5 41.2016 21.5 40.6016 21.5C39.9016 21.5 39.3016 21.8 39.0016 22.5C38.0016 24.6 36.9016 26.7 35.9016 28.8L35.2016 30.3C35.1016 30.4 35.1016 30.5 35.0016 30.6C35.0016 30.6 34.9016 30.5 34.9016 30.3C34.0016 27.5 32.2016 22.4 31.6016 20.5C31.4016 20 30.9016 19.6 30.3016 19.5C29.7016 19.5 29.2016 19.8 28.9016 20.3L28.8016 20.5C28.4016 21.3 28.0016 22.1 27.6016 22.8C27.4016 23.2 27.2016 23.6 27.0016 24C26.7016 24.6 26.4016 25.3 26.0016 25.9C26.0016 26 25.9016 26 25.9016 26.1C25.9016 26.1 25.9016 26 25.8016 25.9C25.4016 24.7 24.6016 22.3 24.3016 21.4C24.1016 21 23.8016 20.6 23.3016 20.5C22.8016 20.4 22.4016 20.6 22.0016 20.9C21.8016 21.1 21.7016 21.3 21.5016 21.4C21.4016 21.5 21.3016 21.5 21.2016 21.5C20.7016 21.5 20.1016 21.5 19.6016 21.5C19.5016 21.5 19.3016 21.5 19.2016 21.5C18.6016 21.5 18.1016 22 18.1016 22.6C18.1016 23.2 18.6016 23.7 19.2016 23.7C19.3016 23.7 19.5016 23.7 19.6016 23.7C20.2016 23.7 20.8016 23.7 21.4016 23.7C21.8016 23.7 22.2016 23.5 22.6016 23.3C23.0016 24.4 23.4016 25.7 23.7016 26.6C24.1016 27.8 25.0016 28.2 25.6016 28.2C26.6016 28.3 27.4016 27.8 27.9016 26.9C28.2016 26.3 28.5016 25.6 28.9016 25C29.1016 24.6 29.3016 24.2 29.5016 23.8C29.7016 23.5 29.8016 23.1 30.0016 22.8C30.8016 25.2 32.0016 28.8 32.7016 31C33.0016 32 33.7016 32.6 34.6016 32.7C34.7016 32.7 34.8016 32.7 34.9016 32.7C36.2016 32.7 36.8016 31.6 36.9016 31.3L37.6016 29.8C38.6016 27.8 39.6016 25.8 40.6016 23.7C41.1016 23.7 41.6016 23.7 42.1016 23.7C42.4016 24.2 43.0016 24.5 43.6016 24.5C44.6016 24.5 45.5016 23.7 45.5016 22.6C45.7016 21.6 44.9016 20.7 43.8016 20.7Z" fill="white"/>
<path d="M57.1008 47.4984C57.1008 37.2984 57.1008 27.0984 57.1008 16.8984C57.1008 11.3984 53.1008 7.49844 47.6008 7.49844H45.8008V10.8984V11.3984H46.3008C47.4008 11.3984 48.4008 11.2984 49.5008 11.6984C51.7008 12.4984 53.1008 14.3984 53.1008 16.9984V35.2984V44.4984C53.1008 45.4984 53.1008 46.3984 53.1008 47.3984C53.1008 49.5984 53.1008 51.7984 53.1008 54.0984C53.1008 55.5984 52.6008 56.8984 51.6008 57.9984C50.5008 59.0984 49.1008 59.6984 47.5008 59.6984C42.9008 59.6984 38.3008 59.6984 33.8008 59.6984H16.3008C13.0008 59.6984 10.7008 57.3984 10.7008 54.0984C10.7008 41.9984 10.7008 29.8984 10.7008 17.7984C10.7008 16.8984 10.7008 15.9984 11.0008 15.0984C11.7008 12.9984 13.2008 11.6984 15.4008 11.4984C16.0008 11.3984 16.8008 11.3984 17.6008 11.4984H18.1008V7.39844H15.9008C15.2008 7.39844 14.6008 7.49844 14.0008 7.59844C9.70078 8.59844 6.80078 12.1984 6.80078 16.5984V39.5984C6.80078 44.3984 6.80078 49.2984 6.80078 54.0984C6.80078 54.8984 6.90078 55.7984 7.20078 56.6984C8.00078 59.8984 11.2008 63.2984 16.0008 63.2984H16.2008C18.6008 63.2984 21.0008 63.2984 23.4008 63.2984C24.4008 63.2984 25.5008 63.2984 26.5008 63.2984H28.4008H37.8008C41.3008 63.2984 44.8008 63.2984 48.3008 63.2984C52.6008 63.2984 56.5008 59.5984 56.8008 55.2984C56.9008 53.2984 56.9008 51.1984 56.9008 49.1984L57.1008 47.4984Z" fill="white"/>
<path d="M43.8984 10.8992C43.8984 11.8992 43.4984 12.2992 42.4984 12.2992H21.4984C20.2984 12.2992 19.9984 11.8992 19.9984 10.6992C19.9984 9.79922 19.9984 8.39922 19.9984 7.49922C19.9984 6.69922 20.3984 6.29922 21.2984 6.19922C22.1984 6.19922 23.0984 6.19922 23.8984 6.09922C25.3984 5.79922 26.5984 4.89922 27.3984 3.59922C27.6984 3.09922 27.8984 2.69922 28.1984 2.19922C28.7984 1.19922 29.6984 0.699219 30.8984 0.699219C31.5984 0.699219 32.2984 0.699219 32.8984 0.699219C34.2984 0.699219 35.1984 1.29922 35.8984 2.49922C36.3984 3.39922 36.8984 4.29922 37.6984 4.99922C38.7984 6.09922 40.1984 6.39922 41.7984 6.39922C43.8984 6.29922 43.9984 6.49922 43.9984 8.49922C43.8984 9.09922 43.8984 10.1992 43.8984 10.8992ZM17.3984 40.5992C17.3984 41.5992 17.3984 42.5992 17.3984 43.5992C21.9984 43.5992 26.5984 43.5992 31.2984 43.5992C31.2984 42.5992 31.2984 41.6992 31.2984 40.5992C26.5984 40.5992 21.9984 40.5992 17.3984 40.5992ZM46.5984 43.5992C46.5984 42.5992 46.5984 41.5992 46.5984 40.5992C43.4984 40.5992 39.0984 40.5992 35.9984 40.5992C35.9984 41.5992 35.9984 42.4992 35.9984 43.5992C39.0984 43.5992 43.4984 43.5992 46.5984 43.5992ZM46.5984 49.2992C46.5984 50.2992 46.5984 51.2992 46.5984 52.2992C41.9984 52.2992 37.3984 52.2992 32.6984 52.2992C32.6984 51.2992 32.6984 50.3992 32.6984 49.2992C37.3984 49.2992 41.9984 49.2992 46.5984 49.2992ZM17.3984 52.2992C17.3984 51.2992 17.3984 50.2992 17.3984 49.2992C20.4984 49.2992 24.8984 49.2992 27.9984 49.2992C27.9984 50.2992 27.9984 51.1992 27.9984 52.2992C24.8984 52.2992 20.4984 52.2992 17.3984 52.2992Z" fill="white"/>
</svg>
