<svg width="60" height="60" viewBox="0 0 60 60" fill="none" xmlns="http://www.w3.org/2000/svg">
<path d="M56.25 35.625C56.25 34.3818 55.7561 33.1895 54.8771 32.3104C53.998 31.4314 52.8057 30.9375 51.5625 30.9375H45.9375C44.6943 30.9375 43.502 31.4314 42.6229 32.3104C41.7439 33.1895 41.25 34.3818 41.25 35.625V44.0625H56.25V35.625Z" fill="white"/>
<path d="M48.75 30.9375C51.08 30.9375 52.9688 29.0487 52.9688 26.7188C52.9688 24.3888 51.08 22.5 48.75 22.5C46.42 22.5 44.5312 24.3888 44.5312 26.7188C44.5312 29.0487 46.42 30.9375 48.75 30.9375Z" fill="white"/>
<path d="M9.375 45C11.705 45 13.5938 43.1112 13.5938 40.7812C13.5938 38.4513 11.705 36.5625 9.375 36.5625C7.04505 36.5625 5.15625 38.4513 5.15625 40.7812C5.15625 43.1112 7.04505 45 9.375 45Z" fill="white"/>
<path d="M16.875 49.6875C16.875 48.4443 16.3811 47.252 15.5021 46.3729C14.623 45.4939 13.4307 45 12.1875 45H6.5625C5.3193 45 4.12701 45.4939 3.24794 46.3729C2.36886 47.252 1.875 48.4443 1.875 49.6875V59.0625H16.875V49.6875ZM58.125 45.9375H17.5687C18.3365 47.0374 18.7487 48.3462 18.75 49.6875V58.125H58.125V45.9375ZM45 54.375L45.9375 48.75H51.5625L52.5 54.375H45ZM10.3125 19.6875H14.0625V15.9375H17.8125V12.1875H14.0625V8.4375H10.3125V12.1875H6.5625V15.9375H10.3125V19.6875ZM25.3125 8.4375H35.625V10.3125H25.3125V8.4375ZM21.5625 8.4375H23.4375V10.3125H21.5625V8.4375ZM25.3125 13.125H35.625V15H25.3125V13.125ZM21.5625 13.125H23.4375V15H21.5625V13.125ZM25.3125 17.8125H35.625V19.6875H25.3125V17.8125ZM21.5625 17.8125H23.4375V19.6875H21.5625V17.8125Z" fill="white"/>
<path d="M4.6875 27.1875H25.9031L32.2031 32.5875C32.3729 32.7327 32.5891 32.8125 32.8125 32.8125C32.9736 32.812 33.1318 32.77 33.2719 32.6906C33.4345 32.5988 33.566 32.4605 33.6495 32.2935C33.733 32.1265 33.7648 31.9383 33.7406 31.7531L32.9813 27.1875H36.5625C37.3084 27.1875 38.0238 26.8912 38.5512 26.3637C39.0787 25.8363 39.375 25.1209 39.375 24.375V3.75C39.375 3.00408 39.0787 2.28871 38.5512 1.76126C38.0238 1.23382 37.3084 0.9375 36.5625 0.9375H4.6875C3.94158 0.9375 3.22621 1.23382 2.69876 1.76126C2.17132 2.28871 1.875 3.00408 1.875 3.75V24.375C1.875 25.1209 2.17132 25.8363 2.69876 26.3637C3.22621 26.8912 3.94158 27.1875 4.6875 27.1875ZM3.75 3.75C3.75 3.50136 3.84877 3.2629 4.02459 3.08709C4.2004 2.91127 4.43886 2.8125 4.6875 2.8125H36.5625C36.8111 2.8125 37.0496 2.91127 37.2254 3.08709C37.4012 3.2629 37.5 3.50136 37.5 3.75V24.375C37.5 24.6236 37.4012 24.8621 37.2254 25.0379C37.0496 25.2137 36.8111 25.3125 36.5625 25.3125H31.875C31.7396 25.3125 31.6058 25.3418 31.4828 25.3985C31.3598 25.4551 31.2505 25.5377 31.1625 25.6406C31.0735 25.7439 31.0081 25.8654 30.9709 25.9965C30.9336 26.1277 30.9254 26.2654 30.9469 26.4L31.4625 29.4844L26.8594 25.5375C26.6896 25.3923 26.4734 25.3125 26.25 25.3125H4.6875C4.43886 25.3125 4.2004 25.2137 4.02459 25.0379C3.84877 24.8621 3.75 24.6236 3.75 24.375V3.75Z" fill="white"/>
</svg>
