<svg width="80" height="80" viewBox="0 0 80 80" fill="none" xmlns="http://www.w3.org/2000/svg">
<g clip-path="url(#clip0_4457_1211)">
<path d="M46.666 10V23.3333C46.666 24.2174 47.0172 25.0652 47.6423 25.6904C48.2674 26.3155 49.1153 26.6667 49.9993 26.6667H63.3327" stroke="#3C5B99" stroke-width="3" stroke-linecap="round" stroke-linejoin="round"/>
<path d="M56.666 70H23.3327C21.5646 70 19.8689 69.2976 18.6186 68.0474C17.3684 66.7971 16.666 65.1014 16.666 63.3333V16.6667C16.666 14.8986 17.3684 13.2029 18.6186 11.9526C19.8689 10.7024 21.5646 10 23.3327 10H46.666L63.3327 26.6667V63.3333C63.3327 65.1014 62.6303 66.7971 61.3801 68.0474C60.1298 69.2976 58.4341 70 56.666 70Z" stroke="#3C5B99" stroke-width="3" stroke-linecap="round" stroke-linejoin="round"/>
<path d="M38.9393 64.0607C39.5251 64.6464 40.4749 64.6464 41.0607 64.0607L50.6066 54.5147C51.1924 53.9289 51.1924 52.9792 50.6066 52.3934C50.0208 51.8076 49.0711 51.8076 48.4853 52.3934L40 60.8787L31.5147 52.3934C30.9289 51.8076 29.9792 51.8076 29.3934 52.3934C28.8076 52.9792 28.8076 53.9289 29.3934 54.5147L38.9393 64.0607ZM41.5 40C41.5 39.1716 40.8284 38.5 40 38.5C39.1716 38.5 38.5 39.1716 38.5 40H41.5ZM41.5 63L41.5 40H38.5L38.5 63H41.5Z" fill="#3C5B99"/>
</g>
<defs>
<clipPath id="clip0_4457_1211">
<rect width="80" height="80" fill="white"/>
</clipPath>
</defs>
</svg>
