<svg width="29" height="29" viewBox="0 0 29 29" fill="none" xmlns="http://www.w3.org/2000/svg">
<g clip-path="url(#clip0_6111_13577)">
<path fill-rule="evenodd" clip-rule="evenodd" d="M17.332 18.5225C17.502 18.4659 17.6719 18.5792 17.7285 18.7491L18.4648 21.128C18.4648 21.2413 18.4648 21.3546 18.4082 21.4112C18.3516 21.5245 18.2383 21.5245 18.125 21.5245H12.6875C12.5742 21.5245 12.4609 21.5245 12.4043 21.4112C12.3477 21.3546 12.3477 21.2413 12.3477 21.128L13.084 18.7491C13.1406 18.5792 13.3105 18.4659 13.4805 18.5225C13.877 18.6358 14.7266 18.919 15.4062 19.089C15.8594 19.2022 17.1621 18.6358 17.332 18.5225Z" fill="#FED2A4"/>
<path fill-rule="evenodd" clip-rule="evenodd" d="M16.142 19.3145H14.6694C13.5366 19.3145 12.6303 18.9746 12.0073 18.2949C11.1577 17.502 10.7612 16.2559 10.8178 14.6699C10.8178 14.5 10.9877 14.3867 11.1577 14.3867C11.1577 14.3867 11.1577 14.3867 11.2143 14.3867L11.0444 12.4043L12.8569 11.3281L14.8959 11.6113L18.7475 11.8379L19.937 12.1777L19.767 14.3867C19.8803 14.3867 19.9936 14.5 19.9936 14.6699C20.0502 16.2559 19.6537 17.502 18.8608 18.2949C18.1811 18.9746 17.2748 19.3145 16.142 19.3145Z" fill="#FFE5C2"/>
<path fill-rule="evenodd" clip-rule="evenodd" d="M19.7115 15.0086C19.6549 15.0086 19.5982 14.952 19.5416 14.952C19.4283 14.8954 19.3716 14.7821 19.3716 14.6688C19.3716 14.0458 19.2584 13.0262 18.9752 12.5165C18.2388 12.743 17.6158 12.7997 17.0494 12.7997C15.5767 12.7997 14.6705 12.2899 14.1041 11.9501C13.9341 11.8368 13.7642 11.7235 13.6509 11.7235C12.6881 11.7235 11.9517 12.4032 11.9517 12.4032C11.6119 12.743 11.442 13.9891 11.442 14.6688C11.442 14.7821 11.3853 14.8954 11.272 14.952C11.1588 15.0086 11.0455 15.0086 10.9888 14.952C9.9693 14.2723 9.34626 13.1961 9.34626 11.8934C9.28962 10.1376 10.1959 8.32505 11.7818 7.19224C12.9146 6.34263 14.274 5.88951 15.5767 5.94615C16.9361 6.00279 18.1822 6.45591 19.315 7.36216C20.731 8.55161 21.5806 10.3641 21.4674 12.0633C21.4107 13.3094 20.8443 14.329 19.8814 14.952C19.8248 14.952 19.7681 15.0086 19.7115 15.0086Z" fill="#D88A55"/>
<path fill-rule="evenodd" clip-rule="evenodd" d="M10.9873 11.7262C10.874 11.7262 10.8174 11.6696 10.7607 11.613C10.6475 11.4997 10.6475 11.2731 10.7607 11.1598C11.4971 10.4801 12.6299 9.97038 13.6494 9.97038C14.2158 9.97038 14.6123 10.1969 14.9521 10.4235L15.0088 10.4801C15.2354 10.5934 15.5186 10.7634 15.8018 10.8766C15.9717 10.9333 16.0283 11.1032 15.9717 11.2731C15.915 11.443 15.7451 11.4997 15.5752 11.443C15.2354 11.3298 14.9521 11.1598 14.6689 10.9899H14.6123C14.3291 10.7634 13.9893 10.5934 13.6494 10.5934C12.7998 10.5934 11.7803 11.0466 11.1572 11.613C11.1572 11.6696 11.0439 11.7262 10.9873 11.7262ZM19.9365 11.1598C19.8232 11.1598 19.71 11.0466 19.6533 10.9333C19.4268 10.0837 18.917 9.2907 18.2373 8.72429C16.5947 7.36492 14.499 7.30827 12.7998 8.55437C12.6299 8.66765 12.46 8.66765 12.3467 8.49773C12.2334 8.38445 12.29 8.15788 12.4033 8.0446C14.3857 6.62859 16.7646 6.68523 18.6338 8.21452C19.4268 8.89421 19.9932 9.80046 20.2764 10.7634C20.333 10.9333 20.2197 11.1032 20.0498 11.1598C19.9932 11.1598 19.9932 11.1598 19.9365 11.1598Z" fill="#C57A44"/>
<path fill-rule="evenodd" clip-rule="evenodd" d="M23.791 28.998H7.02539C6.85547 28.998 6.74219 28.8281 6.74219 28.6582V24.9766C6.74219 22.7109 8.55469 20.8984 10.7637 20.8984H20.0527C22.3184 20.8984 24.1309 22.7109 24.1309 24.9766V28.6582C24.0742 28.8281 23.9609 28.998 23.791 28.998Z" fill="#B3DAFE"/>
<path fill-rule="evenodd" clip-rule="evenodd" d="M17.2188 29.0011H13.5938L14.3867 23.1671C14.3867 22.9972 14.5566 22.8839 14.7266 22.9405C14.7832 22.9405 14.8398 22.9405 14.8398 22.9972H15.9727C15.9727 22.9405 16.0293 22.9405 16.0859 22.9405C16.2559 22.8839 16.4258 22.9972 16.4824 23.1671L17.2188 29.0011Z" fill="#0182FC"/>
<path fill-rule="evenodd" clip-rule="evenodd" d="M21.6367 29.002H21.0137V25.6602C21.0137 25.4902 21.127 25.3203 21.2969 25.3203C21.5234 25.3203 21.6367 25.4902 21.6367 25.6602V29.002ZM9.79883 29.002H9.17578V25.6602C9.17578 25.4902 9.3457 25.3203 9.51562 25.3203C9.68555 25.3203 9.79883 25.4902 9.79883 25.6602V29.002Z" fill="#8AC9FE"/>
<path fill-rule="evenodd" clip-rule="evenodd" d="M18.125 24.6948C18.0684 24.6948 18.0117 24.6948 18.0117 24.6382L15.2363 23.0522C15.1797 23.0522 15.0664 22.939 15.0664 22.8257C15.0664 22.7124 15.1797 22.5991 15.2363 22.5425L18.0117 20.9565C18.0684 20.8999 18.1816 20.8999 18.2949 20.9565C18.4082 21.0132 18.4648 21.1265 18.4648 21.2397V24.355C18.4648 24.4683 18.4082 24.5815 18.2949 24.6382C18.2383 24.6948 18.1816 24.6948 18.125 24.6948Z" fill="#FE646F"/>
<path fill-rule="evenodd" clip-rule="evenodd" d="M12.6875 24.6948C12.6309 24.6948 12.5742 24.6948 12.5176 24.6382C12.4043 24.5815 12.3477 24.4683 12.3477 24.355V21.2397C12.3477 21.1265 12.4043 21.0132 12.5176 20.9565C12.6309 20.8999 12.7441 20.8999 12.8574 20.9565L15.5762 22.5425C15.6895 22.5991 15.7461 22.7124 15.7461 22.8257C15.7461 22.939 15.6895 22.9956 15.5762 23.0522L12.8574 24.6382C12.8008 24.6948 12.7441 24.6948 12.6875 24.6948Z" fill="#FE646F"/>
<path fill-rule="evenodd" clip-rule="evenodd" d="M16.655 5.04102C16.5984 5.04102 16.5418 5.04102 16.4851 4.98438L15.2957 4.36133L14.1062 4.98438C13.9929 5.04102 13.823 5.04102 13.7097 4.98438C13.5398 4.87109 13.4832 4.70117 13.5398 4.58789L13.7664 3.22852L12.8035 2.32227C12.6902 2.20898 12.6335 2.03906 12.6902 1.86914C12.7468 1.75586 12.8601 1.64258 13.03 1.64258L14.3894 1.47266L14.9558 0.226562C15.0125 0.113281 15.1257 0 15.2957 0C15.4656 0 15.5789 0.113281 15.6355 0.226562L16.2585 1.47266L17.5613 1.64258C17.7312 1.64258 17.8445 1.75586 17.9011 1.86914C17.9578 2.03906 17.9011 2.20898 17.7878 2.32227L16.825 3.22852L17.0515 4.58789C17.1082 4.70117 17.0515 4.87109 16.9382 4.98438C16.825 4.98438 16.7683 5.04102 16.655 5.04102ZM5.89331 7.92969C5.78003 7.92969 5.72339 7.87305 5.66675 7.87305C5.55347 7.75977 5.49683 7.58984 5.49683 7.47656L5.78003 6.11719L4.7605 5.21094C4.64722 5.09766 4.59058 4.92773 4.64722 4.75781C4.70386 4.64453 4.81714 4.53125 4.98706 4.53125L6.34644 4.36133L6.91285 3.11523C6.96949 3.00195 7.13941 2.88867 7.25269 2.88867C7.42261 2.88867 7.53589 3.00195 7.64917 3.11523L8.21558 4.36133L9.57495 4.53125C9.68824 4.53125 9.80152 4.64453 9.85816 4.75781C9.9148 4.92773 9.85816 5.09766 9.74488 5.21094L8.78199 6.11719L9.00855 7.47656C9.06519 7.58984 9.00855 7.75977 8.89527 7.87305C8.72535 7.92969 8.61206 7.92969 8.44214 7.87305L7.25269 7.25L6.06324 7.87305C6.0066 7.92969 5.94995 7.92969 5.89331 7.92969ZM21.9793 7.92969C21.866 7.92969 21.8093 7.87305 21.7527 7.87305C21.5828 7.75977 21.5261 7.58984 21.5828 7.47656L21.8093 6.11719L20.8464 5.21094C20.7332 5.09766 20.6765 4.92773 20.7332 4.75781C20.7898 4.64453 20.9031 4.53125 21.073 4.53125L22.4324 4.36133L22.9988 3.11523C23.0554 3.00195 23.1687 2.88867 23.3386 2.88867C23.5085 2.88867 23.6218 3.00195 23.6785 3.11523L24.3015 4.36133L25.6043 4.53125C25.7742 4.53125 25.8875 4.64453 25.9441 4.75781C26.0007 4.92773 25.9441 5.09766 25.8308 5.21094L24.8679 6.11719L25.0945 7.47656C25.1511 7.58984 25.0945 7.75977 24.9812 7.87305C24.8113 7.92969 24.6414 7.92969 24.5281 7.87305L23.3386 7.25L22.1492 7.87305C22.0925 7.92969 22.0359 7.92969 21.9793 7.92969Z" fill="#FED402"/>
<path fill-rule="evenodd" clip-rule="evenodd" d="M4.98438 16.5938C3.68164 16.5938 2.60547 15.5176 2.60547 14.2148C2.60547 12.9121 3.68164 11.8359 4.98438 11.8359C6.28711 11.8359 7.36328 12.9121 7.36328 14.2148C7.36328 15.5176 6.28711 16.5938 4.98438 16.5938ZM24.582 20.6719C23.6191 20.6719 22.7695 19.8789 22.7695 18.8594C22.7695 17.8965 23.6191 17.0469 24.582 17.0469C25.6016 17.0469 26.3945 17.8965 26.3945 18.8594C26.3945 19.8789 25.6016 20.6719 24.582 20.6719Z" fill="#FE646F"/>
</g>
<defs>
<clipPath id="clip0_6111_13577">
<rect width="29" height="29" fill="white"/>
</clipPath>
</defs>
</svg>
