<svg width="36" height="36" fill="none" xmlns="http://www.w3.org/2000/svg"><g clip-path="url(#a)"><path d="M62.94 51.959H49.5a.563.563 0 0 0-.561.588l1.221 26.124c.014.3.262.536.562.536H61.72c.3 0 .548-.236.562-.536l1.222-26.124a.564.564 0 0 0-.562-.588zm-.589 1.125-.218 4.668c-1.85-1.375-3.984-.211-5.912.878-1.927-1.089-4.063-2.254-5.913-.879l-.218-4.667H62.35zm-7.298 6.185c-1.899.989-3.274 1.32-4.53-.2 1.203-1.336 2.575-.863 4.53.2zm6.13 18.813h-9.924l-.82-17.537c.65.487 1.334.681 2.026.681 1.446 0 2.929-.837 4.231-1.573 2.418-1.367 3.993-2.12 5.367-.407l-.88 18.836zm16.345-7.91c-1.188-.26-2.376-.226-3.342.095-1.068.356-1.76 1.02-1.944 1.87-.084.383-.045.776.088 1.166-.232.05-.457.11-.67.18.369-1.318.156-2.495-.652-3.154-1.324-1.082-3.68-.315-5.363 1.746-.77.943-1.278 2.017-1.428 3.024-.167 1.114.112 2.03.786 2.581.405.33.907.488 1.458.488.887 0 1.9-.41 2.836-1.17.54 1.304 2.355 2.24 4.578 2.24 2.633 0 4.699-1.311 4.743-2.994 1.547-.206 2.659-.986 2.898-2.082.364-1.67-1.387-3.423-3.988-3.99zm-11.813 6.637c-.48-.39-.448-1.134-.387-1.542.122-.81.544-1.691 1.187-2.479 1.35-1.653 3.075-2.164 3.78-1.587.628.513.535 1.823-.21 3.137-.392.335-.679.724-.83 1.15-1.22 1.336-2.792 1.934-3.54 1.321zm8.16 1.305c-2.134 0-3.621-1.014-3.621-1.924 0-.91 1.487-1.924 3.62-1.924 2.135 0 3.622 1.014 3.622 1.924 0 .91-1.487 1.924-3.621 1.924zm6.542-4.192c-.14.637-.957 1.105-2.078 1.222-.651-1.179-2.378-2.003-4.464-2.003-.135 0-.267.006-.398.012-.116-.225-.198-.496-.137-.777.132-.603.81-.912 1.2-1.042.779-.259 1.755-.282 2.75-.065 2.083.456 3.32 1.764 3.127 2.653zm-6.729-11.558c4.343 0 7.875-3.533 7.875-7.875 0-4.343-3.532-7.875-7.875-7.875-4.342 0-7.875 3.532-7.875 7.875 0 4.342 3.533 7.875 7.875 7.875zm0-14.625a6.758 6.758 0 0 1 6.75 6.75 6.758 6.758 0 0 1-6.75 6.75 6.757 6.757 0 0 1-6.75-6.75 6.758 6.758 0 0 1 6.75-6.75zm-4.285 26.953-.608.352c-.33.182-.71.393-.87.49-.103.169-.334.58-.527.93a.563.563 0 1 1-.986-.541c.599-1.09.652-1.14.72-1.205.057-.054.113-.107 1.11-.654l.444-.257.414-.894a.562.562 0 1 1 1.02.474l-.489 1.055a.557.557 0 0 1-.228.25zm-1.726-1.381a.561.561 0 0 0 .375-.143l.58-.518a.563.563 0 0 0-.75-.84l-.58.518a.563.563 0 0 0 .375.983zm7.854 2.958c-.393.072-.858.153-1.054.18a38.29 38.29 0 0 1-.929-.363l-.659-.249a.565.565 0 0 0-.338-.018l-1.127.288a.563.563 0 0 0 .279 1.09l.955-.244.48.18c1.053.427 1.13.437 1.209.447.019.003.038.005.067.005.108 0 .357-.032 1.32-.21a.562.562 0 0 0-.203-1.106zm-1.606-.637.588.22c.063.023.13.035.198.035h.706a.562.562 0 1 0 0-1.125h-.605l-.492-.184a.562.562 0 0 0-.395 1.054zm5.546-3.036-1.809-.475-.804-.529a.492.492 0 0 0-.327-.09l-1.163.042a.562.562 0 0 0-.541.582c.01.31.271.577.582.542l.985-.036.716.474c.053.035.11.062.173.079l1.902.5a.562.562 0 1 0 .286-1.088zm-6.345-17.138v1.964a.562.562 0 1 0 1.125 0v-1.964a1.118 1.118 0 0 0 0-1.938v-3.432a.562.562 0 1 0-1.125 0v3.431a1.118 1.118 0 0 0 0 1.939zM20.76 67.09h-.553a1.655 1.655 0 0 0-.369-1.69 1.576 1.576 0 0 0-1.145-.494H16.89c.02-.032.044-.06.063-.093.29-.503.32-1.027.082-1.44-.14-.243-.502-.65-1.353-.65l-6.406-.003h-.004c-1.545 0-3.03.645-4.114 1.777H2.251a.562.562 0 0 0-.563.562v7.351c0 .311.252.563.563.563h2.908a5.708 5.708 0 0 0 4.112 1.776l8.12.005a.539.539 0 0 0 .068-.004c.856-.037 1.542-.763 1.542-1.65a1.7 1.7 0 0 0-.09-.528h.576c.434 0 .841-.175 1.146-.491a1.667 1.667 0 0 0 .365-1.711 1.636 1.636 0 0 0 1.397-1.63 1.635 1.635 0 0 0-1.634-1.65zm.05 2.178a.514.514 0 0 0-.056-.003l-7.664-.004a.562.562 0 0 0-.562.563V69.834c0 .31.251.562.562.562l6.352.003c.03-.001.06-.004.043-.006.268 0 .484.238.484.529 0 .145-.053.28-.15.381a.461.461 0 0 1-.334.146l-6.395-.003a.562.562 0 0 0-.563.562v.011c0 .31.25.562.562.562h4.246a.206.206 0 0 0 .055-.007c.126 0 .245.052.335.147.097.1.15.235.15.38 0 .291-.218.528-.485.528a.594.594 0 0 0-.055.003l-8.065-.005a4.59 4.59 0 0 1-3.44-1.585.56.56 0 0 0-.424-.192H2.813v-6.225h2.594a.562.562 0 0 0 .45-.224 4.588 4.588 0 0 1 3.415-1.553h.003l6.407.004c.272 0 .367.068.378.086.013.023.018.14-.082.315-.189.325-.632.653-1.201.653l-4.531-.005v.004h-.002a.562.562 0 1 0 0 1.124l8.45.005a.46.46 0 0 1 .333.146c.096.101.15.236.15.382 0 .29-.217.526-.436.53h-.008a1.13 1.13 0 0 0-.1-.009l-5.54-.003a.563.563 0 0 0-.563.562v.001l-.001.007c0 .311.251.563.562.563l7.665.005.048-.003c.259.011.466.243.466.528 0 .28-.204.51-.458.526zm12.94-16.395h-2.908a5.704 5.704 0 0 0-4.114-1.777h-.004l-6.406.004c-.851 0-1.213.407-1.353.649-.238.412-.208.937.082 1.44.02.032.043.06.063.092h-1.805c-.434 0-.84.176-1.145.494a1.646 1.646 0 0 0-.368 1.69l-.52.002a.491.491 0 0 0-.06-.004c-.887.001-1.608.743-1.607 1.653a1.636 1.636 0 0 0 1.396 1.63 1.666 1.666 0 0 0 .365 1.71 1.58 1.58 0 0 0 1.146.492h.576c-.055.168-.09.344-.09.527 0 .887.686 1.613 1.542 1.65a.573.573 0 0 0 .069.005l8.12-.005a5.706 5.706 0 0 0 4.11-1.776h2.91a.562.562 0 0 0 .563-.563v-7.35a.562.562 0 0 0-.562-.563zm-.563 7.35h-2.593a.561.561 0 0 0-.423.192 4.595 4.595 0 0 1-3.442 1.586l-8.065.004a.579.579 0 0 0-.055-.003c-.267 0-.485-.237-.485-.527 0-.146.053-.28.15-.381a.455.455 0 0 1 .312-.148c.025.004.086.01.11.01l4.214-.002a.562.562 0 0 0 .562-.562l-.001-.007v-.004a.562.562 0 0 0-.562-.562l-6.395.004a.462.462 0 0 1-.335-.147.548.548 0 0 1-.15-.382c0-.28.201-.51.469-.527a.821.821 0 0 0 .075.005l6.336-.003a.562.562 0 0 0 .563-.563l-.002-.004.002-.005a.562.562 0 0 0-.563-.562l-7.694.004-.027.003c-.255-.016-.458-.247-.458-.528 0-.284.207-.516.466-.527a.96.96 0 0 0 .047.002l7.666-.004c.31 0 .562-.252.562-.563l-.001-.007v-.001a.562.562 0 0 0-.563-.562l-5.586.005-.012.005c-.267 0-.485-.238-.485-.53 0-.145.053-.28.15-.38a.46.46 0 0 1 .333-.147l8.449-.004a.562.562 0 1 0 0-1.125h-.002v-.004l-4.53.006h-.001c-.569 0-1.013-.328-1.201-.653-.1-.175-.095-.293-.082-.316.01-.018.105-.086.378-.086l6.407-.004h.003a4.59 4.59 0 0 1 3.415 1.554.562.562 0 0 0 .45.223h2.594v6.227zm-46.916 5.561a3.813 3.813 0 0 0-2.6-1.557c-1.395-.183-2.428.036-3.259.213-.543.115-.978.201-1.402.174.474-2.08-.11-5.22-3.043-6.611l-11.844-4.464a6.32 6.32 0 0 0-8.453 5.94c0 3.379 2.096 6.152 6.73 8.832h-5.777a2.19 2.19 0 0 0-2.187 2.188 2.19 2.19 0 0 0 2.188 2.186h9.784c1.062 0 2.405-.53 3.198-1.417a.554.554 0 0 0 .38.168c.106 0 .212-.03.307-.091l.165-.107.631 1.154a.143.143 0 0 0 .044.05.553.553 0 0 0 .45.244l5.369-.001a.31.31 0 0 0 .128-.021.555.555 0 0 0 .409-.375.563.563 0 0 0-.37-.704l-4.033-1.254-.337-.581.298-.194a6.839 6.839 0 0 0 1.84.246c.865 0 1.76-.154 2.49-.513l.006-.001c.16-.06.458.01.716.114.035.651.375 1.435 1.538 2.06.955.515 2.143.752 2.972.86.025.004.05.005.074.005.14.017.28.028.42.028 1.968 0 3.655-1.534 3.922-3.57a4.143 4.143 0 0 0-.754-3zm-20.386-1.432a1.052 1.052 0 0 1-.202-.622v-.001c0-.585.477-1.061 1.062-1.061h7.063a.944.944 0 0 1 0 1.886h-3.235a.562.562 0 0 0-.562.563c0 .09.026.171.063.247.007.016.01.032.022.05l2.09 3.359-2.062 1.34-4.24-5.761zm6.337 6.732c.07.122.185.214.32.255l.707.221h-1.333l-.513-.937.4-.26.419.721zm1.1-2.618-1.735-2.787h2.221c1.14 0 2.069-.928 2.069-2.069a2.07 2.07 0 0 0-2.069-2.067h-7.137c-.026 0-.048.01-.074.014a2.18 2.18 0 0 0-1.755 1.117l-1.769-1.395a.563.563 0 0 0-.696.883l2.194 1.731a2.168 2.168 0 0 0 .405 1.122l3.93 5.34c-.496.703-1.646 1.204-2.498 1.204h-9.785a1.063 1.063 0 0 1-1.062-1.06c0-.586.477-1.063 1.063-1.063h8.008c.025 0 .038-.012.06-.014a.556.556 0 0 0 .443-.297.563.563 0 0 0-.251-.755c-7.129-3.57-8.09-6.498-8.09-8.892a5.193 5.193 0 0 1 6.94-4.885l11.793 4.444c2.544 1.207 2.853 4.133 2.263 5.767-.361.602-1.097 2.012-1.165 3.589-.997.38-2.387.343-3.304.073zm5.909.662a.564.564 0 0 0-.272-.558c-.127-.074-.624-.343-1.186-.41.103-.999.507-1.904.809-2.465.195.035.387.056.576.056.502 0 .986-.104 1.488-.21.658-.14 1.392-.293 2.318-.246l-.764 5.82c-.807-.147-1.517-.367-2.03-.644-1.042-.561-.965-1.149-.94-1.343zm6.68-.49c-.184 1.4-1.278 2.474-2.59 2.582l.753-5.746c.508.182.954.516 1.288.974.457.624.652 1.403.548 2.19zm-55.649 1.027a.56.56 0 0 0-.239-1.067h1.456a.562.562 0 1 0 0-1.126h-2.865a.555.555 0 0 0-.499-.438l-4.95-1.026.026-.701c.128-3.21.283-7.184-1.22-8.854-.076-.176-.04-.486.03-.757 1.52-.268 2.386-2.044 2.399-4.967.002-.021.012-.04.012-.061a.581.581 0 0 0-.013-.122c-.067-2.18-1.934-3.932-4.221-3.932-2.33 0-4.225 1.818-4.225 4.054 0 1.458.365 2.493.659 3.324.216.612.377 1.09.375 1.59-2.029.352-3.107 2.727-3.107 4.482v13.128c0 .797.36 1.505.916 1.992a2.244 2.244 0 0 0-.916 1.803 2.254 2.254 0 0 0 2.252 2.252h11.95a5.045 5.045 0 0 0 5.039-5.038c-.001-1.998-1.171-3.721-2.859-4.536zm-2.75-.558c-1.848-.159-7.021-.571-8.582-.695l-1.207-7.39a1.16 1.16 0 0 1 1.159-1.12c.64 0 1.16.521 1.162 1.21l.218 2.539c.102 1.184.165 1.91.233 2.354a.562.562 0 0 0 .131.518c.082.163.189.18.356.182l6.53 1.352v1.05zm-5.927-14.501a.562.562 0 0 0-.517.342c-.038.088-.27.673-.258 1.293-1.174.047-2.115-.27-2.7-.505.038-.758-.193-1.423-.439-2.12-.235-.666-.495-1.41-.57-2.387h6.158c-.06 1.153-.349 3.377-1.674 3.377zm-1.408-6.868c1.505 0 2.762 1.02 3.04 2.366h-6.082c.278-1.346 1.536-2.366 3.042-2.366zm7.904 30.375h-11.95a1.128 1.128 0 0 1 0-2.254c.058 0 .11-.016.162-.033.082.008.162.025.246.025l10.306.008a.563.563 0 0 0 0-1.125l-10.305-.008a1.537 1.537 0 0 1-1.535-1.535V60.064c0-1.128.724-3.315 2.395-3.403l.019.007c.619.26 2.021.849 3.835.67 1.073 1.435.924 5.165.813 7.924l-.02.514-.48-.1c-.105-1.2-.398-4.613-.4-4.613a2.288 2.288 0 0 0-2.284-2.285 2.287 2.287 0 0 0-2.285 2.286c0 .03.002.06.007.09l1.285 7.875c.042.255.253.45.511.47.09.007 8.976.713 9.612.784a.59.59 0 0 0 .062.004l.003-.001h.003a3.918 3.918 0 0 1 3.914 3.914 3.918 3.918 0 0 1-3.914 3.914zM72.208 15.088h-3.282v-1.733c1.356-1.333 2.172-3.46 2.172-6.047 0-.008-.004-.014-.004-.022 0-.008.003-.014.003-.022C70.763 3.028 68.85.97 65.25.97s-5.511 2.058-5.845 6.294c0 .008.003.014.002.022 0 .008-.004.014-.004.022 0 2.587.816 4.714 2.172 6.047v1.733h-3.284a5.985 5.985 0 0 0-5.977 5.978v9.384a3.148 3.148 0 0 0 3.144 3.145h6.395a.561.561 0 0 0 .561-.557h5.671a.562.562 0 0 0 .561.557h6.393a3.148 3.148 0 0 0 3.144-3.145v-9.384a5.983 5.983 0 0 0-5.976-5.978zM65.252 2.095c2.809 0 4.265 1.44 4.662 4.651H60.59c.398-3.21 1.854-4.651 4.663-4.651zM60.548 7.87h9.408c-.105 2.097-.796 3.77-1.903 4.786a.596.596 0 0 0-.12.107 4.05 4.05 0 0 1-2.681.979 4.051 4.051 0 0 1-2.682-.979.549.549 0 0 0-.12-.107c-1.106-1.016-1.798-2.689-1.903-4.786zm4.704 6.997c.937 0 1.793-.237 2.549-.662v1.445a2.552 2.552 0 0 1-2.55 2.55 2.552 2.552 0 0 1-2.549-2.55v-1.445a5.141 5.141 0 0 0 2.55.662zm2.834 17.046H67.04a2.85 2.85 0 0 0 .613-1.754 2.85 2.85 0 0 0-.608-1.75h1.042v3.504zm-3.62 0h-2.049v-3.505c.009 0 .015-.004.023-.005h2.097c.01 0 .019.007.03.007h.268a1.754 1.754 0 0 1 1.694 1.749c0 .967-.787 1.754-1.754 1.754h-.31zM77.06 30.45c0 1.114-.905 2.02-2.02 2.02h-5.829v-4.06h3.01a.562.562 0 0 0 .562-.563v-4.136a.562.562 0 1 0-1.125 0v3.574h-6.75a.549.549 0 0 0 .12-.333.562.562 0 0 0-.563-.562H62.41a.562.562 0 0 0-.562.562v.328c-.008 0-.015.004-.023.005h-2.98v-3.573a.562.562 0 1 0-1.124 0v4.135c0 .311.251.563.562.563h3.01v4.06H55.46a2.022 2.022 0 0 1-2.02-2.02v-9.384a4.858 4.858 0 0 1 4.853-4.853h3.332a3.677 3.677 0 0 0 3.627 3.112 3.677 3.677 0 0 0 3.626-3.112h3.33a4.858 4.858 0 0 1 4.852 4.853v9.384zm-46.782-5.205c-1.188-.26-2.376-.226-3.342.096-1.068.356-1.76 1.02-1.944 1.87-.084.382-.045.776.088 1.166-.232.05-.457.11-.67.18.369-1.318.156-2.495-.652-3.155-1.324-1.082-3.68-.315-5.363 1.747-.77.943-1.278 2.017-1.428 3.024-.167 1.113.112 2.03.786 2.58.405.331.907.489 1.458.489.887 0 1.9-.41 2.836-1.17.54 1.304 2.355 2.24 4.578 2.24 2.633 0 4.698-1.31 4.743-2.994 1.546-.206 2.658-.986 2.897-2.082.365-1.67-1.386-3.424-3.987-3.991zm-11.813 6.638c-.48-.39-.448-1.135-.387-1.542.122-.81.544-1.691 1.187-2.48 1.35-1.652 3.076-2.163 3.78-1.587.628.514.535 1.824-.21 3.138-.392.335-.679.723-.83 1.15-1.22 1.335-2.792 1.934-3.54 1.321zm8.16 1.304c-2.134 0-3.621-1.014-3.621-1.923 0-.91 1.487-1.925 3.62-1.925 2.135 0 3.622 1.015 3.622 1.925 0 .91-1.487 1.923-3.621 1.923zm6.542-4.191c-.14.636-.957 1.104-2.078 1.222-.651-1.179-2.378-2.004-4.464-2.004-.135 0-.267.007-.398.013-.116-.225-.198-.496-.137-.777.132-.603.81-.912 1.2-1.042.779-.26 1.755-.282 2.75-.065 2.083.456 3.32 1.764 3.127 2.653zM15.69 7.032H2.25a.563.563 0 0 0-.562.59L2.91 33.744c.014.3.262.536.562.536H14.47c.3 0 .548-.236.562-.536L16.253 7.62a.564.564 0 0 0-.562-.589zm-.59 1.125-.218 4.668c-1.85-1.374-3.984-.21-5.912.879-1.928-1.089-4.063-2.254-5.913-.879L2.84 8.157H15.1zm-7.298 6.185c-1.898.99-3.274 1.32-4.53-.199 1.203-1.337 2.575-.864 4.53.2zm6.13 18.814H4.009l-.82-17.537c.65.487 1.334.682 2.026.682 1.446 0 2.929-.838 4.231-1.574 2.418-1.367 3.993-2.12 5.367-.406l-.88 18.835zM26.438 1.687c-4.342 0-7.875 3.533-7.875 7.875 0 4.343 3.533 7.875 7.875 7.875 4.343 0 7.875-3.532 7.875-7.875 0-4.342-3.532-7.875-7.875-7.875zm0 14.625a6.757 6.757 0 0 1-6.75-6.75 6.757 6.757 0 0 1 6.75-6.75 6.758 6.758 0 0 1 6.75 6.75 6.758 6.758 0 0 1-6.75 6.75zM19.654 31.83a.562.562 0 0 1-.492-.833c.599-1.09.652-1.14.72-1.204.057-.054.113-.107 1.11-.654l.444-.257.414-.895a.562.562 0 1 1 1.02.474l-.489 1.055a.561.561 0 0 1-.228.25l-.609.353c-.33.181-.709.393-.87.49-.103.168-.334.58-.527.93a.56.56 0 0 1-.493.291zm1.148-3.588.58-.518a.563.563 0 0 0-.75-.839l-.58.518a.563.563 0 0 0 .75.84zm7.683 4.208a.563.563 0 0 0-.203-1.107c-.393.073-.858.153-1.055.181-.176-.064-.58-.222-.928-.363l-.66-.249a.57.57 0 0 0-.338-.019l-1.126.289a.563.563 0 0 0 .279 1.09l.954-.245.48.182c1.054.425 1.131.436 1.21.446.018.002.038.005.067.005.107 0 .357-.033 1.32-.21zm.244-2.05a.562.562 0 0 0-.563-.563h-.604l-.492-.184a.562.562 0 1 0-.395 1.054l.588.22c.063.023.13.035.198.035h.706c.31 0 .562-.251.562-.563zm3.893-2.043c.08-.3-.1-.608-.4-.687l-1.81-.475-.804-.529a.497.497 0 0 0-.327-.09l-1.163.042a.562.562 0 1 0 .04 1.124l.986-.036.716.474c.053.035.11.062.173.079l1.902.5a.561.561 0 0 0 .687-.401zm-3.361-17.788-1.698-1.007a1.121 1.121 0 0 0-.562-.968V5.162a.562.562 0 1 0-1.125 0v3.431a1.12 1.12 0 0 0-.563.97c0 .62.504 1.124 1.125 1.124.204 0 .393-.058.559-.153l1.689 1.002a.563.563 0 1 0 .575-.968zM-13.5 25.312h-5.661c-.295-5.316-4.7-9.554-10.09-9.554-5.388 0-9.793 4.238-10.088 9.554h-5.661a.562.562 0 1 0 0 1.125h31.5a.562.562 0 1 0 0-1.125zm-24.725 0c.291-4.697 4.205-8.429 8.975-8.429 4.769 0 8.683 3.732 8.974 8.43h-17.95zm8.412-11.246v-3.941a.562.562 0 1 1 1.125 0v3.941a.562.562 0 1 1-1.125 0zm5.044 1.408a.562.562 0 0 0 .735-.304l1.51-3.641a.563.563 0 0 0-1.04-.43l-1.51 3.64a.563.563 0 0 0 .305.735zm4.055 2.597a.564.564 0 0 0 .398-.165l2.789-2.784a.563.563 0 0 0-.795-.797l-2.79 2.785a.563.563 0 0 0 .398.96zm2.049 3.481a.562.562 0 0 0 .734.305l3.644-1.505a.562.562 0 1 0-.43-1.04l-3.643 1.505a.563.563 0 0 0-.305.735zm-15.801-6.382a.563.563 0 0 0 1.038-.43l-1.51-3.642a.562.562 0 1 0-1.039.43l1.51 3.642zm-3.718 2.737a.563.563 0 0 0 .795-.797l-2.789-2.785a.563.563 0 0 0-.794.797l2.788 2.785zm-6.03 2.446 3.644 1.505a.562.562 0 1 0 .43-1.04l-3.644-1.505a.562.562 0 1 0-.43 1.04zM-79.13 8.093c-.324 0-.626.083-.898.22a2.02 2.02 0 0 0-2.017-1.992c-.365 0-.702.105-.998.274a2.016 2.016 0 0 0-1.918-1.418c-.903 0-1.66.6-1.918 1.418a1.991 1.991 0 0 0-.997-.274c-1.114 0-2.02.906-2.02 2.021v6.615l-2.67 1.813a.563.563 0 0 0-.246.465v3.642c0 1.039.479 1.967 1.226 2.579l.002.002c1.213 1.098 2.522 2.668 2.522 3.294.004.684 0 3.508 0 3.508a.565.565 0 0 0 .563.563h9.336c.31 0 .563-.251.563-.562v-3.173c.534-.326 1.482-1.114 1.482-2.61l-.001-14.243c.004-.026.01-.095.01-.121a2.022 2.022 0 0 0-2.02-2.021zm-8.746-.647c.494 0 .896.402.896.896v5.882a2.003 2.003 0 0 0-.896-.219c-.313 0-.617.075-.895.214V8.342c0-.494.402-.896.895-.896zm9.634 2.743v14.288c0 1.265-1.086 1.73-1.128 1.748a.563.563 0 0 0-.355.523v2.95h-8.21c0-.863.002-2.46-.001-2.95 0-.753-.662-1.729-1.362-2.551a3.332 3.332 0 0 0 3.148-3.321.562.562 0 1 0-1.125 0c0 1.216-.99 2.205-2.205 2.205a2.208 2.208 0 0 1-2.205-2.205v-3.344l3.272-2.223a.888.888 0 0 1 .538-.179c.494 0 .895.403.895.897a.897.897 0 0 1-.387.734l-.012.008-2.246 1.365a.562.562 0 1 0 .585.961l2.275-1.383a2.018 2.018 0 0 0 .906-1.646c0-.008.004-.015.004-.023V7.198c0-.494.402-.896.895-.896s.895.402.895.896v8.844a.562.562 0 1 0 1.125 0v-7.7c0-.494.401-.896.895-.896.493 0 .895.402.895.896V16.042a.562.562 0 1 0 1.125 0v-5.929c0-.494.401-.895.895-.895.493 0 .895.402.896.86a1.413 1.413 0 0 0-.008.111zm17.81 6.58-2.67-1.813V8.342a2.023 2.023 0 0 0-2.02-2.021c-.364 0-.701.104-.997.274a2.017 2.017 0 0 0-1.918-1.418c-.903 0-1.66.599-1.918 1.418a1.991 1.991 0 0 0-.997-.274 2.02 2.02 0 0 0-2.017 1.992 1.998 1.998 0 0 0-.899-.221c-1.113 0-2.02.906-2.02 2.021 0 .041.007.086.008.076v14.288c0 1.496.948 2.284 1.483 2.61v3.173c0 .311.252.563.563.563h9.336a.563.563 0 0 0 .562-.563s-.004-2.825 0-3.512c0-.623 1.31-2.193 2.523-3.291l.001-.003a3.325 3.325 0 0 0 1.226-2.578v-3.641a.562.562 0 0 0-.246-.465zm-4.69-9.323c.494 0 .896.402.896.896v5.876a2.003 2.003 0 0 0-.895-.213c-.323 0-.625.083-.896.219V8.342c0-.494.402-.896.896-.896zm.061 19.3c-.002.491-.001 2.09 0 2.952h-8.21v-2.95c0-.23-.142-.437-.356-.523-.011-.004-1.128-.463-1.128-1.747v-14.32c-.002-.025-.004-.055-.007-.044a.896.896 0 0 1 1.79-.001v5.93a.562.562 0 1 0 1.125 0V8.341c0-.494.401-.896.895-.896.493 0 .895.402.895.896v7.7a.562.562 0 1 0 1.125 0V7.198c0-.494.401-.896.895-.896.493 0 .895.402.895.896v8.844c0 .009.004.016.005.025a2.02 2.02 0 0 0 .935 1.662l2.246 1.365a.562.562 0 1 0 .584-.961l-2.238-1.358a.897.897 0 0 1-.407-.749.897.897 0 0 1 1.433-.717l3.272 2.223v3.343a2.208 2.208 0 0 1-2.204 2.206 2.208 2.208 0 0 1-2.206-2.206.562.562 0 1 0-1.125 0 3.332 3.332 0 0 0 3.148 3.321c-.7.823-1.362 1.798-1.362 2.55zM61.296-32.35h-3.583a.562.562 0 0 0-.562.563v3.626c0 .31.251.562.562.562h3.583a.562.562 0 0 0 .563-.563v-3.625a.562.562 0 0 0-.563-.563zm-.562 3.626h-2.458v-2.5h2.458v2.5zm-5.198-3.626h-.189a4.43 4.43 0 0 0-4.425 4.426v3.388c0 .311.251.563.563.563h4.05a.562.562 0 0 0 .563-.563v-7.252a.562.562 0 0 0-.562-.562zm-.563 7.252h-2.926v-2.826a3.306 3.306 0 0 1 2.926-3.28v6.106zm26.028-9.235h-3.42v-3.777a.562.562 0 0 0-.563-.562h-5.49v-.814a.562.562 0 0 0-.562-.563h-8.913a.562.562 0 0 0-.562.563v2.857h-3.7a.562.562 0 0 0-.563.562v1.734h-2.444a5.852 5.852 0 0 0-5.846 5.846v7.15a2.05 2.05 0 0 0 2.048 2.048h2.132a3.13 3.13 0 0 0 3.073 2.564 3.13 3.13 0 0 0 3.074-2.564h9.751a3.13 3.13 0 0 0 3.073 2.564 3.13 3.13 0 0 0 3.074-2.564h4.353a2.05 2.05 0 0 0 2.048-2.048V-33.77a.563.563 0 0 0-.563-.562zm-4.545 0h-10.98v-3.214h10.98v3.214zm-13.84-4.59h7.787v.25h-5.49a.562.562 0 0 0-.562.563v1.48h-1.735v-2.294zm-4.263 3.419h5.998v1.171h-5.998v-1.171zM56.19-17.85a2.004 2.004 0 0 1-2.001-2.002c0-1.104.898-2.002 2.002-2.002 1.103 0 2.002.898 2.002 2.002a2.005 2.005 0 0 1-2.003 2.002zm15.898 0a2.004 2.004 0 0 1-2.001-2.002c0-1.104.897-2.002 2-2.002 1.105 0 2.003.898 2.003 2.002a2.004 2.004 0 0 1-2.002 2.002zm8.35-3.487a.924.924 0 0 1-.924.923h-4.353a3.13 3.13 0 0 0-3.073-2.565 3.13 3.13 0 0 0-3.073 2.565h-9.752a3.13 3.13 0 0 0-3.073-2.565 3.13 3.13 0 0 0-3.074 2.565h-2.131a.924.924 0 0 1-.923-.923v-7.15a4.727 4.727 0 0 1 4.721-4.721h25.654v11.87zM67.041-32.35H63.46a.562.562 0 0 0-.563.563v3.626c0 .31.252.562.563.562h3.583a.562.562 0 0 0 .563-.563v-3.625a.562.562 0 0 0-.563-.563zm-.562 3.626H64.02v-2.5h2.459v2.5zm6.307-3.626h-3.583a.562.562 0 0 0-.562.563v3.626c0 .31.251.562.562.562h3.584a.562.562 0 0 0 .562-.563v-3.625a.562.562 0 0 0-.563-.563zm-.562 3.626h-2.458v-2.5h2.458v2.5zm2.163-3.063v3.626c0 .31.251.562.562.562h3.583a.562.562 0 0 0 .563-.563v-3.625a.562.562 0 0 0-.563-.563H74.95a.562.562 0 0 0-.562.563zm1.125.562h2.458v2.501h-2.458v-2.5zm-41.45-4.39c-.162-.205-.466-.26-.703-.15a4.288 4.288 0 0 1-1.822.406 4.345 4.345 0 0 1-3.924-2.498c-1.007-2.161-.067-4.74 2.05-5.729.022-.008.092-.039.112-.05a.563.563 0 0 0-.24-1.061l-.18-.003a5.99 5.99 0 0 0-2.546.566 5.988 5.988 0 0 0-3.118 3.401 5.995 5.995 0 0 0 .2 4.611 6.054 6.054 0 0 0 5.469 3.482 5.98 5.98 0 0 0 2.543-.565 5.98 5.98 0 0 0 2.183-1.724c.161-.205.137-.48-.024-.686zm-2.635 1.39a4.861 4.861 0 0 1-2.068.46 4.927 4.927 0 0 1-4.45-2.832 4.876 4.876 0 0 1-.162-3.751 4.87 4.87 0 0 1 2.536-2.766l.027-.012a5.456 5.456 0 0 0-.717 5.745 5.473 5.473 0 0 0 4.857 3.147c-.009.002-.016.006-.023.01zm-12.27-.481a.565.565 0 0 0-.732-.31l-2.538 1.032a.565.565 0 0 0-.31.732l.25.614-5.033 2.045a.563.563 0 0 0-.31.733l.002.004-8.36 3.95a.563.563 0 0 0-.281.72l1.409 3.466a.563.563 0 0 0 .703.32l8.703-2.987v7.335l-3.395 4.053a.563.563 0 0 0 .863.723l3.096-3.695 3.096 3.695a.563.563 0 0 0 .863-.723l-3.397-4.054v-7.177l4.685-1.904.249.613a.565.565 0 0 0 .733.31l2.539-1.032a.563.563 0 0 0 .309-.734l-3.143-7.73zm-16.07 9.59 7.823-3.696 1.368 3.367-8.182 2.808-1.008-2.48zm10.448-.226-1.796-4.421 4.512-1.833 1.796 4.42-4.512 1.834zm6.014-1.122-.248-.612v-.002l-.002-.002-2.218-5.46v-.001l-.25-.613 1.496-.608 2.72 6.689-1.498.608zm-32.487-6.773v-2.896a.561.561 0 0 0-.794-.513l-.401.181v-.802l-.001-.008c0-.018-.008-.036-.01-.055a.573.573 0 0 0-.035-.153c-.003-.005-.002-.011-.004-.017-.008-.017-.023-.028-.032-.044a.546.546 0 0 0-.08-.111c-.021-.02-.042-.036-.065-.054a.537.537 0 0 0-.186-.093c-.02-.006-.036-.017-.056-.02l-3.234-.548a.583.583 0 0 0-.326.042l-11.088 5.011-11.089-5.01a.58.58 0 0 0-.326-.042l-3.234.547c-.02.003-.036.015-.056.02a.587.587 0 0 0-.187.093.53.53 0 0 0-.064.054.576.576 0 0 0-.08.111c-.01.016-.024.027-.033.045-.002.006-.001.012-.004.017a.573.573 0 0 0-.034.152c-.003.019-.01.037-.01.056l-.002.007v.803l-.4-.181a.562.562 0 0 0-.795.512v2.896c0 .221.129.421.33.512l12.11 5.489-12.11 5.473a.563.563 0 0 0-.329.513v2.29a.563.563 0 0 0 .795.512l15.518-7.034 15.517 7.034a.556.556 0 0 0 .537-.04.563.563 0 0 0 .258-.473v-2.29a.562.562 0 0 0-.33-.512l-12.11-5.473 12.11-5.489a.563.563 0 0 0 .33-.513zm-27.708-3.994 11.164 5.044a.554.554 0 0 0 .464 0l11.164-5.044 1.247.21-12.643 5.714-12.643-5.713 1.247-.211zm-2.597.835 13.76 6.22a.556.556 0 0 0 .464 0l13.76-6.22v.44l-13.991 6.322-13.993-6.322v-.44zm-1.195 2.796v-1.662l.411.186a.017.017 0 0 0 .005.002l13.406 6.059-.042.018a.562.562 0 0 0-.313.654l.031.12-.82.37-12.678-5.747zm30.375 12.713v1.054l-13.825-6.266 1.147-.52 12.678 5.732zm0-12.713-30.375 13.767v-1.054l14.394-6.507a.562.562 0 0 0 .313-.654l-.03-.119 15.282-6.906.005-.003.412-.185v1.661zm-48.431 11.01-1.125-3.557a.563.563 0 0 0-.537-.392h-24.69a.563.563 0 0 0-.536.392l-1.125 3.556a.558.558 0 0 0-.026.17v9.784c0 .311.252.562.562.562h26.94c.31 0 .563-.251.563-.562v-9.784a.556.556 0 0 0-.026-.17zm-25.94-2.825h23.866l.77 2.431h-25.404l.769-2.43zm-.974 12.215v-8.659h25.815v8.659h-25.815zm10.034-13.976a.56.56 0 0 0 .783.144l9.385-6.472c.222.018.443.036.654.036 1.422 0 2.6-.397 3.51-1.185 1.684-1.459 1.793-3.71 1.796-3.804a.557.557 0 0 0-.099-.342l-3.9-5.658a.567.567 0 0 0-.59-.228c-.605.14-5.955 1.393-7.3 2.32-1.266.873-1.657 3.08-1.76 3.878l-6.503 4.484a.563.563 0 0 0-.144.783l4.168 6.044zm4.877-14.263c.92-.635 4.736-1.632 6.543-2.063l3.568 5.174c-.058.488-.313 1.888-1.393 2.824-.644.556-1.486.858-2.51.904a.548.548 0 0 0-.072-.17l-1.396-2.024c.952.179 2.289.134 3.712-.846a.562.562 0 1 0-.64-.927c-2.036 1.404-3.815.352-3.887.308a.564.564 0 0 0-.617.014l-.168.117h-.002v.001l-2.017 1.39a.508.508 0 0 1-.575-.835l3.96-2.73a.562.562 0 1 0-.64-.926l-1.48 1.02-.418-.608a.564.564 0 0 0-.783-.144l-2.26 1.559c.204-.791.547-1.674 1.075-2.038zm1.361 1.725.1.145-1.554 1.072a1.633 1.633 0 0 0 .93 2.974c.319 0 .641-.093.923-.288l1.554-1.071 1.577 2.287-9.161 6.317-3.53-5.12 9.161-6.316zm-10.662 15.52c0-.311.252-.563.563-.563h13.47a.562.562 0 1 1 0 1.125h-13.47a.562.562 0 0 1-.563-.562zM75.422-91.95h-18.44a2.467 2.467 0 0 0-2.465 2.464v25.401c0 1.164.814 2.138 1.903 2.394v1.804a.563.563 0 0 0 .981.376l.967-1.076.966 1.076a.56.56 0 0 0 .981-.376v-1.733h15.107a.562.562 0 0 0 .563-.563V-91.386a.563.563 0 0 0-.563-.563zm-.563 29.081a1.343 1.343 0 0 1-.778-1.216c0-.538.32-1.002.778-1.216v2.432zm0-3.68H57.545v-24.276h17.314v24.276zM56.42-90.695v24.218c-.28.066-.542.177-.777.33v-23.337c0-.538.32-.998.778-1.211zm2.77 29.341-.403-.45a.56.56 0 0 0-.837 0l-.404.45V-63.4h1.645v2.046zm.563-3.17h-2.77a.562.562 0 0 0-.562.562v1.09a1.34 1.34 0 0 1-.778-1.212c0-.738.601-1.339 1.34-1.339h16.375a2.447 2.447 0 0 0-.4 1.34c0 .494.149.953.4 1.34H60.314v-1.218a.562.562 0 0 0-.562-.564zm1.494-12.13v2.33c0 .311.251.563.562.563h2.33l1.648 1.648a.561.561 0 0 0 .795 0l1.649-1.648h2.33a.562.562 0 0 0 .562-.563v-2.33l1.647-1.648a.562.562 0 0 0 0-.795l-1.647-1.648v-2.33a.562.562 0 0 0-.563-.562h-2.33l-1.647-1.648a.562.562 0 0 0-.795 0l-1.648 1.648h-2.33a.562.562 0 0 0-.563.562v2.33l-1.648 1.648a.562.562 0 0 0 0 .796l1.648 1.647zm.96-3.46a.56.56 0 0 0 .165-.397v-2.001h2a.56.56 0 0 0 .399-.165l1.414-1.415 1.415 1.415a.561.561 0 0 0 .398.165h2v2c0 .15.059.293.165.398l1.414 1.415-1.414 1.414a.561.561 0 0 0-.165.398v2h-2a.56.56 0 0 0-.398.165l-1.415 1.416-1.415-1.416a.561.561 0 0 0-.398-.164h-2v-2a.56.56 0 0 0-.165-.398L60.79-78.7l1.415-1.415zm-36.444 14.2c1.055-1.545 1.563-3.358 1.442-5.192-.248-3.74-2.845-5.819-5.137-7.653-1.46-1.17-2.838-2.278-3.503-3.684v-2.74a3.422 3.422 0 0 0 2.447-1.291.562.562 0 1 0-.881-.7 2.322 2.322 0 0 1-3.918-.457 2.32 2.32 0 0 1 2.167-3.293.568.568 0 0 0 .58-.546.563.563 0 0 0-.546-.58 3.502 3.502 0 0 0-1.555.322 3.444 3.444 0 0 0-1.667 4.571 3.428 3.428 0 0 0 2.247 1.869v2.845c-.666 1.406-2.043 2.514-3.504 3.684-2.29 1.835-4.887 3.914-5.135 7.653-.122 1.835.387 3.646 1.441 5.192a5.706 5.706 0 0 0-4.158 5.486v.542c0 .311.251.562.562.562h22.713a.562.562 0 0 0 .563-.562v-.542c0-2.584-1.733-4.799-4.158-5.486zM7.207-60.45a4.588 4.588 0 0 1 4.09-4.53.562.562 0 0 0 .365-.924c-1.244-1.464-1.863-3.286-1.74-5.129.214-3.246 2.502-5.077 4.715-6.85 1.297-1.038 2.536-2.03 3.364-3.27.828 1.24 2.066 2.233 3.363 3.27 2.213 1.772 4.501 3.604 4.716 6.85.122 1.843-.496 3.665-1.74 5.13a.563.563 0 0 0 .364.923 4.59 4.59 0 0 1 4.09 4.53H7.207zm-31.762-20.723a4.473 4.473 0 0 0 .6-2.543c-.136-2.043-1.521-3.152-2.744-4.13-.707-.567-1.373-1.104-1.699-1.747v-1.794a.562.562 0 1 0-1.125 0v1.794c-.326.643-.992 1.181-1.7 1.747-1.222.978-2.607 2.087-2.742 4.13a4.485 4.485 0 0 0 .599 2.542 3.206 3.206 0 0 0-1.997 2.967v.279c0 .304.241.552.543.562v11.23a.562.562 0 0 0-.543.562v.648a3.224 3.224 0 0 0 3.22 3.22h.998a2.195 2.195 0 0 0 2.183 2.38 2.195 2.195 0 0 0 2.184-2.38h.998a3.224 3.224 0 0 0 3.22-3.22v-.648c0-.3-.234-.546-.53-.562v-11.23a.562.562 0 0 0 .53-.562v-.279a3.203 3.203 0 0 0-1.995-2.966zm.872 16.248c0 1.156-.94 2.096-2.096 2.096h-1.744a.561.561 0 0 0-.498.822c.084.16.127.325.127.49 0 .588-.479 1.067-1.066 1.067-.589 0-1.067-.48-1.067-1.068 0-.163.043-.328.127-.489a.564.564 0 0 0-.498-.822h-1.744a2.098 2.098 0 0 1-2.095-2.096v-.087a.562.562 0 0 0 .543-.562v-12.354a.563.563 0 0 0-.524-.561 2.089 2.089 0 0 1 1.84-1.786.563.563 0 0 0 .366-.924 3.415 3.415 0 0 1-.83-2.442c.102-1.549 1.18-2.412 2.323-3.327.554-.443 1.121-.898 1.559-1.438.437.54 1.004.994 1.558 1.438 1.142.915 2.221 1.778 2.324 3.327.059.877-.237 1.744-.831 2.442a.562.562 0 0 0 .365.924 2.088 2.088 0 0 1 1.841 1.787.563.563 0 0 0-.51.56v12.354c0 .3.234.545.53.561v.088zm-6.254-12.615h-1.736a.562.562 0 0 0-.562.563v10.24c0 .311.251.563.562.563h1.736c.31 0 .563-.252.563-.563v-10.24a.563.563 0 0 0-.563-.563zm-.562 10.24h-.611v-9.115h.61v9.116zm4.252-10.24h-1.737a.562.562 0 0 0-.562.563v10.24c0 .311.251.563.562.563h1.737c.31 0 .562-.252.562-.563v-10.24a.563.563 0 0 0-.562-.563zm-.563 10.24h-.611v-9.115h.611v9.116zm10.04-17.057a.562.562 0 0 1-.562.562h-.402v.403a.562.562 0 1 1-1.125 0v-.403h-.403a.562.562 0 1 1 0-1.125h.402v-.403a.562.562 0 1 1 1.125 0v.403h.403c.31 0 .563.251.563.563zm-19.803 15.769h-.403v-.403a.562.562 0 1 0-1.125 0v.403h-.403a.562.562 0 1 0 0 1.125h.403v.402a.562.562 0 1 0 1.125 0v-.402h.403a.562.562 0 1 0 0-1.125zm-2.101-12.73a.562.562 0 0 0-.563-.562h-.402v-.403a.562.562 0 1 0-1.125 0v.403h-.403a.562.562 0 1 0 0 1.125h.403v.403a.562.562 0 1 0 1.125 0v-.403h.402a.562.562 0 0 0 .563-.563zm20.377 9.196h-.403v-.402a.562.562 0 1 0-1.125 0v.402h-.402a.562.562 0 1 0 0 1.125h.402v.403a.562.562 0 1 0 1.125 0v-.403h.403a.562.562 0 1 0 0-1.125zm-47.682-1.574a.564.564 0 0 1-.336-.111l-3.159-2.354-3.158 2.354a.562.562 0 0 1-.871-.625l1.238-3.809-3.198-2.383a.562.562 0 0 1 .336-1.013h3.966l1.153-3.55a.563.563 0 0 1 1.07 0l1.153 3.55h3.964a.562.562 0 0 1 .336 1.013l-3.198 2.383 1.205 3.708a.562.562 0 0 1-.491.837h-.01zm-3.495-3.729c.118 0 .236.037.337.112l2.077 1.548-.816-2.513a.562.562 0 0 1 .199-.624l2.16-1.61h-2.676a.562.562 0 0 1-.535-.389l-.744-2.29-.745 2.29a.563.563 0 0 1-.535.389h-2.678l2.161 1.61a.563.563 0 0 1 .2.625l-.817 2.511 2.076-1.547a.563.563 0 0 1 .336-.112zm-5.317 18.1c-6.319 0-12.126-3.698-14.794-9.422-3.797-8.153-.256-17.875 7.895-21.672a16.367 16.367 0 0 1 7.373-1.524.563.563 0 0 1 .232 1.067c-.065.032-.13.061-.194.085-6.71 3.13-9.644 11.187-6.498 17.941 2.21 4.742 7.023 7.805 12.258 7.805a13.41 13.41 0 0 0 5.697-1.265l.123-.06a.563.563 0 0 1 .693.852 16.14 16.14 0 0 1-5.906 4.663 16.173 16.173 0 0 1-6.88 1.53zm-1.908-31.38a15.178 15.178 0 0 0-4.516 1.305c-7.588 3.535-10.885 12.587-7.35 20.178 2.484 5.329 7.89 8.772 13.774 8.772 2.22 0 4.376-.48 6.405-1.424a15.1 15.1 0 0 0 3.904-2.615c-1.31.38-2.66.57-4.036.57-5.671 0-10.883-3.319-13.278-8.455-3.082-6.615-.779-14.382 5.097-18.332zm158.2-16.687c-1.244-2.441-8.536-22.994-8.61-23.202-.004-.01-.012-.017-.016-.026-.085-1.796-1.07-4.502-2.75-6.321-1.365-1.477-3.051-2.259-4.876-2.259-1.675 0-3.296.797-4.69 2.306-1.714 1.856-2.755 4.42-2.918 6.132-.007.014-.018.024-.024.039-.073.209-7.373 20.891-8.617 23.331a.564.564 0 0 0 .501.819h31.5a.563.563 0 0 0 .5-.819zM61.388-136.13c.818-.887 2.153-1.944 3.862-1.944 1.524 0 2.887.639 4.05 1.898 1.761 1.906 2.555 4.738 2.45 6.051a22.025 22.025 0 0 1-.806 4.305v-1.535c.084-1.003.179-3.1.18-3.271.012-1.49-.856-3.961-2.488-5.605-1-1.008-2.15-1.54-3.327-1.54-1.194 0-2.37.547-3.402 1.581-1.65 1.655-2.535 4.101-2.53 5.565.012 1.471.072 2.253.18 2.675v2.139a22.029 22.029 0 0 1-.808-4.314c-.094-1.186.791-4.005 2.639-6.005zm-.756 7.401c-.052-.718-.126-1.791-.129-1.903 0-.018.004-.04.004-.058.136-.15.295-.334.477-.546.964-1.123 2.758-3.211 4.175-3.211 1.723 0 3.642 2.308 4.563 3.418l.274.325c0 .022.005.048.005.069-.001.092-.04 1.005-.091 1.904-2.824-.608-6.512-.606-9.278.002zm4.526-6.843c-1.434 0-2.87 1.241-3.988 2.432.374-.803.891-1.61 1.535-2.256.569-.57 1.482-1.251 2.605-1.251.882 0 1.733.407 2.528 1.208.631.636 1.141 1.455 1.511 2.275-1.13-1.189-2.615-2.408-4.19-2.408zm-4.474 7.983c2.684-.632 6.377-.637 9.136-.011v4.719c-.003.023 0 .045 0 .068v15.115h-9.137v-19.891zm-2.805-.497c.256 1.495.748 3.524 1.68 5.388v15H50.37c1.525-3.614 5.73-15.384 7.507-20.388zm13.066 20.387v-15.005c.916-1.836 1.409-3.832 1.667-5.32 1.763 4.94 5.988 16.708 7.519 20.325h-9.186zM27.62-122.54c-.005 0-.01-.003-.014-.003l-.009.002-.034-.002h-5.33v-2.19c1.6-1.553 2.564-4.049 2.564-7.09 0-.007-.005-.014-.005-.022 0-.007.004-.015.003-.022-.388-4.934-2.611-7.332-6.794-7.332-4.184 0-6.407 2.398-6.795 7.332 0 .007.004.015.003.022 0 .008-.005.014-.005.022 0 3.041.965 5.537 2.563 7.09v2.19h-5.33a3.378 3.378 0 0 0-3.374 3.375v12.032c0 .311.252.563.563.563h24.75a.562.562 0 0 0 .562-.563v-12.032a3.377 3.377 0 0 0-3.318-3.372zm-4.274 7.879v-6.757h3.697v6.757h-3.697zm-5.345-23.413c3.41 0 5.158 1.762 5.613 5.689H12.387c.455-3.927 2.204-5.689 5.614-5.689zm-5.654 6.814h11.307c-.107 2.547-.934 4.582-2.272 5.815a.548.548 0 0 0-.152.136 4.878 4.878 0 0 1-3.23 1.178 4.878 4.878 0 0 1-3.23-1.178.532.532 0 0 0-.15-.136c-1.339-1.233-2.166-3.268-2.273-5.815zM18-123.005c1.15 0 2.195-.308 3.108-.858v1.883A3.112 3.112 0 0 1 18-118.872a3.112 3.112 0 0 1-3.109-3.108v-1.883a5.961 5.961 0 0 0 3.109.858zm11.812 15.306H6.188v-11.47c0-1.24 1.01-2.25 2.25-2.25h5.37a4.237 4.237 0 0 0 4.193 3.671 4.237 4.237 0 0 0 4.191-3.671h.029v9.203a.562.562 0 0 0 1.125 0v-1.32h1.286v1.32a.562.562 0 0 0 1.125 0v-1.32h1.286v1.32a.562.562 0 0 0 1.125 0v-9.109a2.246 2.246 0 0 1 1.645 2.156v11.47zm-48.982-7.084-3.99-3.99 3.716-3.715a.563.563 0 0 0 0-.796l-7.131-7.131v-8.221a.563.563 0 0 0-.563-.563h-4.5a.563.563 0 0 0-.562.563v8.221l-7.132 7.131a.563.563 0 0 0 0 .796l7.132 7.13v8.222a.564.564 0 0 0 .96.398l1.852-1.853 1.853 1.853a.564.564 0 0 0 .96-.398v-7.097l3.427 3.427a.56.56 0 0 0 .613.122.562.562 0 0 0 .347-.52v-2.619h2.62a.563.563 0 0 0 .398-.96zm-7.035-2.534-2.387-2.387 2.387-2.387 1.194 1.193 1.193 1.194-.534.534-1.853 1.853zm-5.034 1.329-.534-.534 2.386-2.387 2.387 2.387-.534.534-1.853 1.853-1.852-1.853zm0-13.796 1.852-1.853 1.852 1.852v.001l.534.534-2.387 2.386-2.386-2.386.535-.534zm7.42 3.716-1.193 1.193-1.194 1.194-2.386-2.387 2.386-2.387 2.388 2.387zm-5.568.795 2.387 2.387-2.387 2.387-2.387-2.387 2.387-2.387zm6.364 4.774-1.194-1.194-1.193-1.193 1.193-1.193 1.194-1.194 2.387 2.387-2.387 2.387zm-8.052-17.575h3.375v6.534l-1.29-1.29a.579.579 0 0 0-.795 0l-1.29 1.29v-6.534zm-1.494 9.62 2.387 2.386-2.387 2.387-2.386-2.387 2.386-2.386zm-3.182 3.181 2.387 2.387-2.387 2.387-2.386-2.387 2.386-2.387zm3.182 3.182 2.387 2.387-2.387 2.387-2.386-2.387 2.386-2.387zm3.58 12.307a.579.579 0 0 0-.796 0l-1.29 1.29v-5.738l1.29 1.29a.561.561 0 0 0 .796 0l1.29-1.29v5.738l-1.29-1.29zm6.239-5.164a.56.56 0 0 0-.563.562v1.825l-3.029-3.029.535-.535 1.852-1.852 3.029 3.029h-1.824zm-42.1-20.274-11.468-3.946a.559.559 0 0 0-.365 0l-11.468 3.946a.563.563 0 0 0-.38.532v23.608c0 .24.153.454.38.532l11.468 3.947a.57.57 0 0 0 .365 0l11.468-3.947a.563.563 0 0 0 .38-.532v-23.608a.563.563 0 0 0-.38-.532zm-.745 15.781c-1.71 1.292-3.406 1.792-5.048 1.469-3.267-.641-5.346-4.285-5.366-4.322a.563.563 0 0 0-.49-.287h-.001a.562.562 0 0 0-.49.288c-.022.036-2.087 3.674-5.362 4.32-1.644.325-3.343-.175-5.054-1.469v-8.345l10.906-3.641 10.905 3.641v8.346zm0-9.532-10.728-3.581a.569.569 0 0 0-.355 0l-10.728 3.581v-1.472l10.906-3.752 10.905 3.752v1.472zm-21.81 10.906c1.347.872 2.704 1.318 4.053 1.318.406 0 .813-.04 1.218-.12 2.806-.554 4.77-2.881 5.634-4.111.864 1.23 2.828 3.557 5.634 4.111 1.748.346 3.517-.062 5.271-1.198v1.219l-10.905 3.752-10.906-3.752v-1.219zm10.905-19.974 10.905 3.752v2.654l-10.723-3.69a.559.559 0 0 0-.365 0l-10.723 3.69v-2.654l10.906-3.752zm0 30.31-10.906-3.752v-4.175l10.723 3.69a.57.57 0 0 0 .365 0l10.723-3.69v4.175l-10.905 3.752zm141.83-46.093a.562.562 0 0 1-.343-.116c-.762-.586-1.627-2.564-1.213-3.805.22-.657.77-1.039 1.51-1.047.954 0 1.542.797 1.55 1.536.009.685-.296 1.249-.566 1.747-.2.371-.376.697-.381.983a.562.562 0 0 1-.546.702h-.011zm-.029-3.843c-.34.004-.414.14-.46.278-.138.414.018 1.107.262 1.678.058-.115.117-.225.175-.332.224-.415.436-.807.432-1.201-.002-.065-.08-.423-.409-.423zm-.051-1.697a1.72 1.72 0 0 1-1.719-1.719c0-.947.77-1.718 1.719-1.718a1.72 1.72 0 0 1 1.718 1.718 1.72 1.72 0 0 1-1.718 1.719zm0-2.312a.594.594 0 1 0 0 1.188.594.594 0 0 0 0-1.188zm-4.4.628A1.654 1.654 0 0 1 59.2-162.7c0-.912.741-1.653 1.652-1.653.912 0 1.653.741 1.653 1.653 0 .911-.741 1.652-1.653 1.652zm0-2.179a.527.527 0 1 0 0 1.055.527.527 0 0 0 0-1.055zm-3.517-.084a1.654 1.654 0 0 1-1.652-1.652c0-.912.741-1.653 1.652-1.653.912 0 1.653.741 1.653 1.653 0 .911-.741 1.652-1.653 1.652zm0-2.18a.528.528 0 1 0 .002 1.056.528.528 0 0 0-.002-1.056zm-2.482-1.168a1.654 1.654 0 0 1-1.652-1.652c0-.912.74-1.653 1.652-1.653.911 0 1.653.741 1.653 1.653 0 .911-.742 1.652-1.653 1.652zm0-2.18a.528.528 0 1 0 .001 1.056.528.528 0 0 0 0-1.056zm-1.143-1.947a1.654 1.654 0 0 1-1.653-1.652c0-.912.741-1.653 1.653-1.653.91 0 1.652.741 1.652 1.653 0 .911-.74 1.652-1.652 1.652zm0-2.18a.528.528 0 1 0 0 1.056.528.528 0 0 0 0-1.056zm.452-2.153a1.654 1.654 0 0 1-1.653-1.652c0-.912.742-1.653 1.653-1.653.91 0 1.652.741 1.652 1.653 0 .911-.741 1.652-1.652 1.652zm0-2.18a.528.528 0 1 0 .001 1.056.528.528 0 0 0-.001-1.056zm1.912-1.533a1.654 1.654 0 0 1-1.653-1.652c0-.912.742-1.653 1.653-1.653.91 0 1.652.741 1.652 1.653 0 .911-.742 1.652-1.652 1.652zm0-2.18a.528.528 0 1 0 .001 1.056.528.528 0 0 0-.001-1.056zm3.068-.596a1.654 1.654 0 0 1-1.653-1.652c0-.912.741-1.653 1.653-1.653.91 0 1.652.741 1.652 1.653 0 .911-.741 1.652-1.652 1.652zm0-2.18a.528.528 0 1 0 0 1.056.528.528 0 0 0 0-1.056zm3.92.646a1.655 1.655 0 0 1-1.652-1.653c0-.911.741-1.652 1.652-1.652.912 0 1.653.741 1.653 1.652 0 .911-.74 1.653-1.653 1.653zm0-2.18a.528.528 0 1 0 0 1.055.528.528 0 0 0 0-1.055zm4.372 2.179a1.655 1.655 0 0 1-1.653-1.653c0-.911.741-1.653 1.653-1.653.91 0 1.652.742 1.652 1.653s-.741 1.653-1.652 1.653zm0-2.181a.528.528 0 1 0 0 1.056.528.528 0 0 0 0-1.056zm3.922 3.712a1.654 1.654 0 0 1-1.653-1.652c0-.912.742-1.653 1.653-1.653s1.652.741 1.652 1.653c0 .911-.74 1.652-1.652 1.652zm0-2.18a.528.528 0 1 0 .001 1.056.528.528 0 0 0-.001-1.056zm3.07 4.954a1.654 1.654 0 0 1-1.653-1.653c0-.911.742-1.652 1.653-1.652s1.653.741 1.653 1.652c-.001.912-.742 1.653-1.653 1.653zm0-2.18a.527.527 0 1 0 0 1.055.527.527 0 0 0 0-1.055zm1.914 5.892a1.654 1.654 0 0 1-1.653-1.653c0-.911.741-1.652 1.653-1.652.91 0 1.652.741 1.652 1.652 0 .912-.741 1.653-1.652 1.653zm0-2.18a.527.527 0 1 0-.001 1.055.527.527 0 0 0 0-1.055zm.455 6.512a1.654 1.654 0 0 1-1.653-1.652c0-.912.741-1.653 1.653-1.653.91 0 1.652.741 1.652 1.653 0 .911-.741 1.652-1.652 1.652zm0-2.179a.527.527 0 1 0 0 1.055.527.527 0 0 0 0-1.055zm-1.141 6.308A1.655 1.655 0 0 1 74-168.318c0-.911.742-1.653 1.653-1.653s1.652.742 1.652 1.653-.74 1.653-1.652 1.653zm0-2.181a.528.528 0 1 0 .001 1.057.528.528 0 0 0-.001-1.057zm-2.48 5.531a1.655 1.655 0 0 1-1.653-1.653c0-.911.741-1.652 1.652-1.652.912 0 1.653.741 1.653 1.652 0 .911-.742 1.653-1.653 1.653zm0-2.18a.527.527 0 1 0-.001 1.055.527.527 0 0 0 0-1.055zm-3.516 4.444a1.655 1.655 0 0 1-1.653-1.653c0-.911.741-1.652 1.653-1.652.91 0 1.652.741 1.652 1.652 0 .911-.741 1.653-1.652 1.653zm0-2.18a.528.528 0 1 0 0 1.056.528.528 0 0 0 0-1.056zM6.64-173.964h.64c.054 1.055.259 2.068.597 3.022l-.586.242a.563.563 0 0 0 .43 1.04l.587-.243a10.766 10.766 0 0 0 1.713 2.561l-.45.449a.563.563 0 0 0 .795.796l.45-.449a10.777 10.777 0 0 0 2.56 1.716l-.242.582a.562.562 0 1 0 1.04.432l.241-.581c.954.339 1.968.545 3.024.599v.631a.562.562 0 0 0 1.125 0v-.631a10.68 10.68 0 0 0 3.025-.599l.24.58a.562.562 0 1 0 1.04-.43l-.242-.583a10.76 10.76 0 0 0 2.56-1.717l.45.45a.563.563 0 0 0 .795-.796l-.45-.45a10.774 10.774 0 0 0 1.713-2.561l.586.243a.563.563 0 0 0 .43-1.039l-.584-.243c.338-.954.542-1.967.597-3.023h.638a.562.562 0 1 0 0-1.125h-.64a10.67 10.67 0 0 0-.6-3.02l.59-.244a.561.561 0 1 0-.43-1.039l-.594.246a10.758 10.758 0 0 0-1.715-2.556l.458-.457a.563.563 0 1 0-.794-.796l-.46.458a10.745 10.745 0 0 0-2.556-1.71l.247-.598a.562.562 0 1 0-1.04-.431l-.246.597a10.667 10.667 0 0 0-3.017-.598v-.648a.562.562 0 1 0-1.125 0v.648c-1.054.055-2.066.26-3.018.598l-.246-.597a.563.563 0 0 0-1.04.431l.247.598a10.769 10.769 0 0 0-2.557 1.71l-.458-.459a.562.562 0 1 0-.795.795l.458.459a10.741 10.741 0 0 0-1.714 2.556l-.594-.247a.563.563 0 0 0-.43 1.04l.59.245c-.34.953-.546 1.966-.6 3.02l-.64-.001a.563.563 0 0 0-.003 1.127zM18-184.141c5.308 0 9.624 4.318 9.624 9.624 0 5.306-4.317 9.623-9.623 9.623-5.307 0-9.624-4.317-9.624-9.623 0-5.307 4.316-9.624 9.624-9.624zm11.726 18.366-10.639 6.437 7.39 4.47a.563.563 0 0 1-.582.962l-7.894-4.775-7.895 4.776a.562.562 0 1 1-.582-.961l7.39-4.471-10.639-6.437a.562.562 0 1 1 .582-.962l11.144 6.74 11.143-6.741a.562.562 0 1 1 .582.962zm-50.538-20.674a.563.563 0 0 0-.562.563v1.125h-.563v-1.125a.563.563 0 1 0-1.125 0v1.125h-.562v-1.125a.563.563 0 1 0-1.125 0v1.125h-.563v-1.125a.563.563 0 1 0-1.125 0v1.125h-.562v-1.125a.563.563 0 1 0-1.125 0v1.125h-.563v-1.125a.563.563 0 1 0-1.125 0v1.125h-.562v-1.125a.563.563 0 1 0-1.125 0v1.125h-.563v-1.125a.563.563 0 1 0-1.125 0v1.125h-.562v-1.125a.563.563 0 1 0-1.125 0v1.125h-.563v-1.125a.563.563 0 1 0-1.125 0v1.125h-.562v-1.125a.563.563 0 1 0-1.125 0v31.5a.563.563 0 0 0 1.125 0v-1.125h.562v1.125a.563.563 0 0 0 1.125 0v-1.125h.563v1.125a.563.563 0 0 0 1.125 0v-1.125h.562v1.125a.563.563 0 0 0 1.125 0v-1.125h.563v1.125a.563.563 0 0 0 1.125 0v-1.125h.562v1.125a.563.563 0 0 0 1.125 0v-1.125h.563v1.125a.563.563 0 0 0 1.125 0v-1.125h.562v1.125a.563.563 0 0 0 1.125 0v-1.125h.563v1.125a.563.563 0 0 0 1.125 0v-1.125h.562v1.125a.563.563 0 0 0 1.125 0v-1.125h.563v1.125a.563.563 0 0 0 1.125 0v-31.5a.563.563 0 0 0-.563-.563zm-16.312 4.954h15.75v22.718h-15.75v-22.718zm15.75-1.125h-15.75v-1.016h15.75v1.016zm-15.75 24.968h15.75v1.016h-15.75v-1.016zm13.089-12.309h-2.508v-.623c1.452-.925 2.276-2.474 2.167-4.115-.132-1.982-1.54-3.057-2.782-4.004-.655-.5-1.275-.973-1.616-1.513a.562.562 0 0 0-.951 0c-.341.54-.96 1.013-1.616 1.512-1.242.948-2.65 2.022-2.782 4.005-.11 1.641.714 3.19 2.166 4.115v.623h-2.507a.563.563 0 0 0-.563.562v9.044c0 .31.252.562.563.562h10.428c.31 0 .562-.252.562-.562v-9.044a.56.56 0 0 0-.561-.562zm-.563 9.043H-33.9v-7.918h2.507c.31 0 .563-.252.563-.563v-1.512a.566.566 0 0 0-.333-.509c-1.22-.688-1.922-1.912-1.837-3.205.098-1.472 1.188-2.304 2.342-3.184.493-.376.997-.761 1.41-1.201.412.44.916.825 1.409 1.201 1.153.88 2.243 1.712 2.341 3.184.085 1.282-.605 2.497-1.805 3.188a.562.562 0 0 0-.363.526v1.513c0 .31.252.562.562.562h2.508v7.918zm-37.898-19.445c-.13-1.974-1.466-3.044-2.645-3.987-.712-.571-1.385-1.109-1.676-1.765a.562.562 0 0 0-1.028 0c-.29.656-.963 1.195-1.675 1.765-1.179.943-2.515 2.013-2.646 3.987-.098 1.478.562 2.874 1.756 3.807-.29.34-.461.779-.461 1.243v11.124a5.025 5.025 0 0 0-2.426-1.629 7.177 7.177 0 0 0 1.201-4.451c-.216-3.268-2.476-5.077-4.47-6.673-1.283-1.029-2.497-2-3.05-3.238a.564.564 0 0 0-1.026.001c-.553 1.238-1.766 2.21-3.05 3.238-1.994 1.596-4.253 3.405-4.47 6.672a7.176 7.176 0 0 0 1.201 4.451 5.009 5.009 0 0 0-3.55 4.788v6.644c0 .31.251.562.562.562h17.623c.015.002.03.002.046.002h5.61c.015 0 .03 0 .046-.002l2.271.001a.56.56 0 0 0 .563-.563v-20.926c0-.465-.17-.904-.462-1.244 1.195-.933 1.854-2.329 1.756-3.807zm-23.514 20.995a.736.736 0 0 1-.051-.325c.02-.316.249-.512.62-.806a9.92 9.92 0 0 0 .222-.178c.073.061.148.12.221.178.372.294.601.49.621.806a.754.754 0 0 1-.034.279.559.559 0 0 0-.064.261v4.204h-1.499v-4.132a.562.562 0 0 0-.036-.287zm4.662-1.425a.821.821 0 0 1-.072-.399c.028-.389.34-.637.849-.999.14-.099.28-.2.414-.309.134.109.275.21.415.309.509.362.82.609.847 1a.813.813 0 0 1-.05.345.559.559 0 0 0-.078.287v5.609h-2.284v-5.528a.553.553 0 0 0-.041-.315zm5.463 1.424a.729.729 0 0 1-.052-.324c.02-.316.25-.512.621-.806a9.92 9.92 0 0 0 .222-.178c.072.061.147.12.22.178.373.294.602.49.622.806a.746.746 0 0 1-.035.279.566.566 0 0 0-.064.261v4.204h-1.498v-4.132a.555.555 0 0 0-.036-.288zm10.379-17.709a.564.564 0 0 0 .072 1.023c.31.114.518.413.518.742v20.364l-1.755-.001-.047.002h-5.515a.714.714 0 0 0-.047-.002h-.946v-4.09c.08-.234.112-.477.096-.725-.053-.833-.627-1.286-1.046-1.617-.186-.147-.363-.286-.439-.411a.561.561 0 0 0-.96-.001c-.076.125-.252.264-.438.412-.42.33-.994.784-1.047 1.616-.015.236.013.469.085.691v4.125h-.923v-5.482a1.94 1.94 0 0 0 .126-.841c-.067-.946-.79-1.46-1.318-1.836-.252-.179-.49-.349-.6-.511a.563.563 0 0 0-.932-.001c-.11.163-.349.333-.6.512-.529.375-1.252.89-1.32 1.837-.019.275.018.543.111.8v5.522h-.92v-4.09c.08-.234.113-.478.097-.726-.053-.832-.628-1.286-1.047-1.617-.186-.147-.362-.286-.438-.411a.564.564 0 0 0-.96 0c-.077.125-.253.264-.439.411-.419.331-.993.785-1.047 1.617-.015.236.014.469.086.691v4.125h-2.288v-6.082a3.891 3.891 0 0 1 3.469-3.86.563.563 0 0 0 .366-.923c-1.065-1.252-1.593-2.807-1.488-4.381.184-2.773 2.15-4.347 4.05-5.869 1.094-.876 2.14-1.713 2.86-2.752.72 1.039 1.767 1.876 2.86 2.752 1.902 1.522 3.867 3.096 4.05 5.869.105 1.574-.423 3.129-1.487 4.381a.562.562 0 0 0 .366.923 3.892 3.892 0 0 1 3.469 3.86.563.563 0 0 0 1.125 0v-14.282c0-.329.209-.628.518-.742a.562.562 0 0 0 .072-1.024c-1.251-.672-1.974-1.903-1.887-3.211.098-1.48 1.131-2.307 2.225-3.183.528-.423 1.068-.855 1.487-1.368.42.513.96.945 1.487 1.368 1.094.876 2.128 1.703 2.226 3.183.087 1.31-.636 2.54-1.888 3.213z" fill="url(#b)"/></g><defs><linearGradient id="b" x1="-86.986" y1="-186.45" x2="144.67" y2="-87.206" gradientUnits="userSpaceOnUse"><stop stop-color="#007CBC"/><stop offset="1" stop-color="#B41E85"/></linearGradient><clipPath id="a"><path fill="#fff" d="M0 0h36v36H0z"/></clipPath></defs></svg>