<svg width="36" height="36" fill="none" xmlns="http://www.w3.org/2000/svg"><g clip-path="url(#a)"><path d="M62.94 51.96H49.5a.563.563 0 0 0-.561.588l1.221 26.124c.014.3.262.536.562.536H61.72c.3 0 .548-.236.562-.536l1.222-26.124a.564.564 0 0 0-.562-.589zm-.589 1.124-.218 4.668c-1.85-1.375-3.984-.21-5.912.878-1.927-1.088-4.063-2.253-5.913-.878l-.218-4.668H62.35zm-7.298 6.185c-1.899.99-3.274 1.32-4.53-.199 1.203-1.337 2.575-.864 4.53.2zm6.13 18.814h-9.924l-.82-17.538c.65.487 1.334.682 2.026.682 1.446 0 2.929-.838 4.231-1.573 2.418-1.367 3.993-2.12 5.367-.407l-.88 18.836zm16.345-7.911c-1.188-.26-2.376-.226-3.342.096-1.068.355-1.76 1.02-1.944 1.87-.084.382-.045.775.088 1.166-.232.05-.457.109-.67.18.369-1.318.156-2.495-.652-3.155-1.324-1.081-3.68-.315-5.363 1.747-.77.943-1.278 2.016-1.428 3.024-.167 1.113.112 2.03.786 2.58.405.331.907.489 1.458.489.887 0 1.9-.41 2.836-1.17.54 1.304 2.355 2.24 4.578 2.24 2.633 0 4.699-1.312 4.743-2.995 1.547-.205 2.659-.986 2.898-2.082.364-1.67-1.387-3.423-3.988-3.99zM65.715 76.81c-.48-.391-.448-1.135-.387-1.543.122-.81.544-1.69 1.187-2.478 1.35-1.653 3.075-2.165 3.78-1.588.628.514.535 1.824-.21 3.138-.392.334-.679.723-.83 1.15-1.22 1.335-2.792 1.934-3.54 1.32zm8.16 1.304c-2.134 0-3.621-1.014-3.621-1.924 0-.91 1.487-1.924 3.62-1.924 2.135 0 3.622 1.014 3.622 1.924 0 .91-1.487 1.924-3.621 1.924zm6.542-4.192c-.14.637-.957 1.105-2.078 1.223-.651-1.18-2.378-2.004-4.464-2.004-.135 0-.267.006-.398.012-.116-.225-.198-.496-.137-.776.132-.603.81-.912 1.2-1.043.779-.258 1.755-.281 2.75-.064 2.083.456 3.32 1.764 3.127 2.653zm-6.729-11.558c4.343 0 7.875-3.532 7.875-7.875 0-4.342-3.532-7.875-7.875-7.875-4.342 0-7.875 3.533-7.875 7.875 0 4.343 3.533 7.875 7.875 7.875zm0-14.625a6.758 6.758 0 0 1 6.75 6.75 6.758 6.758 0 0 1-6.75 6.75 6.757 6.757 0 0 1-6.75-6.75 6.758 6.758 0 0 1 6.75-6.75zm-4.285 26.953-.608.353c-.33.181-.71.393-.87.489-.103.17-.334.58-.527.93a.563.563 0 1 1-.986-.54c.599-1.09.652-1.14.72-1.206.057-.054.113-.106 1.11-.653l.444-.257.414-.895a.562.562 0 1 1 1.02.474l-.489 1.055a.557.557 0 0 1-.228.25zm-1.726-1.381a.561.561 0 0 0 .375-.143l.58-.518a.563.563 0 0 0-.75-.84l-.58.519a.563.563 0 0 0 .375.982zm7.854 2.958c-.393.073-.858.153-1.054.181-.176-.064-.58-.222-.929-.364l-.659-.248a.565.565 0 0 0-.338-.019l-1.127.289a.563.563 0 0 0 .279 1.09l.955-.245.48.181c1.053.426 1.13.436 1.209.446.019.003.038.005.067.005.108 0 .357-.032 1.32-.209a.562.562 0 0 0-.203-1.107zm-1.606-.637.588.22c.063.024.13.036.198.036h.706a.562.562 0 1 0 0-1.125h-.605l-.492-.184a.562.562 0 0 0-.395 1.053zm5.546-3.035-1.809-.476-.804-.528a.492.492 0 0 0-.327-.09l-1.163.041a.562.562 0 0 0-.541.582c.01.31.271.578.582.542l.985-.035.716.473c.053.036.11.063.173.08l1.902.498a.562.562 0 1 0 .286-1.088zm-6.345-17.139v1.965a.562.562 0 1 0 1.125 0v-1.965a1.118 1.118 0 0 0 0-1.938v-3.431a.562.562 0 1 0-1.125 0v3.431a1.118 1.118 0 0 0 0 1.938zM20.76 67.091h-.553a1.655 1.655 0 0 0-.369-1.69 1.576 1.576 0 0 0-1.145-.494H16.89c.02-.032.044-.06.063-.093.29-.502.32-1.027.082-1.44-.14-.242-.502-.649-1.353-.649l-6.406-.004h-.004c-1.545 0-3.03.645-4.114 1.777H2.251a.562.562 0 0 0-.563.563v7.35c0 .312.252.563.563.563h2.908a5.708 5.708 0 0 0 4.112 1.777l8.12.005a.558.558 0 0 0 .068-.005c.856-.036 1.542-.763 1.542-1.65a1.7 1.7 0 0 0-.09-.528h.576c.434 0 .841-.174 1.146-.491a1.667 1.667 0 0 0 .365-1.71 1.636 1.636 0 0 0 1.397-1.63 1.635 1.635 0 0 0-1.634-1.65zm.05 2.178a.514.514 0 0 0-.056-.003l-7.664-.003a.562.562 0 0 0-.562.562V69.834c0 .31.251.563.562.563l6.352.002c.03 0 .06-.003.043-.005.268 0 .484.237.484.528 0 .146-.053.28-.15.382a.462.462 0 0 1-.334.146l-6.395-.004a.562.562 0 0 0-.563.562v.011c0 .31.25.563.562.563h4.246a.206.206 0 0 0 .055-.008c.126 0 .245.052.335.147.097.1.15.236.15.381 0 .29-.218.527-.485.527a.594.594 0 0 0-.055.003l-8.065-.004a4.59 4.59 0 0 1-3.44-1.585.56.56 0 0 0-.424-.192H2.813v-6.226h2.594a.562.562 0 0 0 .45-.223 4.588 4.588 0 0 1 3.415-1.554h.003l6.407.004c.272 0 .367.068.378.086.013.023.018.14-.082.316-.189.325-.632.653-1.201.653l-4.531-.006v.004h-.002a.562.562 0 1 0 0 1.125l8.45.004a.46.46 0 0 1 .333.147c.096.1.15.236.15.381 0 .29-.217.527-.436.53h-.008a1.13 1.13 0 0 0-.1-.008l-5.54-.003a.563.563 0 0 0-.563.562l-.001.008c0 .31.251.563.562.563l7.665.004.048-.002c.259.01.466.243.466.527 0 .28-.204.511-.458.526zm12.94-16.395h-2.908a5.704 5.704 0 0 0-4.114-1.777h-.004l-6.406.004c-.851 0-1.213.407-1.353.65-.238.412-.208.937.082 1.44.02.031.043.06.063.092h-1.805c-.434 0-.84.176-1.145.493a1.646 1.646 0 0 0-.368 1.69l-.52.002a.491.491 0 0 0-.06-.003c-.887 0-1.608.742-1.607 1.653a1.636 1.636 0 0 0 1.396 1.63 1.666 1.666 0 0 0 .365 1.71 1.58 1.58 0 0 0 1.146.492h.002l.574-.001c-.055.169-.09.345-.09.528 0 .886.686 1.613 1.542 1.65a.573.573 0 0 0 .069.005l8.12-.005a5.706 5.706 0 0 0 4.11-1.777h2.91a.562.562 0 0 0 .563-.563v-7.35a.562.562 0 0 0-.562-.563zm-.563 7.351h-2.593a.561.561 0 0 0-.423.192 4.596 4.596 0 0 1-3.442 1.585l-8.065.005a.579.579 0 0 0-.055-.003c-.267 0-.485-.237-.485-.528 0-.145.053-.28.15-.38a.456.456 0 0 1 .312-.148c.025.003.086.009.11.009l4.214-.001a.562.562 0 0 0 .562-.563l-.001-.007v-.004a.562.562 0 0 0-.562-.561l-6.395.003a.462.462 0 0 1-.335-.146.548.548 0 0 1-.15-.382c0-.28.201-.51.469-.528a.821.821 0 0 0 .075.005l6.336-.003a.562.562 0 0 0 .563-.562l-.002-.005.002-.004a.562.562 0 0 0-.563-.563l-7.694.004-.027.003c-.255-.015-.458-.246-.458-.528 0-.283.207-.515.466-.526a.96.96 0 0 0 .047.002l7.666-.005c.31 0 .562-.252.562-.563l-.001-.007a.562.562 0 0 0-.563-.563l-5.586.005-.012.006c-.267-.001-.485-.239-.485-.53 0-.145.053-.28.15-.38a.46.46 0 0 1 .333-.148l8.449-.003a.562.562 0 1 0 0-1.125h-.002v-.004l-4.53.005h-.001c-.569 0-1.013-.328-1.201-.653-.1-.175-.095-.292-.082-.315.01-.018.105-.086.378-.086l6.407-.004h.003a4.59 4.59 0 0 1 3.415 1.553.562.562 0 0 0 .45.224h2.594v6.227zm-46.916 5.56a3.813 3.813 0 0 0-2.6-1.556c-1.395-.183-2.428.036-3.259.212-.543.115-.978.202-1.402.175.474-2.08-.11-5.22-3.043-6.612l-11.844-4.464a6.32 6.32 0 0 0-8.453 5.94c0 3.38 2.096 6.153 6.73 8.833h-5.777a2.19 2.19 0 0 0-2.187 2.187 2.19 2.19 0 0 0 2.188 2.187l9.784-.001c1.062 0 2.405-.53 3.198-1.417a.554.554 0 0 0 .38.168c.106 0 .212-.03.307-.09l.165-.107.631 1.154a.143.143 0 0 0 .044.05.553.553 0 0 0 .45.243h5.369a.31.31 0 0 0 .128-.022.555.555 0 0 0 .409-.374.563.563 0 0 0-.37-.705l-4.033-1.253-.337-.582.298-.193a6.839 6.839 0 0 0 1.84.245c.865 0 1.76-.153 2.49-.513h.006c.16-.06.458.01.716.113.035.652.375 1.435 1.538 2.061.955.514 2.143.752 2.972.86.025.004.05.005.074.005.14.016.28.028.42.028 1.968 0 3.655-1.534 3.922-3.57a4.143 4.143 0 0 0-.754-3.001zm-20.386-1.432a1.052 1.052 0 0 1-.202-.621v-.002c0-.585.477-1.06 1.062-1.06h7.063a.944.944 0 0 1 0 1.886h-3.235a.562.562 0 0 0-.562.562c0 .09.026.172.063.247.007.017.01.032.022.05l2.09 3.36-2.062 1.339-4.24-5.76zm6.337 6.733c.07.122.185.213.32.255l.707.22h-1.333l-.513-.937.4-.259.419.72zm1.1-2.618-1.735-2.787h2.221a2.07 2.07 0 0 0 0-4.137h-7.137c-.026 0-.048.011-.074.014a2.18 2.18 0 0 0-1.755 1.117l-1.769-1.395a.563.563 0 0 0-.696.883l2.194 1.732a2.168 2.168 0 0 0 .405 1.121l3.93 5.34c-.496.704-1.646 1.204-2.498 1.204l-9.785.001a1.063 1.063 0 0 1-1.062-1.061c0-.586.477-1.063 1.063-1.063h8.008c.025 0 .038-.011.06-.014a.556.556 0 0 0 .443-.296.563.563 0 0 0-.251-.755c-7.129-3.571-8.09-6.499-8.09-8.893a5.193 5.193 0 0 1 6.94-4.885l11.793 4.444c2.544 1.207 2.853 4.133 2.263 5.768-.361.602-1.097 2.011-1.165 3.588-.997.38-2.387.344-3.304.074zm5.909.662a.564.564 0 0 0-.272-.558c-.127-.075-.624-.344-1.186-.41.103-1 .507-1.905.809-2.465.195.034.387.055.576.055.502 0 .986-.103 1.488-.21.658-.14 1.392-.292 2.318-.246l-.764 5.82c-.807-.147-1.517-.366-2.03-.643-1.042-.562-.965-1.15-.94-1.343zm6.68-.49c-.184 1.4-1.278 2.474-2.59 2.582l.753-5.746c.508.181.954.515 1.288.973.457.624.652 1.404.548 2.191zm-55.649 1.026a.56.56 0 0 0-.239-1.067h1.456a.562.562 0 1 0 0-1.125h-2.865a.555.555 0 0 0-.499-.439l-4.95-1.025.026-.702c.128-3.21.283-7.183-1.22-8.854-.076-.176-.04-.485.03-.756 1.52-.268 2.386-2.045 2.399-4.967.002-.022.012-.04.012-.062a.581.581 0 0 0-.013-.121c-.067-2.18-1.934-3.933-4.221-3.933-2.33 0-4.225 1.819-4.225 4.054 0 1.459.365 2.494.659 3.325.216.612.377 1.09.375 1.59-2.029.351-3.107 2.726-3.107 4.481v13.129c0 .796.36 1.504.916 1.992a2.244 2.244 0 0 0-.916 1.803 2.254 2.254 0 0 0 2.252 2.251h11.95a5.045 5.045 0 0 0 5.039-5.038c-.001-1.997-1.171-3.72-2.859-4.536zm-2.75-.557c-1.848-.159-7.021-.572-8.582-.696l-1.207-7.39a1.16 1.16 0 0 1 1.159-1.119c.64 0 1.16.52 1.162 1.209l.218 2.54c.102 1.184.165 1.91.233 2.353a.562.562 0 0 0 .131.518c.082.164.189.18.356.182l6.53 1.352v1.05zm-5.927-14.502a.562.562 0 0 0-.517.342c-.038.089-.27.674-.258 1.293-1.174.048-2.115-.27-2.7-.504.038-.759-.193-1.424-.439-2.12-.235-.667-.495-1.41-.57-2.387h6.158c-.06 1.152-.349 3.376-1.674 3.376zm-1.408-6.868c1.505 0 2.762 1.02 3.04 2.367h-6.082c.278-1.347 1.536-2.367 3.042-2.367zm7.904 30.375h-11.95a1.128 1.128 0 0 1 0-2.254c.058 0 .11-.016.162-.032.082.007.162.024.246.024l10.306.008a.563.563 0 0 0 0-1.125l-10.305-.008a1.537 1.537 0 0 1-1.535-1.535V60.064c0-1.127.724-3.314 2.395-3.403l.019.008c.619.26 2.021.848 3.835.67 1.073 1.434.924 5.165.813 7.923l-.02.515-.48-.1c-.105-1.2-.398-4.613-.4-4.613a2.288 2.288 0 0 0-2.284-2.285 2.287 2.287 0 0 0-2.285 2.285c0 .03.002.06.007.09l1.285 7.875c.042.256.253.45.511.47.09.008 8.976.714 9.612.785a.59.59 0 0 0 .062.003h.006a3.918 3.918 0 0 1 3.914 3.914 3.918 3.918 0 0 1-3.914 3.913zM72.208 15.088h-3.282v-1.732c1.356-1.333 2.172-3.46 2.172-6.048 0-.007-.004-.014-.004-.022l.003-.021C70.763 3.029 68.85.97 65.25.97S59.74 3.03 59.406 7.265c0 .007.003.014.002.021 0 .008-.004.015-.004.022 0 2.587.816 4.715 2.172 6.048v1.732h-3.284a5.985 5.985 0 0 0-5.977 5.978v9.385a3.148 3.148 0 0 0 3.144 3.144h6.395a.561.561 0 0 0 .561-.556h5.671a.562.562 0 0 0 .561.556h6.393a3.148 3.148 0 0 0 3.144-3.144v-9.385a5.983 5.983 0 0 0-5.976-5.978zM65.252 2.095c2.809 0 4.265 1.441 4.662 4.651H60.59c.398-3.21 1.854-4.65 4.663-4.65zm-4.704 5.776h9.408c-.105 2.097-.796 3.77-1.903 4.785a.593.593 0 0 0-.12.107 4.05 4.05 0 0 1-2.681.98 4.051 4.051 0 0 1-2.682-.98.549.549 0 0 0-.12-.107c-1.106-1.015-1.798-2.688-1.903-4.785zm4.704 6.997c.937 0 1.793-.238 2.549-.663v1.446a2.552 2.552 0 0 1-2.55 2.55 2.552 2.552 0 0 1-2.549-2.55v-1.446a5.141 5.141 0 0 0 2.55.663zm2.834 17.045H67.04a2.85 2.85 0 0 0 .613-1.754 2.85 2.85 0 0 0-.608-1.749h1.042v3.503zm-3.62 0h-2.049v-3.505c.009 0 .015-.004.023-.004h2.097c.01 0 .019.006.03.006h.268a1.754 1.754 0 0 1 1.694 1.75c0 .967-.787 1.753-1.754 1.753h-.31zm12.594-1.462c0 1.113-.905 2.02-2.02 2.02h-5.829V28.41h3.01a.562.562 0 0 0 .562-.563v-4.135a.562.562 0 1 0-1.125 0v3.573h-6.75a.549.549 0 0 0 .12-.332.562.562 0 0 0-.563-.563H62.41a.562.562 0 0 0-.562.563v.328c-.008 0-.015.004-.023.004h-2.98v-3.573a.562.562 0 1 0-1.124 0v4.136c0 .31.251.562.562.562h3.01v4.06H55.46a2.022 2.022 0 0 1-2.02-2.02v-9.384a4.858 4.858 0 0 1 4.853-4.853h3.332a3.677 3.677 0 0 0 3.627 3.113 3.677 3.677 0 0 0 3.626-3.113h3.33a4.858 4.858 0 0 1 4.852 4.853v9.385zm-46.782-5.206c-1.188-.26-2.376-.225-3.342.097-1.068.355-1.76 1.02-1.944 1.869-.084.383-.045.776.088 1.166-.232.05-.457.11-.67.18.369-1.317.156-2.494-.652-3.154-1.324-1.082-3.68-.315-5.363 1.747-.77.942-1.278 2.016-1.428 3.024-.167 1.113.112 2.029.786 2.58.405.331.907.489 1.458.489.887 0 1.9-.411 2.836-1.171.54 1.305 2.355 2.24 4.578 2.24 2.633 0 4.698-1.31 4.743-2.993 1.546-.206 2.658-.986 2.897-2.083.365-1.67-1.386-3.423-3.987-3.99zm-11.813 6.639c-.48-.392-.448-1.135-.387-1.543.122-.81.544-1.69 1.187-2.479 1.35-1.652 3.076-2.164 3.78-1.587.628.513.535 1.823-.21 3.137-.392.335-.679.724-.83 1.15-1.22 1.335-2.792 1.935-3.54 1.322zm8.16 1.304c-2.134 0-3.621-1.014-3.621-1.924 0-.91 1.487-1.924 3.62-1.924 2.135 0 3.622 1.014 3.622 1.924 0 .91-1.487 1.924-3.621 1.924zm6.542-4.192c-.14.637-.957 1.105-2.078 1.223-.651-1.18-2.378-2.004-4.464-2.004-.135 0-.267.006-.398.012-.116-.225-.198-.496-.137-.777.132-.603.81-.911 1.2-1.042.779-.259 1.755-.281 2.75-.065 2.083.457 3.32 1.764 3.127 2.653zM15.69 7.033H2.25a.563.563 0 0 0-.562.589L2.91 33.745c.014.3.262.536.562.536H14.47c.3 0 .548-.236.562-.536l1.222-26.123a.564.564 0 0 0-.562-.59zm-.59 1.125-.218 4.668c-1.85-1.375-3.984-.211-5.912.878-1.928-1.088-4.063-2.253-5.913-.878L2.84 8.158H15.1zm-7.298 6.185c-1.898.989-3.274 1.32-4.53-.2 1.203-1.336 2.575-.864 4.53.2zm6.13 18.813H4.009l-.82-17.537c.65.488 1.334.682 2.026.682 1.446 0 2.929-.837 4.231-1.573 2.418-1.367 3.993-2.12 5.367-.407l-.88 18.835zM26.438 1.688c-4.342 0-7.875 3.532-7.875 7.875 0 4.342 3.533 7.875 7.875 7.875 4.343 0 7.875-3.533 7.875-7.875 0-4.343-3.532-7.875-7.875-7.875zm0 14.625a6.757 6.757 0 0 1-6.75-6.75 6.757 6.757 0 0 1 6.75-6.75 6.758 6.758 0 0 1 6.75 6.75 6.758 6.758 0 0 1-6.75 6.75zM19.654 31.83a.562.562 0 0 1-.492-.833c.599-1.09.652-1.14.72-1.205.057-.054.113-.107 1.11-.654l.444-.257.414-.894a.562.562 0 1 1 1.02.474l-.489 1.055a.561.561 0 0 1-.228.25l-.609.352c-.33.182-.709.394-.87.49-.103.169-.334.58-.527.93a.56.56 0 0 1-.493.292zm1.148-3.588.58-.518a.563.563 0 0 0-.75-.84l-.58.519a.563.563 0 0 0 .75.839zm7.683 4.207a.563.563 0 0 0-.203-1.106c-.393.073-.858.153-1.055.181-.176-.064-.58-.223-.928-.364l-.66-.248a.57.57 0 0 0-.338-.02l-1.126.29a.563.563 0 0 0 .279 1.09l.954-.245.48.181c1.054.426 1.131.436 1.21.446.018.003.038.005.067.005.107 0 .357-.032 1.32-.21zm.244-2.05a.562.562 0 0 0-.563-.563h-.604l-.492-.183a.562.562 0 1 0-.395 1.053l.588.22c.063.024.13.036.198.036h.706c.31 0 .562-.252.562-.563zm3.893-2.042c.08-.3-.1-.608-.4-.687l-1.81-.476-.804-.528a.497.497 0 0 0-.327-.09l-1.163.041a.562.562 0 1 0 .04 1.124l.986-.035.716.473c.053.036.11.063.173.08l1.902.499a.561.561 0 0 0 .687-.401zm-3.361-17.788L27.563 9.56a1.121 1.121 0 0 0-.562-.967V5.162a.562.562 0 1 0-1.125 0v3.432a1.12 1.12 0 0 0-.563.969c0 .62.504 1.125 1.125 1.125.204 0 .393-.059.559-.154l1.689 1.003a.563.563 0 1 0 .575-.968zM-13.5 25.313h-5.661c-.295-5.316-4.7-9.554-10.09-9.554-5.388 0-9.793 4.238-10.088 9.554h-5.661a.562.562 0 1 0 0 1.125h31.5a.562.562 0 1 0 0-1.125zm-24.725 0c.291-4.697 4.205-8.43 8.975-8.43 4.769 0 8.683 3.733 8.974 8.43h-17.95zm8.412-11.246v-3.942a.562.562 0 1 1 1.125 0v3.942a.562.562 0 1 1-1.125 0zm5.044 1.408a.56.56 0 0 0 .735-.304l1.51-3.642a.563.563 0 0 0-1.04-.43l-1.51 3.64a.563.563 0 0 0 .305.736zm4.055 2.596a.564.564 0 0 0 .398-.164l2.789-2.785a.563.563 0 0 0-.795-.796l-2.79 2.784a.563.563 0 0 0 .398.961zm2.049 3.482a.562.562 0 0 0 .734.305l3.644-1.505a.562.562 0 1 0-.43-1.04l-3.643 1.505a.563.563 0 0 0-.305.735zm-15.801-6.383a.563.563 0 0 0 1.038-.43l-1.51-3.642a.563.563 0 1 0-1.039.431l1.51 3.642zm-3.718 2.737a.563.563 0 0 0 .795-.797l-2.789-2.784a.563.563 0 0 0-.794.796l2.788 2.785zm-6.03 2.446 3.644 1.505a.562.562 0 1 0 .43-1.04l-3.644-1.504a.562.562 0 1 0-.43 1.04zM-79.13 8.093c-.324 0-.626.084-.898.22a2.02 2.02 0 0 0-2.017-1.991c-.365 0-.702.104-.998.274a2.016 2.016 0 0 0-1.918-1.418c-.903 0-1.66.599-1.918 1.418a1.991 1.991 0 0 0-.997-.274c-1.114 0-2.02.906-2.02 2.02v6.615l-2.67 1.814a.563.563 0 0 0-.246.465v3.642c0 1.038.479 1.967 1.226 2.578 0 0 0 .002.002.002 1.213 1.098 2.522 2.668 2.522 3.295.004.684 0 3.507 0 3.508a.565.565 0 0 0 .563.563h9.336c.31 0 .563-.252.563-.563v-3.173c.534-.326 1.482-1.114 1.482-2.61l-.001-14.242c.004-.026.01-.095.01-.122a2.022 2.022 0 0 0-2.02-2.02zm-8.746-.647c.494 0 .896.402.896.896v5.882a2.001 2.001 0 0 0-.896-.219c-.313 0-.617.075-.895.214V8.342c0-.494.402-.896.895-.896zm9.634 2.744v14.288c0 1.264-1.086 1.73-1.128 1.747a.563.563 0 0 0-.355.523v2.95h-8.21c0-.862.002-2.46-.001-2.95 0-.753-.662-1.728-1.362-2.55a3.332 3.332 0 0 0 3.148-3.322.562.562 0 1 0-1.125 0c0 1.217-.99 2.206-2.205 2.206a2.208 2.208 0 0 1-2.205-2.206v-3.343l3.272-2.223a.888.888 0 0 1 .538-.179c.494 0 .895.402.895.896a.897.897 0 0 1-.387.735l-.012.008-2.246 1.364a.562.562 0 1 0 .585.962l2.275-1.383a2.019 2.019 0 0 0 .906-1.646c0-.009.004-.015.004-.023V7.198c0-.494.402-.895.895-.895s.895.401.895.895v8.844a.562.562 0 1 0 1.125 0v-7.7c0-.494.401-.896.895-.896.493 0 .895.402.895.896V16.042a.562.562 0 1 0 1.125 0v-5.928c0-.494.401-.896.895-.896.493 0 .895.402.896.86a1.415 1.415 0 0 0-.008.112zm17.81 6.58-2.67-1.813V8.342a2.023 2.023 0 0 0-2.02-2.02c-.364 0-.701.104-.997.273a2.017 2.017 0 0 0-1.918-1.418c-.903 0-1.66.6-1.918 1.418a1.991 1.991 0 0 0-.997-.274 2.02 2.02 0 0 0-2.017 1.992 1.998 1.998 0 0 0-.899-.22c-1.113 0-2.02.906-2.02 2.02 0 .042.007.087.008.077v14.288c0 1.495.948 2.284 1.483 2.61v3.173c0 .31.252.562.563.562h9.336a.562.562 0 0 0 .562-.563s-.004-2.824 0-3.511c0-.623 1.31-2.193 2.523-3.292l.001-.002a3.325 3.325 0 0 0 1.226-2.578v-3.642a.562.562 0 0 0-.246-.465zm-4.69-9.324c.494 0 .896.402.896.896v5.877a2.003 2.003 0 0 0-.895-.213c-.323 0-.625.083-.896.218V8.342c0-.494.402-.896.896-.896zm.061 19.3c-.002.492-.001 2.09 0 2.952h-8.21V26.75c0-.23-.142-.438-.356-.523-.011-.005-1.128-.463-1.128-1.748V10.16c-.002-.026-.004-.056-.007-.045a.896.896 0 0 1 1.79-.001v5.93a.562.562 0 1 0 1.125 0V8.343c0-.495.401-.897.895-.897.493 0 .895.402.895.896v7.7a.562.562 0 1 0 1.125 0V7.199c0-.494.401-.895.895-.895.493 0 .895.401.895.895v8.844c0 .01.004.016.005.025a2.02 2.02 0 0 0 .935 1.663l2.246 1.364a.562.562 0 1 0 .584-.96l-2.238-1.359a.897.897 0 0 1-.407-.749.897.897 0 0 1 1.433-.717l3.272 2.223v3.344a2.208 2.208 0 0 1-2.204 2.205 2.208 2.208 0 0 1-2.206-2.205.562.562 0 1 0-1.125 0 3.332 3.332 0 0 0 3.148 3.32c-.7.824-1.362 1.798-1.362 2.55zM61.296-32.348h-3.583a.562.562 0 0 0-.562.562v3.626c0 .311.251.563.562.563h3.583a.562.562 0 0 0 .563-.563v-3.626a.562.562 0 0 0-.563-.562zm-.562 3.625h-2.458v-2.5h2.458v2.5zm-5.198-3.625h-.189a4.43 4.43 0 0 0-4.425 4.425v3.389c0 .31.251.562.563.562h4.05a.562.562 0 0 0 .563-.562v-7.253a.562.562 0 0 0-.562-.561zm-.563 7.252h-2.926v-2.826a3.306 3.306 0 0 1 2.926-3.28v6.106zm26.028-9.235h-3.42v-3.777a.562.562 0 0 0-.563-.563h-5.49v-.814a.562.562 0 0 0-.562-.562h-8.913a.562.562 0 0 0-.562.562v2.857h-3.7a.562.562 0 0 0-.563.563v1.734h-2.444a5.852 5.852 0 0 0-5.846 5.846v7.15a2.05 2.05 0 0 0 2.048 2.047h2.132a3.13 3.13 0 0 0 3.073 2.565 3.13 3.13 0 0 0 3.074-2.565h9.751a3.13 3.13 0 0 0 3.073 2.565 3.13 3.13 0 0 0 3.074-2.565h4.353a2.05 2.05 0 0 0 2.048-2.048v-12.433a.563.563 0 0 0-.563-.562zm-4.545 0h-10.98v-3.215h10.98v3.215zm-13.84-4.591h7.787v.251h-5.49a.562.562 0 0 0-.562.563v1.48h-1.735v-2.294zm-4.263 3.42h5.998v1.17h-5.998v-1.17zM56.19-17.849a2.004 2.004 0 0 1-2.001-2.002c0-1.104.898-2.003 2.002-2.003 1.103 0 2.002.899 2.002 2.003a2.005 2.005 0 0 1-2.003 2.002zm15.898 0a2.004 2.004 0 0 1-2.001-2.002c0-1.104.897-2.003 2-2.003 1.105 0 2.003.899 2.003 2.003a2.004 2.004 0 0 1-2.002 2.002zm8.35-3.488a.924.924 0 0 1-.924.923h-4.353a3.13 3.13 0 0 0-3.073-2.565 3.13 3.13 0 0 0-3.073 2.565h-9.752a3.13 3.13 0 0 0-3.073-2.565 3.13 3.13 0 0 0-3.074 2.565h-2.131a.924.924 0 0 1-.923-.923v-7.15a4.727 4.727 0 0 1 4.721-4.72h25.654v11.87zM67.041-32.348H63.46a.562.562 0 0 0-.563.562v3.626c0 .311.252.563.563.563h3.583a.562.562 0 0 0 .563-.563v-3.626a.562.562 0 0 0-.563-.562zm-.562 3.625H64.02v-2.5h2.459v2.5zm6.307-3.625h-3.583a.562.562 0 0 0-.562.562v3.626c0 .311.251.563.562.563h3.584a.562.562 0 0 0 .562-.563v-3.626a.562.562 0 0 0-.563-.562zm-.562 3.625h-2.458v-2.5h2.458v2.5zm2.163-3.063v3.626c0 .311.251.563.562.563h3.583a.562.562 0 0 0 .563-.563v-3.626a.562.562 0 0 0-.563-.562H74.95a.562.562 0 0 0-.562.562zm1.125.563h2.458v2.5h-2.458v-2.5zm-41.45-4.39c-.162-.206-.466-.26-.703-.15a4.288 4.288 0 0 1-1.822.405 4.345 4.345 0 0 1-3.924-2.497c-1.007-2.162-.067-4.74 2.05-5.73.022-.007.092-.038.112-.049a.563.563 0 0 0-.24-1.062l-.18-.002a5.99 5.99 0 0 0-2.546.566 5.988 5.988 0 0 0-3.118 3.4 5.995 5.995 0 0 0 .2 4.611 6.054 6.054 0 0 0 5.469 3.483 5.98 5.98 0 0 0 2.543-.565 5.98 5.98 0 0 0 2.183-1.724c.161-.205.137-.481-.024-.686zm-2.635 1.39a4.86 4.86 0 0 1-2.068.46 4.927 4.927 0 0 1-4.45-2.833 4.876 4.876 0 0 1-.162-3.75 4.87 4.87 0 0 1 2.536-2.766c.01-.005.018-.01.027-.013a5.456 5.456 0 0 0-.717 5.745 5.473 5.473 0 0 0 4.857 3.147l-.023.01zm-12.27-.482a.565.565 0 0 0-.732-.31l-2.538 1.032a.565.565 0 0 0-.31.733l.25.614-5.033 2.044a.563.563 0 0 0-.31.733l.002.005-8.36 3.949a.563.563 0 0 0-.281.72l1.409 3.466a.563.563 0 0 0 .703.32l8.703-2.987v7.336l-3.395 4.052a.563.563 0 0 0 .863.723l3.096-3.694 3.096 3.694a.563.563 0 0 0 .863-.723l-3.397-4.053v-7.177l4.685-1.904.249.612a.565.565 0 0 0 .733.31l2.539-1.032a.563.563 0 0 0 .309-.733l-3.143-7.73zm-16.07 9.59 7.823-3.696 1.368 3.368-8.182 2.808-1.008-2.48zm10.448-.225-1.796-4.422 4.512-1.833 1.796 4.421-4.512 1.834zm6.014-1.123-.248-.611v-.003l-.002-.001-2.218-5.46v-.001l-.25-.614 1.496-.607 2.72 6.688-1.498.609zm-32.487-6.773v-2.896a.561.561 0 0 0-.794-.512l-.401.18v-.802l-.001-.007c0-.019-.008-.037-.01-.056a.573.573 0 0 0-.035-.152c-.003-.006-.002-.012-.004-.017-.008-.018-.023-.029-.032-.044a.546.546 0 0 0-.08-.112c-.021-.02-.042-.036-.065-.053a.547.547 0 0 0-.186-.094c-.02-.005-.036-.017-.056-.02l-3.234-.547a.583.583 0 0 0-.326.042l-11.088 5.01-11.089-5.01a.58.58 0 0 0-.326-.042l-3.234.548c-.02.003-.036.014-.056.02a.645.645 0 0 0-.085.03.593.593 0 0 0-.166.117.576.576 0 0 0-.08.11c-.01.017-.024.028-.033.045-.002.006-.001.012-.004.017a.574.574 0 0 0-.034.153c-.003.018-.01.036-.01.056l-.002.007v.803l-.4-.182a.562.562 0 0 0-.795.513v2.895c0 .222.129.422.33.513l12.11 5.488-12.11 5.474a.563.563 0 0 0-.329.512v2.29a.563.563 0 0 0 .795.512l15.518-7.033 15.517 7.033a.556.556 0 0 0 .537-.04.563.563 0 0 0 .258-.472v-2.29a.562.562 0 0 0-.33-.512l-12.11-5.474 12.11-5.488a.563.563 0 0 0 .33-.513zm-27.708-3.994 11.164 5.045a.554.554 0 0 0 .464 0l11.164-5.045 1.247.211-12.643 5.713-12.643-5.712 1.247-.212zm-2.597.835 13.76 6.22a.554.554 0 0 0 .464 0l13.76-6.22v.44l-13.991 6.323-13.993-6.323v-.44zm-1.195 2.797v-1.663l.411.186.005.002 13.406 6.06-.042.018a.562.562 0 0 0-.313.654l.031.12-.82.37-12.678-5.747zm30.375 12.712v1.054l-13.825-6.266 1.147-.52 12.678 5.732zm0-12.712-30.375 13.767v-1.054l14.394-6.507a.562.562 0 0 0 .313-.654l-.03-.12 15.282-6.906.005-.002.412-.186v1.662zM-62.493-22.59l-1.125-3.556a.563.563 0 0 0-.537-.393h-24.69a.563.563 0 0 0-.536.393l-1.125 3.556a.558.558 0 0 0-.026.17v9.783c0 .311.252.563.562.563h26.94c.31 0 .563-.252.563-.563v-9.783a.555.555 0 0 0-.026-.17zm-25.94-2.824h23.866l.77 2.43h-25.404l.769-2.43zm-.974 12.214v-8.658h25.815v8.658h-25.815zm10.034-13.975a.56.56 0 0 0 .783.143l9.385-6.471c.222.017.443.035.654.035 1.422 0 2.6-.397 3.51-1.185 1.684-1.458 1.793-3.709 1.796-3.804a.557.557 0 0 0-.099-.341l-3.9-5.658a.567.567 0 0 0-.59-.229c-.605.14-5.955 1.394-7.3 2.32-1.266.874-1.657 3.08-1.76 3.879l-6.503 4.484a.563.563 0 0 0-.144.782l4.168 6.045zm4.877-14.264c.92-.634 4.736-1.631 6.543-2.063l3.568 5.175c-.058.488-.313 1.888-1.393 2.823-.644.557-1.486.859-2.51.904a.548.548 0 0 0-.072-.17l-1.396-2.024c.952.18 2.289.135 3.712-.846a.562.562 0 1 0-.64-.926c-2.036 1.404-3.815.352-3.887.307a.564.564 0 0 0-.617.015l-.168.116h-.002v.002l-2.017 1.39a.508.508 0 0 1-.575-.835l3.96-2.73a.562.562 0 1 0-.64-.927l-1.48 1.02-.418-.608a.564.564 0 0 0-.783-.144l-2.26 1.56c.204-.792.547-1.674 1.075-2.039zm1.361 1.726.1.145-1.554 1.071a1.633 1.633 0 0 0 .93 2.974c.319 0 .641-.093.923-.288l1.554-1.07 1.577 2.286-9.161 6.318-3.53-5.12 9.161-6.316zm-10.662 15.52c0-.312.252-.563.563-.563h13.47a.562.562 0 1 1 0 1.125h-13.47a.562.562 0 0 1-.563-.563zM75.422-91.949h-18.44a2.467 2.467 0 0 0-2.465 2.464v25.4c0 1.165.814 2.139 1.903 2.395v1.803a.563.563 0 0 0 .981.376l.967-1.075.966 1.075a.56.56 0 0 0 .981-.376v-1.733h15.107a.562.562 0 0 0 .563-.562V-91.385a.563.563 0 0 0-.563-.563zm-.563 29.08a1.343 1.343 0 0 1-.778-1.215c0-.538.32-1.003.778-1.216v2.432zm0-3.68H57.545v-24.275h17.314v24.275zM56.42-90.695v24.219c-.28.065-.542.177-.777.33v-23.338c0-.537.32-.998.778-1.21zm2.77 29.342-.403-.45a.56.56 0 0 0-.837 0l-.404.45V-63.4h1.645v2.046zm.563-3.171h-2.77a.562.562 0 0 0-.562.563v1.09a1.34 1.34 0 0 1-.778-1.212c0-.739.601-1.34 1.34-1.34h16.375a2.447 2.447 0 0 0-.4 1.34c0 .494.149.953.4 1.34H60.314v-1.218a.562.562 0 0 0-.562-.563zm1.494-12.13v2.33c0 .312.251.563.562.563h2.33l1.648 1.648a.56.56 0 0 0 .795 0l1.649-1.648h2.33a.562.562 0 0 0 .562-.562v-2.33l1.647-1.648a.562.562 0 0 0 0-.796l-1.647-1.647v-2.33a.562.562 0 0 0-.563-.563h-2.33l-1.647-1.647a.562.562 0 0 0-.795 0l-1.648 1.647h-2.33a.562.562 0 0 0-.563.563v2.33l-1.648 1.648a.562.562 0 0 0 0 .795l1.648 1.648zm.96-3.46a.56.56 0 0 0 .165-.397v-2h2a.56.56 0 0 0 .399-.165l1.414-1.415 1.415 1.415a.561.561 0 0 0 .398.164h2v2c0 .15.059.293.165.398l1.414 1.415-1.414 1.415a.561.561 0 0 0-.165.397v2.001h-2a.56.56 0 0 0-.398.165l-1.415 1.415-1.415-1.415a.561.561 0 0 0-.398-.165h-2v-2a.56.56 0 0 0-.165-.398l-1.415-1.414 1.415-1.415zm-36.444 14.2c1.055-1.544 1.563-3.358 1.442-5.192-.248-3.739-2.845-5.818-5.137-7.653-1.46-1.17-2.838-2.278-3.503-3.683v-2.74a3.438 3.438 0 0 0 2.447-1.291.562.562 0 1 0-.881-.7 2.322 2.322 0 0 1-3.918-.457 2.32 2.32 0 0 1 2.167-3.294.568.568 0 0 0 .58-.545.563.563 0 0 0-.546-.58 3.502 3.502 0 0 0-1.555.322 3.444 3.444 0 0 0-1.667 4.57 3.428 3.428 0 0 0 2.247 1.87v2.845c-.666 1.405-2.043 2.514-3.504 3.684-2.29 1.834-4.887 3.913-5.135 7.652-.122 1.835.387 3.647 1.441 5.192a5.706 5.706 0 0 0-4.158 5.487v.541c0 .312.251.563.562.563h22.713a.562.562 0 0 0 .563-.563v-.541c0-2.584-1.733-4.8-4.158-5.487zM7.207-60.448a4.588 4.588 0 0 1 4.09-4.53.562.562 0 0 0 .365-.924c-1.244-1.465-1.863-3.287-1.74-5.13.214-3.245 2.502-5.077 4.715-6.85 1.297-1.037 2.536-2.03 3.364-3.27.828 1.24 2.066 2.233 3.363 3.27 2.213 1.772 4.501 3.605 4.716 6.85.122 1.843-.496 3.665-1.74 5.13a.563.563 0 0 0 .364.924 4.59 4.59 0 0 1 4.09 4.53H7.207zm-31.762-20.724a4.473 4.473 0 0 0 .6-2.542c-.136-2.043-1.521-3.153-2.744-4.131-.707-.566-1.373-1.104-1.699-1.747v-1.794a.562.562 0 1 0-1.125 0v1.794c-.326.644-.992 1.181-1.7 1.747-1.222.978-2.607 2.088-2.742 4.13a4.485 4.485 0 0 0 .599 2.543 3.206 3.206 0 0 0-1.997 2.967v.278c0 .305.241.552.543.562v11.23a.562.562 0 0 0-.543.562v.648a3.224 3.224 0 0 0 3.22 3.221h.998a2.195 2.195 0 0 0 2.183 2.38 2.195 2.195 0 0 0 2.184-2.38h.998a3.224 3.224 0 0 0 3.22-3.22v-.649c0-.3-.234-.545-.53-.561v-11.231a.562.562 0 0 0 .53-.562v-.278a3.203 3.203 0 0 0-1.995-2.967zm.872 16.248c0 1.156-.94 2.096-2.096 2.096h-1.744a.561.561 0 0 0-.498.823c.084.16.127.325.127.489 0 .589-.479 1.067-1.066 1.067-.589 0-1.067-.479-1.067-1.067 0-.164.043-.329.127-.49a.564.564 0 0 0-.498-.822h-1.744a2.098 2.098 0 0 1-2.095-2.096v-.086a.563.563 0 0 0 .543-.563v-12.353a.563.563 0 0 0-.524-.561 2.089 2.089 0 0 1 1.84-1.786.563.563 0 0 0 .366-.924 3.416 3.416 0 0 1-.83-2.442c.102-1.55 1.18-2.413 2.323-3.328.554-.443 1.121-.897 1.559-1.437.437.54 1.004.994 1.558 1.437 1.142.915 2.221 1.778 2.324 3.328.059.876-.237 1.743-.831 2.442a.562.562 0 0 0 .365.924 2.088 2.088 0 0 1 1.841 1.787.563.563 0 0 0-.51.56v12.353c0 .3.234.546.53.562v.087zm-6.254-12.614h-1.736a.562.562 0 0 0-.562.562v10.24c0 .312.251.563.562.563h1.736c.31 0 .563-.251.563-.562v-10.241a.563.563 0 0 0-.563-.563zm-.562 10.24h-.611v-9.115h.61v9.115zm4.252-10.24h-1.737a.562.562 0 0 0-.562.562v10.24c0 .312.251.563.562.563h1.737c.31 0 .562-.251.562-.562v-10.241a.563.563 0 0 0-.562-.563zm-.563 10.24h-.611v-9.115h.611v9.115zm10.04-17.058a.562.562 0 0 1-.562.563h-.402v.402a.562.562 0 1 1-1.125 0v-.402h-.403a.562.562 0 1 1 0-1.125h.402v-.403a.562.562 0 1 1 1.125 0v.403h.403c.31 0 .563.25.563.562zm-19.803 15.77h-.403v-.404a.562.562 0 1 0-1.125 0v.403h-.403a.562.562 0 1 0 0 1.125h.403v.403a.562.562 0 1 0 1.125 0v-.403h.403a.562.562 0 1 0 0-1.125zm-2.101-12.73a.562.562 0 0 0-.563-.563h-.402v-.402a.562.562 0 1 0-1.125 0v.402h-.403a.562.562 0 1 0 0 1.125h.403v.403a.562.562 0 1 0 1.125 0v-.403h.402a.562.562 0 0 0 .563-.562zm20.377 9.196h-.403v-.403a.562.562 0 1 0-1.125 0v.403h-.402a.562.562 0 1 0 0 1.125h.402v.403a.562.562 0 1 0 1.125 0v-.403h.403a.562.562 0 1 0 0-1.125zm-47.682-1.574a.564.564 0 0 1-.336-.112l-3.159-2.353-3.158 2.353a.562.562 0 0 1-.871-.625l1.238-3.808-3.198-2.383a.562.562 0 0 1 .336-1.014h3.966l1.153-3.55a.563.563 0 0 1 1.07.001l1.153 3.55h3.964a.562.562 0 0 1 .336 1.013l-3.198 2.382 1.205 3.709a.562.562 0 0 1-.491.837h-.01zm-3.495-3.73c.118 0 .236.038.337.112l2.077 1.548-.816-2.513a.562.562 0 0 1 .199-.624l2.16-1.61h-2.676a.562.562 0 0 1-.535-.389l-.744-2.29-.745 2.291a.563.563 0 0 1-.535.388h-2.678l2.161 1.61a.563.563 0 0 1 .2.626l-.817 2.51 2.076-1.547a.563.563 0 0 1 .336-.111zm-5.317 18.1c-6.319 0-12.126-3.698-14.794-9.421-3.797-8.153-.256-17.876 7.895-21.672a16.367 16.367 0 0 1 7.373-1.524.563.563 0 0 1 .232 1.066c-.065.033-.13.062-.194.086-6.71 3.13-9.644 11.187-6.498 17.94 2.21 4.743 7.023 7.806 12.258 7.806a13.41 13.41 0 0 0 5.697-1.266l.123-.06a.563.563 0 0 1 .693.852 16.14 16.14 0 0 1-5.906 4.664 16.173 16.173 0 0 1-6.88 1.53zm-1.908-31.38a15.176 15.176 0 0 0-4.516 1.306c-7.588 3.535-10.885 12.587-7.35 20.178 2.484 5.328 7.89 8.772 13.774 8.772 2.22 0 4.376-.48 6.405-1.425a15.1 15.1 0 0 0 3.904-2.614c-1.31.379-2.66.57-4.036.57-5.671 0-10.883-3.32-13.278-8.456-3.082-6.614-.779-14.381 5.097-18.331zm158.2-16.687c-1.244-2.441-8.536-22.994-8.61-23.201-.004-.011-.012-.017-.016-.027-.085-1.795-1.07-4.502-2.75-6.321-1.365-1.477-3.051-2.258-4.876-2.258-1.675 0-3.296.797-4.69 2.305-1.714 1.856-2.755 4.42-2.918 6.132-.007.014-.018.025-.024.04-.073.208-7.373 20.89-8.617 23.331a.562.562 0 0 0 .501.818h31.5a.563.563 0 0 0 .5-.819zM61.388-136.13c.818-.886 2.153-1.943 3.862-1.943 1.524 0 2.887.638 4.05 1.897 1.761 1.907 2.555 4.739 2.45 6.051a21.998 21.998 0 0 1-.806 4.305v-1.535c.084-1.002.179-3.1.18-3.27.012-1.491-.856-3.962-2.488-5.605-1-1.008-2.15-1.54-3.327-1.54-1.194 0-2.37.546-3.402 1.581-1.65 1.655-2.535 4.1-2.53 5.565.012 1.47.072 2.253.18 2.674v2.139a22.002 22.002 0 0 1-.808-4.314c-.094-1.185.791-4.005 2.639-6.005zm-.756 7.402c-.052-.719-.126-1.792-.129-1.903 0-.018.004-.04.004-.059.136-.149.295-.334.477-.545.964-1.123 2.758-3.212 4.175-3.212 1.723 0 3.642 2.309 4.563 3.418l.274.326c0 .022.005.048.005.069-.001.092-.04 1.004-.091 1.903-2.824-.608-6.512-.605-9.278.003zm4.526-6.844c-1.434 0-2.87 1.242-3.988 2.433.374-.804.891-1.61 1.535-2.257.569-.57 1.482-1.25 2.605-1.25.882 0 1.733.407 2.528 1.208.631.635 1.141 1.455 1.511 2.275-1.13-1.19-2.615-2.409-4.19-2.409zm-4.474 7.984c2.684-.633 6.377-.638 9.136-.011v4.718c-.003.024 0 .045 0 .069v15.114h-9.137v-19.89zm-2.805-.497c.256 1.495.748 3.523 1.68 5.387v15H50.37c1.525-3.614 5.73-15.383 7.507-20.387zm13.066 20.387v-15.006c.916-1.835 1.409-3.832 1.667-5.319 1.763 4.94 5.988 16.707 7.519 20.325h-9.186zM27.62-122.54l-.014-.002-.009.001-.034-.001h-5.33v-2.191c1.6-1.552 2.564-4.048 2.564-7.089 0-.008-.005-.014-.005-.023 0-.007.004-.014.003-.021-.388-4.934-2.611-7.333-6.794-7.333-4.184 0-6.407 2.399-6.795 7.333 0 .007.004.014.003.021 0 .008-.005.015-.005.023 0 3.041.965 5.537 2.563 7.089v2.191h-5.33a3.378 3.378 0 0 0-3.374 3.375v12.032c0 .31.252.562.563.562h24.75a.562.562 0 0 0 .562-.562v-12.032a3.379 3.379 0 0 0-3.318-3.373zm-4.274 7.88v-6.757h3.697v6.757h-3.697zm-5.345-23.413c3.41 0 5.158 1.761 5.613 5.688H12.387c.455-3.927 2.204-5.688 5.614-5.688zm-5.654 6.813h11.307c-.107 2.547-.934 4.583-2.272 5.815a.568.568 0 0 0-.152.137A4.878 4.878 0 0 1 18-124.13a4.878 4.878 0 0 1-3.23-1.178.551.551 0 0 0-.15-.137c-1.339-1.232-2.166-3.268-2.273-5.815zM18-123.005c1.15 0 2.195-.308 3.108-.858v1.884A3.112 3.112 0 0 1 18-118.871a3.112 3.112 0 0 1-3.109-3.108v-1.884c.913.55 1.959.858 3.109.858zm11.812 15.307H6.188v-11.47c0-1.241 1.01-2.25 2.25-2.25h5.37a4.237 4.237 0 0 0 4.193 3.671 4.238 4.238 0 0 0 4.191-3.671h.029v9.202a.562.562 0 1 0 1.125 0v-1.32h1.286v1.32a.562.562 0 1 0 1.125 0v-1.32h1.286v1.32a.562.562 0 1 0 1.125 0v-9.109a2.247 2.247 0 0 1 1.645 2.156v11.471zm-48.982-7.085-3.99-3.989 3.716-3.716a.561.561 0 0 0 0-.795l-7.131-7.131v-8.222a.563.563 0 0 0-.563-.562h-4.5a.563.563 0 0 0-.562.562v8.222l-7.132 7.131a.56.56 0 0 0 0 .795l7.132 7.131v8.221a.563.563 0 0 0 .96.398l1.852-1.852 1.853 1.852a.56.56 0 0 0 .96-.398v-7.096l3.427 3.427a.564.564 0 0 0 .96-.398v-2.62h2.62a.563.563 0 0 0 .398-.96zm-7.035-2.534-2.387-2.387 2.387-2.386 1.194 1.193 1.193 1.193-.534.534v.001l-1.853 1.852zm-5.034 1.33c0-.001 0 0 0 0l-.534-.534 2.386-2.387 2.387 2.387-.534.533v.001l-1.853 1.852-1.852-1.852zm0-13.797 1.852-1.852 1.852 1.852.534.534-2.387 2.387-2.386-2.387.535-.534zm7.42 3.716-1.193 1.194-1.194 1.193-2.386-2.387 2.386-2.386 2.388 2.386zm-5.568.796 2.387 2.386-2.387 2.387-2.387-2.387 2.387-2.386zm6.364 4.773-1.194-1.194-1.193-1.193 1.193-1.193 1.194-1.193 2.387 2.386-2.387 2.387zm-8.052-17.574h3.375v6.533l-1.29-1.289a.579.579 0 0 0-.795 0l-1.29 1.289v-6.533zm-1.494 9.619 2.387 2.387-2.387 2.387-2.386-2.387 2.386-2.387zm-3.182 3.182 2.387 2.386-2.387 2.387-2.386-2.387 2.386-2.386zm3.182 3.182 2.387 2.386-2.387 2.387-2.386-2.387 2.386-2.386zm3.58 12.307a.579.579 0 0 0-.796 0l-1.29 1.29v-5.739l1.29 1.29a.561.561 0 0 0 .796 0l1.29-1.29v5.739l-1.29-1.29zm6.239-5.165a.56.56 0 0 0-.563.563v1.824l-3.029-3.029.535-.534 1.852-1.853 3.029 3.029h-1.824zm-42.1-20.273-11.468-3.947a.572.572 0 0 0-.365 0l-11.468 3.947a.563.563 0 0 0-.38.532v23.607c0 .241.153.454.38.533l11.468 3.946a.57.57 0 0 0 .365 0l11.468-3.946a.564.564 0 0 0 .38-.533v-23.607a.563.563 0 0 0-.38-.532zm-.745 15.78c-1.71 1.292-3.406 1.792-5.048 1.47-3.267-.641-5.346-4.286-5.366-4.322a.564.564 0 0 0-.49-.288h-.001a.564.564 0 0 0-.49.288c-.022.037-2.087 3.675-5.362 4.321-1.644.325-3.343-.176-5.054-1.469v-8.346l10.906-3.64 10.905 3.64v8.346zm0-9.532-10.728-3.581a.569.569 0 0 0-.355 0l-10.728 3.581v-1.471l10.906-3.753 10.905 3.753v1.471zm-21.81 10.906c1.347.872 2.704 1.318 4.053 1.318.406 0 .813-.04 1.218-.12 2.806-.553 4.77-2.88 5.634-4.11.864 1.23 2.828 3.556 5.634 4.11 1.748.347 3.517-.061 5.271-1.197v1.218l-10.905 3.753-10.906-3.753v-1.219zM-76.5-138.04l10.905 3.752v2.653l-10.723-3.69a.572.572 0 0 0-.365 0l-10.723 3.69v-2.653l10.906-3.752zm0 30.31-10.906-3.753v-4.174l10.723 3.69a.57.57 0 0 0 .365 0l10.723-3.69v4.174L-76.5-107.73zm141.83-46.093a.556.556 0 0 1-.343-.117c-.762-.585-1.627-2.564-1.213-3.804.22-.657.77-1.039 1.51-1.047.954 0 1.542.797 1.55 1.536.009.684-.296 1.249-.566 1.747-.2.371-.376.696-.381.982a.562.562 0 0 1-.546.703h-.011zm-.029-3.843c-.34.003-.414.139-.46.278-.138.414.018 1.107.262 1.677.058-.114.117-.224.175-.332.224-.415.436-.807.432-1.2-.002-.066-.08-.423-.409-.423zm-.051-1.698a1.72 1.72 0 0 1-1.719-1.718c0-.947.77-1.718 1.719-1.718a1.72 1.72 0 0 1 1.718 1.718 1.72 1.72 0 0 1-1.718 1.718zm0-2.312a.594.594 0 1 0 0 1.188.594.594 0 0 0 0-1.188zm-4.4.629A1.655 1.655 0 0 1 59.2-162.7c0-.911.741-1.653 1.652-1.653.912 0 1.653.742 1.653 1.653s-.741 1.653-1.653 1.653zm0-2.18a.528.528 0 1 0 0 1.055.528.528 0 0 0 0-1.055zm-3.517-.083a1.655 1.655 0 0 1-1.652-1.653c0-.911.741-1.652 1.652-1.652.912 0 1.653.741 1.653 1.652 0 .911-.741 1.653-1.653 1.653zm0-2.18a.527.527 0 1 0 0 1.055.527.527 0 0 0 0-1.055zm-2.482-1.168a1.655 1.655 0 0 1-1.652-1.653c0-.911.74-1.652 1.652-1.652.911 0 1.653.741 1.653 1.652 0 .911-.742 1.653-1.653 1.653zm0-2.18a.527.527 0 1 0 0 1.055.527.527 0 0 0 0-1.055zm-1.143-1.947a1.655 1.655 0 0 1-1.653-1.653c0-.911.741-1.653 1.653-1.653.91 0 1.652.742 1.652 1.653s-.74 1.653-1.652 1.653zm0-2.181a.528.528 0 1 0 0 1.056.528.528 0 0 0 0-1.056zm.452-2.152a1.655 1.655 0 0 1-1.653-1.653c0-.911.742-1.652 1.653-1.652.91 0 1.652.741 1.652 1.652 0 .911-.741 1.653-1.652 1.653zm0-2.18a.527.527 0 1 0 0 1.055.527.527 0 0 0 0-1.055zm1.912-1.533a1.655 1.655 0 0 1-1.653-1.653c0-.911.742-1.653 1.653-1.653.91 0 1.652.742 1.652 1.653s-.742 1.653-1.652 1.653zm0-2.181a.528.528 0 1 0 .001 1.056.528.528 0 0 0-.001-1.056zm3.068-.595a1.655 1.655 0 0 1-1.653-1.653c0-.911.741-1.652 1.653-1.652.91 0 1.652.741 1.652 1.652 0 .911-.741 1.653-1.652 1.653zm0-2.18a.527.527 0 1 0 0 1.055.527.527 0 0 0 0-1.055zm3.92.645a1.654 1.654 0 0 1-1.652-1.652c0-.912.741-1.653 1.652-1.653.912 0 1.653.741 1.653 1.653 0 .911-.74 1.652-1.653 1.652zm0-2.179a.527.527 0 1 0 0 1.055.527.527 0 0 0 0-1.055zm4.372 2.178a1.654 1.654 0 0 1-1.653-1.652c0-.912.741-1.653 1.653-1.653.91 0 1.652.741 1.652 1.653 0 .911-.741 1.652-1.652 1.652zm0-2.18a.528.528 0 1 0 0 1.055.528.528 0 0 0 0-1.055zm3.922 3.712a1.655 1.655 0 0 1-1.653-1.653c0-.911.742-1.652 1.653-1.652s1.652.741 1.652 1.652c0 .911-.74 1.653-1.652 1.653zm0-2.18a.527.527 0 1 0 0 1.055.527.527 0 0 0 0-1.055zm3.07 4.954a1.655 1.655 0 0 1-1.653-1.653c0-.911.742-1.653 1.653-1.653s1.653.742 1.653 1.653c-.001.911-.742 1.653-1.653 1.653zm0-2.181a.528.528 0 1 0 .001 1.056.528.528 0 0 0-.001-1.056zm1.914 5.892a1.654 1.654 0 0 1-1.653-1.652c0-.911.741-1.653 1.653-1.653.91 0 1.652.742 1.652 1.653s-.741 1.652-1.652 1.652zm0-2.18a.528.528 0 1 0 0 1.055.528.528 0 0 0 0-1.055zm.455 6.513a1.655 1.655 0 0 1-1.653-1.653c0-.911.741-1.652 1.653-1.652.91 0 1.652.741 1.652 1.652 0 .911-.741 1.653-1.652 1.653zm0-2.18a.528.528 0 1 0 0 1.056.528.528 0 0 0 0-1.056zm-1.141 6.308A1.654 1.654 0 0 1 74-168.318c0-.911.742-1.652 1.653-1.652s1.652.741 1.652 1.652c0 .912-.74 1.653-1.652 1.653zm0-2.18a.528.528 0 1 0 0 1.056.528.528 0 0 0 0-1.056zm-2.48 5.53a1.654 1.654 0 0 1-1.653-1.652c0-.912.741-1.653 1.652-1.653.912 0 1.653.741 1.653 1.653 0 .911-.742 1.652-1.653 1.652zm0-2.18a.528.528 0 1 0 0 1.056.528.528 0 0 0 0-1.056zm-3.516 4.444a1.654 1.654 0 0 1-1.653-1.652c0-.912.741-1.653 1.653-1.653.91 0 1.652.741 1.652 1.653 0 .911-.741 1.652-1.652 1.652zm0-2.179a.527.527 0 1 0 0 1.055.527.527 0 0 0 0-1.055zM6.64-173.964l.64.001c.054 1.054.259 2.068.597 3.022l-.586.242a.562.562 0 1 0 .43 1.04l.587-.243a10.76 10.76 0 0 0 1.713 2.56l-.45.45a.562.562 0 1 0 .795.796l.45-.45a10.747 10.747 0 0 0 2.56 1.716l-.242.583a.562.562 0 1 0 1.04.431l.241-.581c.954.339 1.968.545 3.024.6v.63a.562.562 0 1 0 1.125 0v-.63a10.68 10.68 0 0 0 3.025-.6l.24.581a.563.563 0 0 0 1.04-.431l-.242-.583a10.757 10.757 0 0 0 2.56-1.716l.45.449a.56.56 0 0 0 .795.001.563.563 0 0 0 0-.796l-.45-.45a10.774 10.774 0 0 0 1.713-2.561l.586.243a.564.564 0 0 0 .736-.304.562.562 0 0 0-.305-.735l-.585-.243c.338-.954.542-1.968.597-3.023h.638a.563.563 0 0 0 0-1.125h-.64a10.662 10.662 0 0 0-.6-3.02l.59-.244a.563.563 0 0 0-.43-1.04l-.594.246a10.752 10.752 0 0 0-1.715-2.555l.458-.458a.561.561 0 1 0-.794-.796l-.46.459a10.748 10.748 0 0 0-2.556-1.711l.247-.597a.562.562 0 1 0-1.04-.431l-.246.596a10.666 10.666 0 0 0-3.017-.597v-.649a.562.562 0 0 0-1.125 0v.649a10.633 10.633 0 0 0-3.018.598l-.246-.597a.563.563 0 1 0-1.04.43l.247.598a10.803 10.803 0 0 0-2.557 1.711l-.458-.459a.562.562 0 1 0-.795.795l.458.459a10.735 10.735 0 0 0-1.714 2.555l-.594-.246a.562.562 0 1 0-.43 1.039l.59.245c-.34.953-.546 1.966-.6 3.02h-.64a.562.562 0 0 0-.003 1.126zM18-184.14c5.308 0 9.624 4.317 9.624 9.623 0 5.307-4.317 9.624-9.623 9.624-5.307 0-9.624-4.317-9.624-9.624s4.316-9.623 9.624-9.623zm11.726 18.365-10.639 6.437 7.39 4.471a.562.562 0 1 1-.582.962l-7.894-4.775-7.895 4.776a.561.561 0 0 1-.582-.962l7.39-4.471-10.639-6.436a.563.563 0 0 1 .582-.963l11.144 6.741 11.143-6.742a.562.562 0 1 1 .582.962zm-50.538-20.673a.563.563 0 0 0-.562.562v1.125h-.563v-1.125a.563.563 0 0 0-1.125 0v1.125h-.562v-1.125a.563.563 0 0 0-1.125 0v1.125h-.563v-1.125a.563.563 0 0 0-1.125 0v1.125h-.562v-1.125a.563.563 0 0 0-1.125 0v1.125h-.563v-1.125a.563.563 0 0 0-1.125 0v1.125h-.562v-1.125a.563.563 0 0 0-1.125 0v1.125h-.563v-1.125a.563.563 0 0 0-1.125 0v1.125h-.562v-1.125a.563.563 0 0 0-1.125 0v1.125h-.563v-1.125a.563.563 0 0 0-1.125 0v1.125h-.562v-1.125a.563.563 0 0 0-1.125 0v31.5a.563.563 0 1 0 1.125 0v-1.125h.562v1.125a.563.563 0 1 0 1.125 0v-1.125h.563v1.125a.563.563 0 1 0 1.125 0v-1.125h.562v1.125a.563.563 0 1 0 1.125 0v-1.125h.563v1.125a.563.563 0 1 0 1.125 0v-1.125h.562v1.125a.563.563 0 1 0 1.125 0v-1.125h.563v1.125a.563.563 0 1 0 1.125 0v-1.125h.562v1.125a.563.563 0 1 0 1.125 0v-1.125h.563v1.125a.563.563 0 1 0 1.125 0v-1.125h.562v1.125a.563.563 0 1 0 1.125 0v-1.125h.563v1.125a.563.563 0 1 0 1.125 0v-31.5a.563.563 0 0 0-.563-.562zm-16.312 4.953h15.75v22.719h-15.75v-22.719zm15.75-1.125h-15.75v-1.016h15.75v1.016zm-15.75 24.969h15.75v1.015h-15.75v-1.015zm13.089-12.31h-2.508v-.622c1.452-.925 2.276-2.475 2.167-4.116-.132-1.982-1.54-3.056-2.782-4.003-.655-.501-1.275-.973-1.616-1.514a.562.562 0 0 0-.951 0c-.341.541-.96 1.013-1.616 1.513-1.242.948-2.65 2.022-2.782 4.004-.11 1.641.714 3.191 2.166 4.116v.622h-2.507a.563.563 0 0 0-.563.563v9.043c0 .311.252.563.563.563h10.428c.31 0 .562-.252.562-.563v-9.043a.561.561 0 0 0-.561-.563zm-.563 9.044H-33.9v-7.919h2.507c.31 0 .563-.252.563-.562v-1.513a.567.567 0 0 0-.333-.509c-1.22-.687-1.922-1.912-1.837-3.204.098-1.473 1.188-2.304 2.342-3.185.493-.375.997-.76 1.41-1.2.412.44.916.825 1.409 1.2 1.153.881 2.243 1.712 2.341 3.185.085 1.281-.605 2.497-1.805 3.187a.563.563 0 0 0-.363.527v1.512c0 .311.252.563.562.563h2.508v7.918zm-37.898-19.446c-.13-1.974-1.466-3.044-2.645-3.987-.712-.57-1.385-1.109-1.676-1.765a.563.563 0 0 0-1.028 0c-.29.656-.963 1.195-1.675 1.765-1.179.944-2.515 2.013-2.646 3.987-.098 1.478.562 2.875 1.756 3.807-.29.34-.461.779-.461 1.244v11.124a5.033 5.033 0 0 0-2.426-1.63 7.177 7.177 0 0 0 1.201-4.451c-.216-3.267-2.476-5.076-4.47-6.673-1.283-1.028-2.497-2-3.05-3.237a.562.562 0 0 0-1.026.001c-.553 1.238-1.766 2.209-3.05 3.237-1.994 1.596-4.253 3.405-4.47 6.672a7.176 7.176 0 0 0 1.201 4.451 5.01 5.01 0 0 0-3.55 4.788v6.644c0 .311.251.563.562.563h17.623l.046.002h5.61l.046-.002h2.271a.563.563 0 0 0 .563-.562v-20.927c0-.464-.17-.903-.462-1.243 1.195-.933 1.854-2.33 1.756-3.808zm-23.514 20.995a.731.731 0 0 1-.051-.324c.02-.316.249-.513.62-.806.074-.059.15-.117.222-.179.073.062.148.121.221.179.372.293.601.49.621.806a.749.749 0 0 1-.034.278.559.559 0 0 0-.064.261v4.204h-1.499v-4.131a.567.567 0 0 0-.036-.288zm4.662-1.424a.827.827 0 0 1-.072-.4c.028-.389.34-.637.849-.999.14-.099.28-.2.414-.309.134.109.275.21.415.309.509.362.82.61.847 1a.813.813 0 0 1-.05.345.56.56 0 0 0-.078.288v5.609h-2.284v-5.528a.551.551 0 0 0-.041-.315zm5.463 1.424a.731.731 0 0 1-.052-.324c.02-.316.25-.513.621-.806.074-.059.149-.117.222-.179.072.062.147.121.22.179.373.293.602.49.622.806a.746.746 0 0 1-.035.279.562.562 0 0 0-.064.26v4.204h-1.498v-4.131a.553.553 0 0 0-.036-.288zm10.379-17.709a.563.563 0 0 0 .072 1.023c.31.114.518.412.518.742v20.363h-1.755l-.047.001h-5.515l-.047-.001h-.946v-4.091a1.85 1.85 0 0 0 .096-.725c-.053-.832-.627-1.286-1.046-1.617-.186-.147-.363-.286-.439-.411a.564.564 0 0 0-.96 0c-.076.125-.252.264-.438.411-.42.331-.994.785-1.047 1.616-.015.237.013.469.085.692v4.124h-.923v-5.482c.104-.271.146-.553.126-.84-.067-.946-.79-1.461-1.318-1.836-.252-.18-.49-.349-.6-.512a.564.564 0 0 0-.932 0c-.11.163-.349.332-.6.512-.529.375-1.252.89-1.32 1.836-.019.275.018.544.111.8v5.522h-.92v-4.09c.08-.234.113-.477.097-.725-.053-.833-.628-1.286-1.047-1.618-.186-.146-.362-.285-.438-.41a.561.561 0 0 0-.96-.001c-.077.126-.253.264-.439.411-.419.331-.993.785-1.047 1.618-.015.236.014.468.086.69v4.125h-2.288v-6.082a3.89 3.89 0 0 1 3.469-3.859.561.561 0 0 0 .366-.923c-1.065-1.252-1.593-2.808-1.488-4.382.184-2.772 2.15-4.346 4.05-5.868 1.094-.876 2.14-1.714 2.86-2.753.72 1.039 1.767 1.876 2.86 2.753 1.902 1.522 3.867 3.095 4.05 5.868.105 1.574-.423 3.13-1.487 4.382a.56.56 0 0 0 .366.923 3.89 3.89 0 0 1 3.469 3.859.563.563 0 1 0 1.125 0v-14.281c0-.329.209-.628.518-.742a.563.563 0 0 0 .072-1.024c-1.251-.673-1.974-1.904-1.887-3.211.098-1.48 1.131-2.308 2.225-3.184.528-.422 1.068-.854 1.487-1.367.42.513.96.945 1.487 1.367 1.094.876 2.128 1.704 2.226 3.184.087 1.31-.636 2.54-1.888 3.213z" fill="#fff"/></g><defs><clipPath id="a"><path fill="#fff" d="M0 0h36v36H0z"/></clipPath></defs></svg>