<svg width="56" height="56" fill="none" xmlns="http://www.w3.org/2000/svg"><g clip-path="url(#a)"><path d="M19.575 0a2.981 2.981 0 0 0-2.981 2.982v8.644h5.963V2.982A2.982 2.982 0 0 0 19.575 0z" fill="#EDD4C2"/><path d="M53.902 52.67H2.098A2.098 2.098 0 0 1 0 50.572V17.696a2.098 2.098 0 0 1 2.098-2.098h51.804A2.098 2.098 0 0 1 56 17.696v32.876c0 1.159-.94 2.098-2.098 2.098z" fill="#6770E6"/><path d="M53.902 15.598H2.098A2.098 2.098 0 0 0 0 17.696v11.377h56V17.696a2.098 2.098 0 0 0-2.098-2.098z" fill="#5A62C9"/><path d="M53.902 15.598H2.098A2.098 2.098 0 0 0 0 17.696v1.196a2.098 2.098 0 0 1 2.098-2.098h51.804A2.098 2.098 0 0 1 56 18.892v-1.196c0-1.159-.94-2.098-2.098-2.098z" fill="#6770E6"/><path d="M2.098 52.669h51.804A2.098 2.098 0 0 0 56 50.57v-1.196a2.098 2.098 0 0 1-2.098 2.098H2.098A2.098 2.098 0 0 1 0 49.375v1.196a2.098 2.098 0 0 0 2.098 2.098z" fill="#5A62C9"/><path d="M13.406 56.001H5.358a2.78 2.78 0 0 1-2.78-2.78V15.046a2.78 2.78 0 0 1 2.78-2.78h8.048a2.78 2.78 0 0 1 2.78 2.78V53.22a2.78 2.78 0 0 1-2.78 2.78z" fill="#8F95E6"/><path d="M13.406 12.266H5.358a2.78 2.78 0 0 0-2.78 2.78v1.196a2.78 2.78 0 0 1 2.78-2.78h8.048a2.78 2.78 0 0 1 2.78 2.78v-1.196a2.78 2.78 0 0 0-2.78-2.78z" fill="#9EA5FF"/><path d="M5.358 56h8.048a2.78 2.78 0 0 0 2.78-2.78v-1.197a2.78 2.78 0 0 1-2.78 2.78H5.358a2.78 2.78 0 0 1-2.78-2.78v1.196A2.78 2.78 0 0 0 5.358 56z" fill="#6770E6"/><path d="M19.773 38.97v-2.136a.569.569 0 0 1 .569-.568h2.383a.569.569 0 0 1 .568.568v2.136a.569.569 0 0 1-.568.569h-2.383a.569.569 0 0 1-.569-.569zm5.317 0v-2.136a.569.569 0 0 1 .569-.568h2.383a.569.569 0 0 1 .568.568v2.136a.568.568 0 0 1-.569.569H25.66a.569.569 0 0 1-.569-.569zm5.317 0v-2.136a.569.569 0 0 1 .568-.568h2.383a.569.569 0 0 1 .569.568v2.136a.568.568 0 0 1-.569.569h-2.383a.569.569 0 0 1-.568-.569zm-10.634 5.07v-2.136a.569.569 0 0 1 .569-.568h2.383a.569.569 0 0 1 .568.568v2.137a.569.569 0 0 1-.568.568h-2.383a.569.569 0 0 1-.569-.568zm5.317 0v-2.136a.569.569 0 0 1 .569-.568h2.383a.569.569 0 0 1 .568.568v2.137a.569.569 0 0 1-.569.568H25.66a.569.569 0 0 1-.569-.568zm5.317 0v-2.136a.569.569 0 0 1 .568-.568h2.383a.569.569 0 0 1 .569.568v2.137a.569.569 0 0 1-.569.568h-2.383a.569.569 0 0 1-.568-.568zm-10.634 5.071v-2.136a.569.569 0 0 1 .569-.569h2.383a.569.569 0 0 1 .568.569v2.136a.569.569 0 0 1-.568.569h-2.383a.569.569 0 0 1-.569-.569zm5.317 0v-2.136a.569.569 0 0 1 .569-.569h2.383a.569.569 0 0 1 .568.569v2.136a.568.568 0 0 1-.569.569H25.66a.569.569 0 0 1-.569-.569zm5.317 0v-2.136a.569.569 0 0 1 .568-.569h2.383a.569.569 0 0 1 .569.569v2.136a.568.568 0 0 1-.569.569h-2.383a.569.569 0 0 1-.568-.569zM21.153 34.56a1.38 1.38 0 1 0 0-2.76 1.38 1.38 0 0 0 0 2.76zM24.95 34.56a1.38 1.38 0 1 0 0-2.76 1.38 1.38 0 0 0 0 2.76zM28.747 34.56a1.38 1.38 0 1 0 0-2.76 1.38 1.38 0 0 0 0 2.76zM32.548 34.56a1.38 1.38 0 1 0 0-2.76 1.38 1.38 0 0 0 0 2.76z" fill="#69EBFC"/><path d="M25.805 25.637v-6.61a.687.687 0 0 1 .687-.687h19.594a.687.687 0 0 1 .687.687v6.61a.687.687 0 0 1-.687.687H26.492a.685.685 0 0 1-.687-.687z" fill="#FFEFE4"/><path d="M34.887 21.686h-6.382a.607.607 0 1 1 0-1.213h6.382a.607.607 0 1 1 0 1.213zm3.417 2.509h-9.799a.607.607 0 1 1 0-1.214h9.8a.607.607 0 1 1 0 1.214zM9.382 22.814a2.499 2.499 0 1 0 0-4.997 2.499 2.499 0 0 0 0 4.997z" fill="#6770E6"/><path d="M52.263 49.682H36.341a.544.544 0 0 1-.544-.543V32.344a.543.543 0 0 1 .544-.543h15.922a.542.542 0 0 1 .544.543V49.14a.544.544 0 0 1-.544.543z" fill="#5A62C9"/><path d="M52.257 20.308h-2.924a.55.55 0 0 1-.55-.55v-.868a.55.55 0 0 1 .55-.55h2.924a.55.55 0 0 1 .55.55v.869a.55.55 0 0 1-.55.55zm0 3.008h-2.924a.55.55 0 0 1-.55-.55v-.868a.549.549 0 0 1 .55-.55h2.924a.55.55 0 0 1 .55.55v.869a.55.55 0 0 1-.55.55zm0 3.008h-2.924a.55.55 0 0 1-.55-.55v-.869a.549.549 0 0 1 .55-.55h2.924a.55.55 0 0 1 .55.55v.87a.55.55 0 0 1-.55.55zm-29.01-6.016h-2.924a.55.55 0 0 1-.55-.55v-.868a.55.55 0 0 1 .55-.55h2.924a.55.55 0 0 1 .55.55v.869a.55.55 0 0 1-.55.55zm0 3.008h-2.924a.55.55 0 0 1-.55-.55v-.868a.55.55 0 0 1 .55-.55h2.924a.55.55 0 0 1 .55.55v.869a.55.55 0 0 1-.55.55zm0 3.008h-2.924a.55.55 0 0 1-.55-.55v-.869a.55.55 0 0 1 .55-.55h2.924a.55.55 0 0 1 .55.55v.87a.55.55 0 0 1-.55.55z" fill="#D476E2"/><path d="M38.864 41.194a1.068 1.068 0 1 0 0-2.135 1.068 1.068 0 0 0 0 2.135zM50.2 40.733h-8.57a.607.607 0 0 1 0-1.213h8.57a.607.607 0 0 1 0 1.213zM38.864 44.541a1.068 1.068 0 1 0 0-2.135 1.068 1.068 0 0 0 0 2.135zM50.2 44.08h-8.57a.607.607 0 1 1 0-1.213h8.57a.607.607 0 1 1 0 1.214zM38.864 47.975a1.068 1.068 0 1 0 0-2.135 1.068 1.068 0 0 0 0 2.135zM50.2 47.514h-8.57a.607.607 0 1 1 0-1.213h8.57a.606.606 0 0 1 0 1.213z" fill="#8F95E6"/><path d="M48.923 37.248h-9.24a1.886 1.886 0 1 1 0-3.771h9.24a1.885 1.885 0 1 1 0 3.771z" fill="#69EBFC"/><path d="M43.914 33.477h.777v3.771h-.777v-3.771z" fill="#5FD4E3"/><path d="M52.807 15.596H19.773V9.353a1.697 1.697 0 0 1 1.697-1.697h29.64a1.697 1.697 0 0 1 1.696 1.697v6.243z" fill="#5A62C9"/><path d="M47.042 0H19.574a2.981 2.981 0 0 1 2.982 2.982v12.614h27.468V2.982A2.982 2.982 0 0 0 47.042 0z" fill="#FFEFE4"/><path d="M47.042 0H19.574a2.98 2.98 0 0 1 2.604 1.531h24.864a2.982 2.982 0 0 1 2.982 2.982V2.982A2.982 2.982 0 0 0 47.042 0z" fill="#FFF7F2"/><path d="M41.399 4.593H26.267a.607.607 0 1 1 0-1.214h15.132a.607.607 0 0 1 0 1.214zm3.417 2.896H26.267a.607.607 0 0 1 0-1.214h18.549a.607.607 0 0 1 0 1.214zm-1.667 2.896H26.267a.607.607 0 1 1 0-1.214h16.882a.607.607 0 1 1 0 1.214zm1.667 2.896H26.267a.607.607 0 1 1 0-1.213h18.549a.607.607 0 1 1 0 1.213z" fill="#EDD4C2"/></g><defs><clipPath id="a"><path fill="#fff" d="M0 0h56v56H0z"/></clipPath></defs></svg>