<svg width="48" height="48" viewBox="0 0 48 48" fill="none" xmlns="http://www.w3.org/2000/svg">
<path fill-rule="evenodd" clip-rule="evenodd" d="M39.7422 11.2578V43.5078C39.7422 44.7528 38.7387 45.7578 37.4922 45.7578H10.4922C9.24719 45.7578 8.24219 44.7528 8.24219 43.5078V4.50781C8.24219 3.26131 9.24719 2.25781 10.4922 2.25781H30.7422L39.7422 11.2578Z" fill="#E9EDED" stroke="#027CBC" stroke-linecap="round" stroke-linejoin="round"/>
<path d="M39.7422 11.2578H32.9922C31.7472 11.2578 30.7422 10.2528 30.7422 9.00781V2.25781" fill="#027CBC"/>
<path d="M39.7422 11.2578H32.9922C31.7472 11.2578 30.7422 10.2528 30.7422 9.00781V2.25781" stroke="#027CBC" stroke-linecap="round" stroke-linejoin="round"/>
<path d="M9 36.0078H39V45.0078H9V36.0078Z" fill="#027CBC"/>
<path d="M15.7381 37.504V37.507C15.6396 37.5086 15.5423 37.5295 15.4519 37.5687C15.3615 37.6078 15.2797 37.6644 15.2112 37.7351C15.1427 37.8059 15.0888 37.8895 15.0525 37.9811C15.0163 38.0727 14.9985 38.1705 15.0001 38.269V42.757C15.0001 43.186 14.6791 43.507 14.2501 43.507C14.1509 43.5095 14.0523 43.4918 13.9601 43.4549C13.868 43.4181 13.7844 43.363 13.7142 43.2928C13.6441 43.2227 13.5889 43.139 13.5521 43.0469C13.5153 42.9548 13.4976 42.8562 13.5001 42.757C13.5013 42.6567 13.4824 42.5572 13.4445 42.4644C13.4066 42.3716 13.3504 42.2873 13.2794 42.2165C13.2084 42.1458 13.1238 42.09 13.0309 42.0524C12.9379 42.0149 12.8383 41.9964 12.7381 41.998C12.5397 42.0012 12.3506 42.0828 12.2123 42.2251C12.074 42.3673 11.9976 42.5586 12.0001 42.757C12.0001 43.99 13.0171 45.007 14.2501 45.007C15.4111 45.007 16.3666 44.1025 16.4761 42.967C16.4928 42.9024 16.5009 42.8358 16.5001 42.769V38.266C16.5017 38.1655 16.4831 38.0657 16.4454 37.9725C16.4076 37.8793 16.3516 37.7947 16.2805 37.7236C16.2094 37.6525 16.1247 37.5964 16.0316 37.5587C15.9384 37.521 15.8386 37.5024 15.7381 37.504ZM20.2501 37.507C19.0891 37.507 18.1336 38.4115 18.0241 39.547L18.0211 39.5605C18.0062 39.6219 17.9991 39.6849 18.0001 39.748V44.254C18.0001 44.4529 18.0791 44.6437 18.2197 44.7843C18.3604 44.925 18.5511 45.004 18.7501 45.004C18.949 45.004 19.1397 44.925 19.2804 44.7843C19.421 44.6437 19.5001 44.4529 19.5001 44.254V41.872C19.7356 41.9575 19.9861 42.013 20.2501 42.013C21.4846 42.013 22.5001 40.996 22.5001 39.763C22.5001 38.5285 21.4846 37.513 20.2501 37.513V37.507ZM26.3611 37.507C25.0666 37.507 24.0001 38.572 24.0001 39.868V42.646C24.0001 43.9405 25.0651 45.007 26.3611 45.007H27.6391C28.8181 45.007 29.7991 44.119 29.9641 42.982C29.9884 42.9064 30.0005 42.8274 30.0001 42.748V41.269C30.002 41.1105 29.9538 40.9554 29.8621 40.8261C29.7705 40.6967 29.6402 40.5997 29.4901 40.549C29.4669 40.5409 29.4434 40.5338 29.4196 40.528C29.3948 40.5217 29.3698 40.5167 29.3446 40.513C29.3197 40.5097 29.2946 40.5077 29.2696 40.507C29.2601 40.5068 29.2506 40.5068 29.2411 40.507C29.2401 40.507 29.2391 40.507 29.2381 40.507H27.7621C27.5631 40.507 27.3724 40.586 27.2317 40.7267C27.0911 40.8673 27.0121 41.0581 27.0121 41.257C27.0121 41.4559 27.0911 41.6467 27.2317 41.7873C27.3724 41.928 27.5631 42.007 27.7621 42.007H28.5001V42.646C28.5023 42.7597 28.4816 42.8727 28.4391 42.9781C28.3966 43.0836 28.3333 43.1794 28.2529 43.2598C28.1725 43.3402 28.0767 43.4036 27.9712 43.446C27.8657 43.4885 27.7527 43.5092 27.6391 43.507H26.3611C26.2474 43.5092 26.1344 43.4885 26.0289 43.446C25.9235 43.4036 25.8276 43.3402 25.7472 43.2598C25.6668 43.1794 25.6035 43.0836 25.561 42.9781C25.5185 42.8727 25.4978 42.7597 25.5001 42.646V39.868C25.5001 39.379 25.8721 39.007 26.3611 39.007H29.2501C29.449 39.007 29.6397 38.928 29.7804 38.7873C29.921 38.6467 30.0001 38.4559 30.0001 38.257C30.0001 38.0581 29.921 37.8673 29.7804 37.7267C29.6397 37.586 29.449 37.507 29.2501 37.507H26.3611ZM20.2501 39.001V39.007C20.6731 39.007 21.0001 39.334 21.0001 39.757C21.0001 40.18 20.6731 40.507 20.2501 40.507C20.1512 40.5084 20.053 40.49 19.9614 40.4528C19.8697 40.4156 19.7865 40.3604 19.7166 40.2905C19.6466 40.2206 19.5915 40.1373 19.5543 40.0457C19.5171 39.954 19.4986 39.8559 19.5001 39.757V39.742C19.4998 39.6439 19.5192 39.5467 19.5569 39.4561C19.5946 39.3655 19.65 39.2833 19.7198 39.2144C19.7896 39.1454 19.8725 39.091 19.9635 39.0544C20.0545 39.0178 20.1519 38.9996 20.2501 39.001Z" fill="#E9EDED"/>
<path fill-rule="evenodd" clip-rule="evenodd" d="M10.5 33.0078L18 22.5078L25.5 33.0078H10.5Z" fill="#027CBC"/>
<path fill-rule="evenodd" clip-rule="evenodd" d="M16.5 33.0078L27 18.0078L37.5 33.0078H16.5Z" fill="#027CBC"/>
<path d="M19.5 16.5078C19.5 17.3035 19.1839 18.0665 18.6213 18.6291C18.0587 19.1917 17.2956 19.5078 16.5 19.5078C15.7044 19.5078 14.9413 19.1917 14.3787 18.6291C13.8161 18.0665 13.5 17.3035 13.5 16.5078C13.5 15.7122 13.8161 14.9491 14.3787 14.3865C14.9413 13.8239 15.7044 13.5078 16.5 13.5078C17.2956 13.5078 18.0587 13.8239 18.6213 14.3865C19.1839 14.9491 19.5 15.7122 19.5 16.5078Z" fill="#0F1735"/>
</svg>
