<svg width="40" height="40" viewBox="0 0 40 40" fill="none" xmlns="http://www.w3.org/2000/svg">
<g clip-path="url(#clip0_1_3)">
<path d="M29.8394 3.04078L26.8794 10.8808C26.6394 11.6008 25.9994 12.0808 25.1994 12.0808H5.4394C4.7194 12.0808 3.9994 11.6008 3.7594 10.8808L0.879401 3.04078C0.479402 1.92078 1.3594 0.800781 2.4794 0.800781H28.1594C29.3594 0.800781 30.1594 1.92078 29.8394 3.04078Z" fill="#444445"/>
<path d="M27.0378 14.0781V21.2781C27.0378 22.3981 26.1578 23.2781 25.0378 23.2781H5.75781C4.63781 23.2781 3.75781 22.3981 3.75781 21.2781V14.0781C3.75781 12.9581 4.63781 12.0781 5.75781 12.0781H25.0378C26.1578 12.0781 27.0378 12.9581 27.0378 14.0781Z" fill="#E4E4E3"/>
<path d="M39.1984 28.8805V34.8005C39.1984 37.2805 37.1984 39.2005 34.7984 39.2005C32.3184 39.2005 30.3984 37.2005 30.3984 34.8005V28.8805C30.3984 27.5205 31.4384 26.4805 32.7984 26.4805H36.7984C38.1584 26.4805 39.1984 27.6005 39.1984 28.8805Z" fill="#E9715F"/>
<path d="M30.3984 31.9219V34.8019C30.3984 37.2819 32.3984 39.2019 34.7984 39.2019C37.1984 39.2019 39.1984 37.2019 39.1984 34.8019V31.9219H30.3984Z" fill="#D75548"/>
<path d="M35.0406 26.4805H34.6406V33.5205H35.0406V26.4805Z" fill="#D75548"/>
<path d="M7.04125 15.8398H5.68125C5.44125 15.8398 5.28125 15.6798 5.28125 15.4398V14.2398C5.28125 13.9998 5.44125 13.8398 5.68125 13.8398H7.04125C7.28125 13.8398 7.44125 13.9998 7.44125 14.2398V15.4398C7.44125 15.6798 7.28125 15.8398 7.04125 15.8398ZM10.6413 15.8398H9.28125C9.04125 15.8398 8.88125 15.6798 8.88125 15.4398V14.2398C8.88125 13.9998 9.04125 13.8398 9.28125 13.8398H10.6413C10.8813 13.8398 11.0413 13.9998 11.0413 14.2398V15.4398C11.0413 15.6798 10.8813 15.8398 10.6413 15.8398ZM14.2412 15.8398H12.8812C12.6413 15.8398 12.4813 15.6798 12.4813 15.4398V14.2398C12.4813 13.9998 12.6413 13.8398 12.8812 13.8398H14.2412C14.4812 13.8398 14.6412 13.9998 14.6412 14.2398V15.4398C14.6412 15.6798 14.4812 15.8398 14.2412 15.8398ZM17.8412 15.8398H16.4812C16.2413 15.8398 16.0813 15.6798 16.0813 15.4398V14.2398C16.0813 13.9998 16.2413 13.8398 16.4812 13.8398H17.8412C18.0812 13.8398 18.2412 13.9998 18.2412 14.2398V15.4398C18.2412 15.6798 18.0812 15.8398 17.8412 15.8398ZM21.5212 15.8398H20.1613C19.9213 15.8398 19.7613 15.6798 19.7613 15.4398V14.2398C19.7613 13.9998 19.9213 13.8398 20.1613 13.8398H21.5212C21.7612 13.8398 21.9212 13.9998 21.9212 14.2398V15.4398C21.9212 15.6798 21.6812 15.8398 21.5212 15.8398ZM25.1213 15.8398H23.7613C23.5212 15.8398 23.3612 15.6798 23.3612 15.4398V14.2398C23.3612 13.9998 23.5212 13.8398 23.7613 13.8398H25.1213C25.3612 13.8398 25.5212 13.9998 25.5212 14.2398V15.4398C25.5212 15.6798 25.2812 15.8398 25.1213 15.8398ZM7.04125 18.7198H5.68125C5.44125 18.7198 5.28125 18.5598 5.28125 18.3198V17.1198C5.28125 16.8798 5.44125 16.7198 5.68125 16.7198H7.04125C7.28125 16.7198 7.44125 16.8798 7.44125 17.1198V18.3198C7.44125 18.4798 7.28125 18.7198 7.04125 18.7198ZM10.6413 18.7198H9.28125C9.04125 18.7198 8.88125 18.5598 8.88125 18.3198V17.1198C8.88125 16.8798 9.04125 16.7198 9.28125 16.7198H10.6413C10.8813 16.7198 11.0413 16.8798 11.0413 17.1198V18.3198C11.0413 18.4798 10.8813 18.7198 10.6413 18.7198ZM14.2412 18.7198H12.8812C12.6413 18.7198 12.4813 18.5598 12.4813 18.3198V17.1198C12.4813 16.8798 12.6413 16.7198 12.8812 16.7198H14.2412C14.4812 16.7198 14.6412 16.8798 14.6412 17.1198V18.3198C14.6412 18.4798 14.4812 18.7198 14.2412 18.7198ZM17.8412 18.7198H16.4812C16.2413 18.7198 16.0813 18.5598 16.0813 18.3198V17.1198C16.0813 16.8798 16.2413 16.7198 16.4812 16.7198H17.8412C18.0812 16.7198 18.2412 16.8798 18.2412 17.1198V18.3198C18.2412 18.4798 18.0812 18.7198 17.8412 18.7198ZM21.5212 18.7198H20.1613C19.9213 18.7198 19.7613 18.5598 19.7613 18.3198V17.1198C19.7613 16.8798 19.9213 16.7198 20.1613 16.7198H21.5212C21.7612 16.7198 21.9212 16.8798 21.9212 17.1198V18.3198C21.9212 18.4798 21.6812 18.7198 21.5212 18.7198ZM25.1213 18.7198H23.7613C23.5212 18.7198 23.3612 18.5598 23.3612 18.3198V17.1198C23.3612 16.8798 23.5212 16.7198 23.7613 16.7198H25.1213C25.3612 16.7198 25.5212 16.8798 25.5212 17.1198V18.3198C25.5212 18.4798 25.2812 18.7198 25.1213 18.7198ZM7.04125 21.5198C6.24125 21.4398 5.28125 21.7598 5.28125 21.1198V19.9198C5.28125 19.6798 5.44125 19.5198 5.68125 19.5198H7.04125C7.28125 19.5198 7.44125 19.6798 7.44125 19.9198C7.36125 20.6398 7.68125 21.5198 7.04125 21.5198ZM10.6413 21.5198C9.84125 21.4398 8.88125 21.7598 8.88125 21.1198C8.96125 20.3998 8.64125 19.5198 9.28125 19.5198H10.6413C10.8813 19.5198 11.0413 19.6798 11.0413 19.9198V21.1198C11.0413 21.3598 10.8813 21.5198 10.6413 21.5198ZM17.8412 21.5198H12.8812C12.6413 21.5198 12.4813 21.3598 12.4813 21.1198V19.9198C12.4813 19.6798 12.6413 19.5198 12.8812 19.5198H17.8412C18.0812 19.5198 18.2412 19.6798 18.2412 19.9198V21.1198C18.2412 21.3598 18.0812 21.5198 17.8412 21.5198ZM21.5212 21.5198H20.1613C19.9213 21.5198 19.7613 21.3598 19.7613 21.1198V19.9198C19.7613 19.6798 19.9213 19.5198 20.1613 19.5198H21.5212C21.7612 19.5198 21.9212 19.6798 21.9212 19.9198V21.1198C21.9212 21.3598 21.6812 21.5198 21.5212 21.5198ZM25.1213 21.5198C24.3212 21.4398 23.3612 21.7598 23.3612 21.1198V19.9198C23.3612 19.6798 23.5212 19.5198 23.7613 19.5198H25.1213C25.3612 19.5198 25.5212 19.6798 25.5212 19.9198C25.4412 20.6398 25.6812 21.5198 25.1213 21.5198Z" fill="#696967"/>
<path d="M14.0014 25.1192C14.0014 25.1192 14.2414 24.7192 14.0014 24.3992C14.0014 24.3992 14.0814 24.0792 14.0014 23.8392L14.0814 23.1192C14.0814 23.1192 13.7614 22.8792 13.3614 23.1992C13.3614 23.1992 12.6414 23.8392 12.5614 24.7992C12.5614 24.7992 12.1614 25.6792 11.7614 26.0792C11.3614 26.4792 10.8014 24.9592 10.6414 23.3592C11.3614 18.2392 10.7214 18.3192 10.4814 18.3192C10.4814 18.3192 10.0014 18.1592 9.84136 18.9592C9.28136 21.4392 9.20136 23.3592 8.96136 23.7592C8.96136 23.7592 8.64136 23.9992 8.56136 23.3592C8.56136 23.3592 8.40136 21.5192 8.24136 21.0392C8.00136 20.4792 8.00136 19.2792 8.00136 18.9592C8.00136 18.9592 7.84136 17.9192 7.20136 18.0792C7.20136 18.0792 6.72136 18.0792 6.80136 18.8792C6.80136 18.8792 6.96136 20.1592 6.96136 20.9592C6.96136 22.6392 7.36136 24.6392 6.80136 24.2392C6.64136 23.8392 5.68136 21.9192 5.76136 21.4392C5.76136 21.4392 5.52136 19.7592 4.80136 20.1592C4.80136 20.1592 4.48136 20.2392 4.56136 20.7992C4.64136 21.1192 4.88136 22.8792 4.96136 23.1192L5.84136 25.3592C5.84136 25.3592 5.84136 25.5192 5.52136 25.4392C5.52136 25.4392 5.04136 25.2792 4.40136 23.8392C4.40136 23.8392 3.92136 23.1192 3.68136 23.2792C3.68136 23.2792 3.36136 23.4392 3.52136 23.7592C3.52136 23.7592 4.00136 25.1992 4.08136 25.3592C4.08136 25.3592 5.60136 27.4392 5.68136 28.0792C5.76136 28.3192 5.84136 29.5192 6.48136 30.5592C6.56136 30.6392 6.64136 31.0392 6.64136 32.3992H11.6014C11.6014 32.3992 11.1214 30.8792 11.8414 29.5192C12.4814 28.3192 12.5614 28.7992 14.0814 25.0392" fill="#FFCA67"/>
<path d="M7.84065 18.2419C7.76065 18.8819 7.28065 18.8819 7.28065 18.8819C7.04065 18.8019 6.96065 18.7219 6.88065 18.5619C6.88065 18.0019 7.28065 18.0819 7.28065 18.0819C7.60065 17.9219 7.76065 18.0819 7.84065 18.2419ZM10.9607 18.6419C10.8007 19.2019 10.3207 19.1219 10.3207 19.1219C10.0807 19.0419 10.0007 18.8819 10.0007 18.7219C10.1607 18.1619 10.5607 18.2419 10.5607 18.2419C10.7207 18.2419 10.8807 18.4019 10.9607 18.6419ZM5.44065 20.0819C5.36065 20.8019 4.80065 20.6419 4.64065 20.3219C4.64065 20.0019 4.88065 20.0019 4.88065 20.0019C5.12065 19.9219 5.28065 20.0019 5.44065 20.0819ZM3.76065 23.8419C3.60065 23.8419 3.52065 23.6819 3.52065 23.6019V23.5219C3.44065 23.2819 3.76065 23.1219 3.76065 23.1219C3.84065 23.1219 3.92065 23.1219 4.08065 23.2019C4.24065 23.7619 3.76065 23.8419 3.76065 23.8419ZM14.0007 23.7619V23.8419C13.8407 23.7619 13.8407 23.6019 13.8407 23.6019C13.8407 23.2819 13.9207 23.0419 14.0807 22.9619L14.0007 23.7619Z" fill="#EFEFED"/>
<path d="M16.802 25.1211C16.802 25.1211 16.562 24.7211 16.802 24.4011C16.802 24.4011 16.722 24.0811 16.802 23.8411L16.722 23.1211C16.722 23.1211 17.042 22.8811 17.442 23.2011C17.442 23.2011 18.162 23.8411 18.242 24.8011C18.242 24.8011 18.642 25.6811 19.042 26.0811C19.442 26.4811 20.002 24.9611 20.162 23.3611C20.162 23.3611 19.922 21.7611 19.922 21.2011C19.922 21.2011 19.442 18.3211 20.322 18.2411C20.322 18.2411 20.802 18.0811 20.962 18.8811C20.962 18.8811 21.202 20.4811 21.362 20.9611C21.362 21.0411 21.442 21.1211 21.442 21.2011C21.522 21.6811 21.762 23.3611 21.922 23.6811C21.922 23.6811 22.242 23.9211 22.322 23.2811C22.322 23.2811 22.482 21.4411 22.642 20.9611C22.802 20.6411 22.882 19.1211 22.882 18.8811C22.882 18.8811 23.042 17.8411 23.682 18.0011C23.682 18.0011 24.162 18.0011 24.082 18.8011C24.082 18.8011 23.922 20.0811 23.922 20.8811C23.922 22.3211 23.522 24.5611 24.082 24.1611C24.242 23.7611 25.202 21.7611 25.122 21.3611C25.122 21.3611 25.362 19.6811 26.082 20.0811C26.082 20.0811 26.402 20.1611 26.322 20.7211C26.322 20.7211 26.082 22.2411 26.002 22.7211C26.002 23.0411 25.922 23.0411 25.042 25.2811C25.042 25.2811 25.042 25.4411 25.362 25.3611C25.362 25.3611 25.842 25.2011 26.482 23.7611C26.482 23.7611 26.962 23.0411 27.202 23.2011C27.202 23.2011 27.522 23.3611 27.362 23.6811C27.362 23.6811 26.882 25.1211 26.802 25.2811C26.802 25.2811 25.282 27.3611 25.202 28.0011C25.202 28.0011 25.042 29.1211 24.642 29.9211C24.322 30.5611 24.162 30.1611 24.162 32.2411H19.202C19.202 32.2411 19.682 30.7211 18.962 29.3611C18.322 28.1611 18.242 28.6411 16.722 24.8811" fill="#FFCA67"/>
<path d="M22.9588 18.2419C23.0388 18.8819 23.5188 18.8819 23.5188 18.8819C23.7587 18.8019 23.8387 18.7219 23.9188 18.5619C23.9188 18.0019 23.5188 18.0819 23.5188 18.0819C23.1988 17.9219 23.0388 18.0819 22.9588 18.2419ZM19.8387 18.6419C19.9987 19.2019 20.4788 19.1219 20.4788 19.1219C20.7188 19.0419 20.7988 18.8819 20.7988 18.7219C20.6388 18.1619 20.2387 18.2419 20.2387 18.2419C20.0787 18.2419 19.9187 18.4019 19.8387 18.6419ZM25.3588 20.0819C25.4388 20.8019 25.9987 20.6419 26.0787 20.3219C26.0787 20.0019 25.8387 20.0019 25.8387 20.0019C25.6788 19.9219 25.5188 20.0019 25.3588 20.0819ZM27.0387 23.8419C27.1987 23.8419 27.2788 23.6019 27.3588 23.5219C27.4388 23.2819 27.1188 23.1219 27.1188 23.1219C27.0388 23.0419 26.9588 23.1219 26.7988 23.2019C26.5588 23.7619 27.0387 23.8419 27.0387 23.8419ZM16.7988 23.7619V23.8419C16.9588 23.7619 16.9588 23.6019 16.9588 23.6019C16.9588 23.2819 16.8788 23.0419 16.7188 22.9619L16.7988 23.7619Z" fill="#EFEFED"/>
<path d="M35.1998 26.4805H34.3998V18.4805C34.3998 17.8405 33.8398 17.2805 33.1998 17.2805H27.8398V16.4805H33.1998C34.3198 16.4805 35.1998 17.3605 35.1998 18.4805V26.4805Z" fill="#696967"/>
<path d="M12.0002 32.7183V33.0383H6.16016V32.7183C6.16016 32.3983 6.40016 32.2383 6.64016 32.2383H11.5202C11.7602 32.2383 12.0002 32.3983 12.0002 32.7183Z" fill="#EFEFED"/>
<path d="M12.6414 39.1195H5.44141V33.8395C5.44141 33.3595 5.76141 33.0395 6.24141 33.0395C10.7214 33.2795 12.6414 32.4795 12.6414 33.8395V39.1195Z" fill="#696967"/>
<path d="M24.5609 32.7202V33.0402H18.7209C18.7209 32.9602 18.5609 32.1602 19.2009 32.1602C23.4409 32.4002 24.5609 31.8402 24.5609 32.7202Z" fill="#EFEFED"/>
<path d="M25.2781 39.1191H18.0781V33.8391C18.0781 33.3591 18.3981 33.0391 18.8781 33.0391H24.4781C24.9581 33.0391 25.2781 33.3591 25.2781 33.8391V39.1191Z" fill="#696967"/>
<path d="M25.1986 10.0008H5.43859L2.55859 2.80078H28.1586L25.1986 10.0008Z" fill="#7AC1E1"/>
<path d="M34.8022 18.6406C34.4822 18.6406 34.2422 18.8806 34.2422 19.2006V20.8006C34.2422 21.1206 34.4822 21.3606 34.8022 21.3606C35.1222 21.3606 35.3622 21.1206 35.3622 20.8006V19.2006C35.4422 18.8806 35.1222 18.6406 34.8022 18.6406Z" fill="#444445"/>
</g>
<defs>
<clipPath id="clip0_1_3">
<rect width="40" height="40" fill="white"/>
</clipPath>
</defs>
</svg>
