<svg width="66" height="66" fill="none" xmlns="http://www.w3.org/2000/svg"><path d="M50.582 56.98c-.2.35-.4.71-.61 1.06a30.062 30.062 0 0 1-16.97 5.22c-8 0-15.24-3.09-20.65-8.15.97-.33 2.13-.43 3.01-.34.93.09 1.86.44 2.74.17.9-.27 1.38-1.44.73-2.12-.7-.7.36-1.83 1.26-2.28.88-.43 1.77-.43 1.77-1.43.01-.55-.35-1.01-.57-1.52-.95-2.13-.53-3.88 2.27-2.93 3.35 1.13 2.42 1.96 2.08 3.88-.18.99 1.81 1.03 2.76.68.94-.36.67-1.94 1.6-2.37 1.81-.82 3.4 2.75 5.25 2.04 1-.39 1.81-1.36 2.88-1.3.67.05 1.29.58 1.44 1.23.15.65-.19 1.41-.76 1.74-.75.41-1.67.16-2.53.14-.86-.02-1.9.43-1.87 1.28.02 1.1 1.68 1.28 2.33 2.15.55.73.28 1.83-.35 2.48-.63.65-2.1.41-2.38 1.26-.24.74.69 1.31 1.51 1.74.76.4 1.62.62 2.48.56 2.09-.15.82-1.77 1.53-2.75.66-.94 2.29.59 3.36.16.62-.26.62-1.75 1.25-2.2.7-.51 2.54-.14 2.93-.88.26-.53.3-1.14.57-1.68.63-1.29 2.71-1.46 3.57-.31.94 1.26.16 3.07-.63 4.47zM63.269 33.012c0 3.41-.57 6.67-1.6 9.73-.17-.07-.35-.11-.54-.12-1.39-.09-3.11.12-3.83-1.07-.52-.89-.11-2 .22-2.97.33-.98.51-2.22-.28-2.87-.78-.62-1.94-.23-2.76.32-.82.56-1.63 1.29-2.62 1.31-.86.02-1.7-.58-1.95-1.41-.25-.82.1-1.79.82-2.25.93-.6 2.3-.42 3.01-1.26.58-.68.4-1.74-.05-2.51-.46-.76-1.15-1.36-1.64-2.1-.5-.74-.78-1.74-.33-2.51.49-.82 1.72-1.26 1.66-2.21-.07-1.29-2.29-1.23-2.81-2.41-.31-.72.21-1.58.93-1.91.7-.33 1.53-.26 2.31-.19.78.09 1.64-.02 2.37.24 1.01.38.51 2.09.16 3.09-.35 1.01-.83 2.02-.82 3.08.01 1.07.74 2.24 1.81 2.27.63.02 1.22-.37 1.68-.82.45-.45.83-.99 1.33-1.4.48-.39 1.05-.64 1.67-.76.82 2.79 1.26 5.71 1.26 8.73z" fill="#fff"/><path d="M33 63.992a30.88 30.88 0 0 1-21.15-8.34 30.814 30.814 0 0 1-8.08-12.29C2.6 40.042 2 36.562 2 33.012c0-7.43 2.64-14.58 7.43-20.13 5.37-6.29 12.85-10.11 21.05-10.77.8-.07 1.62-.1 2.52-.1 9.09 0 17.68 3.96 23.58 10.87 2.84 3.3 4.9 7.08 6.13 11.23.86 2.86 1.3 5.85 1.3 8.9 0 3.4-.55 6.75-1.64 9.96a30.965 30.965 0 0 1-5.79 10.14c-1.83 2.13-3.91 4-6.2 5.54A30.824 30.824 0 0 1 33 63.992zm0-60.51c-.85 0-1.64.03-2.4.1-7.82.62-14.94 4.27-20.07 10.26-4.56 5.29-7.07 12.1-7.07 19.18a29.348 29.348 0 0 0 7.07 19.14c.75.87 1.52 1.68 2.31 2.41a29.403 29.403 0 0 0 20.15 7.95 29.4 29.4 0 0 0 16.56-5.08c2.18-1.47 4.16-3.25 5.91-5.28 2.45-2.87 4.3-6.12 5.51-9.65a29.41 29.41 0 0 0 1.56-9.49c0-2.9-.42-5.76-1.24-8.48a28.755 28.755 0 0 0-5.84-10.69A29.4 29.4 0 0 0 33 3.482z" fill="#fff"/><path d="M4.47 43.85a.72.72 0 0 1-.69-.49C2.6 40.04 2 36.56 2 33.01c0-7.43 2.64-14.58 7.43-20.13C14.8 6.59 22.28 2.77 30.48 2.11c.33-.02.62.16.74.46l.5 1.23c.47 1.14.97 2.79-.11 3.94-.83.9-2.08.84-3.09.8l-.2-.01c-.73-.04-1.55.14-1.67.59-.03.1-.04.23.08.42.26.38.94.72 1.59.8l.41.04c1.17.12 2.63.27 3.37 1.47.35.55.41 1.16.46 1.7.02.19.04.38.07.57.07.41.32.84.53.79.23-.01.46-.6.47-1.26.02-.62.09-2.48 1.58-2.81 1.1-.26 1.82.58 2.35 1.19.34.39.68.78.99.82.33.03.59-.26 1.1-.89.4-.5.85-1.06 1.5-1.36.74-.34 1.59-.25 2.34.23.84.55 1.37 1.5 1.36 2.44-.03 1.76-1.45 3.05-2.85 3.56-.62.22-1.32.19-1.93.17-.77-.03-1.29-.03-1.4.23-.16.36.13 1.11.39 1.76.25.62.5 1.27.54 1.9.02.4-.29.75-.69.77a.736.736 0 0 1-.77-.69c-.02-.39-.23-.92-.44-1.44-.37-.93-.79-1.98-.37-2.9.53-1.18 1.84-1.13 2.8-1.09.51.02 1.03.04 1.38-.08.89-.32 1.86-1.15 1.88-2.2.01-.44-.27-.91-.69-1.19-.19-.12-.55-.3-.92-.13-.34.16-.66.56-.98.95-.56.69-1.24 1.56-2.41 1.42-.88-.1-1.46-.77-1.93-1.31-.41-.47-.7-.77-.92-.72-.1.02-.4.19-.44 1.43-.04 1.56-.76 2.61-1.85 2.68-1.1.07-1.87-.95-2.05-1.99-.04-.22-.06-.45-.09-.68-.04-.42-.08-.81-.25-1.07-.37-.6-1.34-.7-2.27-.79l-.43-.05c-.83-.1-2.02-.53-2.63-1.43-.34-.5-.44-1.06-.28-1.62.3-1.1 1.51-1.74 3.15-1.67l.21.01c.78.03 1.58.07 1.96-.33.38-.4.32-1.18-.18-2.38l-.3-.73c-7.61.74-14.52 4.36-19.53 10.22C6 19.17 3.49 25.98 3.49 33.06c0 3.2.51 6.33 1.52 9.33.81-.09 1.86-.41 2.44-1.41.55-.95.46-2.18.29-3.58-.04-.35-.05-.8-.06-1.27-.02-.82-.04-2.06-.31-2.48-.15-.22-.3-.45-.46-.67-.81-1.16-1.74-2.48-1.26-4.09.34-1.18 1.41-1.6 2.26-1.95.6-.24 1.17-.47 1.46-.89.16-.22.08-.59-.07-1.18-.16-.63-.36-1.42 0-2.17.68-1.39 2.16-2.27 3.57-2.15.8.07 1.57.47 2.11 1.12.5.6.75 1.33.68 2.05-.08.77-.47 1.44-.82 2.03-.43.74-.69 1.22-.54 1.66.21.65 1.07 1.24 1.91 1.31.24.02.7-.02 1.18-.06l.16-.01c.39-.02.76.27.79.67.03.4-.27.76-.67.79l-.16.01c-.57.05-1.06.09-1.42.05-1.24-.1-2.73-.93-3.18-2.32-.35-1.09.19-2.02.67-2.85.3-.51.58-.98.62-1.43.03-.32-.09-.67-.34-.97-.29-.34-.7-.57-1.11-.6-.82-.06-1.72.49-2.13 1.33-.12.26-.01.7.1 1.17.18.71.4 1.59-.15 2.37-.54.78-1.38 1.11-2.11 1.41-.78.31-1.27.53-1.4 1-.28.94.34 1.82 1.05 2.84.17.24.33.48.49.72.5.77.53 2.09.55 3.25.01.43.02.83.05 1.12.16 1.28.37 3.04-.47 4.49-.83 1.33-2.36 2.12-4.26 2.15zM33 63.99a30.88 30.88 0 0 1-21.15-8.34.746.746 0 0 1-.22-.69c.05-.25.23-.46.48-.54.99-.34 2.25-.49 3.32-.38.29.03.59.08.89.13.57.1 1.12.2 1.56.06a.75.75 0 0 0 .49-.53c.04-.16.02-.29-.07-.39-.34-.34-.49-.8-.41-1.29.15-.91 1.07-1.75 1.87-2.15.24-.12.49-.21.71-.29.66-.24.66-.28.66-.49 0-.21-.12-.46-.27-.75-.08-.16-.16-.32-.23-.48-.69-1.55-.69-2.83 0-3.59.65-.71 1.71-.82 3.18-.33 3.2 1.08 3.17 2.24 2.75 3.89-.06.22-.12.46-.17.71.29.14 1.18.18 1.77-.04.15-.06.26-.39.37-.72.18-.54.43-1.28 1.18-1.63 1.34-.6 2.48.34 3.4 1.09.83.68 1.42 1.11 1.9.93.29-.11.59-.31.91-.52.64-.41 1.38-.87 2.27-.83 1 .07 1.88.83 2.12 1.79.22.98-.25 2.05-1.11 2.54-.77.42-1.57.34-2.28.28-.21-.02-.42-.04-.63-.04-.45-.02-.84.13-1.04.33-.08.08-.09.14-.09.19 0 .23.32.42.84.71.46.26.98.55 1.34 1.02.8 1.07.42 2.59-.42 3.43-.42.43-.99.58-1.5.71-.22.06-.68.17-.71.27.01.07.12.31 1.15.86.68.36 1.39.52 2.09.48.62-.04.62-.04.6-.75-.01-.5-.02-1.13.38-1.69.68-.96 1.8-.57 2.54-.32.4.14.91.31 1.14.22.02-.05.15-.41.22-.63.18-.53.38-1.13.88-1.48.47-.34 1.11-.4 1.72-.46.33-.03.88-.09 1.01-.19.07-.15.13-.4.2-.66.08-.3.17-.64.33-.97.41-.83 1.26-1.38 2.28-1.48 1.03-.1 1.98.3 2.54 1.05 1.23 1.67.27 3.82-.56 5.29-.2.36-.41.73-.63 1.09-.05.09-.13.17-.21.22A30.745 30.745 0 0 1 33 63.99zm-19.09-8.48A29.4 29.4 0 0 0 33 62.52c5.88 0 11.56-1.73 16.43-5 .18-.3.35-.61.52-.9 1-1.78 1.21-2.96.66-3.71-.25-.33-.71-.51-1.23-.46-.5.05-.92.3-1.1.66-.1.2-.16.44-.23.7-.08.3-.17.65-.34.98-.41.78-1.33.87-2.14.95-.34.03-.86.09-1.01.2-.11.08-.26.53-.34.77-.2.58-.42 1.25-1.05 1.51-.75.3-1.5.04-2.17-.19-.28-.1-.75-.25-.89-.22-.11.17-.1.48-.1.81.01.68.04 2.1-1.96 2.25-.94.07-1.94-.15-2.87-.64-.69-.37-2.32-1.22-1.86-2.62.28-.85 1.12-1.07 1.74-1.23.32-.08.68-.17.81-.31.4-.4.6-1.11.29-1.53-.17-.22-.53-.43-.88-.62-.67-.37-1.58-.87-1.6-1.95-.02-.47.16-.9.51-1.26.58-.59 1.48-.78 2.11-.76.24.01.49.03.73.05.57.05 1.07.1 1.43-.1.28-.16.47-.6.4-.93-.08-.33-.43-.63-.78-.66-.42-.03-.86.26-1.38.6-.37.24-.74.48-1.18.65-1.32.51-2.45-.42-3.36-1.16-.85-.7-1.4-1.1-1.86-.89-.17.08-.28.41-.4.76-.19.56-.45 1.32-1.24 1.62-.87.32-2.49.42-3.29-.25-.37-.31-.54-.77-.45-1.25.06-.33.14-.63.21-.91.3-1.18.36-1.42-1.8-2.15-.96-.32-1.47-.25-1.63-.08-.21.23-.21.95.26 2.02.06.14.13.27.19.39.21.41.45.87.44 1.44-.01 1.26-.98 1.61-1.62 1.85-.18.07-.38.14-.57.23-.65.32-1.1.92-1.08 1.1.47.49.63 1.13.46 1.79-.19.74-.76 1.34-1.48 1.55-.78.24-1.56.1-2.25-.02-.26-.05-.51-.09-.77-.12-.42-.03-.9-.02-1.37.03zm47.76-12.03c-.1 0-.19-.02-.28-.06a.88.88 0 0 0-.29-.06c-.24-.02-.49-.02-.73-.03-1.29-.03-2.89-.07-3.68-1.4-.67-1.16-.23-2.45.13-3.49l.03-.09c.12-.37.49-1.62-.05-2.06-.43-.34-1.26-.07-1.89.36l-.42.3c-.73.52-1.56 1.12-2.6 1.14-1.23.01-2.32-.78-2.67-1.92-.35-1.14.12-2.43 1.12-3.08.51-.33 1.08-.47 1.59-.59.54-.13 1.01-.24 1.25-.53.35-.41.18-1.15-.12-1.67-.21-.34-.49-.67-.79-1.01-.28-.33-.58-.67-.83-1.05-.76-1.13-.89-2.36-.35-3.28.25-.42.61-.74.93-1.02.4-.35.64-.57.63-.78-.01-.24-.38-.43-.95-.69-.65-.3-1.45-.67-1.8-1.47-.49-1.13.27-2.4 1.29-2.87.91-.43 1.94-.33 2.7-.25.26.03.51.03.77.04.58.01 1.18.03 1.77.24 1.77.67.89 3.19.6 4.02-.07.21-.15.42-.23.64-.28.77-.55 1.49-.55 2.2.01.72.48 1.53 1.1 1.55.39 0 .85-.32 1.15-.61.16-.16.31-.33.46-.51.28-.31.56-.64.91-.93.56-.46 1.25-.77 2-.92.37-.07.73.15.84.51.86 2.86 1.3 5.86 1.3 8.91 0 3.4-.55 6.75-1.64 9.96a.72.72 0 0 1-.39.43.87.87 0 0 1-.31.07zm-5.38-8.81c.5 0 .99.14 1.41.48.89.73 1.08 2.03.52 3.68l-.03.1c-.29.83-.58 1.7-.25 2.27.35.58 1.2.65 2.46.68.26.01.53.01.78.03.9-2.87 1.36-5.86 1.36-8.88 0-2.66-.35-5.27-1.04-7.79-.26.11-.5.25-.71.42-.26.21-.49.48-.74.76-.18.2-.35.4-.54.59-.73.71-1.47 1.06-2.22 1.03-1.54-.04-2.51-1.59-2.52-3-.01-.98.32-1.87.64-2.72.08-.2.15-.4.22-.61.68-1.95.28-2.17.28-2.17-.36-.13-.82-.14-1.3-.15-.3-.01-.6-.02-.89-.05-.75-.07-1.41-.12-1.92.12-.41.19-.69.67-.57.96.13.29.61.51 1.07.73.73.34 1.74.8 1.8 1.93.06.94-.6 1.51-1.13 1.97-.26.22-.5.44-.63.65-.29.5-.01 1.24.31 1.73.2.31.45.6.72.9.33.38.66.76.94 1.23.53.92.84 2.34-.02 3.36-.55.66-1.34.85-2.04 1.01-.43.1-.83.2-1.13.39-.45.29-.68.92-.52 1.43.15.5.68.89 1.21.89h.02c.59-.01 1.17-.42 1.78-.86.15-.11.3-.22.45-.32.65-.46 1.46-.79 2.23-.79z" fill="#fff"/><path d="M44.55 27.23v11.53c0 1.33-1.08 2.41-2.41 2.41H23.87c-1.33 0-2.41-1.08-2.41-2.41V27.23c0-1.33 1.08-2.41 2.41-2.41h18.27c1.33 0 2.41 1.08 2.41 2.41z" fill="#fff"/><path d="M42.14 41.9H23.87c-1.73 0-3.14-1.41-3.14-3.14V27.23c0-1.73 1.41-3.14 3.14-3.14h18.27c1.73 0 3.14 1.41 3.14 3.14v11.53c0 1.73-1.41 3.14-3.14 3.14zM23.87 25.55c-.93 0-1.68.75-1.68 1.68v11.53c0 .92.75 1.68 1.68 1.68h18.27c.93 0 1.68-.75 1.68-1.68V27.23c0-.92-.75-1.68-1.68-1.68H23.87z" fill="#fff"/><path d="M25.311 37.18c-.17 0-.3-.05-.39-.15a.556.556 0 0 1-.14-.38c0-.06.02-.14.06-.24l3.02-7.12c.05-.13.14-.24.25-.34.11-.1.26-.15.43-.15h.12c.18 0 .33.05.44.15.11.1.19.21.25.34l3.02 7.12a.556.556 0 0 1-.08.62c-.09.1-.22.15-.39.15a.52.52 0 0 1-.51-.33l-.78-1.85h-4.02l-.77 1.85a.52.52 0 0 1-.51.33zm1.69-3.16h3.19l-1.6-3.84-1.59 3.84z" fill="#fff"/><path d="M31.88 37.279c-.28 0-.49-.14-.6-.39l-.74-1.79h-3.89l-.74 1.79c-.11.26-.32.39-.6.39-.19 0-.35-.06-.46-.19a.637.637 0 0 1-.17-.44c0-.08.02-.17.07-.27l3.02-7.12c.06-.14.16-.26.28-.37.13-.11.3-.17.5-.17h.12c.2 0 .37.06.5.17.12.11.21.23.27.37l3.02 7.12c.04.11.07.2.07.27 0 .17-.06.32-.17.44-.13.13-.28.19-.48.19zm-5.36-2.37h4.15l.03.06.77 1.85c.08.18.21.27.42.27.14 0 .24-.04.32-.12a.43.43 0 0 0 .12-.31c0-.05-.02-.12-.05-.2l-3.02-7.12c-.05-.11-.13-.21-.22-.3a.549.549 0 0 0-.37-.12h-.12c-.15 0-.27.04-.37.12-.1.09-.18.19-.23.3l-3.02 7.12c-.03.08-.05.15-.05.2 0 .12.04.23.12.31.08.08.18.12.32.12.21 0 .34-.09.42-.27l.78-1.91zm3.82-.79h-3.48l.06-.14 1.69-4.06 1.73 4.2zm-3.19-.2h2.9l-1.45-3.49-1.45 3.49zm7.54 3.2a.52.52 0 0 1-.38-.15.52.52 0 0 1-.15-.38v-7.18c0-.15.05-.28.15-.38.1-.11.23-.16.38-.16h2.38c.71 0 1.32.12 1.85.36.52.24.95.56 1.3.96.35.4.61.84.77 1.33.17.49.25.98.25 1.48s-.08.99-.25 1.48c-.17.49-.43.93-.77 1.33-.35.4-.78.72-1.3.96s-1.14.36-1.85.36h-2.38v-.01zm.54-1h1.7c.66 0 1.24-.13 1.72-.4.48-.26.86-.63 1.12-1.1.26-.47.4-1.01.4-1.63 0-.62-.13-1.16-.4-1.63a2.76 2.76 0 0 0-1.12-1.1c-.49-.26-1.06-.4-1.72-.4h-1.7v6.26z" fill="#fff"/><path d="M37.06 37.22h-2.38a.61.61 0 0 1-.45-.18.61.61 0 0 1-.18-.45v-7.18c0-.18.06-.33.18-.45.12-.13.27-.19.45-.19h2.38c.72 0 1.36.12 1.89.37.53.25.98.58 1.33.98.35.41.62.86.79 1.36.17.5.26 1 .26 1.51s-.09 1.01-.26 1.51-.44.96-.79 1.36c-.35.41-.8.74-1.33.98-.53.25-1.17.38-1.89.38zm-2.37-8.26c-.12 0-.22.04-.31.13s-.13.19-.13.32v7.18c0 .12.04.22.13.31.08.08.18.13.31.13h2.38c.69 0 1.3-.12 1.8-.35.51-.23.93-.55 1.27-.93.34-.39.59-.82.76-1.3a4.338 4.338 0 0 0 0-2.9c-.16-.47-.42-.91-.76-1.3-.33-.39-.76-.7-1.27-.93-.51-.23-1.11-.35-1.8-.35h-2.38v-.01zm2.25 7.25h-1.8v-6.44h1.8c.68 0 1.27.14 1.77.41.5.27.89.65 1.16 1.14.27.48.41 1.05.41 1.67 0 .63-.14 1.19-.41 1.67-.27.48-.66.87-1.16 1.14-.5.28-1.1.41-1.77.41zm-1.61-.19h1.61c.64 0 1.21-.13 1.67-.38.47-.25.83-.61 1.09-1.06.25-.45.38-.98.38-1.58 0-.59-.13-1.12-.38-1.58-.25-.45-.62-.81-1.09-1.06-.47-.26-1.03-.38-1.67-.38h-1.61v6.04z" fill="#fff"/></svg>