<svg width="41" height="40" viewBox="0 0 41 40" fill="none" xmlns="http://www.w3.org/2000/svg">
<path d="M32.3216 11.5144C29.7555 8.94832 25.595 8.94832 23.0289 11.5144L21.7618 12.7816L20.4946 11.5144C17.9285 8.94832 13.768 8.94832 11.2019 11.5144C8.63582 14.0805 8.63582 18.241 11.2019 20.8071L12.4691 22.0743L20.9871 30.5922C21.0888 30.694 21.2096 30.7747 21.3426 30.8298C21.4755 30.8848 21.618 30.9132 21.7619 30.9132C21.9058 30.9132 22.0483 30.8848 22.1813 30.8298C22.3142 30.7747 22.435 30.694 22.5368 30.5922L31.0547 22.0743L32.3219 20.8071C34.8877 18.241 34.8877 14.0805 32.3216 11.5144Z" fill="#FF4A73"/>
<path d="M22.8719 30.2538L22.5333 30.5923C22.1056 31.02 21.412 31.02 20.983 30.5923L12.4663 22.0742L11.198 20.8059C9.91484 19.5228 9.27344 17.8419 9.27344 16.1608C9.27344 14.4783 9.915 12.7972 11.198 11.5141C12.7662 9.94579 14.9284 9.33703 16.9584 9.68453C15.6194 9.91292 14.3847 10.5523 13.4255 11.5141C12.1423 12.7972 11.5009 14.4781 11.5009 16.1608C11.5009 17.8419 12.1425 19.523 13.4255 20.8059L14.6937 22.0742L22.8719 30.2538Z" fill="#F973A3"/>
<path d="M32.3222 20.8059L31.0555 22.0742L22.5373 30.5923C22.1097 31.02 21.4161 31.02 20.987 30.5923L20.6484 30.2537L28.828 22.0742L30.0947 20.8059C32.6608 18.2398 32.6608 14.0801 30.0947 11.5141C29.1355 10.5523 27.9007 9.91287 26.5617 9.68452C28.5917 9.33702 30.7541 9.94593 32.3222 11.5141C34.8883 14.0801 34.8883 18.2398 32.3222 20.8059Z" fill="#EA2A6A"/>
<path d="M9.72672 24.4807C10.0669 24.4496 10.4083 24.4339 10.7498 24.4337C11.9717 24.4337 13.1972 24.6307 14.3758 25.0284C14.8426 25.1846 15.2985 25.3718 15.7405 25.5887L22.8677 29.0754L34.7938 22.6045C35.3196 22.3025 35.9439 22.2218 36.5293 22.3801C37.1147 22.5384 37.6133 22.9227 37.9153 23.4485C38.5444 24.5421 38.0791 25.6996 37.0713 26.5684L25.2806 37.3702C25.2734 37.3757 25.2661 37.3829 25.2589 37.3884C24.1075 38.2668 22.5711 38.4584 21.2155 37.947L11.6861 34.3482C10.6486 33.999 9.54107 33.9108 8.46141 34.0915C7.84123 34.1949 7.23876 34.3853 6.67188 34.6573V25.1948C7.65237 24.8171 8.68039 24.5768 9.72672 24.4807Z" fill="#FFBB98"/>
<path d="M2.15234 23.6972V35.5575C2.15226 35.665 2.17337 35.7714 2.21446 35.8707C2.25556 35.9701 2.31583 36.0603 2.39183 36.1363C2.46783 36.2123 2.55807 36.2726 2.65739 36.3137C2.7567 36.3548 2.86314 36.3759 2.97063 36.3758H5.8525C5.95999 36.3759 6.06644 36.3548 6.16576 36.3137C6.26509 36.2726 6.35534 36.2123 6.43134 36.1363C6.50735 36.0603 6.56762 35.9701 6.6087 35.8708C6.64979 35.7714 6.67088 35.665 6.67078 35.5575V23.6972C6.6707 23.4802 6.58446 23.2721 6.43102 23.1187C6.27758 22.9652 6.0695 22.879 5.8525 22.8789H2.97047C2.75349 22.879 2.54542 22.9652 2.392 23.1187C2.23859 23.2721 2.15239 23.4802 2.15234 23.6972Z" fill="#3BB2A0"/>
<path d="M2.15234 23.6972V35.5575C2.15226 35.665 2.17337 35.7714 2.21446 35.8707C2.25556 35.9701 2.31583 36.0603 2.39183 36.1363C2.46783 36.2123 2.55807 36.2726 2.65739 36.3137C2.7567 36.3548 2.86314 36.3759 2.97063 36.3758H3.61266C3.72014 36.3759 3.8266 36.3548 3.92592 36.3137C4.02525 36.2726 4.11549 36.2123 4.1915 36.1363C4.2675 36.0603 4.32777 35.9701 4.36886 35.8708C4.40995 35.7714 4.43104 35.665 4.43094 35.5575V23.6972C4.43086 23.4802 4.34462 23.2721 4.19118 23.1187C4.03774 22.9652 3.82965 22.879 3.61266 22.8789H2.97063C2.75363 22.879 2.54554 22.9652 2.3921 23.1187C2.23867 23.2721 2.15243 23.4802 2.15234 23.6972Z" fill="#4BDBC3"/>
<path d="M9.72656 24.4806C10.0667 24.4496 10.4081 24.4339 10.7497 24.4336C11.9716 24.4336 13.197 24.6306 14.3756 25.0283C14.8425 25.1846 15.2984 25.3717 15.7403 25.5886L22.8675 29.0753L23.9972 29.6284C24.7364 30.0008 25.1631 30.7491 25.1631 31.5228C25.1631 31.8445 25.0908 32.1717 24.9353 32.4772C24.4075 33.5238 23.1331 33.9448 22.0866 33.417L13.3366 29.1369C13.3366 29.1369 10.8014 27.9992 7.69125 28.2175L6.67188 28.2994V25.1947C7.65231 24.817 8.68028 24.5767 9.72656 24.4806Z" fill="#FFCAA6"/>
<path d="M17.9678 18.3247L18.8512 16.4551L20.845 24.5148C20.9992 25.1387 21.8845 25.1514 22.0545 24.5295L23.8936 17.8031L24.3484 18.9164C24.3954 19.0313 24.4755 19.1296 24.5785 19.1988C24.6816 19.268 24.8029 19.305 24.927 19.305H29.8772C30.0429 19.305 30.2019 19.2391 30.3191 19.1219C30.4363 19.0047 30.5022 18.8457 30.5022 18.68C30.5022 18.5142 30.4363 18.3553 30.3191 18.238C30.2019 18.1208 30.0429 18.055 29.8772 18.055H25.3469L24.3548 15.6265C24.1291 15.074 23.33 15.1248 23.1733 15.6981L21.482 21.8842L19.643 14.4506C19.5023 13.8819 18.7219 13.803 18.4711 14.3336L17.0067 17.4326H13.6406C13.4749 17.4326 13.3159 17.4985 13.1987 17.6157C13.0815 17.7329 13.0156 17.8919 13.0156 18.0576C13.0156 18.2234 13.0815 18.3824 13.1987 18.4996C13.3159 18.6168 13.4749 18.6826 13.6406 18.6826H17.4027C17.5211 18.6827 17.6371 18.649 17.7372 18.5856C17.8372 18.5223 17.9172 18.4318 17.9678 18.3247ZM18.0884 23.5848C17.9705 23.4685 17.8113 23.4036 17.6456 23.4042C17.4799 23.4048 17.3212 23.4708 17.2041 23.588C17.0878 23.7059 17.0228 23.8651 17.0234 24.0308C17.024 24.1964 17.0901 24.3552 17.2072 24.4723L17.3869 24.6504C17.63 24.8936 18.0297 24.892 18.2712 24.6473C18.3292 24.5891 18.375 24.52 18.4062 24.444C18.4374 24.368 18.4533 24.2866 18.4531 24.2045C18.4528 24.1223 18.4363 24.0411 18.4046 23.9653C18.3728 23.8895 18.3265 23.8208 18.2681 23.763L18.0884 23.5848ZM16.4244 21.9348L14.8712 20.3942C14.813 20.3363 14.7439 20.2904 14.6679 20.2592C14.5919 20.228 14.5106 20.2121 14.4284 20.2124C14.3463 20.2127 14.265 20.2292 14.1892 20.2609C14.1135 20.2926 14.0447 20.339 13.9869 20.3973C13.8706 20.5153 13.8056 20.6745 13.8062 20.8402C13.8068 21.0058 13.8729 21.1645 13.99 21.2817L15.5431 22.8223C15.6609 22.9389 15.8202 23.0041 15.986 23.0035C16.1517 23.0029 16.3105 22.9366 16.4275 22.8192C16.4854 22.761 16.5313 22.6919 16.5625 22.6159C16.5937 22.5399 16.6096 22.4585 16.6093 22.3764C16.609 22.2942 16.5925 22.2129 16.5608 22.1372C16.5291 22.0614 16.4827 21.9927 16.4244 21.9348Z" fill="#5F266D"/>
<path d="M34.4914 22.0544L28.9445 25.0638L32.7617 21.2466C35.5689 18.4394 35.5672 13.8755 32.7617 11.07C29.957 8.26531 25.3914 8.26531 22.5852 11.07L21.7602 11.895L20.9352 11.07C18.1289 8.26531 13.5648 8.26531 10.7586 11.07C7.95234 13.8763 7.95234 18.4419 10.7586 21.2466L13.6852 24.1747C11.5815 23.6441 9.37317 23.6949 7.29609 24.3216V23.6981C7.29609 22.9028 6.64922 22.2559 5.85234 22.2559H2.97109C2.17578 22.2559 1.52734 22.9028 1.52734 23.6981V35.5559C1.52734 36.3528 2.17578 36.9997 2.97109 36.9997H5.85234C6.64922 36.9997 7.29609 36.3528 7.29609 35.5559V35.0653C8.63516 34.5247 10.1039 34.4762 11.4742 34.9372L20.993 38.5294C22.583 39.1328 24.3577 38.8586 25.632 37.8872C25.693 37.8419 37.0398 27.4419 37.4789 27.0387C38.8008 25.9372 39.1836 24.4075 38.4539 23.1372C37.6539 21.7481 35.8711 21.2653 34.4914 22.0544ZM6.04609 35.5559C6.04609 35.6637 5.96016 35.7497 5.85234 35.7497H2.97109C2.86484 35.7497 2.77734 35.6637 2.77734 35.5559V23.6981C2.77734 23.5919 2.86484 23.5059 2.97109 23.5059H5.85234C5.96016 23.5059 6.04609 23.5919 6.04609 23.6981V35.5559ZM11.643 20.3638C9.32422 18.045 9.32422 14.2731 11.643 11.9544C13.9661 9.63125 17.7395 9.64 20.0508 11.9544L21.318 13.2216C21.4354 13.3386 21.5944 13.4043 21.7602 13.4043C21.9259 13.4043 22.0849 13.3386 22.2023 13.2216L23.4695 11.9544C25.7883 9.63562 29.5602 9.63562 31.8789 11.9544C34.2078 14.2864 34.1958 18.0438 31.8789 20.3638L25.082 27.1606L22.8492 28.3716L16.5867 25.3075L11.643 20.3638ZM36.668 26.0872C36.6548 26.0977 24.8698 36.8942 24.857 36.9059C23.9008 37.6231 22.5914 37.7981 21.4336 37.3606L11.8852 33.7559C10.3982 33.252 8.78781 33.2443 7.29609 33.7341V25.6325C9.97578 24.7216 12.9289 24.9028 15.4633 26.1497C15.6195 26.2259 22.7161 29.6963 23.7133 30.1856C24.4992 30.6048 24.7277 31.5033 24.3742 32.195C24.2859 32.3713 24.1635 32.5284 24.0142 32.6572C23.8648 32.7859 23.6914 32.8838 23.5039 32.9451C23.3165 33.0064 23.1188 33.0299 22.9222 33.0144C22.7256 32.9988 22.534 32.9444 22.3586 32.8544L13.4398 28.4919C12.6966 28.1295 12.1491 29.2523 12.8898 29.6153L21.8023 33.9747C23.1745 34.6636 24.818 34.0934 25.4898 32.7606C26.1783 31.4064 25.6309 29.7223 24.2273 29.0466C28.3225 26.8241 21.0627 30.7623 35.1008 23.1466C35.8945 22.6919 36.9133 22.9669 37.3695 23.7606C37.8711 24.6325 37.3367 25.5341 36.668 26.0872Z" fill="#5F266D"/>
</svg>
