<svg width="34" height="34" viewBox="0 0 34 34" fill="none" xmlns="http://www.w3.org/2000/svg">
<path d="M6.89235 0.0637503C5.74704 0.0637503 4.81882 0.991977 4.81882 2.13722C4.81882 3.19859 4.81882 26.5586 4.81882 27.7104L24.8952 33.8992L25.3818 33.9309H25.5538C26.6991 33.9309 27.6273 33.0027 27.6273 31.8574V8.35776L29.7008 0.0637503H6.89235Z" fill="#DDEAF0"/>
<path d="M21.4064 8.36832H24.1711C24.1711 11.0404 22.005 13.2065 19.333 13.2065V10.4418C20.4775 10.4418 21.4064 9.51356 21.4064 8.36832ZM24.1711 8.36832H21.4064C21.4064 7.22308 20.4775 6.29485 19.333 6.29485V3.53016C22.005 3.53016 24.1711 5.69626 24.1711 8.36832ZM19.333 3.53016V6.29485C18.1877 6.29485 17.2595 7.22308 17.2595 8.36832H14.4948C14.4948 5.69626 16.6609 3.53016 19.333 3.53016Z" fill="#DD641A"/>
<path d="M19.3329 10.4327V13.1974C16.6609 13.1974 14.4948 11.0313 14.4948 8.35922H17.2594C17.2594 9.50446 18.1876 10.4327 19.3329 10.4327Z" fill="#DD641A"/>
<path d="M29.6997 0.0637503C30.845 0.0637503 31.7732 0.991977 31.7732 2.13722V8.35769H27.6262V2.13722C27.6263 1.0028 28.5451 0.0637503 29.6997 0.0637503Z" fill="#BDDEED"/>
<path d="M20.0241 21.4917V24.9476H17.2594L16.5547 23.45L17.2594 21.4917H20.0241Z" fill="#95DB3D"/>
<path d="M17.2592 24.9513H14.4945L13.8898 22.7856L14.4945 20.1131H17.2592C17.2592 21.4202 17.2592 24.0903 17.2592 24.9513Z" fill="#F2D543"/>
<path d="M14.4947 24.9529H11.73L10.841 22.1652L11.73 18.0412H14.4947C14.4947 18.8719 14.4947 24.131 14.4947 24.9529Z" fill="#79D5FA"/>
<path d="M11.7305 24.9545H8.96577V15.9694H11.7305C11.7305 17.1319 11.7305 24.1476 11.7305 24.9545Z" fill="#DD641A"/>
<path d="M25.5536 33.9358H4.30023C3.15499 33.9358 2.22676 33.0076 2.22676 31.8623V27.7153C3.32339 27.7153 22.7816 27.7153 23.4801 27.7153V31.8623C23.4801 32.9967 24.399 33.9358 25.5536 33.9358Z" fill="#BDDEED"/>
<path d="M21.4068 25.6392H7.58344C7.20174 25.6392 6.89229 25.3297 6.89229 24.948C6.89229 24.5663 7.20174 24.2569 7.58344 24.2569H21.4068C21.7885 24.2569 22.0979 24.5663 22.0979 24.948C22.0979 25.3297 21.7885 25.6392 21.4068 25.6392Z" fill="#466889"/>
<path d="M24.8626 7.67291H22.0105C21.7599 6.70285 20.9945 5.93752 20.0245 5.6869V2.83475C20.0245 2.45305 19.715 2.14359 19.3333 2.14359C18.9516 2.14359 18.6421 2.45305 18.6421 2.83475V5.6869C17.6721 5.93752 16.9068 6.70285 16.6561 7.67291H13.804C13.4223 7.67291 13.1128 7.98236 13.1128 8.36407C13.1128 8.74577 13.4223 9.05522 13.804 9.05522H16.6561C16.9068 10.0253 17.6721 10.7906 18.6421 11.0412V13.8934C18.6421 14.2751 18.9516 14.5845 19.3333 14.5845C19.715 14.5845 20.0245 14.2751 20.0245 13.8934V11.0412C20.9945 10.7906 21.7599 10.0253 22.0105 9.05522H24.8626C25.2443 9.05522 25.5538 8.74577 25.5538 8.36407C25.5538 7.98236 25.2443 7.67291 24.8626 7.67291ZM19.3333 9.74638C18.5711 9.74638 17.951 9.12628 17.951 8.36407C17.951 7.60186 18.5711 6.98176 19.3333 6.98176C20.0955 6.98176 20.7156 7.60186 20.7156 8.36407C20.7156 9.12628 20.0955 9.74638 19.3333 9.74638ZM11.0393 5.59938H7.58344C7.20174 5.59938 6.89229 5.28992 6.89229 4.90822C6.89229 4.52652 7.20174 4.21706 7.58344 4.21706H11.0393C11.421 4.21706 11.7305 4.52652 11.7305 4.90822C11.7305 5.28999 11.421 5.59938 11.0393 5.59938ZM11.0393 8.36407H7.58344C7.20174 8.36407 6.89229 8.05461 6.89229 7.67291C6.89229 7.29121 7.20174 6.98176 7.58344 6.98176H11.0393C11.421 6.98176 11.7305 7.29121 11.7305 7.67291C11.7305 8.05461 11.421 8.36407 11.0393 8.36407ZM11.0393 11.1288H7.58344C7.20174 11.1288 6.89229 10.8193 6.89229 10.4376C6.89229 10.0559 7.20174 9.74645 7.58344 9.74645H11.0393C11.421 9.74645 11.7305 10.0559 11.7305 10.4376C11.7305 10.8193 11.421 11.1288 11.0393 11.1288Z" fill="#8DC0D6"/>
</svg>
