<svg width="52" height="52" viewBox="0 0 52 52" fill="none" xmlns="http://www.w3.org/2000/svg">
<g clip-path="url(#clip0_9421_1537)">
<path d="M51.4922 46.618L27.0969 44.8813C25.4922 44.7695 24.05 45.8867 23.7758 47.4813C23.6641 48.1109 23.3695 48.6898 22.9227 49.1469L22.1812 49.8984C21.1758 50.9141 19.8047 51.493 18.3828 51.493L18.1797 46.8211H10.7656L5.51484 46.0289C5.02734 45.9578 4.67188 45.5414 4.67188 45.0539V43.368L4.59063 43.3477C4.225 43.2664 3.96094 42.9414 3.96094 42.5656V41.4688C3.96094 41.0625 4.26562 40.7172 4.67188 40.6766V38.757C4.67188 38.3609 4.91563 37.9953 5.28125 37.843V36.1977C5.28125 35.7711 5.55547 35.3852 5.96172 35.2531L11.0195 33.5977H18.8906L24.2023 34.6133L51.4922 33.618V46.618Z" fill="#F5B7A9"/>
<path d="M46.6172 0.507812L44.8805 24.9031C44.7687 26.5078 45.8859 27.95 47.4805 28.2242C48.1102 28.3359 48.6891 28.6305 49.1461 29.0773L49.8977 29.8188C50.9133 30.8242 51.4922 32.1953 51.4922 33.6172L46.8203 33.8203V41.2344L46.0281 46.4852C45.957 46.9727 45.5406 47.3281 45.0531 47.3281H43.3672L43.3469 47.4094C43.2656 47.775 42.9406 48.0391 42.5648 48.0391H41.468C41.0617 48.0391 40.7164 47.7344 40.6758 47.3281H38.7563C38.3602 47.3281 37.9945 47.0844 37.8422 46.7188H36.1969C35.7703 46.7188 35.3844 46.4445 35.2523 46.0383L33.6172 40.9805V33.1094L34.6328 27.7977L33.6172 0.507812H46.6172Z" fill="#EF917B"/>
<path d="M0.507812 5.38281L24.9031 7.11953C26.5078 7.23125 27.95 6.11406 28.2242 4.51953C28.3359 3.88984 28.6305 3.31094 29.0773 2.85391L29.8188 2.10234C30.8141 1.08672 32.1852 0.507812 33.6172 0.507812L33.8203 5.17969H41.2344L46.4852 5.97187C46.9727 6.04297 47.3281 6.45937 47.3281 6.94688V8.63281L47.4094 8.65312C47.775 8.73438 48.0391 9.05937 48.0391 9.43516V10.532C48.0391 10.9383 47.7344 11.2836 47.3281 11.3242V13.2437C47.3281 13.6398 47.0844 14.0055 46.7188 14.1578V15.8031C46.7188 16.2297 46.4445 16.6156 46.0383 16.7477L40.9805 18.3828H33.1094L27.7977 17.3672L0.507812 18.3828V5.38281Z" fill="#E96B4E"/>
<path d="M5.38281 51.4922L7.11953 27.0969C7.23125 25.4922 6.11406 24.05 4.51953 23.7758C3.88984 23.6641 3.31094 23.3695 2.85391 22.9227L2.10234 22.1812C1.08672 21.1859 0.507812 19.8148 0.507812 18.3828L5.17969 18.1797V10.7656L5.97187 5.51484C6.04297 5.02734 6.45937 4.67188 6.94687 4.67188H8.63281L8.65312 4.59063C8.73437 4.225 9.05937 3.96094 9.43516 3.96094H10.532C10.9383 3.96094 11.2836 4.26562 11.3242 4.67188H13.2437C13.6398 4.67188 14.0055 4.91563 14.1578 5.28125H15.8031C16.2297 5.28125 16.6156 5.55547 16.7477 5.96172L18.4031 11.0195V18.8906L17.3875 24.2023L18.3828 51.4922H5.38281Z" fill="#EF917B"/>
<path d="M8.125 4.66123L9.14042 4.68084L9.03886 9.96107L8.02344 9.94137L8.125 4.66123ZM11.8185 4.64844L12.0341 9.92552L11.0193 9.96696L10.8037 4.68998L11.8185 4.64844ZM14.6453 5.21252L15.2297 9.88855L14.2219 10.0145L13.6375 5.33845L14.6453 5.21252Z" fill="#E96B4E"/>
<path d="M42.0579 8.02344L47.3381 8.125L47.3186 9.14042L42.0384 9.03886L42.0579 8.02344ZM47.3101 10.8054L47.3515 11.8203L42.0746 12.0358L42.033 11.021L47.3101 10.8054ZM46.6605 13.6387L46.7865 14.6464L42.1103 15.2308L41.9844 14.223L46.6605 13.6387Z" fill="#EF917B"/>
<path d="M42.9585 42.0378L43.9739 42.0573L43.8724 47.3375L42.8569 47.318L42.9585 42.0378ZM40.9764 42.024L41.192 47.3011L40.1772 47.3425L39.9616 42.0655L40.9764 42.024ZM37.7733 41.9844L38.3577 46.6605L37.3499 46.7865L36.7656 42.1103L37.7733 41.9844Z" fill="#E96B4E"/>
<path d="M27.7266 34.5008L24.2023 34.6328L18.8906 33.6172H11.0195L5.96172 35.2727C5.55547 35.4047 5.28125 35.7906 5.28125 36.2172V37.8625C4.91563 38.0148 4.67188 38.3805 4.67188 38.7766V40.6961C4.26562 40.7367 3.96094 41.082 3.96094 41.4883V42.5852C3.96094 42.9609 4.225 43.2859 4.59063 43.3672H4.67188V45.0531C4.67188 45.5406 5.02734 45.957 5.51484 46.0281L10.7656 46.8203H18.1797L18.3828 51.4922C19.8148 51.4922 21.1859 50.9133 22.1812 49.8977L22.9227 49.1461C23.3695 48.6891 23.6641 48.1102 23.7758 47.4805C24.05 45.8859 25.482 44.7687 27.0969 44.8805L27.7266 44.9211V34.5008Z" fill="#F5B7A9"/>
<path d="M4.68012 42.8595L9.96025 42.9611L9.94065 43.9765L4.66041 43.8749L4.68012 42.8595ZM9.93334 39.966L9.97477 40.9808L4.69779 41.1963L4.65625 40.1815L9.93334 39.966ZM9.88692 36.7695L10.0129 37.7773L5.33672 38.3616L5.21078 37.3539L9.88692 36.7695Z" fill="#EF917B"/>
<path d="M25.4922 7.21094H26.5078V17.5703H25.4922V7.21094Z" fill="#D7D5C1"/>
<path d="M26 8.22656C26.5609 8.22656 27.0156 7.77185 27.0156 7.21094C27.0156 6.65002 26.5609 6.19531 26 6.19531C25.4391 6.19531 24.9844 6.65002 24.9844 7.21094C24.9844 7.77185 25.4391 8.22656 26 8.22656Z" fill="#EBEAE0"/>
<path d="M26 11.6797C26.5609 11.6797 27.0156 11.225 27.0156 10.6641C27.0156 10.1031 26.5609 9.64844 26 9.64844C25.4391 9.64844 24.9844 10.1031 24.9844 10.6641C24.9844 11.225 25.4391 11.6797 26 11.6797Z" fill="#EBEAE0"/>
<path d="M26 15.1328C26.5609 15.1328 27.0156 14.6781 27.0156 14.1172C27.0156 13.5563 26.5609 13.1016 26 13.1016C25.4391 13.1016 24.9844 13.5563 24.9844 14.1172C24.9844 14.6781 25.4391 15.1328 26 15.1328Z" fill="#EBEAE0"/>
<path d="M26 18.5859C26.5609 18.5859 27.0156 18.1312 27.0156 17.5703C27.0156 17.0094 26.5609 16.5547 26 16.5547C25.4391 16.5547 24.9844 17.0094 24.9844 17.5703C24.9844 18.1312 25.4391 18.5859 26 18.5859Z" fill="#EBEAE0"/>
<path d="M34.6328 25.4922H44.9922V26.5078H34.6328V25.4922Z" fill="#C12944"/>
<path d="M34.6328 27.0156C35.1937 27.0156 35.6484 26.5609 35.6484 26C35.6484 25.4391 35.1937 24.9844 34.6328 24.9844C34.0719 24.9844 33.6172 25.4391 33.6172 26C33.6172 26.5609 34.0719 27.0156 34.6328 27.0156Z" fill="#D84861"/>
<path d="M38.0859 27.0156C38.6469 27.0156 39.1016 26.5609 39.1016 26C39.1016 25.4391 38.6469 24.9844 38.0859 24.9844C37.525 24.9844 37.0703 25.4391 37.0703 26C37.0703 26.5609 37.525 27.0156 38.0859 27.0156Z" fill="#D84861"/>
<path d="M41.5391 27.0156C42.1 27.0156 42.5547 26.5609 42.5547 26C42.5547 25.4391 42.1 24.9844 41.5391 24.9844C40.9781 24.9844 40.5234 25.4391 40.5234 26C40.5234 26.5609 40.9781 27.0156 41.5391 27.0156Z" fill="#D84861"/>
<path d="M44.9922 27.0156C45.5531 27.0156 46.0078 26.5609 46.0078 26C46.0078 25.4391 45.5531 24.9844 44.9922 24.9844C44.4313 24.9844 43.9766 25.4391 43.9766 26C43.9766 26.5609 44.4313 27.0156 44.9922 27.0156Z" fill="#D84861"/>
<path d="M7.82031 34.4297H8.83594V37.4766H7.82031V34.4297ZM5.58594 24.9844H18.9922V27.0156H5.58594V24.9844Z" fill="#D84861"/>
<path d="M34.4297 22.2422H44.9922V23.2578H34.4297V22.2422ZM11.4766 7.71875H14.5234V8.73438H11.4766V7.71875Z" fill="#EBEAE0"/>
</g>
<defs>
<clipPath id="clip0_9421_1537">
<rect width="52" height="52" fill="white"/>
</clipPath>
</defs>
</svg>
