<svg width="38" height="38" viewBox="0 0 38 38" fill="none" xmlns="http://www.w3.org/2000/svg">
<g clip-path="url(#clip0_4428_1636)">
<path d="M29.5727 5.99124H8.36321C7.16793 5.99124 6.19897 6.9602 6.19897 8.15547V34.9919C6.19897 36.1872 7.16793 37.1562 8.36321 37.1562H29.5727C30.7679 37.1562 31.7369 36.1872 31.7369 34.9919V8.15547C31.7369 6.9602 30.7679 5.99124 29.5727 5.99124Z" fill="#FFC166"/>
<path d="M26.6898 8.1553H29.1426C29.2574 8.15539 29.3674 8.20103 29.4486 8.28218C29.5297 8.36334 29.5753 8.47338 29.5754 8.58815V29.1483L25.1748 33.9097H8.79881C8.68404 33.9096 8.574 33.8639 8.49284 33.7828C8.41169 33.7016 8.36606 33.5916 8.36597 33.4768V8.58815C8.36606 8.47338 8.41169 8.36334 8.49284 8.28218C8.574 8.20103 8.68404 8.15539 8.79881 8.1553H26.6898Z" fill="white"/>
<path d="M26.6936 7.07336V9.23759C26.6937 9.42708 26.6564 9.61472 26.5839 9.78979C26.5114 9.96487 26.4051 10.1239 26.2712 10.2579C26.1372 10.3919 25.9781 10.4982 25.803 10.5707C25.6279 10.6432 25.4403 10.6805 25.2508 10.6804H14.8625C14.673 10.6805 14.4854 10.6432 14.3103 10.5707C14.1352 10.4982 13.9761 10.3919 13.8422 10.2579C13.7082 10.1239 13.6019 9.96487 13.5294 9.78979C13.4569 9.61472 13.4196 9.42708 13.4197 9.23759V7.07336C13.4194 6.86854 13.4628 6.66603 13.5472 6.4794C13.6316 6.29276 13.7548 6.12632 13.9088 5.99124H26.2045C26.3585 6.12632 26.4818 6.29276 26.5661 6.4794C26.6505 6.66603 26.694 6.86854 26.6936 7.07336Z" fill="#EEEEEE"/>
<path d="M26.6936 7.07336V8.15547H13.4197V7.07336C13.4194 6.86854 13.4628 6.66603 13.5472 6.4794C13.6316 6.29276 13.7548 6.12632 13.9088 5.99124H26.2045C26.3585 6.12632 26.4818 6.29276 26.5661 6.4794C26.6505 6.66603 26.694 6.86854 26.6936 7.07336Z" fill="#FFB74E"/>
<path d="M22.3557 4.54912C22.3187 3.67569 21.9457 2.85034 21.3145 2.24541C20.6834 1.64049 19.843 1.30276 18.9688 1.30276C18.0945 1.30276 17.2541 1.64049 16.623 2.24541C15.9919 2.85034 15.6188 3.67569 15.5818 4.54912H13.7746C13.3919 4.54912 13.025 4.70113 12.7544 4.97171C12.4838 5.24229 12.3318 5.60928 12.3318 5.99194V8.15617C12.3318 8.53883 12.4838 8.90582 12.7544 9.1764C13.025 9.44698 13.3919 9.59899 13.7746 9.59899H24.1629C24.5456 9.59899 24.9126 9.44698 25.1831 9.1764C25.4537 8.90582 25.6057 8.53883 25.6057 8.15617V5.99194C25.6057 5.60928 25.4537 5.24229 25.1831 4.97171C24.9126 4.70113 24.5456 4.54912 24.1629 4.54912H22.3557Z" fill="#BEBEBE"/>
<path d="M24.1637 4.54911H23.0816C23.271 4.54911 23.4587 4.58643 23.6337 4.65894C23.8088 4.73145 23.9678 4.83773 24.1018 4.9717C24.2358 5.10568 24.342 5.26474 24.4146 5.43979C24.4871 5.61484 24.5244 5.80246 24.5244 5.99193V8.15616C24.5244 8.34564 24.4871 8.53326 24.4146 8.70831C24.342 8.88336 24.2358 9.04241 24.1018 9.17639C23.9678 9.31037 23.8088 9.41665 23.6337 9.48916C23.4587 9.56167 23.271 9.59899 23.0816 9.59899H24.1637C24.5463 9.59899 24.9133 9.44697 25.1839 9.17639C25.4545 8.90581 25.6065 8.53882 25.6065 8.15616V5.99193C25.6065 5.60927 25.4545 5.24229 25.1839 4.9717C24.9133 4.70112 24.5463 4.54911 24.1637 4.54911ZM21.2744 4.54911H22.3565C22.3364 4.07065 22.2151 3.60189 22.0006 3.17373C21.7861 2.74556 21.4833 2.36772 21.1122 2.06511C20.741 1.7625 20.3099 1.54198 19.8473 1.41811C19.3848 1.29423 18.9012 1.2698 18.4285 1.34644C19.199 1.47119 19.9028 1.85792 20.4213 2.44138C20.9398 3.02484 21.2411 3.76929 21.2744 4.54911Z" fill="#ADADAD"/>
<path d="M25.1736 33.9078V29.5794C25.1736 29.4646 25.2192 29.3545 25.3004 29.2733C25.3815 29.1921 25.4916 29.1465 25.6064 29.1465H29.5742L25.1736 33.9078Z" fill="#EEEEEE"/>
<path d="M11.6137 19.8954C11.7822 19.0593 12.2349 18.3073 12.8949 17.7671C13.5549 17.2268 14.3815 16.9317 15.2344 16.9317C16.0873 16.9317 16.9139 17.2268 17.5739 17.7671C18.2339 18.3073 18.6866 19.0593 18.8552 19.8954L18.8546 20.4365L11.5076 20.426L11.6137 19.8954Z" fill="#FF8E66"/>
<path d="M17.8409 18.0132C17.4983 17.6697 17.0912 17.3974 16.643 17.2118C16.1948 17.0262 15.7143 16.931 15.2292 16.9317C15.0485 16.9318 14.868 16.9452 14.6892 16.9716C15.4408 17.0831 16.1398 17.4237 16.6908 17.947C17.2418 18.4702 17.618 19.1507 17.7682 19.8955H18.8503C18.7072 19.1821 18.3559 18.5272 17.8409 18.0132Z" fill="#FF7C4E"/>
<path d="M15.233 16.9333C16.3616 16.9333 17.2766 16.0183 17.2766 14.8896C17.2766 13.7609 16.3616 12.8459 15.233 12.8459C14.1043 12.8459 13.1893 13.7609 13.1893 14.8896C13.1893 16.0183 14.1043 16.9333 15.233 16.9333Z" fill="#FFCD85"/>
<path d="M15.2302 12.8459C15.0474 12.8459 14.8654 12.8704 14.6891 12.9188C15.1209 13.0374 15.5018 13.2944 15.7733 13.6505C16.0447 14.0065 16.1918 14.4418 16.1918 14.8896C16.1918 15.3373 16.0447 15.7727 15.7733 16.1287C15.5018 16.4847 15.1209 16.7418 14.6891 16.8603C14.9702 16.9375 15.2645 16.9536 15.5523 16.9077C15.8401 16.8618 16.1147 16.7548 16.3578 16.594C16.6008 16.4332 16.8067 16.2223 16.9615 15.9754C17.1164 15.7285 17.2166 15.4514 17.2556 15.1625C17.2945 14.8737 17.2712 14.5799 17.1872 14.3008C17.1033 14.0217 16.9606 13.7638 16.7688 13.5444C16.577 13.325 16.3404 13.1492 16.0751 13.0287C15.8097 12.9082 15.5216 12.8459 15.2302 12.8459V12.8459Z" fill="#FFC166"/>
<path d="M14.0468 22.835H11.7023C11.503 22.835 11.3416 22.9965 11.3416 23.1957V25.5403C11.3416 25.7395 11.503 25.901 11.7023 25.901H14.0468C14.2461 25.901 14.4075 25.7395 14.4075 25.5403V23.1957C14.4075 22.9965 14.2461 22.835 14.0468 22.835Z" fill="#EEEEEE"/>
<path d="M14.1122 28.4795H11.6388C11.4396 28.4795 11.2781 28.641 11.2781 28.8402V31.3137C11.2781 31.5129 11.4396 31.6744 11.6388 31.6744H14.1122C14.3114 31.6744 14.4729 31.5129 14.4729 31.3137V28.8402C14.4729 28.641 14.3114 28.4795 14.1122 28.4795Z" fill="#EEEEEE"/>
<path d="M14.1375 22.8359H11.6125C11.5415 22.8359 11.4711 22.8499 11.4055 22.8771C11.3398 22.9043 11.2802 22.9442 11.2299 22.9944C11.1797 23.0446 11.1398 23.1043 11.1126 23.1699C11.0855 23.2356 11.0715 23.3059 11.0715 23.377V25.9019C11.0715 25.973 11.0855 26.0433 11.1126 26.109C11.1398 26.1746 11.1797 26.2343 11.2299 26.2845C11.2802 26.3348 11.3398 26.3746 11.4055 26.4018C11.4711 26.429 11.5415 26.443 11.6125 26.443H14.1375C14.2085 26.443 14.2789 26.429 14.3445 26.4018C14.4102 26.3746 14.4698 26.3348 14.5201 26.2845C14.5703 26.2343 14.6102 26.1746 14.6373 26.109C14.6645 26.0433 14.6785 25.973 14.6785 25.9019V23.377C14.6785 23.3059 14.6645 23.2356 14.6373 23.1699C14.6102 23.1043 14.5703 23.0446 14.5201 22.9944C14.4698 22.9442 14.4102 22.9043 14.3445 22.8771C14.2789 22.8499 14.2085 22.8359 14.1375 22.8359ZM13.5964 25.3609H12.1536V23.9181H13.5964V25.3609ZM14.1375 28.6072H11.6125C11.5415 28.6072 11.4711 28.6212 11.4055 28.6484C11.3398 28.6756 11.2802 28.7154 11.2299 28.7657C11.1797 28.8159 11.1398 28.8756 11.1126 28.9412C11.0855 29.0069 11.0715 29.0772 11.0715 29.1483V31.6732C11.0715 31.7443 11.0855 31.8146 11.1126 31.8803C11.1398 31.9459 11.1797 32.0056 11.2299 32.0558C11.2802 32.106 11.3398 32.1459 11.4055 32.1731C11.4711 32.2003 11.5415 32.2143 11.6125 32.2143H14.1375C14.2085 32.2143 14.2789 32.2003 14.3445 32.1731C14.4102 32.1459 14.4698 32.106 14.5201 32.0558C14.5703 32.0056 14.6102 31.9459 14.6373 31.8803C14.6645 31.8146 14.6785 31.7443 14.6785 31.6732V29.1483C14.6785 29.0772 14.6645 29.0069 14.6373 28.9412C14.6102 28.8756 14.5703 28.8159 14.5201 28.7657C14.4698 28.7154 14.4102 28.6756 14.3445 28.6484C14.2789 28.6212 14.2085 28.6072 14.1375 28.6072ZM13.5964 31.1322H12.1536V29.6893H13.5964V31.1322ZM21.9287 31.1322H17.3838C17.2403 31.1322 17.1027 31.1892 17.0012 31.2906C16.8998 31.3921 16.8428 31.5297 16.8428 31.6732C16.8428 31.8167 16.8998 31.9543 17.0012 32.0558C17.1027 32.1573 17.2403 32.2143 17.3838 32.2143H21.9287C22.0722 32.2143 22.2098 32.1573 22.3113 32.0558C22.4128 31.9543 22.4698 31.8167 22.4698 31.6732C22.4698 31.5297 22.4128 31.3921 22.3113 31.2906C22.2098 31.1892 22.0722 31.1322 21.9287 31.1322ZM20.3007 13.3855H26.3293C26.4728 13.3855 26.6104 13.3285 26.7119 13.227C26.8134 13.1255 26.8704 12.9879 26.8704 12.8444C26.8704 12.7009 26.8134 12.5633 26.7119 12.4618C26.6104 12.3603 26.4728 12.3033 26.3293 12.3033H20.3007C20.1572 12.3033 20.0196 12.3603 19.9181 12.4618C19.8166 12.5633 19.7596 12.7009 19.7596 12.8444C19.7596 12.9879 19.8166 13.1255 19.9181 13.227C20.0196 13.3285 20.1572 13.3855 20.3007 13.3855ZM20.3007 15.5497H24.1651C24.3086 15.5497 24.4462 15.4927 24.5477 15.3912C24.6491 15.2897 24.7061 15.1521 24.7061 15.0086C24.7061 14.8651 24.6491 14.7275 24.5477 14.626C24.4462 14.5246 24.3086 14.4676 24.1651 14.4676H20.3007C20.1572 14.4676 20.0196 14.5246 19.9181 14.626C19.8166 14.7275 19.7596 14.8651 19.7596 15.0086C19.7596 15.1521 19.8166 15.2897 19.9181 15.3912C20.0196 15.4927 20.1572 15.5497 20.3007 15.5497ZM11.5064 20.4262C11.5761 20.4401 11.6478 20.4402 11.7175 20.4264C11.7873 20.4126 11.8536 20.3853 11.9127 20.3458C11.9718 20.3064 12.0226 20.2557 12.0621 20.1967C12.1016 20.1377 12.1292 20.0714 12.1431 20.0017C12.2871 19.2883 12.6735 18.6467 13.2368 18.1857C13.8 17.7248 14.5054 17.473 15.2333 17.473C15.9611 17.473 16.6665 17.7248 17.2297 18.1857C17.793 18.6466 18.1794 19.2882 18.3235 20.0016C18.3516 20.1424 18.4345 20.2661 18.5538 20.3458C18.6732 20.4254 18.8193 20.4543 18.9601 20.4262C19.1008 20.3981 19.2246 20.3152 19.3042 20.1958C19.3838 20.0764 19.4127 19.9303 19.3846 19.7896C19.2523 19.1346 18.9671 18.52 18.5523 17.9961C18.1375 17.4721 17.6049 17.0535 16.9977 16.7744C17.3768 16.4202 17.6406 15.9601 17.7546 15.4539C17.8687 14.9478 17.8278 14.419 17.6373 13.9365C17.4467 13.4539 17.1154 13.0398 16.6863 12.7481C16.2572 12.4564 15.7503 12.3006 15.2314 12.301C14.7126 12.3013 14.2059 12.4578 13.7772 12.75C13.3485 13.0423 13.0177 13.4568 12.8278 13.9397C12.6379 14.4225 12.5977 14.9513 12.7125 15.4573C12.8272 15.9633 13.0916 16.423 13.4712 16.7767C12.8636 17.0549 12.3304 17.4729 11.9152 17.9965C11.4999 18.5201 11.2144 19.1345 11.082 19.7895C11.0538 19.9302 11.0827 20.0764 11.1623 20.1958C11.2419 20.3152 11.3657 20.398 11.5064 20.4262ZM15.2332 13.3855C15.5304 13.3855 15.8209 13.4736 16.068 13.6387C16.3151 13.8038 16.5077 14.0385 16.6215 14.3131C16.7352 14.5876 16.765 14.8898 16.707 15.1812C16.649 15.4727 16.5059 15.7405 16.2957 15.9506C16.0856 16.1608 15.8178 16.3039 15.5264 16.3618C15.2349 16.4198 14.9327 16.3901 14.6582 16.2763C14.3836 16.1626 14.1489 15.97 13.9838 15.7229C13.8187 15.4758 13.7306 15.1853 13.7306 14.8881C13.731 14.4897 13.8895 14.1078 14.1712 13.8261C14.4529 13.5444 14.8348 13.3859 15.2332 13.3855ZM21.9287 28.6072H17.3838C17.2403 28.6072 17.1027 28.6642 17.0012 28.7657C16.8998 28.8672 16.8428 29.0048 16.8428 29.1483C16.8428 29.2918 16.8998 29.4294 17.0012 29.5309C17.1027 29.6323 17.2403 29.6893 17.3838 29.6893H21.9287C22.0722 29.6893 22.2098 29.6323 22.3113 29.5309C22.4128 29.4294 22.4698 29.2918 22.4698 29.1483C22.4698 29.0048 22.4128 28.8672 22.3113 28.7657C22.2098 28.6642 22.0722 28.6072 21.9287 28.6072ZM29.5756 5.44994H26.0733C25.9551 5.03482 25.705 4.66948 25.3607 4.40916C25.0164 4.14885 24.5967 4.00772 24.1651 4.00712H22.8428C22.6817 3.09734 22.2053 2.27336 21.4973 1.67974C20.7893 1.08612 19.8949 0.760773 18.9709 0.760773C18.047 0.760773 17.1525 1.08612 16.4445 1.67974C15.7365 2.27336 15.2602 3.09734 15.099 4.00712H13.7768C13.3451 4.00772 12.9254 4.14885 12.5812 4.40916C12.2369 4.66948 11.9867 5.03482 11.8685 5.44994H8.36618C7.64894 5.45075 6.96131 5.73603 6.45414 6.24319C5.94698 6.75036 5.6617 7.43799 5.66089 8.15523V34.9917C5.6617 35.7089 5.94698 36.3966 6.45414 36.9037C6.96131 37.4109 7.64894 37.6962 8.36618 37.697H29.5756C30.2929 37.6962 30.9805 37.4109 31.4877 36.9037C31.9949 36.3966 32.2801 35.7089 32.2809 34.9917V8.15523C32.2801 7.43799 31.9949 6.75036 31.4877 6.24319C30.9805 5.73603 30.2929 5.45075 29.5756 5.44994ZM12.875 5.991C12.8753 5.75192 12.9704 5.52271 13.1394 5.35365C13.3085 5.1846 13.5377 5.0895 13.7768 5.08923H15.5839C15.7235 5.08923 15.8577 5.0353 15.9584 4.93869C16.0592 4.84208 16.1187 4.71028 16.1245 4.57083C16.1557 3.83685 16.4693 3.1433 16.9997 2.63499C17.53 2.12667 18.2363 1.84289 18.9709 1.84289C19.7056 1.84289 20.4118 2.12667 20.9422 2.63499C21.4726 3.1433 21.7861 3.83685 21.8173 4.57083C21.8231 4.71028 21.8826 4.84208 21.9834 4.93869C22.0841 5.0353 22.2183 5.08923 22.3579 5.08923H24.1651C24.4041 5.0895 24.6334 5.1846 24.8024 5.35365C24.9715 5.52271 25.0666 5.75192 25.0668 5.991V8.15523C25.0666 8.39431 24.9715 8.62352 24.8024 8.79258C24.6334 8.96163 24.4041 9.05672 24.1651 9.05699H13.7768C13.5377 9.05672 13.3085 8.96163 13.1394 8.79258C12.9704 8.62352 12.8753 8.39431 12.875 8.15523V5.991ZM13.7768 10.1391H24.1651C24.5967 10.1385 25.0164 9.99738 25.3607 9.73706C25.705 9.47675 25.9551 9.11141 26.0733 8.69629H29.0346V28.6072H25.6079C25.3497 28.6075 25.1021 28.7102 24.9196 28.8928C24.737 29.0754 24.6343 29.3229 24.634 29.5811V33.3685H8.90724V8.69629H11.8685C11.9867 9.11141 12.2369 9.47675 12.5812 9.73706C12.9254 9.99738 13.3451 10.1385 13.7768 10.1391ZM28.3388 29.6893L25.7161 32.527V29.6893H28.3388ZM31.1988 34.9917C31.1983 35.422 31.0272 35.8346 30.7229 36.1389C30.4186 36.4432 30.006 36.6144 29.5756 36.6149H8.36618C7.93584 36.6144 7.52326 36.4432 7.21896 36.1389C6.91466 35.8346 6.74349 35.422 6.743 34.9917V8.15523C6.74349 7.72489 6.91465 7.3123 7.21895 7.00801C7.52325 6.70371 7.93583 6.53254 8.36618 6.53206H11.7929V7.61417H8.79902C8.54082 7.61447 8.29327 7.71717 8.11069 7.89975C7.92812 8.08233 7.82541 8.32987 7.82512 8.58808V33.4767C7.82541 33.7349 7.92811 33.9825 8.11069 34.1651C8.29327 34.3477 8.54082 34.4504 8.79902 34.4506H25.175C25.1938 34.4506 25.2126 34.4497 25.2312 34.4477L25.2316 34.4476C25.25 34.4457 25.2682 34.4429 25.2863 34.4391L25.288 34.4386C25.3055 34.4349 25.3226 34.4304 25.3394 34.425C25.3416 34.4243 25.3437 34.4234 25.3459 34.4227C25.3609 34.4177 25.3757 34.4122 25.3901 34.406C25.3942 34.4042 25.3981 34.4021 25.4021 34.4002C25.4143 34.3945 25.4265 34.3887 25.4382 34.3822C25.4436 34.3792 25.4487 34.3757 25.454 34.3725C25.464 34.3665 25.4739 34.3605 25.4834 34.3539C25.4894 34.3497 25.4952 34.3451 25.5011 34.3407C25.5095 34.3343 25.5178 34.3279 25.5258 34.3211C25.5318 34.316 25.5375 34.3106 25.5433 34.3052C25.5508 34.2983 25.5582 34.2912 25.5652 34.2838C25.5676 34.2814 25.5701 34.2793 25.5724 34.2768L29.973 29.5155C29.9765 29.5117 29.9796 29.5075 29.983 29.5036C29.9886 29.4973 29.994 29.4909 29.9993 29.4842C30.0046 29.4776 30.0095 29.4708 30.0144 29.464C30.0196 29.4568 30.0247 29.4496 30.0296 29.4421C30.0339 29.4355 30.0378 29.4288 30.0418 29.422C30.0466 29.4139 30.0513 29.4057 30.0557 29.3973C30.059 29.3909 30.062 29.3843 30.0651 29.3778C30.0693 29.3688 30.0735 29.3597 30.0773 29.3504C30.0799 29.344 30.0821 29.3375 30.0844 29.331C30.0879 29.3214 30.0913 29.3118 30.0943 29.3019C30.0963 29.295 30.0979 29.2879 30.0997 29.2809C30.1021 29.2713 30.1046 29.2619 30.1065 29.2521C30.1082 29.2432 30.1093 29.2342 30.1106 29.2253C30.1118 29.2172 30.1133 29.2092 30.114 29.201C30.1158 29.1835 30.1167 29.1659 30.1167 29.1483V8.58807C30.1164 8.32987 30.0137 8.08232 29.8311 7.89974C29.6486 7.71717 29.401 7.61446 29.1428 7.61417H26.1489V6.53206H29.5756C30.006 6.53254 30.4186 6.70371 30.7229 7.00801C31.0272 7.3123 31.1983 7.72489 31.1988 8.15523V34.9917ZM26.3293 22.8359H17.3838C17.2403 22.8359 17.1027 22.8929 17.0012 22.9944C16.8998 23.0959 16.8428 23.2335 16.8428 23.377C16.8428 23.5205 16.8998 23.6581 17.0012 23.7596C17.1027 23.861 17.2403 23.9181 17.3838 23.9181H26.3293C26.4728 23.9181 26.6104 23.861 26.7119 23.7596C26.8134 23.6581 26.8704 23.5205 26.8704 23.377C26.8704 23.2335 26.8134 23.0959 26.7119 22.9944C26.6104 22.8929 26.4728 22.8359 26.3293 22.8359ZM26.3293 25.3609H17.3838C17.2403 25.3609 17.1027 25.4179 17.0012 25.5193C16.8998 25.6208 16.8428 25.7584 16.8428 25.9019C16.8428 26.0454 16.8998 26.183 17.0012 26.2845C17.1027 26.386 17.2403 26.443 17.3838 26.443H26.3293C26.4728 26.443 26.6104 26.386 26.7119 26.2845C26.8134 26.183 26.8704 26.0454 26.8704 25.9019C26.8704 25.7584 26.8134 25.6208 26.7119 25.5193C26.6104 25.4179 26.4728 25.3609 26.3293 25.3609Z" fill="#313440"/>
</g>
<defs>
<clipPath id="clip0_4428_1636">
<rect width="36.9362" height="36.9362" fill="white" transform="translate(0.503662 0.760773)"/>
</clipPath>
</defs>
</svg>
