<svg width="64" height="64" viewBox="0 0 64 64" fill="none" xmlns="http://www.w3.org/2000/svg">
<g opacity="0.6">
<path d="M41 8C40.4067 8 39.8266 7.82405 39.3333 7.49441C38.8399 7.16477 38.4554 6.69623 38.2284 6.14805C38.0013 5.59987 37.9419 4.99667 38.0576 4.41473C38.1734 3.83279 38.4591 3.29824 38.8787 2.87868C39.2982 2.45912 39.8328 2.1734 40.4147 2.05765C40.9967 1.94189 41.5999 2.0013 42.148 2.22836C42.6962 2.45543 43.1648 2.83994 43.4944 3.33329C43.8241 3.82664 44 4.40666 44 5C44 5.79565 43.6839 6.55871 43.1213 7.12132C42.5587 7.68393 41.7957 8 41 8ZM41 4C40.8022 4 40.6089 4.05865 40.4444 4.16853C40.28 4.27841 40.1518 4.43459 40.0761 4.61732C40.0004 4.80004 39.9806 5.00111 40.0192 5.19509C40.0578 5.38907 40.153 5.56726 40.2929 5.70711C40.4327 5.84696 40.6109 5.9422 40.8049 5.98079C40.9989 6.01937 41.2 5.99957 41.3827 5.92388C41.5654 5.84819 41.7216 5.72002 41.8315 5.55557C41.9414 5.39112 42 5.19778 42 5C42 4.73478 41.8946 4.48043 41.7071 4.29289C41.5196 4.10536 41.2652 4 41 4Z" fill="#EE8700"/>
<path d="M56 9H26C23.7909 9 22 10.7909 22 13V53C22 55.2091 23.7909 57 26 57H56C58.2091 57 60 55.2091 60 53V13C60 10.7909 58.2091 9 56 9Z" fill="#C49A6C"/>
<path d="M54 13H28C26.8954 13 26 13.8954 26 15V51C26 52.1046 26.8954 53 28 53H54C55.1046 53 56 52.1046 56 51V15C56 13.8954 55.1046 13 54 13Z" fill="#E6E7E8"/>
<path d="M43 39C45.7614 39 48 36.7614 48 34C48 31.2386 45.7614 29 43 29C40.2386 29 38 31.2386 38 34C38 36.7614 40.2386 39 43 39Z" fill="#D8D7DA"/>
<path d="M13 29V32C13 32.2652 12.8946 32.5196 12.7071 32.7071C12.5196 32.8946 12.2652 33 12 33H10C9.73478 33 9.48043 32.8946 9.29289 32.7071C9.10536 32.5196 9 32.2652 9 32V29H13Z" fill="#C6C5CA"/>
<path d="M41 7H29V13C29.0016 13.5299 29.2128 14.0377 29.5875 14.4125C29.9623 14.7872 30.4701 14.9984 31 15H51C51.5299 14.9984 52.0377 14.7872 52.4125 14.4125C52.7872 14.0377 52.9984 13.5299 53 13V7H41Z" fill="#FF9811"/>
<path d="M40 19H42V21H40V19ZM44 19H46V21H44V19ZM36 19H38V21H36V19Z" fill="#BCBEC0"/>
<path d="M14 30.0005H8C6.67441 29.9989 5.40356 29.4716 4.46622 28.5343C3.52888 27.5969 3.00159 26.3261 3 25.0005V15.0005C2.99991 14.8146 3.05161 14.6325 3.14929 14.4744C3.24697 14.3163 3.38677 14.1885 3.553 14.1055L5.553 13.1055L6.447 14.8955L5 15.6185V25.0005C5 25.7961 5.31607 26.5592 5.87868 27.1218C6.44129 27.6844 7.20435 28.0005 8 28.0005H14C14.7956 28.0005 15.5587 27.6844 16.1213 27.1218C16.6839 26.5592 17 25.7961 17 25.0005V15.6185L15.553 14.9005L16.447 13.1105L18.447 14.1105C18.6125 14.1932 18.7518 14.3201 18.8494 14.4772C18.947 14.6344 18.9992 14.8155 19 15.0005V25.0005C18.9984 26.3261 18.4711 27.5969 17.5338 28.5343C16.5964 29.4716 15.3256 29.9989 14 30.0005ZM26 62.0005C21.7581 61.9954 17.6913 60.3081 14.6918 57.3086C11.6924 54.3091 10.005 50.2424 10 46.0005V33.0005H12V46.0005C12 49.7135 13.475 53.2745 16.1005 55.9C18.726 58.5255 22.287 60.0005 26 60.0005C29.713 60.0005 33.274 58.5255 35.8995 55.9C38.525 53.2745 40 49.7135 40 46.0005V36.0005H42V46.0005C41.995 50.2424 40.3076 54.3091 37.3082 57.3086C34.3087 60.3081 30.2419 61.9954 26 62.0005Z" fill="#D8D7DA"/>
<path d="M7 16C6.60444 16 6.21776 15.8827 5.88886 15.6629C5.55996 15.4432 5.30362 15.1308 5.15224 14.7654C5.00087 14.3999 4.96126 13.9978 5.03843 13.6098C5.1156 13.2219 5.30608 12.8655 5.58579 12.5858C5.86549 12.3061 6.22186 12.1156 6.60982 12.0384C6.99778 11.9613 7.39992 12.0009 7.76537 12.1522C8.13082 12.3036 8.44318 12.56 8.66294 12.8889C8.8827 13.2178 9 13.6044 9 14C9 14.5304 8.78929 15.0391 8.41421 15.4142C8.03914 15.7893 7.53043 16 7 16ZM15 16C14.6044 16 14.2178 15.8827 13.8889 15.6629C13.56 15.4432 13.3036 15.1308 13.1522 14.7654C13.0009 14.3999 12.9613 13.9978 13.0384 13.6098C13.1156 13.2219 13.3061 12.8655 13.5858 12.5858C13.8655 12.3061 14.2219 12.1156 14.6098 12.0384C14.9978 11.9613 15.3999 12.0009 15.7654 12.1522C16.1308 12.3036 16.4432 12.56 16.6629 12.8889C16.8827 13.2178 17 13.6044 17 14C17 14.5304 16.7893 15.0391 16.4142 15.4142C16.0391 15.7893 15.5304 16 15 16Z" fill="#E6E7E8"/>
<path d="M41 37C43.7614 37 46 34.7614 46 32C46 29.2386 43.7614 27 41 27C38.2386 27 36 29.2386 36 32C36 34.7614 38.2386 37 41 37Z" fill="#C6C5CA"/>
<path d="M41 34C40.6044 34 40.2178 33.8827 39.8889 33.6629C39.56 33.4432 39.3036 33.1308 39.1522 32.7654C39.0009 32.3999 38.9613 31.9978 39.0384 31.6098C39.1156 31.2219 39.3061 30.8655 39.5858 30.5858C39.8655 30.3061 40.2219 30.1156 40.6098 30.0384C40.9978 29.9613 41.3999 30.0009 41.7654 30.1522C42.1308 30.3036 42.4432 30.56 42.6629 30.8889C42.8827 31.2178 43 31.6044 43 32C43 32.5304 42.7893 33.0391 42.4142 33.4142C42.0391 33.7893 41.5304 34 41 34Z" fill="#898890"/>
</g>
</svg>
