<svg width="49" height="35" viewBox="0 0 49 35" fill="none" xmlns="http://www.w3.org/2000/svg">
<path opacity="0.05" d="M32.8768 7.17064C28.368 6.87392 25.2727 9.6845 24.2886 11.1269C23.9755 10.7148 23.1346 9.69277 22.2757 8.90152C21.2022 7.91246 16.2371 6.05798 12.4798 8.28336C8.72243 10.5087 8.45404 14.0941 8.72243 16.4431C8.93713 18.3223 10.5116 21.512 11.2721 22.872C12.2114 25.4682 18.921 32.268 19.5919 33.1334C20.1287 33.8258 19.8156 34.411 19.5919 34.617C19.2341 34.7407 18.089 34.889 16.3713 34.4934C14.2243 33.9989 8.85662 30.6608 5.23346 26.8282C2.33493 23.7621 0.536765 19.369 0 17.5558L0.268382 8.28336C0.670956 6.67614 2.95221 3.8326 5.09927 2.47264C7.24632 1.11269 10.7353 0.618161 11.2721 0.618161C11.8088 0.618161 14.3585 0.618161 16.9081 1.48359C18.9478 2.17593 20.9786 3.99744 21.739 4.82166C22.2757 4.36834 23.5371 3.31334 24.2886 2.71991C25.2279 1.97812 28.3143 0.741793 29.5221 0.370897C30.4882 0.0741793 34.2188 0 35.9632 0C36.5447 0 38.2982 0.197812 40.6599 0.989058C43.6121 1.97812 47.2353 5.06892 48.1746 7.6652C49.114 10.2615 49.114 13.9704 48.8456 16.0722C48.5772 18.1739 46.9669 21.7593 45.2224 24.6028C43.8268 26.8776 40.6152 29.5893 39.1838 30.6608C38.2445 31.3202 36.0438 32.812 34.7555 33.5043C33.4673 34.1967 31.356 34.7819 30.4614 34.9879C30.1483 35.0291 29.4147 34.9879 28.9853 34.4934C28.5559 33.9989 29.701 32.3916 30.3272 31.6499C30.9534 31.0317 32.5011 29.4492 33.682 28.0645C34.8629 26.6798 36.3211 24.438 36.9026 23.4901C39.5864 20.1521 39.5864 17.1849 40.1232 15.7013C40.6599 14.2177 38.5129 7.54154 32.8768 7.17064Z" fill="url(#paint0_linear_4455_1172)"/>
<defs>
<linearGradient id="paint0_linear_4455_1172" x1="-6.85517e-10" y1="17.5785" x2="46.7879" y2="17.6971" gradientUnits="userSpaceOnUse">
<stop stop-color="#04537B"/>
<stop offset="1" stop-color="#B41E85"/>
</linearGradient>
</defs>
</svg>
