<svg width="40" height="40" viewBox="0 0 40 40" fill="none" xmlns="http://www.w3.org/2000/svg">
<g clip-path="url(#clip0_6111_13976)">
<path d="M7.42188 11.1914H4.48438V14.5739H7.42188V11.1914Z" fill="#FFD9AA"/>
<path d="M9.38594 8.62581C9.38464 9.40814 9.11604 10.1666 8.62465 10.7753C8.13325 11.3841 7.44858 11.8066 6.68412 11.9729C5.91966 12.1393 5.12133 12.0393 4.42144 11.6898C3.72155 11.3402 3.16214 10.7619 2.83594 10.0508C2.6297 9.60408 2.52307 9.11784 2.52344 8.62581C2.52365 7.84243 2.7922 7.08277 3.28437 6.47331C3.77655 5.86385 4.46264 5.44138 5.22841 5.27624C5.99418 5.11111 6.79341 5.21327 7.49302 5.56572C8.19263 5.91817 8.75039 6.49964 9.07344 7.21331V7.22581C9.27955 7.66373 9.38626 8.14181 9.38594 8.62581Z" fill="#FFD9AA"/>
<path d="M9.07344 7.21331V7.22581L4.48594 8.13831V10.1008H2.87344L2.83594 10.0508C2.6297 9.60408 2.52307 9.11784 2.52344 8.62581C2.52365 7.84243 2.7922 7.08277 3.28437 6.47331C3.77655 5.86385 4.46264 5.44138 5.22841 5.27624C5.99418 5.11111 6.79341 5.21327 7.49302 5.56572C8.19263 5.91817 8.75039 6.49964 9.07344 7.21331Z" fill="#57565D"/>
<path d="M5.55406 25.6642L7.42906 27.7205L6.59656 34.398C6.58889 34.4392 6.58554 34.4811 6.58656 34.523C6.58558 34.7734 6.67641 35.0154 6.84186 35.2034C7.00731 35.3914 7.23591 35.5122 7.48441 35.543C7.73291 35.5738 7.98408 35.5124 8.19041 35.3705C8.39673 35.2286 8.5439 35.016 8.60406 34.773L10.2103 28.438C10.3099 28.042 10.2859 27.6249 10.1416 27.243L8.40281 22.8242H3.50781L5.55406 25.6642Z" fill="#416FB3"/>
<path d="M1.72125 35.553C1.57822 35.5528 1.4369 35.5219 1.30682 35.4624C1.17674 35.4029 1.06093 35.3162 0.967213 35.2082C0.873496 35.1001 0.804049 34.9732 0.763559 34.8361C0.72307 34.6989 0.71248 34.5546 0.732505 34.413L2.52751 22.8242H6.445L2.695 34.7642C2.64686 34.987 2.52408 35.1866 2.347 35.33C2.16991 35.4735 1.94915 35.5521 1.72125 35.553Z" fill="#416FB3"/>
<path d="M14.2734 18.4119C14.2744 18.6048 14.2374 18.796 14.1644 18.9746C14.0914 19.1532 13.9839 19.3157 13.848 19.4527C13.7122 19.5897 13.5507 19.6985 13.3727 19.773C13.1948 19.8476 13.0039 19.8862 12.8109 19.8869H10.3609L8.39844 18.4119V22.8244H2.52344V15.9744C2.52278 15.7165 2.5731 15.461 2.67149 15.2226C2.76988 14.9842 2.91441 14.7676 3.09678 14.5852C3.27914 14.4029 3.49575 14.2583 3.73415 14.1599C3.97255 14.0615 4.22804 14.0112 4.48594 14.0119H6.73594C6.97105 14.0086 7.20455 14.0511 7.42344 14.1369C7.61539 14.2121 7.79621 14.313 7.96094 14.4369L11.0984 16.9494H12.8109C13.0032 16.9486 13.1938 16.9858 13.3716 17.059C13.5494 17.1322 13.711 17.2399 13.8469 17.3759C13.9829 17.5119 14.0906 17.6734 14.1638 17.8512C14.237 18.0291 14.2743 18.2196 14.2734 18.4119Z" fill="#82C8EC"/>
<path d="M14.275 18.4117C14.276 18.6047 14.2389 18.7959 14.1659 18.9745C14.0929 19.1531 13.9854 19.3155 13.8496 19.4525C13.7138 19.5895 13.5522 19.6984 13.3743 19.7729C13.1963 19.8474 13.0054 19.8861 12.8125 19.8867H11.8875L11.875 19.8742V17.1242L11.925 16.9492H12.8125C13.0048 16.9484 13.1953 16.9857 13.3732 17.0589C13.551 17.1321 13.7125 17.2398 13.8485 17.3757C13.9845 17.5117 14.0922 17.6733 14.1654 17.8511C14.2386 18.0289 14.2758 18.2194 14.275 18.4117Z" fill="#FFD9AA"/>
<path d="M33.125 25V31.0162H23.125V33.2812L14.375 33.125V35.625H0.625V39.375H9.375H19.375H29.375H39.375V34.805V25H33.125Z" fill="#D9D8DA"/>
<path d="M23.8242 10.0156H26.7617V6.63313H23.8242V10.0156Z" fill="#FFD9AA"/>
<path d="M21.8594 4.06721C21.8607 4.84955 22.1293 5.60796 22.6207 6.21672C23.1121 6.82548 23.7967 7.24804 24.5612 7.41435C25.3256 7.58067 26.124 7.48075 26.8239 7.13116C27.5238 6.78157 28.0832 6.2033 28.4094 5.49221C28.6156 5.04548 28.7222 4.55925 28.7219 4.06721C28.7217 3.28384 28.4531 2.52417 27.9609 1.91472C27.4688 1.30526 26.7827 0.882787 26.0169 0.71765C25.2511 0.552513 24.4519 0.654675 23.7523 1.00713C23.0527 1.35958 22.4949 1.94105 22.1719 2.65471V2.66721C21.9658 3.10513 21.8591 3.58321 21.8594 4.06721Z" fill="#FFD9AA"/>
<path d="M22.1719 2.65471V2.66721L26.7594 3.57971V5.54221H28.3731L28.4106 5.49221C28.6169 5.04548 28.7235 4.55925 28.7231 4.06721C28.7229 3.28384 28.4544 2.52417 27.9622 1.91472C27.47 1.30526 26.7839 0.882787 26.0182 0.71765C25.2524 0.552513 24.4532 0.654675 23.7535 1.00713C23.0539 1.35958 22.4949 1.94105 22.1719 2.65471Z" fill="#57565D"/>
<path d="M25.6932 21.1053L23.8182 23.1616L24.6507 29.8391C24.6584 29.8803 24.6618 29.9222 24.6607 29.9641C24.6617 30.2145 24.5709 30.4565 24.4054 30.6445C24.24 30.8325 24.0114 30.9533 23.7629 30.9841C23.5144 31.0148 23.2632 30.9535 23.0569 30.8116C22.8506 30.6697 22.7034 30.4571 22.6432 30.2141L21.037 23.8791C20.9374 23.4831 20.9614 23.066 21.1057 22.6841L22.8382 18.2578H27.7345L25.6932 21.1053Z" fill="#416FB3"/>
<path d="M29.5284 30.9983C29.6715 30.9981 29.8128 30.9672 29.9429 30.9077C30.073 30.8482 30.1888 30.7615 30.2825 30.6535C30.3762 30.5454 30.4456 30.4185 30.4861 30.2814C30.5266 30.1442 30.5372 29.9999 30.5172 29.8583L28.7222 18.2695H24.8047L28.5547 30.2095C28.6028 30.4323 28.7256 30.6319 28.9027 30.7753C29.0798 30.9188 29.3005 30.9974 29.5284 30.9983Z" fill="#416FB3"/>
<path d="M16.9727 13.8572C16.9717 14.0501 17.0088 14.2414 17.0817 14.4199C17.1547 14.5985 17.2622 14.761 17.3981 14.898C17.5339 15.035 17.6954 15.1438 17.8734 15.2184C18.0513 15.2929 18.2422 15.3316 18.4352 15.3322H20.8852L22.8477 13.8572V18.2697H28.7227V11.4197C28.7233 11.1618 28.673 10.9063 28.5746 10.6679C28.4762 10.4295 28.3317 10.2129 28.1493 10.0305C27.967 9.84817 27.7504 9.70364 27.512 9.60525C27.2736 9.50686 27.0181 9.45655 26.7602 9.45721H24.5102C24.2751 9.45392 24.0416 9.49637 23.8227 9.58221C23.6307 9.65737 23.4499 9.75829 23.2852 9.88221L20.1477 12.3947H18.4352C18.2429 12.3939 18.0523 12.4311 17.8745 12.5044C17.6967 12.5776 17.5352 12.6852 17.3992 12.8212C17.2632 12.9572 17.1555 13.1187 17.0823 13.2966C17.0091 13.4744 16.9718 13.6649 16.9727 13.8572Z" fill="#ED456A"/>
<path d="M16.9727 13.857C16.9717 14.05 17.0088 14.2412 17.0817 14.4198C17.1547 14.5984 17.2622 14.7608 17.3981 14.8978C17.5339 15.0348 17.6954 15.1437 17.8734 15.2182C18.0513 15.2927 18.2422 15.3314 18.4352 15.332H19.3602L19.3727 15.3195V12.5695L19.3227 12.3945H18.4352C18.2429 12.3937 18.0523 12.431 17.8745 12.5042C17.6967 12.5774 17.5352 12.6851 17.3992 12.8211C17.2632 12.957 17.1555 13.1186 17.0823 13.2964C17.0091 13.4742 16.9718 13.6648 16.9727 13.857Z" fill="#FFD9AA"/>
<path d="M39.375 24.3765H33.125C32.9592 24.3765 32.8003 24.4423 32.6831 24.5595C32.5658 24.6767 32.5 24.8357 32.5 25.0015V30.3927H31.0963C31.1507 30.1852 31.1639 29.969 31.135 29.7565L29.3475 18.214V11.4077C29.3464 10.8325 29.1533 10.274 28.7986 9.82112C28.444 9.3682 27.9482 9.04671 27.39 8.90771V7.51646C28.0662 7.10557 28.6076 6.50599 28.9475 5.79146L28.9587 5.77146C29.213 5.23798 29.3462 4.65491 29.3488 4.06396C29.3512 3.14697 29.0418 2.25639 28.4712 1.53851C27.9007 0.820632 27.103 0.318139 26.2091 0.113569C25.3152 -0.0910016 24.3783 0.0145154 23.5523 0.412788C22.7263 0.81106 22.0603 1.47841 21.6637 2.30521C21.6562 2.31521 21.6525 2.32771 21.645 2.33896C21.2079 3.24003 21.1255 4.27245 21.414 5.23147C21.7025 6.19049 22.3408 7.00607 23.2025 7.51646V9.18771C23.097 9.24754 22.9959 9.31479 22.9 9.38896L19.935 11.764H18.435C17.8797 11.764 17.3471 11.9845 16.9545 12.3772C16.5618 12.7699 16.3412 13.3024 16.3412 13.8577C16.3412 14.413 16.5618 14.9456 16.9545 15.3382C17.3471 15.7309 17.8797 15.9515 18.435 15.9515H20.8825C21.0177 15.9515 21.1493 15.9076 21.2575 15.8265L22.2163 15.1077V18.1452L20.53 22.464C20.3405 22.9667 20.3087 23.5152 20.4387 24.0365L22.0462 30.3765C22.1266 30.663 22.2835 30.9223 22.5 31.1265V32.649L14.3862 32.5015C14.3026 32.4948 14.2186 32.5076 14.1408 32.5388C14.0629 32.5701 13.9933 32.6189 13.9375 32.6815C13.8783 32.7395 13.8312 32.8087 13.799 32.8851C13.7668 32.9615 13.7502 33.0436 13.75 33.1265V35.0015H9.17375C9.18125 34.9777 9.1975 34.9577 9.20375 34.9327L10.81 28.5965C10.9396 28.0741 10.9069 27.5247 10.7162 27.0215L9.0275 22.7065V19.669L9.98625 20.3877C10.0944 20.4688 10.226 20.5127 10.3612 20.5127H12.8088C13.0837 20.5127 13.356 20.4586 13.61 20.3533C13.864 20.2481 14.0948 20.0939 14.2893 19.8995C14.4837 19.705 14.6379 19.4742 14.7431 19.2202C14.8483 18.9662 14.9025 18.6939 14.9025 18.419C14.9025 18.144 14.8483 17.8717 14.7431 17.6177C14.6379 17.3637 14.4837 17.1329 14.2893 16.9385C14.0948 16.744 13.864 16.5898 13.61 16.4846C13.356 16.3794 13.0837 16.3252 12.8088 16.3252H11.3163L8.35 13.9502C8.25437 13.877 8.1537 13.8106 8.04875 13.7515V12.0777C8.91022 11.5678 9.54861 10.7527 9.83733 9.79419C10.126 8.83565 10.044 7.80361 9.6075 6.90271C9.6 6.89021 9.59625 6.87771 9.5875 6.86646C9.12768 5.89925 8.30247 5.15431 7.29341 4.79553C6.28435 4.43675 5.17409 4.49352 4.20687 4.95333C3.23966 5.41315 2.49473 6.23836 2.13595 7.24743C1.77717 8.25649 1.83393 9.36675 2.29375 10.334L2.3025 10.3502C2.64235 11.0658 3.18421 11.6663 3.86125 12.0777V13.4727C3.30305 13.6117 2.80728 13.9332 2.45263 14.3861C2.09799 14.839 1.90481 15.3975 1.90375 15.9727V22.7777L0.11375 34.3252C0.0768445 34.6076 0.114778 34.8946 0.22375 35.1577C0.154517 35.2148 0.0986131 35.2863 0.0599602 35.3673C0.0213073 35.4483 0.000841907 35.5367 0 35.6265L0 39.3765C0 39.5422 0.065848 39.7012 0.183058 39.8184C0.300269 39.9356 0.45924 40.0015 0.625 40.0015H39.375C39.5408 40.0015 39.6997 39.9356 39.8169 39.8184C39.9342 39.7012 40 39.5422 40 39.3765V25.0015C40 24.8357 39.9342 24.6767 39.8169 24.5595C39.6997 24.4423 39.5408 24.3765 39.375 24.3765ZM18.75 14.7002H18.4412C18.2742 14.7003 18.1109 14.6508 17.972 14.5581C17.8332 14.4653 17.7249 14.3333 17.6611 14.179C17.5972 14.0247 17.5806 13.8548 17.6134 13.6911C17.6461 13.5273 17.7267 13.3769 17.845 13.259C17.9226 13.1798 18.0152 13.117 18.1173 13.0741C18.2195 13.0311 18.3292 13.009 18.44 13.009H18.75V14.7002ZM12.5 17.5752H12.8088C13.0325 17.5752 13.2471 17.6641 13.4054 17.8223C13.5636 17.9806 13.6525 18.1952 13.6525 18.419C13.6525 18.6427 13.5636 18.8573 13.4054 19.0156C13.2471 19.1738 13.0325 19.2627 12.8088 19.2627H12.5V17.5752ZM29.8988 29.939C29.9062 29.9919 29.9023 30.0459 29.8872 30.0972C29.8721 30.1485 29.8462 30.196 29.8113 30.2365C29.7569 30.2794 29.6927 30.3082 29.6244 30.3201C29.5561 30.3319 29.486 30.3266 29.4203 30.3045C29.3546 30.2824 29.2955 30.2442 29.2483 30.1935C29.2011 30.1428 29.1673 30.0811 29.15 30.014L25.6575 18.889H28.1862L29.8988 29.939ZM25.2738 29.7577L24.4762 23.364L25.4212 22.3252L27.9363 30.3327C27.9363 30.354 27.955 30.3702 27.96 30.3915H25.2063C25.2551 30.2529 25.2846 30.1081 25.2938 29.9615C25.2958 29.8936 25.2907 29.8258 25.2787 29.759L25.2738 29.7577ZM25.29 1.25771C25.6587 1.25738 26.0238 1.32973 26.3645 1.47063C26.7052 1.61152 27.0147 1.8182 27.2755 2.07883C27.5362 2.33947 27.7431 2.64894 27.8841 2.98957C28.0251 3.3302 28.0977 3.69529 28.0975 4.06396C28.0938 4.35139 28.0453 4.63648 27.9538 4.90896H27.39V3.57396C27.39 3.42988 27.3403 3.29021 27.2492 3.1786C27.158 3.06698 27.0312 2.99028 26.89 2.96146L23.1987 2.22896C23.4587 1.92734 23.7804 1.68501 24.142 1.51833C24.5036 1.35164 24.8968 1.26447 25.295 1.26271L25.29 1.25771ZM22.4938 4.06396C22.4966 3.83386 22.5281 3.60501 22.5875 3.38271L26.14 4.08646V5.53396C26.14 5.69972 26.2058 5.85869 26.3231 5.9759C26.4403 6.09311 26.5992 6.15896 26.765 6.15896H27.14C26.7378 6.51883 26.2399 6.75422 25.7065 6.83657C25.1732 6.91891 24.6274 6.84466 24.1354 6.62283C23.6434 6.401 23.2264 6.04113 22.935 5.5869C22.6436 5.13267 22.4903 4.60362 22.4938 4.06396ZM26.14 8.02521V8.82396H24.515C24.4937 8.82396 24.4737 8.82396 24.4538 8.82396V8.02521C25.0097 8.14684 25.5841 8.14684 26.14 8.02521ZM20.6812 14.7002H20V13.0127H20.1537C20.2959 13.0131 20.4339 12.965 20.545 12.8765L23.6812 10.3665C23.9183 10.178 24.2122 10.0754 24.515 10.0752H26.765C27.1182 10.0759 27.4567 10.2165 27.7065 10.4662C27.9562 10.716 28.0968 11.0545 28.0975 11.4077V17.6365H23.4725V14.3452C23.4687 14.2932 23.4582 14.242 23.4412 14.1927L25.18 12.8877C25.3126 12.7883 25.4003 12.6402 25.4237 12.4761C25.4472 12.312 25.4045 12.1453 25.305 12.0127C25.2055 11.8801 25.0575 11.7924 24.8934 11.769C24.7293 11.7455 24.5626 11.7883 24.43 11.8877L20.6812 14.7002ZM21.6525 23.7315C21.5843 23.4616 21.5995 23.1774 21.6963 22.9165L23.275 18.8877H24.3475L24.9938 20.9465L23.3687 22.7365C23.3079 22.8034 23.2622 22.8828 23.235 22.9691C23.2079 23.0555 23.1997 23.1467 23.2113 23.2365L24.0487 29.9652C24.0484 30.0721 24.0057 30.1744 23.9301 30.2499C23.8544 30.3253 23.7519 30.3677 23.645 30.3677C23.5575 30.3648 23.4732 30.334 23.4044 30.2798C23.3356 30.2256 23.2859 30.1509 23.2625 30.0665L21.6525 23.7315ZM9.5525 27.474C9.65058 27.7354 9.66671 28.0206 9.59875 28.2915L8 34.6265C7.96698 34.716 7.9033 34.791 7.82026 34.8381C7.73722 34.8851 7.64019 34.9012 7.54638 34.8836C7.45258 34.8659 7.36808 34.8155 7.30787 34.7415C7.24766 34.6674 7.21565 34.5744 7.2175 34.479L8.05 27.8015C8.06152 27.7117 8.0534 27.6205 8.02621 27.5341C7.99901 27.4478 7.95339 27.3684 7.8925 27.3015L6.2675 25.5115L6.91375 23.4515H7.98625L9.5525 27.474ZM6.0525 35.0015H3.2725C3.2725 34.984 3.29 34.969 3.29375 34.9502L5.82375 26.889L6.76875 27.9265L5.97875 34.274C5.96257 34.3563 5.95503 34.4401 5.95625 34.524C5.96383 34.6871 5.99629 34.8481 6.0525 35.0015ZM8.75625 8.62646C8.759 9.16554 8.60538 9.69385 8.314 10.1474C8.02262 10.6009 7.60597 10.9603 7.11453 11.1818C6.62308 11.4034 6.07794 11.4777 5.54512 11.3958C5.01229 11.3139 4.51466 11.0792 4.1125 10.7202H4.4875C4.65326 10.7202 4.81223 10.6544 4.92944 10.5372C5.04665 10.4199 5.1125 10.261 5.1125 10.0952V8.65021L8.665 7.94646C8.72349 8.16847 8.75414 8.39689 8.75625 8.62646ZM6.79875 12.5877V13.394C6.7775 13.394 6.7575 13.394 6.7375 13.394H5.1125V12.594C5.66842 12.7156 6.24408 12.7156 6.8 12.594L6.79875 12.5877ZM3.29875 9.47146C3.20629 9.19913 3.15695 8.91402 3.1525 8.62646C3.15019 8.05619 3.32269 7.49892 3.64676 7.02968C3.97083 6.56044 4.43091 6.20177 4.96503 6.00199C5.49916 5.8022 6.08168 5.77088 6.63415 5.91226C7.18662 6.05364 7.68249 6.36091 8.055 6.79271L4.36375 7.52521C4.22258 7.55403 4.0957 7.63073 4.00459 7.74235C3.91347 7.85396 3.86372 7.99363 3.86375 8.13771V9.47021L3.29875 9.47146ZM3.155 15.9715C3.15566 15.6183 3.29626 15.2797 3.54601 15.03C3.79576 14.7802 4.1343 14.6396 4.4875 14.639H6.7375C7.03993 14.6392 7.33336 14.7419 7.57 14.9302L10.7062 17.439C10.8174 17.5275 10.9554 17.5756 11.0975 17.5752H11.25V19.2615H10.57L6.82 16.449C6.75434 16.3997 6.67962 16.3639 6.60011 16.3435C6.5206 16.3231 6.43786 16.3186 6.35661 16.3302C6.19252 16.3537 6.04446 16.4414 5.945 16.574C5.84554 16.7066 5.80284 16.8733 5.82628 17.0373C5.84972 17.2014 5.93739 17.3495 6.07 17.449L7.80875 18.7515C7.79166 18.8011 7.78116 18.8528 7.7775 18.9052V22.1965H3.1525L3.155 15.9715ZM3.06625 23.449H5.59375L2.08625 34.6265C2.0175 34.9452 1.52875 34.8977 1.43875 34.7952C1.40441 34.7556 1.37877 34.7092 1.36349 34.659C1.3482 34.6088 1.3436 34.556 1.35 34.504L3.06625 23.449ZM38.75 38.7515H1.25V36.2515H14.375C14.5408 36.2515 14.6997 36.1856 14.8169 36.0684C14.9342 35.9512 15 35.7922 15 35.6265V33.7627L23.1137 33.9077C23.28 33.9029 23.439 33.8391 23.5625 33.7277C23.6217 33.6697 23.6688 33.6004 23.701 33.524C23.7332 33.4477 23.7498 33.3656 23.75 33.2827V31.6427H33.125C33.2908 31.6427 33.4497 31.5769 33.5669 31.4597C33.6842 31.3424 33.75 31.1835 33.75 31.0177V25.6265H38.75V38.7515Z" fill="black"/>
</g>
<defs>
<clipPath id="clip0_6111_13976">
<rect width="40" height="40" fill="white"/>
</clipPath>
</defs>
</svg>
