<svg width="55" height="55" viewBox="0 0 55 55" fill="none" xmlns="http://www.w3.org/2000/svg">
<path d="M26.6406 25.5492V52.4219H52.4219V2.57812H26.6406V25.5492Z" fill="#EBF0F3"/>
<path d="M48.9844 6.01562V24.9219H30.0781V6.01562H48.9844Z" fill="#B0E6FF"/>
<path d="M30.0781 6.01562H31.7969V24.9219H30.0781V6.01562Z" fill="#9FDAF5"/>
<path d="M30.0781 23.2031H48.9844V24.9219H30.0781V23.2031Z" fill="#8BBFD6"/>
<path d="M25.7812 22.3438C26.2371 22.3438 26.6743 22.5248 26.9966 22.8472C27.3189 23.1695 27.5 23.6067 27.5 24.0625C27.5 24.5183 27.3189 24.9555 26.9966 25.2778C26.6743 25.6002 26.2371 25.7812 25.7812 25.7812H22.3438V22.3438H25.7812Z" fill="#EBF0F3"/>
<path d="M22.3438 25.7812V26.6406H12.0312V17.1875H22.3438V25.7812Z" fill="#B31F86"/>
<path d="M20.625 26.6406C21.0808 26.6406 21.518 26.8217 21.8403 27.144C22.1627 27.4664 22.3438 27.9035 22.3438 28.3594C22.3438 28.8152 22.1627 29.2524 21.8403 29.5747C21.518 29.897 21.0808 30.0781 20.625 30.0781H12.8906L13.157 26.6406H20.625Z" fill="#EBF0F3"/>
<path d="M21.4844 52.4219H15.4688V48.9844H18.0469C18.9586 48.9844 19.8329 49.3465 20.4776 49.9912C21.1222 50.6359 21.4844 51.5102 21.4844 52.4219Z" fill="#B0E6FF"/>
<path d="M17.1875 39.5312L18.9062 48.9844H15.4688L13.75 39.5312H17.1875Z" fill="#8BBFD6"/>
<path d="M12.8906 30.0781L17.1875 39.5312H13.75L9.45312 30.0781H12.8906Z" fill="#8BBFD6"/>
<path d="M13.75 6.01562V10.3125C13.75 10.7683 13.5689 11.2055 13.2466 11.5278C12.9243 11.8502 12.4871 12.0312 12.0312 12.0312H7.73438V6.01562H13.75Z" fill="#EBF0F3"/>
<path d="M13.75 5.58594V6.01562H7.73438V5.58594C7.73438 4.78822 8.05127 4.02317 8.61534 3.45909C9.17942 2.89502 9.94447 2.57812 10.7422 2.57812C11.5385 2.58264 12.3009 2.90098 12.864 3.46408C13.4271 4.02718 13.7455 4.78961 13.75 5.58594Z" fill="#434A4F"/>
<path d="M8.59375 30.0781H6.01562L7.73438 15.4688H11.1719L12.4609 17.1875H12.0313V26.6406H13.157L12.8906 30.0781H8.59375Z" fill="#B0E6FF"/>
<path d="M7.73438 12.0312H11.1719V15.4688H7.73438V12.0312Z" fill="#EBF0F3"/>
<path d="M9.45312 30.0781L8.59375 39.5312H5.15625L6.01562 30.0781H9.45312Z" fill="#8BBFD6"/>
<path d="M8.59375 39.5312L6.01562 48.9844H2.57812L5.15625 39.5312H8.59375Z" fill="#8BBFD6"/>
<path d="M8.59375 52.4219H2.57812V48.9844H5.15625C6.06793 48.9844 6.94227 49.3465 7.58693 49.9912C8.23159 50.6359 8.59375 51.5102 8.59375 52.4219Z" fill="#B0E6FF"/>
<path d="M5.15625 5.15625H13.75V6.875H5.15625V5.15625Z" fill="#434A4F"/>
<path d="M30.5078 30.0781C31.2197 30.0781 31.7969 29.501 31.7969 28.7891C31.7969 28.0771 31.2197 27.5 30.5078 27.5C29.7959 27.5 29.2188 28.0771 29.2188 28.7891C29.2188 29.501 29.7959 30.0781 30.5078 30.0781Z" fill="#666262"/>
<path d="M33.5156 49.8438H30.0781C29.8502 49.8438 29.6316 49.7532 29.4705 49.592C29.3093 49.4309 29.2188 49.2123 29.2188 48.9844V44.6875H30.9375V48.125H33.5156V49.8438ZM35.2344 48.125H36.9531V49.8438H35.2344V48.125Z" fill="#B0E6FF"/>
</svg>
