<svg width="33" height="33" viewBox="0 0 33 33" fill="none" xmlns="http://www.w3.org/2000/svg">
<path d="M25.8895 11.6055V29.129H11.2143L7.10938 25.0241V11.6055L16.4994 14.2883L25.8895 11.6055Z" fill="#EDEDED"/>
<g style="mix-blend-mode:overlay" opacity="0.2">
<path d="M7.10938 11.6055V25.0241L8.65625 26.571V12.0474L7.10938 11.6055Z" fill="white"/>
</g>
<g style="mix-blend-mode:multiply" opacity="0.15">
<path d="M24.3393 12.0474V28.0977H10.1797L11.2109 29.129H25.8861V11.6055L24.3393 12.0474Z" fill="black"/>
</g>
<path d="M25.8879 4.7618H13.7109L12.4935 3.86719H6.4375V11.4154L7.10781 11.6072L16.4979 14.29L25.8879 11.6072L26.5582 11.4154V4.7618H25.8879Z" fill="#E30613"/>
<g style="mix-blend-mode:overlay" opacity="0.15">
<path d="M6.4375 3.86719V11.4154L7.10781 11.6072L7.98438 11.8573V3.86719H6.4375Z" fill="white"/>
</g>
<g style="mix-blend-mode:multiply" opacity="0.15">
<path d="M25.8879 4.76172H25.0113V10.8997L24.341 11.0915L14.951 13.7743L6.4375 11.3416V11.4153L7.10781 11.6072L16.4979 14.29L25.8879 11.6072L26.5582 11.4153V4.76172H25.8879Z" fill="black"/>
</g>
<path d="M7.10938 25.0273H11.2143V29.1322L7.10938 25.0273Z" fill="#E30613"/>
<path d="M16.498 21.0637C16.4502 21.0639 16.4027 21.0573 16.3567 21.0441L10.2352 19.2962C10.1034 19.2588 9.99179 19.1707 9.92497 19.0511C9.85816 18.9314 9.84159 18.7902 9.87892 18.6583C9.91626 18.5265 10.0044 18.4149 10.124 18.3481C10.2437 18.2813 10.3849 18.2647 10.5168 18.3021L16.498 20.0119L22.4793 18.3021C22.6108 18.2645 22.7519 18.2808 22.8715 18.3473C22.991 18.4137 23.0793 18.525 23.1168 18.6565C23.1544 18.7881 23.1381 18.9292 23.0716 19.0487C23.0051 19.1683 22.8939 19.2566 22.7623 19.2941L16.6408 21.0421C16.5945 21.0561 16.5464 21.0634 16.498 21.0637ZM16.498 17.9339C16.4502 17.9338 16.4027 17.9272 16.3567 17.9143L10.2352 16.1658C10.1053 16.1269 9.99599 16.0384 9.93088 15.9195C9.86577 15.8005 9.85014 15.6607 9.88736 15.5303C9.92459 15.3999 10.0117 15.2895 10.1298 15.2228C10.2479 15.1562 10.3874 15.1387 10.5183 15.1743L16.498 16.882L22.4793 15.1743C22.6101 15.1387 22.7497 15.1562 22.8678 15.2228C22.9859 15.2895 23.073 15.3999 23.1102 15.5303C23.1474 15.6607 23.1318 15.8005 23.0667 15.9195C23.0016 16.0384 22.8922 16.1269 22.7623 16.1658L16.6393 17.9143C16.5933 17.9272 16.5458 17.9338 16.498 17.9339ZM16.498 24.1941C16.4502 24.194 16.4027 24.1874 16.3567 24.1745L10.2352 22.4271C10.1037 22.3895 9.99241 22.3013 9.92593 22.1817C9.85945 22.0621 9.84319 21.921 9.88073 21.7895C9.91827 21.6579 10.0065 21.5467 10.1261 21.4802C10.2457 21.4137 10.3867 21.3975 10.5183 21.435L16.498 23.1422L22.4793 21.434C22.5444 21.4154 22.6126 21.4098 22.6798 21.4176C22.7471 21.4253 22.8123 21.4462 22.8715 21.4792C22.9307 21.5121 22.9828 21.5563 23.0249 21.6094C23.067 21.6625 23.0982 21.7233 23.1168 21.7885C23.1354 21.8536 23.141 21.9218 23.1332 21.989C23.1255 22.0563 23.1045 22.1214 23.0716 22.1807C23.0387 22.2399 22.9944 22.292 22.9414 22.3341C22.8883 22.3762 22.8275 22.4074 22.7623 22.426L16.6393 24.1745C16.5933 24.1874 16.5458 24.194 16.498 24.1941Z" fill="#C6C6C6"/>
<path d="M25.8889 27.2973C28.5199 27.2973 30.6527 25.1644 30.6527 22.5334C30.6527 19.9024 28.5199 17.7695 25.8889 17.7695C23.2579 17.7695 21.125 19.9024 21.125 22.5334C21.125 25.1644 23.2579 27.2973 25.8889 27.2973Z" fill="#E30613"/>
<path d="M25.4416 23.5177L25.2266 19.6758H26.5481L26.3331 23.5177H25.4416ZM25.2725 24.1303H26.51V25.3905H25.2725V24.1303Z" fill="#EDEDED"/>
<g style="mix-blend-mode:multiply" opacity="0.15">
<path d="M25.8906 17.7695C25.6314 17.7712 25.3727 17.794 25.1172 17.8376C26.2309 18.0201 27.2434 18.5926 27.974 19.4527C28.7047 20.3128 29.1058 21.4046 29.1058 22.5331C29.1058 23.6617 28.7047 24.7535 27.974 25.6136C27.2434 26.4737 26.2309 27.0461 25.1172 27.2287C25.7665 27.3357 26.4309 27.307 27.0685 27.1444C27.7062 26.9817 28.3032 26.6887 28.8219 26.2837C29.3406 25.8787 29.7697 25.3706 30.0821 24.7915C30.3945 24.2123 30.5835 23.5747 30.6372 22.9188C30.6908 22.263 30.6079 21.6031 30.3937 20.9809C30.1795 20.3587 29.8386 19.7876 29.3926 19.3038C28.9466 18.8199 28.4051 18.4338 27.8024 18.1697C27.1996 17.9056 26.5487 17.7694 25.8906 17.7695Z" fill="black"/>
</g>
</svg>
