<svg width="41" height="40" viewBox="0 0 41 40" fill="none" xmlns="http://www.w3.org/2000/svg">
<g clip-path="url(#clip0_6111_13936)">
<path d="M20.5 21.9398C18.2427 20.6899 16.3489 19.0292 14.9843 17.0945C13.4306 14.8919 12.6094 12.3793 12.6094 9.82852V3.72758C14.5166 3.49059 16.3714 2.93971 18.0988 2.09727C18.964 1.67097 19.7878 1.16501 20.5592 0.585938C21.6061 1.31379 22.7283 1.92683 23.9065 2.41445C25.3452 3.01148 26.8508 3.43209 28.3906 3.66711V9.82852C28.3906 12.3793 27.5694 14.8918 26.0157 17.0945C24.6511 19.0292 22.7573 20.6899 20.5 21.9398Z" fill="#F8BE32"/>
<path d="M20.5 19.1988C19.0511 18.2291 17.8209 17.0516 16.8995 15.7452C15.6262 13.9398 14.9531 11.8945 14.9531 9.83008V5.68766C16.4005 5.35505 17.8045 4.85586 19.137 4.20008C19.639 3.95201 20.1272 3.68219 20.6017 3.39062C21.3764 3.83914 22.1796 4.23643 23.0062 4.57992C23.9933 4.99012 25.0097 5.32602 26.0469 5.58484V9.83016C26.0469 11.8945 25.3738 13.9399 24.1005 15.7452C23.1791 17.0516 21.9489 18.2291 20.5 19.1988Z" fill="#FDDD5A"/>
<path d="M23.0062 4.57992C22.1796 4.23643 21.3764 3.83915 20.6017 3.39062C20.2311 3.61839 19.8512 3.83312 19.4619 4.03484C19.8546 4.22844 20.2548 4.41013 20.6624 4.57992C21.6496 4.99012 22.666 5.32602 23.7031 5.58484V9.83016C23.7031 11.8945 23.0301 13.9399 21.7567 15.7452C21.0669 16.7117 20.25 17.5809 19.3281 18.3292C19.7002 18.6343 20.0908 18.9241 20.5 19.1988C21.9489 18.2291 23.1791 17.0516 24.1005 15.7452C25.3738 13.9399 26.0469 11.8945 26.0469 9.83008V5.58484C25.0097 5.32602 23.9934 4.99011 23.0062 4.57992Z" fill="#FED030"/>
<path d="M31.6058 21.412L30.6037 16.3667C30.5671 16.1824 30.568 15.9926 30.6062 15.8085C30.6444 15.6245 30.7192 15.45 30.8262 15.2955C30.9331 15.141 31.0701 15.0095 31.2289 14.909C31.3877 14.8084 31.565 14.7408 31.7505 14.7102C32.0839 14.6551 32.426 14.7223 32.7138 14.8993C33.0016 15.0764 33.2158 15.3515 33.317 15.6739L35.219 21.7367C35.5263 22.7164 35.5035 23.7698 35.154 24.7352L33.7618 28.5813C33.465 29.4015 32.9452 30.1225 32.2609 30.6634L31.3931 31.3493C31.1059 31.5763 30.8759 31.8674 30.7215 32.1993C30.567 32.5313 30.4925 32.8947 30.5038 33.2606L30.5755 35.5764L24.2188 35.6782L31.6058 21.412Z" fill="#FDD8AE"/>
<path d="M35.219 21.7367L33.317 15.6739C33.2159 15.3515 33.0017 15.0764 32.7139 14.8993C32.4261 14.7223 32.084 14.6551 31.7505 14.7102C31.6271 14.731 31.5069 14.7683 31.3934 14.8211C31.5714 14.9027 31.7303 15.0208 31.8598 15.1677C31.9893 15.3146 32.0865 15.4871 32.1452 15.6739L34.0471 21.7367C34.3544 22.7164 34.3316 23.7698 33.9822 24.7352L32.59 28.5813C32.2931 29.4015 31.7733 30.1226 31.0891 30.6634L30.2213 31.3494C29.9341 31.5764 29.704 31.8675 29.5496 32.1994C29.3952 32.5313 29.3206 32.8947 29.332 33.2606L29.4037 35.5764L24.2286 35.6592L24.2188 35.6782L30.5755 35.5764L30.5038 33.2606C30.4925 32.8947 30.567 32.5313 30.7215 32.1994C30.8759 31.8675 31.1059 31.5764 31.3931 31.3494L32.2609 30.6634C32.9452 30.1226 33.465 29.4016 33.7619 28.5814L35.1541 24.7353C35.5035 23.7699 35.5263 22.7164 35.2189 21.7367H35.219Z" fill="#FBBF7D"/>
<path d="M23.9342 35.5987L23.4969 31.8947C23.4369 31.3862 23.4887 30.8708 23.6486 30.3844C23.8086 29.898 24.0728 29.4524 24.4229 29.0788L31.6049 21.4141C32.0708 21.6632 32.4187 22.0872 32.572 22.5928C32.7254 23.0983 32.6716 23.6441 32.4225 24.1101L30.7625 27.2156" fill="#FDD8AE"/>
<path d="M29.9297 27.2156C30.1816 27.2156 30.4287 27.1472 30.6448 27.0177C30.8608 26.8882 31.0377 26.7025 31.1564 26.4803L32.4234 24.11C32.6724 23.6441 32.7262 23.0983 32.5729 22.5927C32.4195 22.0871 32.0717 21.6632 31.6058 21.4141L31.2611 21.7819C31.5556 22.085 31.7462 22.4738 31.8053 22.8923C31.8643 23.3108 31.7888 23.7372 31.5897 24.11L29.9297 27.2156Z" fill="#FBBF7D"/>
<path d="M32.8665 38.7271L22.4156 39.9987L22.1164 36.9166L21.9844 35.8159C21.9494 35.5212 22.0329 35.2248 22.2164 34.9917C22.4 34.7586 22.6687 34.6079 22.9633 34.5729L31.1227 33.594C31.4173 33.5585 31.7139 33.6414 31.9474 33.8245C32.1809 34.0076 32.3322 34.276 32.368 34.5705L32.4906 35.5963L32.8665 38.7271Z" fill="#2370B5"/>
<path d="M28.7788 33.8765C29.0734 33.841 29.37 33.9239 29.6035 34.107C29.837 34.2901 29.9883 34.5585 30.0241 34.853L30.1467 35.8788L30.5229 39.0123L32.8663 38.7271L32.4905 35.5963L32.3678 34.5705C32.332 34.276 32.1808 34.0076 31.9473 33.8245C31.7138 33.6414 31.4171 33.5585 31.1225 33.594L22.9631 34.5729C22.9545 34.5739 22.9461 34.576 22.9375 34.5773L28.7788 33.8765Z" fill="#1067AE"/>
<path d="M32.4906 35.5963V35.5971L22.1164 36.9166L21.9844 35.8159C21.9494 35.5212 22.0329 35.2248 22.2164 34.9917C22.4 34.7586 22.6687 34.6079 22.9633 34.5729L31.1227 33.594C31.4173 33.5585 31.7139 33.6414 31.9474 33.8245C32.1809 34.0076 32.3322 34.276 32.368 34.5705L32.4906 35.5963Z" fill="#1067AE"/>
<path d="M32.3652 34.5705C32.3294 34.276 32.1781 34.0076 31.9446 33.8245C31.7111 33.6414 31.4145 33.5585 31.1198 33.594L22.9605 34.5729C22.9186 34.5781 22.877 34.5856 22.8359 34.5954L28.7761 33.8827C29.0707 33.8472 29.3674 33.9301 29.6009 34.1133C29.8344 34.2964 29.9856 34.5647 30.0214 34.8593L30.1441 35.8851V35.8859L32.4878 35.5971V35.5963L32.3652 34.5705Z" fill="#0A56A4"/>
<path d="M9.4102 21.412L10.4122 16.3667C10.4488 16.1824 10.4479 15.9926 10.4097 15.8085C10.3715 15.6245 10.2967 15.45 10.1897 15.2955C10.0828 15.141 9.94582 15.0095 9.78703 14.909C9.62825 14.8084 9.45087 14.7408 9.26544 14.7102C8.93203 14.6551 8.58993 14.7223 8.30211 14.8993C8.01429 15.0764 7.8001 15.3515 7.69895 15.6739L5.79692 21.7367C5.48962 22.7164 5.51245 23.7698 5.86192 24.7352L7.25411 28.5813C7.55095 29.4015 8.07073 30.1225 8.75497 30.6634L9.62278 31.3493C9.90998 31.5763 10.14 31.8674 10.2944 32.1993C10.4489 32.5313 10.5234 32.8947 10.5121 33.2606L10.4404 35.5764L16.7972 35.6782L9.4102 21.412Z" fill="#FDD8AE"/>
<path d="M9.62279 31.3533L8.75506 30.6673C8.07079 30.1265 7.55099 29.4054 7.25412 28.5853L5.86193 24.7392C5.51245 23.7738 5.48961 22.7203 5.79693 21.7406L7.69896 15.6778C7.80011 15.3554 8.01428 15.0803 8.30209 14.9033C8.5899 14.7262 8.93197 14.659 9.26537 14.7141C9.38888 14.7349 9.50905 14.7722 9.62264 14.825C9.44463 14.9066 9.28573 15.0247 9.15623 15.1716C9.02673 15.3185 8.9295 15.491 8.87084 15.6778L6.96881 21.7406C6.66151 22.7203 6.68434 23.7737 7.03381 24.7391L8.42599 28.5852C8.72285 29.4054 9.24265 30.1265 9.92693 30.6673L10.7947 31.3533C11.0819 31.5803 11.3119 31.8714 11.4663 32.2033C11.6207 32.5352 11.6953 32.8986 11.684 33.2645L11.6122 35.5803L16.7874 35.6631L16.7972 35.6821L10.4404 35.5803L10.5121 33.2645" fill="#FBBF7D"/>
<path d="M17.0792 35.5987L17.5164 31.8947C17.5764 31.3862 17.5246 30.8708 17.3646 30.3844C17.2047 29.898 16.9404 29.4524 16.5904 29.0788L9.40832 21.4141C8.94241 21.6632 8.59453 22.0872 8.44121 22.5928C8.28788 23.0983 8.34167 23.6441 8.59075 24.1101L10.2507 27.2156" fill="#FDD8AE"/>
<path d="M11.0844 27.2156C10.8325 27.2156 10.5853 27.1472 10.3693 27.0177C10.1532 26.8882 9.9764 26.7025 9.85767 26.4803L8.59071 24.11C8.34167 23.6441 8.28789 23.0983 8.44121 22.5927C8.59453 22.0871 8.9424 21.6632 9.40829 21.4141L9.75298 21.7819C9.45844 22.085 9.26788 22.4738 9.20883 22.8923C9.14978 23.3108 9.2253 23.7372 9.42446 24.11L11.0844 27.2156Z" fill="#FBBF7D"/>
<path d="M8.14844 38.7301L18.5997 39.9987L18.8989 36.9166L19.0309 35.8159C19.0659 35.5212 18.9824 35.2248 18.7989 34.9917C18.6153 34.7586 18.3467 34.6079 18.052 34.5729L9.89266 33.594C9.59804 33.5585 9.30138 33.6414 9.06787 33.8245C8.83436 34.0076 8.68311 34.276 8.64734 34.5705L8.52469 35.5963L8.14844 38.7301Z" fill="#2370B5"/>
<path d="M18.0509 34.5728L9.89156 33.5939C9.62152 33.5615 9.34893 33.6288 9.125 33.7831L15.7072 34.5728C16.0018 34.6079 16.2704 34.7585 16.454 34.9916C16.6376 35.2247 16.7211 35.5211 16.6861 35.8158L16.5541 36.9166L16.312 39.721L18.5986 39.9986L18.8978 36.9166L19.0298 35.8158C19.0648 35.5211 18.9813 35.2247 18.7978 34.9916C18.6142 34.7585 18.3456 34.6079 18.0509 34.5728Z" fill="#1067AE"/>
<path d="M8.52344 35.5963V35.5971L18.8977 36.9166L19.0297 35.8159C19.0647 35.5212 18.9812 35.2248 18.7976 34.9917C18.614 34.7586 18.3454 34.6079 18.0508 34.5729L9.89141 33.594C9.59679 33.5585 9.30013 33.6414 9.06662 33.8245C8.83311 34.0076 8.68186 34.276 8.64609 34.5705L8.52344 35.5963Z" fill="#1067AE"/>
<path d="M18.0534 34.5752L15.8633 34.3125C16.1334 34.3732 16.3715 34.5318 16.5314 34.7579C16.6914 34.9839 16.7619 35.2611 16.7292 35.5361L16.5985 36.6262L18.9003 36.919L19.0323 35.8182C19.0673 35.5236 18.9838 35.2271 18.8003 34.994C18.6167 34.7609 18.3481 34.6103 18.0534 34.5752Z" fill="#0A56A4"/>
<path d="M18.1104 33.9927L17.851 33.9615L18.0872 31.9631C18.1575 31.3699 18.0972 30.7684 17.9105 30.201C17.7238 29.6335 17.4151 29.1138 17.0062 28.6783L10.03 21.2331L10.9737 16.4826C11.0257 16.2211 11.0244 15.9518 10.9701 15.6907C10.9158 15.4297 10.8096 15.1823 10.6576 14.9631C10.5057 14.744 10.3113 14.5577 10.0859 14.4153C9.86048 14.2729 9.60872 14.1773 9.3456 14.1342C9.23874 14.1168 9.13066 14.108 9.0224 14.1078C8.599 14.1067 8.18639 14.2413 7.84517 14.492C7.50395 14.7426 7.2521 15.0961 7.12662 15.5005L5.22521 21.5633C4.88082 22.6657 4.90639 23.8505 5.29802 24.937L6.69021 28.7832C7.02426 29.7058 7.60898 30.5168 8.37865 31.1253L9.24646 31.8112C9.43009 31.9572 9.5828 32.1384 9.69568 32.3441C9.80855 32.5497 9.87933 32.7758 9.90388 33.0092C9.462 32.9685 9.02168 33.1017 8.67635 33.3804C8.33103 33.6591 8.10789 34.0613 8.05427 34.5018L7.93162 35.5243L7.93146 35.5248V35.5254L7.62271 38.0985C7.60499 38.2524 7.64894 38.407 7.74494 38.5286C7.84094 38.6502 7.98119 38.7288 8.135 38.7472C8.28881 38.7657 8.44367 38.7225 8.56571 38.6271C8.68774 38.5317 8.76703 38.3918 8.78622 38.2381L9.02419 36.2545L18.2364 37.426L18.0062 39.3443C17.996 39.4212 18.0012 39.4994 18.0214 39.5742C18.0417 39.6491 18.0766 39.7192 18.1241 39.7805C18.1716 39.8418 18.2309 39.893 18.2984 39.9312C18.3658 39.9695 18.4403 39.9939 18.5173 40.0031C18.5943 40.0124 18.6723 40.0062 18.747 39.9851C18.8216 39.9639 18.8913 39.9281 18.9519 39.8798C19.0126 39.8315 19.0631 39.7717 19.1005 39.7037C19.1379 39.6358 19.1614 39.5611 19.1697 39.4839L19.4684 36.9939L19.4687 36.9921L19.4689 36.9897L19.6012 35.8874C19.6278 35.6651 19.6102 35.4397 19.5497 35.2242C19.4891 35.0087 19.3867 34.8072 19.2483 34.6313C19.1098 34.4553 18.9381 34.3084 18.7429 34.1988C18.5476 34.0892 18.3327 34.0192 18.1104 33.9927H18.1104ZM9.10552 30.2061C8.50681 29.7328 8.05194 29.1019 7.79201 28.3842L6.39982 24.5378C6.09526 23.693 6.07537 22.7716 6.34318 21.9144L8.24474 15.8514C8.29618 15.6855 8.39946 15.5404 8.53943 15.4375C8.6794 15.3346 8.84867 15.2793 9.0224 15.2797C9.06741 15.2798 9.11234 15.2835 9.15677 15.2907C9.26471 15.3084 9.36797 15.3477 9.46041 15.4062C9.55285 15.4647 9.63258 15.5412 9.69486 15.6311C9.75713 15.721 9.80069 15.8226 9.82292 15.9297C9.84515 16.0368 9.84561 16.1473 9.82427 16.2546L8.87146 21.0506C8.34999 21.4098 7.97921 21.9487 7.83001 22.5641C7.68081 23.1795 7.76366 23.8283 8.06271 24.3865L9.72287 27.492C9.79614 27.629 9.92086 27.7314 10.0696 27.7765C10.1432 27.7988 10.2205 27.8064 10.2971 27.7988C10.3737 27.7913 10.4481 27.7687 10.5159 27.7324C10.5838 27.6962 10.6438 27.6469 10.6926 27.5874C10.7414 27.5279 10.7781 27.4594 10.8004 27.3857C10.8227 27.3121 10.8303 27.2348 10.8228 27.1582C10.8152 27.0816 10.7927 27.0073 10.7564 26.9394L9.09607 23.8336C8.98638 23.6306 8.9291 23.4034 8.92943 23.1727C8.92898 22.8075 9.07058 22.4565 9.32427 22.1938L16.1511 29.4796C16.4431 29.7906 16.6636 30.1619 16.797 30.5672C16.9304 30.9725 16.9735 31.4021 16.9233 31.8258L16.6875 33.8219L11.0847 33.1497C11.0779 32.7146 10.9746 32.2864 10.7824 31.896C10.5903 31.5056 10.3139 31.1626 9.97318 30.8919L9.10552 30.2061ZM18.4377 35.7478L18.376 36.2624L9.1638 35.0908L9.21771 34.6414C9.23511 34.5012 9.30736 34.3737 9.41864 34.2866C9.52991 34.1996 9.67113 34.1602 9.81138 34.1771L10.4084 34.2488H10.4088L17.9708 35.1561C18.1111 35.1727 18.2392 35.2443 18.3268 35.3552C18.4143 35.4662 18.4542 35.6074 18.4377 35.7478ZM26.4958 17.4323C28.1197 15.1301 28.9779 12.5008 28.9779 9.82839V3.66721C28.9779 3.52725 28.9278 3.3919 28.8366 3.28567C28.7455 3.17944 28.6193 3.10935 28.481 3.08807C26.988 2.85977 25.5281 2.45197 24.1329 1.87354C22.9937 1.40175 21.9084 0.809007 20.8958 0.105494C20.7946 0.0347816 20.6735 -0.0021097 20.5501 9.32174e-05C20.4266 0.00229614 20.3069 0.0434805 20.2083 0.11776C19.4657 0.674765 18.673 1.1616 17.8404 1.57198C16.1719 2.38733 14.3793 2.91942 12.5361 3.14643C12.3948 3.16457 12.2649 3.2336 12.1708 3.34058C12.0767 3.44757 12.0247 3.58518 12.0247 3.72768V9.82846C12.0247 12.5009 12.8829 15.1302 14.5068 17.4324C15.9136 19.4269 17.8884 21.1628 20.2175 22.4525C20.3043 22.5006 20.402 22.5259 20.5013 22.5259C20.6006 22.5259 20.6983 22.5006 20.7851 22.4525C23.1142 21.1628 25.089 19.4269 26.4958 17.4324V17.4323ZM20.5013 21.2667C18.4496 20.0808 16.7128 18.5268 15.4643 16.7568C13.9808 14.6535 13.1966 12.2576 13.1966 9.82854V4.23635C14.9898 3.9648 16.7309 3.42062 18.3596 2.62268C19.1311 2.24198 19.8711 1.80065 20.5728 1.30284C21.5546 1.95135 22.5959 2.50474 23.6828 2.95549C25.0095 3.50596 26.392 3.91098 27.806 4.16346V9.82854C27.806 12.2577 27.0218 14.6535 25.5383 16.7568C24.2898 18.5268 22.553 20.0809 20.5013 21.2667ZM26.6341 5.58331C26.6341 5.45263 26.5904 5.3257 26.51 5.22271C26.4295 5.11972 26.317 5.04656 26.1902 5.01487C25.1814 4.76295 24.1928 4.43621 23.2326 4.03737C22.4297 3.70359 21.6495 3.31772 20.8969 2.88221C20.8054 2.82918 20.7013 2.80189 20.5955 2.80324C20.4898 2.80458 20.3863 2.83452 20.2962 2.88987C19.8359 3.1725 19.3629 3.43389 18.8787 3.67323C17.5866 4.30859 16.2254 4.79248 14.8222 5.11526C14.6932 5.14513 14.5782 5.21782 14.4958 5.32147C14.4134 5.42512 14.3685 5.55363 14.3685 5.68604V9.82854C14.3685 12.0145 15.0786 14.1767 16.422 16.0814C17.389 17.4523 18.6518 18.6644 20.1754 19.6841C20.2718 19.7486 20.3852 19.7831 20.5013 19.7831C20.6174 19.7831 20.7308 19.7486 20.8272 19.6841C22.3508 18.6644 23.6136 17.4523 24.5806 16.0814C25.924 14.1767 26.6341 12.0145 26.6341 9.82854V5.58331ZM25.4622 9.82854C25.4622 11.7714 24.8263 13.6999 23.6229 15.4059C22.7626 16.6004 21.7073 17.6415 20.5013 18.4856C19.2953 17.6415 18.24 16.6004 17.3797 15.4059C16.1764 13.6999 15.5404 11.7714 15.5404 9.82854V6.14635C16.8721 5.80748 18.165 5.33071 19.3979 4.72378C19.8102 4.52 20.215 4.30121 20.6114 4.06784C21.3145 4.45925 22.0393 4.81034 22.7823 5.1194C23.6551 5.48194 24.5502 5.78806 25.4622 6.03589V9.82854ZM35.7775 21.5637L33.876 15.5003C33.7237 15.0149 33.3911 14.6063 32.9467 14.3587C32.5023 14.1111 31.9798 14.0432 31.4869 14.1691C30.994 14.2951 30.5681 14.6051 30.2969 15.0356C30.0256 15.466 29.9297 15.984 30.0289 16.483L30.9726 21.2331L23.9964 28.6784C23.5875 29.1139 23.2788 29.6337 23.0921 30.2011C22.9054 30.7686 22.8451 31.3701 22.9154 31.9633L23.1516 33.9615L22.8922 33.9927C22.6699 34.0192 22.455 34.0892 22.2598 34.1988C22.0646 34.3084 21.8929 34.4553 21.7544 34.6313C21.616 34.8072 21.5136 35.0087 21.453 35.2242C21.3924 35.4397 21.3749 35.6651 21.4015 35.8874L21.5337 36.9898L21.5339 36.9921L21.5342 36.9939L21.8329 39.4839C21.8521 39.6377 21.9314 39.7775 22.0535 39.8729C22.1755 39.9683 22.3304 40.0116 22.4842 39.9931C22.638 39.9746 22.7782 39.896 22.8742 39.7744C22.9702 39.6529 23.0142 39.4982 22.9965 39.3443L22.7663 37.426L31.9784 36.2545L32.2164 38.2381C32.2356 38.3918 32.3149 38.5317 32.4369 38.6271C32.5589 38.7225 32.7138 38.7657 32.8676 38.7472C33.0214 38.7288 33.1617 38.6502 33.2577 38.5286C33.3537 38.407 33.3976 38.2524 33.3799 38.0985L33.0711 35.5254V35.5248L33.0711 35.5243L32.9484 34.5018C32.8945 34.0614 32.6713 33.6593 32.326 33.3807C31.9808 33.1021 31.5406 32.9688 31.0987 33.0092C31.1232 32.7759 31.194 32.5498 31.3068 32.3441C31.4197 32.1385 31.5724 31.9573 31.756 31.8113L32.6242 31.1252C33.3938 30.5167 33.9784 29.7056 34.3125 28.7831L35.7045 24.9371C36.0962 23.8507 36.1218 22.666 35.7775 21.5637ZM31.1912 34.1771C31.3315 34.1603 31.4727 34.1997 31.5839 34.2867C31.6952 34.3737 31.7674 34.5013 31.7849 34.6414L31.8388 35.0908L22.6267 36.2624L22.565 35.7477C22.5485 35.6073 22.5884 35.4662 22.6759 35.3552C22.7635 35.2443 22.8915 35.1727 23.0318 35.1561L30.5938 34.2488H30.5942L31.1912 34.1771ZM34.6027 24.5381L33.2105 28.3841C32.9507 29.1017 32.4959 29.7326 31.8973 30.206L31.0293 30.892C30.6887 31.1627 30.4123 31.5057 30.2201 31.8961C30.028 32.2865 29.9247 32.7146 29.9179 33.1497L24.3151 33.8219L24.0792 31.826C24.029 31.4023 24.0721 30.9726 24.2055 30.5673C24.3389 30.1619 24.5594 29.7907 24.8515 29.4796L31.6783 22.1937C31.9321 22.4564 32.0737 22.8075 32.0732 23.1728C32.0735 23.4036 32.0161 23.6309 31.9064 23.8339L30.2462 26.9394C30.1729 27.0765 30.1571 27.237 30.2022 27.3857C30.2473 27.5345 30.3496 27.6592 30.4867 27.7324C30.6237 27.8057 30.7843 27.8216 30.933 27.7765C31.0817 27.7314 31.2065 27.629 31.2797 27.492L32.9397 24.3868C33.2389 23.8286 33.3218 23.1798 33.1726 22.5643C33.0234 21.9488 32.6527 21.4099 32.1311 21.0506L31.1784 16.2549C31.1571 16.1478 31.1574 16.0374 31.1796 15.9304C31.2017 15.8234 31.2451 15.722 31.3072 15.6321C31.3692 15.5422 31.4488 15.4657 31.541 15.4071C31.6332 15.3485 31.7363 15.309 31.844 15.291C31.889 15.2836 31.9346 15.2798 31.9802 15.2797C32.1539 15.2793 32.3232 15.3346 32.4631 15.4374C32.6031 15.5403 32.7064 15.6853 32.7579 15.8512L34.6596 21.9149C34.9273 22.7721 34.9073 23.6933 34.6027 24.5381Z" fill="#3C3B41"/>
</g>
<defs>
<clipPath id="clip0_6111_13936">
<rect width="40" height="40" fill="white" transform="translate(0.5)"/>
</clipPath>
</defs>
</svg>
