<svg width="34" height="34" viewBox="0 0 34 34" fill="none" xmlns="http://www.w3.org/2000/svg">
<path d="M29.3209 3.87053C26.4676 3.87053 7.71391 3.87053 4.67875 3.87053C3.27638 3.87053 2.14011 5.00747 2.14011 6.40917V22.7581C2.14011 24.1598 3.27638 25.2967 4.67875 25.2967L13.6134 25.9879V26.679C13.6134 27.4718 14.2555 28.1139 15.0483 28.1139H19.0902C19.8823 28.1139 20.5251 27.4718 20.5251 26.679V25.9879L29.3208 25.2967C30.7232 25.2967 31.8602 24.1598 31.8602 22.7581V6.40917C31.8603 5.00747 30.7233 3.87053 29.3209 3.87053Z" fill="#466889"/>
<path d="M4.90509 6.63825V22.5351H29.096V6.63825C28.077 6.63825 5.92668 6.63825 4.90509 6.63825Z" fill="#DDEAF0"/>
<path d="M15.964 17.0047V19.7694H13.1993L12.2008 18.3871L13.1993 17.0047H15.964Z" fill="#F2D543"/>
<path d="M13.199 19.7725H10.4344L9.64319 17.768L10.4344 14.9343H13.199C13.199 15.9188 13.199 18.7858 13.199 19.7725Z" fill="#95DB3D"/>
<path d="M10.4338 19.7684H7.6692V12.8567H10.4339C10.4338 13.6873 10.4338 18.9465 10.4338 19.7684Z" fill="#79D5FA"/>
<path d="M33.9349 25.3008C33.9349 27.9728 31.7688 30.1389 29.0967 30.1389H4.90585C3.56982 30.1389 2.3603 29.5971 1.4846 28.722C0.609563 27.8463 0.067688 26.6368 0.067688 25.3008C2.58329 25.3008 10.9893 25.3008 13.6146 25.3008V25.9919C13.6146 26.7847 14.2566 27.4268 15.0494 27.4268H19.0914C19.8834 27.4268 20.5262 26.7847 20.5262 25.9919V25.3008C23.1005 25.3008 31.3921 25.3008 33.9349 25.3008Z" fill="#2E5177"/>
<path d="M29.0963 23.2272H4.90544C4.52373 23.2272 4.21428 22.9178 4.21428 22.5361V6.63926C4.21428 6.25756 4.52373 5.9481 4.90544 5.9481H29.0963C29.478 5.9481 29.7875 6.25756 29.7875 6.63926V22.5361C29.7875 22.9178 29.478 23.2272 29.0963 23.2272ZM5.59659 21.8449H28.4051V7.33042H5.59659V21.8449Z" fill="#BDDEED"/>
<path d="M17.5473 14.6528C17.2774 14.3829 17.2774 13.9452 17.5473 13.6753L19.4988 11.7238C19.7688 11.4539 20.2064 11.4538 20.4763 11.7238L21.2618 12.5093L22.2966 10.4397C22.5074 10.0183 23.0701 9.9266 23.4036 10.2601L24.2829 11.1394L25.7627 9.01239C25.9807 8.69902 26.4114 8.62166 26.7247 8.83967C27.0381 9.05768 27.1154 9.48839 26.8975 9.80176L24.9459 12.6071C24.6995 12.9614 24.1932 13.0045 23.8898 12.7011L23.1042 11.9155L22.0695 13.9852C21.8588 14.4066 21.296 14.4982 20.9625 14.1648L19.9876 13.1899L18.5248 14.6527C18.2549 14.9227 17.8172 14.9227 17.5473 14.6528Z" fill="#95DB3D"/>
<path d="M26.33 16.3187H18.036C17.6543 16.3187 17.3449 16.0092 17.3449 15.6275V9.40698C17.3449 9.02527 17.6543 8.71582 18.036 8.71582C18.4177 8.71582 18.7272 9.02527 18.7272 9.40698V14.9363H26.33C26.7117 14.9363 27.0212 15.2457 27.0212 15.6274C27.0212 16.0092 26.7117 16.3187 26.33 16.3187Z" fill="#466889"/>
</svg>
