<svg xmlns="http://www.w3.org/2000/svg" x="0px" y="0px" width="100" height="100" viewBox="0 0 64 64">
<path  fill="#0b567c" d="M 32 9 C 24.832 9 19 14.832 19 22 L 19 27.347656 C 16.670659 28.171862 15 30.388126 15 33 L 15 49 C 15 52.314 17.686 55 21 55 L 43 55 C 46.314 55 49 52.314 49 49 L 49 33 C 49 30.388126 47.329341 28.171862 45 27.347656 L 45 22 C 45 14.832 39.168 9 32 9 z M 32 13 C 36.963 13 41 17.038 41 22 L 41 27 L 23 27 L 23 22 C 23 17.038 27.037 13 32 13 z M 21 31 L 43 31 C 44.105 31 45 31.895 45 33 L 45 49 C 45 50.105 44.105 51 43 51 L 21 51 C 19.895 51 19 50.105 19 49 L 19 33 C 19 31.895 19.895 31 21 31 z M 24.5 38.5 C 23.119 38.5 22 39.619 22 41 C 22 42.381 23.119 43.5 24.5 43.5 C 25.881 43.5 27 42.381 27 41 C 27 39.619 25.881 38.5 24.5 38.5 z M 32 38.5 C 30.619 38.5 29.5 39.619 29.5 41 C 29.5 42.381 30.619 43.5 32 43.5 C 33.381 43.5 34.5 42.381 34.5 41 C 34.5 39.619 33.381 38.5 32 38.5 z M 39.5 38.5 C 38.119 38.5 37 39.619 37 41 C 37 42.381 38.119 43.5 39.5 43.5 C 40.881 43.5 42 42.381 42 41 C 42 39.619 40.881 38.5 39.5 38.5 z"></path>
</svg>