<svg width="34" height="34" viewBox="0 0 34 34" fill="none" xmlns="http://www.w3.org/2000/svg">
<g clip-path="url(#clip0_1_13)">
<path d="M13.7736 22.2917L10.7594 25.3066L9.02113 24.8649C9.01907 24.8508 9.04563 25.0361 8.80478 23.3519L11.8038 20.3522L13.1681 20.6487L13.7736 22.2917Z" fill="#8DC0D6"/>
<path d="M11.9422 26.4879L9.00474 29.4261L9.00408 29.4254L5.78391 27.9214L4.60612 25.0275L7.54361 22.0894L8.80433 23.3501V23.3508C8.93973 23.4862 8.04922 22.5959 11.9422 26.4879Z" fill="#F2D543"/>
<path d="M9.00498 29.4285L5.40676 33.026C4.19239 34.2404 2.22252 34.2404 1.00814 33.026C-0.206226 31.8117 -0.206226 29.8418 1.00814 28.6274L4.60637 25.0298C5.12905 25.5525 8.44624 28.8698 9.00498 29.4285Z" fill="#98786F"/>
<path d="M30.2598 21.3077C35.1182 16.449 35.1181 8.57177 30.2594 3.71331C25.4008 -1.14515 17.5236 -1.14501 12.6651 3.71361C7.80665 8.57224 7.80678 16.4495 12.6654 21.308C17.524 26.1664 25.4013 26.1663 30.2598 21.3077Z" fill="#BDDEED"/>
<path d="M15.5981 6.64594C14.1241 8.11929 13.2024 10.1451 13.1695 12.3863C13.1026 16.9467 16.7836 20.7401 21.3441 20.8038C25.9795 20.8685 29.7567 17.1304 29.7567 12.5105L15.5981 6.64594Z" fill="#DDEAF0"/>
<path d="M29.2836 9.7485L21.0933 10.5088L20.7016 8.36619L20.9089 6.22359L27.6428 6.98388C28.3574 7.78142 28.9194 8.71795 29.2836 9.7485Z" fill="#DD641A"/>
<path d="M27.6428 6.98009H21.4617L20.7016 5.59778L21.4617 4.21547C23.9181 4.2154 26.125 5.28328 27.6428 6.98009Z" fill="#95DB3D"/>
<path d="M29.7562 12.5104H21.4621L20.8863 11.1281L21.4621 9.74578H29.2841C29.5895 10.6104 29.7562 11.5407 29.7562 12.5104Z" fill="#98786F"/>
<path d="M21.4626 12.5095L15.598 6.64494C17.0992 5.1437 19.1727 4.21547 21.4626 4.21547C21.4626 5.25247 21.4626 11.6042 21.4626 12.5095Z" fill="#F2D543"/>
<path d="M21.4616 21.4927C16.5071 21.4927 12.4763 17.4619 12.4763 12.5074C12.4763 7.55291 16.5071 3.52219 21.4616 3.52219C26.4161 3.52219 30.4468 7.55298 30.4468 12.5074C30.4468 17.4619 26.416 21.4927 21.4616 21.4927ZM21.4616 4.90457C17.2694 4.90457 13.8587 8.31519 13.8587 12.5074C13.8587 16.6996 17.2694 20.1103 21.4616 20.1103C25.6538 20.1103 29.0644 16.6996 29.0644 12.5074C29.0644 8.31519 25.6538 4.90457 21.4616 4.90457Z" fill="#79D5FA"/>
</g>
<defs>
<clipPath id="clip0_1_13">
<rect width="34" height="34" fill="white"/>
</clipPath>
</defs>
</svg>
