<svg width="28" height="21" viewBox="0 0 28 21" fill="none" xmlns="http://www.w3.org/2000/svg">
<path opacity="0.3" d="M9.59958 4.87521C12.0041 4.71485 13.6549 6.23376 14.1797 7.01326C14.3467 6.79055 14.7951 6.23823 15.2532 5.81062C15.8257 5.27611 18.4735 4.2739 20.4773 5.47655C22.4811 6.67921 22.6243 8.61682 22.4811 9.88629C22.3666 10.9019 21.5269 12.6257 21.1214 13.3606C20.6205 14.7637 17.0423 18.4385 16.6844 18.9062C16.3982 19.2804 16.5652 19.5966 16.6844 19.708C16.8753 19.7748 17.486 19.855 18.402 19.6412C19.547 19.3739 22.4096 17.5699 24.3418 15.4987C25.8876 13.8417 26.8466 11.4676 27.1328 10.4876L26.9897 5.47655C26.775 4.60797 25.5584 3.07124 24.4134 2.33628C23.2683 1.60133 21.4077 1.33407 21.1214 1.33407C20.8352 1.33407 19.4754 1.33407 18.1157 1.80177C17.0279 2.17593 15.9449 3.16033 15.5394 3.60575C15.2532 3.36077 14.5805 2.79062 14.1797 2.46991C13.6787 2.06903 12.0328 1.40089 11.3887 1.20044C10.8734 1.04009 8.88394 1 7.95361 1C7.64349 1 6.70839 1.1069 5.44886 1.53451C3.87444 2.06903 1.94221 3.73938 1.44126 5.14248C0.940313 6.54558 0.940313 8.55 1.08344 9.68584C1.22657 10.8217 2.08534 12.7593 3.01567 14.296C3.75994 15.5254 5.47271 16.9909 6.23606 17.5699C6.73701 17.9263 7.91067 18.7325 8.59768 19.1066C9.2847 19.4808 10.4106 19.7971 10.8877 19.9084C11.0547 19.9307 11.4459 19.9084 11.6749 19.6412C11.9039 19.3739 11.2933 18.5053 10.9593 18.1044C10.6253 17.7704 9.79996 16.9151 9.1702 16.1668C8.54043 15.4185 7.76277 14.2069 7.45266 13.6947C6.02137 11.8907 6.02137 10.2872 5.73512 9.4854C5.44886 8.68363 6.59389 5.07565 9.59958 4.87521Z" fill="url(#paint0_linear_8021_853)" stroke="#007CBC" stroke-width="0.817958"/>
<defs>
<linearGradient id="paint0_linear_8021_853" x1="27.1328" y1="10.4999" x2="2.18081" y2="10.5623" gradientUnits="userSpaceOnUse">
<stop stop-color="#04537B"/>
<stop offset="1" stop-color="#B41E85"/>
</linearGradient>
</defs>
</svg>
