<svg width="32" height="24" viewBox="0 0 32 24" fill="none" xmlns="http://www.w3.org/2000/svg">
<path opacity="0.64" d="M10.51 4.73766C13.4497 4.54162 15.4678 6.39857 16.1094 7.35155C16.3135 7.07928 16.8618 6.40403 17.4218 5.88125C18.1217 5.22778 21.3589 4.00252 23.8086 5.47283C26.2584 6.94315 26.4334 9.31199 26.2584 10.864C26.1184 12.1056 25.0918 14.213 24.596 15.1116C23.9836 16.8269 19.609 21.3195 19.1716 21.8913C18.8216 22.3488 19.0258 22.7354 19.1716 22.8715C19.4049 22.9532 20.1515 23.0513 21.2714 22.7899C22.6712 22.4631 26.1709 20.2577 28.5332 17.7254C30.423 15.6997 31.5953 12.7972 31.9453 11.5991L31.7703 5.47283C31.5079 4.41094 30.0205 2.53221 28.6206 1.63368C27.2208 0.735157 24.946 0.40842 24.596 0.40842C24.2461 0.40842 22.5837 0.40842 20.9214 0.980209C19.5915 1.43764 18.2675 2.64112 17.7717 3.18568C17.4218 2.88617 16.5993 2.18913 16.1094 1.79705C15.497 1.30695 13.4847 0.490105 12.6972 0.245052C12.0673 0.0490104 9.63504 0 8.49766 0C8.11853 0 6.97531 0.130695 5.43546 0.653473C3.51066 1.30695 1.14839 3.34905 0.535954 5.06441C-0.0764847 6.77978 -0.0764847 9.2303 0.0984974 10.6189C0.273479 12.0076 1.32337 14.3764 2.46076 16.2551C3.37067 17.7581 5.46463 19.5497 6.39787 20.2577C7.01031 20.6933 8.44516 21.679 9.28508 22.1364C10.125 22.5938 11.5015 22.9805 12.0848 23.1166C12.2889 23.1438 12.7672 23.1166 13.0472 22.7899C13.3272 22.4631 12.5806 21.4012 12.1723 20.9111C11.764 20.5027 10.7549 19.4571 9.98501 18.5423C9.21509 17.6274 8.26435 16.1462 7.88522 15.52C6.13539 13.3145 6.13539 11.3541 5.78543 10.3739C5.43546 9.39367 6.83532 4.98271 10.51 4.73766Z" fill="url(#paint0_linear_8804_8971)"/>
<defs>
<linearGradient id="paint0_linear_8804_8971" x1="31.9453" y1="11.6141" x2="1.44009" y2="11.6905" gradientUnits="userSpaceOnUse">
<stop stop-color="#04537B"/>
<stop offset="1" stop-color="#B41E85"/>
</linearGradient>
</defs>
</svg>
