<svg width="34" height="34" viewBox="0 0 34 34" fill="none" xmlns="http://www.w3.org/2000/svg">
<g clip-path="url(#clip0_5504_1291)">
<path d="M10.2422 22.8521V29.0509L17.0005 32.9888L23.759 29.0509V22.8521" stroke="#007CBC"/>
<path d="M26.1811 24.157H33.4688V9.7798H23.3997V1.01099H16.9705H10.5413V9.7798H0.53125V24.157H7.7597" stroke="#007CBC"/>
<path d="M17 32.4256V22.7855" stroke="#007CBC"/>
<path d="M24.0901 18.6929L17 22.8196L20.1708 24.6678L27.2608 20.5406L24.0901 18.6929Z" stroke="#007CBC"/>
<path d="M9.911 18.6929L17.0011 22.8196L13.8303 24.6678L6.74023 20.5406L9.911 18.6929Z" stroke="#007CBC"/>
<path d="M9.911 18.6844L17.0011 14.5572L13.8303 12.7095L6.74023 16.8365L9.911 18.6844Z" stroke="#007CBC"/>
<path d="M24.0901 18.6844L17 14.5572L20.1708 12.7095L27.2608 16.8365L24.0901 18.6844Z" stroke="#007CBC"/>
</g>
<defs>
<clipPath id="clip0_5504_1291">
<rect width="34" height="34" fill="white"/>
</clipPath>
</defs>
</svg>
