<svg width="55" height="66" viewBox="0 0 55 66" fill="none" xmlns="http://www.w3.org/2000/svg">
<path d="M2.9112 40.7227L0.886719 42.7193L2.11592 45.3349L4.36402 42.5458L2.9112 40.7227ZM28.3586 45.6006L30.1713 47.8046L32.7556 46.6742L30.192 44.1953L28.3586 45.6006Z" fill="#EAC08B"/>
<path d="M13.4974 29.2148C13.0152 30.4975 12.6306 32.0665 12.3965 33.9854C12.3541 34.3386 12.2109 34.6741 11.9824 34.9554C11.7539 35.2367 11.4488 35.453 11.1003 35.5809C8.91879 36.3765 4.23634 38.3588 1.76953 41.4467L3.81461 43.3788C3.81461 43.3788 7.73267 40.6836 12.871 39.4481C13.8189 39.2261 14.6672 38.7207 15.2913 38.006C16.7503 36.3219 19.2915 33.2606 19.4744 32.1772L13.4974 29.2148Z" fill="#565656"/>
<path d="M3.0067 39.9574L5.20757 42.316C5.27426 42.3875 5.31109 42.482 5.31051 42.5799C5.30992 42.6778 5.27196 42.7718 5.20443 42.8426L4.80198 43.2604C4.73446 43.3303 4.64293 43.3718 4.546 43.3765C4.44906 43.3812 4.35398 43.3487 4.28006 43.2856L1.90313 41.2486C1.82827 41.1846 1.78105 41.094 1.77138 40.9958C1.7617 40.8976 1.79033 40.7995 1.85125 40.722L2.42976 39.981C2.46375 39.9379 2.50664 39.9026 2.5555 39.8776C2.60435 39.8526 2.65802 39.8385 2.71281 39.8363C2.76761 39.834 2.82225 39.8437 2.87297 39.8646C2.9237 39.8855 2.96932 39.9172 3.0067 39.9574Z" fill="#656565"/>
<path d="M30.9844 17.2108L31.7863 16.9198C31.9334 16.8665 32.0599 16.7725 32.149 16.6503C32.2381 16.5282 32.2857 16.3835 32.2856 16.2354C32.2856 15.9633 32.4463 15.7127 32.7031 15.586L33.7446 15.0714C33.7834 15.0524 33.828 15.0463 33.871 15.0541C33.914 15.0619 33.9529 15.0832 33.9813 15.1145L34.1334 15.2829H34.5265C34.6714 15.2829 34.7646 15.4284 34.6957 15.5483L34.6628 15.6049C34.6472 15.6324 34.6394 15.6632 34.6402 15.6943C34.6411 15.7254 34.6505 15.7558 34.6675 15.7825C34.6845 15.8092 34.7086 15.8314 34.7375 15.8467C34.7663 15.8621 34.7989 15.8702 34.832 15.8703C34.9841 15.8703 35.0759 16.0279 34.9942 16.1478L34.888 16.3041L35.2395 16.4079C35.2717 16.4174 35.3008 16.4347 35.3236 16.4581C35.3465 16.4816 35.3624 16.5102 35.3696 16.5413C35.3769 16.5723 35.3753 16.6046 35.3651 16.6348C35.3548 16.6651 35.3362 16.6923 35.3112 16.7137L35.0974 16.8956L35.3313 17.0559C35.3566 17.0731 35.377 17.0959 35.3908 17.1222C35.4046 17.1485 35.4114 17.1776 35.4105 17.2069C35.4097 17.2362 35.4012 17.2649 35.3859 17.2905C35.3706 17.316 35.3489 17.3377 35.3227 17.3536L34.086 18.1014C33.9951 18.156 33.8931 18.1924 33.7865 18.2084C33.6798 18.2244 33.5708 18.2196 33.4663 18.1943C33.1306 18.1121 32.8896 18.0151 32.5811 18.1458L31.531 18.5918L30.9844 17.2108Z" fill="#EAC08B"/>
<path d="M11.6632 26.3332C11.6632 26.3332 9.44295 33.3762 21.7879 35.4524C22.5244 35.5758 23.1289 36.0855 23.3582 36.7811C24.0598 38.9137 25.8457 43.5016 28.889 46.0325L30.9832 44.1822C30.9832 44.1822 28.4228 40.284 27.4281 35.2993C27.2494 34.3804 26.7759 33.5412 26.0765 32.9036C24.4227 31.4145 21.4143 28.8151 20.3118 28.5803C20.3118 28.5803 20.1766 27.7867 20.8524 26.6632L11.8014 25.6719L11.6632 26.3332Z" fill="#656565"/>
<path d="M27.5694 45.6039L29.9936 43.4665C30.0641 43.4047 30.1545 43.3736 30.2462 43.3796C30.3379 43.3856 30.4239 43.4282 30.4867 43.4987L30.8863 43.951C30.9486 44.0213 30.983 44.1139 30.9824 44.2099C30.9818 44.306 30.9464 44.3982 30.8833 44.4676L28.7669 46.803C28.703 46.8733 28.6158 46.915 28.5235 46.9195C28.4311 46.924 28.3406 46.8909 28.2708 46.8272L27.5633 46.1769C27.5245 46.141 27.4935 46.0966 27.4725 46.0469C27.4514 45.9972 27.4408 45.9433 27.4414 45.889C27.442 45.8346 27.4537 45.781 27.4758 45.7318C27.4979 45.6826 27.5298 45.639 27.5694 45.6039Z" fill="#565656"/>
<path d="M23.8998 9.25141V10.3991C23.3318 10.721 22.9187 11.0989 22.5572 11.5607C22.0064 12.2186 21.5589 13.0583 20.9564 14.164L17.7031 11.4208C17.7031 11.4208 18.6843 10.735 19.0285 9.34938C19.2007 8.73356 19.2351 7.97777 18.9941 7.08203L23.8998 9.25141Z" fill="#CFA572"/>
<path d="M18.5929 6.14991L20.2603 9.14656C20.7514 10.0292 21.6085 10.6769 22.6267 10.9374L24.731 11.4741C24.8953 11.5159 25.0679 11.5182 25.2333 11.4809C25.3987 11.4436 25.5517 11.3678 25.6783 11.2605C25.8048 11.1532 25.9011 11.0176 25.9582 10.8663C26.0153 10.7149 26.0315 10.5524 26.0054 10.3936L25.7779 9.01701C25.7725 8.98337 25.7748 8.94902 25.7848 8.91631C25.7947 8.8836 25.812 8.85329 25.8354 8.82748C25.8589 8.80166 25.888 8.78093 25.9207 8.76672C25.9534 8.7525 25.989 8.74513 26.025 8.74511C26.1163 8.74492 26.206 8.72258 26.2856 8.68021C26.3652 8.63784 26.4319 8.57686 26.4793 8.50313C26.5268 8.4294 26.5535 8.34539 26.5567 8.25913C26.56 8.17288 26.5397 8.08728 26.4979 8.01054L25.5565 6.29084C25.2221 5.6787 25.787 5.431 25.4932 4.82455L24.0156 1.76953L20.4787 1.99731L18.5898 4.17112V6.14991H18.5929Z" fill="#EAC08B"/>
<path d="M25.6718 10.8589C25.5893 11.0914 25.4224 11.2838 25.2048 11.3975C24.9872 11.5112 24.7349 11.5377 24.4987 11.4717C22.5392 10.9493 21.1069 10.8137 20.1974 9.09354L18.5898 6.01512V3.98716L20.4146 1.76953H20.516L19.1691 3.40357V5.43153L20.7767 8.50995C21.6848 10.2301 23.1171 10.3658 25.078 10.8881C25.2808 10.9464 25.4835 10.9318 25.6718 10.8589Z" fill="#D3AE7E"/>
<path d="M21.2461 17.0313L27.0107 21.0902C27.2693 21.2714 27.6085 21.295 27.8895 21.1506L32.5123 18.7816C32.6165 18.7283 32.6953 18.637 32.7319 18.5271C32.7685 18.4172 32.76 18.2975 32.7081 18.1937L31.8023 16.3772C31.7751 16.3227 31.7367 16.2743 31.6897 16.2351C31.6426 16.1958 31.5879 16.1665 31.5289 16.149C31.4699 16.1315 31.4079 16.126 31.3467 16.1331C31.2855 16.1402 31.2264 16.1595 31.1731 16.19L28.1705 17.9197C28.0313 18.0002 27.8703 18.0366 27.7093 18.024C27.5484 18.0113 27.3953 17.9502 27.2708 17.849L21.6153 13.2773L21.2461 17.0313Z" fill="#E46047"/>
<path d="M17.7485 13.2773C17.7485 13.2773 19.2638 15.3696 22.0712 13.8905C22.0712 13.8905 23.4 17.6451 22.9076 19.5911L20.7149 28.3265L17.1781 27.5139L16.8203 24.4774L17.5359 15.9577L17.7485 13.2773Z" fill="#D7DADC"/>
<path d="M18.2889 10.6211C18.2889 10.6211 18.7331 12.5382 20.2269 13.1768C20.2269 13.1768 21.2618 13.5294 21.7829 12.6493C21.7829 12.6493 23.0043 15.1883 20.8605 15.0412C20.8605 15.0412 18.1764 14.8274 18.1764 13.1324C18.1749 13.1296 17.0409 11.7081 18.2889 10.6211Z" fill="white"/>
<path d="M21.8023 12.8705C21.8023 12.8705 23.0313 17.3322 22.708 19.0273L21.2461 28.2808L21.5202 28.329L22.8596 20.3121C22.8897 20.1296 22.9118 19.9471 22.9259 19.7602C23.0072 18.636 23.3255 14.8415 21.967 12.3945L21.8023 12.8705Z" fill="#757575"/>
<path d="M5.3563 22.1328L4.99254 23.0952C4.92584 23.2717 4.8084 23.4235 4.65568 23.5304C4.50297 23.6374 4.32214 23.6945 4.13703 23.6943C3.96993 23.6944 3.80602 23.7411 3.66298 23.8294C3.51993 23.9176 3.40317 24.0442 3.3253 24.1953L2.68198 25.4452C2.65823 25.4918 2.65062 25.5453 2.66041 25.5968C2.6702 25.6484 2.6968 25.6951 2.73587 25.7293L2.94638 25.9118V26.3835C2.94638 26.5574 3.12826 26.6693 3.27814 26.5866L3.34888 26.547C3.38323 26.5283 3.42173 26.519 3.46064 26.52C3.49955 26.521 3.53754 26.5323 3.57093 26.5527C3.60432 26.5732 3.63197 26.6021 3.6512 26.6367C3.67042 26.6713 3.68056 26.7104 3.68064 26.7502C3.68064 26.9327 3.87768 27.0429 4.02756 26.9447L4.22291 26.8173L4.35259 27.2391C4.36448 27.2778 4.38617 27.3127 4.41545 27.3401C4.44473 27.3675 4.48057 27.3866 4.51935 27.3953C4.55813 27.404 4.59848 27.4022 4.63632 27.3898C4.67417 27.3775 4.70816 27.3552 4.73487 27.3252L4.96222 27.0687L5.16263 27.3493C5.25525 27.4801 5.44892 27.475 5.53481 27.339L6.46948 25.8532C6.53777 25.7441 6.58333 25.6217 6.60332 25.4937C6.62332 25.3658 6.61731 25.235 6.58568 25.1095L6.47284 24.6687C6.41987 24.461 6.4383 24.241 6.52505 24.0455L7.08248 22.7853L5.3563 22.1328Z" fill="#EAC08B"/>
<path d="M23.2284 0C23.2284 0 26.2276 1.45436 23.9065 2.538C23.9065 2.538 20.3733 1.42313 20.6583 4.45678C20.6583 4.45678 19.9802 5.8188 20.3733 6.5616C20.3733 6.5616 17.5151 4.52468 19.6215 8.08522C19.6215 8.08522 19.6607 8.85246 19.3381 8.85246C19.3381 8.85246 16.8745 6.71641 16.8401 4.7664C16.8401 4.7664 16.4109 2.19716 19.5526 1.67163C19.5526 1.67163 22.9073 1.26832 23.2284 0Z" fill="#565656"/>
<path d="M4.48702 22.983L7.26318 18.219C7.5027 17.8085 7.84397 17.4661 8.25434 17.2245L14.9982 13.272C14.9982 13.272 16.5331 11.4855 18.3151 11.508L19.475 19.383L18.8227 24.372L17.815 28.3275L11.2941 26.94L13.3397 18.2325L10.5455 19.5795C10.0859 19.8013 9.69657 20.1448 9.42024 20.5725L6.98301 24.351C6.92204 24.4459 6.82757 24.5145 6.71825 24.5434C6.60892 24.5723 6.4927 24.5593 6.39253 24.507L4.66929 23.6085C4.61503 23.5804 4.56706 23.5417 4.52828 23.4946C4.4895 23.4475 4.46072 23.3931 4.44368 23.3346C4.42664 23.2761 4.4217 23.2148 4.42915 23.1544C4.4366 23.0939 4.45629 23.0356 4.48702 22.983Z" fill="#E46047"/>
<path d="M19.0169 10.6533C19.0169 10.6533 17.2851 10.3334 16.8653 11.7096C16.8653 11.7096 16.5084 12.7885 17.8051 13.4177C17.9967 13.51 18.1515 13.6526 18.2482 13.826C18.345 13.9995 18.379 14.1952 18.3456 14.3864L18.2436 14.9583C18.1053 15.7478 18.1834 16.5553 18.4713 17.3123C18.9795 18.6582 19.6763 21.0409 19.214 23.099L17.5298 28.2536L18.2096 28.326L20.0213 22.1771C20.4343 20.7727 20.4716 19.3021 20.1301 17.8826L18.8452 12.5576C18.8452 12.5576 18.473 11.3323 19.0169 10.6533Z" fill="#757575"/>
<path d="M1.8238 41.6152C1.8238 41.6152 0.915843 41.5196 0.291532 41.9267C0.171911 42.005 0.0815053 42.1225 0.0349355 42.2602C-0.0116344 42.3978 -0.0116454 42.5476 0.034904 42.6853C0.389081 43.7491 1.52065 46.7464 3.38007 47.9722C3.38007 47.9722 5.40158 49.4014 3.99838 45.6779C3.99838 45.6779 3.45961 44.187 3.51364 43.4592C3.51364 43.4592 2.57417 43.3667 2.39708 44.3119C2.39858 44.3103 1.32855 42.9674 1.8238 41.6152ZM29.8383 46.7834C29.8383 46.7834 29.6987 47.6931 30.0469 48.3545C30.1184 48.4868 30.2328 48.5891 30.3702 48.6437C30.5075 48.6984 30.6591 48.7019 30.7987 48.6536C31.8493 48.299 34.7142 47.1982 35.9943 45.3742C35.9943 45.3742 37.4936 43.3775 33.7972 44.6141C33.7972 44.6141 32.3175 45.0458 31.6136 44.9502C31.6136 44.9502 31.4741 45.9493 32.382 46.1821C32.3835 46.1821 31.1259 47.3662 29.8383 46.7834Z" fill="#565656"/>
<path d="M1.75356 65.5043C1.3618 65.5057 0.98091 65.3755 0.672082 65.1344C0.363254 64.8934 0.144412 64.5555 0.0507084 64.1751C-0.0429949 63.7947 -0.00612013 63.3939 0.155409 63.037C0.316939 62.6801 0.593747 62.3878 0.941369 62.2071L23.974 50.1255C24.3663 49.9195 24.8222 49.8703 25.2493 49.9879C25.6765 50.1055 26.043 50.3811 26.2745 50.7588L28.9889 55.182L46.5174 42.4446C46.8928 42.1863 47.3544 42.0849 47.8035 42.1619C48.2527 42.2389 48.6541 42.4883 48.9221 42.8569C49.19 43.2255 49.3035 43.6842 49.2382 44.1352C49.1729 44.5863 48.9341 44.994 48.5726 45.2715L29.5143 59.1226C29.3193 59.2646 29.0971 59.3647 28.8616 59.4165C28.6261 59.4683 28.3823 59.4708 28.1458 59.4238C27.9093 59.3768 27.6851 59.2812 27.4873 59.1432C27.2895 59.0053 27.1225 58.8278 26.9967 58.622L24.1495 53.9817L2.5635 65.3029C2.314 65.4351 2.03593 65.5042 1.75356 65.5043Z" fill="#51B7E3"/>
<path d="M48.9911 48.2107L43.7152 41.1991C43.5791 41.0175 43.494 40.8029 43.4688 40.5774C43.4436 40.3519 43.4792 40.1237 43.572 39.9167C43.6647 39.7096 43.8112 39.5311 43.9963 39.3997C44.1813 39.2684 44.3981 39.189 44.6242 39.1697L52.6268 38.5004C52.8383 38.483 53.0508 38.5188 53.2449 38.6046C53.439 38.6903 53.6085 38.8233 53.738 38.9914C53.8675 39.1595 53.9529 39.3574 53.9864 39.5669C54.0198 39.7765 54.0002 39.9911 53.9295 40.1911L51.2027 47.8721C51.1259 48.0883 50.9919 48.2797 50.815 48.4259C50.6381 48.5721 50.4249 48.6677 50.1981 48.7024C49.9713 48.7371 49.7392 48.7098 49.5267 48.6232C49.3142 48.5366 49.1291 48.394 48.9911 48.2107Z" fill="#51B7E3"/>
</svg>
