<svg width="405" height="387" viewBox="0 0 405 387" fill="none" xmlns="http://www.w3.org/2000/svg">
<g opacity="0.08" clip-path="url(#clip0_9952_389)">
<path d="M75.1484 108.277H45.4062V141.003H75.1484V108.277Z" fill="#FFD9AA"/>
<path d="M95.0336 83.453C95.0205 91.0221 92.3009 98.3597 87.3255 104.249C82.3502 110.139 75.4179 114.228 67.6777 115.837C59.9376 117.446 51.8544 116.479 44.768 113.097C37.6817 109.714 32.0176 104.12 28.7149 97.2399C26.6267 92.9178 25.5471 88.2135 25.5508 83.453C25.5529 75.8739 28.272 68.5241 33.2553 62.6276C38.2385 56.7311 45.1852 52.6437 52.9386 51.046C60.6921 49.4483 68.7843 50.4367 75.8678 53.8467C82.9513 57.2566 88.5987 62.8824 91.8695 69.7871V69.908C93.9564 74.1449 95.0368 78.7703 95.0336 83.453Z" fill="#FFD9AA"/>
<path d="M91.8695 69.7871V69.908L45.4211 78.7364V97.7236H29.0945L28.7149 97.2399C26.6267 92.9178 25.5471 88.2135 25.5508 83.453C25.5529 75.8739 28.272 68.5241 33.2553 62.6276C38.2385 56.7311 45.1852 52.6437 52.9386 51.046C60.6921 49.4483 68.7843 50.4367 75.8678 53.8467C82.9514 57.2567 88.5987 62.8824 91.8695 69.7871Z" fill="#57565D"/>
<path d="M56.2339 248.301L75.2183 268.195L66.7892 332.8C66.7115 333.199 66.6776 333.604 66.688 334.01C66.678 336.432 67.5976 338.774 69.2728 340.593C70.948 342.411 73.2626 343.58 75.7787 343.878C78.2948 344.176 80.8379 343.582 82.9269 342.21C85.0159 340.837 86.506 338.78 87.1151 336.428L103.378 275.137C104.387 271.306 104.144 267.271 102.682 263.576L85.0775 220.824H35.5156L56.2339 248.301Z" fill="#416FB3"/>
<path d="M17.4272 343.975C15.979 343.973 14.5481 343.674 13.231 343.099C11.914 342.523 10.7414 341.685 9.79255 340.639C8.84366 339.594 8.14051 338.366 7.73055 337.039C7.32059 335.711 7.21337 334.316 7.41612 332.945L25.5905 220.824H65.2552L27.2864 336.344C26.799 338.499 25.5559 340.43 23.7629 341.818C21.9699 343.206 19.7346 343.967 17.4272 343.975Z" fill="#416FB3"/>
<path d="M144.52 178.134C144.53 180.001 144.154 181.851 143.415 183.579C142.676 185.307 141.588 186.878 140.212 188.204C138.837 189.529 137.202 190.582 135.4 191.303C133.598 192.024 131.665 192.399 129.712 192.405H104.906L85.0352 178.134V220.825H25.5508V154.551C25.5442 152.056 26.0536 149.584 27.0498 147.278C28.046 144.971 29.5094 142.876 31.3558 141.111C33.2023 139.347 35.3954 137.948 37.8092 136.997C40.223 136.045 42.8099 135.558 45.4212 135.564H68.2024C70.5828 135.532 72.947 135.943 75.1633 136.774C77.1068 137.501 78.9376 138.477 80.6055 139.676L112.373 163.985H129.712C131.659 163.977 133.588 164.337 135.388 165.045C137.189 165.754 138.824 166.796 140.201 168.111C141.578 169.427 142.668 170.99 143.409 172.71C144.151 174.43 144.528 176.274 144.52 178.134Z" fill="#82C8EC"/>
<path d="M144.534 178.134C144.544 180.001 144.169 181.851 143.43 183.579C142.691 185.306 141.603 186.878 140.227 188.204C138.852 189.529 137.216 190.582 135.415 191.303C133.613 192.024 131.68 192.398 129.727 192.405H120.361L120.234 192.284V165.678L120.741 163.985H129.727C131.673 163.977 133.603 164.337 135.403 165.045C137.204 165.754 138.839 166.795 140.216 168.111C141.593 169.427 142.683 170.99 143.424 172.71C144.165 174.43 144.543 176.274 144.534 178.134Z" fill="#FFD9AA"/>
<path d="M335.391 241.875V300.082H234.141V321.996L145.547 320.484V344.672H6.32812V380.953H94.9219H196.172H297.422H398.672V336.738V241.875H335.391Z" fill="#D9D8DA"/>
<path d="M241.219 96.9023H270.961V64.1767H241.219V96.9023Z" fill="#FFD9AA"/>
<path d="M221.328 39.3514C221.341 46.9206 224.061 54.2582 229.036 60.1479C234.012 66.0377 240.944 70.1259 248.684 71.735C256.424 73.3441 264.507 72.3774 271.594 68.9951C278.68 65.6128 284.344 60.0181 287.647 53.1383C289.735 48.8162 290.815 44.1119 290.811 39.3514C290.809 31.7723 288.09 24.4226 283.106 18.5261C278.123 12.6296 271.177 8.54214 263.423 6.94444C255.67 5.34673 247.577 6.33516 240.494 9.74512C233.41 13.1551 227.763 18.7808 224.492 25.6855V25.8064C222.405 30.0433 221.325 34.6688 221.328 39.3514Z" fill="#FFD9AA"/>
<path d="M224.492 25.6855V25.8064L270.941 34.6349V53.6221H287.28L287.66 53.1383C289.748 48.8162 290.827 44.1119 290.824 39.3514C290.821 31.7723 288.102 24.4226 283.119 18.5261C278.136 12.6296 271.189 8.54214 263.436 6.94444C255.682 5.34673 247.59 6.33516 240.507 9.74512C233.423 13.1551 227.763 18.7808 224.492 25.6855Z" fill="#57565D"/>
<path d="M260.143 204.194L241.159 224.088L249.588 288.693C249.665 289.092 249.699 289.497 249.689 289.902C249.699 292.325 248.779 294.667 247.104 296.486C245.429 298.304 243.114 299.473 240.598 299.771C238.082 300.069 235.539 299.475 233.45 298.102C231.361 296.73 229.871 294.673 229.262 292.321L212.998 231.03C211.99 227.199 212.233 223.164 213.695 219.469L231.236 176.645H280.811L260.143 204.194Z" fill="#416FB3"/>
<path d="M298.976 299.908C300.425 299.907 301.856 299.608 303.173 299.032C304.49 298.457 305.662 297.618 306.611 296.573C307.56 295.527 308.263 294.3 308.673 292.972C309.083 291.645 309.19 290.249 308.987 288.879L290.813 176.758H251.148L289.117 292.277C289.605 294.432 290.848 296.364 292.641 297.752C294.434 299.139 296.669 299.9 298.976 299.908Z" fill="#416FB3"/>
<path d="M171.848 134.068C171.838 135.934 172.213 137.784 172.952 139.512C173.691 141.24 174.78 142.812 176.155 144.137C177.53 145.463 179.166 146.516 180.968 147.237C182.769 147.958 184.702 148.332 186.656 148.338H211.462L231.332 134.068V176.759H290.817V110.485C290.823 107.99 290.314 105.518 289.318 103.211C288.321 100.905 286.858 98.8092 285.012 97.0448C283.165 95.2804 280.972 93.8821 278.558 92.9301C276.144 91.9782 273.558 91.4914 270.946 91.4978H248.165C245.785 91.466 243.42 91.8767 241.204 92.7072C239.261 93.4344 237.43 94.4108 235.762 95.6097L203.995 119.918H186.656C184.709 119.91 182.779 120.271 180.979 120.979C179.179 121.687 177.543 122.729 176.166 124.045C174.79 125.36 173.699 126.923 172.958 128.644C172.217 130.364 171.839 132.207 171.848 134.068Z" fill="#ED456A"/>
<path d="M171.848 134.068C171.838 135.934 172.213 137.784 172.952 139.512C173.691 141.24 174.78 142.812 176.155 144.137C177.53 145.463 179.166 146.516 180.968 147.237C182.769 147.958 184.702 148.332 186.656 148.338H196.021L196.148 148.217V121.611L195.642 119.918H186.656C184.709 119.91 182.779 120.271 180.979 120.979C179.179 121.687 177.543 122.729 176.166 124.045C174.79 125.36 173.699 126.923 172.958 128.643C172.217 130.364 171.839 132.207 171.848 134.068Z" fill="#FFD9AA"/>
<path d="M398.672 235.842H335.391C333.712 235.842 332.103 236.479 330.916 237.613C329.729 238.747 329.062 240.285 329.062 241.889V294.049H314.85C315.401 292.042 315.534 289.95 315.242 287.894L297.143 176.22V110.369C297.133 104.804 295.177 99.4013 291.586 95.0193C287.995 90.6372 282.976 87.5269 277.324 86.182V72.7216C284.17 68.7463 289.652 62.9453 293.093 56.0323L293.207 55.8388C295.781 50.6774 297.13 45.0362 297.156 39.3187C297.181 30.4468 294.048 21.8305 288.271 14.885C282.494 7.93952 274.417 3.0779 265.367 1.09868C256.316 -0.880538 246.83 0.140339 238.467 3.99362C230.104 7.84691 223.361 14.3035 219.345 22.3028C219.27 22.3995 219.232 22.5205 219.156 22.6293C214.73 31.3472 213.895 41.3358 216.816 50.6144C219.737 59.8929 226.201 67.7836 234.925 72.7216V88.891C233.857 89.4698 232.834 90.1205 231.863 90.8381L201.842 113.816H186.654C181.032 113.816 175.64 115.95 171.664 119.749C167.689 123.548 165.455 128.701 165.455 134.073C165.455 139.446 167.689 144.598 171.664 148.397C175.64 152.196 181.032 154.33 186.654 154.33H211.435C212.805 154.33 214.137 153.906 215.232 153.121L224.94 146.167V175.555L207.866 217.339C205.948 222.203 205.625 227.509 206.942 232.553L223.218 293.892C224.032 296.664 225.62 299.173 227.812 301.148V315.879L145.661 314.452C144.814 314.387 143.964 314.511 143.175 314.813C142.387 315.115 141.683 315.588 141.117 316.193C140.518 316.754 140.041 317.424 139.715 318.163C139.389 318.903 139.221 319.696 139.219 320.498V338.639H92.8842C92.9602 338.409 93.1247 338.216 93.188 337.974L109.451 276.671C110.764 271.617 110.433 266.301 108.502 261.433L91.4034 219.685V190.297L101.111 197.251C102.206 198.036 103.538 198.46 104.908 198.46H129.689C132.473 198.46 135.229 197.936 137.801 196.918C140.373 195.9 142.71 194.408 144.679 192.527C146.647 190.646 148.209 188.413 149.274 185.955C150.339 183.498 150.888 180.864 150.888 178.203C150.888 175.543 150.339 172.909 149.274 170.451C148.209 167.994 146.647 165.76 144.679 163.879C142.71 161.998 140.373 160.506 137.801 159.488C135.229 158.47 132.473 157.946 129.689 157.946H114.577L84.5437 134.968C83.5755 134.26 82.5563 133.617 81.4936 133.045V116.852C90.216 111.918 96.6797 104.033 99.603 94.7587C102.526 85.4848 101.696 75.4998 97.2759 66.7836C97.2 66.6627 97.162 66.5417 97.0734 66.4329C92.4178 57.0751 84.0625 49.8679 73.8458 46.3967C63.629 42.9255 52.3876 43.4747 42.5946 47.9234C32.8016 52.3722 25.2591 60.3561 21.6265 70.1187C17.9938 79.8814 18.5686 90.6232 23.2242 99.9809L23.3128 100.138C26.7538 107.062 32.2401 112.872 39.0952 116.852V130.348C33.4434 131.693 28.4237 134.804 24.8329 139.186C21.2422 143.568 19.2862 148.97 19.2755 154.536V220.374L1.15172 332.096C0.77805 334.828 1.16212 337.606 2.26547 340.151C1.56449 340.703 0.998457 341.395 0.607097 342.179C0.215736 342.962 0.00852431 343.818 0 344.686L0 380.967C0 382.571 0.666711 384.109 1.85346 385.243C3.04022 386.377 4.6498 387.014 6.32812 387.014H398.672C400.35 387.014 401.96 386.377 403.147 385.243C404.333 384.109 405 382.571 405 380.967V241.889C405 240.285 404.333 238.747 403.147 237.613C401.96 236.479 400.35 235.842 398.672 235.842ZM189.844 142.224H186.718C185.027 142.225 183.373 141.747 181.967 140.849C180.561 139.951 179.465 138.675 178.818 137.182C178.172 135.689 178.004 134.046 178.335 132.461C178.667 130.876 179.483 129.421 180.681 128.28C181.466 127.515 182.404 126.907 183.438 126.491C184.472 126.076 185.583 125.862 186.705 125.862H189.844V142.224ZM126.562 170.04H129.689C131.954 170.04 134.127 170.9 135.729 172.431C137.332 173.962 138.232 176.038 138.232 178.203C138.232 180.368 137.332 182.445 135.729 183.976C134.127 185.507 131.954 186.367 129.689 186.367H126.562V170.04ZM302.725 289.659C302.801 290.172 302.761 290.694 302.608 291.19C302.455 291.687 302.193 292.146 301.839 292.538C301.289 292.954 300.638 293.232 299.947 293.346C299.256 293.461 298.546 293.41 297.881 293.196C297.216 292.982 296.617 292.613 296.139 292.122C295.661 291.631 295.319 291.034 295.144 290.385L259.782 182.751H285.386L302.725 289.659ZM255.897 287.906L247.822 226.046L257.39 215.996L282.855 293.469C282.855 293.674 283.044 293.832 283.095 294.037H255.213C255.708 292.696 256.006 291.296 256.099 289.877C256.12 289.221 256.069 288.564 255.947 287.918L255.897 287.906ZM256.061 12.1682C259.794 12.1651 263.491 12.8651 266.94 14.2282C270.39 15.5914 273.524 17.591 276.164 20.1126C278.804 22.6342 280.898 25.6284 282.327 28.924C283.755 32.2195 284.489 35.7518 284.487 39.3187C284.45 42.0996 283.959 44.8579 283.032 47.4941H277.324V34.578C277.324 33.184 276.82 31.8327 275.898 30.7528C274.975 29.673 273.691 28.9308 272.261 28.652L234.887 21.5651C237.52 18.647 240.776 16.3024 244.438 14.6897C248.099 13.077 252.08 12.2337 256.112 12.2166L256.061 12.1682ZM227.749 39.3187C227.778 37.0925 228.097 34.8784 228.698 32.7276L264.668 39.5364V53.541C264.668 55.1447 265.334 56.6827 266.521 57.8167C267.708 58.9508 269.317 59.5878 270.996 59.5878H274.793C270.721 63.0696 265.679 65.347 260.278 66.1437C254.878 66.9403 249.352 66.2219 244.371 64.0757C239.39 61.9295 235.168 58.4478 232.217 54.0531C229.266 49.6585 227.714 44.5399 227.749 39.3187ZM264.668 77.6438V85.3717H248.214C247.999 85.3717 247.797 85.3717 247.594 85.3717V77.6438C253.223 78.8206 259.039 78.8206 264.668 77.6438ZM209.398 142.224H202.5V125.898H204.057C205.496 125.902 206.893 125.437 208.018 124.58L239.773 100.295C242.173 98.4724 245.148 97.4793 248.214 97.4775H270.996C274.572 97.4839 278 98.8442 280.528 101.261C283.057 103.677 284.48 106.952 284.487 110.369V170.633H237.659V138.79C237.621 138.287 237.515 137.791 237.343 137.314L254.947 124.688C256.29 123.726 257.178 122.294 257.415 120.706C257.652 119.119 257.22 117.506 256.213 116.223C255.206 114.94 253.707 114.092 252.046 113.865C250.384 113.638 248.696 114.051 247.354 115.013L209.398 142.224ZM219.232 229.602C218.541 226.991 218.695 224.242 219.675 221.717L235.659 182.738H246.518L253.062 202.657L236.609 219.975C235.992 220.623 235.53 221.391 235.255 222.226C234.979 223.062 234.897 223.944 235.014 224.813L243.494 289.913C243.49 290.947 243.058 291.938 242.292 292.668C241.526 293.398 240.488 293.807 239.406 293.807C238.519 293.779 237.666 293.481 236.969 292.957C236.273 292.432 235.769 291.709 235.533 290.893L219.232 229.602ZM96.7191 265.81C97.7121 268.34 97.8754 271.099 97.1873 273.72L81 335.011C80.6657 335.877 80.0209 336.603 79.1801 337.058C78.3393 337.513 77.3569 337.669 76.4072 337.498C75.4574 337.327 74.6018 336.84 73.9922 336.124C73.3826 335.407 73.0584 334.507 73.0772 333.584L81.5062 268.979C81.6229 268.11 81.5407 267.228 81.2653 266.393C80.99 265.558 80.5281 264.789 79.9116 264.142L63.4584 246.823L70.0017 226.893H80.8608L96.7191 265.81ZM61.2816 338.639H33.1341C33.1341 338.47 33.3112 338.325 33.3492 338.143L58.9655 260.151L68.5336 270.188L60.5348 331.6C60.371 332.397 60.2946 333.208 60.307 334.019C60.3838 335.598 60.7124 337.155 61.2816 338.639ZM88.657 83.4609C88.6849 88.6765 87.1295 93.7879 84.1792 98.1759C81.229 102.564 77.0104 106.041 72.0346 108.184C67.0587 110.328 61.5391 111.047 56.1443 110.254C50.7495 109.462 45.711 107.191 41.6391 103.718H45.4359C47.1143 103.718 48.7238 103.081 49.9106 101.947C51.0974 100.813 51.7641 99.2748 51.7641 97.671V83.6907L87.7331 76.8819C88.3254 79.0298 88.6357 81.2398 88.657 83.4609ZM68.8373 121.786V129.586C68.6222 129.586 68.4197 129.586 68.2172 129.586H51.7641V121.846C57.3928 123.023 63.2213 123.023 68.85 121.846L68.8373 121.786ZM33.3998 91.6363C32.4637 89.0015 31.9641 86.2431 31.9191 83.4609C31.8957 77.9436 33.6422 72.5519 36.9234 68.012C40.2046 63.4721 44.8629 60.0021 50.271 58.0691C55.679 56.1362 61.577 55.8332 67.1708 57.201C72.7645 58.5688 77.7852 61.5417 81.5569 65.7194L44.183 72.8063C42.7536 73.0851 41.469 73.8272 40.5464 74.9071C39.6239 75.987 39.1202 77.3382 39.1205 78.7322V91.6242L33.3998 91.6363ZM31.9444 154.524C31.9511 151.107 33.3746 147.831 35.9034 145.415C38.4321 142.999 41.8598 141.638 45.4359 141.632H68.2172C71.2793 141.634 74.2503 142.628 76.6463 144.45L108.401 168.722C109.526 169.579 110.923 170.044 112.362 170.04H113.906V186.355H107.021L69.0525 159.144C68.3877 158.667 67.6312 158.32 66.8261 158.123C66.0211 157.926 65.1834 157.883 64.3607 157.995C62.6992 158.222 61.2001 159.07 60.1931 160.353C59.1861 161.636 58.7537 163.249 58.9911 164.836C59.2285 166.424 60.1161 167.856 61.4587 168.819L79.0636 181.42C78.8906 181.901 78.7842 182.401 78.7472 182.908V214.751H31.9191L31.9444 154.524ZM31.0458 226.869H56.6367L21.1233 335.011C20.4272 338.095 15.4786 337.635 14.5673 336.644C14.2197 336.26 13.9601 335.811 13.8053 335.326C13.6505 334.84 13.604 334.329 13.6688 333.826L31.0458 226.869ZM392.344 374.92H12.6562V350.733H145.547C147.225 350.733 148.835 350.096 150.022 348.962C151.208 347.828 151.875 346.29 151.875 344.686V326.654L234.027 328.057C235.71 328.011 237.32 327.393 238.57 326.315C239.17 325.754 239.646 325.084 239.972 324.345C240.298 323.606 240.467 322.812 240.469 322.01V306.143H335.391C337.069 306.143 338.679 305.506 339.865 304.372C341.052 303.238 341.719 301.7 341.719 300.096V247.936H392.344V374.92Z" fill="black"/>
</g>
<defs>
<clipPath id="clip0_9952_389">
<rect width="405" height="387" fill="white"/>
</clipPath>
</defs>
</svg>
