<svg width="445" height="446" viewBox="0 0 445 446" fill="none" xmlns="http://www.w3.org/2000/svg">
<path opacity="0.2" d="M41.1602 260.196V377.856C41.1593 378.922 41.3674 379.978 41.7724 380.963C42.1774 381.948 42.7715 382.844 43.5205 383.598C44.2696 384.352 45.159 384.949 46.1379 385.357C47.1167 385.765 48.1658 385.974 49.2252 385.973H55.5531C56.6125 385.974 57.6617 385.765 58.6406 385.358C59.6196 384.95 60.509 384.352 61.2582 383.598C62.0073 382.844 62.6013 381.949 63.0062 380.963C63.4112 379.978 63.6191 378.922 63.6181 377.856V260.196C63.6173 258.043 62.7673 255.979 61.255 254.457C59.7427 252.934 57.6918 252.079 55.5531 252.078H49.2252C47.0865 252.079 45.0356 252.934 43.5233 254.457C42.0109 255.979 41.161 258.043 41.1602 260.196Z" fill="#4BDBC3"/>
<path opacity="0.05" d="M338.508 139.335C313.217 113.878 272.211 113.878 246.919 139.335L234.43 151.906L221.94 139.335C196.649 113.878 155.643 113.878 130.351 139.335C105.06 164.792 105.06 206.065 130.351 231.522L142.841 244.093L226.794 328.595C227.797 329.605 228.988 330.406 230.298 330.952C231.609 331.498 233.013 331.78 234.431 331.78C235.85 331.78 237.254 331.498 238.564 330.952C239.875 330.406 241.065 329.605 242.068 328.595L326.022 244.093L338.511 231.522C363.8 206.065 363.8 164.792 338.508 139.335Z" fill="#FF4A73"/>
<path opacity="0.2" d="M245.374 325.238L242.037 328.597C237.822 332.839 230.986 332.839 226.757 328.597L142.816 244.093L130.316 231.511C117.669 218.782 111.348 202.106 111.348 185.429C111.348 168.738 117.671 152.061 130.316 139.331C145.773 123.773 167.084 117.734 187.091 121.182C173.894 123.447 161.724 129.79 152.27 139.331C139.624 152.061 133.302 168.736 133.302 185.429C133.302 202.106 139.625 218.783 152.27 231.511L164.771 244.093L245.374 325.238Z" fill="#F973A3"/>
<path opacity="0.2" d="M338.518 231.511L326.033 244.093L242.078 328.597C237.863 332.839 231.027 332.839 226.798 328.597L223.461 325.238L304.079 244.093L316.564 231.511C341.855 206.054 341.855 164.788 316.564 139.331C307.11 129.79 294.94 123.447 281.743 121.181C301.75 117.734 323.062 123.775 338.518 139.331C363.809 164.788 363.809 206.054 338.518 231.511Z" fill="#EA2A6A"/>
<path opacity="0.2" d="M115.816 267.966C119.168 267.657 122.533 267.502 125.9 267.499C137.943 267.499 150.021 269.454 161.637 273.399C166.238 274.949 170.732 276.806 175.088 278.957L245.333 313.547L362.878 249.352C368.061 246.357 374.214 245.556 379.983 247.126C385.753 248.697 390.667 252.509 393.644 257.726C399.844 268.575 395.258 280.058 385.325 288.676L269.116 395.836C269.045 395.89 268.973 395.961 268.902 396.016C257.553 404.73 242.41 406.631 229.049 401.557L135.127 365.856C124.902 362.391 113.986 361.516 103.345 363.309C97.2322 364.335 91.2943 366.224 85.707 368.922V275.05C95.3709 271.303 105.503 268.919 115.816 267.966Z" fill="#FFBB98"/>
<path opacity="0.2" d="M115.814 267.963C119.167 267.654 122.532 267.499 125.898 267.496C137.941 267.496 150.019 269.451 161.636 273.396C166.237 274.946 170.73 276.803 175.086 278.954L245.332 313.544L256.466 319.031C263.752 322.725 267.958 330.148 267.958 337.824C267.958 341.016 267.245 344.262 265.712 347.292C260.51 357.675 247.95 361.852 237.635 356.616L151.395 314.155C151.395 314.155 126.408 302.869 95.754 305.034L85.707 305.846V275.046C95.3703 271.299 105.502 268.916 115.814 267.963Z" fill="#FFCAA6"/>
<g opacity="0.08">
<path d="M197.039 206.897L205.747 188.35L225.397 268.306C226.917 274.496 235.643 274.621 237.318 268.452L255.444 201.723L259.927 212.767C260.39 213.907 261.179 214.882 262.195 215.569C263.211 216.256 264.406 216.622 265.63 216.622H314.419C316.053 216.622 317.619 215.969 318.775 214.806C319.93 213.643 320.579 212.066 320.579 210.422C320.579 208.777 319.93 207.2 318.775 206.038C317.619 204.875 316.053 204.222 314.419 204.222H269.768L259.99 180.13C257.765 174.649 249.889 175.153 248.345 180.84L231.676 242.209L213.55 168.464C212.164 162.822 204.472 162.039 202 167.303L187.567 198.048H154.39C152.757 198.048 151.19 198.701 150.035 199.864C148.879 201.026 148.23 202.603 148.23 204.248C148.23 205.892 148.879 207.469 150.035 208.632C151.19 209.795 152.757 210.448 154.39 210.448H191.469C192.637 210.448 193.78 210.115 194.766 209.486C195.752 208.857 196.541 207.959 197.039 206.897ZM198.228 259.08C197.065 257.926 195.497 257.282 193.864 257.288C192.231 257.294 190.667 257.949 189.512 259.111C188.366 260.282 187.726 261.861 187.731 263.504C187.737 265.148 188.388 266.722 189.543 267.885L191.314 269.652C193.71 272.064 197.649 272.048 200.03 269.621C200.601 269.043 201.053 268.357 201.361 267.604C201.668 266.85 201.825 266.042 201.822 265.227C201.819 264.413 201.657 263.606 201.344 262.855C201.031 262.103 200.574 261.421 199.999 260.847L198.228 259.08ZM181.827 242.711L166.52 227.428C165.946 226.853 165.265 226.398 164.516 226.088C163.767 225.779 162.965 225.621 162.155 225.624C161.345 225.627 160.544 225.79 159.798 226.105C159.051 226.42 158.373 226.88 157.803 227.459C156.657 228.629 156.017 230.208 156.023 231.852C156.028 233.495 156.68 235.07 157.834 236.232L173.142 251.516C174.303 252.673 175.872 253.319 177.506 253.313C179.14 253.307 180.705 252.65 181.858 251.485C182.429 250.907 182.881 250.222 183.189 249.468C183.496 248.714 183.653 247.907 183.65 247.092C183.647 246.277 183.485 245.47 183.172 244.719C182.859 243.967 182.402 243.285 181.827 242.711Z" fill="#5F266D"/>
<path d="M359.895 243.897L305.225 273.751L342.847 235.883C370.515 208.034 370.498 162.758 342.847 134.926C315.204 107.103 270.205 107.103 242.547 134.926L234.416 143.111L226.284 134.926C198.626 107.103 153.642 107.103 125.984 134.926C98.3251 162.766 98.3251 208.059 125.984 235.883L154.828 264.931C134.094 259.667 112.329 260.171 91.8571 266.388V260.203C91.8571 252.313 85.4814 245.896 77.6274 245.896H49.2297C41.391 245.896 35 252.313 35 260.203V377.838C35 385.744 41.391 392.161 49.2297 392.161H77.6274C85.4814 392.161 91.8571 385.744 91.8571 377.838V372.971C105.055 367.608 119.531 367.127 133.037 371.7L226.854 407.336C242.525 413.323 260.017 410.602 272.577 400.965C273.178 400.516 385.013 297.343 389.34 293.344C402.369 282.416 406.142 267.241 398.95 254.639C391.065 240.858 373.494 236.069 359.895 243.897ZM79.537 377.838C79.537 378.908 78.69 379.76 77.6274 379.76H49.2297C48.1825 379.76 47.3201 378.908 47.3201 377.838V260.203C47.3201 259.149 48.1825 258.297 49.2297 258.297H77.6274C78.69 258.297 79.537 259.149 79.537 260.203V377.838ZM134.7 227.125C111.846 204.122 111.846 166.703 134.7 143.7C157.597 120.653 194.788 120.74 217.568 143.7L230.057 156.271C231.214 157.432 232.782 158.084 234.416 158.084C236.049 158.084 237.617 157.432 238.774 156.271L251.263 143.7C274.117 120.697 311.293 120.697 334.146 143.7C357.1 166.835 356.982 204.109 334.146 227.125L267.156 294.553L245.149 306.566L183.426 276.169L134.7 227.125ZM381.348 283.904C381.218 284.008 265.065 391.115 264.938 391.231C255.514 398.346 242.608 400.082 231.197 395.742L137.087 359.981C122.431 354.982 106.559 354.906 91.8571 359.764V279.393C118.268 270.356 147.374 272.154 172.353 284.524C173.893 285.28 243.837 319.707 253.666 324.562C261.412 328.721 263.663 337.634 260.18 344.496C259.31 346.245 258.103 347.804 256.631 349.081C255.159 350.358 253.45 351.329 251.602 351.937C249.755 352.546 247.806 352.779 245.869 352.625C243.931 352.47 242.043 351.931 240.314 351.038L152.41 307.759C145.084 304.165 139.688 315.304 146.989 318.904L234.831 362.152C248.356 368.986 264.554 363.33 271.176 350.107C277.961 336.673 272.566 319.966 258.732 313.262C299.094 291.214 227.541 330.284 365.901 254.732C373.725 250.221 383.765 252.949 388.262 260.823C393.206 269.473 387.939 278.417 381.348 283.904Z" fill="#5F266D"/>
</g>
<path opacity="0.2" d="M41.1602 260.196V377.856C41.1593 378.922 41.3674 379.978 41.7724 380.963C42.1774 381.948 42.7715 382.844 43.5205 383.598C44.2696 384.352 45.159 384.949 46.1379 385.357C47.1167 385.765 48.1658 385.974 49.2252 385.973H77.6291C78.6885 385.974 79.7377 385.765 80.7166 385.358C81.6956 384.95 82.5851 384.352 83.3342 383.598C84.0833 382.844 84.6773 381.949 85.0822 380.963C85.4872 379.978 85.6951 378.922 85.6941 377.856V260.196C85.6933 258.043 84.8433 255.979 83.331 254.457C81.8187 252.934 79.7678 252.079 77.6291 252.078H49.2236C47.0851 252.079 45.0343 252.935 43.5223 254.457C42.0102 255.979 41.1606 258.043 41.1602 260.196Z" fill="#3BB2A0"/>
</svg>
