<svg width="455" height="456" viewBox="0 0 455 456" fill="none" xmlns="http://www.w3.org/2000/svg">
<g opacity="0.1">
<path fill-rule="evenodd" clip-rule="evenodd" d="M433.907 282.266C444.476 270.899 454.997 259.586 454.997 244.124C454.997 228.662 444.476 217.348 433.907 205.981C426.293 197.79 418.651 189.573 414.894 179.76C411.311 170.386 412.236 159.146 413.15 148.033C414.302 134.093 415.433 120.354 407.623 110.757C396.251 96.7962 383.135 94.0272 368.609 90.9623C359.266 88.9859 349.337 86.8933 338.911 81.6196C329.584 76.9007 319.855 70.068 309.794 62.9975C288.974 48.3758 266.732 32.75 243.624 32.75C220.515 32.75 198.268 48.3758 177.453 62.9975C167.392 70.068 157.663 76.8954 148.336 81.6196C137.91 86.8933 127.981 88.9859 118.638 90.9623C104.106 94.0272 90.996 96.7962 79.6241 110.757C71.8138 120.354 72.9447 134.093 74.0967 148.033C75.0109 159.146 75.9356 170.386 72.3528 179.755C68.601 189.573 60.9545 197.79 53.3398 205.981C42.7711 217.348 32.25 228.662 32.25 244.124C32.25 259.586 42.7658 270.899 53.3398 282.266C60.9545 290.457 68.5957 298.674 72.3528 308.487C76.2474 318.675 76.1047 330.517 75.9726 342.201C75.7929 357.842 75.6133 373.194 85.0934 383.937C97.2632 397.729 115.283 400.292 133.852 402.934C145.943 404.656 158.266 406.411 169.363 411.32C179.651 415.865 188.64 423.685 197.618 431.496C211.431 443.512 225.208 455.497 243.624 455.497C262.039 455.497 275.816 443.512 289.629 431.496C298.607 423.685 307.596 415.865 317.884 411.32C328.981 406.411 341.305 404.662 353.395 402.934C371.964 400.292 389.984 397.723 402.154 383.937C411.634 373.194 411.454 357.837 411.274 342.206C411.137 330.517 411 318.675 414.894 308.492C418.651 298.674 426.293 290.457 433.907 282.266ZM243.624 386.801C322.424 386.801 386.301 322.924 386.301 244.124C386.301 165.323 322.424 101.446 243.624 101.446C164.823 101.446 100.946 165.323 100.946 244.124C100.946 322.924 164.823 386.801 243.624 386.801Z" fill="#FECD4E"/>
<path d="M403.368 293.776C405.326 288.67 408.554 283.882 412.564 279.03C415.348 275.729 418.227 272.51 421.2 269.379C422.707 267.76 424.237 266.114 425.792 264.394C434.729 254.527 443.872 242.944 443.872 227.436C443.872 211.928 434.729 200.345 425.792 190.478C424.273 188.805 422.742 187.144 421.2 185.493C418.227 182.361 415.348 179.143 412.564 175.842C408.554 170.99 405.321 166.202 403.368 161.096C401.681 156.683 401.109 151.54 401.146 145.725C401.173 141.212 401.548 136.603 401.945 131.788C402.067 130.344 402.189 128.878 402.3 127.386C403.226 115.211 403.792 101.052 395.247 90.56C384.844 77.7819 373.003 73.4696 360.96 70.6124C358.257 69.9812 355.546 69.3833 352.828 68.8187C343.579 66.861 334.499 64.9403 324.737 60.0037C317.917 56.5539 310.769 51.8554 303.186 46.6066C300.938 45.051 298.647 43.4425 296.318 41.8076C290.9 38.0033 285.297 34.0667 279.651 30.384C263.577 19.9023 245.762 10.5 226.936 10.5C208.11 10.5 190.295 19.9023 174.215 30.3893C168.575 34.0667 162.972 38.0033 157.548 41.8076C155.225 43.4478 152.934 45.051 150.686 46.6066C143.103 51.8607 135.955 56.5539 129.135 60.0037C119.373 64.9403 110.293 66.861 101.039 68.8187C98.3512 69.3902 95.6527 69.9616 92.9172 70.6071C80.8693 73.4644 69.0277 77.7819 58.6254 90.5547C50.0802 101.052 50.6464 115.211 51.5723 127.381C51.6835 128.873 51.8052 130.344 51.9268 131.788C52.3237 136.603 52.6994 141.207 52.7311 145.725C52.7628 151.545 52.1914 156.678 50.5035 161.096C48.5458 166.202 45.3182 170.99 41.3076 175.842C38.5238 179.143 35.6442 182.361 32.6725 185.493C31.1645 187.112 29.6354 188.758 28.0798 190.478C19.1431 200.345 10 211.928 10 227.436C10 242.944 19.1431 254.527 28.0798 264.394C29.6354 266.114 31.1645 267.76 32.6725 269.379C35.6831 272.612 38.5773 275.728 41.3076 279.03C45.3182 283.882 48.5511 288.67 50.5035 293.776C52.4983 298.993 53.3502 304.887 53.6676 311.358C53.8899 315.978 53.8369 320.618 53.7787 325.412C53.7576 327.422 53.7311 329.465 53.7258 331.539C53.7047 344.968 54.4666 359.862 64.234 370.931C75.6099 383.815 91.3245 387.762 106.521 390.233C109.949 390.794 113.341 391.276 116.685 391.757C128.68 393.471 140.066 395.096 150.442 399.683C156.363 402.302 161.961 406.191 167.628 410.752C170.977 413.451 174.067 416.144 177.242 418.906C179.655 421.006 182.11 423.144 184.76 425.361C196.396 435.07 209.713 444.372 226.936 444.372C244.159 444.372 257.476 435.07 269.106 425.361C271.762 423.144 274.217 421.006 276.63 418.906C279.805 416.144 282.895 413.456 286.244 410.758C291.911 406.186 297.509 402.302 303.43 399.683C313.806 395.096 325.192 393.471 337.187 391.757C340.531 391.281 343.923 390.794 347.351 390.233C362.553 387.762 378.267 383.815 389.638 370.931C399.405 359.862 400.167 344.968 400.141 331.539C400.141 329.465 400.114 327.422 400.088 325.412C400.035 320.618 399.982 315.978 400.204 311.358C400.522 304.887 401.374 298.993 403.368 293.776Z" stroke="black" stroke-width="19.0999"/>
<path d="M226.936 377.623C309.882 377.623 377.123 310.382 377.123 227.436C377.123 144.491 309.882 77.25 226.936 77.25C143.991 77.25 76.75 144.491 76.75 227.436C76.75 310.382 143.991 377.623 226.936 377.623Z" stroke="black" stroke-width="19.0999"/>
<path d="M165.75 299.749L299.249 166.25" stroke="black" stroke-width="19.0999" stroke-linecap="round" stroke-linejoin="round"/>
<path d="M277 299.75C289.288 299.75 299.25 289.788 299.25 277.5C299.25 265.212 289.288 255.25 277 255.25C264.712 255.25 254.75 265.212 254.75 277.5C254.75 289.788 264.712 299.75 277 299.75Z" stroke="black" stroke-width="19.0999" stroke-linecap="round" stroke-linejoin="round"/>
<path d="M176.871 199.621C189.159 199.621 199.121 189.659 199.121 177.371C199.121 165.083 189.159 155.121 176.871 155.121C164.583 155.121 154.621 165.083 154.621 177.371C154.621 189.659 164.583 199.621 176.871 199.621Z" stroke="black" stroke-width="19.0999" stroke-linecap="round" stroke-linejoin="round"/>
</g>
</svg>
