<svg width="357" height="453" viewBox="0 0 357 453" fill="none" xmlns="http://www.w3.org/2000/svg">
<g opacity="0.08">
<g clip-path="url(#clip0_9949_293)">
<path d="M182.502 248.47C156.938 234.314 135.491 215.507 120.037 193.597C102.441 168.651 93.1406 140.197 93.1406 111.309V42.2158C114.739 39.5319 135.745 33.2932 155.308 23.7525C165.107 18.9247 174.436 13.1947 183.173 6.63672C195.029 14.8796 207.738 21.8223 221.08 27.3447C237.373 34.106 254.425 38.8694 271.863 41.531V111.309C271.863 140.197 262.563 168.651 244.967 193.597C229.513 215.507 208.066 234.314 182.502 248.47Z" fill="#F8BE32"/>
<path d="M182.494 217.425C166.085 206.444 152.154 193.109 141.719 178.314C127.298 157.868 119.676 134.705 119.676 111.325V64.4123C136.068 60.6455 151.968 54.9922 167.059 47.5655C172.743 44.7561 178.273 41.7004 183.646 38.3984C192.419 43.4779 201.515 47.9772 210.877 51.8672C222.056 56.5127 233.567 60.3168 245.312 63.248V111.326C245.312 134.705 237.69 157.869 223.269 178.314C212.835 193.109 198.903 206.444 182.494 217.425Z" fill="#FDDD5A"/>
<path d="M210.881 51.8672C201.52 47.9772 192.423 43.478 183.65 38.3984C179.453 40.9778 175.15 43.4097 170.741 45.6942C175.189 47.8867 179.721 49.9443 184.337 51.8672C195.517 56.5127 207.028 60.3168 218.773 63.248V111.326C218.773 134.705 211.151 157.869 196.73 178.314C188.918 189.259 179.667 199.103 169.227 207.578C173.44 211.033 177.864 214.315 182.498 217.425C198.907 206.444 212.838 193.109 223.273 178.314C237.694 157.869 245.316 134.705 245.316 111.325V63.248C233.571 60.3168 222.06 56.5126 210.881 51.8672Z" fill="#FED030"/>
<path d="M308.271 242.494L296.923 185.356C296.509 183.268 296.518 181.118 296.951 179.034C297.384 176.95 298.231 174.974 299.442 173.224C300.654 171.474 302.205 169.986 304.003 168.847C305.801 167.708 307.81 166.942 309.91 166.595C313.686 165.971 317.56 166.732 320.82 168.738C324.079 170.743 326.505 173.858 327.65 177.51L349.191 246.171C352.671 257.266 352.413 269.196 348.455 280.129L332.688 323.686C329.327 332.974 323.44 341.14 315.691 347.265L305.863 355.034C302.611 357.604 300.005 360.901 298.256 364.66C296.507 368.419 295.663 372.535 295.792 376.679L296.604 402.906L224.613 404.058L308.271 242.494Z" fill="#FDD8AE"/>
<path d="M349.191 246.171L327.651 177.51C326.506 173.858 324.08 170.743 320.821 168.738C317.561 166.732 313.687 165.971 309.911 166.595C308.512 166.831 307.152 167.254 305.866 167.852C307.882 168.776 309.681 170.113 311.148 171.777C312.614 173.441 313.715 175.394 314.38 177.51L335.919 246.171C339.4 257.266 339.142 269.196 335.184 280.129L319.418 323.686C316.056 332.975 310.169 341.141 302.42 347.266L292.592 355.034C289.339 357.605 286.734 360.902 284.985 364.661C283.236 368.419 282.392 372.536 282.52 376.679L283.333 402.906L224.725 403.843L224.613 404.058L296.604 402.906L295.792 376.679C295.664 372.536 296.508 368.419 298.257 364.661C300.006 360.902 302.611 357.605 305.863 355.034L315.691 347.266C323.44 341.141 329.327 332.975 332.689 323.687L348.456 280.13C352.413 269.196 352.671 257.266 349.19 246.171H349.191Z" fill="#FBBF7D"/>
<path d="M221.394 403.149L216.442 361.201C215.763 355.442 216.349 349.605 218.161 344.097C219.972 338.589 222.965 333.542 226.929 329.311L308.266 242.508C313.542 245.329 317.482 250.131 319.219 255.856C320.955 261.582 320.346 267.763 317.525 273.04L298.726 308.211" fill="#FDD8AE"/>
<path d="M289.289 308.211C292.142 308.21 294.941 307.436 297.388 305.969C299.834 304.502 301.837 302.399 303.182 299.883L317.53 273.039C320.35 267.763 320.959 261.582 319.223 255.856C317.487 250.13 313.547 245.329 308.271 242.508L304.367 246.673C307.703 250.106 309.861 254.51 310.53 259.249C311.199 263.988 310.344 268.818 308.089 273.039L289.289 308.211Z" fill="#FBBF7D"/>
<path d="M322.551 438.587L204.195 452.987L200.806 418.083L199.311 405.617C198.915 402.28 199.86 398.923 201.939 396.283C204.018 393.643 207.061 391.938 210.397 391.541L302.802 380.454C306.139 380.052 309.498 380.991 312.143 383.065C314.787 385.139 316.5 388.178 316.905 391.514L318.294 403.131L322.551 438.587Z" fill="#2370B5"/>
<path d="M276.254 383.654C279.59 383.252 282.95 384.191 285.594 386.264C288.239 388.338 289.952 391.377 290.357 394.713L291.746 406.33L296.006 441.816L322.546 438.587L318.289 403.131L316.9 391.514C316.495 388.178 314.782 385.139 312.137 383.065C309.493 380.991 306.133 380.052 302.797 380.454L210.392 391.541C210.294 391.552 210.199 391.576 210.102 391.59L276.254 383.654Z" fill="#1067AE"/>
<path d="M318.294 403.131V403.14L200.806 418.083L199.311 405.617C198.915 402.28 199.86 398.923 201.939 396.283C204.018 393.643 207.061 391.938 210.397 391.541L302.802 380.454C306.139 380.052 309.498 380.991 312.143 383.065C314.787 385.139 316.5 388.178 316.905 391.514L318.294 403.131Z" fill="#1067AE"/>
<path d="M316.875 391.514C316.47 388.178 314.757 385.139 312.113 383.065C309.468 380.991 306.109 380.052 302.772 380.454L210.367 391.541C209.893 391.599 209.422 391.684 208.957 391.795L276.229 383.725C279.566 383.322 282.925 384.261 285.57 386.335C288.214 388.409 289.927 391.448 290.332 394.784L291.722 406.401V406.41L318.265 403.14V403.131L316.875 391.514Z" fill="#0A56A4"/>
<path d="M56.9087 242.494L68.2559 185.356C68.6705 183.268 68.6612 181.118 68.2284 179.034C67.7957 176.95 66.9485 174.974 65.737 173.224C64.5255 171.474 62.9746 169.986 61.1763 168.847C59.3781 167.708 57.3693 166.942 55.2693 166.595C51.4934 165.971 47.6192 166.732 44.3596 168.738C41.1 170.743 38.6743 173.858 37.5288 177.51L15.9883 246.171C12.5081 257.266 12.7667 269.196 16.7245 280.129L32.491 323.686C35.8527 332.974 41.7392 341.14 49.4882 347.265L59.3162 355.034C62.5688 357.604 65.1739 360.901 66.9228 364.66C68.6718 368.419 69.5159 372.535 69.3875 376.679L68.5753 402.906L140.566 404.058L56.9087 242.494Z" fill="#FDD8AE"/>
<path d="M59.3163 355.073L49.4892 347.305C41.7399 341.18 35.8531 333.014 32.4911 323.726L16.7246 280.169C12.7667 269.235 12.5081 257.305 15.9884 246.21L37.5289 177.549C38.6744 173.897 41.1 170.782 44.3594 168.777C47.6188 166.771 51.4927 166.011 55.2685 166.634C56.6673 166.87 58.0281 167.293 59.3145 167.891C57.2986 168.815 55.4991 170.152 54.0325 171.816C52.5659 173.48 51.4648 175.433 50.8004 177.549L29.2599 246.21C25.7798 257.305 26.0384 269.235 29.996 280.168L45.7626 323.725C49.1245 333.014 55.0112 341.18 62.7607 347.305L72.5878 355.073C75.8402 357.644 78.4453 360.941 80.1942 364.7C81.9431 368.458 82.7873 372.574 82.6591 376.718L81.8469 402.944L140.455 403.882L140.566 404.097L68.5754 402.944L69.3876 376.718" fill="#FBBF7D"/>
<path d="M143.761 403.149L148.712 361.201C149.392 355.442 148.805 349.605 146.994 344.097C145.182 338.589 142.19 333.542 138.225 329.311L56.8884 242.508C51.6119 245.329 47.6722 250.131 45.9358 255.856C44.1994 261.582 44.8086 267.763 47.6294 273.04L66.4289 308.211" fill="#FDD8AE"/>
<path d="M75.8698 308.211C73.0172 308.21 70.2181 307.436 67.7713 305.969C65.3245 304.502 63.3219 302.399 61.9772 299.883L47.629 273.039C44.8085 267.763 44.1995 261.582 45.9359 255.856C47.6722 250.13 51.6118 245.329 56.8881 242.508L60.7916 246.673C57.456 250.106 55.2979 254.51 54.6292 259.249C53.9604 263.989 54.8156 268.818 57.0712 273.039L75.8698 308.211Z" fill="#FBBF7D"/>
<path d="M42.625 438.621L160.985 452.987L164.374 418.083L165.869 405.617C166.265 402.28 165.32 398.923 163.241 396.283C161.162 393.643 158.12 391.938 154.783 391.541L62.3783 380.454C59.0418 380.052 55.6821 380.991 53.0376 383.065C50.3931 385.139 48.6801 388.178 48.2751 391.514L46.886 403.131L42.625 438.621Z" fill="#2370B5"/>
<path d="M154.77 391.54L62.3649 380.454C59.3067 380.086 56.2196 380.848 53.6836 382.596L128.227 391.54C131.563 391.937 134.606 393.643 136.685 396.282C138.764 398.922 139.709 402.28 139.313 405.616L137.818 418.083L135.077 449.843L160.972 452.987L164.361 418.083L165.856 405.616C166.252 402.28 165.307 398.922 163.228 396.282C161.149 393.643 158.106 391.937 154.77 391.54Z" fill="#1067AE"/>
<path d="M46.8633 403.131V403.14L164.351 418.083L165.847 405.617C166.243 402.28 165.297 398.923 163.218 396.283C161.139 393.643 158.097 391.938 154.76 391.541L62.3555 380.454C59.019 380.052 55.6594 380.991 53.0149 383.065C50.3704 385.139 48.6574 388.178 48.2524 391.514L46.8633 403.131Z" fill="#1067AE"/>
<path d="M154.792 391.561L129.988 388.586C133.048 389.273 135.744 391.07 137.555 393.63C139.367 396.189 140.165 399.329 139.795 402.443L138.315 414.788L164.383 418.104L165.878 405.638C166.274 402.301 165.329 398.944 163.25 396.304C161.171 393.664 158.128 391.958 154.792 391.561Z" fill="#0A56A4"/>
<path d="M155.441 384.967L152.503 384.614L155.178 361.982C155.975 355.264 155.292 348.452 153.177 342.026C151.063 335.6 147.567 329.714 142.936 324.782L63.9305 240.465L74.6184 186.666C75.2065 183.704 75.1927 180.654 74.5777 177.698C73.9627 174.741 72.7592 171.939 71.0388 169.458C69.3185 166.976 67.1164 164.866 64.5636 163.253C62.0109 161.64 59.1598 160.558 56.1799 160.069C54.9698 159.872 53.7458 159.773 52.5197 159.771C47.7247 159.758 43.0519 161.283 39.1876 164.122C35.3233 166.96 32.4711 170.964 31.0499 175.543L9.51651 244.205C5.6163 256.689 5.90589 270.107 10.3411 282.411L26.1076 325.97C29.8908 336.418 36.5127 345.603 45.2292 352.495L55.0572 360.262C57.1368 361.916 58.8662 363.967 60.1446 366.296C61.4229 368.626 62.2244 371.186 62.5025 373.829C57.4981 373.369 52.5115 374.877 48.6007 378.033C44.6899 381.189 42.1628 385.745 41.5556 390.733L40.1666 402.313L40.1648 402.318V402.325L36.6682 431.465C36.4675 433.208 36.9653 434.959 38.0525 436.336C39.1397 437.713 40.728 438.604 42.4699 438.813C44.2117 439.022 45.9655 438.532 47.3476 437.452C48.7297 436.371 49.6276 434.787 49.845 433.046L52.54 410.582L156.868 423.85L154.262 445.575C154.146 446.445 154.204 447.33 154.434 448.178C154.663 449.026 155.058 449.82 155.596 450.514C156.135 451.208 156.806 451.789 157.57 452.221C158.334 452.654 159.177 452.931 160.049 453.036C160.921 453.14 161.805 453.071 162.65 452.831C163.495 452.591 164.284 452.186 164.972 451.639C165.659 451.092 166.231 450.414 166.654 449.645C167.077 448.875 167.344 448.029 167.437 447.156L170.821 418.956L170.824 418.935L170.826 418.909L172.325 406.425C172.625 403.907 172.427 401.355 171.741 398.914C171.055 396.473 169.895 394.192 168.327 392.199C166.76 390.207 164.815 388.542 162.604 387.302C160.393 386.061 157.959 385.267 155.442 384.967H155.441ZM53.461 342.084C46.6806 336.724 41.5292 329.579 38.5855 321.452L22.819 277.891C19.3699 268.323 19.1446 257.889 22.1775 248.181L43.7127 179.517C44.2952 177.638 45.4649 175.995 47.05 174.83C48.6352 173.665 50.5522 173.038 52.5197 173.043C53.0294 173.044 53.5383 173.085 54.0415 173.167C55.2638 173.368 56.4333 173.813 57.4802 174.475C58.527 175.138 59.43 176.004 60.1353 177.022C60.8406 178.041 61.3338 179.191 61.5856 180.404C61.8373 181.617 61.8426 182.868 61.6009 184.083L50.8103 238.398C44.9046 242.466 40.7056 248.569 39.0159 255.538C37.3262 262.508 38.2644 269.856 41.6512 276.177L60.4525 311.347C61.2823 312.899 62.6948 314.058 64.3791 314.568C65.2131 314.821 66.0887 314.907 66.956 314.822C67.8232 314.736 68.6652 314.481 69.4337 314.07C70.2022 313.659 70.8823 313.101 71.4351 312.427C71.9879 311.753 72.4026 310.977 72.6554 310.143C72.9083 309.309 72.9945 308.434 72.909 307.567C72.8234 306.699 72.5679 305.857 72.157 305.089L53.354 269.916C52.1117 267.617 51.463 265.044 51.4668 262.431C51.4617 258.295 53.0653 254.319 55.9384 251.345L133.252 333.856C136.559 337.379 139.056 341.583 140.567 346.173C142.078 350.763 142.566 355.629 141.998 360.427L139.327 383.033L75.8748 375.421C75.7978 370.493 74.6289 365.644 72.4522 361.222C70.2756 356.801 67.1454 352.917 63.2872 349.851L53.461 342.084ZM159.148 404.843L158.449 410.671L54.1211 397.403L54.7316 392.314C54.9287 390.727 55.7469 389.282 57.0071 388.296C58.2672 387.311 59.8666 386.865 61.4549 387.056L68.2163 387.867H68.2207L153.86 398.143C155.45 398.33 156.9 399.142 157.892 400.398C158.883 401.655 159.335 403.254 159.148 404.843ZM250.406 197.421C268.796 171.348 278.515 141.572 278.515 111.306V41.5312C278.515 39.9461 277.948 38.4133 276.916 37.2102C275.884 36.0072 274.455 35.2134 272.888 34.9724C255.98 32.3869 239.446 27.7686 223.646 21.2179C210.744 15.8749 198.454 9.162 186.986 1.19472C185.839 0.393902 184.469 -0.0238924 183.07 0.00105569C181.672 0.0260037 180.317 0.492417 179.199 1.33363C170.79 7.64171 161.813 13.1551 152.384 17.8027C133.488 27.0366 113.187 33.0624 92.3129 35.6333C90.7122 35.8388 89.2412 36.6205 88.1752 37.8321C87.1092 39.0437 86.5212 40.6022 86.5212 42.216V111.307C86.5212 141.573 96.2403 171.349 114.63 197.422C130.563 220.01 152.927 239.669 179.304 254.275C180.288 254.82 181.394 255.105 182.518 255.105C183.643 255.105 184.749 254.82 185.733 254.275C212.109 239.669 234.473 220.01 250.406 197.422V197.421ZM182.518 240.846C159.283 227.415 139.613 209.816 125.475 189.771C108.673 165.951 99.7927 138.817 99.7927 111.308V47.9767C120.101 44.9013 139.819 38.7385 158.263 29.7019C167 25.3904 175.382 20.3923 183.328 14.7546C194.446 22.099 206.24 28.3662 218.549 33.471C233.574 39.705 249.23 44.2919 265.244 47.1512V111.308C265.244 138.818 256.363 165.951 239.562 189.771C225.423 209.816 205.754 227.416 182.518 240.846ZM251.972 63.231C251.972 61.751 251.477 60.3136 250.566 59.1472C249.655 57.9808 248.381 57.1523 246.945 56.7934C235.52 53.9404 224.324 50.2401 213.45 45.7232C204.357 41.9432 195.521 37.5732 186.999 32.6411C185.962 32.0405 184.783 31.7314 183.585 31.7467C182.388 31.7619 181.216 32.1009 180.196 32.7278C174.983 35.9285 169.626 38.8888 164.143 41.5993C149.51 48.7948 134.094 54.2748 118.203 57.9303C116.742 58.2686 115.439 59.0918 114.506 60.2657C113.572 61.4395 113.064 62.8948 113.064 64.3944V111.308C113.064 136.064 121.106 160.551 136.32 182.121C147.271 197.647 161.572 211.374 178.827 222.922C179.919 223.653 181.204 224.044 182.518 224.044C183.833 224.044 185.117 223.653 186.209 222.922C203.464 211.374 217.766 197.647 228.716 182.121C243.931 160.551 251.972 136.064 251.972 111.308V63.231ZM238.701 111.308C238.701 133.311 231.499 155.152 217.871 174.472C208.127 187.999 196.176 199.79 182.518 209.35C168.861 199.79 156.909 187.999 147.166 174.472C133.539 155.152 126.336 133.311 126.336 111.308V69.6075C141.418 65.7697 156.059 60.3703 170.022 53.4968C174.692 51.189 179.276 48.7112 183.765 46.0683C191.728 50.501 199.936 54.4771 208.351 57.9772C218.235 62.0829 228.372 65.5498 238.701 68.3564V111.308ZM355.522 244.209L333.987 175.541C332.262 170.044 328.495 165.417 323.462 162.612C318.429 159.808 312.513 159.04 306.93 160.466C301.348 161.892 296.525 165.403 293.453 170.278C290.381 175.152 289.295 181.019 290.418 186.67L301.106 240.465L222.1 324.783C217.469 329.715 213.974 335.601 211.859 342.028C209.744 348.454 209.061 355.266 209.858 361.985L212.533 384.614L209.596 384.967C207.078 385.267 204.644 386.061 202.433 387.302C200.223 388.542 198.278 390.207 196.71 392.199C195.142 394.192 193.982 396.473 193.296 398.914C192.61 401.355 192.412 403.907 192.713 406.425L194.21 418.909L194.212 418.936L194.216 418.956L197.599 447.156C197.816 448.897 198.714 450.48 200.096 451.561C201.479 452.642 203.232 453.131 204.974 452.922C206.716 452.713 208.304 451.823 209.392 450.446C210.479 449.069 210.977 447.317 210.776 445.575L208.169 423.85L312.496 410.582L315.191 433.046C315.409 434.787 316.307 436.371 317.689 437.452C319.071 438.532 320.825 439.022 322.567 438.813C324.309 438.604 325.897 437.713 326.984 436.336C328.071 434.959 328.569 433.208 328.368 431.465L324.872 402.325V402.318L324.871 402.313L323.482 390.733C322.872 385.746 320.344 381.192 316.433 378.036C312.523 374.881 307.538 373.372 302.534 373.83C302.812 371.187 303.613 368.627 304.891 366.297C306.169 363.968 307.898 361.917 309.978 360.263L319.81 352.493C328.526 345.601 335.147 336.416 338.93 325.968L354.694 282.413C359.13 270.11 359.421 256.693 355.522 244.209ZM303.582 387.056C305.17 386.866 306.769 387.312 308.029 388.297C309.289 389.283 310.107 390.727 310.305 392.314L310.915 397.403L206.588 410.671L205.889 404.843C205.702 403.253 206.154 401.654 207.146 400.398C208.137 399.142 209.587 398.331 211.177 398.143L296.816 387.867H296.82L303.582 387.056ZM342.217 277.894L326.45 321.45C323.508 329.576 318.357 336.722 311.578 342.083L301.748 349.852C297.89 352.918 294.761 356.802 292.584 361.223C290.408 365.644 289.239 370.493 289.162 375.421L225.71 383.033L223.038 360.43C222.469 355.631 222.958 350.765 224.469 346.174C225.98 341.584 228.477 337.379 231.785 333.856L309.098 251.344C311.972 254.319 313.575 258.295 313.57 262.432C313.573 265.046 312.924 267.62 311.681 269.919L292.879 305.089C292.05 306.641 291.87 308.459 292.381 310.143C292.892 311.828 294.051 313.24 295.603 314.07C297.155 314.9 298.973 315.079 300.657 314.568C302.342 314.058 303.754 312.899 304.584 311.347L323.384 276.181C326.771 269.859 327.71 262.511 326.021 255.54C324.331 248.57 320.132 242.467 314.226 238.398L303.436 184.087C303.195 182.874 303.199 181.624 303.45 180.412C303.7 179.201 304.191 178.051 304.895 177.033C305.598 176.015 306.498 175.149 307.543 174.485C308.587 173.822 309.754 173.375 310.975 173.171C311.484 173.087 312 173.044 312.517 173.043C314.484 173.038 316.401 173.664 317.986 174.829C319.571 175.994 320.741 177.636 321.324 179.515L342.861 248.186C345.892 257.894 345.666 268.327 342.217 277.894Z" fill="#3C3B41"/>
</g>
</g>
<defs>
<clipPath id="clip0_9949_293">
<rect width="357" height="453" fill="white"/>
</clipPath>
</defs>
</svg>
