<svg width="40" height="41" viewBox="0 0 40 41" fill="none" xmlns="http://www.w3.org/2000/svg">
<g clip-path="url(#clip0_4428_2827)">
<path d="M36.2026 2.88965H3.71508C2.39151 2.88965 1.30859 3.97257 1.30859 5.29613V29.4813C1.30859 30.8049 2.39151 31.8878 3.71508 31.8878H36.2026C37.5262 31.8878 38.6091 30.8049 38.6091 29.4813V5.29613C38.6091 3.97257 37.5262 2.88965 36.2026 2.88965ZM36.2026 26.1122C36.2026 26.413 35.9018 26.7139 35.601 26.7139H4.3167C3.95573 26.7139 3.71508 26.413 3.71508 26.1122V5.89776C3.71508 5.59695 3.95573 5.29613 4.3167 5.29613H35.601C35.9018 5.29613 36.2026 5.59695 36.2026 5.89776V26.1122Z" fill="#007CBC" stroke="#231F20" stroke-width="1.04492" stroke-miterlimit="10" stroke-linecap="round" stroke-linejoin="round"/>
<path d="M19.9611 30.5061C20.6256 30.5061 21.1643 29.9674 21.1643 29.3029C21.1643 28.6383 20.6256 28.0996 19.9611 28.0996C19.2965 28.0996 18.7578 28.6383 18.7578 29.3029C18.7578 29.9674 19.2965 30.5061 19.9611 30.5061Z" fill="#979797"/>
<path d="M15.3863 35.5594H24.4708C25.674 35.5594 26.6968 36.522 26.6968 37.7854H13.1603C13.1603 36.522 14.183 35.5594 15.3863 35.5594Z" fill="#231F20" stroke="#979797" stroke-width="1.56738" stroke-miterlimit="10" stroke-linecap="round" stroke-linejoin="round"/>
<path d="M24.0531 31.8877H15.8711V35.4974H24.0531V31.8877Z" stroke="#979797" stroke-width="1.56738" stroke-miterlimit="10" stroke-linecap="round" stroke-linejoin="round"/>
<path d="M31.8732 16.426C31.3919 20.3967 26.6993 23.4649 25.6163 24.1267C25.496 24.1869 25.3155 24.1869 25.1952 24.1267C24.1123 23.4649 19.4196 20.3967 18.9383 16.426C18.6977 14.4406 20.0213 12.5154 22.0066 12.2748C23.3903 12.0943 24.7139 12.8162 25.3757 13.8991C26.0375 12.8162 27.361 12.0943 28.7448 12.2748C30.7903 12.5154 32.1139 14.4406 31.8732 16.426Z" fill="#D63B2B"/>
<path d="M16.7725 18.0509H22.0066L22.6082 16.5468L23.6309 20.6379L24.7139 14.8623L26.0374 21.6606L27.0602 17.0281L28.2634 19.9761L29.1057 18.0509H33.8585" stroke="#3A3A3A" stroke-width="1.56738" stroke-miterlimit="10" stroke-linecap="round" stroke-linejoin="round"/>
<path d="M10.6917 9.75V10.4719C10.6917 10.5923 10.5713 10.7126 10.451 10.7126H9.18762C9.06729 10.7126 8.94697 10.8329 8.94697 10.9532V12.2166C8.94697 12.337 8.82664 12.4573 8.70632 12.4573H7.98437C7.86405 12.4573 7.74373 12.337 7.74373 12.2166V10.9532C7.74373 10.8329 7.6234 10.7126 7.50308 10.7126H6.23967C6.11935 10.7126 5.99902 10.5923 5.99902 10.4719V9.75C5.99902 9.62967 6.11935 9.50935 6.23967 9.50935H7.50308C7.6234 9.50935 7.74373 9.38903 7.74373 9.2687V8.0053C7.74373 7.88497 7.86405 7.76465 7.98437 7.76465H8.70632C8.82664 7.76465 8.94697 7.88497 8.94697 8.0053V9.2687C8.94697 9.38903 9.06729 9.50935 9.18762 9.50935H10.451C10.6315 9.56951 10.6917 9.62967 10.6917 9.75Z" fill="#007CBC"/>
<path d="M12.0186 12.335H18.6966" stroke="#979797" stroke-width="1.56738" stroke-miterlimit="10" stroke-linecap="round" stroke-linejoin="round"/>
<path d="M12.0186 9.62988H15.8088" stroke="#979797" stroke-width="1.56738" stroke-miterlimit="10" stroke-linecap="round" stroke-linejoin="round"/>
<path d="M6.66602 15.0439H13.9456" stroke="#979797" stroke-width="1.56738" stroke-miterlimit="10" stroke-linecap="round" stroke-linejoin="round"/>
<path d="M6.66586 17.7492H13.9455" stroke="#979797" stroke-width="1.56738" stroke-miterlimit="10" stroke-linecap="round" stroke-linejoin="round"/>
<path d="M6.66602 20.5166H13.9456" stroke="#979797" stroke-width="1.56738" stroke-miterlimit="10" stroke-linecap="round" stroke-linejoin="round"/>
<path d="M6.66602 23.2246H13.9456" stroke="#979797" stroke-width="1.56738" stroke-miterlimit="10" stroke-linecap="round" stroke-linejoin="round"/>
</g>
<defs>
<clipPath id="clip0_4428_2827">
<rect width="39.707" height="39.707" fill="white" transform="translate(0.107422 0.483398)"/>
</clipPath>
</defs>
</svg>
