<svg width="34" height="34" viewBox="0 0 34 34" fill="none" xmlns="http://www.w3.org/2000/svg">
<path d="M31.1694 2.48625C30.7821 2.48625 3.108 2.48625 2.83149 2.48625C1.30408 2.48625 0.066864 3.72406 0.066864 5.25088V21.8389L17.0696 24.258L33.9341 21.8389V5.25088C33.9341 3.72406 32.6962 2.48625 31.1694 2.48625Z" fill="#DDEAF0"/>
<path d="M23.6359 31.513C22.8604 31.513 11.2758 31.513 10.5037 31.513C13.1758 31.513 15.3419 29.3468 15.3419 26.6748L17.0004 25.7072L18.7977 26.6748C18.7977 29.3468 20.9638 31.513 23.6359 31.513Z" fill="#2E5177"/>
<path d="M33.9341 21.8344V23.9078C33.9341 25.4347 32.6962 26.6725 31.1694 26.6725C29.0387 26.6725 3.89877 26.6725 2.83149 26.6725C1.30408 26.6725 0.066864 25.4347 0.066864 23.9079V21.8344C0.246028 21.8344 33.1463 21.8344 33.9341 21.8344Z" fill="#466889"/>
<path d="M28.6901 7.31485L30.275 5.73006C30.4726 5.53237 30.5317 5.23514 30.4248 4.97682C30.3178 4.71856 30.0658 4.55016 29.7862 4.55016H24.2568C23.8751 4.55016 23.5657 4.85961 23.5657 5.24131C23.5657 6.30952 23.5657 11.0852 23.5657 12.153C23.5657 12.5347 23.8751 12.8442 24.2568 12.8442C24.6385 12.8442 24.948 12.5347 24.948 12.153V10.0795H29.7862C30.0658 10.0795 30.3178 9.91113 30.4248 9.65288C30.5317 9.39462 30.4726 9.09732 30.275 8.89963L28.6901 7.31485Z" fill="#95DB3D"/>
<path d="M19.4193 19.0731H13.8899C13.5082 19.0731 13.1988 18.7637 13.1988 18.382C13.1988 18.0003 13.5082 17.6908 13.8899 17.6908H19.4193C20.5626 17.6908 21.4927 16.7607 21.4927 15.6173C21.4927 14.4739 20.5626 13.5438 19.4193 13.5438H15.2723C13.5572 13.5438 12.162 12.1486 12.162 10.4335C12.162 8.71854 13.5572 7.32328 15.2723 7.32328H21.4927C21.8744 7.32328 22.1839 7.63273 22.1839 8.01444C22.1839 8.39614 21.8744 8.70559 21.4927 8.70559H15.2723C14.3195 8.70559 13.5444 9.48075 13.5444 10.4335C13.5444 11.3863 14.3195 12.1614 15.2723 12.1614H19.4193C21.3249 12.1614 22.8751 13.7116 22.8751 15.6172C22.8751 17.5228 21.3249 19.0731 19.4193 19.0731Z" fill="#BDDEED"/>
<path d="M16.6544 14.2328C16.2727 14.2328 15.9632 13.9233 15.9632 13.5416V12.1593C15.9632 11.7776 16.2727 11.4682 16.6544 11.4682C17.0361 11.4682 17.3455 11.7776 17.3455 12.1593V13.5416C17.3455 13.9234 17.0361 14.2328 16.6544 14.2328ZM18.0367 19.7622C17.655 19.7622 17.3455 19.4527 17.3455 19.071V17.6887C17.3455 17.307 17.655 16.9975 18.0367 16.9975C18.4184 16.9975 18.7278 17.307 18.7278 17.6887V19.071C18.7278 19.4527 18.4184 19.7622 18.0367 19.7622ZM19.419 9.39463C19.0373 9.39463 18.7278 9.08518 18.7278 8.70347V7.32116C18.7278 6.93946 19.0373 6.63 19.419 6.63C19.8007 6.63 20.1101 6.93946 20.1101 7.32116V8.70347C20.1101 9.08518 19.8008 9.39463 19.419 9.39463Z" fill="#8DC0D6"/>
<path d="M7.66967 12.8536C5.76069 12.8536 4.21382 14.4011 4.21382 16.3094C4.21382 19.0741 7.66967 21.8388 7.66967 21.8388C7.66967 21.8388 11.1255 19.0741 11.1255 16.3094C11.1255 14.4011 9.57799 12.8536 7.66967 12.8536ZM7.6694 17.0008C7.2877 17.0008 6.97825 16.6913 6.97825 16.3096C6.97825 15.9279 7.2877 15.6185 7.6694 15.6185C8.05111 15.6185 8.36056 15.9279 8.36056 16.3096C8.36056 16.6913 8.05111 17.0008 7.6694 17.0008Z" fill="#DD641A"/>
</svg>
