<svg width="36" height="36" viewBox="0 0 36 36" fill="none" xmlns="http://www.w3.org/2000/svg">
<path d="M13.9184 9.616H22.3888C22.5792 9.616 22.735 9.46023 22.735 9.26985V7.95446C22.735 7.40062 22.285 6.95062 21.7311 6.95062H20.845C20.6753 5.83254 19.713 4.97754 18.55 4.97754H17.7573C16.5977 4.97754 15.6319 5.83254 15.4623 6.95062H14.5761C14.0223 6.95062 13.5723 7.40062 13.5723 7.95446V9.26985C13.5723 9.46023 13.728 9.616 13.9184 9.616ZM14.2646 7.95446C14.2646 7.78138 14.4065 7.64292 14.5761 7.64292H15.7842C15.9746 7.64292 16.1303 7.48715 16.1303 7.29677C16.1303 6.39677 16.8607 5.66985 17.7573 5.66985H18.55C19.4465 5.66985 20.1769 6.39677 20.1769 7.29677C20.1769 7.48715 20.3327 7.64292 20.523 7.64292H21.7311C21.9042 7.64292 22.0427 7.78138 22.0427 7.95446V8.92369H14.2646V7.95446Z" fill="url(#paint0_linear_5504_1318)"/>
<path d="M24.2733 8.14673C24.0819 8.14673 23.9272 8.30146 23.9272 8.49288C23.9272 8.68431 24.0819 8.83904 24.2733 8.83904C25.1789 8.83904 25.9158 9.56215 25.9158 10.4507V28.7193C25.9158 29.6083 25.1789 30.3314 24.2733 30.3314H12.0358C11.1302 30.3314 10.3933 29.6083 10.3933 28.7193V10.4507C10.3933 9.56215 11.1302 8.83904 12.0358 8.83904C12.2272 8.83904 12.3819 8.68431 12.3819 8.49288C12.3819 8.30146 12.2272 8.14673 12.0358 8.14673C10.7481 8.14673 9.70096 9.18034 9.70096 10.4507V28.7193C9.70096 29.9901 10.7481 31.0237 12.0358 31.0237H24.2737C25.5614 31.0237 26.6085 29.9901 26.6085 28.7193V10.4507C26.6085 9.18034 25.561 8.14673 24.2733 8.14673ZM8.31773 26.972L7.54996 27.1166C6.9165 27.2368 6.30416 26.8183 6.18473 26.1852L4.07042 14.9829C4.01262 14.6759 4.07769 14.3654 4.25319 14.1075C4.42939 13.8496 4.69489 13.6758 5.00192 13.6177L8.16854 13.0199C8.3565 12.9842 8.47973 12.8035 8.44442 12.6156C8.40877 12.428 8.22842 12.3054 8.04012 12.3397L4.8735 12.9375C4.38508 13.0299 3.96173 13.3065 3.68169 13.717C3.40131 14.1279 3.29815 14.6229 3.39023 15.1113L5.50454 26.3136C5.67277 27.2056 6.45577 27.8294 7.33223 27.8294C7.44646 27.8294 7.56208 27.819 7.67839 27.7968L8.44615 27.6522C8.63377 27.6168 8.75735 27.4358 8.72204 27.2478C8.68673 27.0602 8.50535 26.9377 8.31773 26.972ZM30.736 12.97L28.4995 12.5304C28.3116 12.493 28.1302 12.6159 28.0932 12.8035C28.0565 12.9908 28.1787 13.1729 28.3663 13.2099L30.6024 13.6495C31.2348 13.7738 31.6482 14.3896 31.5239 15.0217L29.3244 26.2077C29.2002 26.8401 28.5843 27.2534 27.9523 27.1291L27.5421 27.0485C27.3555 27.0125 27.1724 27.1336 27.1353 27.3212C27.0983 27.5088 27.2205 27.6906 27.4081 27.728L27.8187 27.8086C27.9391 27.8321 28.0592 27.8439 28.1776 27.8439C29.0489 27.8439 29.8291 27.2278 30.0036 26.3416L32.203 15.1553C32.4007 14.1487 31.7427 13.1687 30.7357 12.9704L30.736 12.97Z" fill="url(#paint1_linear_5504_1318)"/>
<path d="M14.6112 15.2689C14.6112 17.2212 16.2 18.8135 18.1558 18.8135C20.1116 18.8135 21.697 17.2212 21.697 15.2689C21.697 13.3166 20.1081 11.7277 18.1558 11.7277C16.2035 11.7277 14.6112 13.3166 14.6112 15.2689ZM18.502 13.7562V14.9158H19.6616C19.852 14.9158 20.0077 15.0716 20.0077 15.262C20.0077 15.4523 19.852 15.6081 19.6616 15.6081H18.502V16.7677C18.502 16.9581 18.3462 17.1139 18.1558 17.1139C17.962 17.1139 17.8097 16.9581 17.8097 16.7677V15.6081H16.6466C16.4562 15.6081 16.3004 15.4523 16.3004 15.262C16.3004 15.0716 16.4562 14.9158 16.6466 14.9158H17.8097V13.7562C17.8097 13.5623 17.962 13.41 18.1558 13.41C18.3462 13.41 18.502 13.5623 18.502 13.7562ZM13.4152 22.1224H22.9743C23.1657 22.1224 23.3204 21.9676 23.3204 21.7762C23.3204 21.5848 23.1657 21.4301 22.9743 21.4301H13.4152C13.2238 21.4301 13.0691 21.5848 13.0691 21.7762C13.0691 21.9676 13.2238 22.1224 13.4152 22.1224ZM20.8326 24.4572C21.024 24.4572 21.1788 24.3025 21.1788 24.111C21.1788 23.9196 21.024 23.7649 20.8326 23.7649H15.5572C15.3658 23.7649 15.2111 23.9196 15.2111 24.111C15.2111 24.3025 15.3658 24.4572 15.5572 24.4572H20.8326ZM8.4012 15.2273L6.06466 15.6566C5.97466 15.6739 5.89159 15.7258 5.83966 15.802C5.78774 15.8781 5.77043 15.9716 5.78774 16.0616L6.29313 18.7512C6.31043 18.8446 6.36236 18.9277 6.44197 18.9796C6.50082 19.0143 6.56659 19.035 6.63236 19.035C6.66005 19.035 6.68428 19.0316 6.71197 19.0246L8.54313 18.5954C8.70236 18.5573 8.81313 18.4189 8.81313 18.2596V15.5666C8.81313 15.4662 8.76466 15.3693 8.68505 15.3035C8.60889 15.2377 8.50159 15.21 8.4012 15.2273ZM6.80301 21.1514C6.82482 21.1514 6.84732 21.1493 6.86982 21.1448L8.44863 20.8354C8.63624 20.7987 8.75878 20.6166 8.72174 20.429C8.68505 20.2417 8.50539 20.1188 8.31536 20.1559L6.73655 20.4653C6.54893 20.502 6.42639 20.6841 6.46343 20.8717C6.49597 21.0368 6.64101 21.1514 6.80301 21.1514ZM27.9406 15.9061L29.6094 16.2748C29.6343 16.2803 29.6599 16.2828 29.6845 16.2828C29.8434 16.2828 29.9863 16.173 30.0223 16.0114C30.0635 15.8248 29.9455 15.64 29.7589 15.5988L28.0901 15.2301C27.9035 15.1893 27.7187 15.307 27.6775 15.4935C27.6363 15.6801 27.754 15.865 27.9406 15.9061ZM28.1455 17.6151C27.9561 17.5743 27.7744 17.692 27.7329 17.8785C27.6917 18.0651 27.8097 18.25 27.9963 18.2911L29.0707 18.5286C29.096 18.5341 29.1213 18.5366 29.1459 18.5366C29.3047 18.5366 29.4477 18.4268 29.4837 18.2652C29.5249 18.0786 29.4069 17.8938 29.2203 17.8526L28.1455 17.6151ZM14.7936 28.6058C14.8435 28.6304 14.8961 28.6422 14.948 28.6422C15.075 28.6422 15.1976 28.5723 15.2582 28.4508C15.9989 26.9685 16.505 26.8823 17.0422 26.9284C17.0464 26.9284 17.4677 26.9751 18.0703 28.0523C18.1219 28.1444 18.2126 28.2078 18.3164 28.2251C18.4196 28.242 18.5262 28.2105 18.6048 28.1399L19.2756 27.5331C19.4871 27.835 19.8395 28.2168 20.3252 28.3421C20.6062 28.4141 21.0476 28.4245 21.5485 28.0603C21.7032 27.9478 21.7375 27.7315 21.625 27.5771C21.5132 27.4223 21.2954 27.3884 21.1417 27.5006C20.9115 27.6678 20.7018 27.7242 20.5 27.6723C20.0901 27.5674 19.7623 27.0402 19.6706 26.8467C19.6242 26.747 19.5335 26.6753 19.4255 26.6532C19.3192 26.6324 19.206 26.6618 19.1247 26.7359L18.4514 27.3448C17.8599 26.4396 17.36 26.2596 17.0983 26.2381C16.0554 26.1565 15.3655 26.6875 14.6389 28.1413C14.5534 28.3123 14.6226 28.5203 14.7936 28.6058Z" fill="url(#paint2_linear_5504_1318)"/>
<defs>
<linearGradient id="paint0_linear_5504_1318" x1="13.8784" y1="4.97754" x2="19.2891" y2="11.9542" gradientUnits="userSpaceOnUse">
<stop stop-color="#007CBC"/>
<stop offset="1" stop-color="#B41E85"/>
</linearGradient>
<linearGradient id="paint1_linear_5504_1318" x1="4.32249" y1="8.14673" x2="31.3668" y2="30.4328" gradientUnits="userSpaceOnUse">
<stop stop-color="#007CBC"/>
<stop offset="1" stop-color="#B41E85"/>
</linearGradient>
<linearGradient id="paint2_linear_5504_1318" x1="6.59156" y1="11.7277" x2="26.918" y2="30.7495" gradientUnits="userSpaceOnUse">
<stop stop-color="#007CBC"/>
<stop offset="1" stop-color="#B41E85"/>
</linearGradient>
</defs>
</svg>
