<svg width="42" height="41" viewBox="0 0 42 41" fill="none" xmlns="http://www.w3.org/2000/svg">
<path fill-rule="evenodd" clip-rule="evenodd" d="M39.6043 25.4286C40.5543 24.4068 41.5 23.3899 41.5 22C41.5 20.6101 40.5543 19.5932 39.6043 18.5715C38.9198 17.8352 38.233 17.0966 37.8952 16.2145C37.5732 15.3719 37.6563 14.3615 37.7385 13.3626C37.842 12.1096 37.9437 10.8746 37.2416 10.012C36.2194 8.757 35.0405 8.5081 33.7347 8.2326C32.8949 8.05495 32.0024 7.86685 31.0652 7.3928C30.2268 6.96863 29.3524 6.35445 28.448 5.7189C26.5765 4.40457 24.5772 3 22.5 3C20.4228 3 18.4231 4.40457 16.5521 5.7189C15.6476 6.35445 14.7732 6.96815 13.9348 7.3928C12.9976 7.86685 12.1051 8.05495 11.2653 8.2326C9.95905 8.5081 8.78057 8.757 7.75838 10.012C7.05632 10.8746 7.15797 12.1096 7.26152 13.3626C7.3437 14.3615 7.42683 15.3719 7.10478 16.214C6.76753 17.0966 6.0802 17.8352 5.39572 18.5715C4.44572 19.5932 3.5 20.6101 3.5 22C3.5 23.3899 4.44525 24.4068 5.39572 25.4286C6.0802 26.1648 6.76705 26.9034 7.10478 27.7855C7.45485 28.7013 7.44202 29.7658 7.43015 30.816C7.414 32.222 7.39785 33.6019 8.25 34.5675C9.34392 35.8073 10.9637 36.0377 12.6328 36.2752C13.7196 36.43 14.8273 36.5877 15.8248 37.029C16.7496 37.4375 17.5576 38.1405 18.3646 38.8425C19.6063 39.9227 20.8446 41 22.5 41C24.1554 41 25.3937 39.9227 26.6354 38.8425C27.4424 38.1405 28.2504 37.4375 29.1752 37.029C30.1727 36.5877 31.2804 36.4305 32.3672 36.2752C34.0363 36.0377 35.6561 35.8068 36.75 34.5675C37.6021 33.6019 37.586 32.2215 37.5698 30.8165C37.5575 29.7658 37.5452 28.7013 37.8952 27.786C38.233 26.9034 38.9198 26.1648 39.6043 25.4286ZM22.5 34.825C29.5832 34.825 35.325 29.0832 35.325 22C35.325 14.9168 29.5832 9.175 22.5 9.175C15.4168 9.175 9.675 14.9168 9.675 22C9.675 29.0832 15.4168 34.825 22.5 34.825Z" fill="#FECD4E"/>
<path d="M36.8592 26.4632C37.0352 26.0042 37.3253 25.5738 37.6858 25.1377C37.936 24.841 38.1948 24.5517 38.462 24.2702C38.5976 24.1246 38.735 23.9767 38.8748 23.8221C39.6781 22.9351 40.5 21.894 40.5 20.5C40.5 19.106 39.6781 18.0649 38.8748 17.1779C38.7383 17.0275 38.6007 16.8782 38.462 16.7298C38.1948 16.4483 37.936 16.159 37.6858 15.8623C37.3253 15.4262 37.0347 14.9958 36.8592 14.5368C36.7075 14.1401 36.6561 13.6779 36.6595 13.1552C36.6618 12.7495 36.6956 12.3352 36.7313 11.9024C36.7422 11.7726 36.7531 11.6408 36.7631 11.5067C36.8464 10.4123 36.8973 9.13959 36.1291 8.19645C35.1941 7.04785 34.1297 6.66023 33.0472 6.4034C32.8042 6.34666 32.5605 6.29291 32.3162 6.24217C31.4848 6.06619 30.6687 5.89355 29.7912 5.4498C29.1781 5.13971 28.5356 4.71737 27.854 4.24556C27.6519 4.10573 27.4459 3.96115 27.2367 3.81418C26.7496 3.47222 26.246 3.11837 25.7385 2.78734C24.2936 1.84516 22.6922 1 21 1C19.3078 1 17.7064 1.84516 16.261 2.78782C15.754 3.11837 15.2504 3.47222 14.7629 3.81418C14.5541 3.96162 14.3481 4.10573 14.146 4.24556C13.4644 4.71784 12.8219 5.13971 12.2088 5.4498C11.3313 5.89355 10.5152 6.06619 9.68334 6.24217C9.44173 6.29354 9.19917 6.3449 8.95328 6.40293C7.87032 6.65976 6.8059 7.04785 5.87085 8.19598C5.10274 9.13959 5.15363 10.4123 5.23687 11.5062C5.24685 11.6403 5.25779 11.7726 5.26873 11.9024C5.3044 12.3352 5.33817 12.749 5.34102 13.1552C5.34388 13.6783 5.29251 14.1397 5.14079 14.5368C4.96482 14.9958 4.67469 15.4262 4.31418 15.8623C4.06395 16.159 3.80511 16.4483 3.53799 16.7298C3.40244 16.8754 3.26499 17.0233 3.12516 17.1779C2.32185 18.0649 1.5 19.106 1.5 20.5C1.5 21.894 2.32185 22.9351 3.12516 23.8221C3.26499 23.9767 3.40244 24.1246 3.53799 24.2702C3.80861 24.5608 4.06877 24.8409 4.31418 25.1377C4.67469 25.5738 4.96529 26.0042 5.14079 26.4632C5.3201 26.9321 5.39667 27.462 5.42521 28.0436C5.44518 28.4589 5.44043 28.876 5.4352 29.3069C5.43329 29.4876 5.43091 29.6712 5.43044 29.8576C5.42854 31.0647 5.49702 32.4036 6.375 33.3985C7.39756 34.5566 8.81012 34.9114 10.1761 35.1336C10.4843 35.184 10.7891 35.2273 11.0897 35.2705C12.1679 35.4246 13.1914 35.5706 14.1241 35.983C14.6563 36.2184 15.1595 36.568 15.6689 36.978C15.97 37.2205 16.2477 37.4626 16.5331 37.7109C16.75 37.8997 16.9706 38.0919 17.2089 38.2911C18.2548 39.1639 19.4519 40 21 40C22.5481 40 23.7452 39.1639 24.7906 38.2911C25.0294 38.0919 25.25 37.8997 25.4669 37.7109C25.7523 37.4626 26.03 37.221 26.3311 36.9785C26.8405 36.5675 27.3437 36.2184 27.8759 35.983C28.8086 35.5706 29.8321 35.4246 30.9103 35.2705C31.2109 35.2277 31.5157 35.184 31.8239 35.1336C33.1904 34.9114 34.6029 34.5566 35.625 33.3985C36.503 32.4036 36.5715 31.0647 36.5691 29.8576C36.5691 29.6712 36.5667 29.4876 36.5643 29.3069C36.5596 28.876 36.5548 28.4589 36.5748 28.0436C36.6033 27.462 36.6799 26.9321 36.8592 26.4632Z" stroke="black" stroke-width="2"/>
<path d="M21 34C28.4558 34 34.5 27.9558 34.5 20.5C34.5 13.0442 28.4558 7 21 7C13.5442 7 7.5 13.0442 7.5 20.5C7.5 27.9558 13.5442 34 21 34Z" stroke="black" stroke-width="2"/>
<path d="M15.5 27L27.5 15" stroke="black" stroke-width="2" stroke-linecap="round" stroke-linejoin="round"/>
<path d="M25.5 27C26.6046 27 27.5 26.1046 27.5 25C27.5 23.8954 26.6046 23 25.5 23C24.3954 23 23.5 23.8954 23.5 25C23.5 26.1046 24.3954 27 25.5 27Z" stroke="black" stroke-width="2" stroke-linecap="round" stroke-linejoin="round"/>
<path d="M16.5 18C17.6046 18 18.5 17.1046 18.5 16C18.5 14.8954 17.6046 14 16.5 14C15.3954 14 14.5 14.8954 14.5 16C14.5 17.1046 15.3954 18 16.5 18Z" stroke="black" stroke-width="2" stroke-linecap="round" stroke-linejoin="round"/>
</svg>
