<svg width="25" height="25" viewBox="0 0 25 25" fill="none" xmlns="http://www.w3.org/2000/svg">
<g clip-path="url(#clip0_6111_13593)">
<path d="M6.44566 24.6074V18.0156H1.32494L0.432561 22.9961C0.275137 23.8747 1.14917 24.6074 2.0393 24.6074H6.44566Z" fill="#58DC72"/>
<path d="M1.32365 18.0156L1.07031 19.4316H4.08295C4.24868 19.4337 4.41076 19.3827 4.54563 19.2861C4.68049 19.1895 4.78111 19.0522 4.83287 18.8943C4.88462 18.7364 4.8848 18.5661 4.8334 18.408C4.78199 18.25 4.68167 18.1126 4.54701 18.0156H1.32365Z" fill="#81EAAA"/>
<path d="M14.7016 18.0187H9.5625V24.6105H22.9763C23.8665 24.6105 24.7438 23.8772 24.5831 22.9992L22.7892 13.168C20.8036 16.4789 17.7576 19.5309 16.8369 19.5309C16.4528 19.5309 15.6073 18.9203 14.7016 18.0187Z" fill="#79A4FF"/>
<path d="M10.5197 14.8906H1.88805L1.32812 18.0156H6.44884V24.6074H9.56494V18.0156H12.7092C12.7092 18.0156 11.9536 17.034 11.0515 15.7154C10.8785 15.4625 10.6992 15.1637 10.5197 14.8906Z" fill="#FFC100"/>
<path d="M10.5156 14.8906C10.6951 15.1637 10.8744 15.4625 11.0474 15.7154C11.9495 17.034 12.7051 18.0156 12.7051 18.0156H14.6998C13.8633 17.1942 12.9421 16.1248 12.0425 14.8906H10.5156Z" fill="#FF9200"/>
<path d="M7.83363 8.88748L4.28085 8.88672C3.39072 8.88644 2.83154 9.61944 2.67411 10.498L1.88672 14.8926H10.5184C10.2299 14.4537 9.93945 14.0278 9.66327 13.5674C9.21525 12.8204 8.80715 12.0701 8.51451 11.3968C8.22187 10.7235 8.01539 9.95483 7.87014 9.18121C7.85116 9.0801 7.85057 8.98858 7.83363 8.88748Z" fill="#25B77E"/>
<path d="M7.83203 8.88672C7.84897 8.98782 7.84956 9.07934 7.86855 9.18045C8.01379 9.95406 8.22027 10.7228 8.51292 11.396C8.80556 12.0693 9.21365 12.8196 9.66167 13.5666C9.93785 14.0271 10.2283 14.4529 10.5168 14.8918H12.0436C10.6389 12.9464 9.42459 10.7532 9.1512 8.88748L7.83203 8.88672Z" fill="#259577"/>
<path d="M16.8353 0.390625C12.5598 0.390625 9.09375 3.86654 9.09375 8.1543C9.09375 12.4421 15.4811 19.5312 16.8353 19.5312C18.2382 19.5312 24.5769 12.4421 24.5769 8.1543C24.5769 3.86654 21.1108 0.390625 16.8353 0.390625ZM16.8353 4.1626C17.2945 4.16259 17.7491 4.25328 18.1734 4.42949C18.5976 4.60571 18.983 4.86399 19.3077 5.1896C19.6324 5.51521 19.8899 5.90176 20.0656 6.32719C20.2414 6.75262 20.3318 7.20859 20.3318 7.66907C20.3318 8.12955 20.2414 8.58552 20.0656 9.01095C19.8899 9.43637 19.6324 9.82293 19.3077 10.1485C18.983 10.4741 18.5976 10.7324 18.1734 10.9086C17.7491 11.0849 17.2945 11.1755 16.8353 11.1755C16.3761 11.1755 15.9215 11.0849 15.4973 10.9086C15.073 10.7324 14.6876 10.4741 14.3629 10.1485C14.0382 9.82293 13.7807 9.43637 13.605 9.01095C13.4292 8.58552 13.3388 8.12955 13.3388 7.66907C13.3388 7.20859 13.4292 6.75262 13.605 6.32719C13.7807 5.90176 14.0382 5.51521 14.3629 5.1896C14.6876 4.86399 15.073 4.60571 15.4973 4.42949C15.9215 4.25328 16.3761 4.16259 16.8353 4.1626Z" fill="#FF2A2A"/>
<path d="M2.69555 23.3048C2.54384 23.3028 2.39485 23.3452 2.26687 23.427C2.13889 23.5087 2.03749 23.6261 1.97512 23.7648C1.91275 23.9035 1.89212 24.0575 1.91577 24.2078C1.93942 24.3581 2.00631 24.4982 2.10824 24.6109H6.44461V23.3048H2.69555Z" fill="#25B77E"/>
<path d="M7.01817 18.3712C6.7884 18.3745 6.58559 18.4789 6.44531 18.6397V24.6074H9.56141V23.2891H7.8086V19.1631C7.8146 18.723 7.45705 18.3647 7.01817 18.3712Z" fill="#FF9200"/>
<path d="M23.6892 20.0821C23.1969 20.0744 22.821 20.5207 22.9109 21.0061L23.2084 22.7463C23.3046 23.2674 23.1062 23.2949 22.8987 23.2949H9.5625V24.6094H22.9763C23.8665 24.6094 24.7438 23.8761 24.5831 22.9981L24.0703 20.1897C23.9576 20.1235 23.8275 20.0843 23.6892 20.0821Z" fill="#9BBAFF"/>
<path d="M22.7895 13.168C22.2131 14.1291 21.5526 15.0631 20.8754 15.9123C19.9947 17.0033 19.1046 17.998 18.075 18.8458C17.7914 19.0817 17.3296 19.4049 17.0487 19.4897C16.97 19.5156 16.8982 19.5309 16.8372 19.5309C16.4531 19.5309 15.6075 18.9203 14.7018 18.0187H12.707C13.4068 18.8705 14.8401 20.1372 15.3431 20.4701C15.7349 20.7438 16.3085 21.0818 17.0495 20.9332C17.5184 20.8391 18.0303 20.6304 18.5999 20.2007C19.1695 19.7711 19.8476 19.1248 20.8822 18.0523C21.83 17.0699 22.5885 16.0343 23.1546 15.1707L22.7895 13.168Z" fill="#3F75F8"/>
<path d="M1.88407 14.8906L1.64062 16.2502H8.95919C9.11738 16.2524 9.2725 16.2063 9.40391 16.1179C9.53532 16.0296 9.63681 15.9032 9.69486 15.7557C9.75292 15.6081 9.7648 15.4463 9.72892 15.2917C9.69304 15.1372 9.61111 14.9973 9.49401 14.8906H1.88407Z" fill="#FFDB64"/>
<path d="M4.27791 8.88672C3.43986 8.88646 2.89537 9.53849 2.70312 10.3477H6.37686C7.18097 10.3566 7.46976 9.2865 6.77094 8.88748L4.27791 8.88672Z" fill="#29CC9C"/>
<path d="M16.8401 0.390625C13.6638 0.390625 10.9357 2.3312 9.74219 5.07229C9.94017 5.74623 10.8583 5.83556 11.1823 5.2125C11.1823 5.2125 12.9365 1.82928 16.6256 1.82928C20.4119 1.82928 21.9479 4.47642 21.9479 4.47642C22.3523 5.17588 23.4304 4.87374 23.4101 4.06571C22.042 1.8754 19.6098 0.390625 16.8401 0.390625Z" fill="#FF5853"/>
<path d="M12.7953 7.92579C12.3029 7.9281 11.9361 8.38221 12.036 8.86574C12.036 8.86574 12.2202 9.85239 12.9185 10.8067C13.6168 11.7609 14.9393 12.7211 16.9057 12.6232C18.8401 12.5269 20.0926 11.5986 20.7712 10.6998C21.4497 9.80104 21.6247 8.88939 21.6247 8.88939C21.7881 8.03609 20.7533 7.6922 20.2903 8.19359C20.1654 9.02249 19.7485 9.77907 19.1151 10.3262C18.4818 10.8733 17.6739 11.1748 16.838 11.1759C16.0013 11.1752 15.1927 10.8737 14.5588 10.3261C13.9249 9.77843 13.5079 9.021 13.3834 8.1913C13.2385 8.02673 13.0273 7.92446 12.7953 7.92579Z" fill="#E4171D"/>
</g>
<defs>
<clipPath id="clip0_6111_13593">
<rect width="25" height="25" fill="white"/>
</clipPath>
</defs>
</svg>
