<svg width="65" height="95" viewBox="0 0 65 95" fill="none" xmlns="http://www.w3.org/2000/svg">
<g opacity="0.4">
<path d="M58.3265 17.4379C58.3265 24.8184 53.4728 30.8015 47.4854 30.8015C41.4978 30.8015 36.6441 24.8184 36.6441 17.4379C36.6441 10.0573 41.4978 4.07422 47.4854 4.07422C53.4726 4.07422 58.3265 10.0575 58.3265 17.4379ZM25.2896 89.6793C25.2896 89.6793 19.8781 65.0559 30.8653 62.8889C41.8527 60.722 46.5303 79.0393 39.5607 89.6793H25.2896Z" fill="#FFC200"/>
<path d="M39.1925 59.0759C35.9514 59.0759 32.4234 56.6147 30.885 54.2351C29.8194 52.5869 29.4341 50.6348 29.8 48.738C30.1718 46.811 31.2707 45.1731 32.8941 44.1256C34.0274 43.3943 35.3431 43.0078 36.6994 43.0078C39.2146 43.0078 41.5489 44.296 42.9439 46.454C43.9726 48.0453 44.5985 50.2801 44.6181 52.432C44.6426 55.1163 43.7286 57.193 42.0443 58.2794C41.2256 58.808 40.2661 59.0759 39.1925 59.0759ZM36.6994 46.8078C36.0769 46.8078 35.4748 46.9841 34.9578 47.3178C34.2138 47.7977 33.7085 48.5575 33.5349 49.4574C33.3555 50.3876 33.5491 51.3522 34.0801 52.1734C35.1111 53.7683 37.5957 55.2759 39.1925 55.2759C39.5217 55.2759 39.787 55.2125 39.9806 55.0874C40.5067 54.7481 40.8262 53.744 40.8146 52.4666C40.8017 51.048 40.3832 49.4975 39.7488 48.5159C39.0573 47.4464 37.9175 46.8078 36.6994 46.8078ZM31.4331 90.77C30.6439 90.77 29.9063 90.2752 29.6349 89.4881C26.0516 79.0913 26.0109 70.307 29.5235 65.3875C31.4752 62.6538 34.4514 61.2091 38.1299 61.2091C41.745 61.2091 44.7208 62.8197 46.7356 65.8667C48.562 68.6287 49.496 72.4289 49.4364 76.8561C49.3801 81.0414 48.3984 85.5728 46.6721 89.615C46.26 90.5804 45.1426 91.0284 44.1765 90.6171C43.2103 90.2051 42.7613 89.0889 43.1736 88.1239C46.2932 80.8186 46.4566 72.3391 43.5618 67.9611C42.2666 66.0022 40.4392 65.0091 38.1299 65.0091C35.6644 65.0091 33.8622 65.8546 32.6201 67.5942C29.8715 71.4436 30.1001 79.1656 33.2313 88.2508C33.5733 89.2432 33.0455 90.3243 32.0524 90.6659C31.8474 90.7364 31.6383 90.77 31.4331 90.77Z" fill="#333333"/>
<path d="M38.1302 65.1085C30.2833 65.1085 24.5768 62.6087 21.1693 57.6786C18.4789 53.7857 17.9141 49.3195 17.9141 46.2584C17.9141 45.2091 18.7655 44.3584 19.8159 44.3584C20.8663 44.3584 21.7178 45.2091 21.7178 46.2584C21.7178 59.3532 32.0007 61.3085 38.1302 61.3085C43.082 61.3085 47.1098 58.939 50.1021 54.2664C52.4528 50.595 53.2611 46.8283 53.2691 46.7904C53.4844 45.7648 54.4912 45.1051 55.5179 45.3183C56.545 45.5315 57.2057 46.5338 56.9941 47.5603C56.9574 47.7378 56.0665 51.9567 53.3735 56.2087C49.6856 62.0311 44.4147 65.1085 38.1302 65.1085ZM52.3178 44.5118L52.318 44.5104C52.4878 43.7003 53.152 43.1208 53.929 43.0169C53.7849 42.3251 53.6706 41.6631 53.5804 41.0374C52.802 35.6291 53.6084 31.6649 53.6255 31.5825C53.7352 31.0695 53.4079 30.5646 52.8943 30.4548C52.3811 30.345 51.8754 30.6724 51.7655 31.1854C51.7286 31.3577 50.8716 35.4739 51.6864 41.228C51.8302 42.2415 52.0339 43.3442 52.3178 44.5118Z" fill="#333333"/>
<path d="M63.2309 59.6981C59.1845 55.8276 56.7634 51.6265 55.3228 47.806C55.0691 48.5527 54.7393 49.4244 54.3211 50.3653C55.897 53.8828 58.2901 57.6026 61.9157 61.0705C62.1 61.2468 62.3368 61.3344 62.5732 61.3344C62.8235 61.3344 63.0734 61.2361 63.2602 61.0414C63.6232 60.6623 63.6101 60.061 63.2309 59.6981ZM53.0016 32.6736C46.5303 32.6736 41.2656 25.9005 41.2656 17.5751C41.2656 9.24968 46.5303 2.47656 53.0016 2.47656C59.4728 2.47656 64.7375 9.24968 64.7375 17.5751C64.7375 25.9005 59.4728 32.6736 53.0016 32.6736ZM53.0016 5.32656C48.1034 5.32656 44.1184 10.8212 44.1184 17.5751C44.1184 24.329 48.1034 29.8236 53.0016 29.8236C57.8998 29.8236 61.8847 24.329 61.8847 17.5751C61.8847 10.8212 57.8998 5.32656 53.0016 5.32656Z" fill="#333333"/>
</g>
</svg>
