<svg width="15" height="15" viewBox="0 0 15 15" fill="none" xmlns="http://www.w3.org/2000/svg">
<path d="M7.5 11.25C7.7125 11.25 7.89075 11.178 8.03475 11.034C8.17875 10.89 8.2505 10.712 8.25 10.5V8.25H10.5187C10.7312 8.25 10.9062 8.178 11.0438 8.034C11.1813 7.89 11.25 7.712 11.25 7.5C11.25 7.2875 11.178 7.10925 11.034 6.96525C10.89 6.82125 10.712 6.7495 10.5 6.75H8.25V4.48125C8.25 4.26875 8.178 4.09375 8.034 3.95625C7.89 3.81875 7.712 3.75 7.5 3.75C7.2875 3.75 7.10925 3.822 6.96525 3.966C6.82125 4.11 6.7495 4.288 6.75 4.5V6.75H4.48125C4.26875 6.75 4.09375 6.822 3.95625 6.966C3.81875 7.11 3.75 7.288 3.75 7.5C3.75 7.7125 3.822 7.89075 3.966 8.03475C4.11 8.17875 4.288 8.2505 4.5 8.25H6.75V10.5187C6.75 10.7312 6.822 10.9062 6.966 11.0438C7.11 11.1813 7.288 11.25 7.5 11.25ZM7.5 15C6.4625 15 5.4875 14.803 4.575 14.409C3.6625 14.015 2.86875 13.4808 2.19375 12.8063C1.51875 12.1313 0.9845 11.3375 0.591 10.425C0.1975 9.5125 0.0005 8.5375 0 7.5C0 6.4625 0.197 5.4875 0.591 4.575C0.985 3.6625 1.51925 2.86875 2.19375 2.19375C2.86875 1.51875 3.6625 0.9845 4.575 0.591C5.4875 0.1975 6.4625 0.0005 7.5 0C8.5375 0 9.5125 0.197 10.425 0.591C11.3375 0.985 12.1313 1.51925 12.8063 2.19375C13.4813 2.86875 14.0157 3.6625 14.4097 4.575C14.8037 5.4875 15.0005 6.4625 15 7.5C15 8.5375 14.803 9.5125 14.409 10.425C14.015 11.3375 13.4808 12.1313 12.8063 12.8063C12.1313 13.4813 11.3375 14.0157 10.425 14.4097C9.5125 14.8037 8.5375 15.0005 7.5 15Z" fill="white"/>
</svg>
