<svg width="61" height="68" viewBox="0 0 61 68" fill="none" xmlns="http://www.w3.org/2000/svg">
<path d="M39.5018 3.59089C39.5018 2.63864 39.1235 1.72539 38.4503 1.05198C37.777 0.378582 36.8638 0.000178557 35.9116 0H3.59156C2.6392 0 1.72584 0.378325 1.05242 1.05175C0.378997 1.72517 0.000672963 2.63852 0.000672963 3.59089V7.2417H39.5031V3.59089H39.5018ZM20.6484 4.51874H12.5684C12.3303 4.51874 12.1019 4.42414 11.9335 4.25575C11.7651 4.08737 11.6706 3.85899 11.6706 3.62085C11.6706 3.38272 11.7651 3.15433 11.9335 2.98595C12.1019 2.81756 12.3303 2.72296 12.5684 2.72296H20.6484C20.8866 2.72296 21.115 2.81756 21.2833 2.98595C21.4517 3.15433 21.5463 3.38272 21.5463 3.62085C21.5463 3.85899 21.4517 4.08737 21.2833 4.25575C21.115 4.42414 20.8866 4.51874 20.6484 4.51874ZM26.9333 4.51874H25.1376C24.8994 4.51874 24.671 4.42414 24.5027 4.25575C24.3343 4.08737 24.2397 3.85899 24.2397 3.62085C24.2397 3.38272 24.3343 3.15433 24.5027 2.98595C24.671 2.81756 24.8994 2.72296 25.1376 2.72296H26.9333C27.1715 2.72296 27.3998 2.81756 27.5682 2.98595C27.7366 3.15433 27.8312 3.38272 27.8312 3.62085C27.8312 3.85899 27.7366 4.08737 27.5682 4.25575C27.3998 4.42414 27.1715 4.51874 26.9333 4.51874ZM0 63.7424C0 64.6948 0.378324 65.6082 1.05175 66.2816C1.72517 66.955 2.63852 67.3333 3.59089 67.3333H35.9109C36.3825 67.3334 36.8495 67.2406 37.2853 67.0602C37.721 66.8798 38.1169 66.6153 38.4505 66.2818C38.784 65.9484 39.0485 65.5525 39.229 65.1168C39.4095 64.6811 39.5024 64.2141 39.5024 63.7424V53.9744H0V63.7424ZM19.7509 57.133C20.6849 57.133 21.5806 57.504 22.241 58.1644C22.9014 58.8249 23.2724 59.7206 23.2724 60.6545C23.2724 61.5885 22.9014 62.4842 22.241 63.1446C21.5806 63.8051 20.6849 64.1761 19.7509 64.1761C18.8169 64.1761 17.9212 63.8051 17.2608 63.1446C16.6004 62.4842 16.2294 61.5885 16.2294 60.6545C16.2294 59.7206 16.6004 58.8249 17.2608 58.1644C17.9212 57.504 18.8169 57.133 19.7509 57.133Z" fill="#D8D9DA"/>
<path d="M0 7.24219V53.9756H39.5024V42.574H30.2455L25.2271 45.2997L24.7457 42.574H22.4442C20.9568 42.574 19.7509 40.4705 19.7509 38.9831V21.3364C19.7509 20.6221 20.0346 19.937 20.5397 19.4319C21.0448 18.9268 21.7299 18.6431 22.4442 18.6431H39.5024V7.24219H0Z" fill="#EBF0F3"/>
<path d="M19.7474 64.1745C21.6919 64.1745 23.2683 62.5982 23.2683 60.6537C23.2683 58.7092 21.6919 57.1328 19.7474 57.1328C17.8029 57.1328 16.2266 58.7092 16.2266 60.6537C16.2266 62.5982 17.8029 64.1745 19.7474 64.1745Z" fill="#434A4F"/>
<path d="M20.6459 2.72266H12.5659C12.3277 2.72266 12.0993 2.81725 11.931 2.98564C11.7626 3.15403 11.668 3.38241 11.668 3.62055C11.668 3.85868 11.7626 4.08706 11.931 4.25545C12.0993 4.42384 12.3277 4.51844 12.5659 4.51844H20.6459C20.884 4.51844 21.1124 4.42384 21.2808 4.25545C21.4491 4.08706 21.5437 3.85868 21.5437 3.62055C21.5437 3.38241 21.4491 3.15403 21.2808 2.98564C21.1124 2.81725 20.884 2.72266 20.6459 2.72266ZM26.9308 2.72266H25.135C24.8968 2.72266 24.6685 2.81725 24.5001 2.98564C24.3317 3.15403 24.2371 3.38241 24.2371 3.62055C24.2371 3.85868 24.3317 4.08706 24.5001 4.25545C24.6685 4.42384 24.8968 4.51844 25.135 4.51844H26.9308C27.1689 4.51844 27.3973 4.42384 27.5657 4.25545C27.734 4.08706 27.8286 3.85868 27.8286 3.62055C27.8286 3.38241 27.734 3.15403 27.5657 2.98564C27.3973 2.81725 27.1689 2.72266 26.9308 2.72266Z" fill="#434A4F"/>
<path d="M19.75 21.3372V38.9839C19.75 40.472 20.9559 42.5748 22.4433 42.5748H24.7448L25.2262 45.3004L30.2446 42.5748H57.8331C58.5474 42.5748 59.2324 42.291 59.7375 41.7859C60.2426 41.2808 60.5264 40.5958 60.5264 39.8815V21.3379C60.5264 20.6235 60.2426 19.9385 59.7375 19.4334C59.2324 18.9283 58.5474 18.6445 57.8331 18.6445H22.4433C21.729 18.6445 21.044 18.9283 20.5389 19.4334C20.0338 19.9385 19.75 20.6229 19.75 21.3372ZM52.707 35.9957H41.9336C41.8158 35.9957 41.6991 35.9724 41.5902 35.9273C41.4813 35.8822 41.3823 35.8161 41.299 35.7328C41.2156 35.6494 41.1495 35.5505 41.1044 35.4416C41.0593 35.3327 41.0361 35.216 41.0361 35.0981C41.0361 34.9802 41.0593 34.8635 41.1044 34.7546C41.1495 34.6457 41.2156 34.5468 41.299 34.4634C41.3823 34.3801 41.4813 34.314 41.5902 34.2689C41.6991 34.2238 41.8158 34.2006 41.9336 34.2006H52.707C52.9451 34.2006 53.1735 34.2951 53.3419 34.4635C53.5103 34.6319 53.6049 34.8603 53.6049 35.0984C53.6049 35.3366 53.5103 35.565 53.3419 35.7333C53.1735 35.9017 52.9451 35.9957 52.707 35.9957ZM27.5694 25.223H38.3428C38.581 25.223 38.8094 25.3176 38.9779 25.4861C39.1463 25.6545 39.241 25.883 39.241 26.1212C39.241 26.3594 39.1463 26.5879 38.9779 26.7564C38.8094 26.9248 38.581 27.0195 38.3428 27.0195H27.5694C27.3313 27.0195 27.1029 26.9249 26.9345 26.7565C26.7661 26.5881 26.6715 26.3597 26.6715 26.1216C26.6715 25.8834 26.7661 25.655 26.9345 25.4867C27.1029 25.3183 27.3313 25.223 27.5694 25.223ZM27.5694 29.7128H52.707C52.945 29.7128 53.1733 29.8073 53.3416 29.9757C53.51 30.144 53.6045 30.3723 53.6045 30.6103C53.6045 30.8484 53.51 31.0767 53.3416 31.245C53.1733 31.4133 52.945 31.5079 52.707 31.5079H27.5694C27.3314 31.5079 27.1031 31.4133 26.9348 31.245C26.7664 31.0767 26.6719 30.8484 26.6719 30.6103C26.6719 30.3723 26.7664 30.144 26.9348 29.9757C27.1031 29.8073 27.3314 29.7128 27.5694 29.7128Z" fill="#B31F86"/>
<path d="M27.5698 31.5069H52.7073C52.8252 31.5069 52.9419 31.4837 53.0508 31.4386C53.1597 31.3934 53.2586 31.3273 53.342 31.244C53.4253 31.1606 53.4914 31.0617 53.5365 30.9528C53.5817 30.8439 53.6049 30.7272 53.6049 30.6093C53.6049 30.4915 53.5817 30.3747 53.5365 30.2658C53.4914 30.1569 53.4253 30.058 53.342 29.9747C53.2586 29.8913 53.1597 29.8252 53.0508 29.7801C52.9419 29.735 52.8252 29.7118 52.7073 29.7118H27.5698C27.3317 29.7118 27.1034 29.8063 26.9351 29.9747C26.7668 30.143 26.6722 30.3713 26.6722 30.6093C26.6722 30.8474 26.7668 31.0757 26.9351 31.244C27.1034 31.4123 27.3317 31.5069 27.5698 31.5069ZM27.5698 27.0184H38.3431C38.5812 27.0184 38.8096 26.9238 38.978 26.7555C39.1464 26.5871 39.241 26.3587 39.241 26.1205C39.241 25.8824 39.1464 25.654 38.978 25.4856C38.8096 25.3173 38.5812 25.2227 38.3431 25.2227H27.5698C27.3316 25.2227 27.1033 25.3173 26.9349 25.4856C26.7665 25.654 26.6719 25.8824 26.6719 26.1205C26.6719 26.3587 26.7665 26.5871 26.9349 26.7555C27.1033 26.9238 27.3316 27.0184 27.5698 27.0184ZM52.7073 34.2002H41.934C41.6959 34.2002 41.4675 34.2948 41.2991 34.4632C41.1307 34.6316 41.0361 34.86 41.0361 35.0981C41.0361 35.3362 41.1307 35.5646 41.2991 35.733C41.4675 35.9014 41.6959 35.996 41.934 35.996H52.7073C52.9455 35.996 53.1738 35.9014 53.3422 35.733C53.5106 35.5646 53.6052 35.3362 53.6052 35.0981C53.6052 34.86 53.5106 34.6316 53.3422 34.4632C53.1738 34.2948 52.9455 34.2002 52.7073 34.2002Z" fill="#E1E6E9"/>
</svg>
