<svg width="40" height="40" viewBox="0 0 40 40" fill="none" xmlns="http://www.w3.org/2000/svg">
<path d="M33.125 13.125H6.875C6.18464 13.125 5.625 13.6846 5.625 14.375V31.875C5.625 32.5654 6.18464 33.125 6.875 33.125H33.125C33.8154 33.125 34.375 32.5654 34.375 31.875V14.375C34.375 13.6846 33.8154 13.125 33.125 13.125Z" fill="#9E836C"/>
<path d="M34.375 14.375V31.875C34.375 32.0392 34.3427 32.2017 34.2799 32.3534C34.2171 32.5051 34.1251 32.6429 34.009 32.759C33.8929 32.8751 33.7551 32.9671 33.6034 33.0299C33.4517 33.0927 33.2892 33.125 33.125 33.125H24.375V13.125H33.125C33.2892 13.1249 33.4517 13.1572 33.6034 13.22C33.7551 13.2828 33.8929 13.3749 34.009 13.491C34.1251 13.6071 34.2172 13.7449 34.28 13.8966C34.3428 14.0483 34.3751 14.2108 34.375 14.375Z" fill="#8E7359"/>
<path d="M36.3509 30.625H24.375C24.8723 30.625 25.3492 30.4275 25.7008 30.0758C26.0525 29.7242 26.25 29.2473 26.25 28.75C26.25 28.2527 26.0525 27.7758 25.7008 27.4242C25.3492 27.0725 24.8723 26.875 24.375 26.875H16.6605C16.3322 26.875 16.0071 26.9397 15.7038 27.0653C15.4005 27.191 15.1249 27.3751 14.8927 27.6073L13.2323 29.2677C13.0001 29.4999 12.7245 29.684 12.4212 29.8097C12.1179 29.9353 11.7928 30 11.4645 30H1.25V36.25H12.0943C12.363 36.25 12.63 36.2933 12.8849 36.3783L15.9699 37.4066C18.5972 38.2824 21.4255 38.3568 24.0952 37.6203L36.8227 34.1092C37.197 34.006 37.5271 33.7827 37.7624 33.4738C37.9976 33.1649 38.125 32.7873 38.125 32.3991C38.125 31.9286 37.9381 31.4773 37.6054 31.1446C37.2727 30.8119 36.8214 30.625 36.3509 30.625Z" fill="#DBC7B2"/>
<path d="M23.75 30H16.875C16.5298 30 16.25 30.2798 16.25 30.625C16.25 30.9702 16.5298 31.25 16.875 31.25H23.75C24.0952 31.25 24.375 30.9702 24.375 30.625C24.375 30.2798 24.0952 30 23.75 30Z" fill="#CEB99F"/>
<path d="M9.375 13.125H14.375V20.625H9.375V13.125Z" fill="#DBC7B2"/>
<path d="M27.5 14.375H21.875L20 16.875L18.125 14.375H12.5C12.1685 14.375 11.8505 14.2433 11.6161 14.0089C11.3817 13.7745 11.25 13.4565 11.25 13.125V3.125C11.25 2.79348 11.3817 2.47554 11.6161 2.24112C11.8505 2.0067 12.1685 1.875 12.5 1.875H27.5C27.8315 1.875 28.1495 2.0067 28.3839 2.24112C28.6183 2.47554 28.75 2.79348 28.75 3.125V13.125C28.75 13.4565 28.6183 13.7745 28.3839 14.0089C28.1495 14.2433 27.8315 14.375 27.5 14.375Z" fill="#54A7D1"/>
<path d="M13.75 4.375H26.25V5.625H13.75V4.375ZM13.75 7.5H26.25V8.75H13.75V7.5ZM13.75 10.625H22.5V11.875H13.75V10.625Z" fill="#95D9EF"/>
</svg>
