<svg width="55" height="61" viewBox="0 0 55 61" fill="none" xmlns="http://www.w3.org/2000/svg">
<path d="M54.0799 35.6018C54.0799 36.593 53.7177 37.5904 52.9743 38.3657L39.4153 52.6299C36.8483 55.3302 33.2839 56.8615 29.5605 56.8615H12.418L13.3012 38.7023H29.5859C31.3841 38.7023 32.8391 40.1637 32.8391 41.9619C32.8391 42.305 32.7883 42.6418 32.6867 42.953L32.8391 42.9213L47.7259 32.3232C49.2509 31.2367 51.3223 31.3511 52.72 32.5838C53.6226 33.3843 54.0799 34.4899 54.0799 35.6018Z" fill="#EFE9E5"/>
<path d="M12.4191 37.7734V57.3578C12.4191 59.0168 11.0741 60.3617 9.41518 60.3617H3.64061C1.98165 60.3617 0.636719 59.0168 0.636719 57.3578V37.7734C0.636719 36.1145 1.98165 34.7695 3.64061 34.7695H9.41518C11.0741 34.7695 12.4191 36.1145 12.4191 37.7734Z" fill="#333C54"/>
<path opacity="0.35" d="M11.4509 59.5623C10.9171 60.0579 10.1992 60.3628 9.41778 60.3628H3.64214C1.98383 60.3628 0.636719 59.0157 0.636719 57.3574V37.7749C0.636719 36.1166 1.98361 34.7695 3.64214 34.7695H6.05664C5.24963 37.2286 4.81138 39.8589 4.81138 42.5846C4.81138 49.136 7.32752 55.1021 11.4509 59.5623Z" fill="white"/>
<path d="M41.7848 21.4278L41.7853 21.441C41.8715 23.6144 40.4544 25.5629 38.3603 26.1506L38.3496 26.1536C37.269 26.4568 36.3326 27.1369 35.7099 28.0708L35.7041 28.0795C34.4962 29.8911 32.2018 30.6356 30.1604 29.8776L30.1558 29.8759C29.101 29.4843 27.9409 29.4843 26.8861 29.8759L26.8852 29.8763C24.8423 30.6347 22.5459 29.8885 21.3389 28.074C20.7163 27.138 19.7787 26.4563 18.6964 26.1527L18.6883 26.1506C16.5942 25.5629 15.1771 23.6147 15.2633 21.4412L15.264 21.423C15.3083 20.3032 14.951 19.2044 14.2563 18.3248L14.2496 18.3161C12.9012 16.609 12.9012 14.1995 14.2496 12.4923L14.2563 12.4836C14.951 11.6041 15.3083 10.5054 15.264 9.38545L15.2633 9.36721C15.1771 7.19377 16.5942 5.24553 18.6883 4.65787L18.6964 4.6557C19.7787 4.35209 20.7163 3.6704 21.3389 2.73439C22.5459 0.919936 24.8423 0.173738 26.8852 0.932097L26.8861 0.932531C27.9409 1.32409 29.101 1.32409 30.1558 0.932531L30.1604 0.930793C32.2018 0.173086 34.4962 0.917328 35.7041 2.72896L35.7099 2.73765C36.3326 3.67148 37.269 4.35166 38.3496 4.65483L38.3603 4.65787C40.4547 5.24553 41.8717 7.19398 41.7853 9.36742L41.7848 9.38089C41.7405 10.4995 42.0969 11.5973 42.7903 12.4762L42.8053 12.4951C44.1507 14.2012 44.1507 16.6072 42.8053 18.3133L42.7903 18.3322C42.0969 19.2113 41.7403 20.3091 41.7848 21.4278Z" fill="#FC575B"/>
<path opacity="0.35" d="M38.5054 26.0985C38.4609 26.1239 38.4101 26.1367 38.3592 26.1493L38.3529 26.1556C37.2727 26.4605 36.3324 27.1405 35.7098 28.0746L35.7035 28.0809C34.4962 29.8916 32.2025 30.635 30.163 29.879H30.1567C29.1019 29.4851 27.9392 29.4851 26.8844 29.879C26.3506 30.076 25.7979 30.1713 25.2515 30.1713C23.7139 30.1713 22.2272 29.4151 21.3376 28.0746C20.715 27.1405 19.781 26.4542 18.6945 26.1556L18.6882 26.1493C16.5977 25.5647 15.1809 23.6141 15.2636 21.4411V21.422C15.3081 20.3038 14.9522 19.2045 14.2596 18.3277L14.2533 18.3149C12.8999 16.6121 12.8999 14.1976 14.2533 12.4948L14.2596 12.4822C14.9522 11.6052 15.3079 10.5061 15.2636 9.38792V9.36903C15.1937 7.51374 16.2168 5.82351 17.8178 5.00391C19.3297 15.8055 27.7739 24.3831 38.5054 26.0985Z" fill="white"/>
<path d="M36.9772 17.4049C38.0789 12.7391 35.1897 8.06355 30.5239 6.9618C25.8581 5.86006 21.1826 8.7493 20.0808 13.4151C18.9791 18.0809 21.8683 22.7564 26.5341 23.8582C31.1999 24.9599 35.8754 22.0707 36.9772 17.4049Z" fill="#EFE9E5"/>
<path d="M31.4585 17.2743L31.5638 17.8876C31.7456 18.9465 30.6345 19.7546 29.6831 19.2554L29.1295 18.965C28.7521 18.7669 28.3013 18.7669 27.924 18.9652L27.3744 19.2538C26.423 19.7535 25.3113 18.9455 25.4932 17.8863L25.5984 17.275C25.6707 16.8539 25.531 16.4243 25.2248 16.1264L24.7803 15.6935C24.0102 14.9437 24.4341 13.6363 25.4978 13.4812L26.1133 13.3915C26.5354 13.3299 26.9003 13.0647 27.089 12.682L27.3635 12.1254C27.8391 11.1614 29.2138 11.1612 29.6894 12.1254L29.9639 12.682C30.1526 13.0647 30.5175 13.3301 30.9397 13.3915L31.5571 13.4817C32.6203 13.6367 33.0445 14.9434 32.275 15.6935L31.8307 16.1266C31.5256 16.4241 31.3862 16.8537 31.4585 17.2743Z" fill="#FBCA43"/>
<path d="M3.64086 61H9.41628C11.3773 61 12.9766 59.4407 13.05 57.4973H29.5595C33.4401 57.4973 37.1982 55.8843 39.8714 53.072L53.4295 38.8074C55.2455 36.8965 55.1193 33.8631 53.1392 32.1129C51.508 30.6709 49.1302 30.5458 47.3561 31.8075L33.4588 41.6994C33.3226 39.6763 31.6374 38.0707 29.5803 38.0707C12.2773 38.0896 13.2826 38.026 13.0567 38.12V37.7769C13.0567 35.7694 11.4236 34.1362 9.41607 34.1362H3.64064C1.63312 34.1362 0 35.7694 0 37.7769V49.0865C0 49.4374 0.284492 49.7219 0.635439 49.7219C0.986386 49.7219 1.27088 49.4374 1.27088 49.0865V37.7769C1.27088 36.4702 2.33415 35.4069 3.64086 35.4069H9.41628C10.723 35.4069 11.7863 36.4702 11.7863 37.7769C11.7808 60.2106 11.7863 56.4138 11.7863 57.3591C11.7863 58.6659 10.723 59.7291 9.41628 59.7291H3.64086C2.33415 59.7291 1.27088 58.6659 1.27088 57.3591V53.1975C1.27088 52.8466 0.986386 52.5621 0.635439 52.5621C0.284492 52.5621 0 52.8466 0 53.1975V57.3591C0.00021717 59.3669 1.63334 61 3.64086 61ZM29.5805 39.3416C31.0256 39.3416 32.2016 40.5171 32.2016 41.9622C32.2016 43.4072 31.0258 44.5828 29.5805 44.5828H22.1644C21.8134 44.5828 21.529 44.8673 21.529 45.2182C21.529 45.5692 21.8134 45.8537 22.1644 45.8537H29.5805C31.1976 45.8537 32.5868 44.8616 33.1736 43.4546C34.4443 42.6513 28.9117 46.4869 48.0934 32.843C49.3821 31.9259 51.1115 32.0165 52.2979 33.0647C53.7268 34.3284 53.838 36.5323 52.5087 37.9317L38.9506 52.1964C36.5163 54.7574 33.0933 56.2264 29.5595 56.2264H13.0569V39.2921C13.2828 39.3863 12.274 39.3227 29.5805 39.3416ZM14.6279 21.417C14.5296 23.8949 16.1284 26.0934 18.5242 26.7657C19.46 27.0283 20.2711 27.6183 20.809 28.4271C22.1859 30.4969 24.7746 31.3369 27.1061 30.4728C28.0176 30.134 29.0215 30.1347 29.9387 30.4748C32.2761 31.3428 34.8606 30.4897 36.2379 28.4247C36.7765 27.6175 37.5867 27.0285 38.5319 26.7635C42.6281 25.6138 42.3988 21.4659 42.4192 21.4023C42.3808 20.4365 42.6898 19.4866 43.3033 18.708C44.8365 16.7635 44.8365 14.0476 43.2883 12.0841C42.6896 11.3243 42.3806 10.3737 42.4197 9.39404C42.5182 6.91613 40.9192 4.71772 38.5206 4.04449C37.5867 3.78258 36.7765 3.19383 36.2323 2.37793C34.8547 0.311985 32.2643 -0.528031 29.9343 0.338044C29.0222 0.676178 28.0189 0.676613 27.1055 0.337827C24.7772 -0.526728 22.1863 0.314156 20.809 2.38422C20.2707 3.19297 19.4595 3.78302 18.5159 4.04775C16.1279 4.71793 14.5293 6.91635 14.6284 9.41207C14.6666 10.38 14.3571 11.3316 13.7501 12.1C12.2128 14.046 12.2128 16.7648 13.7569 18.7202C14.3573 19.4796 14.6666 20.4311 14.6279 21.417ZM14.7541 12.879C15.5422 11.8815 15.9485 10.6321 15.8973 9.34344C15.8226 7.45602 17.0405 5.78163 18.8673 5.26868C20.0952 4.92424 21.1606 4.15003 21.8671 3.08764C22.916 1.51163 24.8888 0.870328 26.6644 1.52922C27.8608 1.97312 29.1805 1.97355 30.3804 1.5277C32.1531 0.870981 34.1257 1.50881 35.1805 3.09133C35.8872 4.15112 36.9513 4.92403 38.1881 5.27107C40.0073 5.78142 41.2254 7.45602 41.1496 9.35669C41.0988 10.6256 41.5038 11.8735 42.3056 12.8898C43.4734 14.3709 43.4734 16.4404 42.2907 17.9403C41.5038 18.9378 41.0986 20.1857 41.1496 21.4544C41.238 23.3116 40.0349 25.0218 38.1768 25.543C36.9513 25.887 35.8872 26.66 35.1749 27.7284C34.1257 29.3023 32.1549 29.942 30.376 29.2814C29.1803 28.8373 27.8612 28.8369 26.6637 29.2816C24.8871 29.939 22.916 29.2999 21.8671 27.7232C21.1611 26.6613 20.0958 25.8866 18.8593 25.5398C17.0407 25.0294 15.8226 23.3548 15.898 21.4489C15.9486 20.1785 15.542 18.9298 14.7472 17.9236C13.5764 16.4408 13.5764 14.3698 14.7541 12.879Z" fill="black"/>
<path d="M28.5273 24.7217C33.6636 24.7217 37.8426 20.5425 37.8426 15.4058C37.8426 10.2691 33.6636 6.08984 28.5273 6.08984C23.3904 6.08984 19.2109 10.2691 19.2109 15.4058C19.2109 20.5425 23.3904 24.7217 28.5273 24.7217ZM28.5273 7.36051C32.9632 7.36051 36.572 10.9697 36.572 15.4058C36.572 19.8419 32.9632 23.4511 28.5273 23.4511C24.0912 23.4511 20.4818 19.8419 20.4818 15.4058C20.4818 10.9697 24.0912 7.36051 28.5273 7.36051Z" fill="black"/>
<path d="M24.7804 16.5835C24.9367 16.7357 25.0078 16.9546 24.9706 17.1699L24.8657 17.781C24.5956 19.3581 26.2524 20.564 27.6687 19.8183L28.2184 19.5296C28.4102 19.4289 28.6404 19.4282 28.8332 19.5296L29.3868 19.8198C30.8032 20.5634 32.4604 19.3579 32.1883 17.7827L32.0834 17.1694V17.1686C32.0467 16.9542 32.1175 16.7355 32.2738 16.5835L32.7182 16.1505C33.862 15.0346 33.2339 13.0864 31.6477 12.8547L31.0303 12.7648C30.8151 12.7335 30.6288 12.5984 30.5328 12.4028L30.2578 11.8468C29.5503 10.4109 27.5013 10.4102 26.7931 11.8462L26.5175 12.4034C26.422 12.5986 26.2358 12.7335 26.02 12.7648L25.4052 12.8545C23.8211 13.0858 23.189 15.0353 24.336 16.1509L24.7804 16.5835ZM25.5889 14.1121L26.2033 14.0224C26.8331 13.931 27.3766 13.5353 27.6577 12.9654L27.9326 12.4082C28.1608 11.9465 28.8905 11.9458 29.119 12.4088L29.3933 12.9648C29.6743 13.5353 30.2179 13.9306 30.847 14.0224L31.4644 14.1123C32.0091 14.1912 32.2241 14.8581 31.8312 15.2403L31.3869 15.6731C30.9315 16.1175 30.7237 16.7568 30.8316 17.3836L30.9365 17.9979C31.0292 18.5398 30.4622 18.9509 29.9779 18.6948L29.4239 18.4045C28.8625 18.1102 28.1908 18.1096 27.6281 18.4051L27.0785 18.6937C26.5935 18.9481 26.0256 18.5398 26.1186 17.996L26.2235 17.3855C26.3321 16.7579 26.1236 16.1179 25.6675 15.6736L25.223 15.2405C24.8303 14.8585 25.0431 14.1912 25.5889 14.1121Z" fill="black"/>
</svg>
