<svg width="66" height="66" viewBox="0 0 66 66" fill="none" xmlns="http://www.w3.org/2000/svg">
<path d="M54.7984 54.4508C54.7984 56.7601 52.9077 58.6501 50.5984 58.6501H19.0984C16.7891 58.6501 14.8984 56.7601 14.8984 54.4508V15.2508C14.8984 12.9401 16.7891 11.0508 19.0984 11.0508H50.5998C52.9098 11.0508 54.7998 12.9408 54.7998 15.2508L54.7984 54.4508Z" fill="#B31F86"/>
<path d="M14.8992 15.2516C14.8992 12.9409 16.7899 11.0516 19.0992 11.0516H47.1006V7.55156C47.1006 5.24156 45.2106 3.35156 42.9006 3.35156H11.3992C9.08992 3.35156 7.19922 5.24156 7.19922 7.55156V46.7516C7.19922 49.0609 9.08992 50.9509 11.3992 50.9509H14.8992V15.2516Z" fill="#EBF0F3"/>
<path d="M24.7023 28.1937H45.7009C46.2805 28.1937 46.7509 27.7233 46.7509 27.1438C46.7509 26.5634 46.2805 26.0938 45.7009 26.0938H24.7023C24.1227 26.0938 23.6523 26.5634 23.6523 27.1438C23.6523 27.7233 24.1227 28.1937 24.7023 28.1937ZM24.7023 21.1937H45.7009C46.2805 21.1937 46.7509 20.7233 46.7509 20.1437C46.7509 19.5635 46.2805 19.0938 45.7009 19.0938H24.7023C24.1227 19.0938 23.6523 19.5635 23.6523 20.1437C23.6523 20.7233 24.1227 21.1937 24.7023 21.1937ZM24.7023 35.1938H45.7009C46.2805 35.1938 46.7509 34.7233 46.7509 34.1438C46.7509 33.5634 46.2805 33.0938 45.7009 33.0938H24.7023C24.1227 33.0938 23.6523 33.5634 23.6523 34.1438C23.6523 34.7233 24.1227 35.1938 24.7023 35.1938Z" fill="#EBF0F3"/>
<path d="M33.6398 46.9672C33.7413 46.5591 33.8008 46.1349 33.8008 45.6953C33.8008 42.7952 31.4502 40.4453 28.5508 40.4453C25.6514 40.4453 23.3008 42.7952 23.3008 45.6953C23.3008 48.5954 25.6514 50.9453 28.5508 50.9453C28.9904 50.9453 29.4146 50.8858 29.822 50.7836L28.5508 45.6953L33.6398 46.9672Z" fill="#EBF0F3"/>
<path d="M33.6398 46.9672L28.5508 45.6953L29.822 50.7836C31.698 50.3153 33.1715 48.8425 33.6398 46.9672Z" fill="#70ADC9"/>
<path d="M41.8477 46.0469V50.2469C41.8477 50.8265 42.3181 51.2969 42.8977 51.2969C43.4773 51.2969 43.9477 50.8265 43.9477 50.2469V46.0469C43.9477 45.4666 43.4773 44.9969 42.8977 44.9969C42.3181 44.9969 41.8477 45.4666 41.8477 46.0469ZM38.3477 41.8469V50.2469C38.3477 50.8265 38.8181 51.2969 39.3977 51.2969C39.9773 51.2969 40.4477 50.8265 40.4477 50.2469V41.8469C40.4477 41.2666 39.9773 40.7969 39.3977 40.7969C38.8181 40.7969 38.3477 41.2666 38.3477 41.8469ZM45.3477 43.9469V50.2469C45.3477 50.8265 45.8181 51.2969 46.3977 51.2969C46.9773 51.2969 47.4477 50.8265 47.4477 50.2469V43.9469C47.4477 43.3666 46.9773 42.8969 46.3977 42.8969C45.8181 42.8969 45.3477 43.3666 45.3477 43.9469Z" fill="#EBF0F3"/>
</svg>
