<svg width="32" height="31" viewBox="0 0 32 31" fill="none" xmlns="http://www.w3.org/2000/svg">
<path d="M25.457 4.82227H24.0381C23.9127 4.82227 23.7924 4.87209 23.7037 4.96079C23.615 5.04948 23.5652 5.16978 23.5652 5.29521V25.159C23.5652 25.2845 23.5154 25.4048 23.4267 25.4934C23.338 25.5821 23.2177 25.632 23.0922 25.632H7.01201C6.88658 25.632 6.76628 25.6818 6.67759 25.7705C6.58889 25.8592 6.53906 25.9795 6.53906 26.1049V27.0508C6.53906 27.4271 6.68855 27.788 6.95463 28.0541C7.22072 28.3202 7.58161 28.4697 7.95791 28.4697H25.457C25.8333 28.4697 26.1942 28.3202 26.4602 28.0541C26.7263 27.788 26.8758 27.4271 26.8758 27.0508V6.24111C26.8758 5.86481 26.7263 5.50392 26.4602 5.23784C26.1942 4.97175 25.8333 4.82227 25.457 4.82227Z" fill="#74CDFC"/>
<path d="M23.0931 1.98438H10.7681C10.723 1.98881 10.6786 1.99833 10.6357 2.01275H10.5884C10.5354 2.03684 10.4873 2.07051 10.4465 2.11207L5.24406 7.78744C5.21106 7.82923 5.184 7.87539 5.16366 7.9246C5.16165 7.93872 5.16165 7.95305 5.16366 7.96716C5.15115 8.00389 5.14321 8.04201 5.14001 8.08067L5.12109 8.1327V25.1588C5.12109 25.5351 5.27058 25.896 5.53666 26.1621C5.80275 26.4282 6.16364 26.5777 6.53994 26.5777H23.0931C23.4694 26.5777 23.8303 26.4282 24.0964 26.1621C24.3625 25.896 24.512 25.5351 24.512 25.1588V3.40322C24.512 3.02692 24.3625 2.66603 24.0964 2.39994C23.8303 2.13386 23.4694 1.98438 23.0931 1.98438Z" fill="#4F565C"/>
<path d="M18.3636 10.0238C18.2381 10.0238 18.1178 9.97399 18.0291 9.88529C17.9405 9.7966 17.8906 9.6763 17.8906 9.55087V6.71318C17.8906 6.58775 17.9405 6.46745 18.0291 6.37876C18.1178 6.29006 18.2381 6.24023 18.3636 6.24023C18.489 6.24023 18.6093 6.29006 18.698 6.37876C18.7867 6.46745 18.8365 6.58775 18.8365 6.71318V9.55087C18.8365 9.6763 18.7867 9.7966 18.698 9.88529C18.6093 9.97399 18.489 10.0238 18.3636 10.0238Z" fill="#E8C8F0"/>
<path d="M19.7857 8.60605H16.948C16.8226 8.60605 16.7023 8.55622 16.6136 8.46753C16.5249 8.37883 16.475 8.25854 16.475 8.1331C16.475 8.00767 16.5249 7.88737 16.6136 7.79868C16.7023 7.70998 16.8226 7.66016 16.948 7.66016H19.7857C19.9111 7.66016 20.0314 7.70998 20.1201 7.79868C20.2088 7.88737 20.2586 8.00767 20.2586 8.1331C20.2586 8.25854 20.2088 8.37883 20.1201 8.46753C20.0314 8.55622 19.9111 8.60605 19.7857 8.60605ZM16.948 13.3355C16.8607 13.3353 16.7751 13.3108 16.7008 13.2649C16.6265 13.219 16.5664 13.1534 16.5271 13.0754L15.0562 10.1384L13.5853 13.0754C13.5603 13.1354 13.5232 13.1897 13.4763 13.2347C13.4294 13.2798 13.3737 13.3147 13.3127 13.3372C13.2517 13.3598 13.1867 13.3695 13.1218 13.3658C13.0568 13.3621 12.9934 13.345 12.9353 13.3157C12.8773 13.2863 12.8259 13.2453 12.7844 13.1952C12.743 13.1451 12.7123 13.087 12.6943 13.0245C12.6763 12.962 12.6713 12.8965 12.6798 12.832C12.6883 12.7675 12.71 12.7055 12.7435 12.6498L14.6353 8.86617C14.675 8.7887 14.7353 8.72369 14.8095 8.67829C14.8838 8.63289 14.9692 8.60887 15.0562 8.60887C15.1432 8.60887 15.2286 8.63289 15.3029 8.67829C15.3771 8.72369 15.4374 8.7887 15.4771 8.86617L17.3689 12.6498C17.425 12.7615 17.4346 12.8908 17.3956 13.0096C17.3566 13.1283 17.2722 13.2268 17.1608 13.2835C17.0954 13.3185 17.0222 13.3364 16.948 13.3355Z" fill="#E8C8F0"/>
<path d="M16.2361 11.9166H13.8714C13.746 11.9166 13.6257 11.8668 13.537 11.7781C13.4483 11.6894 13.3984 11.5691 13.3984 11.4437C13.3984 11.3182 13.4483 11.1979 13.537 11.1092C13.6257 11.0205 13.746 10.9707 13.8714 10.9707H16.2361C16.3616 10.9707 16.4819 11.0205 16.5705 11.1092C16.6592 11.1979 16.7091 11.3182 16.7091 11.4437C16.7091 11.5691 16.6592 11.6894 16.5705 11.7781C16.4819 11.8668 16.3616 11.9166 16.2361 11.9166Z" fill="#E8C8F0"/>
<path d="M15.0532 15.7006C13.9243 15.7006 12.8416 15.2521 12.0434 14.4539C11.2451 13.6556 10.7967 12.5729 10.7967 11.444C10.7967 10.3151 11.2451 9.23246 12.0434 8.43421C12.8416 7.63595 13.9243 7.1875 15.0532 7.1875C15.1786 7.1875 15.2989 7.23733 15.3876 7.32602C15.4763 7.41472 15.5261 7.53501 15.5261 7.66045C15.5261 7.78588 15.4763 7.90618 15.3876 7.99487C15.2989 8.08357 15.1786 8.1334 15.0532 8.1334C14.3984 8.1334 13.7583 8.32756 13.2139 8.69134C12.6695 9.05511 12.2451 9.57217 11.9946 10.1771C11.744 10.782 11.6784 11.4477 11.8062 12.0899C11.9339 12.7321 12.2492 13.322 12.7122 13.785C13.1752 14.248 13.7651 14.5633 14.4073 14.6911C15.0495 14.8188 15.7152 14.7532 16.3201 14.5027C16.9251 14.2521 17.4421 13.8278 17.8059 13.2833C18.1697 12.7389 18.3638 12.0988 18.3638 11.444C18.3638 11.3186 18.4137 11.1983 18.5024 11.1096C18.5911 11.0209 18.7113 10.9711 18.8368 10.9711C18.9622 10.9711 19.0825 11.0209 19.1712 11.1096C19.2599 11.1983 19.3097 11.3186 19.3097 11.444C19.3097 12.5729 18.8613 13.6556 18.063 14.4539C17.2648 15.2521 16.1821 15.7006 15.0532 15.7006ZM21.2015 19.4841H8.43193C8.3065 19.4841 8.1862 19.4343 8.09751 19.3456C8.00881 19.2569 7.95898 19.1366 7.95898 19.0112C7.95898 18.8858 8.00881 18.7655 8.09751 18.6768C8.1862 18.5881 8.3065 18.5382 8.43193 18.5382H21.2015C21.327 18.5382 21.4473 18.5881 21.5359 18.6768C21.6246 18.7655 21.6745 18.8858 21.6745 19.0112C21.6745 19.1366 21.6246 19.2569 21.5359 19.3456C21.4473 19.4343 21.327 19.4841 21.2015 19.4841ZM19.3097 22.3218H10.3237C10.1983 22.3218 10.078 22.272 9.9893 22.1833C9.9006 22.0946 9.85078 21.9743 9.85078 21.8489C9.85078 21.7234 9.9006 21.6032 9.9893 21.5145C10.078 21.4258 10.1983 21.3759 10.3237 21.3759H19.3097C19.4352 21.3759 19.5555 21.4258 19.6442 21.5145C19.7329 21.6032 19.7827 21.7234 19.7827 21.8489C19.7827 21.9743 19.7329 22.0946 19.6442 22.1833C19.5555 22.272 19.4352 22.3218 19.3097 22.3218Z" fill="#E8C8F0"/>
</svg>
