<svg width="32" height="31" viewBox="0 0 32 31" fill="none" xmlns="http://www.w3.org/2000/svg">
<g clip-path="url(#clip0_8969_986)">
<path d="M18.1552 2.38086H1.34741C1.08062 2.38086 0.867188 2.59336 0.867188 2.85415V29.1655C0.867188 29.4263 1.08062 29.6436 1.34741 29.6436H21.6187C21.8806 29.6436 22.0989 29.4311 22.0989 29.1655V2.84933C22.0989 2.72508 22.0493 2.60592 21.9611 2.51807C21.8729 2.43022 21.7532 2.38086 21.6284 2.38086H18.1552Z" fill="#F4F2F2"/>
<path d="M10.3654 5.16563C10.2393 5.16563 10.118 5.18011 10.0016 5.20426C9.75906 4.44602 9.0557 3.89062 8.21167 3.89062C7.63928 3.89062 7.12996 4.15142 6.78555 4.55227C6.54787 4.39773 6.26167 4.30597 5.95607 4.30597C5.1169 4.30597 4.43294 4.98693 4.43294 5.82244C4.43294 6.10256 4.5154 6.35852 4.64637 6.58551C4.23229 6.64356 3.85317 6.84846 3.57869 7.16256C3.30421 7.47665 3.15282 7.87883 3.15234 8.29517C3.15234 9.25142 3.93331 10.029 4.89376 10.029C5.49525 10.029 6.02884 9.72472 6.33928 9.26108C6.70794 9.60881 7.20757 9.83097 7.7557 9.83097C8.63854 9.83097 9.38555 9.27557 9.68145 8.49801C9.9464 8.60934 10.2349 8.65366 10.5213 8.62702C10.8076 8.60038 11.0829 8.50361 11.3225 8.34534C11.5622 8.18706 11.7588 7.9722 11.8948 7.71992C12.0308 7.46763 12.1019 7.18576 12.102 6.89943C12.1117 5.94318 11.3307 5.16563 10.3654 5.16563Z" fill="#AEDBF0"/>
<path d="M17.6364 13.3677H7.34801C7.21219 13.3677 7.10547 13.2615 7.10547 13.1262C7.10547 12.991 7.21219 12.8848 7.34801 12.8848H17.6364C17.7723 12.8848 17.879 12.991 17.879 13.1262C17.879 13.2566 17.7723 13.3677 17.6364 13.3677ZM15.2596 15.3575H7.34801C7.21219 15.3575 7.10547 15.2512 7.10547 15.116C7.10547 14.9808 7.21219 14.8745 7.34801 14.8745H15.2596C15.3954 14.8745 15.5021 14.9808 15.5021 15.116C15.5021 15.2512 15.3954 15.3575 15.2596 15.3575ZM18.4514 17.5453H7.34801C7.21219 17.5453 7.10547 17.439 7.10547 17.3038C7.10547 17.1686 7.21219 17.0623 7.34801 17.0623H18.4465C18.5823 17.0623 18.6891 17.1686 18.6891 17.3038C18.6939 17.439 18.5823 17.5453 18.4514 17.5453ZM15.2596 19.5351H7.34801C7.21219 19.5351 7.10547 19.4288 7.10547 19.2936C7.10547 19.1583 7.21219 19.0521 7.34801 19.0521H15.2596C15.3954 19.0521 15.5021 19.1583 15.5021 19.2936C15.5021 19.4288 15.3954 19.5351 15.2596 19.5351ZM18.4514 21.7277H7.34801C7.21219 21.7277 7.10547 21.6214 7.10547 21.4862C7.10547 21.351 7.21219 21.2447 7.34801 21.2447H18.4465C18.5823 21.2447 18.6891 21.351 18.6891 21.4862C18.6939 21.6214 18.5823 21.7277 18.4514 21.7277ZM15.2596 23.7174H7.34801C7.21219 23.7174 7.10547 23.6112 7.10547 23.476C7.10547 23.3407 7.21219 23.2345 7.34801 23.2345H15.2596C15.3954 23.2345 15.5021 23.3407 15.5021 23.476C15.5021 23.6064 15.3954 23.7174 15.2596 23.7174ZM18.4514 25.9052H7.34801C7.21219 25.9052 7.10547 25.799 7.10547 25.6637C7.10547 25.5285 7.21219 25.4223 7.34801 25.4223H18.4465C18.5823 25.4223 18.6891 25.5285 18.6891 25.6637C18.6939 25.799 18.5823 25.9052 18.4514 25.9052ZM15.2596 27.895H7.34801C7.21219 27.895 7.10547 27.7887 7.10547 27.6535C7.10547 27.5183 7.21219 27.412 7.34801 27.412H15.2596C15.3954 27.412 15.5021 27.5183 15.5021 27.6535C15.5021 27.7887 15.3954 27.895 15.2596 27.895Z" fill="#E2E2E2"/>
<path d="M5.70668 12.8606V15.3768C5.70668 15.512 5.59997 15.6183 5.46414 15.6183H2.94176C2.80594 15.6183 2.69922 15.512 2.69922 15.3768V12.8606C2.69922 12.7302 2.80594 12.6191 2.94176 12.6191H5.46414C5.59997 12.6191 5.70668 12.7302 5.70668 12.8606Z" fill="#FFCA06"/>
<path d="M5.70473 17.0462V19.5575C5.70473 19.6928 5.59801 19.799 5.46219 19.799H2.9398C2.80398 19.799 2.69727 19.6928 2.69727 19.5575V17.0462C2.69727 16.9109 2.80398 16.8047 2.9398 16.8047H5.46219C5.59801 16.8047 5.70473 16.9109 5.70473 17.0462Z" fill="#49BC8F"/>
<path d="M5.70473 21.2239V23.7401C5.70473 23.8753 5.59801 23.9816 5.46219 23.9816H2.9398C2.80398 23.9816 2.69727 23.8753 2.69727 23.7401V21.2239C2.69727 21.0935 2.80398 20.9824 2.9398 20.9824H5.46219C5.59801 20.9824 5.70473 21.0935 5.70473 21.2239Z" fill="#F54337"/>
<path d="M5.70668 25.4055V27.9169C5.70668 28.0521 5.59997 28.1584 5.46414 28.1584H2.94176C2.80594 28.1584 2.69922 28.0521 2.69922 27.9169V25.4055C2.69922 25.2703 2.80594 25.1641 2.94176 25.1641H5.46414C5.59997 25.1641 5.70668 25.2703 5.70668 25.4055Z" fill="#4D5F73"/>
<path d="M25.2188 12.7982L26.3402 11.6816L27.7911 13.1257L26.6696 14.2427L25.2188 12.7982Z" fill="#2C3C4C"/>
<path d="M26.1054 3.27298C28.6812 5.83746 28.6812 10.0005 26.1054 12.5699C23.5297 15.1343 19.3483 15.1343 16.7677 12.5699C14.192 10.0054 14.192 5.84229 16.7677 3.27298C19.3435 0.708487 23.5248 0.708487 26.1054 3.27298Z" fill="#4D5F73"/>
<path d="M25.4404 11.638C25.3967 11.6814 25.3531 11.7297 25.3094 11.7732C25.2512 11.8311 25.1881 11.8891 25.1251 11.9471C24.602 12.4261 23.9887 12.7971 23.3206 13.0385C23.1896 13.0868 23.0538 13.1303 22.918 13.1641C21.0795 13.6809 19.0277 13.2124 17.5773 11.7732C15.443 9.64819 15.443 6.20472 17.5773 4.07489C17.8004 3.85273 18.0333 3.65472 18.2855 3.47603C18.3971 3.39876 18.5184 3.32148 18.6348 3.24904C19.2557 2.87716 19.9348 2.64052 20.6284 2.53427C20.7691 2.51495 20.9195 2.50046 21.065 2.4908C22.5833 2.38938 24.1452 2.9158 25.3045 4.07489C27.3952 6.16126 27.4437 9.5033 25.4404 11.638Z" fill="#AEDBF0"/>
<path d="M25.3082 4.08075C24.1489 2.92166 22.587 2.39524 21.0687 2.49666C20.9183 2.50632 20.7728 2.52081 20.6321 2.54013C19.9385 2.64638 19.2594 2.88302 18.6385 3.2549C18.5172 3.32251 18.4008 3.40461 18.2892 3.48189C18.037 3.65575 17.7993 3.85859 17.581 4.08075C17.0725 4.58526 16.6689 5.18476 16.3936 5.84487C16.1183 6.50498 15.9766 7.21272 15.9766 7.92748C15.9766 8.64225 16.1183 9.34999 16.3936 10.0101C16.6689 10.6702 17.0725 11.2697 17.581 11.7742C18.3163 12.5103 19.2483 13.0208 20.2663 13.2451C21.2844 13.4694 22.3457 13.3981 23.3243 13.0396C23.9694 12.8029 24.5855 12.4407 25.1288 11.9481C25.187 11.895 25.25 11.837 25.3082 11.7742C25.3567 11.7308 25.4004 11.6825 25.4441 11.639C26.4117 10.6082 26.9385 9.24313 26.9132 7.83249C26.8878 6.42185 26.3123 5.07637 25.3082 4.08075ZM25.1433 11.3637C25.1045 11.4023 25.0609 11.4458 25.022 11.4893C24.9687 11.5424 24.9056 11.5955 24.8523 11.6486C24.3526 12.1026 23.7851 12.4407 23.1836 12.658C23.0575 12.7015 22.9362 12.745 22.8101 12.7739C21.1075 13.2521 19.206 12.8222 17.8672 11.4893C16.919 10.5443 16.3864 9.26321 16.3864 7.92748C16.3864 6.59176 16.919 5.31066 17.8672 4.36569C18.0709 4.16285 18.2892 3.9745 18.522 3.81513C18.6288 3.74268 18.7355 3.67024 18.847 3.60263C19.4132 3.26648 20.039 3.04185 20.6903 2.94098C20.8213 2.92649 20.962 2.912 21.0978 2.90234C22.5045 2.80575 23.9452 3.29836 25.022 4.36569C26.9575 6.29268 26.9963 9.38359 25.1433 11.3637Z" fill="#94C9E3"/>
<path d="M31.7792 16.9342L30.484 18.2237C30.3143 18.3927 30.0329 18.3927 29.8632 18.2237L26.3755 14.7512C26.2938 14.6689 26.248 14.5579 26.248 14.4422C26.248 14.3264 26.2938 14.2154 26.3755 14.1331L27.6706 12.8436C27.8404 12.6745 28.1217 12.6745 28.2915 12.8436L31.7792 16.316C31.9538 16.485 31.9538 16.7603 31.7792 16.9342Z" fill="#4D5F73"/>
<path d="M20.4516 8.74459L22.795 8.38044L22.8697 8.85808L20.5263 9.22175L20.4516 8.74459ZM19.707 8.34615L20.195 6.12891L20.6689 6.23226L20.1805 8.44902L19.707 8.34615Z" fill="#E9E9E9"/>
<path d="M20.7096 9.33951C20.6762 9.45962 20.6193 9.57196 20.5421 9.67008C20.465 9.76819 20.3691 9.85014 20.26 9.91119C20.1508 9.97224 20.0307 10.0112 19.9064 10.0258C19.7821 10.0404 19.6561 10.0304 19.5357 9.99633C19.4151 9.96311 19.3022 9.90645 19.2037 9.82962C19.1051 9.75279 19.0228 9.6573 18.9615 9.54867C18.9002 9.44003 18.8611 9.32039 18.8464 9.19663C18.8317 9.07287 18.8418 8.94745 18.876 8.82758C18.9094 8.70747 18.9663 8.59513 19.0434 8.49701C19.1206 8.3989 19.2165 8.31695 19.3256 8.2559C19.4347 8.19485 19.5549 8.1559 19.6792 8.14128C19.8035 8.12667 19.9295 8.13669 20.0499 8.17076C20.5544 8.31565 20.8503 8.83724 20.7096 9.33951Z" fill="#49BC8F"/>
<path d="M24.4499 8.76721C24.4165 8.88731 24.3596 8.99966 24.2825 9.09778C24.2053 9.19589 24.1094 9.27783 24.0003 9.33889C23.8912 9.39994 23.771 9.43889 23.6467 9.4535C23.5224 9.46812 23.3964 9.4581 23.276 9.42403C23.1554 9.3908 23.0426 9.33415 22.944 9.25732C22.8455 9.18048 22.7632 9.085 22.7018 8.97636C22.6405 8.86773 22.6014 8.74809 22.5867 8.62433C22.572 8.50057 22.5821 8.37515 22.6163 8.25528C22.6497 8.13517 22.7066 8.02283 22.7838 7.92471C22.8609 7.8266 22.9568 7.74465 23.066 7.6836C23.1751 7.62255 23.2952 7.58359 23.4195 7.56898C23.5438 7.55437 23.6698 7.56439 23.7902 7.59846C24.2947 7.74335 24.5906 8.26494 24.4499 8.76721ZM21.5104 5.75357C21.477 5.87368 21.4201 5.98603 21.3429 6.08414C21.2657 6.18225 21.1698 6.2642 21.0607 6.32525C20.9516 6.3863 20.8315 6.42526 20.7072 6.43987C20.5828 6.45448 20.4569 6.44446 20.3365 6.41039C20.2158 6.37717 20.103 6.32051 20.0045 6.24368C19.9059 6.16685 19.8236 6.07137 19.7623 5.96273C19.701 5.85409 19.6618 5.73445 19.6472 5.61069C19.6325 5.48693 19.6426 5.36151 19.6768 5.24164C19.7101 5.12153 19.7671 5.00919 19.8442 4.91107C19.9214 4.81296 20.0173 4.73102 20.1264 4.66996C20.2355 4.60891 20.3557 4.56996 20.48 4.55535C20.6043 4.54073 20.7303 4.55075 20.8507 4.58482C21.3551 4.72488 21.651 5.24647 21.5104 5.75357Z" fill="#F54337"/>
</g>
<defs>
<clipPath id="clip0_8969_986">
<rect width="31.0448" height="30.9091" fill="white" transform="translate(0.867188 0.0449219)"/>
</clipPath>
</defs>
</svg>
