<svg width="65" height="45" fill="none" xmlns="http://www.w3.org/2000/svg"><path d="M50.26 6.438c-.267 0-.6-.067-.866-.067h-2.663c-.599 0-1.264.067-1.864.133h-.2c-.598.067-1.131.133-1.73.267h-.266c-.533.066-1.066.2-1.598.332h-.133c-.067 0-.067 0-.133.067l-1.598.4h-.067c-.066 0-.066 0-.133.066-.532.133-1.131.333-1.664.466h-.066c-.067 0-.067 0-.134.066l-1.797.6h-.067c-.665.266-1.331.466-1.93.732h-.067c-.066.066-.133.066-.266.133-.266.133-.533.2-.799.333l-.4.2c-.266.133-.465.2-.732.332-.066.067-.133.067-.266.134-.066 0-.066.066-.133.066-.466.2-.932.466-1.398.732-.066.067-.2.067-.266.134-.466.266-.932.532-1.332.798h-.066s-.067 0-.067.067c-.532.333-1.065.666-1.53.998 0 0-.067 0-.067.067-.533.333-.999.732-1.465 1.065-.466.4-.932.732-1.398 1.132l-.067.066c-.399.4-.865.8-1.198 1.132 0 0-.066 0-.066.067l-.666.665c-.2.2-.4.466-.6.666l-.199.2a2.028 2.028 0 0 0-.333.466l-.066.066c-.067.067-.067.134-.134.134-.133.133-.2.332-.332.466-.067.066-.133.133-.133.266-.134.133-.2.333-.267.466 0 .066-.066.133-.066.133v.066c-.067.134-.133.267-.2.333-.067.067-.067.134-.133.267l-.2.4c0 .066-.066.132-.066.199-.067.066-.067.2-.067.266-.067.133-.067.2-.133.333 0 .067-.067.2-.067.266 0 .067-.066.2-.066.267 0 .066 0 .133-.067.2 0 .132-.066.199-.066.332 0 .067 0 .133-.067.2 0 .066 0 .133-.067.266v1.598c0 .066 0 .133.067.266v.266c.067.2.133.4.2.533l2.33 6.257c-.067-.2-.134-.399-.2-.532 0-.067-.067-.133-.067-.266 0-.067 0-.134-.066-.267v-1.53c0-.067 0-.2.066-.267v-.2c0-.133.067-.2.067-.333 0-.066 0-.133.066-.2 0-.066.067-.2.067-.266s.067-.2.067-.266c0-.133.066-.2.133-.333 0-.066.066-.2.066-.266 0-.067.067-.133.067-.2l.2-.4c.066-.066.066-.132.133-.265.066-.134.133-.267.2-.333.066-.067.066-.134.133-.2.066-.133.2-.333.266-.466.066-.067.133-.133.133-.266.133-.134.2-.333.333-.466.067-.067.133-.133.2-.267.133-.133.2-.332.332-.466l.2-.2c.2-.199.4-.465.6-.665.199-.2.399-.466.665-.666l.067-.066c.399-.4.798-.8 1.198-1.132l.066-.067c.466-.399.932-.798 1.398-1.131.466-.4.999-.733 1.465-1.065 0 0 .066 0 .066-.067.533-.333 1-.666 1.532-.998.066 0 .066-.067.133-.067.466-.266.865-.533 1.331-.799.067-.066.133-.066.266-.133.466-.266.932-.466 1.398-.732.133-.067.2-.133.333-.133.267-.134.466-.2.733-.333l.399-.2c.266-.133.533-.2.799-.333.066-.066.2-.066.266-.133.666-.266 1.265-.533 1.93-.732 0 0 .067 0 .067-.067l1.798-.599c.066 0 .133-.066.133-.066.532-.2 1.131-.333 1.664-.466.066 0 .133-.067.266-.067l1.598-.4c.067 0 .2-.066.266-.066.533-.133 1.065-.2 1.598-.333.066 0 .133 0 .266-.067.6-.066 1.132-.2 1.731-.266h.2c.599-.066 1.265-.133 1.864-.133h2.662c.333 0 .6 0 .932.067 2.264.2 4.128.599 5.592 1.331.4.2.8.4 1.199.666.332.266.665.466.998.732a6.415 6.415 0 0 1 1.598 2.263l-2.33-6.257C58.58 8.7 55.386 6.77 50.26 6.438z" fill="#FFCB35"/><path d="m63.84 17.02-2.33-6.258.2.599c0 .066.066.2.066.266 0 .067.066.2.066.266 0 .067 0 .2.067.267v1.398c0 .133 0 .2-.067.332 0 .067 0 .2-.066.267 0 .133-.067.2-.067.333 0 .066-.066.133-.066.266s-.067.2-.067.333c0 .066-.066.2-.066.266-.067.133-.067.2-.134.333-.066.066-.066.2-.133.266 0 .067-.066.133-.133.267l-.2.399c-.066.066-.066.2-.133.266l-.2.4c-.066.066-.066.133-.133.2-.066.199-.2.332-.333.532-.066.066-.133.2-.2.266-.132.2-.199.333-.332.533-.067.066-.133.2-.2.266-.133.133-.266.333-.4.466-.066.067-.132.133-.199.266-.2.266-.4.466-.599.732-.2.267-.466.466-.666.733l-.4.4-.265.265c-.134.134-.333.267-.466.4l-.267.266c-.2.133-.332.333-.532.466l-.2.2c-.266.2-.532.4-.799.666l-.133.133c-.2.2-.466.333-.666.532-.066.067-.2.133-.332.2-.2.133-.4.266-.533.4a1.394 1.394 0 0 0-.4.266c-.2.133-.332.266-.532.332-.133.067-.266.2-.4.267-.2.133-.332.2-.532.333-.466.266-.999.599-1.465.865a.505.505 0 0 1-.266.133c-.466.267-.998.533-1.53.8-.134.066-.267.132-.334.199l-.799.4-.4.199c-.265.133-.532.266-.864.4-.134.066-.267.133-.4.133-.2.066-.4.2-.666.266-.133.066-.332.133-.466.2-.2.066-.466.2-.665.266-.133.066-.267.133-.4.133-.665.266-1.331.466-1.997.666-.066 0-.133.066-.2.066-.599.2-1.198.333-1.797.533-.066 0-.2.066-.266.066-.6.133-1.132.267-1.731.4-.133 0-.2.066-.333.066-.599.133-1.198.267-1.797.333-.067 0-.2 0-.267.067-.599.133-1.264.2-1.864.266-.133 0-.266 0-.465.066-.2 0-.4.067-.6.067-.133 0-.332 0-.466.067-.2 0-.399 0-.599.066H27.56c-.333 0-.666 0-.999-.066-3.86-.533-6.723-1.598-8.454-3.262-.799-.732-1.398-1.598-1.731-2.53l2.33 6.258c1.065 2.995 4.593 5.059 10.185 5.458.333 0 .666.067.999.067h2.862c.2 0 .4 0 .6-.067.133 0 .332 0 .465-.066.2 0 .4-.067.6-.067.133 0 .2 0 .332-.066h.067c.599-.067 1.265-.133 1.864-.267h.266c.6-.133 1.198-.2 1.797-.332h.134c.066 0 .133 0 .133-.067.599-.133 1.132-.266 1.73-.4h.134c.066 0 .133 0 .133-.066.599-.133 1.198-.333 1.797-.532h.067c.066 0 .066 0 .133-.067.666-.2 1.331-.4 1.997-.666h.067c.133-.066.266-.066.4-.133.199-.067.465-.2.665-.266.133-.067.333-.133.466-.2.2-.067.4-.2.599-.266.066 0 .066 0 .133-.067.067-.066.2-.066.266-.133.267-.133.533-.266.866-.4l.4-.2.798-.398c.067-.067.2-.067.266-.134.067 0 .067-.066.133-.066.533-.267.999-.533 1.532-.799a.504.504 0 0 1 .266-.133c.532-.267.998-.533 1.464-.866h.067c.133-.066.333-.2.466-.266a1.39 1.39 0 0 0 .4-.266c.2-.133.332-.266.532-.333.133-.067.266-.133.333-.266.2-.133.4-.267.532-.4.133-.066.2-.133.333-.2.267-.2.466-.332.732-.532.067 0 .067-.067.134-.067.266-.2.532-.399.798-.665.067-.067.134-.133.267-.2.2-.133.333-.333.532-.466l.267-.266c.133-.133.332-.266.465-.4l.267-.266c.133-.133.266-.266.4-.333.266-.266.465-.466.665-.732.2-.266.4-.466.6-.732.066-.067.132-.134.199-.267.133-.133.266-.332.4-.466l.066-.066c.066-.067.066-.133.133-.2.133-.2.266-.333.333-.532.066-.067.133-.2.2-.267.133-.2.2-.333.332-.532 0-.067.067-.133.067-.133s0-.067.066-.067l.2-.4c.067-.066.067-.2.133-.266l.2-.4c0-.066.067-.132.067-.199.066-.066.066-.2.133-.266.066-.133.066-.2.133-.333 0-.066.066-.2.066-.266 0-.067.067-.2.067-.267v-.066c0-.067.067-.133.067-.266 0-.134.066-.2.066-.333 0-.067 0-.2.067-.267 0-.066 0-.2.066-.266v-1.464c0-.067 0-.2-.066-.267 0-.066 0-.2-.067-.266 0-.066 0-.133-.066-.2v-.066c0-.133-.067-.333-.134-.533z" fill="#EFBF3F"/><path d="M19.638 17.552C26.494 9.963 40.674 4.438 51.325 5.237c10.651.799 13.78 7.655 6.923 15.245-6.856 7.588-21.036 13.114-31.687 12.315-10.651-.799-13.78-7.656-6.923-15.245zm36.946 2.796c6.258-6.923 3.395-13.247-6.324-13.98-9.72-.732-22.767 4.328-29.024 11.251-6.258 6.923-3.396 13.247 6.324 13.98 9.785.799 22.767-4.26 29.024-11.25z" fill="#F38821"/><path d="M19.971 3.705c-.266.133-.532.267-.799.466-.332.2-.665.4-.932.6-.066.066-.2.133-.266.2-.2.132-.466.332-.666.465-.066.067-.133.067-.2.133l-.066.067c-.533.333-.998.732-1.465 1.131l-.066.067-.067.067c-.466.332-.865.732-1.331 1.131-.067 0-.067.067-.133.067l-.067.066c-.4.4-.799.733-1.198 1.132l-.067.067-.133.133c-.4.4-.732.799-1.131 1.198l-.067.067-.133.133c-.4.4-.799.865-1.132 1.331l-.066.067-.067.066c-.4.466-.799.999-1.198 1.465 0 0 0 .066-.067.066-.4.533-.799 1.132-1.198 1.665l-.067.066c-.066.067-.066.133-.133.2-.133.2-.333.466-.466.732-.066.133-.133.267-.2.333-.133.2-.266.466-.399.666-.066.066-.066.133-.133.266l-.067.067c-.266.466-.532.865-.798 1.331-.067.067-.067.2-.134.266-.266.466-.466.932-.732 1.398v.067s0 .067-.066.067a18.094 18.094 0 0 0-.733 1.664v.066c-.266.6-.466 1.132-.665 1.731-.2.6-.4 1.132-.533 1.73v.068c-.133.532-.266 1.131-.4 1.664v.133c-.066.333-.132.599-.199.932-.067.266-.067.599-.133.865v.267c0 .2-.067.399-.067.599v1.997c0 .133 0 .266.067.4v.265c0 .134.066.267.066.4v.2c0 .066.067.2.067.266 0 .133.067.2.067.333 0 .066.066.2.066.266 0 .067.067.2.067.266 0 .067.066.134.066.2.067.133.067.2.133.266 0 .067.067.133.067.2.067.067.067.133.133.2v.066c.067.067.067.133.133.2.067.067.067.2.133.266.067.067.067.133.134.2.066.067.066.133.133.133 0 0 0 .067.066.067.067.066.133.133.133.2.067.066.134.133.134.2.066.066.133.132.133.199l.133.133.066.066c.133.134.267.267.466.4l5.326 4.06c-.133-.132-.333-.266-.466-.399l-.2-.2-.2-.2c-.066-.066-.133-.132-.133-.199-.066-.066-.133-.133-.133-.2-.066-.066-.133-.133-.133-.2-.066-.066-.066-.132-.133-.199-.067-.066-.067-.133-.133-.266-.067-.067-.067-.133-.133-.2-.067-.066-.067-.2-.133-.266 0-.067-.067-.133-.067-.2-.067-.066-.067-.2-.133-.266 0-.067-.067-.133-.067-.2 0-.066-.066-.2-.066-.266 0-.067-.067-.2-.067-.267 0-.133-.066-.2-.066-.332 0-.067-.067-.2-.067-.267 0-.066 0-.133-.067-.2 0-.133-.066-.266-.066-.399v-.266c0-.133 0-.266-.067-.4v-1.93c0-.2 0-.4.067-.6v-.265c0-.267.066-.6.133-.866.067-.333.133-.599.2-.932v-.133c.133-.532.266-1.065.4-1.664v-.067c.132-.599.332-1.131.532-1.73.2-.6.4-1.132.665-1.731v-.067c.267-.532.466-1.132.733-1.664 0-.067.066-.067.066-.133.2-.466.466-.932.732-1.398.067-.067.067-.2.134-.267.266-.466.532-.932.799-1.331.066-.133.133-.2.2-.333.132-.2.265-.466.399-.665.066-.134.133-.267.2-.333.132-.267.332-.466.465-.733.067-.066.133-.2.2-.266.4-.6.799-1.132 1.198-1.664l.067-.067c.4-.532.799-.998 1.198-1.464l.133-.133c.4-.466.733-.866 1.132-1.332l.2-.2c.4-.399.732-.798 1.131-1.198l.2-.2c.4-.399.799-.798 1.198-1.131l.2-.2c.4-.4.865-.799 1.331-1.132.067-.066.134-.066.134-.133.465-.4.998-.799 1.464-1.131.067-.067.2-.134.266-.2.2-.133.466-.333.666-.466.067-.067.2-.133.266-.2.333-.2.6-.4.932-.599.267-.133.533-.333.8-.466 1.996-1.065 3.794-1.664 5.391-1.93.466-.067.932-.067 1.332-.067s.865.066 1.265.133c.998.133 1.864.533 2.596 1.065l-5.326-4.06c-2.263-1.731-5.991-1.598-10.518.798z" fill="#FFCB35"/><path d="m37.08 5.307-5.325-4.06c.2.132.332.265.466.399l.2.2.2.199.199.2.2.2a.919.919 0 0 1 .2.266c.066.066.066.133.132.2.067.066.134.2.134.266.066.066.066.133.133.2.066.066.066.2.133.266.066.066.066.133.133.266s.067.2.133.333c0 .066.067.133.067.266a.6.6 0 0 1 .066.333c0 .066.067.2.067.266 0 .133.066.2.066.333 0 .067.067.2.067.266 0 .067 0 .2.066.267 0 .133.067.266.067.466v.332c0 .134 0 .267.067.466v2.13c0 .2 0 .4-.067.6v.333c-.067.332-.067.599-.133.932l-.2.998c-.066.2-.066.4-.133.533 0 .133-.066.266-.066.4-.067.199-.134.399-.134.598 0 .133-.066.267-.066.4-.067.2-.133.466-.2.665 0 .067-.066.2-.066.267-.134.332-.2.665-.333.998 0 .067-.067.133-.067.2-.066.266-.2.532-.333.799-.066.133-.066.2-.133.333-.066.2-.2.399-.266.665l-.2.4c-.067.2-.2.4-.266.599l-.2.4c-.066.199-.2.332-.266.532-.267.532-.533.998-.799 1.531-.067.066-.067.2-.133.266-.266.466-.533.999-.866 1.465-.066.133-.133.2-.2.333-.132.266-.332.466-.465.732a1.392 1.392 0 0 1-.267.4c-.2.266-.332.532-.532.798-.067.133-.133.2-.2.333-.133.2-.266.4-.4.533-.066.133-.199.266-.265.399l-.4.6c-.067.132-.2.265-.266.332-.4.532-.866 1.065-1.265 1.598l-.133.133c-.4.466-.799.932-1.265 1.398l-.2.2c-.4.465-.799.865-1.265 1.33l-.2.2c-.399.4-.865.866-1.33 1.265l-.2.2c-.466.4-.932.866-1.398 1.265-.134.067-.2.2-.333.266-.133.133-.333.267-.466.4s-.267.2-.4.332a2.025 2.025 0 0 1-.466.333c-.133.067-.266.2-.332.267-.267.2-.533.333-.733.532-.133.067-.2.133-.333.2-.332.2-.665.466-1.065.666-.266.2-.599.332-.865.466-3.395 1.797-6.39 2.463-8.72 2.063-1.066-.2-1.998-.599-2.797-1.198l5.326 4.06c2.53 1.931 6.59 1.732 11.517-.931.266-.133.599-.333.865-.466.333-.2.666-.4 1.065-.666.133-.067.2-.133.333-.2.266-.2.532-.333.732-.532.067-.067.133-.067.2-.133.066-.067.133-.067.2-.133a2.02 2.02 0 0 1 .466-.333c.133-.067.266-.2.399-.333s.333-.266.466-.4c.067-.066.2-.133.266-.2l.067-.066c.466-.4.932-.799 1.398-1.265.066-.066.066-.066.133-.066l.067-.067c.465-.4.865-.799 1.33-1.265l.134-.133.133-.133c.4-.4.866-.865 1.265-1.331l.067-.067.133-.133c.4-.466.865-.932 1.265-1.398l.066-.067.067-.066c.466-.533.865-1.065 1.264-1.598.067-.133.134-.2.267-.333l.4-.599c.066-.133.199-.266.266-.4.133-.199.266-.399.399-.532l.067-.066c.066-.067.133-.133.133-.267.2-.266.333-.532.532-.799.067-.133.2-.266.266-.399.134-.266.333-.466.466-.732.067-.067.134-.133.134-.266 0-.067.066-.067.066-.134.267-.466.6-.998.866-1.464.066-.067.066-.2.133-.266.266-.533.532-.999.799-1.532v-.066c.066-.2.133-.333.266-.533l.2-.4c.066-.199.2-.398.266-.598l.2-.4c.066-.2.2-.399.266-.665.066-.133.066-.2.133-.333.133-.267.2-.533.333-.866 0-.066.066-.066.066-.133.134-.333.2-.665.333-.998 0-.067.067-.2.067-.267.066-.2.133-.466.2-.665.066-.133.066-.266.066-.4.067-.2.133-.4.133-.599 0-.133.067-.266.067-.4.066-.199.066-.332.133-.532v-.066l.2-.999c.066-.333.066-.666.133-.932v-.333c0-.2.066-.4.066-.599v-2.13c0-.133 0-.266-.066-.466v-.333c0-.133-.067-.333-.067-.466 0-.067 0-.133-.066-.2 0-.133-.067-.2-.067-.266 0-.133-.067-.266-.067-.333 0-.066-.066-.2-.066-.266 0-.067-.067-.2-.067-.266v-.067c0-.066-.066-.133-.066-.266-.067-.133-.067-.2-.133-.333-.067-.067-.067-.133-.133-.2-.067-.066-.067-.133-.134-.266v-.067c-.066-.066-.066-.133-.133-.2a.505.505 0 0 1-.133-.266c-.066-.066-.066-.133-.133-.2-.067-.066-.067-.132-.133-.199l-.067-.067c-.066-.066-.133-.133-.133-.2l-.2-.199-.2-.2-.133-.133s-.066 0-.066-.066c-.333.066-.466-.067-.666-.2z" fill="#EFBF3F"/><path d="M.266 29.67C1.863 19.552 10.85 7.236 20.236 2.177c9.387-5.06 15.711-.999 14.114 9.053-1.598 10.12-10.585 22.435-19.971 27.494C4.926 43.85-1.398 39.789.266 29.67zm32.62-17.64C34.35 2.775 28.624-.953 19.97 3.707c-8.587 4.66-16.775 15.91-18.306 25.164-1.465 9.253 4.26 12.98 12.914 8.32 8.588-4.659 16.776-15.91 18.307-25.163z" fill="#E38025"/></svg>