<svg width="40" height="40" viewBox="0 0 40 40" fill="none" xmlns="http://www.w3.org/2000/svg">
<g opacity="0.7" clip-path="url(#clip0_8969_1113)">
<path d="M37.8029 15.1953V24.5178C37.803 24.916 37.7247 25.3103 37.5723 25.6782C37.42 26.046 37.1967 26.3803 36.9152 26.6618C36.6336 26.9434 36.2994 27.1667 35.9315 27.319C35.5636 27.4713 35.1693 27.5497 34.7712 27.5496H17.5055C17.5974 27.0623 17.6431 26.5674 17.642 26.0716C17.6421 24.4735 17.1701 22.9111 16.2852 21.5804C15.4003 20.2497 14.1419 19.2102 12.6681 18.5923C11.1944 17.9745 9.57088 17.8059 8.00159 18.1077C6.43229 18.4094 4.98715 19.1682 3.84766 20.2886V15.1953H37.8029ZM33.2553 21.8651C33.2553 21.4229 33.1242 20.9906 32.8785 20.6229C32.6328 20.2552 32.2836 19.9686 31.8751 19.7994C31.4665 19.6302 31.0169 19.5859 30.5832 19.6722C30.1495 19.7584 29.7511 19.9714 29.4384 20.2841C29.1257 20.5968 28.9128 20.9952 28.8265 21.4289C28.7402 21.8626 28.7845 22.3122 28.9537 22.7207C29.123 23.1293 29.4095 23.4785 29.7772 23.7242C30.1449 23.9698 30.5772 24.101 31.0194 24.101C31.3131 24.1011 31.6039 24.0433 31.8752 23.931C32.1465 23.8187 32.393 23.654 32.6007 23.4463C32.8083 23.2387 32.973 22.9922 33.0853 22.7208C33.1976 22.4495 33.2554 22.1587 33.2553 21.8651ZM27.9498 21.8651C27.9498 21.4229 27.8187 20.9906 27.573 20.6229C27.3273 20.2552 26.9781 19.9686 26.5695 19.7994C26.161 19.6302 25.7114 19.5859 25.2777 19.6722C24.844 19.7584 24.4456 19.9714 24.1329 20.2841C23.8202 20.5968 23.6073 20.9952 23.521 21.4289C23.4347 21.8626 23.479 22.3122 23.6482 22.7207C23.8174 23.1293 24.104 23.4785 24.4717 23.7242C24.8394 23.9698 25.2717 24.101 25.7139 24.101C26.0076 24.1011 26.2984 24.0433 26.5697 23.931C26.841 23.8187 27.0875 23.654 27.2951 23.4463C27.5028 23.2387 27.6675 22.9922 27.7798 22.7208C27.8921 22.4495 27.9499 22.1587 27.9498 21.8651Z" fill="#59C3FA"/>
<path d="M37.8029 10.3438H3.84766V15.1945H37.8029V10.3438Z" fill="#FFBCEA"/>
<path d="M37.8029 8.07078V10.3446H3.84766V8.07078C3.84755 7.67262 3.92589 7.27834 4.07821 6.91046C4.23053 6.54259 4.45384 6.20833 4.73538 5.92679C5.01692 5.64524 5.35118 5.42193 5.71906 5.26962C6.08693 5.1173 6.48121 5.03895 6.87937 5.03906H34.7712C35.1693 5.03895 35.5636 5.1173 35.9315 5.26962C36.2994 5.42193 36.6336 5.64524 36.9152 5.92679C37.1967 6.20833 37.42 6.54259 37.5723 6.91046C37.7247 7.27834 37.803 7.67262 37.8029 8.07078Z" fill="#59C3FA"/>
<path d="M31.0171 24.0987C32.252 24.0987 33.253 23.0977 33.253 21.8628C33.253 20.628 32.252 19.627 31.0171 19.627C29.7823 19.627 28.7812 20.628 28.7812 21.8628C28.7812 23.0977 29.7823 24.0987 31.0171 24.0987Z" fill="#FFBCEA"/>
<path d="M25.7164 24.0987C26.9512 24.0987 27.9523 23.0977 27.9523 21.8628C27.9523 20.628 26.9512 19.627 25.7164 19.627C24.4815 19.627 23.4805 20.628 23.4805 21.8628C23.4805 23.0977 24.4815 24.0987 25.7164 24.0987Z" fill="#FFBCEA"/>
<path d="M17.5049 27.5488C17.1239 29.5994 15.9672 31.4243 14.2752 32.644C12.5832 33.8637 10.4863 34.3843 8.42032 34.0976C6.35436 33.8109 4.47838 32.739 3.18245 31.1047C1.88652 29.4704 1.27036 27.3995 1.46207 25.3226C1.65379 23.2457 2.63863 21.3226 4.21183 19.9531C5.78503 18.5837 7.82553 17.8732 9.90906 17.9696C11.9926 18.066 13.9588 18.9616 15.3989 20.4704C16.839 21.9792 17.6422 23.985 17.6414 26.0708C17.6418 26.5666 17.5961 27.0614 17.5049 27.5488Z" fill="#FFBCEA"/>
<path d="M12.5376 22.217C12.7387 22.217 12.9314 22.1372 13.0736 21.995C13.2157 21.8529 13.2956 21.6601 13.2956 21.4591C13.2956 21.2581 13.2157 21.0653 13.0736 20.9232C12.9314 20.781 12.7387 20.7012 12.5376 20.7012H6.53484C6.33382 20.7012 6.14104 20.781 5.9989 20.9232C5.85676 21.0653 5.77691 21.2581 5.77691 21.4591C5.77691 21.6601 5.85676 21.8529 5.9989 21.995C6.14104 22.1372 6.33382 22.217 6.53484 22.217H8.25534C8.60339 22.2174 8.94404 22.3175 9.2369 22.5056C9.52976 22.6936 9.76253 22.9618 9.90762 23.2781H6.53484C6.33382 23.2781 6.14104 23.358 5.9989 23.5001C5.85676 23.6423 5.77691 23.835 5.77691 24.0361C5.77691 24.2371 5.85676 24.4299 5.9989 24.572C6.14104 24.7141 6.33382 24.794 6.53484 24.794H9.90762C9.81665 24.9898 9.6937 25.1691 9.54382 25.3245C9.37598 25.4933 9.17636 25.627 8.95649 25.7181C8.73663 25.8091 8.50089 25.8557 8.26292 25.8551H6.53484C6.3829 25.8552 6.2345 25.9009 6.10878 25.9862C5.98305 26.0715 5.88577 26.1925 5.82948 26.3337C5.7732 26.4748 5.76049 26.6295 5.793 26.778C5.82551 26.9264 5.90174 27.0616 6.01187 27.1663L10.3017 31.2212C10.4435 31.3538 10.6306 31.427 10.8247 31.4259C10.9279 31.4252 11.0299 31.404 11.1249 31.3637C11.2198 31.3234 11.3059 31.2647 11.378 31.1909C11.4463 31.1188 11.4997 31.0339 11.5351 30.9412C11.5706 30.8484 11.5873 30.7496 11.5845 30.6503C11.5817 30.551 11.5593 30.4533 11.5187 30.3627C11.4781 30.2721 11.4199 30.1904 11.3477 30.1222L8.43724 27.3709C9.25675 27.3252 10.0309 26.98 10.6125 26.4008C11.0531 25.9621 11.3606 25.4077 11.4993 24.8016H12.5376C12.7387 24.8016 12.9314 24.7217 13.0736 24.5796C13.2157 24.4374 13.2956 24.2447 13.2956 24.0436C13.2956 23.8426 13.2157 23.6498 13.0736 23.5077C12.9314 23.3656 12.7387 23.2857 12.5376 23.2857H11.4993C11.4111 22.9081 11.2571 22.5489 11.0445 22.2246H12.5376V22.217Z" fill="black"/>
<path d="M34.7709 4.28125H6.87914C5.87418 4.28161 4.91047 4.68099 4.19986 5.39161C3.48924 6.10223 3.08986 7.06593 3.0895 8.0709V19.978C1.52498 21.6171 0.655784 23.7982 0.664122 26.0641C0.663949 28.2207 1.44973 30.3034 2.87439 31.9224C4.29904 33.5414 6.2649 34.5857 8.40398 34.8599C10.5431 35.134 12.7087 34.6191 14.4956 33.4117C16.2825 32.2042 17.568 30.387 18.1117 28.3H34.7709C35.7759 28.2997 36.7396 27.9003 37.4502 27.1897C38.1608 26.479 38.5602 25.5153 38.5606 24.5104V8.06332C38.5586 7.05955 38.1584 6.09759 37.4479 5.38853C36.7375 4.67947 35.7747 4.28125 34.7709 4.28125ZM4.60535 11.1026H37.0447V14.4375H4.60535V11.1026ZM6.87914 5.79711H34.7709C35.3734 5.79887 35.9508 6.03899 36.3768 6.46503C36.8028 6.89107 37.043 7.46839 37.0447 8.0709V9.58675H4.60535V8.0709C4.60584 7.468 4.84555 6.88993 5.27186 6.46362C5.69818 6.0373 6.27624 5.79759 6.87914 5.79711ZM16.7625 27.4057C16.5516 28.541 16.0763 29.6107 15.375 30.5282C14.6737 31.4456 13.7662 32.185 12.726 32.6864C11.6857 33.1878 10.542 33.4372 9.38747 33.4143C8.23293 33.3915 7.1 33.097 6.08044 32.5548C5.06088 32.0125 4.18336 31.2378 3.51896 30.2933C2.85455 29.3488 2.42193 28.2611 2.25615 27.1183C2.09036 25.9755 2.19606 24.8097 2.5647 23.7154C2.93333 22.621 3.55452 21.6289 4.37797 20.8193C5.41148 19.8042 6.72176 19.1171 8.14437 18.844C9.56699 18.571 11.0386 18.7242 12.3744 19.2844C13.7103 19.8447 14.8509 20.787 15.6531 21.9932C16.4554 23.1993 16.8835 24.6156 16.8838 26.0641C16.8855 26.5141 16.8449 26.9633 16.7625 27.4057ZM34.7709 26.7917H18.3693C18.3921 26.5492 18.3997 26.3143 18.3997 26.0717C18.3994 24.466 17.9632 22.8904 17.1377 21.5131C16.3121 20.1359 15.1281 19.0086 13.712 18.2515C12.2959 17.4945 10.7009 17.136 9.09704 17.2145C7.49321 17.293 5.94077 17.8054 4.60535 18.6971V15.9534H37.0447V24.518C37.043 25.1205 36.8028 25.6978 36.3768 26.1238C35.9508 26.5499 35.3734 26.79 34.7709 26.7917Z" fill="black"/>
<path d="M31.0165 18.8633C30.4698 18.8633 29.9334 19.013 29.4658 19.2963C28.9981 19.5796 28.617 19.9855 28.3638 20.4701C28.0535 19.8765 27.5531 19.4042 26.9426 19.1285C26.3322 18.8529 25.647 18.7899 24.9965 18.9497C24.3461 19.1095 23.768 19.4827 23.3547 20.0098C22.9414 20.5369 22.7168 21.1873 22.7168 21.8571C22.7168 22.5269 22.9414 23.1773 23.3547 23.7044C23.768 24.2315 24.3461 24.6047 24.9965 24.7645C25.647 24.9243 26.3322 24.8613 26.9426 24.5857C27.5531 24.31 28.0535 23.8377 28.3638 23.2441C28.6097 23.7146 28.9763 24.1112 29.426 24.3933C29.8757 24.6753 30.3923 24.8328 30.9229 24.8494C31.4535 24.8661 31.979 24.7414 32.4455 24.4881C32.9121 24.2347 33.3028 23.8619 33.5778 23.4078C33.8528 22.9537 34.0021 22.4347 34.0104 21.9039C34.0187 21.3731 33.8857 20.8496 33.625 20.3872C33.3644 19.9247 32.9854 19.5399 32.5271 19.2721C32.0687 19.0043 31.5474 18.8632 31.0165 18.8633ZM25.711 23.3351C25.4184 23.3351 25.1323 23.2482 24.8891 23.0854C24.6459 22.9227 24.4565 22.6914 24.3448 22.4209C24.2332 22.1504 24.2044 21.8529 24.262 21.566C24.3197 21.2791 24.4612 21.0157 24.6686 20.8093C24.8761 20.603 25.1402 20.4628 25.4273 20.4066C25.7145 20.3505 26.0119 20.3808 26.2819 20.4938C26.5518 20.6069 26.7821 20.7975 26.9436 21.0415C27.1051 21.2856 27.1905 21.5721 27.189 21.8647C27.1877 22.2556 27.0314 22.63 26.7543 22.9057C26.4771 23.1814 26.1019 23.3359 25.711 23.3351ZM31.0165 23.3351C30.7239 23.3351 30.4378 23.2482 30.1946 23.0854C29.9514 22.9227 29.762 22.6914 29.6503 22.4209C29.5387 22.1504 29.5099 21.8529 29.5675 21.566C29.6252 21.2791 29.7667 21.0157 29.9741 20.8093C30.1816 20.603 30.4457 20.4628 30.7329 20.4066C31.02 20.3505 31.3174 20.3808 31.5874 20.4938C31.8573 20.6069 32.0876 20.7975 32.2491 21.0415C32.4106 21.2856 32.496 21.5721 32.4945 21.8647C32.4932 22.2556 32.3369 22.63 32.0598 22.9057C31.7827 23.1814 31.4074 23.3359 31.0165 23.3351Z" fill="black"/>
</g>
<defs>
<clipPath id="clip0_8969_1113">
<rect width="38.806" height="38.806" fill="white" transform="translate(0.208984 0.208984)"/>
</clipPath>
</defs>
</svg>
