<svg width="47" height="29" viewBox="0 0 47 29" fill="none" xmlns="http://www.w3.org/2000/svg">
<path d="M20.3065 0.14563H11.4934C10.9946 0.14563 10.5903 0.540248 10.5903 1.02703V8.90512C10.5903 9.3919 10.9946 9.78652 11.4934 9.78652H20.3065C20.8053 9.78652 21.2097 9.3919 21.2097 8.90512V1.02703C21.2097 0.540248 20.8053 0.14563 20.3065 0.14563Z" fill="#F3F3F3"/>
<path d="M20.3141 0.14563H17.6047C17.8442 0.14563 18.0739 0.238492 18.2433 0.403787C18.4126 0.569083 18.5078 0.793271 18.5078 1.02703V8.90515C18.5078 9.13892 18.4126 9.3631 18.2433 9.5284C18.0739 9.6937 17.8442 9.78656 17.6047 9.78656H20.3141C20.5536 9.78656 20.7833 9.6937 20.9527 9.5284C21.122 9.3631 21.2172 9.13892 21.2172 8.90515V1.02703C21.2172 0.793271 21.122 0.569083 20.9527 0.403787C20.7833 0.238492 20.5536 0.14563 20.3141 0.14563Z" fill="#F3F3F3"/>
<path d="M20.1955 23.5128C20.1944 24.6532 19.7295 25.7466 18.9028 26.5526C18.0762 27.3587 16.9554 27.8114 15.7869 27.8114C14.6184 27.8114 13.4976 27.3587 12.671 26.5526C11.8443 25.7466 11.3794 24.6532 11.3784 23.5128C11.3784 23.5128 11.3208 22.7211 11.6346 22.7403C11.9485 22.7594 20.1955 22.6445 20.1955 22.6445L20.1955 23.5128Z" fill="#4A4F60"/>
<path d="M18.8457 22.663V23.5128C18.8456 24.5394 18.4695 25.5321 17.7853 26.3118C17.101 27.0915 16.1538 27.6068 15.1144 27.7647C15.7431 27.8596 16.3853 27.8207 16.9971 27.6507C17.6089 27.4807 18.1757 27.1835 18.6588 26.7797C19.1419 26.3758 19.5298 25.8747 19.7959 25.3109C20.0619 24.747 20.1999 24.1336 20.2003 23.5128V22.6445C20.2003 22.6445 19.6574 22.6521 18.8457 22.663Z" fill="#3B3F4D"/>
<path d="M17.5012 23.6967C17.3831 24.4071 16.7253 25.1773 15.7885 25.1697C14.8401 25.1621 14.1018 24.3613 14.09 23.5121C14.0903 23.2117 14.1742 22.917 14.3328 22.6595C14.4914 22.4021 14.7187 22.1915 14.9905 22.0504C15.839 21.6153 16.937 22.0156 17.3443 22.7396C17.5033 23.033 17.5585 23.3695 17.5012 23.6967Z" fill="white"/>
<path d="M35.5142 22.7995L8.302 23.1277C6.78852 20.5906 9.00666 15.418 12.7637 13.2989C14.7376 12.1857 16.7528 12.1315 17.8863 12.197H24.8082C23.3633 14.3439 23.5139 17.0837 25.0885 18.8431C26.3588 20.2626 28.4056 20.8772 30.2348 20.4841C34.6198 19.5417 34.346 14.593 33.6207 11.2501C33.5661 10.9983 32.7912 8.29067 32.4021 7.17969L35.3074 7.8244C36.3662 10.6994 38.82 18.2167 38.82 18.2167L35.5142 22.7995Z" fill="#FF6666"/>
<path d="M17.8808 12.197C17.464 12.1726 17.046 12.1726 16.6291 12.197H17.8808ZM23.7283 18.8431C24.8983 20.1504 26.7267 20.7743 28.4373 20.5578C27.1427 20.4033 25.9503 19.7937 25.083 18.8431C23.5085 17.0837 23.3579 14.3439 24.8028 12.197H23.4481C22.0032 14.3439 22.1538 17.0837 23.7283 18.8431ZM35.3019 7.82441L32.3967 7.17969C32.4306 7.27658 32.4676 7.38623 32.5067 7.50472L33.9473 7.82441C35.0061 10.6994 37.4599 18.2167 37.4599 18.2167H38.8146C38.8146 18.2167 36.3608 10.6994 35.3019 7.82441Z" fill="#FF4E4E"/>
<path d="M43.527 20.5654C43.9824 21.0313 44.3249 21.5909 44.5293 22.2031C44.7336 22.8153 44.7946 23.4644 44.7077 24.1026C44.6208 24.7409 44.3882 25.352 44.0271 25.8908C43.6661 26.4297 43.1857 26.8826 42.6214 27.2162C42.0572 27.5498 41.4234 27.7555 40.7668 27.8183C40.1102 27.881 39.4476 27.7992 38.8278 27.5787C38.2079 27.3583 37.6466 27.005 37.1853 26.5447C36.724 26.0844 36.3744 25.529 36.1623 24.9193" fill="#4A4F60"/>
<path d="M43.5253 20.5654L42.6159 21.1031C43.0375 21.7024 43.2966 22.3963 43.3689 23.1199C43.4413 23.8435 43.3245 24.5731 43.0295 25.2407C42.7345 25.9083 42.2709 26.492 41.6821 26.9373C41.0932 27.3826 40.3983 27.675 39.6623 27.7871C40.5723 27.9246 41.5035 27.7805 42.3253 27.3751C43.1471 26.9697 43.8182 26.3233 44.2443 25.5267C44.6704 24.73 44.8302 23.8232 44.7013 22.9334C44.5723 22.0435 44.1611 21.2155 43.5253 20.5654V20.5654Z" fill="#3B3F4D"/>
<path d="M41.1512 22.084C41.4134 22.2239 41.6331 22.4288 41.7883 22.678C41.9434 22.9272 42.0284 23.2119 42.0348 23.5035C42.0411 23.795 41.9686 24.083 41.8244 24.3385C41.6803 24.5939 41.4697 24.8077 41.2138 24.9583C40.958 25.1089 40.666 25.191 40.3672 25.1963C40.0685 25.2016 39.7736 25.1299 39.5124 24.9885C39.2511 24.847 39.0327 24.6408 38.8791 24.3906C38.7256 24.1405 38.6424 23.8552 38.6379 23.5637C38.6847 23.2957 38.7902 23.0407 38.9472 22.8161C39.1041 22.5915 39.3088 22.4025 39.5474 22.2621C39.7859 22.1217 40.0526 22.0331 40.3294 22.0024C40.6062 21.9716 40.8865 21.9995 41.1512 22.084Z" fill="white"/>
<path d="M8.29633 23.1261C9.33317 18.4401 13.8149 15.7966 17.4599 16.708C20.1009 17.3684 22.185 19.8657 22.6712 22.9453L8.29633 23.1261Z" fill="#FF4E4E"/>
<path d="M17.4599 16.7081C16.5238 16.4819 15.5468 16.4703 14.6054 16.6742C14.6539 16.685 14.7023 16.6961 14.7505 16.7081C17.3916 17.3685 19.4756 19.8658 19.9618 22.9454L8.30433 23.092C8.30175 23.1035 8.29886 23.1147 8.29633 23.1262L22.6712 22.9454C22.185 19.8658 20.1009 17.3685 17.4599 16.7081Z" fill="#FF3636"/>
<path d="M36.8914 18.2791L37.16 18.1231C38.3946 17.4061 39.8706 17.1971 41.2631 17.5421C42.6556 17.8872 43.8506 18.7579 44.5853 19.9629L44.5853 19.9629L35.0064 25.5258L35.0064 25.5258C34.2717 24.3208 34.0576 22.8804 34.4111 21.5214C34.7646 20.1624 35.6568 18.9961 36.8914 18.2791Z" fill="#FF4E4E"/>
<path d="M44.5845 19.9628C43.985 18.9801 43.0752 18.2135 41.9915 17.778C40.9078 17.3426 39.7086 17.2619 38.5739 17.5479C39.432 17.7634 40.2229 18.1812 40.877 18.7645C41.0164 18.8907 41.1236 19.0468 41.1902 19.2206C41.2568 19.3943 41.2809 19.5808 41.2606 19.7653C41.2403 19.9497 41.1762 20.127 41.0734 20.283C40.9705 20.439 40.8317 20.5694 40.6681 20.6638L34.4514 24.2742C34.58 24.7129 34.7663 25.1336 35.0056 25.5258V25.5258L44.5845 19.9629L44.5845 19.9628Z" fill="#FF3636"/>
<path d="M33.2444 6.54092H28.708C28.5284 6.54092 28.3561 6.47127 28.2291 6.3473C28.1021 6.22333 28.0307 6.05519 28.0307 5.87986C28.0307 5.70454 28.1021 5.5364 28.2291 5.41243C28.3561 5.28846 28.5284 5.21881 28.708 5.21881H33.2444C33.424 5.21881 33.5963 5.28846 33.7234 5.41243C33.8504 5.5364 33.9217 5.70454 33.9217 5.87986C33.9217 6.05519 33.8504 6.22333 33.7234 6.3473C33.5963 6.47127 33.424 6.54092 33.2444 6.54092Z" fill="#4A4F60"/>
<path d="M33.8789 3.9375H36.3503C36.4222 3.9375 36.4911 3.96536 36.5419 4.01495C36.5927 4.06454 36.6213 4.13179 36.6213 4.20192V7.55937C36.6213 7.6295 36.5927 7.69675 36.5419 7.74634C36.4911 7.79593 36.4222 7.82379 36.3503 7.82379H33.8789C33.3509 7.82379 32.8444 7.61907 32.471 7.25466C32.0976 6.89025 31.8879 6.396 31.8879 5.88064C31.8879 5.36529 32.0976 4.87104 32.471 4.50663C32.8444 4.14222 33.3509 3.9375 33.8789 3.9375Z" fill="#FF4E4E"/>
<path d="M36.35 3.9375H34.9953C35.0672 3.9375 35.1361 3.96536 35.1869 4.01495C35.2377 4.06454 35.2662 4.13179 35.2662 4.20192V7.55936C35.2662 7.62949 35.2377 7.69674 35.1869 7.74633C35.1361 7.79592 35.0672 7.82378 34.9953 7.82378H36.35C36.4218 7.82378 36.4908 7.79592 36.5416 7.74633C36.5924 7.69674 36.6209 7.62949 36.6209 7.55936V4.20192C36.6209 4.13179 36.5924 4.06454 36.5416 4.01495C36.4908 3.96536 36.4218 3.9375 36.35 3.9375Z" fill="#FF3636"/>
<path d="M24.6308 9.78711H14.3796C13.6976 9.78711 13.1447 10.3267 13.1447 10.9922C13.1447 11.6578 13.6976 12.1973 14.3796 12.1973H24.6308C25.3128 12.1973 25.8657 11.6578 25.8657 10.9922C25.8657 10.3267 25.3128 9.78711 24.6308 9.78711Z" fill="#4A4F60"/>
<path d="M24.6325 9.78723H21.9231C22.0853 9.78723 22.2458 9.8184 22.3956 9.87896C22.5455 9.93953 22.6816 10.0283 22.7962 10.1402C22.9109 10.2521 23.0019 10.385 23.0639 10.5312C23.126 10.6774 23.1579 10.8341 23.1579 10.9923C23.1579 11.1506 23.126 11.3073 23.0639 11.4535C23.0019 11.5997 22.9109 11.7326 22.7962 11.8445C22.6816 11.9564 22.5455 12.0452 22.3956 12.1057C22.2458 12.1663 22.0853 12.1975 21.9231 12.1975H24.6325C24.7946 12.1975 24.9552 12.1663 25.105 12.1057C25.2548 12.0452 25.391 11.9564 25.5056 11.8445C25.6203 11.7326 25.7112 11.5997 25.7733 11.4535C25.8353 11.3073 25.8673 11.1506 25.8673 10.9923C25.8673 10.8341 25.8353 10.6774 25.7733 10.5312C25.7112 10.385 25.6203 10.2521 25.5056 10.1402C25.391 10.0283 25.2548 9.93953 25.105 9.87896C24.9552 9.8184 24.7946 9.78723 24.6325 9.78723Z" fill="#3B3F4D"/>
<path d="M6.53012 2.96566H1.39139C1.21175 2.96566 1.03947 2.89601 0.91244 2.77204C0.785413 2.64807 0.71405 2.47993 0.71405 2.30461C0.71405 2.12929 0.785413 1.96114 0.91244 1.83717C1.03947 1.7132 1.21175 1.64355 1.39139 1.64355H6.53012C6.70976 1.64355 6.88205 1.7132 7.00908 1.83717C7.1361 1.96114 7.20747 2.12929 7.20747 2.30461C7.20747 2.47993 7.1361 2.64807 7.00908 2.77204C6.88205 2.89601 6.70976 2.96566 6.53012 2.96566ZM7.88481 5.60987H2.74608C2.56644 5.60987 2.39415 5.54023 2.26713 5.41626C2.1401 5.29228 2.06874 5.12414 2.06874 4.94882C2.06874 4.7735 2.1401 4.60536 2.26713 4.48139C2.39415 4.35741 2.56644 4.28777 2.74608 4.28777H7.88481C8.06445 4.28777 8.23674 4.35741 8.36376 4.48139C8.49079 4.60536 8.56215 4.7735 8.56215 4.94882C8.56215 5.12414 8.49079 5.29228 8.36376 5.41626C8.23674 5.54023 8.06445 5.60987 7.88481 5.60987ZM6.53012 8.25409H1.39139C1.21175 8.25409 1.03947 8.18444 0.91244 8.06047C0.785413 7.9365 0.71405 7.76836 0.71405 7.59303C0.71405 7.41771 0.785413 7.24957 0.91244 7.1256C1.03947 7.00163 1.21175 6.93198 1.39139 6.93198H6.53012C6.70976 6.93198 6.88205 7.00163 7.00908 7.1256C7.1361 7.24957 7.20747 7.41771 7.20747 7.59303C7.20747 7.76836 7.1361 7.9365 7.00908 8.06047C6.88205 8.18444 6.70976 8.25409 6.53012 8.25409ZM46.2767 28.5669H1.39139C1.21175 28.5669 1.03947 28.4973 0.91244 28.3733C0.785413 28.2493 0.71405 28.0812 0.71405 27.9059C0.71405 27.7305 0.785413 27.5624 0.91244 27.4384C1.03947 27.3145 1.21175 27.2448 1.39139 27.2448H46.2767C46.4563 27.2448 46.6286 27.3145 46.7557 27.4384C46.8827 27.5624 46.954 27.7305 46.954 27.9059C46.954 28.0812 46.8827 28.2493 46.7557 28.3733C46.6286 28.4973 46.4563 28.5669 46.2767 28.5669Z" fill="#D3D3D3"/>
<path d="M17.9348 4.29053H16.5801V2.96843C16.5801 2.7931 16.5088 2.62496 16.3817 2.50099C16.2547 2.37702 16.0824 2.30737 15.9028 2.30737C15.7232 2.30737 15.5509 2.37702 15.4238 2.50099C15.2968 2.62496 15.2255 2.7931 15.2255 2.96843V4.29053H13.8708C13.6911 4.29053 13.5188 4.36018 13.3918 4.48415C13.2648 4.60812 13.1934 4.77626 13.1934 4.95159C13.1934 5.12691 13.2648 5.29505 13.3918 5.41902C13.5188 5.54299 13.6911 5.61264 13.8708 5.61264H15.2255V6.93475C15.2255 7.11007 15.2968 7.27821 15.4238 7.40218C15.5509 7.52615 15.7232 7.5958 15.9028 7.5958C16.0824 7.5958 16.2547 7.52615 16.3817 7.40218C16.5088 7.27821 16.5801 7.11007 16.5801 6.93475V5.61264H17.9348C18.1145 5.61264 18.2868 5.54299 18.4138 5.41902C18.5408 5.29505 18.6122 5.12691 18.6122 4.95159C18.6122 4.77626 18.5408 4.60812 18.4138 4.48415C18.2868 4.36018 18.1145 4.29053 17.9348 4.29053Z" fill="#FF6666"/>
</svg>
