<svg width="34" height="34" viewBox="0 0 34 34" fill="none" xmlns="http://www.w3.org/2000/svg">
<g clip-path="url(#clip0_9314_6135)">
<path d="M25.3461 23.6853C25.1487 23.4872 24.9141 23.33 24.6558 23.2227C24.3975 23.1155 24.1206 23.0603 23.8409 23.0603C23.5612 23.0603 23.2843 23.1155 23.026 23.2227C22.7677 23.33 22.5331 23.4872 22.3357 23.6853C19.7715 26.2494 19.7573 26.4336 19.2261 26.2919C13.014 24.5919 9.25275 20.434 7.89275 15.3907C7.5315 14.0661 7.36859 14.6257 10.3294 11.6649C10.5275 11.4674 10.6847 11.2328 10.792 10.9746C10.8992 10.7163 10.9544 10.4393 10.9544 10.1596C10.9544 9.87996 10.8992 9.60303 10.792 9.34474C10.6847 9.08644 10.5275 8.85186 10.3294 8.65444L6.31317 4.65235C6.11575 4.45425 5.88117 4.29706 5.62287 4.18981C5.36457 4.08255 5.08764 4.02734 4.80796 4.02734C4.52828 4.02734 4.25135 4.08255 3.99306 4.18981C3.73476 4.29706 3.50017 4.45425 3.30275 4.65235C1.56025 6.3736 0.122337 7.4361 0.00192082 9.73819C-0.1329 12.8753 0.368832 16.0073 1.47688 18.9454C2.58493 21.8835 4.27635 24.5668 6.44922 26.8336C8.62209 29.1005 11.2314 30.9039 14.12 32.1353C17.0085 33.3667 20.1164 34.0005 23.2565 33.9986C26.5219 33.9986 26.8973 33.1486 29.3482 30.6978C29.5463 30.5003 29.7035 30.2658 29.8107 30.0075C29.918 29.7492 29.9732 29.4722 29.9732 29.1926C29.9732 28.9129 29.918 28.636 29.8107 28.3777C29.7035 28.1194 29.5463 27.8848 29.3482 27.6874L25.3461 23.6853ZM28.3353 29.6919C26.5786 31.4486 25.8632 32.4899 24.1844 32.5253C21.1637 32.6553 18.1489 32.1568 15.3308 31.0614C12.5127 29.966 9.95272 28.2976 7.81279 26.1616C5.67286 24.0257 3.99962 21.4688 2.89897 18.6528C1.79832 15.8367 1.29422 12.8229 1.41859 9.80194C1.48942 8.08069 2.58734 7.3511 4.28734 5.6511C4.35436 5.58346 4.43434 5.53002 4.52248 5.49399C4.61063 5.45796 4.70513 5.44006 4.80035 5.44139C4.89557 5.44271 4.98954 5.46322 5.07665 5.50168C5.16376 5.54015 5.24222 5.59579 5.30734 5.66527L9.3165 9.67444C9.44843 9.80715 9.52248 9.98668 9.52248 10.1738C9.52248 10.3609 9.44843 10.5405 9.3165 10.6732C6.33442 13.6553 5.9165 13.5774 6.48317 15.7732C7.25384 18.5805 8.74398 21.1381 10.8062 23.1929C12.8685 25.2476 15.4314 26.7285 18.2415 27.489C20.4019 28.0769 20.2673 27.7582 23.3415 24.6557C23.4742 24.5238 23.6537 24.4497 23.8409 24.4497C24.028 24.4497 24.2075 24.5238 24.3403 24.6557L28.3353 28.6932C28.4672 28.8259 28.5412 29.0054 28.5412 29.1926C28.5412 29.3797 28.4672 29.5592 28.3353 29.6919ZM27.6269 4.95694V7.08194H26.2103V4.95694C26.2103 4.76907 26.1356 4.58891 26.0028 4.45607C25.87 4.32323 25.6898 4.2486 25.5019 4.2486C25.3141 4.2486 25.1339 4.32323 25.0011 4.45607C24.8682 4.58891 24.7936 4.76907 24.7936 4.95694V7.79027C24.7936 7.97813 24.8682 8.1583 25.0011 8.29114C25.1339 8.42397 25.3141 8.4986 25.5019 8.4986H27.6269V10.6236C27.6269 10.8115 27.7015 10.9916 27.8344 11.1245C27.9672 11.2573 28.1474 11.3319 28.3353 11.3319C28.5231 11.3319 28.7033 11.2573 28.8361 11.1245C28.969 10.9916 29.0436 10.8115 29.0436 10.6236V4.95694C29.0436 4.76907 28.969 4.58891 28.8361 4.45607C28.7033 4.32323 28.5231 4.2486 28.3353 4.2486C28.1474 4.2486 27.9672 4.32323 27.8344 4.45607C27.7015 4.58891 27.6269 4.76907 27.6269 4.95694ZM22.6686 4.2486H19.8353C19.6474 4.2486 19.4672 4.32323 19.3344 4.45607C19.2015 4.58891 19.1269 4.76907 19.1269 4.95694C19.1269 5.1448 19.2015 5.32496 19.3344 5.4578C19.4672 5.59064 19.6474 5.66527 19.8353 5.66527H21.9603V7.08194H19.8353C19.6474 7.08194 19.4672 7.15656 19.3344 7.2894C19.2015 7.42224 19.1269 7.60241 19.1269 7.79027V10.6236C19.1269 10.8115 19.2015 10.9916 19.3344 11.1245C19.4672 11.2573 19.6474 11.3319 19.8353 11.3319H22.6686C22.8565 11.3319 23.0366 11.2573 23.1695 11.1245C23.3023 10.9916 23.3769 10.8115 23.3769 10.6236C23.3769 10.4357 23.3023 10.2556 23.1695 10.1227C23.0366 9.9899 22.8565 9.91527 22.6686 9.91527H20.5436V8.4986H22.6686C22.8565 8.4986 23.0366 8.42397 23.1695 8.29114C23.3023 8.1583 23.3769 7.97813 23.3769 7.79027V4.95694C23.3769 4.76907 23.3023 4.58891 23.1695 4.45607C23.0366 4.32323 22.8565 4.2486 22.6686 4.2486Z" fill="white"/>
<path d="M24.0843 0C14.7768 0 10.6897 9.14458 17.7093 13.7629C17.7093 18.7213 17.5606 18.8275 18.1485 19.0683C18.7364 19.3092 18.6514 19.1817 22.3985 15.4629C28.6885 16.3342 34.001 12.4312 34.001 7.79167C34.001 3.49208 29.5526 0 24.0843 0ZM24.0843 14.1667C21.0951 14.1667 22.7597 13.0687 19.126 16.7096C19.126 13.2812 19.2464 13.0475 18.786 12.7642C12.4889 8.97458 16.1297 1.41667 24.0843 1.41667C28.7735 1.41667 32.5843 4.25 32.5843 7.79167C32.5843 11.3333 28.7735 14.1667 24.0843 14.1667Z" fill="white"/>
</g>
<defs>
<clipPath id="clip0_9314_6135">
<rect width="34" height="34" fill="white"/>
</clipPath>
</defs>
</svg>
