<svg width="49" height="26" fill="none" xmlns="http://www.w3.org/2000/svg"><g clip-path="url(#a)" fill="#000"><path d="M7.619 11.234c-.664-.405-.596-.992-.424-1.567a.11.11 0 0 0-.005-.076.093.093 0 0 0-.052-.05.081.081 0 0 0-.068.006.097.097 0 0 0-.045.057c-.113.378-.377 1.264.508 1.803a.082.082 0 0 0 .099-.01.098.098 0 0 0 .022-.029.107.107 0 0 0-.009-.11.092.092 0 0 0-.026-.024zm-7.344.245c.007.01.016.019.026.026a.083.083 0 0 0 .068.01A.086.086 0 0 0 .4 11.5l6.625-5.465.008.012c.027.038.06.069.1.09a.254.254 0 0 0 .124.03.293.293 0 0 0 .186-.068l.186-.153a.308.308 0 0 0 .079-.09.342.342 0 0 0 .039-.244.34.34 0 0 0-.046-.115L5.619 2.521a.285.285 0 0 0-.099-.09.254.254 0 0 0-.125-.03.293.293 0 0 0-.186.069l-.185.152a.309.309 0 0 0-.079.09.343.343 0 0 0-.039.244.34.34 0 0 0 .046.115l.058.083L.294 6.995a.101.101 0 0 0-.035.065.108.108 0 0 0 .016.074.088.088 0 0 0 .058.04.083.083 0 0 0 .067-.019l.357-.291.25.355c.007.01.016.019.026.025a.083.083 0 0 0 .068.01.086.086 0 0 0 .031-.018.097.097 0 0 0 .023-.03.107.107 0 0 0-.007-.11L.9 6.747l.421-.342.256.363c.015.02.036.034.06.037a.083.083 0 0 0 .066-.02.107.107 0 0 0 .015-.14l-.252-.358.42-.343.263.372c.014.02.036.034.06.037a.083.083 0 0 0 .065-.02.107.107 0 0 0 .015-.139l-.258-.367.421-.344.268.38c.014.021.036.035.06.038a.083.083 0 0 0 .065-.02.107.107 0 0 0 .015-.14l-.264-.375.422-.343.273.389c.015.02.036.034.06.037a.083.083 0 0 0 .066-.02.107.107 0 0 0 .015-.14l-.27-.383.421-.344.28.398c.014.02.036.034.06.037a.083.083 0 0 0 .065-.02.107.107 0 0 0 .015-.14l-.276-.392.422-.343v.002l.285.404c.015.02.036.034.06.037a.083.083 0 0 0 .065-.02.107.107 0 0 0 .015-.14l-.281-.4.423-.345a.099.099 0 0 0 .005.012l.285.404c.014.02.036.034.059.037a.083.083 0 0 0 .066-.02.107.107 0 0 0 .015-.14l-.284-.403-.005-.005.262-.213 1.796 2.567-.365.301-.254-.37a.088.088 0 0 0-.06-.038.083.083 0 0 0-.065.02.107.107 0 0 0-.017.139l.252.367-.414.342-.257-.375a.093.093 0 0 0-.027-.025.083.083 0 0 0-.067-.01.086.086 0 0 0-.031.016.097.097 0 0 0-.024.03.107.107 0 0 0-.009.075.104.104 0 0 0 .016.034l.256.373-.415.342-.26-.38a.088.088 0 0 0-.06-.038.083.083 0 0 0-.066.02.107.107 0 0 0-.017.139l.26.377-.414.342-.265-.385a.093.093 0 0 0-.026-.026.083.083 0 0 0-.067-.01.086.086 0 0 0-.032.017.096.096 0 0 0-.023.03.107.107 0 0 0-.009.075.104.104 0 0 0 .016.034l.262.383-.414.342-.268-.39a.088.088 0 0 0-.059-.038.083.083 0 0 0-.066.02.107.107 0 0 0-.017.139l.267.387-.415.342-.27-.395a.093.093 0 0 0-.027-.026.083.083 0 0 0-.068-.01.086.086 0 0 0-.031.017.097.097 0 0 0-.023.03.107.107 0 0 0-.01.074.104.104 0 0 0 .016.035l.27.393-.414.342-.275-.4a.088.088 0 0 0-.06-.038.083.083 0 0 0-.065.02.107.107 0 0 0-.017.139l.274.397-.415.342-.278-.405a.088.088 0 0 0-.06-.038.083.083 0 0 0-.065.019.107.107 0 0 0-.017.139l.277.403-.415.342-.002-.004-.28-.406a.093.093 0 0 0-.025-.026.084.084 0 0 0-.068-.01.086.086 0 0 0-.031.017.096.096 0 0 0-.023.029.107.107 0 0 0 .006.11l.279.406.002.002-.417.343a.08.08 0 0 0-.004-.01l-.28-.406a.093.093 0 0 0-.025-.026.083.083 0 0 0-.068-.01.086.086 0 0 0-.031.017.096.096 0 0 0-.023.029.107.107 0 0 0-.01.075.103.103 0 0 0 .016.035l.279.406.006.006-.418.345a.108.108 0 0 0-.007-.016l-.28-.407a.088.088 0 0 0-.059-.038.083.083 0 0 0-.066.02.107.107 0 0 0-.017.139l.28.406.01.01-.54.445a.108.108 0 0 0-.018.139zm4.82-8.527a.108.108 0 0 1-.017-.078.146.146 0 0 1 .052-.092l.186-.153a.125.125 0 0 1 .08-.03c.015 0 .031.003.046.01a.104.104 0 0 1 .036.034l2.08 2.973a.108.108 0 0 1 .017.077.146.146 0 0 1-.052.092l-.186.153a.125.125 0 0 1-.08.03.093.093 0 0 1-.046-.01.104.104 0 0 1-.037-.034l-2.08-2.972zm.21 6.783c-.03 0-.06.056-.088.167a6.557 6.557 0 0 1-.289.865c-.298.727-.893 1.383-.828 2.226.056.727.656 1.103 1.251 1.103.488 0 .972-.252 1.155-.768.374-1.06-.541-1.864-.892-2.744a4.656 4.656 0 0 1-.223-.68c-.028-.113-.057-.17-.086-.17zm.146.929c.122.28.265.55.429.803.354.587.689 1.14.46 1.79-.168.472-.62.64-.989.64-.483 0-1.024-.288-1.073-.92-.04-.521.21-.973.473-1.453a6.64 6.64 0 0 0 .34-.675 7.13 7.13 0 0 0 .212-.59c.047.147.096.273.148.405z"/><path d="M4.817 12.315a.082.082 0 0 0-.068.009.098.098 0 0 0-.042.06c-.067.26-.121.564-.025.854a.096.096 0 0 0 .046.055.08.08 0 0 0 .069.003.094.094 0 0 0 .05-.051.11.11 0 0 0 .002-.076c-.078-.236-.029-.503.03-.732a.11.11 0 0 0-.009-.075.092.092 0 0 0-.053-.047zm3.697 1.681a.082.082 0 0 0 .041-.011.093.093 0 0 0 .032-.031.106.106 0 0 0 .01-.091c-.078-.236-.029-.503.03-.732a.11.11 0 0 0-.008-.075.097.097 0 0 0-.023-.03.088.088 0 0 0-.03-.017.08.08 0 0 0-.069.009.092.092 0 0 0-.026.025.103.103 0 0 0-.016.034c-.066.26-.121.565-.025.854a.099.099 0 0 0 .033.047.083.083 0 0 0 .051.018z"/><path d="M13.827 14.89h-2.31l-.626-.482a.624.624 0 0 0-.325-.112h-.448a1.13 1.13 0 0 0 .14-.272c.331-.939-.347-1.676-.75-2.444a1.62 1.62 0 0 0 .266-.482C10.309 9.556 9 8.386 8.5 7.106c-.13-.32-.238-.65-.32-.99-.038-.163-.08-.245-.122-.245-.042 0-.084.081-.125.243-.11.43-.248.85-.413 1.258-.426 1.058-1.275 2.013-1.183 3.238.08 1.058.936 1.604 1.787 1.604.06 0 .12-.004.178-.01-.253.464-.492.934-.45 1.484.015.223.09.434.217.608H.35c-.098 0-.11.048-.028.107l.677.487H.797a.085.085 0 0 0-.063.03.105.105 0 0 0-.027.07c0 .026.01.05.027.07.016.018.039.028.063.028h.446c.022 0 .043-.009.059-.026.05.016.1.025.151.027h12.374c.023 0 .046-.011.063-.03a.105.105 0 0 0 .026-.07.105.105 0 0 0-.026-.07.085.085 0 0 0-.063-.029zm-5.703-2.874c-.723 0-1.535-.445-1.61-1.422-.059-.787.304-1.458.689-2.168.177-.314.337-.639.48-.973.144-.357.269-.724.373-1.098.077.283.171.56.28.83.173.403.375.79.606 1.155.518.873 1.008 1.698.665 2.687-.046.133-.11.258-.19.369a4.654 4.654 0 0 1-.274-.797c-.028-.113-.057-.169-.086-.169-.03 0-.06.056-.088.168a6.558 6.558 0 0 1-.289.864 5.376 5.376 0 0 1-.26.529 1.786 1.786 0 0 1-.296.025zm-.094 1.656c-.04-.52.21-.973.473-1.452.125-.218.239-.443.34-.676.082-.201.152-.396.212-.59.047.147.096.274.148.405.122.281.265.55.429.804.354.586.689 1.14.46 1.788-.168.473-.62.642-.989.642-.483 0-1.024-.288-1.073-.921zM1.69 14.89h-.237a.506.506 0 0 1-.231-.076l-.446-.32h7.478c.247.197.545.302.85.297.3.006.594-.098.836-.297h.626a.466.466 0 0 1 .223.077l.414.32H1.69zM.347 15.087c.049 0 .088-.044.088-.099 0-.054-.04-.098-.088-.098-.05 0-.09.044-.09.098 0 .055.04.099.09.099zM14.718 14.89h-.446a.085.085 0 0 0-.063.028.105.105 0 0 0-.026.07c0 .027.009.052.026.07.017.02.04.03.063.03h.446c.024 0 .046-.01.063-.03a.105.105 0 0 0 .026-.07.105.105 0 0 0-.026-.07.085.085 0 0 0-.063-.028zM15.164 15.087c.05 0 .089-.044.089-.099 0-.054-.04-.098-.089-.098-.049 0-.089.044-.089.098 0 .055.04.099.089.099zM13.112 10.974c.035 0 .07-.011.1-.033a.195.195 0 0 0 .065-.09.219.219 0 0 0 .01-.114.206.206 0 0 0-.049-.101.173.173 0 0 0-.091-.054.162.162 0 0 0-.103.01.184.184 0 0 0-.08.074.214.214 0 0 0 .022.25.17.17 0 0 0 .126.058zm0-.297c.018 0 .035.006.05.017.014.01.026.026.032.044a.11.11 0 0 1 .005.057.103.103 0 0 1-.024.051.086.086 0 0 1-.046.027.081.081 0 0 1-.051-.005.092.092 0 0 1-.04-.037.107.107 0 0 1 .01-.125.085.085 0 0 1 .064-.03zM6.597 1.162c.035 0 .07-.012.1-.034a.195.195 0 0 0 .065-.088.219.219 0 0 0 .01-.115.206.206 0 0 0-.049-.101.174.174 0 0 0-.091-.055.162.162 0 0 0-.103.012.184.184 0 0 0-.08.073.214.214 0 0 0 .022.25.17.17 0 0 0 .126.058zm0-.297c.018 0 .035.005.05.016a.11.11 0 0 1 .038.102.103.103 0 0 1-.025.05.087.087 0 0 1-.046.028.081.081 0 0 1-.051-.006.092.092 0 0 1-.04-.036.107.107 0 0 1 .01-.125.085.085 0 0 1 .064-.03zm8.032 6.38a.218.218 0 0 0-.13.044.256.256 0 0 0-.086.117.287.287 0 0 0-.014.15.27.27 0 0 0 .065.133.228.228 0 0 0 .12.071c.045.01.092.005.135-.014a.241.241 0 0 0 .105-.096.281.281 0 0 0-.03-.329.223.223 0 0 0-.165-.076zm0 .39a.11.11 0 0 1-.065-.022.129.129 0 0 1-.043-.058.143.143 0 0 1-.007-.075.135.135 0 0 1 .032-.067.114.114 0 0 1 .06-.035.106.106 0 0 1 .068.007c.021.01.04.026.053.048a.14.14 0 0 1-.015.164.112.112 0 0 1-.083.038zm-2.588-6.213a.218.218 0 0 0 .13-.044.256.256 0 0 0 .086-.117.287.287 0 0 0 .014-.15.27.27 0 0 0-.064-.133.228.228 0 0 0-.12-.071.213.213 0 0 0-.136.015.241.241 0 0 0-.105.095.281.281 0 0 0 .03.329.223.223 0 0 0 .165.076zm0-.39a.11.11 0 0 1 .065.022c.02.014.034.034.043.058.01.024.011.05.007.075a.136.136 0 0 1-.032.067.114.114 0 0 1-.06.035.106.106 0 0 1-.068-.007.121.121 0 0 1-.052-.048.14.14 0 0 1 .014-.164.112.112 0 0 1 .083-.038zm-1.428 2.967a.218.218 0 0 0 .13-.044.256.256 0 0 0 .086-.117.287.287 0 0 0-.05-.283.228.228 0 0 0-.12-.071.213.213 0 0 0-.136.014.241.241 0 0 0-.105.096.28.28 0 0 0 .03.329.223.223 0 0 0 .165.076zm0-.39c.023 0 .046.007.065.022.02.014.034.034.043.058a.143.143 0 0 1-.025.142.114.114 0 0 1-.06.035.106.106 0 0 1-.068-.007.12.12 0 0 1-.052-.048.14.14 0 0 1 .014-.164.111.111 0 0 1 .083-.038zM8.65 6.118c.035 0 .07-.012.099-.034a.195.195 0 0 0 .066-.089.219.219 0 0 0 .01-.114.206.206 0 0 0-.05-.102.174.174 0 0 0-.09-.054.162.162 0 0 0-.104.011.184.184 0 0 0-.08.073.214.214 0 0 0 .022.25.17.17 0 0 0 .127.059zm0-.298c.017 0 .035.006.05.017.014.01.025.026.032.044a.11.11 0 0 1 .005.058.103.103 0 0 1-.024.05.087.087 0 0 1-.046.028.081.081 0 0 1-.052-.006.092.092 0 0 1-.04-.037.107.107 0 0 1 .012-.125.085.085 0 0 1 .063-.029zM1.867 3.441c.035 0 .07-.011.1-.033a.195.195 0 0 0 .065-.089.219.219 0 0 0 .01-.114.206.206 0 0 0-.049-.102.174.174 0 0 0-.091-.054.162.162 0 0 0-.103.011.184.184 0 0 0-.08.073.214.214 0 0 0 .022.25.17.17 0 0 0 .126.058zm0-.297c.018 0 .035.006.05.017.014.01.026.026.032.044a.11.11 0 0 1 .005.058.103.103 0 0 1-.024.05.087.087 0 0 1-.046.027.081.081 0 0 1-.051-.005.092.092 0 0 1-.04-.037.107.107 0 0 1 .01-.125.085.085 0 0 1 .064-.029z"/><path d="M7.307 9.338c.049 0 .088-.044.088-.099 0-.054-.04-.099-.088-.099-.05 0-.09.045-.09.1 0 .054.04.098.09.098zM4.9 12.111c.048 0 .088-.044.088-.098 0-.055-.04-.1-.089-.1-.049 0-.088.045-.088.1 0 .054.04.098.088.098zM8.644 12.808c.05 0 .09-.044.09-.099 0-.055-.04-.099-.09-.099-.049 0-.088.044-.088.099 0 .055.04.099.088.099zM9.634 15.485H5.886a.085.085 0 0 0-.064.03.105.105 0 0 0-.026.07c0 .026.01.05.026.07.017.018.04.028.064.028h1.606v.199H6.6a.085.085 0 0 0-.064.029.105.105 0 0 0-.026.07c0 .026.01.051.026.07.017.018.04.029.064.029h2.41c.023 0 .046-.01.062-.03a.105.105 0 0 0 .026-.07.105.105 0 0 0-.026-.07.085.085 0 0 0-.063-.028h-.982v-.199h1.607c.024 0 .046-.01.063-.029a.105.105 0 0 0 .026-.07.105.105 0 0 0-.026-.07.085.085 0 0 0-.063-.029zm1.25 0H9.99a.085.085 0 0 0-.063.03.105.105 0 0 0-.026.07c0 .026.009.05.026.07.016.018.04.028.063.028h.892c.024 0 .047-.01.063-.029a.105.105 0 0 0 .027-.07.105.105 0 0 0-.027-.07.085.085 0 0 0-.063-.029zm-5.355 0h-.893a.085.085 0 0 0-.063.03.105.105 0 0 0-.026.07c0 .026.01.05.026.07.017.018.04.028.063.028h.893c.023 0 .046-.01.063-.029a.105.105 0 0 0 .026-.07.105.105 0 0 0-.026-.07.085.085 0 0 0-.063-.029zM13.909 3.122v-.106l-.211.031v-.003l.133-.194-.084-.052-.085.217h-.003l-.087-.216-.085.054.131.19v.003l-.205-.03v.106l.207-.03v.003l-.133.19.08.055.09-.218h.003l.084.217.088-.056-.134-.186v-.003l.21.028zM10.233 8.005l-.076.11.046.031.052-.126h.001l.049.125.05-.032-.077-.107v-.002l.121.016v-.06l-.12.018v-.002l.075-.112-.048-.03-.049.125h-.001l-.05-.124-.05.03.076.11v.002l-.118-.017v.06l.12-.017v.002zM12.277 7.301l.13-.19-.082-.052-.084.213h-.003l-.085-.211-.083.053.128.186v.003l-.2-.03v.104l.202-.029v.003l-.13.186.078.055.089-.215h.002l.083.213.086-.054-.131-.183V7.35l.206.027v-.103l-.207.03v-.003zM9.427 1.56l-.112.16.067.047.077-.185h.002l.071.183.074-.047-.113-.157v-.003l.178.024v-.09l-.178.027v-.003l.112-.164-.07-.045-.073.184H9.46l-.073-.182-.072.046.11.16v.002l-.173-.025v.09l.175-.025v.002z"/></g><g clip-path="url(#b)"><path d="m23.032 16.931-3.238 1.225c-1.171.459-1.998 1.683-1.998 3.06v2.832h14.47v-2.832c0-1.377-.827-2.601-1.999-3.06L27.03 16.93h-3.997z" fill="#D5E5F2"/><path d="M24.686 16.855h-1.654l-3.238 1.224c-1.034.383-1.998 1.684-1.998 3.061v2.908h1.171v-2.831c0-.918.62-1.76 1.378-1.99l1.31-.459c.55-.23 1.102-.076 1.515.23.138 0 .483.153.551.23.345.229.827.229 1.172 0 .62-.383 1.447-1.072 1.447-1.914l-.207-.459h-1.447zm7.58 7.116v-2.83c0-.613-.138-1.149-.414-1.608-1.723.23-3.032 1.837-3.032 3.826v.612h3.445z" fill="#B0C4DA"/><path d="M17.796 23.972v-2.831c0-.612.138-1.148.413-1.607 1.723.23 3.032 1.836 3.032 3.826v.612h-3.445z" fill="#B0C4DA"/><path d="M18.967 21.14c0-.458.137-.918.413-1.224-.345-.23-.758-.306-1.102-.382-.276.459-.414 1.071-.414 1.607v2.831h1.171l-.068-2.831z" fill="#99B5CE"/><path d="M23.03 14.56v2.371c0 .306.138.613.345.842.826 1.224 2.55 1.224 3.445 0 .207-.306.344-.536.344-.842V14.56H23.03z" fill="#F0C9AE"/><path d="M24.684 17.773c-.206-.307-.344-.536-.344-.842v-2.679h-1.378v2.679c0 .306.138.612.344.841.552.842 1.585 1.072 2.412.766-.413-.077-.758-.383-1.034-.765z" fill="#000"/><path d="M21.861 11.805h-1.033c-.414 0-.69-.306-.69-.765v-.383c0-.459.276-.765.69-.765h1.033v1.913z" fill="#F0C9AE"/><path d="M20.207 11.423h.413c.207 0 .345-.153.345-.383V9.892h.344v1.913h-.482c-.276 0-.482-.153-.62-.382z" fill="#000"/><path d="M28.196 11.805h1.034c.413 0 .689-.306.689-.765v-.383c0-.459-.276-.765-.69-.765h-1.033v1.913z" fill="#F0C9AE"/><path d="M29.852 11.423h-.413c-.207 0-.345-.153-.345-.383V9.892h-.344v1.913h.55c.208 0 .414-.153.552-.382zm-6.89 4.208c.551.383 1.309.689 1.998.689.758 0 1.447-.23 1.998-.689v-1.224h-3.996v1.224z" fill="#000"/><path d="M28.752 7.29v4.132c0 2.295-1.654 4.209-3.79 4.209-2.067 0-3.79-1.837-3.79-4.21V7.29" fill="#F0C9AE"/><path d="M22.413 11.652v-.766c0-.535.413-.994.896-.918 1.447.306 2.962-.076 4.134-1.071.206-.153.482 0 .482.23V7.901c0-.23-.276-.383-.482-.23-1.172.995-2.687 1.378-4.134 1.072l-.62-.153c-.138 0-.207.076-.276.076l-.207.153v.153c-.069.077-.069.23-.069.306 0 .383-.275.613-.55.613h-.276v1.607c0 1.454.689 2.754 1.722 3.52a9.372 9.372 0 0 1-.62-3.367z" fill="#000"/><path d="M21.312 9.894h.276c.344 0 .55-.306.55-.612 0-.383.276-.613.552-.613l.62.153c1.447.307 2.963-.076 4.134-1.07.207-.154.483 0 .483.229v1.3c0 .383.275.613.551.613h.276l.55-2.066c.208-.995-.413-1.837-1.308-1.837v-.076c0-1.148-.896-1.99-1.93-1.837l-3.996.765c-.896.153-1.516 1.148-1.378 2.22l.62 2.83z" fill="#8A6845"/><path d="M21.863 7.06c-.137-1.07.483-2.066 1.378-2.219l3.583-.688c-.275-.077-.482-.153-.758-.077l-3.996.765c-.896.153-1.516 1.148-1.378 2.22l.551 2.83h.345c.344 0 .55-.305.55-.611 0-.153.07-.23.07-.306l-.345-1.913zm7.235.842c0-.23-.275-.382-.482-.23-.207.154-.482.307-.69.46v1.071c0 .383.276.612.552.612h.276l.275-1.071v-.842h.07z" fill="#745539"/></g><g clip-path="url(#c)" fill="#000"><path d="M36.978 14.096h8.143c.091 0 .18-.042.244-.116a.429.429 0 0 0 .102-.28V8.15a.429.429 0 0 0-.102-.28.327.327 0 0 0-.244-.117h-8.143a.327.327 0 0 0-.245.116.429.429 0 0 0-.101.28v5.55c0 .106.037.206.102.28a.327.327 0 0 0 .244.117zm-.173-5.947c0-.052.018-.103.05-.14a.163.163 0 0 1 .123-.058h8.143c.045 0 .09.021.122.058.032.037.05.088.05.14v5.55a.214.214 0 0 1-.05.14.163.163 0 0 1-.122.059h-8.143a.163.163 0 0 1-.122-.058.214.214 0 0 1-.051-.14V8.15z"/><path d="M37.325 13.502h7.449c.046 0 .09-.02.122-.058a.214.214 0 0 0 .051-.14V8.547a.214.214 0 0 0-.05-.14.163.163 0 0 0-.123-.059h-7.45a.164.164 0 0 0-.122.059.215.215 0 0 0-.05.14v4.757c0 .053.018.103.05.14a.164.164 0 0 0 .123.058zm0-4.955h7.449v4.757h-7.45V8.547z"/><path d="M40.267 9.933c.164 0 .34-.006.529-.018a.077.077 0 0 0 .032-.01.088.088 0 0 0 .027-.023.112.112 0 0 0 .022-.072.108.108 0 0 0-.007-.037.097.097 0 0 0-.02-.032.084.084 0 0 0-.03-.02.075.075 0 0 0-.034-.004c-1.455.09-1.844-.197-1.947-.376a.298.298 0 0 1-.021-.255.112.112 0 0 0 .006-.075.097.097 0 0 0-.043-.058.077.077 0 0 0-.066-.007.09.09 0 0 0-.05.048.522.522 0 0 0 .026.45c.181.325.71.489 1.576.489zm.26.478c-1.475.091-1.893-.206-2.01-.392a.308.308 0 0 1-.042-.247.112.112 0 0 0 0-.076.094.094 0 0 0-.047-.053.077.077 0 0 0-.066 0 .094.094 0 0 0-.047.052.53.53 0 0 0 .057.434c.203.33.75.497 1.632.497.165 0 .343-.005.532-.017a.083.083 0 0 0 .06-.033.109.109 0 0 0-.007-.14.08.08 0 0 0-.063-.025zm-.087.694c-1.533.095-1.968-.189-2.09-.367a.238.238 0 0 1-.046-.18.112.112 0 0 0-.005-.075.091.091 0 0 0-.05-.05.077.077 0 0 0-.065.005.096.096 0 0 0-.044.056.446.446 0 0 0 .066.356c.205.314.76.472 1.655.472.182 0 .378-.006.588-.02a.079.079 0 0 0 .033-.01.089.089 0 0 0 .027-.022.11.11 0 0 0 .022-.072.108.108 0 0 0-.028-.069.084.084 0 0 0-.03-.02.075.075 0 0 0-.033-.005zm.524-.974v1.982c0 .026.01.051.026.07a.081.081 0 0 0 .06.029c.024 0 .046-.01.062-.029a.107.107 0 0 0 .025-.07V10.13a.107.107 0 0 0-.025-.07.082.082 0 0 0-.061-.03.081.081 0 0 0-.061.03.106.106 0 0 0-.026.07zm.26 2.676h-.346a.082.082 0 0 0-.062.029.107.107 0 0 0-.025.07c0 .026.01.051.025.07a.082.082 0 0 0 .062.029h.346c.023 0 .045-.01.061-.03a.107.107 0 0 0 .026-.07.107.107 0 0 0-.026-.07.081.081 0 0 0-.06-.028zm-.346-3.667h.346c.023 0 .045-.01.061-.03a.107.107 0 0 0 .026-.07.107.107 0 0 0-.026-.07.081.081 0 0 0-.06-.029h-.347a.082.082 0 0 0-.062.03.107.107 0 0 0-.025.07c0 .026.01.05.025.07a.082.082 0 0 0 .062.029zM40.45 11.706c-.236-.024-.5.068-.753.159-.14.055-.282.098-.427.127a.885.885 0 0 1-.412-.019.961.961 0 0 1-.37-.205.693.693 0 0 1-.16-.246.78.78 0 0 1-.05-.3.107.107 0 0 0-.026-.07.082.082 0 0 0-.061-.03.081.081 0 0 0-.062.03.107.107 0 0 0-.025.07c-.002.131.02.262.067.382s.116.227.203.313c.209.192.47.293.737.286.061 0 .122-.005.183-.014a2.69 2.69 0 0 0 .454-.135c.238-.085.485-.172.687-.151a.08.08 0 0 0 .063-.023.109.109 0 0 0 .011-.14.084.084 0 0 0-.058-.034zm.772-1.895a.112.112 0 0 0 .023.072c.007.01.016.018.027.023.01.006.02.01.032.01.188.012.364.018.528.018.866 0 1.396-.164 1.577-.489a.522.522 0 0 0 .026-.45.09.09 0 0 0-.05-.048.077.077 0 0 0-.066.008.098.098 0 0 0-.042.058.112.112 0 0 0 .005.075.3.3 0 0 1-.02.25c-.1.181-.488.47-1.948.38a.074.074 0 0 0-.034.005.082.082 0 0 0-.03.02.106.106 0 0 0-.028.07zm2.506.319a.531.531 0 0 0 .057-.433.1.1 0 0 0-.019-.033.086.086 0 0 0-.028-.021.077.077 0 0 0-.067 0 .087.087 0 0 0-.028.023.102.102 0 0 0-.018.032.114.114 0 0 0 0 .076.306.306 0 0 1-.039.242c-.115.187-.53.488-2.012.396-.012-.001-.023 0-.034.005a.083.083 0 0 0-.03.02.097.097 0 0 0-.02.03.112.112 0 0 0-.003.076c.004.013.01.024.017.034.008.01.017.017.027.023.01.006.022.009.033.01.19.011.367.018.532.017.881 0 1.429-.166 1.632-.498zm-2.077 1.173c.21.014.406.02.588.02.894 0 1.45-.158 1.655-.472a.446.446 0 0 0 .067-.356.094.094 0 0 0-.044-.055.076.076 0 0 0-.065-.005.092.092 0 0 0-.05.05.114.114 0 0 0-.006.074.239.239 0 0 1-.004.097.22.22 0 0 1-.042.083c-.122.178-.557.462-2.09.367a.08.08 0 0 0-.062.025.105.105 0 0 0-.029.068.108.108 0 0 0 .022.072c.015.02.037.031.06.032zm2.257-.18a.082.082 0 0 0-.062.029.107.107 0 0 0-.025.07.78.78 0 0 1-.051.3.692.692 0 0 1-.16.246.962.962 0 0 1-.37.205.884.884 0 0 1-.411.02 2.591 2.591 0 0 1-.428-.128c-.254-.09-.516-.183-.754-.16a.079.079 0 0 0-.032.012.09.09 0 0 0-.026.024.11.11 0 0 0 .011.14.083.083 0 0 0 .03.018c.01.004.022.005.033.004.203-.022.449.066.687.151.148.059.3.104.455.135.06.01.121.014.182.014.268.007.529-.094.737-.286a.895.895 0 0 0 .203-.313c.047-.12.07-.25.067-.382a.107.107 0 0 0-.025-.07.081.081 0 0 0-.061-.03zM41.049 6.96c1.052 0 1.906-1.02 1.906-2.28 0-1.259-.854-2.28-1.906-2.28s-1.906 1.021-1.906 2.28c0 1.26.854 2.28 1.906 2.28zm0-4.361c.955 0 1.733.934 1.733 2.081 0 1.148-.778 2.082-1.733 2.082-.955 0-1.732-.934-1.732-2.082 0-1.147.777-2.081 1.732-2.081zm-1.152 4.143a2.15 2.15 0 0 1-.179-.16 3.542 3.542 0 0 0-1.646.973h.267a3.35 3.35 0 0 1 1.558-.813zm2.303 0c.57.121 1.104.4 1.557.813h.267a3.543 3.543 0 0 0-1.645-.972c-.057.057-.117.11-.179.16zM35.16.964a.22.22 0 0 0-.03-.11.18.18 0 0 0-.077-.073.153.153 0 0 0-.1-.012.168.168 0 0 0-.089.055.209.209 0 0 0-.047.101.225.225 0 0 0 .01.115.195.195 0 0 0 .063.088.158.158 0 0 0 .097.034c.046 0 .09-.021.122-.058a.214.214 0 0 0 .05-.14zm-.173.099a.08.08 0 0 1-.048-.017.098.098 0 0 1-.032-.044.112.112 0 0 1-.005-.058.104.104 0 0 1 .023-.05.084.084 0 0 1 .045-.028.077.077 0 0 1 .05.006c.016.008.03.02.039.037a.11.11 0 0 1-.011.125.082.082 0 0 1-.061.029zm.52 3.667a.237.237 0 0 0 .144-.05.292.292 0 0 0 .096-.134.337.337 0 0 0 .014-.171.312.312 0 0 0-.07-.153.251.251 0 0 0-.134-.081.23.23 0 0 0-.15.017.271.271 0 0 0-.117.11.328.328 0 0 0 .033.375.245.245 0 0 0 .183.087zm0-.446c.025 0 .05.009.072.025.02.016.038.04.047.067a.17.17 0 0 1 .008.086.156.156 0 0 1-.036.076.125.125 0 0 1-.066.04.115.115 0 0 1-.075-.008.136.136 0 0 1-.059-.055.165.165 0 0 1 .017-.187.122.122 0 0 1 .091-.044zm10.394.372a.178.178 0 0 0 .108-.038.22.22 0 0 0 .072-.1.253.253 0 0 0 .011-.129.235.235 0 0 0-.053-.114.189.189 0 0 0-.1-.061.172.172 0 0 0-.113.013.203.203 0 0 0-.087.082.247.247 0 0 0 .024.281.184.184 0 0 0 .138.066zm0-.335c.02 0 .038.007.054.019a.11.11 0 0 1 .036.05c.007.02.01.043.005.064a.118.118 0 0 1-.026.057.094.094 0 0 1-.05.031.086.086 0 0 1-.056-.006.102.102 0 0 1-.044-.041.123.123 0 0 1 .012-.141.092.092 0 0 1 .069-.033zm-1.386-2.267a.158.158 0 0 0 .096-.033.195.195 0 0 0 .064-.09.226.226 0 0 0 .01-.114.208.208 0 0 0-.048-.101.168.168 0 0 0-.088-.055.153.153 0 0 0-.1.012.18.18 0 0 0-.078.073.22.22 0 0 0 .022.25.163.163 0 0 0 .122.058zm0-.297a.08.08 0 0 1 .048.016c.014.011.025.027.032.045a.114.114 0 0 1 .005.057.104.104 0 0 1-.024.05.084.084 0 0 1-.044.028.076.076 0 0 1-.05-.006.09.09 0 0 1-.04-.036.11.11 0 0 1 .012-.125.082.082 0 0 1 .06-.03zm2.512-.992A.158.158 0 0 0 46.93.8a.195.195 0 0 0-.064.089.226.226 0 0 0-.01.114.209.209 0 0 0 .047.102.168.168 0 0 0 .09.054.153.153 0 0 0 .1-.011.18.18 0 0 0 .077-.073.22.22 0 0 0-.022-.25.163.163 0 0 0-.122-.059zm0 .298a.08.08 0 0 1-.048-.017.098.098 0 0 1-.032-.044.112.112 0 0 1-.005-.058.104.104 0 0 1 .024-.05.084.084 0 0 1 .044-.028.077.077 0 0 1 .05.006.09.09 0 0 1 .039.037.11.11 0 0 1-.01.125.082.082 0 0 1-.062.029zm-.087 13.826h-1.856a.401.401 0 0 0 .037-.168v-.427h-.173v.428a.184.184 0 0 1-.043.118.15.15 0 0 1-.049.036.133.133 0 0 1-.057.013H37.3a.139.139 0 0 1-.104-.048.182.182 0 0 1-.045-.12v-.427h-.173v.427c0 .059.013.117.037.168H35.16a.082.082 0 0 0-.061.03.107.107 0 0 0-.026.07c0 .025.01.05.026.07a.082.082 0 0 0 .06.028H46.94c.023 0 .045-.01.062-.029a.107.107 0 0 0 .025-.07.107.107 0 0 0-.025-.07.082.082 0 0 0-.062-.029zm-12.213 0h-.433a.082.082 0 0 0-.062.03.107.107 0 0 0-.025.07c0 .025.01.05.025.07a.082.082 0 0 0 .062.028h.433c.023 0 .045-.01.061-.029a.107.107 0 0 0 .025-.07.107.107 0 0 0-.025-.07.081.081 0 0 0-.061-.029zM33.86 15.087c.048 0 .087-.044.087-.099 0-.054-.039-.098-.086-.098-.048 0-.087.044-.087.098 0 .055.039.099.087.099zM47.808 14.89h-.433a.081.081 0 0 0-.062.028.107.107 0 0 0-.025.07c0 .027.01.052.026.07a.081.081 0 0 0 .06.03h.434c.023 0 .045-.01.061-.03a.107.107 0 0 0 .025-.07.107.107 0 0 0-.025-.07.082.082 0 0 0-.061-.028zM48.242 15.087c.047 0 .086-.044.086-.099 0-.054-.039-.098-.087-.098-.047 0-.086.044-.086.098 0 .055.039.099.087.099zM40.875 12.61h.346c.023 0 .045-.011.061-.03a.107.107 0 0 0 .026-.07.107.107 0 0 0-.026-.07.081.081 0 0 0-.06-.029h-.347a.081.081 0 0 0-.062.03.107.107 0 0 0-.025.07c0 .026.01.05.026.07a.081.081 0 0 0 .06.028zm0-3.073h.346c.023 0 .045-.01.061-.03a.107.107 0 0 0 .026-.07.107.107 0 0 0-.026-.07.081.081 0 0 0-.06-.028h-.347a.081.081 0 0 0-.062.029.107.107 0 0 0-.025.07c0 .026.01.051.026.07a.081.081 0 0 0 .06.029zM34.517 8.301l.128-.194-.08-.052-.083.217h-.003l-.084-.216-.083.054.128.19v.003l-.2-.03v.106l.2-.03v.003l-.128.19.077.055.088-.218h.003l.081.217.086-.056-.13-.186V8.35l.204.028v-.106l-.204.031v-.003zM37.923 5.142l.045.032.05-.126h.002l.046.125.05-.032-.075-.108v-.001l.117.016v-.061l-.117.018v-.002l.074-.112-.047-.03-.047.125h-.002l-.048-.124-.048.031.073.11v.001l-.114-.017v.06l.115-.016v.002l-.074.109zM40.075 1.368l-.074.11.045.031.05-.125h.002l.047.125.049-.033-.075-.107v-.002l.118.017v-.061l-.118.018v-.002l.074-.112-.047-.03-.047.125h-.002l-.048-.124-.048.031.074.109v.002l-.115-.017v.06l.115-.016v.001zM47.804 7.478v-.104l-.2.03v-.002l.126-.19-.08-.052-.081.213h-.003l-.082-.212-.081.054.125.185v.003l-.196-.029v.104l.197-.03v.004l-.126.185.075.055.087-.214h.003l.08.213.083-.055-.128-.183V7.45l.201.028zM43.536 5.228l-.109.16.065.048.075-.185h.002l.069.183.072-.047-.11-.157v-.003l.173.024v-.09l-.173.027v-.003l.11-.164-.07-.045-.07.184h-.002l-.071-.182-.07.046.108.16v.002l-.169-.025v.09l.17-.025v.002zM42.868 15.485H39.23a.082.082 0 0 0-.061.03.107.107 0 0 0-.026.07c0 .026.01.05.026.07a.082.082 0 0 0 .061.028h1.56v.199h-.867a.081.081 0 0 0-.061.029.107.107 0 0 0-.026.07c0 .026.01.051.026.07a.081.081 0 0 0 .06.029h2.34c.023 0 .045-.01.061-.03a.107.107 0 0 0 .025-.07.107.107 0 0 0-.025-.07.082.082 0 0 0-.061-.028h-.953v-.199h1.56c.022 0 .044-.01.06-.029a.107.107 0 0 0 .026-.07.107.107 0 0 0-.026-.07.081.081 0 0 0-.06-.029zm1.213 0h-.867a.081.081 0 0 0-.06.03.107.107 0 0 0-.026.07c0 .026.009.05.025.07a.081.081 0 0 0 .062.028h.866c.023 0 .045-.01.061-.029a.107.107 0 0 0 .025-.07.107.107 0 0 0-.025-.07.081.081 0 0 0-.061-.029zm-5.198 0h-.866a.082.082 0 0 0-.061.03.107.107 0 0 0-.025.07c0 .026.009.05.025.07a.082.082 0 0 0 .061.028h.866c.023 0 .045-.01.062-.029a.107.107 0 0 0 .025-.07.107.107 0 0 0-.025-.07.081.081 0 0 0-.062-.029z"/></g><defs><clipPath id="a"><path fill="#fff" transform="translate(.258 .418)" d="M0 0h14.993v16.651H0z"/></clipPath><clipPath id="b"><path fill="#fff" transform="translate(17.452 1.398)" d="M0 0h22.049v24.487H0z"/></clipPath><clipPath id="c"><path fill="#fff" transform="translate(33.774 .418)" d="M0 0h14.552v16.651H0z"/></clipPath></defs></svg>