<svg width="34" height="34" viewBox="0 0 34 34" fill="none" xmlns="http://www.w3.org/2000/svg">
<path d="M22.9651 1.45312H8.70491H7.3226H5.5034C3.83561 1.45312 2.48438 2.80436 2.48438 4.47215V30.919C2.48438 32.5868 3.83561 33.938 5.5034 33.938H22.9651C24.6329 33.938 25.9841 32.5868 25.9841 30.919V24.9528V23.5705V4.47215C25.9841 2.80436 24.6329 1.45312 22.9651 1.45312Z" fill="#466889"/>
<path d="M19.7645 4.21106L14.0431 2.86328L8.70585 4.21106H5.25V31.1666H19.0734L19.7645 27.7108L23.2203 27.0196V4.21106H19.7645Z" fill="#DDEAF0"/>
<path d="M23.2212 27.0195L19.0742 31.1665V27.0195H23.2212Z" fill="#BDDEED"/>
<path d="M19.7657 1.44872V4.21341H8.70703V1.44872V0.0664062H19.7657V1.44872Z" fill="#98786F"/>
<path d="M9.60034 12.9936L8.21803 11.6112C7.94816 11.3413 7.94816 10.9037 8.21803 10.6337C8.48797 10.3639 8.92559 10.3639 9.19553 10.6337L10.0891 11.5273L12.0195 9.59694C12.2894 9.32706 12.727 9.32706 12.997 9.59694C13.2668 9.86688 13.2668 10.3045 12.997 10.5744L10.5778 12.9936C10.3078 13.2635 9.87029 13.2634 9.60034 12.9936Z" fill="#95DB3D"/>
<path d="M19.7637 13.1978H14.9255C14.5438 13.1978 14.2344 12.8883 14.2344 12.5066C14.2344 12.1249 14.5438 11.8155 14.9255 11.8155H19.7637C20.1454 11.8155 20.4548 12.1249 20.4548 12.5066C20.4548 12.8883 20.1455 13.1978 19.7637 13.1978ZM17.6902 10.4331H14.9255C14.5438 10.4331 14.2344 10.1236 14.2344 9.74194C14.2344 9.36023 14.5438 9.05078 14.9255 9.05078H17.6902C18.0719 9.05078 18.3814 9.36023 18.3814 9.74194C18.3814 10.1236 18.0719 10.4331 17.6902 10.4331Z" fill="#BDDEED"/>
<path d="M9.60034 18.5248L8.21803 17.1425C7.94816 16.8725 7.94816 16.4349 8.21803 16.165C8.48797 15.8951 8.92559 15.8951 9.19553 16.165L10.0891 17.0586L12.0195 15.1282C12.2894 14.8583 12.727 14.8583 12.997 15.1282C13.2668 15.3981 13.2668 15.8357 12.997 16.1057L10.5778 18.5248C10.3078 18.7947 9.87029 18.7947 9.60034 18.5248Z" fill="#95DB3D"/>
<path d="M20.4548 18.7251H14.9255C14.5438 18.7251 14.2344 18.4156 14.2344 18.0339C14.2344 17.6522 14.5438 17.3428 14.9255 17.3428H20.4548C20.8366 17.3428 21.146 17.6522 21.146 18.0339C21.146 18.4156 20.8366 18.7251 20.4548 18.7251ZM17.6902 15.9604H14.9255C14.5438 15.9604 14.2344 15.651 14.2344 15.2693C14.2344 14.8876 14.5438 14.5781 14.9255 14.5781H17.6902C18.0719 14.5781 18.3814 14.8876 18.3814 15.2693C18.3814 15.6509 18.0719 15.9604 17.6902 15.9604Z" fill="#BDDEED"/>
<path d="M9.60034 24.0561L8.21803 22.6737C7.94816 22.4038 7.94816 21.9662 8.21803 21.6962C8.48797 21.4264 8.92559 21.4264 9.19553 21.6962L10.0891 22.5898L12.0195 20.6594C12.2894 20.3896 12.727 20.3896 12.997 20.6594C13.2668 20.9294 13.2668 21.367 12.997 21.6369L10.5778 24.0561C10.3078 24.326 9.87029 24.3259 9.60034 24.0561Z" fill="#95DB3D"/>
<path d="M19.7637 24.2564H14.9255C14.5438 24.2564 14.2344 23.9469 14.2344 23.5652C14.2344 23.1835 14.5438 22.8741 14.9255 22.8741H19.7637C20.1454 22.8741 20.4548 23.1835 20.4548 23.5652C20.4548 23.9469 20.1455 24.2564 19.7637 24.2564ZM17.6902 21.4917H14.9255C14.5438 21.4917 14.2344 21.1822 14.2344 20.8005C14.2344 20.4188 14.5438 20.1094 14.9255 20.1094H17.6902C18.0719 20.1094 18.3814 20.4188 18.3814 20.8005C18.3814 21.1822 18.0719 21.4917 17.6902 21.4917Z" fill="#BDDEED"/>
<path d="M23.2217 13.2474C24.0352 12.7774 24.9794 12.5078 25.9864 12.5078C29.04 12.5078 31.5157 14.9836 31.5157 18.0371C31.5157 21.0907 29.04 23.5664 25.9864 23.5664C24.9794 23.5664 24.0353 23.2976 23.2217 22.8269C21.5691 21.871 20.457 20.0836 20.457 18.0371C20.457 15.9905 21.5692 14.2032 23.2217 13.2474Z" fill="#79D5FA"/>
<path d="M25.1511 19.9076L23.7688 18.5253C23.4989 18.2554 23.4989 17.8177 23.7688 17.5478C24.0388 17.2779 24.4764 17.2779 24.7463 17.5478L25.6399 18.4414L27.5702 16.511C27.8402 16.2411 28.2778 16.2411 28.5477 16.511C28.8176 16.7809 28.8176 17.2186 28.5477 17.4885L26.1286 19.9076C25.8586 20.1776 25.4211 20.1775 25.1511 19.9076Z" fill="#DDEAF0"/>
</svg>
