<svg width="28" height="28" viewBox="0 0 28 28" fill="none" xmlns="http://www.w3.org/2000/svg">
<path d="M6.46217 6.33425C7.93077 6.33425 9.12581 5.13949 9.12581 3.67089C9.12581 2.20229 7.93077 1.00781 6.46217 1.00781C4.99385 1.00781 3.79909 2.20257 3.79909 3.67089C3.79909 5.13949 4.99385 6.33425 6.46217 6.33425ZM6.46217 1.84781C7.46765 1.84781 8.28581 2.66569 8.28581 3.67089C8.28581 4.67637 7.46765 5.49425 6.46217 5.49425C5.45697 5.49425 4.63909 4.67637 4.63909 3.67089C4.63909 2.66569 5.45697 1.84781 6.46217 1.84781ZM21.3095 6.38717C22.7781 6.38717 23.9731 5.19241 23.9731 3.72381C23.9731 2.25521 22.7781 1.06073 21.3095 1.06073C19.8411 1.06073 18.6464 2.25549 18.6464 3.72381C18.6464 5.19241 19.8409 6.38717 21.3095 6.38717ZM21.3095 1.90045C22.3149 1.90045 23.1331 2.71833 23.1331 3.72353C23.1331 4.72901 22.3149 5.54689 21.3095 5.54689C20.3043 5.54689 19.4864 4.72901 19.4864 3.72353C19.4864 2.71833 20.3043 1.90045 21.3095 1.90045ZM8.31297 6.45913H4.61193C2.63121 6.45913 1.01953 8.07053 1.01953 10.0515V14.0172C1.01953 14.9776 1.80101 15.7591 2.76141 15.7591H2.96553V16.5576V25.3575C2.96553 26.2605 3.69997 26.9949 4.60297 26.9949C5.50597 26.9949 6.24041 26.2602 6.24041 25.3575V17.7549C6.24041 17.6323 6.34009 17.5326 6.46273 17.5326C6.58537 17.5326 6.68533 17.6323 6.68533 17.7549V25.3572C6.68533 26.2602 7.42005 26.9946 8.32305 26.9946C9.22605 26.9946 9.96049 26.2599 9.96049 25.3572V16.5576V15.7591H10.1646C11.125 15.7591 11.9065 14.9776 11.9065 14.0172V10.0518C11.9057 8.07081 10.294 6.45913 8.31297 6.45913ZM11.0657 14.0172C11.0657 14.5145 10.6613 14.9191 10.1638 14.9191H9.95965V9.23673C9.95965 9.00461 9.77149 8.81673 9.53965 8.81673C9.30781 8.81673 9.11965 9.00461 9.11965 9.23673V15.3391V16.5576V25.3575C9.11965 25.7971 8.76209 26.1549 8.32221 26.1549C7.88233 26.1549 7.52449 25.7971 7.52449 25.3575V17.7549C7.52449 17.1691 7.04793 16.6926 6.46189 16.6926C5.87613 16.6926 5.39957 17.1691 5.39957 17.7549V25.3572C5.39957 25.7968 5.04201 26.1546 4.60213 26.1546C4.16225 26.1546 3.80469 25.7968 3.80469 25.3572V16.5576V15.3391V9.23673C3.80469 9.00461 3.61653 8.81673 3.38469 8.81673C3.15285 8.81673 2.96469 9.00461 2.96469 9.23673V14.9191H2.76113C2.26385 14.9191 1.85925 14.5145 1.85925 14.0172V10.0518C1.85925 8.53421 3.09405 7.29941 4.61165 7.29941H8.31297C9.83057 7.29941 11.0654 8.53421 11.0654 10.0518L11.0657 14.0172ZM26.9568 15.4004L25.3781 9.01637C24.9987 7.54553 24.0199 6.66745 22.7607 6.66745H19.0801C17.8209 6.66745 16.8423 7.54553 16.4615 9.02057L14.884 15.4004C14.8034 15.7269 14.8546 16.0651 15.0282 16.3527C15.2018 16.6402 15.4773 16.8432 15.8033 16.9239C16.1295 17.0048 16.4674 16.9535 16.7555 16.7797C17.0431 16.6061 17.2464 16.3305 17.327 16.0043L17.7803 14.1703L17.2671 18.8984C17.2542 19.0171 17.2923 19.1356 17.3721 19.2243C17.4516 19.3131 17.5653 19.3638 17.6846 19.3638H18.5232L18.7822 25.7976C18.7822 26.487 19.343 27.0478 20.0324 27.0478C20.3521 27.0478 20.6411 26.9235 20.8623 26.7253C21.0835 26.9235 21.3727 27.0478 21.6925 27.0478C22.3816 27.0478 22.9424 26.487 22.9421 25.8144L23.2014 19.3638H24.1568C24.2761 19.3638 24.3897 19.3131 24.4693 19.2243C24.5491 19.1356 24.5871 19.0171 24.5743 18.8984L24.0607 14.1698L24.5143 16.0043C24.595 16.3308 24.798 16.6063 25.0861 16.7799C25.3734 16.9535 25.7116 17.0048 26.0373 16.9239C26.3637 16.8432 26.639 16.6405 26.8129 16.3527C26.9867 16.0648 27.0377 15.7266 26.9568 15.4004ZM20.0324 26.2078C19.8061 26.2078 19.6222 26.0239 19.6219 25.7808L19.364 19.3641H20.4423V25.7976C20.4423 26.0239 20.2586 26.2078 20.0324 26.2078ZM22.1024 25.7976C22.1024 26.0239 21.9187 26.2078 21.6925 26.2078C21.4663 26.2078 21.2823 26.0239 21.2823 25.7976V19.3638H22.3606L22.1024 25.7976ZM26.0935 15.9184C26.0359 16.0141 25.9443 16.0816 25.8354 16.1082C25.7281 16.1354 25.6156 16.1183 25.5195 16.0606C25.4238 16.0027 25.3563 15.9114 25.3294 15.8027L23.7527 9.42685C23.6631 9.08049 23.5422 8.82401 23.3831 8.64341C23.2622 8.50565 23.0653 8.46281 22.8987 8.53645C22.731 8.61009 22.6308 8.78397 22.6504 8.96625L23.6883 18.5241H22.7974H20.862H18.9267H18.1527L19.1904 8.96625C19.21 8.78425 19.1098 8.61037 18.9421 8.53645C18.7743 8.46281 18.5783 8.50593 18.4577 8.64341C18.2986 8.82429 18.1777 9.08049 18.0869 9.43133L16.5117 15.8027C16.4848 15.9111 16.4173 16.0027 16.3213 16.0606C16.2261 16.1183 16.1141 16.1359 16.0049 16.1085C15.8965 16.0816 15.8049 16.0144 15.7473 15.9187C15.6896 15.8232 15.6725 15.7106 15.6994 15.602L17.2758 9.22637C17.4415 8.58433 17.8963 7.50745 19.0798 7.50745H22.7607C23.9445 7.50745 24.3993 8.58433 24.5636 9.22217L26.1411 15.602C26.1683 15.7103 26.1512 15.8229 26.0935 15.9184ZM13.5812 1.00781C13.3493 1.00781 13.1612 1.19569 13.1612 1.42781V26.5749C13.1612 26.807 13.3493 26.9949 13.5812 26.9949C13.813 26.9949 14.0012 26.807 14.0012 26.5749V1.42781C14.0012 1.19569 13.813 1.00781 13.5812 1.00781Z" fill="white"/>
</svg>
