<svg width="80" height="81" viewBox="0 0 80 81" fill="none" xmlns="http://www.w3.org/2000/svg">
<path d="M25.5 60.2305C29.0899 60.2305 32 57.3203 32 53.7305C32 50.1406 29.0899 47.2305 25.5 47.2305C21.9101 47.2305 19 50.1406 19 53.7305C19 57.3203 21.9101 60.2305 25.5 60.2305Z" stroke="white" stroke-width="3" stroke-linecap="round" stroke-linejoin="round"/>
<path d="M58.5 60.2305C62.0899 60.2305 65 57.3203 65 53.7305C65 50.1406 62.0899 47.2305 58.5 47.2305C54.9101 47.2305 52 50.1406 52 53.7305C52 57.3203 54.9101 60.2305 58.5 60.2305Z" stroke="white" stroke-width="3" stroke-linecap="round" stroke-linejoin="round"/>
<path d="M18.9474 54.2305H12.3158V43.2305M9 21.2305H45.4737V54.2305M32.2105 54.2305H52.1053M65.3684 54.2305H72V37.7305M72 37.7305H45.4737M72 37.7305L62.0526 23.9805H45.4737" stroke="white" stroke-width="3" stroke-linecap="round" stroke-linejoin="round"/>
<path d="M12.334 31.7461H25.6673" stroke="white" stroke-width="3" stroke-linecap="round" stroke-linejoin="round"/>
</svg>
