<svg width="80" height="80" viewBox="0 0 80 80" fill="none" xmlns="http://www.w3.org/2000/svg">
<g clip-path="url(#clip0_5030_1217)">
<path d="M46.666 10V23.3333C46.666 24.2174 47.0172 25.0652 47.6423 25.6904C48.2674 26.3155 49.1153 26.6667 49.9993 26.6667H63.3327" stroke="#3C5B99" stroke-width="3" stroke-linecap="round" stroke-linejoin="round"/>
<path d="M56.666 70H23.3327C21.5646 70 19.8689 69.2976 18.6186 68.0474C17.3684 66.7971 16.666 65.1014 16.666 63.3333V16.6667C16.666 14.8986 17.3684 13.2029 18.6186 11.9526C19.8689 10.7024 21.5646 10 23.3327 10H46.666L63.3327 26.6667V63.3333C63.3327 65.1014 62.6303 66.7971 61.3801 68.0474C60.1298 69.2976 58.4341 70 56.666 70Z" stroke="#3C5B99" stroke-width="3" stroke-linecap="round" stroke-linejoin="round"/>
<path d="M39.5607 40.9393C38.9749 40.3536 38.0251 40.3536 37.4393 40.9393L27.8934 50.4853C27.3076 51.0711 27.3076 52.0208 27.8934 52.6066C28.4792 53.1924 29.4289 53.1924 30.0147 52.6066L38.5 44.1213L46.9853 52.6066C47.5711 53.1924 48.5208 53.1924 49.1066 52.6066C49.6924 52.0208 49.6924 51.0711 49.1066 50.4853L39.5607 40.9393ZM37 65C37 65.8284 37.6716 66.5 38.5 66.5C39.3284 66.5 40 65.8284 40 65H37ZM37 42V65H40V42H37Z" fill="#3C5B99"/>
</g>
<defs>
<clipPath id="clip0_5030_1217">
<rect width="80" height="80" fill="white"/>
</clipPath>
</defs>
</svg>
