<svg width="53" height="59" viewBox="0 0 53 59" fill="none" xmlns="http://www.w3.org/2000/svg">
<path d="M7.29051 48.2656L0.6875 58.1361L7.29051 48.2656Z" fill="#FFCA0F"/>
<path d="M21.4078 13.7109L4.93425 38.3371C4.19225 39.4467 3.91969 40.805 4.17614 42.1149C4.43259 43.4249 5.19719 44.5801 6.30284 45.328L10.3691 48.0707C10.9156 48.4395 11.5295 48.6966 12.1757 48.8273C12.8219 48.9579 13.4876 48.9596 14.1344 48.8322C14.7813 48.7047 15.3966 48.4507 15.9449 48.0847C16.4932 47.7187 16.9638 47.2479 17.3296 46.6994L33.8022 22.0732L21.4078 13.7109Z" fill="#FFFDFF"/>
<path d="M15.6316 22.3438L4.93383 38.3357C4.19212 39.4452 3.91972 40.8032 4.17616 42.113C4.4326 43.4227 5.19703 44.5777 6.30241 45.3256L10.3686 48.0683C10.9151 48.4371 11.5291 48.6942 12.1753 48.8249C12.8215 48.9556 13.4872 48.9572 14.134 48.8298C14.7809 48.7023 15.3961 48.4483 15.9445 48.0823C16.4928 47.7163 16.9634 47.2455 17.3292 46.697L28.0297 30.6995L15.6316 22.3438Z" fill="#F0373C"/>
<path d="M17.3351 46.6941C16.9688 47.2427 16.4978 47.7135 15.9491 48.0795C15.4004 48.4455 14.7848 48.6996 14.1376 48.8271C13.4904 48.9546 12.8245 48.953 12.1779 48.8225C11.5314 48.6919 10.917 48.435 10.37 48.0664L7.22656 45.9478C7.77353 46.3166 8.38796 46.5737 9.03457 46.7044C9.68118 46.8351 10.3472 46.8368 10.9945 46.7094C11.6418 46.5819 12.2575 46.3279 12.8063 45.9619C13.3551 45.5959 13.8263 45.1251 14.1926 44.5765L24.8848 28.5781L28.0283 30.6967L17.3351 46.6941Z" fill="#D5202A"/>
<path d="M8.24849 46.6409L6.3027 45.3302C5.197 44.583 4.43232 43.4282 4.176 42.1185C3.91968 40.8089 4.19261 39.451 4.93504 38.3421L15.6263 22.3438L17.573 23.6553L6.8744 39.6482C5.33578 41.9616 5.94792 45.0903 8.24849 46.6409Z" fill="#FE5C6E"/>
<path d="M18.384 27.2581C18.0158 27.0085 17.7613 26.6235 17.6759 26.187C17.5905 25.7505 17.6811 25.298 17.9281 24.9281L31.6387 4.42969L38.4807 9.04555L24.771 29.5421C24.649 29.7249 24.4921 29.8818 24.3092 30.0038C24.1264 30.1258 23.9213 30.2105 23.7057 30.2531C23.49 30.2956 23.2681 30.2951 23.0527 30.2516C22.8372 30.2082 22.6325 30.1226 22.4502 29.9998L18.384 27.2571V27.2581Z" fill="#D3D3D3"/>
<path d="M24.7733 29.5421C24.6513 29.7239 24.4947 29.8799 24.3124 30.0013C24.1302 30.1226 23.9258 30.2068 23.711 30.2491C23.4961 30.2915 23.2751 30.2911 23.0604 30.248C22.8457 30.2049 22.6417 30.1199 22.4598 29.998L19.6914 28.1321C20.4534 28.6459 21.4929 28.441 22.0049 27.6762L35.7182 7.17969L38.4876 9.04552L24.7733 29.5421Z" fill="#E5E5E5"/>
<path d="M19.8724 28.259L18.3944 27.2627C18.0249 27.0135 17.7694 26.628 17.6837 26.1907C17.5981 25.7534 17.6894 25.3 17.9376 24.9299L31.6445 4.42969L33.1289 5.43062L19.422 25.9308C19.1744 26.2997 19.0827 26.7516 19.1671 27.1878C19.2515 27.624 19.505 28.0091 19.8724 28.259Z" fill="#FFFDFF"/>
<path d="M10.7841 48.4637L8.49091 50.5695C8.22598 50.8156 7.88545 50.9647 7.52489 50.9924C7.16433 51.0201 6.80502 50.9248 6.50559 50.722L5.31624 49.9196C5.01655 49.7167 4.79356 49.4192 4.68292 49.0746C4.57228 48.73 4.58038 48.3583 4.70594 48.0189L5.78591 45.0859L10.7841 48.4637Z" fill="#8A8C8A"/>
<path d="M37.1761 19.7211L22.3166 9.69708C22.1108 9.55832 21.8797 9.46157 21.6365 9.41239C21.3933 9.3632 21.1427 9.36254 20.8992 9.41045C20.6557 9.45836 20.4241 9.5539 20.2177 9.69157C20.0112 9.82925 19.834 10.0063 19.6961 10.2127C19.4166 10.6304 19.3139 11.1418 19.4104 11.6351C19.5068 12.1284 19.7946 12.5634 20.2108 12.8451L35.0704 22.8691C35.9362 23.4537 37.1099 23.222 37.6908 22.3535C38.2717 21.4849 38.0419 20.3056 37.1761 19.7211Z" fill="#FFFDFF"/>
<path d="M37.8957 21.898C37.7744 21.754 37.6344 21.627 37.4794 21.5202L22.6244 11.4981C22.4193 11.3574 22.1882 11.259 21.9446 11.2086C21.7011 11.1582 21.4499 11.1567 21.2058 11.2042C20.9617 11.2518 20.7295 11.3474 20.5227 11.4856C20.3158 11.6238 20.1386 11.8017 20.0012 12.0091C19.8983 12.1635 19.8147 12.3308 19.7669 12.5036C19.5084 12.1895 19.3581 11.8004 19.3382 11.3941C19.3183 10.9878 19.43 10.5859 19.6566 10.248C19.794 10.0413 19.9709 9.86367 20.1771 9.72544C20.3833 9.58722 20.6148 9.49109 20.8583 9.44258C21.1018 9.39408 21.3525 9.39414 21.5959 9.44277C21.8394 9.4914 22.0708 9.58765 22.277 9.72598L37.1393 19.7527C37.4788 19.9818 37.7357 20.3141 37.8719 20.7004C38.0081 21.0867 38.0165 21.5066 37.8957 21.898Z" fill="#E5E5E5"/>
<path d="M41.6931 7.70453L31.6626 0.93883C31.5045 0.832183 31.3268 0.757838 31.1399 0.72007C30.9529 0.682301 30.7603 0.681853 30.5732 0.718751C30.3861 0.755648 30.2081 0.829165 30.0494 0.935075C29.8908 1.04099 29.7547 1.1772 29.6488 1.33589C29.4343 1.65681 29.3554 2.04957 29.4295 2.42843C29.5035 2.80728 29.7245 3.14145 30.0441 3.35797L40.0754 10.1255C40.2335 10.232 40.4111 10.3062 40.598 10.3439C40.7848 10.3816 40.9773 10.382 41.1643 10.3451C41.3514 10.3082 41.5293 10.2348 41.6878 10.1289C41.8464 10.0231 41.9825 9.88701 42.0883 9.72845C42.3028 9.40753 42.3817 9.01477 42.3076 8.63591C42.2336 8.25706 42.0127 7.92289 41.6931 7.70637V7.70453Z" fill="#FFFDFF"/>
<path d="M25.985 33.7572L27.8968 30.8988L15.4986 22.543L13.5859 25.4015L25.985 33.7572Z" fill="#6B6C6B"/>
<path d="M51.8497 42.7377V54.9023C51.8507 55.3262 51.7681 55.7462 51.6067 56.1381C51.4453 56.5301 51.2082 56.8864 50.909 57.1867C50.6098 57.487 50.2544 57.7254 49.863 57.8882C49.4717 58.0511 49.0521 58.1352 48.6282 58.1358H37.1639C36.7399 58.1353 36.3202 58.0513 35.9287 57.8885C35.5372 57.7257 35.1817 57.4873 34.8824 57.187C34.5831 56.8867 34.346 56.5304 34.1845 56.1383C34.0231 55.7463 33.9404 55.3263 33.9414 54.9023V42.7377C33.9414 41.347 34.8036 40.1025 36.1004 39.6172C36.735 39.3822 37.2809 38.9561 37.663 38.3976C38.0416 37.8479 38.2595 37.1935 38.2595 36.4977V34.7266H47.5243V36.4968C47.5243 37.8874 48.3864 39.1319 49.6833 39.6163H49.6916C50.3263 39.8549 50.8731 40.2815 51.2589 40.8391C51.6447 41.3966 51.8511 42.0587 51.8506 42.7368L51.8497 42.7377Z" fill="#FBFBFB"/>
<path d="M51.8496 42.7377V54.9023C51.8505 55.3262 51.768 55.7462 51.6066 56.1381C51.4451 56.5301 51.2081 56.8864 50.9089 57.1867C50.6097 57.487 50.2543 57.7254 49.8629 57.8882C49.4716 58.0511 49.0519 58.1352 48.628 58.1358H45.4056C45.8295 58.1353 46.2493 58.0513 46.6407 57.8885C47.0322 57.7257 47.3877 57.4873 47.687 57.187C47.9863 56.8867 48.2235 56.5304 48.3849 56.1383C48.5464 55.7463 48.629 55.3263 48.628 54.9023V42.7377C48.6286 42.0595 48.4221 41.3973 48.0361 40.8397C47.6501 40.282 47.103 39.8555 46.4681 39.6172H46.4607C45.8259 39.379 45.279 38.9527 44.893 38.3952C44.507 37.8378 44.3004 37.1758 44.3008 36.4977V34.7266H47.5242V36.4968C47.5242 37.8874 48.3863 39.1319 49.6832 39.6163H49.6915C50.3262 39.8548 50.8731 40.2813 51.2589 40.8389C51.6447 41.3966 51.8511 42.0587 51.8505 42.7368L51.8496 42.7377Z" fill="#D3D3D3"/>
<path d="M40.0316 34.7275V36.4977C40.0316 37.1926 39.8146 37.8479 39.436 38.3976C39.0539 38.9561 38.508 39.3822 37.8734 39.6172C37.2385 39.8555 36.6914 40.282 36.3054 40.8397C35.9195 41.3973 35.7129 42.0595 35.7135 42.7377V54.9023C35.7125 55.3263 35.7951 55.7463 35.9566 56.1383C36.1181 56.5304 36.3552 56.8867 36.6545 57.187C36.9538 57.4873 37.3093 57.7257 37.7008 57.8885C38.0923 58.0513 38.512 58.1353 38.936 58.1358H37.1639C36.7399 58.1353 36.3202 58.0513 35.9287 57.8885C35.5372 57.7257 35.1817 57.4873 34.8824 57.187C34.5831 56.8867 34.346 56.5304 34.1845 56.1383C34.0231 55.7463 33.9404 55.3263 33.9414 54.9023V42.7377C33.9414 41.347 34.8036 40.1025 36.1004 39.6172C36.735 39.3822 37.2809 38.9561 37.663 38.3976C38.0416 37.8479 38.2595 37.1935 38.2595 36.4977V34.7266L40.0316 34.7275Z" fill="#E5E5E5"/>
<path d="M37.1641 43.6406H48.6283V54.8999H37.1641V43.6406Z" fill="#59B9FF"/>
<path d="M48.6283 43.6415V54.9009H37.1641V52.3144H39.8553C43.2763 52.3144 46.0502 49.5313 46.0502 46.0993V43.6406L48.6283 43.6415Z" fill="#489CD5"/>
<path d="M43.5502 43.6406H37.1641V45.3622H41.8351C42.0608 45.3618 42.2842 45.317 42.4926 45.2303C42.701 45.1436 42.8903 45.0166 43.0496 44.8568C43.209 44.6969 43.3353 44.5072 43.4213 44.2986C43.5073 44.0899 43.5505 43.8663 43.5502 43.6406Z" fill="#B4DFF9"/>
<path d="M49.3857 31.3874V33.9417C49.3857 34.15 49.3031 34.3499 49.1559 34.4974C49.0088 34.6449 48.8091 34.728 48.6008 34.7285H37.1825C36.9743 34.7277 36.7749 34.6445 36.6279 34.497C36.4809 34.3496 36.3984 34.1499 36.3984 33.9417V31.3874C36.3984 30.654 36.9968 30.0547 37.7275 30.0547H48.0557C48.7874 30.0547 49.3857 30.654 49.3857 31.3874Z" fill="#6B6C6B"/>
<path d="M49.3876 31.3856V33.938C49.3876 34.3764 49.0374 34.7285 48.5999 34.7285H37.1861C37.0824 34.7288 36.9796 34.7086 36.8836 34.669C36.7877 34.6293 36.7006 34.5711 36.6274 34.4976C36.5541 34.4241 36.4962 34.3368 36.4569 34.2407C36.4176 34.1447 36.3977 34.0418 36.3985 33.938V33.1917H47.0695C47.1731 33.1919 47.2758 33.1716 47.3715 33.132C47.4673 33.0924 47.5542 33.0342 47.6274 32.9608C47.7005 32.8874 47.7584 32.8002 47.7977 32.7044C47.837 32.6085 47.8569 32.5058 47.8563 32.4021V30.0547H48.0603C48.4124 30.0564 48.7494 30.1973 48.9979 30.4467C49.2464 30.696 49.3862 31.0336 49.3866 31.3856H49.3876Z" fill="#545454"/>
<path d="M42.3544 30.0547H37.7257C37.3735 30.0561 37.0362 30.1969 36.7875 30.4463C36.5388 30.6957 36.3989 31.0334 36.3984 31.3856V32.5556C36.3984 31.8176 36.9959 31.2174 37.7257 31.2174H41.1963C41.836 31.2174 42.3544 30.6972 42.3544 30.0547Z" fill="#8A8C8A"/>
<path d="M34.6475 23.4679C35.7688 24.2308 37.3957 24.0102 38.2321 22.7694C39.0041 21.6113 38.7284 19.9844 37.5335 19.1848L34.0868 16.8594L38.6732 10.0027L39.6935 10.692C39.9268 10.8504 40.189 10.9611 40.4653 11.0177C40.7415 11.0743 41.0261 11.0757 41.3029 11.0219C41.5797 10.9681 41.843 10.8601 42.0779 10.7041C42.3128 10.5481 42.5145 10.3472 42.6714 10.113C42.9855 9.63924 43.0999 9.06067 42.9898 8.50304C42.8796 7.94541 42.5538 7.45379 42.0832 7.13502L32.0555 0.370244C31.8224 0.211537 31.5601 0.100579 31.2838 0.0437723C31.0075 -0.0130344 30.7227 -0.0145644 30.4459 0.0392705C30.169 0.0931054 29.9056 0.201239 29.6707 0.357431C29.4358 0.513623 29.2343 0.714781 29.0776 0.949294C28.425 1.93276 28.6823 3.2655 29.6658 3.92727L30.686 4.61661L26.0996 11.4733L22.6712 9.15711C22.3898 8.9669 22.0735 8.83427 21.7406 8.76688C21.4077 8.69949 21.0648 8.69867 20.7315 8.76446C20.3983 8.83025 20.0814 8.96135 19.7991 9.15021C19.5168 9.33907 19.2746 9.58195 19.0866 9.86483C18.2962 11.0413 18.6179 12.6498 19.7944 13.4494L20.4561 13.8998L4.36221 37.9534C3.63237 39.0482 3.30077 40.3605 3.42291 41.6706C3.54506 42.9807 4.11353 44.2091 5.03317 45.1502L4.05889 47.7789C3.69124 48.7807 4.0497 49.8928 4.93207 50.4903L4.95964 50.5087L0.115837 57.7514C0.0467936 57.8552 0.00706892 57.9757 0.000859273 58.1002C-0.00535037 58.2247 0.0221856 58.3486 0.0805581 58.4588C0.138931 58.5689 0.225972 58.6613 0.332487 58.726C0.439002 58.7908 0.561036 58.8256 0.685696 58.8268C0.906286 58.8268 1.12688 58.7165 1.25555 58.5143L6.09936 51.2715L6.12693 51.2899C6.52216 51.5565 6.96334 51.6851 7.41371 51.6851C7.97438 51.6851 8.52585 51.4829 8.95784 51.0785L11.0167 49.1943C12.2319 49.6901 13.5812 49.7504 14.8359 49.3652C16.0905 48.9799 17.1734 48.1727 17.901 47.0803C20.6151 43.0233 32.8258 24.7951 33.9949 23.0267L34.6475 23.4679ZM30.4379 2.78755C30.2688 2.67391 30.1516 2.49792 30.112 2.29811C30.0724 2.09829 30.1135 1.89091 30.2265 1.72136C30.4434 1.37761 30.9094 1.26915 31.2835 1.50996L41.3111 8.27474C41.6604 8.51372 41.7615 8.99166 41.5225 9.34093C41.4678 9.42511 41.3968 9.49751 41.3137 9.55386C41.2305 9.61021 41.137 9.64938 41.0385 9.66907C40.9401 9.68877 40.8386 9.68858 40.7403 9.66854C40.6419 9.64849 40.5485 9.60898 40.4655 9.55233L30.4379 2.78755ZM31.8349 5.38868L37.5335 9.23983L32.9471 16.0965L27.2485 12.2454L31.8349 5.38868ZM21.5959 14.6627L23.2319 15.7656L18.2227 23.2473L16.5866 22.1536L21.5959 14.6627ZM25.9341 32.5949L14.7208 25.0396L15.8605 23.3209L27.0739 30.8853L25.9341 32.5949ZM25.0702 27.8705L19.3716 24.0286V24.0194L24.3808 16.5377L30.0794 20.3888L25.0793 27.8705H25.0702ZM8.02033 50.0675C7.71702 50.3524 7.24827 50.3892 6.88981 50.1502L5.70413 49.3506C5.34567 49.1116 5.2078 48.6612 5.35487 48.2568L6.13612 46.152L9.67476 48.5417L8.02033 50.0675ZM16.7612 46.3083C16.4469 46.7825 16.0418 47.1897 15.5691 47.5063C15.0965 47.823 14.5657 48.0428 14.0076 48.153C13.4495 48.2633 12.875 48.2618 12.3175 48.1487C11.7599 48.0355 11.2303 47.813 10.7593 47.4939L6.6876 44.7549C5.73572 44.1062 5.07824 43.1081 4.85795 41.9774C4.63767 40.8468 4.87239 39.6749 5.51112 38.7163L13.9119 26.1518L25.1621 33.7438L16.7612 46.3083ZM27.8459 29.7364L26.2099 28.6334L31.2191 21.1517L32.846 22.2547L27.8459 29.7364ZM20.5664 12.3005C20.015 11.9329 19.8679 11.1792 20.2355 10.6277C20.6308 10.0579 21.3385 9.93836 21.8992 10.2968C27.9654 14.3961 23.8385 11.6112 36.7615 20.3245C37.3037 20.6922 37.4508 21.4458 37.0832 21.9973C36.7523 22.5212 35.9894 22.7234 35.4195 22.3282C30.4658 18.9897 25.5147 15.6471 20.5664 12.3005ZM48.6274 42.9534H37.1659C36.7798 42.9534 36.4765 43.2659 36.4765 43.6428V54.9021C36.4765 55.2789 36.7798 55.5914 37.1659 55.5914H48.6274C49.0134 55.5914 49.3167 55.2789 49.3167 54.9021V43.6428C49.3167 43.2659 49.0134 42.9534 48.6274 42.9534ZM47.938 54.2127H37.8552V44.3321H47.938V54.2127Z" fill="black"/>
<path d="M49.9322 38.9735C49.9138 38.9643 49.8954 38.9551 49.877 38.9551C49.3875 38.7572 48.968 38.4182 48.6717 37.9812C48.3755 37.5442 48.216 37.0289 48.2134 36.501V35.4164H48.5994C49.4175 35.4164 50.07 34.7547 50.07 33.9366V31.3815C50.07 30.2693 49.1693 29.3594 48.0571 29.3594H37.7262C36.614 29.3594 35.7133 30.2693 35.7133 31.3815V33.9366C35.7133 34.7547 36.3658 35.4164 37.1839 35.4164H37.5699V36.501C37.5699 37.5488 36.9265 38.5782 35.8603 38.9735C34.2978 39.5525 33.25 41.0691 33.25 42.7327V54.9019C33.25 57.0619 35.0055 58.8266 37.1655 58.8266H48.627C50.787 58.8266 52.5425 57.0619 52.5425 54.9019V42.7327C52.5425 41.0691 51.4947 39.5525 49.9322 38.9735ZM37.1839 34.0377C37.1287 34.0377 37.092 33.9918 37.092 33.9366V31.3815C37.092 31.0322 37.3769 30.7381 37.7262 30.7381H48.0571C48.2262 30.7405 48.3875 30.8093 48.5062 30.9297C48.6248 31.0501 48.6914 31.2124 48.6913 31.3815V33.9366C48.6913 33.9918 48.6546 34.0377 48.5994 34.0377H37.1839ZM51.1638 54.9019C51.1638 56.3082 50.0241 57.4479 48.627 57.4479H37.1655C35.7684 57.4479 34.6287 56.3082 34.6287 54.9019V42.7327C34.6287 41.6389 35.318 40.6463 36.3383 40.2602C37.1038 39.973 37.7636 39.4594 38.2299 38.7879C38.6962 38.1163 38.9469 37.3186 38.9486 36.501V35.4164H46.8347V36.501C46.8347 38.1646 47.8825 39.6812 49.445 40.2602C49.4542 40.2694 49.4726 40.2786 49.491 40.2786C50.4928 40.6738 51.1638 41.6573 51.1638 42.7327V54.9019Z" fill="black"/>
</svg>
